G04 #@! TF.GenerationSoftware,KiCad,Pcbnew,(6.0.0)*
G04 #@! TF.CreationDate,2022-11-06T22:14:04+11:00*
G04 #@! TF.ProjectId,nRF_dev,6e52465f-6465-4762-9e6b-696361645f70,0.0.1*
G04 #@! TF.SameCoordinates,Original*
G04 #@! TF.FileFunction,Soldermask,Top*
G04 #@! TF.FilePolarity,Negative*
%FSLAX46Y46*%
G04 Gerber Fmt 4.6, Leading zero omitted, Abs format (unit mm)*
G04 Created by KiCad (PCBNEW (6.0.0)) date 2022-11-06 22:14:04*
%MOMM*%
%LPD*%
G01*
G04 APERTURE LIST*
G04 Aperture macros list*
%AMRoundRect*
0 Rectangle with rounded corners*
0 $1 Rounding radius*
0 $2 $3 $4 $5 $6 $7 $8 $9 X,Y pos of 4 corners*
0 Add a 4 corners polygon primitive as box body*
4,1,4,$2,$3,$4,$5,$6,$7,$8,$9,$2,$3,0*
0 Add four circle primitives for the rounded corners*
1,1,$1+$1,$2,$3*
1,1,$1+$1,$4,$5*
1,1,$1+$1,$6,$7*
1,1,$1+$1,$8,$9*
0 Add four rect primitives between the rounded corners*
20,1,$1+$1,$2,$3,$4,$5,0*
20,1,$1+$1,$4,$5,$6,$7,0*
20,1,$1+$1,$6,$7,$8,$9,0*
20,1,$1+$1,$8,$9,$2,$3,0*%
%AMFreePoly0*
4,1,37,0.586062,0.786062,0.601000,0.750000,0.601000,-0.750000,0.586062,-0.786062,0.550000,-0.801000,0.000000,-0.801000,-0.012525,-0.795812,-0.080875,-0.794559,-0.095149,-0.792248,-0.230464,-0.749973,-0.243516,-0.743747,-0.361526,-0.665192,-0.372306,-0.655554,-0.463526,-0.547035,-0.471167,-0.534759,-0.528262,-0.405000,-0.532150,-0.391073,-0.549733,-0.256613,-0.548336,-0.256430,-0.551000,-0.250000,
-0.551000,0.250000,-0.550512,0.251179,-0.550356,0.263956,-0.528545,0.404033,-0.524317,0.417860,-0.464069,0.546185,-0.456130,0.558271,-0.362286,0.664529,-0.351274,0.673901,-0.231379,0.749549,-0.218180,0.755454,-0.081873,0.794411,-0.067546,0.796373,-0.011990,0.796033,0.000000,0.801000,0.550000,0.801000,0.586062,0.786062,0.586062,0.786062,$1*%
%AMFreePoly1*
4,1,37,0.012349,0.795885,0.074216,0.795507,0.088518,0.793370,0.224339,0.752751,0.237465,0.746685,0.356427,0.669578,0.367324,0.660073,0.459862,0.552676,0.467652,0.540494,0.526329,0.411442,0.530388,0.397563,0.550485,0.257230,0.551000,0.250000,0.551000,-0.250000,0.550996,-0.250622,0.550847,-0.262838,0.550144,-0.270677,0.526624,-0.410478,0.522228,-0.424254,0.460416,-0.551833,
0.452330,-0.563821,0.357195,-0.668925,0.346069,-0.678161,0.225259,-0.752338,0.211989,-0.758081,0.075216,-0.795370,0.060866,-0.797157,0.011464,-0.796251,0.000000,-0.801000,-0.550000,-0.801000,-0.586062,-0.786062,-0.601000,-0.750000,-0.601000,0.750000,-0.586062,0.786062,-0.550000,0.801000,0.000000,0.801000,0.012349,0.795885,0.012349,0.795885,$1*%
%AMFreePoly2*
4,1,37,0.536062,0.786062,0.551000,0.750000,0.551000,-0.750000,0.536062,-0.786062,0.500000,-0.801000,0.000000,-0.801000,-0.012525,-0.795812,-0.080875,-0.794559,-0.095149,-0.792248,-0.230464,-0.749973,-0.243516,-0.743747,-0.361526,-0.665192,-0.372306,-0.655554,-0.463526,-0.547035,-0.471167,-0.534759,-0.528262,-0.405000,-0.532150,-0.391073,-0.549733,-0.256613,-0.548336,-0.256430,-0.551000,-0.250000,
-0.551000,0.250000,-0.550512,0.251179,-0.550356,0.263956,-0.528545,0.404033,-0.524317,0.417860,-0.464069,0.546185,-0.456130,0.558271,-0.362286,0.664529,-0.351274,0.673901,-0.231379,0.749549,-0.218180,0.755454,-0.081873,0.794411,-0.067546,0.796373,-0.011990,0.796033,0.000000,0.801000,0.500000,0.801000,0.536062,0.786062,0.536062,0.786062,$1*%
%AMFreePoly3*
4,1,37,0.012349,0.795885,0.074216,0.795507,0.088518,0.793370,0.224339,0.752751,0.237465,0.746685,0.356427,0.669578,0.367324,0.660073,0.459862,0.552676,0.467652,0.540494,0.526329,0.411442,0.530388,0.397563,0.550485,0.257230,0.551000,0.250000,0.551000,-0.250000,0.550996,-0.250622,0.550847,-0.262838,0.550144,-0.270677,0.526624,-0.410478,0.522228,-0.424254,0.460416,-0.551833,
0.452330,-0.563821,0.357195,-0.668925,0.346069,-0.678161,0.225259,-0.752338,0.211989,-0.758081,0.075216,-0.795370,0.060866,-0.797157,0.011464,-0.796251,0.000000,-0.801000,-0.500000,-0.801000,-0.536062,-0.786062,-0.551000,-0.750000,-0.551000,0.750000,-0.536062,0.786062,-0.500000,0.801000,0.000000,0.801000,0.012349,0.795885,0.012349,0.795885,$1*%
G04 Aperture macros list end*
%ADD10RoundRect,0.051000X0.850000X0.850000X-0.850000X0.850000X-0.850000X-0.850000X0.850000X-0.850000X0*%
%ADD11O,1.802000X1.802000*%
%ADD12RoundRect,0.051000X0.400000X-0.500000X0.400000X0.500000X-0.400000X0.500000X-0.400000X-0.500000X0*%
%ADD13RoundRect,0.051000X1.150000X-0.500000X1.150000X0.500000X-1.150000X0.500000X-1.150000X-0.500000X0*%
%ADD14RoundRect,0.051000X0.650000X-0.550000X0.650000X0.550000X-0.650000X0.550000X-0.650000X-0.550000X0*%
%ADD15RoundRect,0.051000X-0.850000X-0.850000X0.850000X-0.850000X0.850000X0.850000X-0.850000X0.850000X0*%
%ADD16RoundRect,0.186000X0.185000X-0.135000X0.185000X0.135000X-0.185000X0.135000X-0.185000X-0.135000X0*%
%ADD17RoundRect,0.051000X-0.125000X-0.125000X0.125000X-0.125000X0.125000X0.125000X-0.125000X0.125000X0*%
%ADD18RoundRect,0.051000X0.125000X-0.125000X0.125000X0.125000X-0.125000X0.125000X-0.125000X-0.125000X0*%
%ADD19RoundRect,0.201000X-0.587500X-0.150000X0.587500X-0.150000X0.587500X0.150000X-0.587500X0.150000X0*%
%ADD20RoundRect,0.051000X-0.650000X0.775000X-0.650000X-0.775000X0.650000X-0.775000X0.650000X0.775000X0*%
%ADD21RoundRect,0.201000X-0.825000X-0.150000X0.825000X-0.150000X0.825000X0.150000X-0.825000X0.150000X0*%
%ADD22RoundRect,0.191000X0.140000X0.170000X-0.140000X0.170000X-0.140000X-0.170000X0.140000X-0.170000X0*%
%ADD23RoundRect,0.051000X-1.750000X1.750000X-1.750000X-1.750000X1.750000X-1.750000X1.750000X1.750000X0*%
%ADD24RoundRect,0.801000X-1.000000X0.750000X-1.000000X-0.750000X1.000000X-0.750000X1.000000X0.750000X0*%
%ADD25RoundRect,0.926000X-0.875000X0.875000X-0.875000X-0.875000X0.875000X-0.875000X0.875000X0.875000X0*%
%ADD26RoundRect,0.051000X-0.775000X-0.650000X0.775000X-0.650000X0.775000X0.650000X-0.775000X0.650000X0*%
%ADD27RoundRect,0.051000X-0.150000X-0.150000X0.150000X-0.150000X0.150000X0.150000X-0.150000X0.150000X0*%
%ADD28RoundRect,0.051000X0.150000X-0.150000X0.150000X0.150000X-0.150000X0.150000X-0.150000X-0.150000X0*%
%ADD29RoundRect,0.051000X-0.400000X-0.400000X0.400000X-0.400000X0.400000X0.400000X-0.400000X0.400000X0*%
%ADD30RoundRect,0.191000X0.170000X-0.140000X0.170000X0.140000X-0.170000X0.140000X-0.170000X-0.140000X0*%
%ADD31RoundRect,0.269750X-0.256250X0.218750X-0.256250X-0.218750X0.256250X-0.218750X0.256250X0.218750X0*%
%ADD32RoundRect,0.186000X-0.185000X0.135000X-0.185000X-0.135000X0.185000X-0.135000X0.185000X0.135000X0*%
%ADD33RoundRect,0.191000X-0.140000X-0.170000X0.140000X-0.170000X0.140000X0.170000X-0.140000X0.170000X0*%
%ADD34RoundRect,0.301000X1.250000X0.550000X-1.250000X0.550000X-1.250000X-0.550000X1.250000X-0.550000X0*%
%ADD35C,2.802000*%
%ADD36RoundRect,0.051000X0.200000X0.675000X-0.200000X0.675000X-0.200000X-0.675000X0.200000X-0.675000X0*%
%ADD37RoundRect,0.051000X0.600000X0.950000X-0.600000X0.950000X-0.600000X-0.950000X0.600000X-0.950000X0*%
%ADD38C,1.552000*%
%ADD39RoundRect,0.051000X0.750000X0.950000X-0.750000X0.950000X-0.750000X-0.950000X0.750000X-0.950000X0*%
%ADD40O,1.302000X2.002000*%
%ADD41RoundRect,0.051000X-0.200000X0.325000X-0.200000X-0.325000X0.200000X-0.325000X0.200000X0.325000X0*%
%ADD42RoundRect,0.051000X-0.400000X0.150000X-0.400000X-0.150000X0.400000X-0.150000X0.400000X0.150000X0*%
%ADD43RoundRect,0.051000X-0.325000X0.150000X-0.325000X-0.150000X0.325000X-0.150000X0.325000X0.150000X0*%
%ADD44RoundRect,0.051000X-0.475000X0.200000X-0.475000X-0.200000X0.475000X-0.200000X0.475000X0.200000X0*%
%ADD45RoundRect,0.186000X0.135000X0.185000X-0.135000X0.185000X-0.135000X-0.185000X0.135000X-0.185000X0*%
%ADD46FreePoly0,0.000000*%
%ADD47RoundRect,0.051000X-0.500000X-0.750000X0.500000X-0.750000X0.500000X0.750000X-0.500000X0.750000X0*%
%ADD48FreePoly1,0.000000*%
%ADD49RoundRect,0.051000X0.500000X0.500000X-0.500000X0.500000X-0.500000X-0.500000X0.500000X-0.500000X0*%
%ADD50O,1.102000X1.102000*%
%ADD51RoundRect,0.191000X-0.170000X0.140000X-0.170000X-0.140000X0.170000X-0.140000X0.170000X0.140000X0*%
%ADD52RoundRect,0.051000X0.425000X0.550000X-0.425000X0.550000X-0.425000X-0.550000X0.425000X-0.550000X0*%
%ADD53RoundRect,0.051000X0.375000X0.550000X-0.375000X0.550000X-0.375000X-0.550000X0.375000X-0.550000X0*%
%ADD54RoundRect,0.051000X0.950000X0.675000X-0.950000X0.675000X-0.950000X-0.675000X0.950000X-0.675000X0*%
%ADD55RoundRect,0.051000X0.585000X0.900000X-0.585000X0.900000X-0.585000X-0.900000X0.585000X-0.900000X0*%
%ADD56RoundRect,0.051000X0.775000X0.675000X-0.775000X0.675000X-0.775000X-0.675000X0.775000X-0.675000X0*%
%ADD57RoundRect,0.051000X0.600000X0.500000X-0.600000X0.500000X-0.600000X-0.500000X0.600000X-0.500000X0*%
%ADD58RoundRect,0.051000X-0.500000X0.500000X-0.500000X-0.500000X0.500000X-0.500000X0.500000X0.500000X0*%
%ADD59RoundRect,0.051000X-1.100000X0.525000X-1.100000X-0.525000X1.100000X-0.525000X1.100000X0.525000X0*%
%ADD60RoundRect,0.301000X-0.250000X-0.475000X0.250000X-0.475000X0.250000X0.475000X-0.250000X0.475000X0*%
%ADD61FreePoly2,180.000000*%
%ADD62FreePoly3,180.000000*%
%ADD63RoundRect,0.301000X0.475000X-0.250000X0.475000X0.250000X-0.475000X0.250000X-0.475000X-0.250000X0*%
G04 APERTURE END LIST*
D10*
X43180000Y-134620000D03*
D11*
X43180000Y-132080000D03*
X43180000Y-129540000D03*
X43180000Y-127000000D03*
X43180000Y-124460000D03*
X43180000Y-121920000D03*
X43180000Y-119380000D03*
X43180000Y-116840000D03*
D12*
X111864500Y-127026000D03*
X110664500Y-127026000D03*
X111864500Y-136726000D03*
X109464500Y-127026000D03*
D13*
X114714500Y-136726000D03*
X114714500Y-126926000D03*
X107514500Y-127026000D03*
X107514500Y-136726000D03*
D12*
X110664500Y-136726000D03*
X109464500Y-136726000D03*
D14*
X104149500Y-129921000D03*
X104149500Y-133731000D03*
D15*
X43180000Y-73660000D03*
D11*
X43180000Y-76200000D03*
X43180000Y-78740000D03*
X43180000Y-81280000D03*
D16*
X73660000Y-130050000D03*
X73660000Y-129030000D03*
D17*
X105010000Y-108200000D03*
X105010000Y-108600000D03*
X105010000Y-109000000D03*
X105410000Y-109000000D03*
X105410000Y-108600000D03*
D18*
X105410000Y-108200000D03*
D19*
X97528500Y-89220000D03*
X97528500Y-91120000D03*
X99403500Y-90170000D03*
D20*
X114010000Y-90005000D03*
X114010000Y-97955000D03*
X109510000Y-97955000D03*
X109510000Y-90005000D03*
D21*
X76325000Y-86695000D03*
X76325000Y-87965000D03*
X76325000Y-89235000D03*
X76325000Y-90505000D03*
X81275000Y-90505000D03*
X81275000Y-89235000D03*
X81275000Y-87965000D03*
X81275000Y-86695000D03*
D22*
X105128000Y-106757000D03*
X104168000Y-106757000D03*
D23*
X111193500Y-83810000D03*
D24*
X111193500Y-77810000D03*
D25*
X106493500Y-80810000D03*
D26*
X80175000Y-73950000D03*
X72225000Y-73950000D03*
X80175000Y-78450000D03*
X72225000Y-78450000D03*
D16*
X64135000Y-130110000D03*
X64135000Y-129090000D03*
D27*
X85976000Y-106506000D03*
X85976000Y-107006000D03*
X85976000Y-107506000D03*
X85976000Y-108006000D03*
X85976000Y-108506000D03*
X85976000Y-109006000D03*
X85976000Y-109506000D03*
X85976000Y-110006000D03*
X85976000Y-110506000D03*
X85976000Y-111006000D03*
X85976000Y-111506000D03*
X85976000Y-112006000D03*
X85976000Y-112506000D03*
X85976000Y-113006000D03*
X85976000Y-113506000D03*
X85976000Y-114006000D03*
X85976000Y-114506000D03*
X85976000Y-115006000D03*
X85976000Y-115506000D03*
X85976000Y-116006000D03*
X85976000Y-116506000D03*
X86476000Y-116506000D03*
X86976000Y-116506000D03*
X87476000Y-116506000D03*
X87976000Y-116506000D03*
X88476000Y-116506000D03*
X88976000Y-116506000D03*
X89476000Y-116506000D03*
X89976000Y-116506000D03*
X90476000Y-116506000D03*
X90976000Y-116506000D03*
X91476000Y-116506000D03*
X91976000Y-116506000D03*
X92476000Y-116506000D03*
X92976000Y-116506000D03*
X93476000Y-116506000D03*
X93976000Y-116506000D03*
X94476000Y-116506000D03*
X94976000Y-116506000D03*
X95476000Y-116506000D03*
X95976000Y-116506000D03*
X96476000Y-116506000D03*
X96976000Y-116506000D03*
X97476000Y-116506000D03*
X97976000Y-116506000D03*
X98476000Y-116506000D03*
X98976000Y-116506000D03*
X99476000Y-116506000D03*
X99976000Y-116506000D03*
X100476000Y-116506000D03*
X100976000Y-116506000D03*
X101476000Y-116506000D03*
X101476000Y-116006000D03*
X101476000Y-115506000D03*
X101476000Y-115006000D03*
X101476000Y-114506000D03*
X101476000Y-114006000D03*
X101476000Y-113506000D03*
X101476000Y-113006000D03*
X101476000Y-112506000D03*
X101476000Y-112006000D03*
X101476000Y-111506000D03*
X101476000Y-111006000D03*
X101476000Y-110506000D03*
X101476000Y-110006000D03*
X101476000Y-109506000D03*
X101476000Y-109006000D03*
X101476000Y-108506000D03*
X101476000Y-108006000D03*
X101476000Y-107506000D03*
X101476000Y-107006000D03*
X101476000Y-106506000D03*
X100976000Y-106506000D03*
X100476000Y-106506000D03*
X99976000Y-106506000D03*
X99476000Y-106506000D03*
X98976000Y-106506000D03*
X98476000Y-106506000D03*
X97976000Y-106506000D03*
X97476000Y-106506000D03*
X96976000Y-106506000D03*
X96476000Y-106506000D03*
X95976000Y-106506000D03*
X95476000Y-106506000D03*
X94976000Y-106506000D03*
X94476000Y-106506000D03*
X93976000Y-106506000D03*
X93476000Y-106506000D03*
X92976000Y-106506000D03*
X92476000Y-106506000D03*
X91976000Y-106506000D03*
X91476000Y-106506000D03*
X90976000Y-106506000D03*
X90476000Y-106506000D03*
D28*
X89976000Y-106506000D03*
D27*
X89476000Y-106506000D03*
X88976000Y-106506000D03*
X88476000Y-106506000D03*
X87976000Y-106506000D03*
X87476000Y-106506000D03*
X86976000Y-106506000D03*
X86476000Y-106506000D03*
D29*
X89726000Y-109906000D03*
X93726000Y-113106000D03*
X89726000Y-111506000D03*
X99726000Y-113106000D03*
X99726000Y-108306000D03*
X93726000Y-109906000D03*
X97726000Y-113106000D03*
X91726000Y-113106000D03*
X87726000Y-111506000D03*
X93726000Y-108306000D03*
X95726000Y-113106000D03*
X95726000Y-109906000D03*
X95726000Y-108306000D03*
X89726000Y-113106000D03*
X87726000Y-114706000D03*
X97726000Y-108306000D03*
X89726000Y-108306000D03*
X91726000Y-114706000D03*
X87726000Y-109906000D03*
X97726000Y-109906000D03*
X99726000Y-114706000D03*
X99726000Y-109906000D03*
X87726000Y-113106000D03*
X91726000Y-108306000D03*
X93726000Y-111506000D03*
X93726000Y-114706000D03*
X95726000Y-111506000D03*
X99726000Y-111506000D03*
X97726000Y-111506000D03*
X95726000Y-114706000D03*
X91726000Y-109906000D03*
X89726000Y-114706000D03*
X91726000Y-111506000D03*
X97726000Y-114706000D03*
X87726000Y-108306000D03*
D27*
X88976000Y-115856000D03*
X89476000Y-115856000D03*
X89976000Y-115856000D03*
X90476000Y-115856000D03*
X93976000Y-115856000D03*
X94476000Y-115856000D03*
X94976000Y-115856000D03*
X95476000Y-115856000D03*
X97976000Y-115856000D03*
X98476000Y-115856000D03*
X98976000Y-115856000D03*
X99476000Y-115856000D03*
X99476000Y-107156000D03*
X98976000Y-107156000D03*
X98476000Y-107156000D03*
X97976000Y-107156000D03*
X95476000Y-107156000D03*
X94976000Y-107156000D03*
X94476000Y-107156000D03*
X93976000Y-107156000D03*
X90476000Y-107156000D03*
X89976000Y-107156000D03*
X89476000Y-107156000D03*
X88976000Y-107156000D03*
D22*
X109700000Y-107011000D03*
X108740000Y-107011000D03*
D30*
X85090000Y-159824000D03*
X85090000Y-158864000D03*
D31*
X107188000Y-106985500D03*
X107188000Y-108560500D03*
D32*
X84328000Y-149604000D03*
X84328000Y-150624000D03*
D33*
X77752000Y-164592000D03*
X78712000Y-164592000D03*
D34*
X100666000Y-82550000D03*
X96266000Y-82550000D03*
D22*
X86586000Y-118618000D03*
X85626000Y-118618000D03*
D35*
X103000000Y-96000000D03*
D36*
X88676000Y-74192500D03*
X88026000Y-74192500D03*
X87376000Y-74192500D03*
X86726000Y-74192500D03*
X86076000Y-74192500D03*
D37*
X90276000Y-71492500D03*
D38*
X89876000Y-74192500D03*
D39*
X86376000Y-71492500D03*
D40*
X83876000Y-71492500D03*
D38*
X84876000Y-74192500D03*
D37*
X84476000Y-71492500D03*
D40*
X90876000Y-71492500D03*
D39*
X88376000Y-71492500D03*
D41*
X99710000Y-121224000D03*
X99060000Y-121224000D03*
X98410000Y-121224000D03*
X98410000Y-123124000D03*
X99710000Y-123124000D03*
D42*
X79297000Y-154134000D03*
D43*
X82172000Y-154434000D03*
D42*
X79297000Y-154734000D03*
D43*
X82172000Y-155034000D03*
D42*
X79297000Y-155334000D03*
D43*
X82172000Y-155634000D03*
D42*
X79297000Y-155934000D03*
D43*
X82172000Y-156234000D03*
D42*
X79297000Y-156534000D03*
D43*
X82172000Y-156834000D03*
D42*
X79297000Y-157134000D03*
D43*
X82172000Y-157434000D03*
D42*
X79297000Y-157734000D03*
D43*
X82172000Y-158034000D03*
D42*
X79297000Y-158334000D03*
D43*
X82172000Y-158634000D03*
D42*
X79297000Y-158934000D03*
D43*
X82172000Y-159234000D03*
D42*
X79297000Y-159534000D03*
D43*
X82172000Y-159834000D03*
D42*
X79297000Y-160134000D03*
D43*
X82172000Y-160434000D03*
D42*
X79297000Y-160734000D03*
D43*
X82172000Y-161034000D03*
D42*
X79297000Y-161334000D03*
D44*
X79572000Y-153434000D03*
X79572000Y-162034000D03*
D32*
X85852000Y-149604000D03*
X85852000Y-150624000D03*
D45*
X88140000Y-103700000D03*
X87120000Y-103700000D03*
D10*
X43180000Y-109220000D03*
D11*
X43180000Y-106680000D03*
X43180000Y-104140000D03*
X43180000Y-101600000D03*
X43180000Y-99060000D03*
X43180000Y-96520000D03*
X43180000Y-93980000D03*
X43180000Y-91440000D03*
D22*
X62456000Y-86360000D03*
X61496000Y-86360000D03*
D10*
X99065000Y-167635000D03*
D11*
X96525000Y-167635000D03*
X99065000Y-165095000D03*
X96525000Y-165095000D03*
X99065000Y-162555000D03*
X96525000Y-162555000D03*
X99065000Y-160015000D03*
X96525000Y-160015000D03*
X99065000Y-157475000D03*
X96525000Y-157475000D03*
X99065000Y-154935000D03*
X96525000Y-154935000D03*
X99065000Y-152395000D03*
X96525000Y-152395000D03*
X99065000Y-149855000D03*
X96525000Y-149855000D03*
X99065000Y-147315000D03*
X96525000Y-147315000D03*
X99065000Y-144775000D03*
X96525000Y-144775000D03*
D46*
X83790000Y-140600000D03*
D47*
X85090000Y-140600000D03*
D48*
X86390000Y-140600000D03*
D16*
X75100000Y-131110000D03*
X75100000Y-130090000D03*
D49*
X69545000Y-130345000D03*
D50*
X68275000Y-130345000D03*
X69545000Y-129075000D03*
X68275000Y-129075000D03*
X69545000Y-127805000D03*
X68275000Y-127805000D03*
D10*
X111760000Y-167635000D03*
D11*
X109220000Y-167635000D03*
X111760000Y-165095000D03*
X109220000Y-165095000D03*
X111760000Y-162555000D03*
X109220000Y-162555000D03*
X111760000Y-160015000D03*
X109220000Y-160015000D03*
X111760000Y-157475000D03*
X109220000Y-157475000D03*
X111760000Y-154935000D03*
X109220000Y-154935000D03*
X111760000Y-152395000D03*
X109220000Y-152395000D03*
X111760000Y-149855000D03*
X109220000Y-149855000D03*
X111760000Y-147315000D03*
X109220000Y-147315000D03*
X111760000Y-144775000D03*
X109220000Y-144775000D03*
D51*
X85852000Y-103406000D03*
X85852000Y-104366000D03*
D52*
X59196000Y-73127500D03*
X60296000Y-73127500D03*
X61396000Y-73127500D03*
X62496000Y-73127500D03*
X63596000Y-73127500D03*
X64696000Y-73127500D03*
X65796000Y-73127500D03*
D53*
X66846000Y-73127500D03*
D54*
X59981000Y-84227500D03*
D55*
X68046000Y-73477500D03*
D54*
X65101000Y-84227500D03*
D56*
X56306000Y-73252500D03*
D57*
X55921000Y-82927500D03*
X55921000Y-78227500D03*
D33*
X85626000Y-120142000D03*
X86586000Y-120142000D03*
D58*
X111276000Y-107011000D03*
D59*
X112776000Y-108486000D03*
X112776000Y-105536000D03*
D58*
X114276000Y-107011000D03*
D60*
X85050000Y-145200000D03*
X86950000Y-145200000D03*
D61*
X88788000Y-167132000D03*
D62*
X87488000Y-167132000D03*
D30*
X83058000Y-111732000D03*
X83058000Y-110772000D03*
D10*
X48260000Y-109220000D03*
D11*
X48260000Y-106680000D03*
X48260000Y-104140000D03*
X48260000Y-101600000D03*
X48260000Y-99060000D03*
X48260000Y-96520000D03*
X48260000Y-93980000D03*
X48260000Y-91440000D03*
X48260000Y-88900000D03*
X48260000Y-86360000D03*
X48260000Y-83820000D03*
X48260000Y-81280000D03*
X48260000Y-78740000D03*
X48260000Y-76200000D03*
X48260000Y-73660000D03*
D46*
X96236000Y-73660000D03*
D47*
X97536000Y-73660000D03*
D48*
X98836000Y-73660000D03*
D51*
X84328000Y-103406000D03*
X84328000Y-104366000D03*
D35*
X68000000Y-96000000D03*
X43000000Y-166000000D03*
X43000000Y-143000000D03*
D45*
X59946000Y-86360000D03*
X58926000Y-86360000D03*
D58*
X104926000Y-112000000D03*
X107926000Y-112000000D03*
D59*
X106426000Y-110525000D03*
X106426000Y-113475000D03*
D30*
X83058000Y-114018000D03*
X83058000Y-113058000D03*
D51*
X102575000Y-121389000D03*
X102575000Y-122349000D03*
D63*
X93386000Y-91120000D03*
X93386000Y-89220000D03*
G36*
X105175572Y-108842362D02*
G01*
X105201643Y-108859782D01*
X105234016Y-108853342D01*
X105242871Y-108844487D01*
X105244803Y-108843969D01*
X105246217Y-108845383D01*
X105245948Y-108847012D01*
X105239767Y-108856262D01*
X105236000Y-108875199D01*
X105236000Y-109124801D01*
X105239767Y-109143737D01*
X105247202Y-109154864D01*
X105247333Y-109156859D01*
X105245670Y-109157971D01*
X105244428Y-109157638D01*
X105218357Y-109140218D01*
X105185984Y-109146658D01*
X105177129Y-109155513D01*
X105175197Y-109156031D01*
X105173783Y-109154617D01*
X105174052Y-109152988D01*
X105180233Y-109143738D01*
X105184000Y-109124801D01*
X105184000Y-108875199D01*
X105180233Y-108856263D01*
X105172798Y-108845136D01*
X105172667Y-108843141D01*
X105174330Y-108842029D01*
X105175572Y-108842362D01*
G37*
G36*
X105167971Y-108764330D02*
G01*
X105167638Y-108765572D01*
X105150218Y-108791643D01*
X105156658Y-108824016D01*
X105165513Y-108832871D01*
X105166031Y-108834803D01*
X105164617Y-108836217D01*
X105162988Y-108835948D01*
X105153738Y-108829767D01*
X105134801Y-108826000D01*
X104885199Y-108826000D01*
X104866263Y-108829767D01*
X104855136Y-108837202D01*
X104853141Y-108837333D01*
X104852029Y-108835670D01*
X104852362Y-108834428D01*
X104869782Y-108808357D01*
X104863342Y-108775984D01*
X104854487Y-108767129D01*
X104853969Y-108765197D01*
X104855383Y-108763783D01*
X104857012Y-108764052D01*
X104866262Y-108770233D01*
X104885199Y-108774000D01*
X105134801Y-108774000D01*
X105153737Y-108770233D01*
X105164864Y-108762798D01*
X105166859Y-108762667D01*
X105167971Y-108764330D01*
G37*
G36*
X105567971Y-108764330D02*
G01*
X105567638Y-108765572D01*
X105550218Y-108791643D01*
X105556658Y-108824016D01*
X105565513Y-108832871D01*
X105566031Y-108834803D01*
X105564617Y-108836217D01*
X105562988Y-108835948D01*
X105553738Y-108829767D01*
X105534801Y-108826000D01*
X105285199Y-108826000D01*
X105266263Y-108829767D01*
X105255136Y-108837202D01*
X105253141Y-108837333D01*
X105252029Y-108835670D01*
X105252362Y-108834428D01*
X105269782Y-108808357D01*
X105263342Y-108775984D01*
X105254487Y-108767129D01*
X105253969Y-108765197D01*
X105255383Y-108763783D01*
X105257012Y-108764052D01*
X105266262Y-108770233D01*
X105285199Y-108774000D01*
X105534801Y-108774000D01*
X105553737Y-108770233D01*
X105564864Y-108762798D01*
X105566859Y-108762667D01*
X105567971Y-108764330D01*
G37*
G36*
X105175572Y-108442362D02*
G01*
X105201643Y-108459782D01*
X105234016Y-108453342D01*
X105242871Y-108444487D01*
X105244803Y-108443969D01*
X105246217Y-108445383D01*
X105245948Y-108447012D01*
X105239767Y-108456262D01*
X105236000Y-108475199D01*
X105236000Y-108724801D01*
X105239767Y-108743737D01*
X105247202Y-108754864D01*
X105247333Y-108756859D01*
X105245670Y-108757971D01*
X105244428Y-108757638D01*
X105218357Y-108740218D01*
X105185984Y-108746658D01*
X105177129Y-108755513D01*
X105175197Y-108756031D01*
X105173783Y-108754617D01*
X105174052Y-108752988D01*
X105180233Y-108743738D01*
X105184000Y-108724801D01*
X105184000Y-108475199D01*
X105180233Y-108456263D01*
X105172798Y-108445136D01*
X105172667Y-108443141D01*
X105174330Y-108442029D01*
X105175572Y-108442362D01*
G37*
G36*
X105167971Y-108364330D02*
G01*
X105167638Y-108365572D01*
X105150218Y-108391643D01*
X105156658Y-108424016D01*
X105165513Y-108432871D01*
X105166031Y-108434803D01*
X105164617Y-108436217D01*
X105162988Y-108435948D01*
X105153738Y-108429767D01*
X105134801Y-108426000D01*
X104885199Y-108426000D01*
X104866263Y-108429767D01*
X104855136Y-108437202D01*
X104853141Y-108437333D01*
X104852029Y-108435670D01*
X104852362Y-108434428D01*
X104869782Y-108408357D01*
X104863342Y-108375984D01*
X104854487Y-108367129D01*
X104853969Y-108365197D01*
X104855383Y-108363783D01*
X104857012Y-108364052D01*
X104866262Y-108370233D01*
X104885199Y-108374000D01*
X105134801Y-108374000D01*
X105153737Y-108370233D01*
X105164864Y-108362798D01*
X105166859Y-108362667D01*
X105167971Y-108364330D01*
G37*
G36*
X105567971Y-108364330D02*
G01*
X105567638Y-108365572D01*
X105550218Y-108391643D01*
X105556658Y-108424016D01*
X105565513Y-108432871D01*
X105566031Y-108434803D01*
X105564617Y-108436217D01*
X105562988Y-108435948D01*
X105553738Y-108429767D01*
X105534801Y-108426000D01*
X105285199Y-108426000D01*
X105266263Y-108429767D01*
X105255136Y-108437202D01*
X105253141Y-108437333D01*
X105252029Y-108435670D01*
X105252362Y-108434428D01*
X105269782Y-108408357D01*
X105263342Y-108375984D01*
X105254487Y-108367129D01*
X105253969Y-108365197D01*
X105255383Y-108363783D01*
X105257012Y-108364052D01*
X105266262Y-108370233D01*
X105285199Y-108374000D01*
X105534801Y-108374000D01*
X105553737Y-108370233D01*
X105564864Y-108362798D01*
X105566859Y-108362667D01*
X105567971Y-108364330D01*
G37*
G36*
X105175572Y-108042362D02*
G01*
X105201643Y-108059782D01*
X105234016Y-108053342D01*
X105242871Y-108044487D01*
X105244803Y-108043969D01*
X105246217Y-108045383D01*
X105245948Y-108047012D01*
X105239767Y-108056262D01*
X105236000Y-108075199D01*
X105236000Y-108324801D01*
X105239767Y-108343737D01*
X105247202Y-108354864D01*
X105247333Y-108356859D01*
X105245670Y-108357971D01*
X105244428Y-108357638D01*
X105218357Y-108340218D01*
X105185984Y-108346658D01*
X105177129Y-108355513D01*
X105175197Y-108356031D01*
X105173783Y-108354617D01*
X105174052Y-108352988D01*
X105180233Y-108343738D01*
X105184000Y-108324801D01*
X105184000Y-108075199D01*
X105180233Y-108056263D01*
X105172798Y-108045136D01*
X105172667Y-108043141D01*
X105174330Y-108042029D01*
X105175572Y-108042362D01*
G37*
M02*
