G04 #@! TF.GenerationSoftware,KiCad,Pcbnew,(6.0.7)*
G04 #@! TF.CreationDate,2022-12-02T15:18:26+11:00*
G04 #@! TF.ProjectId,nRF_dev,6e52465f-6465-4762-9e6b-696361645f70,0.0.2*
G04 #@! TF.SameCoordinates,Original*
G04 #@! TF.FileFunction,Legend,Top*
G04 #@! TF.FilePolarity,Positive*
%FSLAX46Y46*%
G04 Gerber Fmt 4.6, Leading zero omitted, Abs format (unit mm)*
G04 Created by KiCad (PCBNEW (6.0.7)) date 2022-12-02 15:18:26*
%MOMM*%
%LPD*%
G01*
G04 APERTURE LIST*
%ADD10C,0.150000*%
%ADD11C,0.120000*%
%ADD12C,0.300000*%
%ADD13C,0.127000*%
%ADD14C,0.200000*%
G04 APERTURE END LIST*
D10*
X55257142Y-115752380D02*
X54780952Y-115752380D01*
X54780952Y-114752380D01*
X55590476Y-115228571D02*
X55923809Y-115228571D01*
X56066666Y-115752380D02*
X55590476Y-115752380D01*
X55590476Y-114752380D01*
X56066666Y-114752380D01*
X56495238Y-115752380D02*
X56495238Y-114752380D01*
X56733333Y-114752380D01*
X56876190Y-114800000D01*
X56971428Y-114895238D01*
X57019047Y-114990476D01*
X57066666Y-115180952D01*
X57066666Y-115323809D01*
X57019047Y-115514285D01*
X56971428Y-115609523D01*
X56876190Y-115704761D01*
X56733333Y-115752380D01*
X56495238Y-115752380D01*
D11*
X53250000Y-89000000D02*
X52750000Y-89000000D01*
X53250000Y-96500000D02*
X53250000Y-89000000D01*
X53250000Y-96500000D02*
X52750000Y-96500000D01*
X53250000Y-86500000D02*
X53250000Y-78750000D01*
X53250000Y-86500000D02*
X52750000Y-86500000D01*
X53250000Y-78750000D02*
X52750000Y-78750000D01*
D10*
X107654761Y-166349285D02*
X107702380Y-166206428D01*
X107702380Y-165968333D01*
X107654761Y-165873095D01*
X107607142Y-165825476D01*
X107511904Y-165777857D01*
X107416666Y-165777857D01*
X107321428Y-165825476D01*
X107273809Y-165873095D01*
X107226190Y-165968333D01*
X107178571Y-166158809D01*
X107130952Y-166254047D01*
X107083333Y-166301666D01*
X106988095Y-166349285D01*
X106892857Y-166349285D01*
X106797619Y-166301666D01*
X106750000Y-166254047D01*
X106702380Y-166158809D01*
X106702380Y-165920714D01*
X106750000Y-165777857D01*
X107702380Y-165349285D02*
X106702380Y-165349285D01*
X106702380Y-165111190D01*
X106750000Y-164968333D01*
X106845238Y-164873095D01*
X106940476Y-164825476D01*
X107130952Y-164777857D01*
X107273809Y-164777857D01*
X107464285Y-164825476D01*
X107559523Y-164873095D01*
X107654761Y-164968333D01*
X107702380Y-165111190D01*
X107702380Y-165349285D01*
X107416666Y-164396904D02*
X107416666Y-163920714D01*
X107702380Y-164492142D02*
X106702380Y-164158809D01*
X107702380Y-163825476D01*
X50678571Y-99988095D02*
X50726190Y-99845238D01*
X50773809Y-99797619D01*
X50869047Y-99750000D01*
X51011904Y-99750000D01*
X51107142Y-99797619D01*
X51154761Y-99845238D01*
X51202380Y-99940476D01*
X51202380Y-100321428D01*
X50202380Y-100321428D01*
X50202380Y-99988095D01*
X50250000Y-99892857D01*
X50297619Y-99845238D01*
X50392857Y-99797619D01*
X50488095Y-99797619D01*
X50583333Y-99845238D01*
X50630952Y-99892857D01*
X50678571Y-99988095D01*
X50678571Y-100321428D01*
X50202380Y-99464285D02*
X50202380Y-98892857D01*
X51202380Y-99178571D02*
X50202380Y-99178571D01*
X50916666Y-98607142D02*
X50916666Y-98130952D01*
X51202380Y-98702380D02*
X50202380Y-98369047D01*
X51202380Y-98035714D01*
X75461904Y-71928571D02*
X75604761Y-71976190D01*
X75652380Y-72023809D01*
X75700000Y-72119047D01*
X75700000Y-72261904D01*
X75652380Y-72357142D01*
X75604761Y-72404761D01*
X75509523Y-72452380D01*
X75128571Y-72452380D01*
X75128571Y-71452380D01*
X75461904Y-71452380D01*
X75557142Y-71500000D01*
X75604761Y-71547619D01*
X75652380Y-71642857D01*
X75652380Y-71738095D01*
X75604761Y-71833333D01*
X75557142Y-71880952D01*
X75461904Y-71928571D01*
X75128571Y-71928571D01*
X75985714Y-71452380D02*
X76557142Y-71452380D01*
X76271428Y-72452380D02*
X76271428Y-71452380D01*
X76842857Y-72166666D02*
X77319047Y-72166666D01*
X76747619Y-72452380D02*
X77080952Y-71452380D01*
X77414285Y-72452380D01*
X107702380Y-155738095D02*
X106702380Y-155738095D01*
X106702380Y-155500000D01*
X106750000Y-155357142D01*
X106845238Y-155261904D01*
X106940476Y-155214285D01*
X107130952Y-155166666D01*
X107273809Y-155166666D01*
X107464285Y-155214285D01*
X107559523Y-155261904D01*
X107654761Y-155357142D01*
X107702380Y-155500000D01*
X107702380Y-155738095D01*
X107035714Y-154309523D02*
X107702380Y-154309523D01*
X106654761Y-154547619D02*
X107369047Y-154785714D01*
X107369047Y-154166666D01*
X115702380Y-155738095D02*
X114702380Y-155738095D01*
X114702380Y-155500000D01*
X114750000Y-155357142D01*
X114845238Y-155261904D01*
X114940476Y-155214285D01*
X115130952Y-155166666D01*
X115273809Y-155166666D01*
X115464285Y-155214285D01*
X115559523Y-155261904D01*
X115654761Y-155357142D01*
X115702380Y-155500000D01*
X115702380Y-155738095D01*
X114702380Y-154261904D02*
X114702380Y-154738095D01*
X115178571Y-154785714D01*
X115130952Y-154738095D01*
X115083333Y-154642857D01*
X115083333Y-154404761D01*
X115130952Y-154309523D01*
X115178571Y-154261904D01*
X115273809Y-154214285D01*
X115511904Y-154214285D01*
X115607142Y-154261904D01*
X115654761Y-154309523D01*
X115702380Y-154404761D01*
X115702380Y-154642857D01*
X115654761Y-154738095D01*
X115607142Y-154785714D01*
X39702380Y-117988095D02*
X39702380Y-117369047D01*
X40083333Y-117702380D01*
X40083333Y-117559523D01*
X40130952Y-117464285D01*
X40178571Y-117416666D01*
X40273809Y-117369047D01*
X40511904Y-117369047D01*
X40607142Y-117416666D01*
X40654761Y-117464285D01*
X40702380Y-117559523D01*
X40702380Y-117845238D01*
X40654761Y-117940476D01*
X40607142Y-117988095D01*
X39702380Y-117083333D02*
X40702380Y-116750000D01*
X39702380Y-116416666D01*
X39702380Y-116178571D02*
X39702380Y-115559523D01*
X40083333Y-115892857D01*
X40083333Y-115750000D01*
X40130952Y-115654761D01*
X40178571Y-115607142D01*
X40273809Y-115559523D01*
X40511904Y-115559523D01*
X40607142Y-115607142D01*
X40654761Y-115654761D01*
X40702380Y-115750000D01*
X40702380Y-116035714D01*
X40654761Y-116130952D01*
X40607142Y-116178571D01*
X41702380Y-76416666D02*
X41226190Y-76750000D01*
X41702380Y-76988095D02*
X40702380Y-76988095D01*
X40702380Y-76607142D01*
X40750000Y-76511904D01*
X40797619Y-76464285D01*
X40892857Y-76416666D01*
X41035714Y-76416666D01*
X41130952Y-76464285D01*
X41178571Y-76511904D01*
X41226190Y-76607142D01*
X41226190Y-76988095D01*
X40702380Y-76083333D02*
X41702380Y-75416666D01*
X40702380Y-75416666D02*
X41702380Y-76083333D01*
X39702380Y-128333333D02*
X40702380Y-128000000D01*
X39702380Y-127666666D01*
X40702380Y-127333333D02*
X39702380Y-127333333D01*
X39702380Y-126952380D01*
X39750000Y-126857142D01*
X39797619Y-126809523D01*
X39892857Y-126761904D01*
X40035714Y-126761904D01*
X40130952Y-126809523D01*
X40178571Y-126857142D01*
X40226190Y-126952380D01*
X40226190Y-127333333D01*
X40702380Y-126333333D02*
X39702380Y-126333333D01*
X39702380Y-125952380D01*
X39750000Y-125857142D01*
X39797619Y-125809523D01*
X39892857Y-125761904D01*
X40035714Y-125761904D01*
X40130952Y-125809523D01*
X40178571Y-125857142D01*
X40226190Y-125952380D01*
X40226190Y-126333333D01*
X102952380Y-150738095D02*
X101952380Y-150738095D01*
X101952380Y-150500000D01*
X102000000Y-150357142D01*
X102095238Y-150261904D01*
X102190476Y-150214285D01*
X102380952Y-150166666D01*
X102523809Y-150166666D01*
X102714285Y-150214285D01*
X102809523Y-150261904D01*
X102904761Y-150357142D01*
X102952380Y-150500000D01*
X102952380Y-150738095D01*
X101952380Y-149547619D02*
X101952380Y-149452380D01*
X102000000Y-149357142D01*
X102047619Y-149309523D01*
X102142857Y-149261904D01*
X102333333Y-149214285D01*
X102571428Y-149214285D01*
X102761904Y-149261904D01*
X102857142Y-149309523D01*
X102904761Y-149357142D01*
X102952380Y-149452380D01*
X102952380Y-149547619D01*
X102904761Y-149642857D01*
X102857142Y-149690476D01*
X102761904Y-149738095D01*
X102571428Y-149785714D01*
X102333333Y-149785714D01*
X102142857Y-149738095D01*
X102047619Y-149690476D01*
X102000000Y-149642857D01*
X101952380Y-149547619D01*
X54654761Y-93285714D02*
X54702380Y-93142857D01*
X54702380Y-92904761D01*
X54654761Y-92809523D01*
X54607142Y-92761904D01*
X54511904Y-92714285D01*
X54416666Y-92714285D01*
X54321428Y-92761904D01*
X54273809Y-92809523D01*
X54226190Y-92904761D01*
X54178571Y-93095238D01*
X54130952Y-93190476D01*
X54083333Y-93238095D01*
X53988095Y-93285714D01*
X53892857Y-93285714D01*
X53797619Y-93238095D01*
X53750000Y-93190476D01*
X53702380Y-93095238D01*
X53702380Y-92857142D01*
X53750000Y-92714285D01*
X54702380Y-92285714D02*
X53702380Y-92285714D01*
X53702380Y-92047619D01*
X53750000Y-91904761D01*
X53845238Y-91809523D01*
X53940476Y-91761904D01*
X54130952Y-91714285D01*
X54273809Y-91714285D01*
X54464285Y-91761904D01*
X54559523Y-91809523D01*
X54654761Y-91904761D01*
X54702380Y-92047619D01*
X54702380Y-92285714D01*
X51202380Y-95571428D02*
X50202380Y-95571428D01*
X50916666Y-95238095D01*
X50202380Y-94904761D01*
X51202380Y-94904761D01*
X51202380Y-94428571D02*
X50202380Y-94428571D01*
X51154761Y-94000000D02*
X51202380Y-93857142D01*
X51202380Y-93619047D01*
X51154761Y-93523809D01*
X51107142Y-93476190D01*
X51011904Y-93428571D01*
X50916666Y-93428571D01*
X50821428Y-93476190D01*
X50773809Y-93523809D01*
X50726190Y-93619047D01*
X50678571Y-93809523D01*
X50630952Y-93904761D01*
X50583333Y-93952380D01*
X50488095Y-94000000D01*
X50392857Y-94000000D01*
X50297619Y-93952380D01*
X50250000Y-93904761D01*
X50202380Y-93809523D01*
X50202380Y-93571428D01*
X50250000Y-93428571D01*
X50202380Y-92809523D02*
X50202380Y-92619047D01*
X50250000Y-92523809D01*
X50345238Y-92428571D01*
X50535714Y-92380952D01*
X50869047Y-92380952D01*
X51059523Y-92428571D01*
X51154761Y-92523809D01*
X51202380Y-92619047D01*
X51202380Y-92809523D01*
X51154761Y-92904761D01*
X51059523Y-93000000D01*
X50869047Y-93047619D01*
X50535714Y-93047619D01*
X50345238Y-93000000D01*
X50250000Y-92904761D01*
X50202380Y-92809523D01*
X39702380Y-97738095D02*
X39702380Y-97119047D01*
X40083333Y-97452380D01*
X40083333Y-97309523D01*
X40130952Y-97214285D01*
X40178571Y-97166666D01*
X40273809Y-97119047D01*
X40511904Y-97119047D01*
X40607142Y-97166666D01*
X40654761Y-97214285D01*
X40702380Y-97309523D01*
X40702380Y-97595238D01*
X40654761Y-97690476D01*
X40607142Y-97738095D01*
X39702380Y-96833333D02*
X40702380Y-96500000D01*
X39702380Y-96166666D01*
X39702380Y-95928571D02*
X39702380Y-95309523D01*
X40083333Y-95642857D01*
X40083333Y-95500000D01*
X40130952Y-95404761D01*
X40178571Y-95357142D01*
X40273809Y-95309523D01*
X40511904Y-95309523D01*
X40607142Y-95357142D01*
X40654761Y-95404761D01*
X40702380Y-95500000D01*
X40702380Y-95785714D01*
X40654761Y-95880952D01*
X40607142Y-95928571D01*
X51452380Y-110464285D02*
X50452380Y-110464285D01*
X50452380Y-110083333D01*
X50500000Y-109988095D01*
X50547619Y-109940476D01*
X50642857Y-109892857D01*
X50785714Y-109892857D01*
X50880952Y-109940476D01*
X50928571Y-109988095D01*
X50976190Y-110083333D01*
X50976190Y-110464285D01*
X51452380Y-108940476D02*
X51452380Y-109511904D01*
X51452380Y-109226190D02*
X50452380Y-109226190D01*
X50595238Y-109321428D01*
X50690476Y-109416666D01*
X50738095Y-109511904D01*
X50452380Y-108607142D02*
X50452380Y-107940476D01*
X51452380Y-108369047D01*
X69490357Y-125202380D02*
X70109404Y-125202380D01*
X69776071Y-125583333D01*
X69918928Y-125583333D01*
X70014166Y-125630952D01*
X70061785Y-125678571D01*
X70109404Y-125773809D01*
X70109404Y-126011904D01*
X70061785Y-126107142D01*
X70014166Y-126154761D01*
X69918928Y-126202380D01*
X69633214Y-126202380D01*
X69537976Y-126154761D01*
X69490357Y-126107142D01*
X70395119Y-125202380D02*
X70728452Y-126202380D01*
X71061785Y-125202380D01*
X71299880Y-125202380D02*
X71918928Y-125202380D01*
X71585595Y-125583333D01*
X71728452Y-125583333D01*
X71823690Y-125630952D01*
X71871309Y-125678571D01*
X71918928Y-125773809D01*
X71918928Y-126011904D01*
X71871309Y-126107142D01*
X71823690Y-126154761D01*
X71728452Y-126202380D01*
X71442738Y-126202380D01*
X71347500Y-126154761D01*
X71299880Y-126107142D01*
X93702380Y-158238095D02*
X92702380Y-158238095D01*
X92702380Y-158000000D01*
X92750000Y-157857142D01*
X92845238Y-157761904D01*
X92940476Y-157714285D01*
X93130952Y-157666666D01*
X93273809Y-157666666D01*
X93464285Y-157714285D01*
X93559523Y-157761904D01*
X93654761Y-157857142D01*
X93702380Y-158000000D01*
X93702380Y-158238095D01*
X92702380Y-156809523D02*
X92702380Y-157000000D01*
X92750000Y-157095238D01*
X92797619Y-157142857D01*
X92940476Y-157238095D01*
X93130952Y-157285714D01*
X93511904Y-157285714D01*
X93607142Y-157238095D01*
X93654761Y-157190476D01*
X93702380Y-157095238D01*
X93702380Y-156904761D01*
X93654761Y-156809523D01*
X93607142Y-156761904D01*
X93511904Y-156714285D01*
X93273809Y-156714285D01*
X93178571Y-156761904D01*
X93130952Y-156809523D01*
X93083333Y-156904761D01*
X93083333Y-157095238D01*
X93130952Y-157190476D01*
X93178571Y-157238095D01*
X93273809Y-157285714D01*
X107952380Y-94547619D02*
X107476190Y-94880952D01*
X107952380Y-95119047D02*
X106952380Y-95119047D01*
X106952380Y-94738095D01*
X107000000Y-94642857D01*
X107047619Y-94595238D01*
X107142857Y-94547619D01*
X107285714Y-94547619D01*
X107380952Y-94595238D01*
X107428571Y-94642857D01*
X107476190Y-94738095D01*
X107476190Y-95119047D01*
X107904761Y-94166666D02*
X107952380Y-94023809D01*
X107952380Y-93785714D01*
X107904761Y-93690476D01*
X107857142Y-93642857D01*
X107761904Y-93595238D01*
X107666666Y-93595238D01*
X107571428Y-93642857D01*
X107523809Y-93690476D01*
X107476190Y-93785714D01*
X107428571Y-93976190D01*
X107380952Y-94071428D01*
X107333333Y-94119047D01*
X107238095Y-94166666D01*
X107142857Y-94166666D01*
X107047619Y-94119047D01*
X107000000Y-94071428D01*
X106952380Y-93976190D01*
X106952380Y-93738095D01*
X107000000Y-93595238D01*
X106952380Y-93309523D02*
X106952380Y-92738095D01*
X107952380Y-93023809D02*
X106952380Y-93023809D01*
X52702380Y-107964285D02*
X51702380Y-107964285D01*
X51702380Y-107583333D01*
X51750000Y-107488095D01*
X51797619Y-107440476D01*
X51892857Y-107392857D01*
X52035714Y-107392857D01*
X52130952Y-107440476D01*
X52178571Y-107488095D01*
X52226190Y-107583333D01*
X52226190Y-107964285D01*
X52702380Y-106440476D02*
X52702380Y-107011904D01*
X52702380Y-106726190D02*
X51702380Y-106726190D01*
X51845238Y-106821428D01*
X51940476Y-106916666D01*
X51988095Y-107011904D01*
X52130952Y-105869047D02*
X52083333Y-105964285D01*
X52035714Y-106011904D01*
X51940476Y-106059523D01*
X51892857Y-106059523D01*
X51797619Y-106011904D01*
X51750000Y-105964285D01*
X51702380Y-105869047D01*
X51702380Y-105678571D01*
X51750000Y-105583333D01*
X51797619Y-105535714D01*
X51892857Y-105488095D01*
X51940476Y-105488095D01*
X52035714Y-105535714D01*
X52083333Y-105583333D01*
X52130952Y-105678571D01*
X52130952Y-105869047D01*
X52178571Y-105964285D01*
X52226190Y-106011904D01*
X52321428Y-106059523D01*
X52511904Y-106059523D01*
X52607142Y-106011904D01*
X52654761Y-105964285D01*
X52702380Y-105869047D01*
X52702380Y-105678571D01*
X52654761Y-105583333D01*
X52607142Y-105535714D01*
X52511904Y-105488095D01*
X52321428Y-105488095D01*
X52226190Y-105535714D01*
X52178571Y-105583333D01*
X52130952Y-105678571D01*
X92678571Y-147678571D02*
X92726190Y-147535714D01*
X92773809Y-147488095D01*
X92869047Y-147440476D01*
X93011904Y-147440476D01*
X93107142Y-147488095D01*
X93154761Y-147535714D01*
X93202380Y-147630952D01*
X93202380Y-148011904D01*
X92202380Y-148011904D01*
X92202380Y-147678571D01*
X92250000Y-147583333D01*
X92297619Y-147535714D01*
X92392857Y-147488095D01*
X92488095Y-147488095D01*
X92583333Y-147535714D01*
X92630952Y-147583333D01*
X92678571Y-147678571D01*
X92678571Y-148011904D01*
X93107142Y-146440476D02*
X93154761Y-146488095D01*
X93202380Y-146630952D01*
X93202380Y-146726190D01*
X93154761Y-146869047D01*
X93059523Y-146964285D01*
X92964285Y-147011904D01*
X92773809Y-147059523D01*
X92630952Y-147059523D01*
X92440476Y-147011904D01*
X92345238Y-146964285D01*
X92250000Y-146869047D01*
X92202380Y-146726190D01*
X92202380Y-146630952D01*
X92250000Y-146488095D01*
X92297619Y-146440476D01*
X39702380Y-102988095D02*
X39702380Y-102369047D01*
X40083333Y-102702380D01*
X40083333Y-102559523D01*
X40130952Y-102464285D01*
X40178571Y-102416666D01*
X40273809Y-102369047D01*
X40511904Y-102369047D01*
X40607142Y-102416666D01*
X40654761Y-102464285D01*
X40702380Y-102559523D01*
X40702380Y-102845238D01*
X40654761Y-102940476D01*
X40607142Y-102988095D01*
X39702380Y-102083333D02*
X40702380Y-101750000D01*
X39702380Y-101416666D01*
X39702380Y-101178571D02*
X39702380Y-100559523D01*
X40083333Y-100892857D01*
X40083333Y-100750000D01*
X40130952Y-100654761D01*
X40178571Y-100607142D01*
X40273809Y-100559523D01*
X40511904Y-100559523D01*
X40607142Y-100607142D01*
X40654761Y-100654761D01*
X40702380Y-100750000D01*
X40702380Y-101035714D01*
X40654761Y-101130952D01*
X40607142Y-101178571D01*
X52702380Y-102142857D02*
X52702380Y-102619047D01*
X51702380Y-102619047D01*
X52178571Y-101809523D02*
X52178571Y-101476190D01*
X52702380Y-101333333D02*
X52702380Y-101809523D01*
X51702380Y-101809523D01*
X51702380Y-101333333D01*
X52702380Y-100904761D02*
X51702380Y-100904761D01*
X51702380Y-100666666D01*
X51750000Y-100523809D01*
X51845238Y-100428571D01*
X51940476Y-100380952D01*
X52130952Y-100333333D01*
X52273809Y-100333333D01*
X52464285Y-100380952D01*
X52559523Y-100428571D01*
X52654761Y-100523809D01*
X52702380Y-100666666D01*
X52702380Y-100904761D01*
X106702380Y-161988095D02*
X107702380Y-161321428D01*
X106702380Y-161321428D02*
X107702380Y-161988095D01*
X107607142Y-160369047D02*
X107654761Y-160416666D01*
X107702380Y-160559523D01*
X107702380Y-160654761D01*
X107654761Y-160797619D01*
X107559523Y-160892857D01*
X107464285Y-160940476D01*
X107273809Y-160988095D01*
X107130952Y-160988095D01*
X106940476Y-160940476D01*
X106845238Y-160892857D01*
X106750000Y-160797619D01*
X106702380Y-160654761D01*
X106702380Y-160559523D01*
X106750000Y-160416666D01*
X106797619Y-160369047D01*
X107702380Y-159464285D02*
X107702380Y-159940476D01*
X106702380Y-159940476D01*
X107702380Y-159130952D02*
X106702380Y-159130952D01*
X107702380Y-158559523D02*
X107130952Y-158988095D01*
X106702380Y-158559523D02*
X107273809Y-159130952D01*
X105952380Y-148035714D02*
X104952380Y-148035714D01*
X105952380Y-147464285D01*
X104952380Y-147464285D01*
X105857142Y-146416666D02*
X105904761Y-146464285D01*
X105952380Y-146607142D01*
X105952380Y-146702380D01*
X105904761Y-146845238D01*
X105809523Y-146940476D01*
X105714285Y-146988095D01*
X105523809Y-147035714D01*
X105380952Y-147035714D01*
X105190476Y-146988095D01*
X105095238Y-146940476D01*
X105000000Y-146845238D01*
X104952380Y-146702380D01*
X104952380Y-146607142D01*
X105000000Y-146464285D01*
X105047619Y-146416666D01*
X94702380Y-150738095D02*
X93702380Y-150738095D01*
X93702380Y-150500000D01*
X93750000Y-150357142D01*
X93845238Y-150261904D01*
X93940476Y-150214285D01*
X94130952Y-150166666D01*
X94273809Y-150166666D01*
X94464285Y-150214285D01*
X94559523Y-150261904D01*
X94654761Y-150357142D01*
X94702380Y-150500000D01*
X94702380Y-150738095D01*
X94702380Y-149214285D02*
X94702380Y-149785714D01*
X94702380Y-149500000D02*
X93702380Y-149500000D01*
X93845238Y-149595238D01*
X93940476Y-149690476D01*
X93988095Y-149785714D01*
X101702380Y-153238095D02*
X100702380Y-153238095D01*
X100702380Y-153000000D01*
X100750000Y-152857142D01*
X100845238Y-152761904D01*
X100940476Y-152714285D01*
X101130952Y-152666666D01*
X101273809Y-152666666D01*
X101464285Y-152714285D01*
X101559523Y-152761904D01*
X101654761Y-152857142D01*
X101702380Y-153000000D01*
X101702380Y-153238095D01*
X100702380Y-152333333D02*
X100702380Y-151714285D01*
X101083333Y-152047619D01*
X101083333Y-151904761D01*
X101130952Y-151809523D01*
X101178571Y-151761904D01*
X101273809Y-151714285D01*
X101511904Y-151714285D01*
X101607142Y-151761904D01*
X101654761Y-151809523D01*
X101702380Y-151904761D01*
X101702380Y-152190476D01*
X101654761Y-152285714D01*
X101607142Y-152333333D01*
X103154761Y-166325476D02*
X103202380Y-166182619D01*
X103202380Y-165944523D01*
X103154761Y-165849285D01*
X103107142Y-165801666D01*
X103011904Y-165754047D01*
X102916666Y-165754047D01*
X102821428Y-165801666D01*
X102773809Y-165849285D01*
X102726190Y-165944523D01*
X102678571Y-166135000D01*
X102630952Y-166230238D01*
X102583333Y-166277857D01*
X102488095Y-166325476D01*
X102392857Y-166325476D01*
X102297619Y-166277857D01*
X102250000Y-166230238D01*
X102202380Y-166135000D01*
X102202380Y-165896904D01*
X102250000Y-165754047D01*
X103107142Y-164754047D02*
X103154761Y-164801666D01*
X103202380Y-164944523D01*
X103202380Y-165039761D01*
X103154761Y-165182619D01*
X103059523Y-165277857D01*
X102964285Y-165325476D01*
X102773809Y-165373095D01*
X102630952Y-165373095D01*
X102440476Y-165325476D01*
X102345238Y-165277857D01*
X102250000Y-165182619D01*
X102202380Y-165039761D01*
X102202380Y-164944523D01*
X102250000Y-164801666D01*
X102297619Y-164754047D01*
X103202380Y-163849285D02*
X103202380Y-164325476D01*
X102202380Y-164325476D01*
X52452380Y-76416666D02*
X51976190Y-76750000D01*
X52452380Y-76988095D02*
X51452380Y-76988095D01*
X51452380Y-76607142D01*
X51500000Y-76511904D01*
X51547619Y-76464285D01*
X51642857Y-76416666D01*
X51785714Y-76416666D01*
X51880952Y-76464285D01*
X51928571Y-76511904D01*
X51976190Y-76607142D01*
X51976190Y-76988095D01*
X51452380Y-76083333D02*
X52452380Y-75416666D01*
X51452380Y-75416666D02*
X52452380Y-76083333D01*
X67642857Y-122154761D02*
X67785714Y-122202380D01*
X68023809Y-122202380D01*
X68119047Y-122154761D01*
X68166666Y-122107142D01*
X68214285Y-122011904D01*
X68214285Y-121916666D01*
X68166666Y-121821428D01*
X68119047Y-121773809D01*
X68023809Y-121726190D01*
X67833333Y-121678571D01*
X67738095Y-121630952D01*
X67690476Y-121583333D01*
X67642857Y-121488095D01*
X67642857Y-121392857D01*
X67690476Y-121297619D01*
X67738095Y-121250000D01*
X67833333Y-121202380D01*
X68071428Y-121202380D01*
X68214285Y-121250000D01*
X68547619Y-121202380D02*
X68785714Y-122202380D01*
X68976190Y-121488095D01*
X69166666Y-122202380D01*
X69404761Y-121202380D01*
X69785714Y-122202380D02*
X69785714Y-121202380D01*
X70023809Y-121202380D01*
X70166666Y-121250000D01*
X70261904Y-121345238D01*
X70309523Y-121440476D01*
X70357142Y-121630952D01*
X70357142Y-121773809D01*
X70309523Y-121964285D01*
X70261904Y-122059523D01*
X70166666Y-122154761D01*
X70023809Y-122202380D01*
X69785714Y-122202380D01*
X49952380Y-74511904D02*
X49952380Y-73940476D01*
X50952380Y-74226190D02*
X49952380Y-74226190D01*
X49952380Y-73702380D02*
X50952380Y-73035714D01*
X49952380Y-73035714D02*
X50952380Y-73702380D01*
X54178571Y-83940476D02*
X54178571Y-84273809D01*
X54702380Y-84273809D02*
X53702380Y-84273809D01*
X53702380Y-83797619D01*
X54702380Y-82940476D02*
X54702380Y-83416666D01*
X53702380Y-83416666D01*
X54416666Y-82654761D02*
X54416666Y-82178571D01*
X54702380Y-82750000D02*
X53702380Y-82416666D01*
X54702380Y-82083333D01*
X54654761Y-81797619D02*
X54702380Y-81654761D01*
X54702380Y-81416666D01*
X54654761Y-81321428D01*
X54607142Y-81273809D01*
X54511904Y-81226190D01*
X54416666Y-81226190D01*
X54321428Y-81273809D01*
X54273809Y-81321428D01*
X54226190Y-81416666D01*
X54178571Y-81607142D01*
X54130952Y-81702380D01*
X54083333Y-81750000D01*
X53988095Y-81797619D01*
X53892857Y-81797619D01*
X53797619Y-81750000D01*
X53750000Y-81702380D01*
X53702380Y-81607142D01*
X53702380Y-81369047D01*
X53750000Y-81226190D01*
X54702380Y-80797619D02*
X53702380Y-80797619D01*
X54178571Y-80797619D02*
X54178571Y-80226190D01*
X54702380Y-80226190D02*
X53702380Y-80226190D01*
X39702380Y-74511904D02*
X39702380Y-73940476D01*
X40702380Y-74226190D02*
X39702380Y-74226190D01*
X39702380Y-73702380D02*
X40702380Y-73035714D01*
X39702380Y-73035714D02*
X40702380Y-73702380D01*
X106452380Y-158238095D02*
X105452380Y-158238095D01*
X105452380Y-158000000D01*
X105500000Y-157857142D01*
X105595238Y-157761904D01*
X105690476Y-157714285D01*
X105880952Y-157666666D01*
X106023809Y-157666666D01*
X106214285Y-157714285D01*
X106309523Y-157761904D01*
X106404761Y-157857142D01*
X106452380Y-158000000D01*
X106452380Y-158238095D01*
X105452380Y-156809523D02*
X105452380Y-157000000D01*
X105500000Y-157095238D01*
X105547619Y-157142857D01*
X105690476Y-157238095D01*
X105880952Y-157285714D01*
X106261904Y-157285714D01*
X106357142Y-157238095D01*
X106404761Y-157190476D01*
X106452380Y-157095238D01*
X106452380Y-156904761D01*
X106404761Y-156809523D01*
X106357142Y-156761904D01*
X106261904Y-156714285D01*
X106023809Y-156714285D01*
X105928571Y-156761904D01*
X105880952Y-156809523D01*
X105833333Y-156904761D01*
X105833333Y-157095238D01*
X105880952Y-157190476D01*
X105928571Y-157238095D01*
X106023809Y-157285714D01*
X82214285Y-137952380D02*
X82833333Y-137952380D01*
X82500000Y-138333333D01*
X82642857Y-138333333D01*
X82738095Y-138380952D01*
X82785714Y-138428571D01*
X82833333Y-138523809D01*
X82833333Y-138761904D01*
X82785714Y-138857142D01*
X82738095Y-138904761D01*
X82642857Y-138952380D01*
X82357142Y-138952380D01*
X82261904Y-138904761D01*
X82214285Y-138857142D01*
X83119047Y-137952380D02*
X83452380Y-138952380D01*
X83785714Y-137952380D01*
X84023809Y-137952380D02*
X84642857Y-137952380D01*
X84309523Y-138333333D01*
X84452380Y-138333333D01*
X84547619Y-138380952D01*
X84595238Y-138428571D01*
X84642857Y-138523809D01*
X84642857Y-138761904D01*
X84595238Y-138857142D01*
X84547619Y-138904761D01*
X84452380Y-138952380D01*
X84166666Y-138952380D01*
X84071428Y-138904761D01*
X84023809Y-138857142D01*
X85309523Y-139285714D02*
X85309523Y-137857142D01*
X86595238Y-138857142D02*
X86547619Y-138904761D01*
X86404761Y-138952380D01*
X86309523Y-138952380D01*
X86166666Y-138904761D01*
X86071428Y-138809523D01*
X86023809Y-138714285D01*
X85976190Y-138523809D01*
X85976190Y-138380952D01*
X86023809Y-138190476D01*
X86071428Y-138095238D01*
X86166666Y-138000000D01*
X86309523Y-137952380D01*
X86404761Y-137952380D01*
X86547619Y-138000000D01*
X86595238Y-138047619D01*
X87357142Y-138428571D02*
X87500000Y-138476190D01*
X87547619Y-138523809D01*
X87595238Y-138619047D01*
X87595238Y-138761904D01*
X87547619Y-138857142D01*
X87500000Y-138904761D01*
X87404761Y-138952380D01*
X87023809Y-138952380D01*
X87023809Y-137952380D01*
X87357142Y-137952380D01*
X87452380Y-138000000D01*
X87500000Y-138047619D01*
X87547619Y-138142857D01*
X87547619Y-138238095D01*
X87500000Y-138333333D01*
X87452380Y-138380952D01*
X87357142Y-138428571D01*
X87023809Y-138428571D01*
X88642857Y-137952380D02*
X88976190Y-138952380D01*
X89309523Y-137952380D01*
X89642857Y-138952380D02*
X89642857Y-137952380D01*
X90119047Y-138952380D02*
X90119047Y-137952380D01*
X90690476Y-138952380D01*
X90690476Y-137952380D01*
D12*
X47421190Y-168404761D02*
X47421190Y-167071428D01*
X47421190Y-167452380D02*
X47516428Y-167261904D01*
X47611666Y-167166666D01*
X47802142Y-167071428D01*
X47992619Y-167071428D01*
X49421190Y-168309523D02*
X49230714Y-168404761D01*
X48849761Y-168404761D01*
X48659285Y-168309523D01*
X48564047Y-168119047D01*
X48564047Y-167357142D01*
X48659285Y-167166666D01*
X48849761Y-167071428D01*
X49230714Y-167071428D01*
X49421190Y-167166666D01*
X49516428Y-167357142D01*
X49516428Y-167547619D01*
X48564047Y-167738095D01*
X50183095Y-167071428D02*
X50659285Y-168404761D01*
X51135476Y-167071428D01*
X53802142Y-166404761D02*
X53992619Y-166404761D01*
X54183095Y-166500000D01*
X54278333Y-166595238D01*
X54373571Y-166785714D01*
X54468809Y-167166666D01*
X54468809Y-167642857D01*
X54373571Y-168023809D01*
X54278333Y-168214285D01*
X54183095Y-168309523D01*
X53992619Y-168404761D01*
X53802142Y-168404761D01*
X53611666Y-168309523D01*
X53516428Y-168214285D01*
X53421190Y-168023809D01*
X53325952Y-167642857D01*
X53325952Y-167166666D01*
X53421190Y-166785714D01*
X53516428Y-166595238D01*
X53611666Y-166500000D01*
X53802142Y-166404761D01*
X55325952Y-168214285D02*
X55421190Y-168309523D01*
X55325952Y-168404761D01*
X55230714Y-168309523D01*
X55325952Y-168214285D01*
X55325952Y-168404761D01*
X56659285Y-166404761D02*
X56849761Y-166404761D01*
X57040238Y-166500000D01*
X57135476Y-166595238D01*
X57230714Y-166785714D01*
X57325952Y-167166666D01*
X57325952Y-167642857D01*
X57230714Y-168023809D01*
X57135476Y-168214285D01*
X57040238Y-168309523D01*
X56849761Y-168404761D01*
X56659285Y-168404761D01*
X56468809Y-168309523D01*
X56373571Y-168214285D01*
X56278333Y-168023809D01*
X56183095Y-167642857D01*
X56183095Y-167166666D01*
X56278333Y-166785714D01*
X56373571Y-166595238D01*
X56468809Y-166500000D01*
X56659285Y-166404761D01*
X58183095Y-168214285D02*
X58278333Y-168309523D01*
X58183095Y-168404761D01*
X58087857Y-168309523D01*
X58183095Y-168214285D01*
X58183095Y-168404761D01*
X58945000Y-166404761D02*
X60183095Y-166404761D01*
X59516428Y-167166666D01*
X59802142Y-167166666D01*
X59992619Y-167261904D01*
X60087857Y-167357142D01*
X60183095Y-167547619D01*
X60183095Y-168023809D01*
X60087857Y-168214285D01*
X59992619Y-168309523D01*
X59802142Y-168404761D01*
X59230714Y-168404761D01*
X59040238Y-168309523D01*
X58945000Y-168214285D01*
D10*
X40750000Y-94761904D02*
X40702380Y-94857142D01*
X40702380Y-95000000D01*
X40750000Y-95142857D01*
X40845238Y-95238095D01*
X40940476Y-95285714D01*
X41130952Y-95333333D01*
X41273809Y-95333333D01*
X41464285Y-95285714D01*
X41559523Y-95238095D01*
X41654761Y-95142857D01*
X41702380Y-95000000D01*
X41702380Y-94904761D01*
X41654761Y-94761904D01*
X41607142Y-94714285D01*
X41273809Y-94714285D01*
X41273809Y-94904761D01*
X41702380Y-94285714D02*
X40702380Y-94285714D01*
X41702380Y-93714285D01*
X40702380Y-93714285D01*
X41702380Y-93238095D02*
X40702380Y-93238095D01*
X40702380Y-93000000D01*
X40750000Y-92857142D01*
X40845238Y-92761904D01*
X40940476Y-92714285D01*
X41130952Y-92666666D01*
X41273809Y-92666666D01*
X41464285Y-92714285D01*
X41559523Y-92761904D01*
X41654761Y-92857142D01*
X41702380Y-93000000D01*
X41702380Y-93238095D01*
X100952380Y-168968333D02*
X101952380Y-168635000D01*
X100952380Y-168301666D01*
X101857142Y-167396904D02*
X101904761Y-167444523D01*
X101952380Y-167587380D01*
X101952380Y-167682619D01*
X101904761Y-167825476D01*
X101809523Y-167920714D01*
X101714285Y-167968333D01*
X101523809Y-168015952D01*
X101380952Y-168015952D01*
X101190476Y-167968333D01*
X101095238Y-167920714D01*
X101000000Y-167825476D01*
X100952380Y-167682619D01*
X100952380Y-167587380D01*
X101000000Y-167444523D01*
X101047619Y-167396904D01*
X101857142Y-166396904D02*
X101904761Y-166444523D01*
X101952380Y-166587380D01*
X101952380Y-166682619D01*
X101904761Y-166825476D01*
X101809523Y-166920714D01*
X101714285Y-166968333D01*
X101523809Y-167015952D01*
X101380952Y-167015952D01*
X101190476Y-166968333D01*
X101095238Y-166920714D01*
X101000000Y-166825476D01*
X100952380Y-166682619D01*
X100952380Y-166587380D01*
X101000000Y-166444523D01*
X101047619Y-166396904D01*
X86404761Y-165357142D02*
X86357142Y-165404761D01*
X86214285Y-165452380D01*
X86119047Y-165452380D01*
X85976190Y-165404761D01*
X85880952Y-165309523D01*
X85833333Y-165214285D01*
X85785714Y-165023809D01*
X85785714Y-164880952D01*
X85833333Y-164690476D01*
X85880952Y-164595238D01*
X85976190Y-164500000D01*
X86119047Y-164452380D01*
X86214285Y-164452380D01*
X86357142Y-164500000D01*
X86404761Y-164547619D01*
X87166666Y-164928571D02*
X87309523Y-164976190D01*
X87357142Y-165023809D01*
X87404761Y-165119047D01*
X87404761Y-165261904D01*
X87357142Y-165357142D01*
X87309523Y-165404761D01*
X87214285Y-165452380D01*
X86833333Y-165452380D01*
X86833333Y-164452380D01*
X87166666Y-164452380D01*
X87261904Y-164500000D01*
X87309523Y-164547619D01*
X87357142Y-164642857D01*
X87357142Y-164738095D01*
X87309523Y-164833333D01*
X87261904Y-164880952D01*
X87166666Y-164928571D01*
X86833333Y-164928571D01*
X89119047Y-164500000D02*
X89023809Y-164452380D01*
X88880952Y-164452380D01*
X88738095Y-164500000D01*
X88642857Y-164595238D01*
X88595238Y-164690476D01*
X88547619Y-164880952D01*
X88547619Y-165023809D01*
X88595238Y-165214285D01*
X88642857Y-165309523D01*
X88738095Y-165404761D01*
X88880952Y-165452380D01*
X88976190Y-165452380D01*
X89119047Y-165404761D01*
X89166666Y-165357142D01*
X89166666Y-165023809D01*
X88976190Y-165023809D01*
X89595238Y-165452380D02*
X89595238Y-164452380D01*
X90166666Y-165452380D01*
X90166666Y-164452380D01*
X90642857Y-165452380D02*
X90642857Y-164452380D01*
X90880952Y-164452380D01*
X91023809Y-164500000D01*
X91119047Y-164595238D01*
X91166666Y-164690476D01*
X91214285Y-164880952D01*
X91214285Y-165023809D01*
X91166666Y-165214285D01*
X91119047Y-165309523D01*
X91023809Y-165404761D01*
X90880952Y-165452380D01*
X90642857Y-165452380D01*
X40750000Y-125261904D02*
X40702380Y-125357142D01*
X40702380Y-125500000D01*
X40750000Y-125642857D01*
X40845238Y-125738095D01*
X40940476Y-125785714D01*
X41130952Y-125833333D01*
X41273809Y-125833333D01*
X41464285Y-125785714D01*
X41559523Y-125738095D01*
X41654761Y-125642857D01*
X41702380Y-125500000D01*
X41702380Y-125404761D01*
X41654761Y-125261904D01*
X41607142Y-125214285D01*
X41273809Y-125214285D01*
X41273809Y-125404761D01*
X41702380Y-124785714D02*
X40702380Y-124785714D01*
X41702380Y-124214285D01*
X40702380Y-124214285D01*
X41702380Y-123738095D02*
X40702380Y-123738095D01*
X40702380Y-123500000D01*
X40750000Y-123357142D01*
X40845238Y-123261904D01*
X40940476Y-123214285D01*
X41130952Y-123166666D01*
X41273809Y-123166666D01*
X41464285Y-123214285D01*
X41559523Y-123261904D01*
X41654761Y-123357142D01*
X41702380Y-123500000D01*
X41702380Y-123738095D01*
X51202380Y-105214285D02*
X50202380Y-105214285D01*
X50202380Y-104833333D01*
X50250000Y-104738095D01*
X50297619Y-104690476D01*
X50392857Y-104642857D01*
X50535714Y-104642857D01*
X50630952Y-104690476D01*
X50678571Y-104738095D01*
X50726190Y-104833333D01*
X50726190Y-105214285D01*
X51202380Y-103690476D02*
X51202380Y-104261904D01*
X51202380Y-103976190D02*
X50202380Y-103976190D01*
X50345238Y-104071428D01*
X50440476Y-104166666D01*
X50488095Y-104261904D01*
X51202380Y-103214285D02*
X51202380Y-103023809D01*
X51154761Y-102928571D01*
X51107142Y-102880952D01*
X50964285Y-102785714D01*
X50773809Y-102738095D01*
X50392857Y-102738095D01*
X50297619Y-102785714D01*
X50250000Y-102833333D01*
X50202380Y-102928571D01*
X50202380Y-103119047D01*
X50250000Y-103214285D01*
X50297619Y-103261904D01*
X50392857Y-103309523D01*
X50630952Y-103309523D01*
X50726190Y-103261904D01*
X50773809Y-103214285D01*
X50821428Y-103119047D01*
X50821428Y-102928571D01*
X50773809Y-102833333D01*
X50726190Y-102785714D01*
X50630952Y-102738095D01*
X115904761Y-166325476D02*
X115952380Y-166182619D01*
X115952380Y-165944523D01*
X115904761Y-165849285D01*
X115857142Y-165801666D01*
X115761904Y-165754047D01*
X115666666Y-165754047D01*
X115571428Y-165801666D01*
X115523809Y-165849285D01*
X115476190Y-165944523D01*
X115428571Y-166135000D01*
X115380952Y-166230238D01*
X115333333Y-166277857D01*
X115238095Y-166325476D01*
X115142857Y-166325476D01*
X115047619Y-166277857D01*
X115000000Y-166230238D01*
X114952380Y-166135000D01*
X114952380Y-165896904D01*
X115000000Y-165754047D01*
X115857142Y-164754047D02*
X115904761Y-164801666D01*
X115952380Y-164944523D01*
X115952380Y-165039761D01*
X115904761Y-165182619D01*
X115809523Y-165277857D01*
X115714285Y-165325476D01*
X115523809Y-165373095D01*
X115380952Y-165373095D01*
X115190476Y-165325476D01*
X115095238Y-165277857D01*
X115000000Y-165182619D01*
X114952380Y-165039761D01*
X114952380Y-164944523D01*
X115000000Y-164801666D01*
X115047619Y-164754047D01*
X115952380Y-163849285D02*
X115952380Y-164325476D01*
X114952380Y-164325476D01*
X40750000Y-110011904D02*
X40702380Y-110107142D01*
X40702380Y-110250000D01*
X40750000Y-110392857D01*
X40845238Y-110488095D01*
X40940476Y-110535714D01*
X41130952Y-110583333D01*
X41273809Y-110583333D01*
X41464285Y-110535714D01*
X41559523Y-110488095D01*
X41654761Y-110392857D01*
X41702380Y-110250000D01*
X41702380Y-110154761D01*
X41654761Y-110011904D01*
X41607142Y-109964285D01*
X41273809Y-109964285D01*
X41273809Y-110154761D01*
X41702380Y-109535714D02*
X40702380Y-109535714D01*
X41702380Y-108964285D01*
X40702380Y-108964285D01*
X41702380Y-108488095D02*
X40702380Y-108488095D01*
X40702380Y-108250000D01*
X40750000Y-108107142D01*
X40845238Y-108011904D01*
X40940476Y-107964285D01*
X41130952Y-107916666D01*
X41273809Y-107916666D01*
X41464285Y-107964285D01*
X41559523Y-108011904D01*
X41654761Y-108107142D01*
X41702380Y-108250000D01*
X41702380Y-108488095D01*
X107761904Y-123785714D02*
X107761904Y-124452380D01*
X107761904Y-123880952D02*
X107809523Y-123833333D01*
X107904761Y-123785714D01*
X108047619Y-123785714D01*
X108142857Y-123833333D01*
X108190476Y-123928571D01*
X108190476Y-124452380D01*
X109095238Y-124452380D02*
X109095238Y-123928571D01*
X109047619Y-123833333D01*
X108952380Y-123785714D01*
X108761904Y-123785714D01*
X108666666Y-123833333D01*
X109095238Y-124404761D02*
X109000000Y-124452380D01*
X108761904Y-124452380D01*
X108666666Y-124404761D01*
X108619047Y-124309523D01*
X108619047Y-124214285D01*
X108666666Y-124119047D01*
X108761904Y-124071428D01*
X109000000Y-124071428D01*
X109095238Y-124023809D01*
X109571428Y-123785714D02*
X109571428Y-124452380D01*
X109571428Y-123880952D02*
X109619047Y-123833333D01*
X109714285Y-123785714D01*
X109857142Y-123785714D01*
X109952380Y-123833333D01*
X110000000Y-123928571D01*
X110000000Y-124452380D01*
X110619047Y-124452380D02*
X110523809Y-124404761D01*
X110476190Y-124357142D01*
X110428571Y-124261904D01*
X110428571Y-123976190D01*
X110476190Y-123880952D01*
X110523809Y-123833333D01*
X110619047Y-123785714D01*
X110761904Y-123785714D01*
X110857142Y-123833333D01*
X110904761Y-123880952D01*
X110952380Y-123976190D01*
X110952380Y-124261904D01*
X110904761Y-124357142D01*
X110857142Y-124404761D01*
X110761904Y-124452380D01*
X110619047Y-124452380D01*
X112095238Y-124404761D02*
X112238095Y-124452380D01*
X112476190Y-124452380D01*
X112571428Y-124404761D01*
X112619047Y-124357142D01*
X112666666Y-124261904D01*
X112666666Y-124166666D01*
X112619047Y-124071428D01*
X112571428Y-124023809D01*
X112476190Y-123976190D01*
X112285714Y-123928571D01*
X112190476Y-123880952D01*
X112142857Y-123833333D01*
X112095238Y-123738095D01*
X112095238Y-123642857D01*
X112142857Y-123547619D01*
X112190476Y-123500000D01*
X112285714Y-123452380D01*
X112523809Y-123452380D01*
X112666666Y-123500000D01*
X113095238Y-124452380D02*
X113095238Y-123452380D01*
X113571428Y-124452380D02*
X113571428Y-123452380D01*
X113904761Y-124166666D01*
X114238095Y-123452380D01*
X114238095Y-124452380D01*
X92750000Y-168396904D02*
X92702380Y-168492142D01*
X92702380Y-168635000D01*
X92750000Y-168777857D01*
X92845238Y-168873095D01*
X92940476Y-168920714D01*
X93130952Y-168968333D01*
X93273809Y-168968333D01*
X93464285Y-168920714D01*
X93559523Y-168873095D01*
X93654761Y-168777857D01*
X93702380Y-168635000D01*
X93702380Y-168539761D01*
X93654761Y-168396904D01*
X93607142Y-168349285D01*
X93273809Y-168349285D01*
X93273809Y-168539761D01*
X93702380Y-167920714D02*
X92702380Y-167920714D01*
X93702380Y-167349285D01*
X92702380Y-167349285D01*
X93702380Y-166873095D02*
X92702380Y-166873095D01*
X92702380Y-166635000D01*
X92750000Y-166492142D01*
X92845238Y-166396904D01*
X92940476Y-166349285D01*
X93130952Y-166301666D01*
X93273809Y-166301666D01*
X93464285Y-166349285D01*
X93559523Y-166396904D01*
X93654761Y-166492142D01*
X93702380Y-166635000D01*
X93702380Y-166873095D01*
X70452380Y-81714285D02*
X69785714Y-81714285D01*
X69880952Y-81714285D02*
X69833333Y-81666666D01*
X69785714Y-81571428D01*
X69785714Y-81428571D01*
X69833333Y-81333333D01*
X69928571Y-81285714D01*
X70452380Y-81285714D01*
X69928571Y-81285714D02*
X69833333Y-81238095D01*
X69785714Y-81142857D01*
X69785714Y-81000000D01*
X69833333Y-80904761D01*
X69928571Y-80857142D01*
X70452380Y-80857142D01*
X70452380Y-80380952D02*
X69785714Y-80380952D01*
X69452380Y-80380952D02*
X69500000Y-80428571D01*
X69547619Y-80380952D01*
X69500000Y-80333333D01*
X69452380Y-80380952D01*
X69547619Y-80380952D01*
X70404761Y-79476190D02*
X70452380Y-79571428D01*
X70452380Y-79761904D01*
X70404761Y-79857142D01*
X70357142Y-79904761D01*
X70261904Y-79952380D01*
X69976190Y-79952380D01*
X69880952Y-79904761D01*
X69833333Y-79857142D01*
X69785714Y-79761904D01*
X69785714Y-79571428D01*
X69833333Y-79476190D01*
X70452380Y-79047619D02*
X69785714Y-79047619D01*
X69976190Y-79047619D02*
X69880952Y-79000000D01*
X69833333Y-78952380D01*
X69785714Y-78857142D01*
X69785714Y-78761904D01*
X70452380Y-78285714D02*
X70404761Y-78380952D01*
X70357142Y-78428571D01*
X70261904Y-78476190D01*
X69976190Y-78476190D01*
X69880952Y-78428571D01*
X69833333Y-78380952D01*
X69785714Y-78285714D01*
X69785714Y-78142857D01*
X69833333Y-78047619D01*
X69880952Y-78000000D01*
X69976190Y-77952380D01*
X70261904Y-77952380D01*
X70357142Y-78000000D01*
X70404761Y-78047619D01*
X70452380Y-78142857D01*
X70452380Y-78285714D01*
X70404761Y-76809523D02*
X70452380Y-76666666D01*
X70452380Y-76428571D01*
X70404761Y-76333333D01*
X70357142Y-76285714D01*
X70261904Y-76238095D01*
X70166666Y-76238095D01*
X70071428Y-76285714D01*
X70023809Y-76333333D01*
X69976190Y-76428571D01*
X69928571Y-76619047D01*
X69880952Y-76714285D01*
X69833333Y-76761904D01*
X69738095Y-76809523D01*
X69642857Y-76809523D01*
X69547619Y-76761904D01*
X69500000Y-76714285D01*
X69452380Y-76619047D01*
X69452380Y-76380952D01*
X69500000Y-76238095D01*
X70452380Y-75809523D02*
X69452380Y-75809523D01*
X69452380Y-75571428D01*
X69500000Y-75428571D01*
X69595238Y-75333333D01*
X69690476Y-75285714D01*
X69880952Y-75238095D01*
X70023809Y-75238095D01*
X70214285Y-75285714D01*
X70309523Y-75333333D01*
X70404761Y-75428571D01*
X70452380Y-75571428D01*
X70452380Y-75809523D01*
X40750000Y-82011904D02*
X40702380Y-82107142D01*
X40702380Y-82250000D01*
X40750000Y-82392857D01*
X40845238Y-82488095D01*
X40940476Y-82535714D01*
X41130952Y-82583333D01*
X41273809Y-82583333D01*
X41464285Y-82535714D01*
X41559523Y-82488095D01*
X41654761Y-82392857D01*
X41702380Y-82250000D01*
X41702380Y-82154761D01*
X41654761Y-82011904D01*
X41607142Y-81964285D01*
X41273809Y-81964285D01*
X41273809Y-82154761D01*
X41702380Y-81535714D02*
X40702380Y-81535714D01*
X41702380Y-80964285D01*
X40702380Y-80964285D01*
X41702380Y-80488095D02*
X40702380Y-80488095D01*
X40702380Y-80250000D01*
X40750000Y-80107142D01*
X40845238Y-80011904D01*
X40940476Y-79964285D01*
X41130952Y-79916666D01*
X41273809Y-79916666D01*
X41464285Y-79964285D01*
X41559523Y-80011904D01*
X41654761Y-80107142D01*
X41702380Y-80250000D01*
X41702380Y-80488095D01*
X101702380Y-148285714D02*
X100702380Y-148285714D01*
X101702380Y-147714285D01*
X100702380Y-147714285D01*
X101607142Y-146666666D02*
X101654761Y-146714285D01*
X101702380Y-146857142D01*
X101702380Y-146952380D01*
X101654761Y-147095238D01*
X101559523Y-147190476D01*
X101464285Y-147238095D01*
X101273809Y-147285714D01*
X101130952Y-147285714D01*
X100940476Y-147238095D01*
X100845238Y-147190476D01*
X100750000Y-147095238D01*
X100702380Y-146952380D01*
X100702380Y-146857142D01*
X100750000Y-146714285D01*
X100797619Y-146666666D01*
X115702380Y-161666666D02*
X114702380Y-161666666D01*
X114702380Y-161285714D01*
X114750000Y-161190476D01*
X114797619Y-161142857D01*
X114892857Y-161095238D01*
X115035714Y-161095238D01*
X115130952Y-161142857D01*
X115178571Y-161190476D01*
X115226190Y-161285714D01*
X115226190Y-161666666D01*
X115607142Y-160095238D02*
X115654761Y-160142857D01*
X115702380Y-160285714D01*
X115702380Y-160380952D01*
X115654761Y-160523809D01*
X115559523Y-160619047D01*
X115464285Y-160666666D01*
X115273809Y-160714285D01*
X115130952Y-160714285D01*
X114940476Y-160666666D01*
X114845238Y-160619047D01*
X114750000Y-160523809D01*
X114702380Y-160380952D01*
X114702380Y-160285714D01*
X114750000Y-160142857D01*
X114797619Y-160095238D01*
X115702380Y-159190476D02*
X115702380Y-159666666D01*
X114702380Y-159666666D01*
X115702380Y-158857142D02*
X114702380Y-158857142D01*
X115702380Y-158285714D02*
X115130952Y-158714285D01*
X114702380Y-158285714D02*
X115273809Y-158857142D01*
X40750000Y-105011904D02*
X40702380Y-105107142D01*
X40702380Y-105250000D01*
X40750000Y-105392857D01*
X40845238Y-105488095D01*
X40940476Y-105535714D01*
X41130952Y-105583333D01*
X41273809Y-105583333D01*
X41464285Y-105535714D01*
X41559523Y-105488095D01*
X41654761Y-105392857D01*
X41702380Y-105250000D01*
X41702380Y-105154761D01*
X41654761Y-105011904D01*
X41607142Y-104964285D01*
X41273809Y-104964285D01*
X41273809Y-105154761D01*
X41702380Y-104535714D02*
X40702380Y-104535714D01*
X41702380Y-103964285D01*
X40702380Y-103964285D01*
X41702380Y-103488095D02*
X40702380Y-103488095D01*
X40702380Y-103250000D01*
X40750000Y-103107142D01*
X40845238Y-103011904D01*
X40940476Y-102964285D01*
X41130952Y-102916666D01*
X41273809Y-102916666D01*
X41464285Y-102964285D01*
X41559523Y-103011904D01*
X41654761Y-103107142D01*
X41702380Y-103250000D01*
X41702380Y-103488095D01*
X50952380Y-80321428D02*
X49952380Y-80321428D01*
X50666666Y-79988095D01*
X49952380Y-79654761D01*
X50952380Y-79654761D01*
X50952380Y-79178571D02*
X49952380Y-79178571D01*
X50904761Y-78750000D02*
X50952380Y-78607142D01*
X50952380Y-78369047D01*
X50904761Y-78273809D01*
X50857142Y-78226190D01*
X50761904Y-78178571D01*
X50666666Y-78178571D01*
X50571428Y-78226190D01*
X50523809Y-78273809D01*
X50476190Y-78369047D01*
X50428571Y-78559523D01*
X50380952Y-78654761D01*
X50333333Y-78702380D01*
X50238095Y-78750000D01*
X50142857Y-78750000D01*
X50047619Y-78702380D01*
X50000000Y-78654761D01*
X49952380Y-78559523D01*
X49952380Y-78321428D01*
X50000000Y-78178571D01*
X49952380Y-77559523D02*
X49952380Y-77369047D01*
X50000000Y-77273809D01*
X50095238Y-77178571D01*
X50285714Y-77130952D01*
X50619047Y-77130952D01*
X50809523Y-77178571D01*
X50904761Y-77273809D01*
X50952380Y-77369047D01*
X50952380Y-77559523D01*
X50904761Y-77654761D01*
X50809523Y-77750000D01*
X50619047Y-77797619D01*
X50285714Y-77797619D01*
X50095238Y-77750000D01*
X50000000Y-77654761D01*
X49952380Y-77559523D01*
X50952380Y-85321428D02*
X49952380Y-85321428D01*
X50666666Y-84988095D01*
X49952380Y-84654761D01*
X50952380Y-84654761D01*
X49952380Y-83988095D02*
X49952380Y-83797619D01*
X50000000Y-83702380D01*
X50095238Y-83607142D01*
X50285714Y-83559523D01*
X50619047Y-83559523D01*
X50809523Y-83607142D01*
X50904761Y-83702380D01*
X50952380Y-83797619D01*
X50952380Y-83988095D01*
X50904761Y-84083333D01*
X50809523Y-84178571D01*
X50619047Y-84226190D01*
X50285714Y-84226190D01*
X50095238Y-84178571D01*
X50000000Y-84083333D01*
X49952380Y-83988095D01*
X50904761Y-83178571D02*
X50952380Y-83035714D01*
X50952380Y-82797619D01*
X50904761Y-82702380D01*
X50857142Y-82654761D01*
X50761904Y-82607142D01*
X50666666Y-82607142D01*
X50571428Y-82654761D01*
X50523809Y-82702380D01*
X50476190Y-82797619D01*
X50428571Y-82988095D01*
X50380952Y-83083333D01*
X50333333Y-83130952D01*
X50238095Y-83178571D01*
X50142857Y-83178571D01*
X50047619Y-83130952D01*
X50000000Y-83083333D01*
X49952380Y-82988095D01*
X49952380Y-82750000D01*
X50000000Y-82607142D01*
X50952380Y-82178571D02*
X49952380Y-82178571D01*
X51107142Y-89166666D02*
X51154761Y-89214285D01*
X51202380Y-89357142D01*
X51202380Y-89452380D01*
X51154761Y-89595238D01*
X51059523Y-89690476D01*
X50964285Y-89738095D01*
X50773809Y-89785714D01*
X50630952Y-89785714D01*
X50440476Y-89738095D01*
X50345238Y-89690476D01*
X50250000Y-89595238D01*
X50202380Y-89452380D01*
X50202380Y-89357142D01*
X50250000Y-89214285D01*
X50297619Y-89166666D01*
X51154761Y-88785714D02*
X51202380Y-88642857D01*
X51202380Y-88404761D01*
X51154761Y-88309523D01*
X51107142Y-88261904D01*
X51011904Y-88214285D01*
X50916666Y-88214285D01*
X50821428Y-88261904D01*
X50773809Y-88309523D01*
X50726190Y-88404761D01*
X50678571Y-88595238D01*
X50630952Y-88690476D01*
X50583333Y-88738095D01*
X50488095Y-88785714D01*
X50392857Y-88785714D01*
X50297619Y-88738095D01*
X50250000Y-88690476D01*
X50202380Y-88595238D01*
X50202380Y-88357142D01*
X50250000Y-88214285D01*
X93702380Y-164416666D02*
X92702380Y-164416666D01*
X93178571Y-164416666D02*
X93178571Y-163845238D01*
X93702380Y-163845238D02*
X92702380Y-163845238D01*
X93702380Y-162797619D02*
X93226190Y-163130952D01*
X93702380Y-163369047D02*
X92702380Y-163369047D01*
X92702380Y-162988095D01*
X92750000Y-162892857D01*
X92797619Y-162845238D01*
X92892857Y-162797619D01*
X93035714Y-162797619D01*
X93130952Y-162845238D01*
X93178571Y-162892857D01*
X93226190Y-162988095D01*
X93226190Y-163369047D01*
X93178571Y-162369047D02*
X93178571Y-162035714D01*
X93702380Y-161892857D02*
X93702380Y-162369047D01*
X92702380Y-162369047D01*
X92702380Y-161892857D01*
X93178571Y-161130952D02*
X93178571Y-161464285D01*
X93702380Y-161464285D02*
X92702380Y-161464285D01*
X92702380Y-160988095D01*
X107452380Y-150738095D02*
X106452380Y-150738095D01*
X106452380Y-150500000D01*
X106500000Y-150357142D01*
X106595238Y-150261904D01*
X106690476Y-150214285D01*
X106880952Y-150166666D01*
X107023809Y-150166666D01*
X107214285Y-150214285D01*
X107309523Y-150261904D01*
X107404761Y-150357142D01*
X107452380Y-150500000D01*
X107452380Y-150738095D01*
X107452380Y-149214285D02*
X107452380Y-149785714D01*
X107452380Y-149500000D02*
X106452380Y-149500000D01*
X106595238Y-149595238D01*
X106690476Y-149690476D01*
X106738095Y-149785714D01*
X94904761Y-166349285D02*
X94952380Y-166206428D01*
X94952380Y-165968333D01*
X94904761Y-165873095D01*
X94857142Y-165825476D01*
X94761904Y-165777857D01*
X94666666Y-165777857D01*
X94571428Y-165825476D01*
X94523809Y-165873095D01*
X94476190Y-165968333D01*
X94428571Y-166158809D01*
X94380952Y-166254047D01*
X94333333Y-166301666D01*
X94238095Y-166349285D01*
X94142857Y-166349285D01*
X94047619Y-166301666D01*
X94000000Y-166254047D01*
X93952380Y-166158809D01*
X93952380Y-165920714D01*
X94000000Y-165777857D01*
X94952380Y-165349285D02*
X93952380Y-165349285D01*
X93952380Y-165111190D01*
X94000000Y-164968333D01*
X94095238Y-164873095D01*
X94190476Y-164825476D01*
X94380952Y-164777857D01*
X94523809Y-164777857D01*
X94714285Y-164825476D01*
X94809523Y-164873095D01*
X94904761Y-164968333D01*
X94952380Y-165111190D01*
X94952380Y-165349285D01*
X94666666Y-164396904D02*
X94666666Y-163920714D01*
X94952380Y-164492142D02*
X93952380Y-164158809D01*
X94952380Y-163825476D01*
X100702380Y-163309523D02*
X101702380Y-162976190D01*
X100702380Y-162642857D01*
X101654761Y-162357142D02*
X101702380Y-162214285D01*
X101702380Y-161976190D01*
X101654761Y-161880952D01*
X101607142Y-161833333D01*
X101511904Y-161785714D01*
X101416666Y-161785714D01*
X101321428Y-161833333D01*
X101273809Y-161880952D01*
X101226190Y-161976190D01*
X101178571Y-162166666D01*
X101130952Y-162261904D01*
X101083333Y-162309523D01*
X100988095Y-162357142D01*
X100892857Y-162357142D01*
X100797619Y-162309523D01*
X100750000Y-162261904D01*
X100702380Y-162166666D01*
X100702380Y-161928571D01*
X100750000Y-161785714D01*
X39702380Y-92738095D02*
X39702380Y-92119047D01*
X40083333Y-92452380D01*
X40083333Y-92309523D01*
X40130952Y-92214285D01*
X40178571Y-92166666D01*
X40273809Y-92119047D01*
X40511904Y-92119047D01*
X40607142Y-92166666D01*
X40654761Y-92214285D01*
X40702380Y-92309523D01*
X40702380Y-92595238D01*
X40654761Y-92690476D01*
X40607142Y-92738095D01*
X39702380Y-91833333D02*
X40702380Y-91500000D01*
X39702380Y-91166666D01*
X39702380Y-90928571D02*
X39702380Y-90309523D01*
X40083333Y-90642857D01*
X40083333Y-90500000D01*
X40130952Y-90404761D01*
X40178571Y-90357142D01*
X40273809Y-90309523D01*
X40511904Y-90309523D01*
X40607142Y-90357142D01*
X40654761Y-90404761D01*
X40702380Y-90500000D01*
X40702380Y-90785714D01*
X40654761Y-90880952D01*
X40607142Y-90928571D01*
X67116785Y-126202380D02*
X67116785Y-125202380D01*
X67783452Y-125202380D02*
X67973928Y-125202380D01*
X68069166Y-125250000D01*
X68164404Y-125345238D01*
X68212023Y-125535714D01*
X68212023Y-125869047D01*
X68164404Y-126059523D01*
X68069166Y-126154761D01*
X67973928Y-126202380D01*
X67783452Y-126202380D01*
X67688214Y-126154761D01*
X67592976Y-126059523D01*
X67545357Y-125869047D01*
X67545357Y-125535714D01*
X67592976Y-125345238D01*
X67688214Y-125250000D01*
X67783452Y-125202380D01*
X102952380Y-161666666D02*
X101952380Y-161666666D01*
X101952380Y-161285714D01*
X102000000Y-161190476D01*
X102047619Y-161142857D01*
X102142857Y-161095238D01*
X102285714Y-161095238D01*
X102380952Y-161142857D01*
X102428571Y-161190476D01*
X102476190Y-161285714D01*
X102476190Y-161666666D01*
X102857142Y-160095238D02*
X102904761Y-160142857D01*
X102952380Y-160285714D01*
X102952380Y-160380952D01*
X102904761Y-160523809D01*
X102809523Y-160619047D01*
X102714285Y-160666666D01*
X102523809Y-160714285D01*
X102380952Y-160714285D01*
X102190476Y-160666666D01*
X102095238Y-160619047D01*
X102000000Y-160523809D01*
X101952380Y-160380952D01*
X101952380Y-160285714D01*
X102000000Y-160142857D01*
X102047619Y-160095238D01*
X102952380Y-159190476D02*
X102952380Y-159666666D01*
X101952380Y-159666666D01*
X102952380Y-158857142D02*
X101952380Y-158857142D01*
X102952380Y-158285714D02*
X102380952Y-158714285D01*
X101952380Y-158285714D02*
X102523809Y-158857142D01*
X52404761Y-87940476D02*
X52452380Y-87797619D01*
X52452380Y-87559523D01*
X52404761Y-87464285D01*
X52357142Y-87416666D01*
X52261904Y-87369047D01*
X52166666Y-87369047D01*
X52071428Y-87416666D01*
X52023809Y-87464285D01*
X51976190Y-87559523D01*
X51928571Y-87750000D01*
X51880952Y-87845238D01*
X51833333Y-87892857D01*
X51738095Y-87940476D01*
X51642857Y-87940476D01*
X51547619Y-87892857D01*
X51500000Y-87845238D01*
X51452380Y-87750000D01*
X51452380Y-87511904D01*
X51500000Y-87369047D01*
X52357142Y-86369047D02*
X52404761Y-86416666D01*
X52452380Y-86559523D01*
X52452380Y-86654761D01*
X52404761Y-86797619D01*
X52309523Y-86892857D01*
X52214285Y-86940476D01*
X52023809Y-86988095D01*
X51880952Y-86988095D01*
X51690476Y-86940476D01*
X51595238Y-86892857D01*
X51500000Y-86797619D01*
X51452380Y-86654761D01*
X51452380Y-86559523D01*
X51500000Y-86416666D01*
X51547619Y-86369047D01*
X52452380Y-85464285D02*
X52452380Y-85940476D01*
X51452380Y-85940476D01*
X52452380Y-85130952D02*
X51452380Y-85130952D01*
X52452380Y-84559523D02*
X51880952Y-84988095D01*
X51452380Y-84559523D02*
X52023809Y-85130952D01*
X102952380Y-155738095D02*
X101952380Y-155738095D01*
X101952380Y-155500000D01*
X102000000Y-155357142D01*
X102095238Y-155261904D01*
X102190476Y-155214285D01*
X102380952Y-155166666D01*
X102523809Y-155166666D01*
X102714285Y-155214285D01*
X102809523Y-155261904D01*
X102904761Y-155357142D01*
X102952380Y-155500000D01*
X102952380Y-155738095D01*
X101952380Y-154261904D02*
X101952380Y-154738095D01*
X102428571Y-154785714D01*
X102380952Y-154738095D01*
X102333333Y-154642857D01*
X102333333Y-154404761D01*
X102380952Y-154309523D01*
X102428571Y-154261904D01*
X102523809Y-154214285D01*
X102761904Y-154214285D01*
X102857142Y-154261904D01*
X102904761Y-154309523D01*
X102952380Y-154404761D01*
X102952380Y-154642857D01*
X102904761Y-154738095D01*
X102857142Y-154785714D01*
X115702380Y-150738095D02*
X114702380Y-150738095D01*
X114702380Y-150500000D01*
X114750000Y-150357142D01*
X114845238Y-150261904D01*
X114940476Y-150214285D01*
X115130952Y-150166666D01*
X115273809Y-150166666D01*
X115464285Y-150214285D01*
X115559523Y-150261904D01*
X115654761Y-150357142D01*
X115702380Y-150500000D01*
X115702380Y-150738095D01*
X114702380Y-149547619D02*
X114702380Y-149452380D01*
X114750000Y-149357142D01*
X114797619Y-149309523D01*
X114892857Y-149261904D01*
X115083333Y-149214285D01*
X115321428Y-149214285D01*
X115511904Y-149261904D01*
X115607142Y-149309523D01*
X115654761Y-149357142D01*
X115702380Y-149452380D01*
X115702380Y-149547619D01*
X115654761Y-149642857D01*
X115607142Y-149690476D01*
X115511904Y-149738095D01*
X115321428Y-149785714D01*
X115083333Y-149785714D01*
X114892857Y-149738095D01*
X114797619Y-149690476D01*
X114750000Y-149642857D01*
X114702380Y-149547619D01*
X114452380Y-158238095D02*
X113452380Y-158238095D01*
X113452380Y-158000000D01*
X113500000Y-157857142D01*
X113595238Y-157761904D01*
X113690476Y-157714285D01*
X113880952Y-157666666D01*
X114023809Y-157666666D01*
X114214285Y-157714285D01*
X114309523Y-157761904D01*
X114404761Y-157857142D01*
X114452380Y-158000000D01*
X114452380Y-158238095D01*
X113452380Y-157333333D02*
X113452380Y-156666666D01*
X114452380Y-157095238D01*
X114452380Y-153238095D02*
X113452380Y-153238095D01*
X113452380Y-153000000D01*
X113500000Y-152857142D01*
X113595238Y-152761904D01*
X113690476Y-152714285D01*
X113880952Y-152666666D01*
X114023809Y-152666666D01*
X114214285Y-152714285D01*
X114309523Y-152761904D01*
X114404761Y-152857142D01*
X114452380Y-153000000D01*
X114452380Y-153238095D01*
X113452380Y-152333333D02*
X113452380Y-151714285D01*
X113833333Y-152047619D01*
X113833333Y-151904761D01*
X113880952Y-151809523D01*
X113928571Y-151761904D01*
X114023809Y-151714285D01*
X114261904Y-151714285D01*
X114357142Y-151761904D01*
X114404761Y-151809523D01*
X114452380Y-151904761D01*
X114452380Y-152190476D01*
X114404761Y-152285714D01*
X114357142Y-152333333D01*
X94452380Y-71202380D02*
X94452380Y-72011904D01*
X94500000Y-72107142D01*
X94547619Y-72154761D01*
X94642857Y-72202380D01*
X94833333Y-72202380D01*
X94928571Y-72154761D01*
X94976190Y-72107142D01*
X95023809Y-72011904D01*
X95023809Y-71202380D01*
X95452380Y-72154761D02*
X95595238Y-72202380D01*
X95833333Y-72202380D01*
X95928571Y-72154761D01*
X95976190Y-72107142D01*
X96023809Y-72011904D01*
X96023809Y-71916666D01*
X95976190Y-71821428D01*
X95928571Y-71773809D01*
X95833333Y-71726190D01*
X95642857Y-71678571D01*
X95547619Y-71630952D01*
X95500000Y-71583333D01*
X95452380Y-71488095D01*
X95452380Y-71392857D01*
X95500000Y-71297619D01*
X95547619Y-71250000D01*
X95642857Y-71202380D01*
X95880952Y-71202380D01*
X96023809Y-71250000D01*
X96785714Y-71678571D02*
X96928571Y-71726190D01*
X96976190Y-71773809D01*
X97023809Y-71869047D01*
X97023809Y-72011904D01*
X96976190Y-72107142D01*
X96928571Y-72154761D01*
X96833333Y-72202380D01*
X96452380Y-72202380D01*
X96452380Y-71202380D01*
X96785714Y-71202380D01*
X96880952Y-71250000D01*
X96928571Y-71297619D01*
X96976190Y-71392857D01*
X96976190Y-71488095D01*
X96928571Y-71583333D01*
X96880952Y-71630952D01*
X96785714Y-71678571D01*
X96452380Y-71678571D01*
X97690476Y-72535714D02*
X97690476Y-71107142D01*
X98738095Y-71678571D02*
X98880952Y-71726190D01*
X98928571Y-71773809D01*
X98976190Y-71869047D01*
X98976190Y-72011904D01*
X98928571Y-72107142D01*
X98880952Y-72154761D01*
X98785714Y-72202380D01*
X98404761Y-72202380D01*
X98404761Y-71202380D01*
X98738095Y-71202380D01*
X98833333Y-71250000D01*
X98880952Y-71297619D01*
X98928571Y-71392857D01*
X98928571Y-71488095D01*
X98880952Y-71583333D01*
X98833333Y-71630952D01*
X98738095Y-71678571D01*
X98404761Y-71678571D01*
X99357142Y-71916666D02*
X99833333Y-71916666D01*
X99261904Y-72202380D02*
X99595238Y-71202380D01*
X99928571Y-72202380D01*
X100119047Y-71202380D02*
X100690476Y-71202380D01*
X100404761Y-72202380D02*
X100404761Y-71202380D01*
X93952380Y-161988095D02*
X94952380Y-161321428D01*
X93952380Y-161321428D02*
X94952380Y-161988095D01*
X94857142Y-160369047D02*
X94904761Y-160416666D01*
X94952380Y-160559523D01*
X94952380Y-160654761D01*
X94904761Y-160797619D01*
X94809523Y-160892857D01*
X94714285Y-160940476D01*
X94523809Y-160988095D01*
X94380952Y-160988095D01*
X94190476Y-160940476D01*
X94095238Y-160892857D01*
X94000000Y-160797619D01*
X93952380Y-160654761D01*
X93952380Y-160559523D01*
X94000000Y-160416666D01*
X94047619Y-160369047D01*
X94952380Y-159464285D02*
X94952380Y-159940476D01*
X93952380Y-159940476D01*
X94952380Y-159130952D02*
X93952380Y-159130952D01*
X94952380Y-158559523D02*
X94380952Y-158988095D01*
X93952380Y-158559523D02*
X94523809Y-159130952D01*
X101702380Y-158238095D02*
X100702380Y-158238095D01*
X100702380Y-158000000D01*
X100750000Y-157857142D01*
X100845238Y-157761904D01*
X100940476Y-157714285D01*
X101130952Y-157666666D01*
X101273809Y-157666666D01*
X101464285Y-157714285D01*
X101559523Y-157761904D01*
X101654761Y-157857142D01*
X101702380Y-158000000D01*
X101702380Y-158238095D01*
X100702380Y-157333333D02*
X100702380Y-156666666D01*
X101702380Y-157095238D01*
X94952380Y-155738095D02*
X93952380Y-155738095D01*
X93952380Y-155500000D01*
X94000000Y-155357142D01*
X94095238Y-155261904D01*
X94190476Y-155214285D01*
X94380952Y-155166666D01*
X94523809Y-155166666D01*
X94714285Y-155214285D01*
X94809523Y-155261904D01*
X94904761Y-155357142D01*
X94952380Y-155500000D01*
X94952380Y-155738095D01*
X94285714Y-154309523D02*
X94952380Y-154309523D01*
X93904761Y-154547619D02*
X94619047Y-154785714D01*
X94619047Y-154166666D01*
X106202380Y-153238095D02*
X105202380Y-153238095D01*
X105202380Y-153000000D01*
X105250000Y-152857142D01*
X105345238Y-152761904D01*
X105440476Y-152714285D01*
X105630952Y-152666666D01*
X105773809Y-152666666D01*
X105964285Y-152714285D01*
X106059523Y-152761904D01*
X106154761Y-152857142D01*
X106202380Y-153000000D01*
X106202380Y-153238095D01*
X105297619Y-152285714D02*
X105250000Y-152238095D01*
X105202380Y-152142857D01*
X105202380Y-151904761D01*
X105250000Y-151809523D01*
X105297619Y-151761904D01*
X105392857Y-151714285D01*
X105488095Y-151714285D01*
X105630952Y-151761904D01*
X106202380Y-152333333D01*
X106202380Y-151714285D01*
X40750000Y-120011904D02*
X40702380Y-120107142D01*
X40702380Y-120250000D01*
X40750000Y-120392857D01*
X40845238Y-120488095D01*
X40940476Y-120535714D01*
X41130952Y-120583333D01*
X41273809Y-120583333D01*
X41464285Y-120535714D01*
X41559523Y-120488095D01*
X41654761Y-120392857D01*
X41702380Y-120250000D01*
X41702380Y-120154761D01*
X41654761Y-120011904D01*
X41607142Y-119964285D01*
X41273809Y-119964285D01*
X41273809Y-120154761D01*
X41702380Y-119535714D02*
X40702380Y-119535714D01*
X41702380Y-118964285D01*
X40702380Y-118964285D01*
X41702380Y-118488095D02*
X40702380Y-118488095D01*
X40702380Y-118250000D01*
X40750000Y-118107142D01*
X40845238Y-118011904D01*
X40940476Y-117964285D01*
X41130952Y-117916666D01*
X41273809Y-117916666D01*
X41464285Y-117964285D01*
X41559523Y-118011904D01*
X41654761Y-118107142D01*
X41702380Y-118250000D01*
X41702380Y-118488095D01*
X40750000Y-130261904D02*
X40702380Y-130357142D01*
X40702380Y-130500000D01*
X40750000Y-130642857D01*
X40845238Y-130738095D01*
X40940476Y-130785714D01*
X41130952Y-130833333D01*
X41273809Y-130833333D01*
X41464285Y-130785714D01*
X41559523Y-130738095D01*
X41654761Y-130642857D01*
X41702380Y-130500000D01*
X41702380Y-130404761D01*
X41654761Y-130261904D01*
X41607142Y-130214285D01*
X41273809Y-130214285D01*
X41273809Y-130404761D01*
X41702380Y-129785714D02*
X40702380Y-129785714D01*
X41702380Y-129214285D01*
X40702380Y-129214285D01*
X41702380Y-128738095D02*
X40702380Y-128738095D01*
X40702380Y-128500000D01*
X40750000Y-128357142D01*
X40845238Y-128261904D01*
X40940476Y-128214285D01*
X41130952Y-128166666D01*
X41273809Y-128166666D01*
X41464285Y-128214285D01*
X41559523Y-128261904D01*
X41654761Y-128357142D01*
X41702380Y-128500000D01*
X41702380Y-128738095D01*
X66688214Y-123178571D02*
X67021547Y-123178571D01*
X67164404Y-123702380D02*
X66688214Y-123702380D01*
X66688214Y-122702380D01*
X67164404Y-122702380D01*
X67592976Y-123702380D02*
X67592976Y-122702380D01*
X68164404Y-123702380D01*
X68164404Y-122702380D01*
X39702380Y-123238095D02*
X39702380Y-122619047D01*
X40083333Y-122952380D01*
X40083333Y-122809523D01*
X40130952Y-122714285D01*
X40178571Y-122666666D01*
X40273809Y-122619047D01*
X40511904Y-122619047D01*
X40607142Y-122666666D01*
X40654761Y-122714285D01*
X40702380Y-122809523D01*
X40702380Y-123095238D01*
X40654761Y-123190476D01*
X40607142Y-123238095D01*
X39702380Y-122333333D02*
X40702380Y-122000000D01*
X39702380Y-121666666D01*
X39702380Y-121428571D02*
X39702380Y-120809523D01*
X40083333Y-121142857D01*
X40083333Y-121000000D01*
X40130952Y-120904761D01*
X40178571Y-120857142D01*
X40273809Y-120809523D01*
X40511904Y-120809523D01*
X40607142Y-120857142D01*
X40654761Y-120904761D01*
X40702380Y-121000000D01*
X40702380Y-121285714D01*
X40654761Y-121380952D01*
X40607142Y-121428571D01*
X106452380Y-164416666D02*
X105452380Y-164416666D01*
X105928571Y-164416666D02*
X105928571Y-163845238D01*
X106452380Y-163845238D02*
X105452380Y-163845238D01*
X106452380Y-162797619D02*
X105976190Y-163130952D01*
X106452380Y-163369047D02*
X105452380Y-163369047D01*
X105452380Y-162988095D01*
X105500000Y-162892857D01*
X105547619Y-162845238D01*
X105642857Y-162797619D01*
X105785714Y-162797619D01*
X105880952Y-162845238D01*
X105928571Y-162892857D01*
X105976190Y-162988095D01*
X105976190Y-163369047D01*
X105928571Y-162369047D02*
X105928571Y-162035714D01*
X106452380Y-161892857D02*
X106452380Y-162369047D01*
X105452380Y-162369047D01*
X105452380Y-161892857D01*
X105928571Y-161130952D02*
X105928571Y-161464285D01*
X106452380Y-161464285D02*
X105452380Y-161464285D01*
X105452380Y-160988095D01*
X114452380Y-148285714D02*
X113452380Y-148285714D01*
X114452380Y-147714285D01*
X113452380Y-147714285D01*
X114357142Y-146666666D02*
X114404761Y-146714285D01*
X114452380Y-146857142D01*
X114452380Y-146952380D01*
X114404761Y-147095238D01*
X114309523Y-147190476D01*
X114214285Y-147238095D01*
X114023809Y-147285714D01*
X113880952Y-147285714D01*
X113690476Y-147238095D01*
X113595238Y-147190476D01*
X113500000Y-147095238D01*
X113452380Y-146952380D01*
X113452380Y-146857142D01*
X113500000Y-146714285D01*
X113547619Y-146666666D01*
X102952380Y-146238095D02*
X101952380Y-146238095D01*
X101952380Y-145857142D01*
X102000000Y-145761904D01*
X102047619Y-145714285D01*
X102142857Y-145666666D01*
X102285714Y-145666666D01*
X102380952Y-145714285D01*
X102428571Y-145761904D01*
X102476190Y-145857142D01*
X102476190Y-146238095D01*
X102428571Y-145238095D02*
X102428571Y-144904761D01*
X102952380Y-144761904D02*
X102952380Y-145238095D01*
X101952380Y-145238095D01*
X101952380Y-144761904D01*
X102952380Y-144333333D02*
X101952380Y-144333333D01*
X102952380Y-143761904D01*
X101952380Y-143761904D01*
X93452380Y-153238095D02*
X92452380Y-153238095D01*
X92452380Y-153000000D01*
X92500000Y-152857142D01*
X92595238Y-152761904D01*
X92690476Y-152714285D01*
X92880952Y-152666666D01*
X93023809Y-152666666D01*
X93214285Y-152714285D01*
X93309523Y-152761904D01*
X93404761Y-152857142D01*
X93452380Y-153000000D01*
X93452380Y-153238095D01*
X92547619Y-152285714D02*
X92500000Y-152238095D01*
X92452380Y-152142857D01*
X92452380Y-151904761D01*
X92500000Y-151809523D01*
X92547619Y-151761904D01*
X92642857Y-151714285D01*
X92738095Y-151714285D01*
X92880952Y-151761904D01*
X93452380Y-152333333D01*
X93452380Y-151714285D01*
X66402500Y-124857142D02*
X66354880Y-124904761D01*
X66212023Y-124952380D01*
X66116785Y-124952380D01*
X65973928Y-124904761D01*
X65878690Y-124809523D01*
X65831071Y-124714285D01*
X65783452Y-124523809D01*
X65783452Y-124380952D01*
X65831071Y-124190476D01*
X65878690Y-124095238D01*
X65973928Y-124000000D01*
X66116785Y-123952380D01*
X66212023Y-123952380D01*
X66354880Y-124000000D01*
X66402500Y-124047619D01*
X67307261Y-124952380D02*
X66831071Y-124952380D01*
X66831071Y-123952380D01*
X67640595Y-124952380D02*
X67640595Y-123952380D01*
X68212023Y-124952380D02*
X67783452Y-124380952D01*
X68212023Y-123952380D02*
X67640595Y-124523809D01*
X52702380Y-93071428D02*
X51702380Y-93071428D01*
X52416666Y-92738095D01*
X51702380Y-92404761D01*
X52702380Y-92404761D01*
X51702380Y-91738095D02*
X51702380Y-91547619D01*
X51750000Y-91452380D01*
X51845238Y-91357142D01*
X52035714Y-91309523D01*
X52369047Y-91309523D01*
X52559523Y-91357142D01*
X52654761Y-91452380D01*
X52702380Y-91547619D01*
X52702380Y-91738095D01*
X52654761Y-91833333D01*
X52559523Y-91928571D01*
X52369047Y-91976190D01*
X52035714Y-91976190D01*
X51845238Y-91928571D01*
X51750000Y-91833333D01*
X51702380Y-91738095D01*
X52654761Y-90928571D02*
X52702380Y-90785714D01*
X52702380Y-90547619D01*
X52654761Y-90452380D01*
X52607142Y-90404761D01*
X52511904Y-90357142D01*
X52416666Y-90357142D01*
X52321428Y-90404761D01*
X52273809Y-90452380D01*
X52226190Y-90547619D01*
X52178571Y-90738095D01*
X52130952Y-90833333D01*
X52083333Y-90880952D01*
X51988095Y-90928571D01*
X51892857Y-90928571D01*
X51797619Y-90880952D01*
X51750000Y-90833333D01*
X51702380Y-90738095D01*
X51702380Y-90500000D01*
X51750000Y-90357142D01*
X52702380Y-89928571D02*
X51702380Y-89928571D01*
X107202380Y-146035714D02*
X106202380Y-146035714D01*
X106202380Y-145654761D01*
X106250000Y-145559523D01*
X106297619Y-145511904D01*
X106392857Y-145464285D01*
X106535714Y-145464285D01*
X106630952Y-145511904D01*
X106678571Y-145559523D01*
X106726190Y-145654761D01*
X106726190Y-146035714D01*
X107202380Y-145035714D02*
X106202380Y-145035714D01*
X106202380Y-144797619D01*
X106250000Y-144654761D01*
X106345238Y-144559523D01*
X106440476Y-144511904D01*
X106630952Y-144464285D01*
X106773809Y-144464285D01*
X106964285Y-144511904D01*
X107059523Y-144559523D01*
X107154761Y-144654761D01*
X107202380Y-144797619D01*
X107202380Y-145035714D01*
X107202380Y-144035714D02*
X106202380Y-144035714D01*
X107202380Y-143464285D01*
X106202380Y-143464285D01*
X40452380Y-79297619D02*
X39976190Y-79630952D01*
X40452380Y-79869047D02*
X39452380Y-79869047D01*
X39452380Y-79488095D01*
X39500000Y-79392857D01*
X39547619Y-79345238D01*
X39642857Y-79297619D01*
X39785714Y-79297619D01*
X39880952Y-79345238D01*
X39928571Y-79392857D01*
X39976190Y-79488095D01*
X39976190Y-79869047D01*
X40404761Y-78916666D02*
X40452380Y-78773809D01*
X40452380Y-78535714D01*
X40404761Y-78440476D01*
X40357142Y-78392857D01*
X40261904Y-78345238D01*
X40166666Y-78345238D01*
X40071428Y-78392857D01*
X40023809Y-78440476D01*
X39976190Y-78535714D01*
X39928571Y-78726190D01*
X39880952Y-78821428D01*
X39833333Y-78869047D01*
X39738095Y-78916666D01*
X39642857Y-78916666D01*
X39547619Y-78869047D01*
X39500000Y-78821428D01*
X39452380Y-78726190D01*
X39452380Y-78488095D01*
X39500000Y-78345238D01*
X39452380Y-78059523D02*
X39452380Y-77488095D01*
X40452380Y-77773809D02*
X39452380Y-77773809D01*
X70109404Y-122750000D02*
X70014166Y-122702380D01*
X69871309Y-122702380D01*
X69728452Y-122750000D01*
X69633214Y-122845238D01*
X69585595Y-122940476D01*
X69537976Y-123130952D01*
X69537976Y-123273809D01*
X69585595Y-123464285D01*
X69633214Y-123559523D01*
X69728452Y-123654761D01*
X69871309Y-123702380D01*
X69966547Y-123702380D01*
X70109404Y-123654761D01*
X70157023Y-123607142D01*
X70157023Y-123273809D01*
X69966547Y-123273809D01*
X70585595Y-123702380D02*
X70585595Y-122702380D01*
X71157023Y-123702380D01*
X71157023Y-122702380D01*
X71633214Y-123702380D02*
X71633214Y-122702380D01*
X71871309Y-122702380D01*
X72014166Y-122750000D01*
X72109404Y-122845238D01*
X72157023Y-122940476D01*
X72204642Y-123130952D01*
X72204642Y-123273809D01*
X72157023Y-123464285D01*
X72109404Y-123559523D01*
X72014166Y-123654761D01*
X71871309Y-123702380D01*
X71633214Y-123702380D01*
X105500000Y-168396904D02*
X105452380Y-168492142D01*
X105452380Y-168635000D01*
X105500000Y-168777857D01*
X105595238Y-168873095D01*
X105690476Y-168920714D01*
X105880952Y-168968333D01*
X106023809Y-168968333D01*
X106214285Y-168920714D01*
X106309523Y-168873095D01*
X106404761Y-168777857D01*
X106452380Y-168635000D01*
X106452380Y-168539761D01*
X106404761Y-168396904D01*
X106357142Y-168349285D01*
X106023809Y-168349285D01*
X106023809Y-168539761D01*
X106452380Y-167920714D02*
X105452380Y-167920714D01*
X106452380Y-167349285D01*
X105452380Y-167349285D01*
X106452380Y-166873095D02*
X105452380Y-166873095D01*
X105452380Y-166635000D01*
X105500000Y-166492142D01*
X105595238Y-166396904D01*
X105690476Y-166349285D01*
X105880952Y-166301666D01*
X106023809Y-166301666D01*
X106214285Y-166349285D01*
X106309523Y-166396904D01*
X106404761Y-166492142D01*
X106452380Y-166635000D01*
X106452380Y-166873095D01*
X94452380Y-146035714D02*
X93452380Y-146035714D01*
X93452380Y-145654761D01*
X93500000Y-145559523D01*
X93547619Y-145511904D01*
X93642857Y-145464285D01*
X93785714Y-145464285D01*
X93880952Y-145511904D01*
X93928571Y-145559523D01*
X93976190Y-145654761D01*
X93976190Y-146035714D01*
X94452380Y-145035714D02*
X93452380Y-145035714D01*
X93452380Y-144797619D01*
X93500000Y-144654761D01*
X93595238Y-144559523D01*
X93690476Y-144511904D01*
X93880952Y-144464285D01*
X94023809Y-144464285D01*
X94214285Y-144511904D01*
X94309523Y-144559523D01*
X94404761Y-144654761D01*
X94452380Y-144797619D01*
X94452380Y-145035714D01*
X94452380Y-144035714D02*
X93452380Y-144035714D01*
X94452380Y-143464285D01*
X93452380Y-143464285D01*
X40750000Y-99761904D02*
X40702380Y-99857142D01*
X40702380Y-100000000D01*
X40750000Y-100142857D01*
X40845238Y-100238095D01*
X40940476Y-100285714D01*
X41130952Y-100333333D01*
X41273809Y-100333333D01*
X41464285Y-100285714D01*
X41559523Y-100238095D01*
X41654761Y-100142857D01*
X41702380Y-100000000D01*
X41702380Y-99904761D01*
X41654761Y-99761904D01*
X41607142Y-99714285D01*
X41273809Y-99714285D01*
X41273809Y-99904761D01*
X41702380Y-99285714D02*
X40702380Y-99285714D01*
X41702380Y-98714285D01*
X40702380Y-98714285D01*
X41702380Y-98238095D02*
X40702380Y-98238095D01*
X40702380Y-98000000D01*
X40750000Y-97857142D01*
X40845238Y-97761904D01*
X40940476Y-97714285D01*
X41130952Y-97666666D01*
X41273809Y-97666666D01*
X41464285Y-97714285D01*
X41559523Y-97761904D01*
X41654761Y-97857142D01*
X41702380Y-98000000D01*
X41702380Y-98238095D01*
X113452380Y-163309523D02*
X114452380Y-162976190D01*
X113452380Y-162642857D01*
X114404761Y-162357142D02*
X114452380Y-162214285D01*
X114452380Y-161976190D01*
X114404761Y-161880952D01*
X114357142Y-161833333D01*
X114261904Y-161785714D01*
X114166666Y-161785714D01*
X114071428Y-161833333D01*
X114023809Y-161880952D01*
X113976190Y-161976190D01*
X113928571Y-162166666D01*
X113880952Y-162261904D01*
X113833333Y-162309523D01*
X113738095Y-162357142D01*
X113642857Y-162357142D01*
X113547619Y-162309523D01*
X113500000Y-162261904D01*
X113452380Y-162166666D01*
X113452380Y-161928571D01*
X113500000Y-161785714D01*
X52654761Y-98190476D02*
X52702380Y-98047619D01*
X52702380Y-97809523D01*
X52654761Y-97714285D01*
X52607142Y-97666666D01*
X52511904Y-97619047D01*
X52416666Y-97619047D01*
X52321428Y-97666666D01*
X52273809Y-97714285D01*
X52226190Y-97809523D01*
X52178571Y-98000000D01*
X52130952Y-98095238D01*
X52083333Y-98142857D01*
X51988095Y-98190476D01*
X51892857Y-98190476D01*
X51797619Y-98142857D01*
X51750000Y-98095238D01*
X51702380Y-98000000D01*
X51702380Y-97761904D01*
X51750000Y-97619047D01*
X52607142Y-96619047D02*
X52654761Y-96666666D01*
X52702380Y-96809523D01*
X52702380Y-96904761D01*
X52654761Y-97047619D01*
X52559523Y-97142857D01*
X52464285Y-97190476D01*
X52273809Y-97238095D01*
X52130952Y-97238095D01*
X51940476Y-97190476D01*
X51845238Y-97142857D01*
X51750000Y-97047619D01*
X51702380Y-96904761D01*
X51702380Y-96809523D01*
X51750000Y-96666666D01*
X51797619Y-96619047D01*
X52702380Y-95714285D02*
X52702380Y-96190476D01*
X51702380Y-96190476D01*
X52702380Y-95380952D02*
X51702380Y-95380952D01*
X52702380Y-94809523D02*
X52130952Y-95238095D01*
X51702380Y-94809523D02*
X52273809Y-95380952D01*
X40750000Y-135261904D02*
X40702380Y-135357142D01*
X40702380Y-135500000D01*
X40750000Y-135642857D01*
X40845238Y-135738095D01*
X40940476Y-135785714D01*
X41130952Y-135833333D01*
X41273809Y-135833333D01*
X41464285Y-135785714D01*
X41559523Y-135738095D01*
X41654761Y-135642857D01*
X41702380Y-135500000D01*
X41702380Y-135404761D01*
X41654761Y-135261904D01*
X41607142Y-135214285D01*
X41273809Y-135214285D01*
X41273809Y-135404761D01*
X41702380Y-134785714D02*
X40702380Y-134785714D01*
X41702380Y-134214285D01*
X40702380Y-134214285D01*
X41702380Y-133738095D02*
X40702380Y-133738095D01*
X40702380Y-133500000D01*
X40750000Y-133357142D01*
X40845238Y-133261904D01*
X40940476Y-133214285D01*
X41130952Y-133166666D01*
X41273809Y-133166666D01*
X41464285Y-133214285D01*
X41559523Y-133261904D01*
X41654761Y-133357142D01*
X41702380Y-133500000D01*
X41702380Y-133738095D01*
X113702380Y-168968333D02*
X114702380Y-168635000D01*
X113702380Y-168301666D01*
X114607142Y-167396904D02*
X114654761Y-167444523D01*
X114702380Y-167587380D01*
X114702380Y-167682619D01*
X114654761Y-167825476D01*
X114559523Y-167920714D01*
X114464285Y-167968333D01*
X114273809Y-168015952D01*
X114130952Y-168015952D01*
X113940476Y-167968333D01*
X113845238Y-167920714D01*
X113750000Y-167825476D01*
X113702380Y-167682619D01*
X113702380Y-167587380D01*
X113750000Y-167444523D01*
X113797619Y-167396904D01*
X114607142Y-166396904D02*
X114654761Y-166444523D01*
X114702380Y-166587380D01*
X114702380Y-166682619D01*
X114654761Y-166825476D01*
X114559523Y-166920714D01*
X114464285Y-166968333D01*
X114273809Y-167015952D01*
X114130952Y-167015952D01*
X113940476Y-166968333D01*
X113845238Y-166920714D01*
X113750000Y-166825476D01*
X113702380Y-166682619D01*
X113702380Y-166587380D01*
X113750000Y-166444523D01*
X113797619Y-166396904D01*
D12*
X48087857Y-164607142D02*
X48373571Y-164702380D01*
X48468809Y-164797619D01*
X48564047Y-164988095D01*
X48564047Y-165273809D01*
X48468809Y-165464285D01*
X48373571Y-165559523D01*
X48183095Y-165654761D01*
X47421190Y-165654761D01*
X47421190Y-163654761D01*
X48087857Y-163654761D01*
X48278333Y-163750000D01*
X48373571Y-163845238D01*
X48468809Y-164035714D01*
X48468809Y-164226190D01*
X48373571Y-164416666D01*
X48278333Y-164511904D01*
X48087857Y-164607142D01*
X47421190Y-164607142D01*
X49706904Y-165654761D02*
X49516428Y-165559523D01*
X49421190Y-165464285D01*
X49325952Y-165273809D01*
X49325952Y-164702380D01*
X49421190Y-164511904D01*
X49516428Y-164416666D01*
X49706904Y-164321428D01*
X49992619Y-164321428D01*
X50183095Y-164416666D01*
X50278333Y-164511904D01*
X50373571Y-164702380D01*
X50373571Y-165273809D01*
X50278333Y-165464285D01*
X50183095Y-165559523D01*
X49992619Y-165654761D01*
X49706904Y-165654761D01*
X51135476Y-165559523D02*
X51421190Y-165654761D01*
X51897380Y-165654761D01*
X52087857Y-165559523D01*
X52183095Y-165464285D01*
X52278333Y-165273809D01*
X52278333Y-165083333D01*
X52183095Y-164892857D01*
X52087857Y-164797619D01*
X51897380Y-164702380D01*
X51516428Y-164607142D01*
X51325952Y-164511904D01*
X51230714Y-164416666D01*
X51135476Y-164226190D01*
X51135476Y-164035714D01*
X51230714Y-163845238D01*
X51325952Y-163750000D01*
X51516428Y-163654761D01*
X51992619Y-163654761D01*
X52278333Y-163750000D01*
X54087857Y-165654761D02*
X53135476Y-165654761D01*
X53135476Y-163654761D01*
X57421190Y-165464285D02*
X57325952Y-165559523D01*
X57040238Y-165654761D01*
X56849761Y-165654761D01*
X56564047Y-165559523D01*
X56373571Y-165369047D01*
X56278333Y-165178571D01*
X56183095Y-164797619D01*
X56183095Y-164511904D01*
X56278333Y-164130952D01*
X56373571Y-163940476D01*
X56564047Y-163750000D01*
X56849761Y-163654761D01*
X57040238Y-163654761D01*
X57325952Y-163750000D01*
X57421190Y-163845238D01*
X59135476Y-165654761D02*
X59135476Y-164607142D01*
X59040238Y-164416666D01*
X58849761Y-164321428D01*
X58468809Y-164321428D01*
X58278333Y-164416666D01*
X59135476Y-165559523D02*
X58945000Y-165654761D01*
X58468809Y-165654761D01*
X58278333Y-165559523D01*
X58183095Y-165369047D01*
X58183095Y-165178571D01*
X58278333Y-164988095D01*
X58468809Y-164892857D01*
X58945000Y-164892857D01*
X59135476Y-164797619D01*
X60087857Y-165654761D02*
X60087857Y-164321428D01*
X60087857Y-164511904D02*
X60183095Y-164416666D01*
X60373571Y-164321428D01*
X60659285Y-164321428D01*
X60849761Y-164416666D01*
X60945000Y-164607142D01*
X60945000Y-165654761D01*
X60945000Y-164607142D02*
X61040238Y-164416666D01*
X61230714Y-164321428D01*
X61516428Y-164321428D01*
X61706904Y-164416666D01*
X61802142Y-164607142D01*
X61802142Y-165654761D01*
X63516428Y-165559523D02*
X63325952Y-165654761D01*
X62945000Y-165654761D01*
X62754523Y-165559523D01*
X62659285Y-165369047D01*
X62659285Y-164607142D01*
X62754523Y-164416666D01*
X62945000Y-164321428D01*
X63325952Y-164321428D01*
X63516428Y-164416666D01*
X63611666Y-164607142D01*
X63611666Y-164797619D01*
X62659285Y-164988095D01*
X64468809Y-165654761D02*
X64468809Y-164321428D01*
X64468809Y-164702380D02*
X64564047Y-164511904D01*
X64659285Y-164416666D01*
X64849761Y-164321428D01*
X65040238Y-164321428D01*
X66564047Y-165654761D02*
X66564047Y-164607142D01*
X66468809Y-164416666D01*
X66278333Y-164321428D01*
X65897380Y-164321428D01*
X65706904Y-164416666D01*
X66564047Y-165559523D02*
X66373571Y-165654761D01*
X65897380Y-165654761D01*
X65706904Y-165559523D01*
X65611666Y-165369047D01*
X65611666Y-165178571D01*
X65706904Y-164988095D01*
X65897380Y-164892857D01*
X66373571Y-164892857D01*
X66564047Y-164797619D01*
X69897380Y-165654761D02*
X69897380Y-163654761D01*
X69897380Y-165559523D02*
X69706904Y-165654761D01*
X69325952Y-165654761D01*
X69135476Y-165559523D01*
X69040238Y-165464285D01*
X68945000Y-165273809D01*
X68945000Y-164702380D01*
X69040238Y-164511904D01*
X69135476Y-164416666D01*
X69325952Y-164321428D01*
X69706904Y-164321428D01*
X69897380Y-164416666D01*
X71611666Y-165559523D02*
X71421190Y-165654761D01*
X71040238Y-165654761D01*
X70849761Y-165559523D01*
X70754523Y-165369047D01*
X70754523Y-164607142D01*
X70849761Y-164416666D01*
X71040238Y-164321428D01*
X71421190Y-164321428D01*
X71611666Y-164416666D01*
X71706904Y-164607142D01*
X71706904Y-164797619D01*
X70754523Y-164988095D01*
X72373571Y-164321428D02*
X72849761Y-165654761D01*
X73325952Y-164321428D01*
D10*
X52357142Y-81416666D02*
X52404761Y-81464285D01*
X52452380Y-81607142D01*
X52452380Y-81702380D01*
X52404761Y-81845238D01*
X52309523Y-81940476D01*
X52214285Y-81988095D01*
X52023809Y-82035714D01*
X51880952Y-82035714D01*
X51690476Y-81988095D01*
X51595238Y-81940476D01*
X51500000Y-81845238D01*
X51452380Y-81702380D01*
X51452380Y-81607142D01*
X51500000Y-81464285D01*
X51547619Y-81416666D01*
X52404761Y-81035714D02*
X52452380Y-80892857D01*
X52452380Y-80654761D01*
X52404761Y-80559523D01*
X52357142Y-80511904D01*
X52261904Y-80464285D01*
X52166666Y-80464285D01*
X52071428Y-80511904D01*
X52023809Y-80559523D01*
X51976190Y-80654761D01*
X51928571Y-80845238D01*
X51880952Y-80940476D01*
X51833333Y-80988095D01*
X51738095Y-81035714D01*
X51642857Y-81035714D01*
X51547619Y-80988095D01*
X51500000Y-80940476D01*
X51452380Y-80845238D01*
X51452380Y-80607142D01*
X51500000Y-80464285D01*
X111785714Y-103500000D02*
X111690476Y-103452380D01*
X111547619Y-103452380D01*
X111404761Y-103500000D01*
X111309523Y-103595238D01*
X111261904Y-103690476D01*
X111214285Y-103880952D01*
X111214285Y-104023809D01*
X111261904Y-104214285D01*
X111309523Y-104309523D01*
X111404761Y-104404761D01*
X111547619Y-104452380D01*
X111642857Y-104452380D01*
X111785714Y-104404761D01*
X111833333Y-104357142D01*
X111833333Y-104023809D01*
X111642857Y-104023809D01*
X112261904Y-104452380D02*
X112261904Y-103452380D01*
X112833333Y-104452380D01*
X112833333Y-103452380D01*
X113261904Y-104404761D02*
X113404761Y-104452380D01*
X113642857Y-104452380D01*
X113738095Y-104404761D01*
X113785714Y-104357142D01*
X113833333Y-104261904D01*
X113833333Y-104166666D01*
X113785714Y-104071428D01*
X113738095Y-104023809D01*
X113642857Y-103976190D01*
X113452380Y-103928571D01*
X113357142Y-103880952D01*
X113309523Y-103833333D01*
X113261904Y-103738095D01*
X113261904Y-103642857D01*
X113309523Y-103547619D01*
X113357142Y-103500000D01*
X113452380Y-103452380D01*
X113690476Y-103452380D01*
X113833333Y-103500000D01*
X114214285Y-104404761D02*
X114357142Y-104452380D01*
X114595238Y-104452380D01*
X114690476Y-104404761D01*
X114738095Y-104357142D01*
X114785714Y-104261904D01*
X114785714Y-104166666D01*
X114738095Y-104071428D01*
X114690476Y-104023809D01*
X114595238Y-103976190D01*
X114404761Y-103928571D01*
X114309523Y-103880952D01*
X114261904Y-103833333D01*
X114214285Y-103738095D01*
X114214285Y-103642857D01*
X114261904Y-103547619D01*
X114309523Y-103500000D01*
X114404761Y-103452380D01*
X114642857Y-103452380D01*
X114785714Y-103500000D01*
X109976190Y-112452380D02*
X109500000Y-112452380D01*
X109500000Y-111452380D01*
X110166666Y-111452380D02*
X110738095Y-111452380D01*
X110452380Y-112452380D02*
X110452380Y-111452380D01*
X111071428Y-111928571D02*
X111404761Y-111928571D01*
X111547619Y-112452380D02*
X111071428Y-112452380D01*
X111071428Y-111452380D01*
X111547619Y-111452380D01*
X39702380Y-107988095D02*
X39702380Y-107369047D01*
X40083333Y-107702380D01*
X40083333Y-107559523D01*
X40130952Y-107464285D01*
X40178571Y-107416666D01*
X40273809Y-107369047D01*
X40511904Y-107369047D01*
X40607142Y-107416666D01*
X40654761Y-107464285D01*
X40702380Y-107559523D01*
X40702380Y-107845238D01*
X40654761Y-107940476D01*
X40607142Y-107988095D01*
X39702380Y-107083333D02*
X40702380Y-106750000D01*
X39702380Y-106416666D01*
X39702380Y-106178571D02*
X39702380Y-105559523D01*
X40083333Y-105892857D01*
X40083333Y-105750000D01*
X40130952Y-105654761D01*
X40178571Y-105607142D01*
X40273809Y-105559523D01*
X40511904Y-105559523D01*
X40607142Y-105607142D01*
X40654761Y-105654761D01*
X40702380Y-105750000D01*
X40702380Y-106035714D01*
X40654761Y-106130952D01*
X40607142Y-106178571D01*
X70157023Y-124952380D02*
X69823690Y-124476190D01*
X69585595Y-124952380D02*
X69585595Y-123952380D01*
X69966547Y-123952380D01*
X70061785Y-124000000D01*
X70109404Y-124047619D01*
X70157023Y-124142857D01*
X70157023Y-124285714D01*
X70109404Y-124380952D01*
X70061785Y-124428571D01*
X69966547Y-124476190D01*
X69585595Y-124476190D01*
X70537976Y-124904761D02*
X70680833Y-124952380D01*
X70918928Y-124952380D01*
X71014166Y-124904761D01*
X71061785Y-124857142D01*
X71109404Y-124761904D01*
X71109404Y-124666666D01*
X71061785Y-124571428D01*
X71014166Y-124523809D01*
X70918928Y-124476190D01*
X70728452Y-124428571D01*
X70633214Y-124380952D01*
X70585595Y-124333333D01*
X70537976Y-124238095D01*
X70537976Y-124142857D01*
X70585595Y-124047619D01*
X70633214Y-124000000D01*
X70728452Y-123952380D01*
X70966547Y-123952380D01*
X71109404Y-124000000D01*
X71395119Y-123952380D02*
X71966547Y-123952380D01*
X71680833Y-124952380D02*
X71680833Y-123952380D01*
X39702380Y-133333333D02*
X40702380Y-133000000D01*
X39702380Y-132666666D01*
X40702380Y-132333333D02*
X39702380Y-132333333D01*
X39702380Y-131952380D01*
X39750000Y-131857142D01*
X39797619Y-131809523D01*
X39892857Y-131761904D01*
X40035714Y-131761904D01*
X40130952Y-131809523D01*
X40178571Y-131857142D01*
X40226190Y-131952380D01*
X40226190Y-132333333D01*
X40702380Y-131333333D02*
X39702380Y-131333333D01*
X39702380Y-130952380D01*
X39750000Y-130857142D01*
X39797619Y-130809523D01*
X39892857Y-130761904D01*
X40035714Y-130761904D01*
X40130952Y-130809523D01*
X40178571Y-130857142D01*
X40226190Y-130952380D01*
X40226190Y-131333333D01*
X115702380Y-146238095D02*
X114702380Y-146238095D01*
X114702380Y-145857142D01*
X114750000Y-145761904D01*
X114797619Y-145714285D01*
X114892857Y-145666666D01*
X115035714Y-145666666D01*
X115130952Y-145714285D01*
X115178571Y-145761904D01*
X115226190Y-145857142D01*
X115226190Y-146238095D01*
X115178571Y-145238095D02*
X115178571Y-144904761D01*
X115702380Y-144761904D02*
X115702380Y-145238095D01*
X114702380Y-145238095D01*
X114702380Y-144761904D01*
X115702380Y-144333333D02*
X114702380Y-144333333D01*
X115702380Y-143761904D01*
X114702380Y-143761904D01*
X84902380Y-134761904D02*
X85711904Y-134761904D01*
X85807142Y-134714285D01*
X85854761Y-134666666D01*
X85902380Y-134571428D01*
X85902380Y-134380952D01*
X85854761Y-134285714D01*
X85807142Y-134238095D01*
X85711904Y-134190476D01*
X84902380Y-134190476D01*
X84902380Y-133809523D02*
X84902380Y-133142857D01*
X85902380Y-133571428D01*
X55111904Y-118732380D02*
X55111904Y-117732380D01*
X55350000Y-117732380D01*
X55492857Y-117780000D01*
X55588095Y-117875238D01*
X55635714Y-117970476D01*
X55683333Y-118160952D01*
X55683333Y-118303809D01*
X55635714Y-118494285D01*
X55588095Y-118589523D01*
X55492857Y-118684761D01*
X55350000Y-118732380D01*
X55111904Y-118732380D01*
X56635714Y-118732380D02*
X56064285Y-118732380D01*
X56350000Y-118732380D02*
X56350000Y-117732380D01*
X56254761Y-117875238D01*
X56159523Y-117970476D01*
X56064285Y-118018095D01*
X49683333Y-118052380D02*
X49350000Y-117576190D01*
X49111904Y-118052380D02*
X49111904Y-117052380D01*
X49492857Y-117052380D01*
X49588095Y-117100000D01*
X49635714Y-117147619D01*
X49683333Y-117242857D01*
X49683333Y-117385714D01*
X49635714Y-117480952D01*
X49588095Y-117528571D01*
X49492857Y-117576190D01*
X49111904Y-117576190D01*
X50254761Y-117480952D02*
X50159523Y-117433333D01*
X50111904Y-117385714D01*
X50064285Y-117290476D01*
X50064285Y-117242857D01*
X50111904Y-117147619D01*
X50159523Y-117100000D01*
X50254761Y-117052380D01*
X50445238Y-117052380D01*
X50540476Y-117100000D01*
X50588095Y-117147619D01*
X50635714Y-117242857D01*
X50635714Y-117290476D01*
X50588095Y-117385714D01*
X50540476Y-117433333D01*
X50445238Y-117480952D01*
X50254761Y-117480952D01*
X50159523Y-117528571D01*
X50111904Y-117576190D01*
X50064285Y-117671428D01*
X50064285Y-117861904D01*
X50111904Y-117957142D01*
X50159523Y-118004761D01*
X50254761Y-118052380D01*
X50445238Y-118052380D01*
X50540476Y-118004761D01*
X50588095Y-117957142D01*
X50635714Y-117861904D01*
X50635714Y-117671428D01*
X50588095Y-117576190D01*
X50540476Y-117528571D01*
X50445238Y-117480952D01*
X49683333Y-116552380D02*
X49350000Y-116076190D01*
X49111904Y-116552380D02*
X49111904Y-115552380D01*
X49492857Y-115552380D01*
X49588095Y-115600000D01*
X49635714Y-115647619D01*
X49683333Y-115742857D01*
X49683333Y-115885714D01*
X49635714Y-115980952D01*
X49588095Y-116028571D01*
X49492857Y-116076190D01*
X49111904Y-116076190D01*
X50540476Y-115552380D02*
X50350000Y-115552380D01*
X50254761Y-115600000D01*
X50207142Y-115647619D01*
X50111904Y-115790476D01*
X50064285Y-115980952D01*
X50064285Y-116361904D01*
X50111904Y-116457142D01*
X50159523Y-116504761D01*
X50254761Y-116552380D01*
X50445238Y-116552380D01*
X50540476Y-116504761D01*
X50588095Y-116457142D01*
X50635714Y-116361904D01*
X50635714Y-116123809D01*
X50588095Y-116028571D01*
X50540476Y-115980952D01*
X50445238Y-115933333D01*
X50254761Y-115933333D01*
X50159523Y-115980952D01*
X50111904Y-116028571D01*
X50064285Y-116123809D01*
X73583333Y-128452380D02*
X73250000Y-127976190D01*
X73011904Y-128452380D02*
X73011904Y-127452380D01*
X73392857Y-127452380D01*
X73488095Y-127500000D01*
X73535714Y-127547619D01*
X73583333Y-127642857D01*
X73583333Y-127785714D01*
X73535714Y-127880952D01*
X73488095Y-127928571D01*
X73392857Y-127976190D01*
X73011904Y-127976190D01*
X73916666Y-127452380D02*
X74583333Y-127452380D01*
X74154761Y-128452380D01*
X102238095Y-106452380D02*
X102238095Y-107261904D01*
X102285714Y-107357142D01*
X102333333Y-107404761D01*
X102428571Y-107452380D01*
X102619047Y-107452380D01*
X102714285Y-107404761D01*
X102761904Y-107357142D01*
X102809523Y-107261904D01*
X102809523Y-106452380D01*
X103761904Y-106452380D02*
X103285714Y-106452380D01*
X103238095Y-106928571D01*
X103285714Y-106880952D01*
X103380952Y-106833333D01*
X103619047Y-106833333D01*
X103714285Y-106880952D01*
X103761904Y-106928571D01*
X103809523Y-107023809D01*
X103809523Y-107261904D01*
X103761904Y-107357142D01*
X103714285Y-107404761D01*
X103619047Y-107452380D01*
X103380952Y-107452380D01*
X103285714Y-107404761D01*
X103238095Y-107357142D01*
X97704095Y-87222380D02*
X97704095Y-88031904D01*
X97751714Y-88127142D01*
X97799333Y-88174761D01*
X97894571Y-88222380D01*
X98085047Y-88222380D01*
X98180285Y-88174761D01*
X98227904Y-88127142D01*
X98275523Y-88031904D01*
X98275523Y-87222380D01*
X98704095Y-87317619D02*
X98751714Y-87270000D01*
X98846952Y-87222380D01*
X99085047Y-87222380D01*
X99180285Y-87270000D01*
X99227904Y-87317619D01*
X99275523Y-87412857D01*
X99275523Y-87508095D01*
X99227904Y-87650952D01*
X98656476Y-88222380D01*
X99275523Y-88222380D01*
X75238095Y-84652380D02*
X75238095Y-85461904D01*
X75285714Y-85557142D01*
X75333333Y-85604761D01*
X75428571Y-85652380D01*
X75619047Y-85652380D01*
X75714285Y-85604761D01*
X75761904Y-85557142D01*
X75809523Y-85461904D01*
X75809523Y-84652380D01*
X76809523Y-85652380D02*
X76238095Y-85652380D01*
X76523809Y-85652380D02*
X76523809Y-84652380D01*
X76428571Y-84795238D01*
X76333333Y-84890476D01*
X76238095Y-84938095D01*
X104005142Y-105844142D02*
X103957523Y-105891761D01*
X103814666Y-105939380D01*
X103719428Y-105939380D01*
X103576571Y-105891761D01*
X103481333Y-105796523D01*
X103433714Y-105701285D01*
X103386095Y-105510809D01*
X103386095Y-105367952D01*
X103433714Y-105177476D01*
X103481333Y-105082238D01*
X103576571Y-104987000D01*
X103719428Y-104939380D01*
X103814666Y-104939380D01*
X103957523Y-104987000D01*
X104005142Y-105034619D01*
X104957523Y-105939380D02*
X104386095Y-105939380D01*
X104671809Y-105939380D02*
X104671809Y-104939380D01*
X104576571Y-105082238D01*
X104481333Y-105177476D01*
X104386095Y-105225095D01*
X105909904Y-105939380D02*
X105338476Y-105939380D01*
X105624190Y-105939380D02*
X105624190Y-104939380D01*
X105528952Y-105082238D01*
X105433714Y-105177476D01*
X105338476Y-105225095D01*
X84288380Y-107949904D02*
X85097904Y-107949904D01*
X85193142Y-107902285D01*
X85240761Y-107854666D01*
X85288380Y-107759428D01*
X85288380Y-107568952D01*
X85240761Y-107473714D01*
X85193142Y-107426095D01*
X85097904Y-107378476D01*
X84288380Y-107378476D01*
X84288380Y-106997523D02*
X84288380Y-106378476D01*
X84669333Y-106711809D01*
X84669333Y-106568952D01*
X84716952Y-106473714D01*
X84764571Y-106426095D01*
X84859809Y-106378476D01*
X85097904Y-106378476D01*
X85193142Y-106426095D01*
X85240761Y-106473714D01*
X85288380Y-106568952D01*
X85288380Y-106854666D01*
X85240761Y-106949904D01*
X85193142Y-106997523D01*
X108577142Y-108528142D02*
X108529523Y-108575761D01*
X108386666Y-108623380D01*
X108291428Y-108623380D01*
X108148571Y-108575761D01*
X108053333Y-108480523D01*
X108005714Y-108385285D01*
X107958095Y-108194809D01*
X107958095Y-108051952D01*
X108005714Y-107861476D01*
X108053333Y-107766238D01*
X108148571Y-107671000D01*
X108291428Y-107623380D01*
X108386666Y-107623380D01*
X108529523Y-107671000D01*
X108577142Y-107718619D01*
X109529523Y-108623380D02*
X108958095Y-108623380D01*
X109243809Y-108623380D02*
X109243809Y-107623380D01*
X109148571Y-107766238D01*
X109053333Y-107861476D01*
X108958095Y-107909095D01*
X109910476Y-107718619D02*
X109958095Y-107671000D01*
X110053333Y-107623380D01*
X110291428Y-107623380D01*
X110386666Y-107671000D01*
X110434285Y-107718619D01*
X110481904Y-107813857D01*
X110481904Y-107909095D01*
X110434285Y-108051952D01*
X109862857Y-108623380D01*
X110481904Y-108623380D01*
X82697142Y-158036857D02*
X82744761Y-158084476D01*
X82792380Y-158227333D01*
X82792380Y-158322571D01*
X82744761Y-158465428D01*
X82649523Y-158560666D01*
X82554285Y-158608285D01*
X82363809Y-158655904D01*
X82220952Y-158655904D01*
X82030476Y-158608285D01*
X81935238Y-158560666D01*
X81840000Y-158465428D01*
X81792380Y-158322571D01*
X81792380Y-158227333D01*
X81840000Y-158084476D01*
X81887619Y-158036857D01*
X82792380Y-157084476D02*
X82792380Y-157655904D01*
X82792380Y-157370190D02*
X81792380Y-157370190D01*
X81935238Y-157465428D01*
X82030476Y-157560666D01*
X82078095Y-157655904D01*
X82792380Y-156608285D02*
X82792380Y-156417809D01*
X82744761Y-156322571D01*
X82697142Y-156274952D01*
X82554285Y-156179714D01*
X82363809Y-156132095D01*
X81982857Y-156132095D01*
X81887619Y-156179714D01*
X81840000Y-156227333D01*
X81792380Y-156322571D01*
X81792380Y-156513047D01*
X81840000Y-156608285D01*
X81887619Y-156655904D01*
X81982857Y-156703523D01*
X82220952Y-156703523D01*
X82316190Y-156655904D01*
X82363809Y-156608285D01*
X82411428Y-156513047D01*
X82411428Y-156322571D01*
X82363809Y-156227333D01*
X82316190Y-156179714D01*
X82220952Y-156132095D01*
X107021333Y-106193380D02*
X106545142Y-106193380D01*
X106545142Y-105193380D01*
X107878476Y-106193380D02*
X107307047Y-106193380D01*
X107592761Y-106193380D02*
X107592761Y-105193380D01*
X107497523Y-105336238D01*
X107402285Y-105431476D01*
X107307047Y-105479095D01*
X84780380Y-148162666D02*
X84304190Y-148496000D01*
X84780380Y-148734095D02*
X83780380Y-148734095D01*
X83780380Y-148353142D01*
X83828000Y-148257904D01*
X83875619Y-148210285D01*
X83970857Y-148162666D01*
X84113714Y-148162666D01*
X84208952Y-148210285D01*
X84256571Y-148257904D01*
X84304190Y-148353142D01*
X84304190Y-148734095D01*
X83875619Y-147781714D02*
X83828000Y-147734095D01*
X83780380Y-147638857D01*
X83780380Y-147400761D01*
X83828000Y-147305523D01*
X83875619Y-147257904D01*
X83970857Y-147210285D01*
X84066095Y-147210285D01*
X84208952Y-147257904D01*
X84780380Y-147829333D01*
X84780380Y-147210285D01*
X77589142Y-166357142D02*
X77541523Y-166404761D01*
X77398666Y-166452380D01*
X77303428Y-166452380D01*
X77160571Y-166404761D01*
X77065333Y-166309523D01*
X77017714Y-166214285D01*
X76970095Y-166023809D01*
X76970095Y-165880952D01*
X77017714Y-165690476D01*
X77065333Y-165595238D01*
X77160571Y-165500000D01*
X77303428Y-165452380D01*
X77398666Y-165452380D01*
X77541523Y-165500000D01*
X77589142Y-165547619D01*
X78541523Y-166452380D02*
X77970095Y-166452380D01*
X78255809Y-166452380D02*
X78255809Y-165452380D01*
X78160571Y-165595238D01*
X78065333Y-165690476D01*
X77970095Y-165738095D01*
X79112952Y-165880952D02*
X79017714Y-165833333D01*
X78970095Y-165785714D01*
X78922476Y-165690476D01*
X78922476Y-165642857D01*
X78970095Y-165547619D01*
X79017714Y-165500000D01*
X79112952Y-165452380D01*
X79303428Y-165452380D01*
X79398666Y-165500000D01*
X79446285Y-165547619D01*
X79493904Y-165642857D01*
X79493904Y-165690476D01*
X79446285Y-165785714D01*
X79398666Y-165833333D01*
X79303428Y-165880952D01*
X79112952Y-165880952D01*
X79017714Y-165928571D01*
X78970095Y-165976190D01*
X78922476Y-166071428D01*
X78922476Y-166261904D01*
X78970095Y-166357142D01*
X79017714Y-166404761D01*
X79112952Y-166452380D01*
X79303428Y-166452380D01*
X79398666Y-166404761D01*
X79446285Y-166357142D01*
X79493904Y-166261904D01*
X79493904Y-166071428D01*
X79446285Y-165976190D01*
X79398666Y-165928571D01*
X79303428Y-165880952D01*
X101833333Y-86357142D02*
X101785714Y-86404761D01*
X101642857Y-86452380D01*
X101547619Y-86452380D01*
X101404761Y-86404761D01*
X101309523Y-86309523D01*
X101261904Y-86214285D01*
X101214285Y-86023809D01*
X101214285Y-85880952D01*
X101261904Y-85690476D01*
X101309523Y-85595238D01*
X101404761Y-85500000D01*
X101547619Y-85452380D01*
X101642857Y-85452380D01*
X101785714Y-85500000D01*
X101833333Y-85547619D01*
X102785714Y-86452380D02*
X102214285Y-86452380D01*
X102500000Y-86452380D02*
X102500000Y-85452380D01*
X102404761Y-85595238D01*
X102309523Y-85690476D01*
X102214285Y-85738095D01*
X83907333Y-118975142D02*
X83859714Y-119022761D01*
X83716857Y-119070380D01*
X83621619Y-119070380D01*
X83478761Y-119022761D01*
X83383523Y-118927523D01*
X83335904Y-118832285D01*
X83288285Y-118641809D01*
X83288285Y-118498952D01*
X83335904Y-118308476D01*
X83383523Y-118213238D01*
X83478761Y-118118000D01*
X83621619Y-118070380D01*
X83716857Y-118070380D01*
X83859714Y-118118000D01*
X83907333Y-118165619D01*
X84764476Y-118070380D02*
X84574000Y-118070380D01*
X84478761Y-118118000D01*
X84431142Y-118165619D01*
X84335904Y-118308476D01*
X84288285Y-118498952D01*
X84288285Y-118879904D01*
X84335904Y-118975142D01*
X84383523Y-119022761D01*
X84478761Y-119070380D01*
X84669238Y-119070380D01*
X84764476Y-119022761D01*
X84812095Y-118975142D01*
X84859714Y-118879904D01*
X84859714Y-118641809D01*
X84812095Y-118546571D01*
X84764476Y-118498952D01*
X84669238Y-118451333D01*
X84478761Y-118451333D01*
X84383523Y-118498952D01*
X84335904Y-118546571D01*
X84288285Y-118641809D01*
X100512380Y-122935904D02*
X101321904Y-122935904D01*
X101417142Y-122888285D01*
X101464761Y-122840666D01*
X101512380Y-122745428D01*
X101512380Y-122554952D01*
X101464761Y-122459714D01*
X101417142Y-122412095D01*
X101321904Y-122364476D01*
X100512380Y-122364476D01*
X100512380Y-121459714D02*
X100512380Y-121650190D01*
X100560000Y-121745428D01*
X100607619Y-121793047D01*
X100750476Y-121888285D01*
X100940952Y-121935904D01*
X101321904Y-121935904D01*
X101417142Y-121888285D01*
X101464761Y-121840666D01*
X101512380Y-121745428D01*
X101512380Y-121554952D01*
X101464761Y-121459714D01*
X101417142Y-121412095D01*
X101321904Y-121364476D01*
X101083809Y-121364476D01*
X100988571Y-121412095D01*
X100940952Y-121459714D01*
X100893333Y-121554952D01*
X100893333Y-121745428D01*
X100940952Y-121840666D01*
X100988571Y-121888285D01*
X101083809Y-121935904D01*
X86304380Y-148162666D02*
X85828190Y-148496000D01*
X86304380Y-148734095D02*
X85304380Y-148734095D01*
X85304380Y-148353142D01*
X85352000Y-148257904D01*
X85399619Y-148210285D01*
X85494857Y-148162666D01*
X85637714Y-148162666D01*
X85732952Y-148210285D01*
X85780571Y-148257904D01*
X85828190Y-148353142D01*
X85828190Y-148734095D01*
X85304380Y-147257904D02*
X85304380Y-147734095D01*
X85780571Y-147781714D01*
X85732952Y-147734095D01*
X85685333Y-147638857D01*
X85685333Y-147400761D01*
X85732952Y-147305523D01*
X85780571Y-147257904D01*
X85875809Y-147210285D01*
X86113904Y-147210285D01*
X86209142Y-147257904D01*
X86256761Y-147305523D01*
X86304380Y-147400761D01*
X86304380Y-147638857D01*
X86256761Y-147734095D01*
X86209142Y-147781714D01*
X87702380Y-102016666D02*
X87226190Y-102350000D01*
X87702380Y-102588095D02*
X86702380Y-102588095D01*
X86702380Y-102207142D01*
X86750000Y-102111904D01*
X86797619Y-102064285D01*
X86892857Y-102016666D01*
X87035714Y-102016666D01*
X87130952Y-102064285D01*
X87178571Y-102111904D01*
X87226190Y-102207142D01*
X87226190Y-102588095D01*
X87035714Y-101159523D02*
X87702380Y-101159523D01*
X86654761Y-101397619D02*
X87369047Y-101635714D01*
X87369047Y-101016666D01*
X61809333Y-87877142D02*
X61761714Y-87924761D01*
X61618857Y-87972380D01*
X61523619Y-87972380D01*
X61380761Y-87924761D01*
X61285523Y-87829523D01*
X61237904Y-87734285D01*
X61190285Y-87543809D01*
X61190285Y-87400952D01*
X61237904Y-87210476D01*
X61285523Y-87115238D01*
X61380761Y-87020000D01*
X61523619Y-86972380D01*
X61618857Y-86972380D01*
X61761714Y-87020000D01*
X61809333Y-87067619D01*
X62190285Y-87067619D02*
X62237904Y-87020000D01*
X62333142Y-86972380D01*
X62571238Y-86972380D01*
X62666476Y-87020000D01*
X62714095Y-87067619D01*
X62761714Y-87162857D01*
X62761714Y-87258095D01*
X62714095Y-87400952D01*
X62142666Y-87972380D01*
X62761714Y-87972380D01*
X74833333Y-132952380D02*
X74500000Y-132476190D01*
X74261904Y-132952380D02*
X74261904Y-131952380D01*
X74642857Y-131952380D01*
X74738095Y-132000000D01*
X74785714Y-132047619D01*
X74833333Y-132142857D01*
X74833333Y-132285714D01*
X74785714Y-132380952D01*
X74738095Y-132428571D01*
X74642857Y-132476190D01*
X74261904Y-132476190D01*
X75166666Y-131952380D02*
X75785714Y-131952380D01*
X75452380Y-132333333D01*
X75595238Y-132333333D01*
X75690476Y-132380952D01*
X75738095Y-132428571D01*
X75785714Y-132523809D01*
X75785714Y-132761904D01*
X75738095Y-132857142D01*
X75690476Y-132904761D01*
X75595238Y-132952380D01*
X75309523Y-132952380D01*
X75214285Y-132904761D01*
X75166666Y-132857142D01*
X83933333Y-120307142D02*
X83885714Y-120354761D01*
X83742857Y-120402380D01*
X83647619Y-120402380D01*
X83504761Y-120354761D01*
X83409523Y-120259523D01*
X83361904Y-120164285D01*
X83314285Y-119973809D01*
X83314285Y-119830952D01*
X83361904Y-119640476D01*
X83409523Y-119545238D01*
X83504761Y-119450000D01*
X83647619Y-119402380D01*
X83742857Y-119402380D01*
X83885714Y-119450000D01*
X83933333Y-119497619D01*
X84838095Y-119402380D02*
X84361904Y-119402380D01*
X84314285Y-119878571D01*
X84361904Y-119830952D01*
X84457142Y-119783333D01*
X84695238Y-119783333D01*
X84790476Y-119830952D01*
X84838095Y-119878571D01*
X84885714Y-119973809D01*
X84885714Y-120211904D01*
X84838095Y-120307142D01*
X84790476Y-120354761D01*
X84695238Y-120402380D01*
X84457142Y-120402380D01*
X84361904Y-120354761D01*
X84314285Y-120307142D01*
X86207142Y-102116666D02*
X86254761Y-102164285D01*
X86302380Y-102307142D01*
X86302380Y-102402380D01*
X86254761Y-102545238D01*
X86159523Y-102640476D01*
X86064285Y-102688095D01*
X85873809Y-102735714D01*
X85730952Y-102735714D01*
X85540476Y-102688095D01*
X85445238Y-102640476D01*
X85350000Y-102545238D01*
X85302380Y-102402380D01*
X85302380Y-102307142D01*
X85350000Y-102164285D01*
X85397619Y-102116666D01*
X86302380Y-101640476D02*
X86302380Y-101450000D01*
X86254761Y-101354761D01*
X86207142Y-101307142D01*
X86064285Y-101211904D01*
X85873809Y-101164285D01*
X85492857Y-101164285D01*
X85397619Y-101211904D01*
X85350000Y-101259523D01*
X85302380Y-101354761D01*
X85302380Y-101545238D01*
X85350000Y-101640476D01*
X85397619Y-101688095D01*
X85492857Y-101735714D01*
X85730952Y-101735714D01*
X85826190Y-101688095D01*
X85873809Y-101640476D01*
X85921428Y-101545238D01*
X85921428Y-101354761D01*
X85873809Y-101259523D01*
X85826190Y-101211904D01*
X85730952Y-101164285D01*
X85357142Y-143877142D02*
X85309523Y-143924761D01*
X85166666Y-143972380D01*
X85071428Y-143972380D01*
X84928571Y-143924761D01*
X84833333Y-143829523D01*
X84785714Y-143734285D01*
X84738095Y-143543809D01*
X84738095Y-143400952D01*
X84785714Y-143210476D01*
X84833333Y-143115238D01*
X84928571Y-143020000D01*
X85071428Y-142972380D01*
X85166666Y-142972380D01*
X85309523Y-143020000D01*
X85357142Y-143067619D01*
X86309523Y-143972380D02*
X85738095Y-143972380D01*
X86023809Y-143972380D02*
X86023809Y-142972380D01*
X85928571Y-143115238D01*
X85833333Y-143210476D01*
X85738095Y-143258095D01*
X86642857Y-142972380D02*
X87309523Y-142972380D01*
X86880952Y-143972380D01*
X82145142Y-111526502D02*
X82192761Y-111574121D01*
X82240380Y-111716978D01*
X82240380Y-111812216D01*
X82192761Y-111955074D01*
X82097523Y-112050312D01*
X82002285Y-112097931D01*
X81811809Y-112145550D01*
X81668952Y-112145550D01*
X81478476Y-112097931D01*
X81383238Y-112050312D01*
X81288000Y-111955074D01*
X81240380Y-111812216D01*
X81240380Y-111716978D01*
X81288000Y-111574121D01*
X81335619Y-111526502D01*
X81240380Y-111193169D02*
X81240380Y-110574121D01*
X81621333Y-110907455D01*
X81621333Y-110764597D01*
X81668952Y-110669359D01*
X81716571Y-110621740D01*
X81811809Y-110574121D01*
X82049904Y-110574121D01*
X82145142Y-110621740D01*
X82192761Y-110669359D01*
X82240380Y-110764597D01*
X82240380Y-111050312D01*
X82192761Y-111145550D01*
X82145142Y-111193169D01*
X84609142Y-102106666D02*
X84656761Y-102154285D01*
X84704380Y-102297142D01*
X84704380Y-102392380D01*
X84656761Y-102535238D01*
X84561523Y-102630476D01*
X84466285Y-102678095D01*
X84275809Y-102725714D01*
X84132952Y-102725714D01*
X83942476Y-102678095D01*
X83847238Y-102630476D01*
X83752000Y-102535238D01*
X83704380Y-102392380D01*
X83704380Y-102297142D01*
X83752000Y-102154285D01*
X83799619Y-102106666D01*
X84132952Y-101535238D02*
X84085333Y-101630476D01*
X84037714Y-101678095D01*
X83942476Y-101725714D01*
X83894857Y-101725714D01*
X83799619Y-101678095D01*
X83752000Y-101630476D01*
X83704380Y-101535238D01*
X83704380Y-101344761D01*
X83752000Y-101249523D01*
X83799619Y-101201904D01*
X83894857Y-101154285D01*
X83942476Y-101154285D01*
X84037714Y-101201904D01*
X84085333Y-101249523D01*
X84132952Y-101344761D01*
X84132952Y-101535238D01*
X84180571Y-101630476D01*
X84228190Y-101678095D01*
X84323428Y-101725714D01*
X84513904Y-101725714D01*
X84609142Y-101678095D01*
X84656761Y-101630476D01*
X84704380Y-101535238D01*
X84704380Y-101344761D01*
X84656761Y-101249523D01*
X84609142Y-101201904D01*
X84513904Y-101154285D01*
X84323428Y-101154285D01*
X84228190Y-101201904D01*
X84180571Y-101249523D01*
X84132952Y-101344761D01*
X59269333Y-87982380D02*
X58936000Y-87506190D01*
X58697904Y-87982380D02*
X58697904Y-86982380D01*
X59078857Y-86982380D01*
X59174095Y-87030000D01*
X59221714Y-87077619D01*
X59269333Y-87172857D01*
X59269333Y-87315714D01*
X59221714Y-87410952D01*
X59174095Y-87458571D01*
X59078857Y-87506190D01*
X58697904Y-87506190D01*
X60221714Y-87982380D02*
X59650285Y-87982380D01*
X59936000Y-87982380D02*
X59936000Y-86982380D01*
X59840761Y-87125238D01*
X59745523Y-87220476D01*
X59650285Y-87268095D01*
X82255142Y-113704666D02*
X82302761Y-113752285D01*
X82350380Y-113895142D01*
X82350380Y-113990380D01*
X82302761Y-114133238D01*
X82207523Y-114228476D01*
X82112285Y-114276095D01*
X81921809Y-114323714D01*
X81778952Y-114323714D01*
X81588476Y-114276095D01*
X81493238Y-114228476D01*
X81398000Y-114133238D01*
X81350380Y-113990380D01*
X81350380Y-113895142D01*
X81398000Y-113752285D01*
X81445619Y-113704666D01*
X81350380Y-113371333D02*
X81350380Y-112704666D01*
X82350380Y-113133238D01*
X104092142Y-122511857D02*
X104139761Y-122559476D01*
X104187380Y-122702333D01*
X104187380Y-122797571D01*
X104139761Y-122940428D01*
X104044523Y-123035666D01*
X103949285Y-123083285D01*
X103758809Y-123130904D01*
X103615952Y-123130904D01*
X103425476Y-123083285D01*
X103330238Y-123035666D01*
X103235000Y-122940428D01*
X103187380Y-122797571D01*
X103187380Y-122702333D01*
X103235000Y-122559476D01*
X103282619Y-122511857D01*
X104187380Y-121559476D02*
X104187380Y-122130904D01*
X104187380Y-121845190D02*
X103187380Y-121845190D01*
X103330238Y-121940428D01*
X103425476Y-122035666D01*
X103473095Y-122130904D01*
X103187380Y-120940428D02*
X103187380Y-120845190D01*
X103235000Y-120749952D01*
X103282619Y-120702333D01*
X103377857Y-120654714D01*
X103568333Y-120607095D01*
X103806428Y-120607095D01*
X103996904Y-120654714D01*
X104092142Y-120702333D01*
X104139761Y-120749952D01*
X104187380Y-120845190D01*
X104187380Y-120940428D01*
X104139761Y-121035666D01*
X104092142Y-121083285D01*
X103996904Y-121130904D01*
X103806428Y-121178523D01*
X103568333Y-121178523D01*
X103377857Y-121130904D01*
X103282619Y-121083285D01*
X103235000Y-121035666D01*
X103187380Y-120940428D01*
X92063142Y-90336666D02*
X92110761Y-90384285D01*
X92158380Y-90527142D01*
X92158380Y-90622380D01*
X92110761Y-90765238D01*
X92015523Y-90860476D01*
X91920285Y-90908095D01*
X91729809Y-90955714D01*
X91586952Y-90955714D01*
X91396476Y-90908095D01*
X91301238Y-90860476D01*
X91206000Y-90765238D01*
X91158380Y-90622380D01*
X91158380Y-90527142D01*
X91206000Y-90384285D01*
X91253619Y-90336666D01*
X91491714Y-89479523D02*
X92158380Y-89479523D01*
X91110761Y-89717619D02*
X91825047Y-89955714D01*
X91825047Y-89336666D01*
D11*
X81290000Y-135150000D02*
X81290000Y-134350000D01*
X84410000Y-135150000D02*
X84410000Y-135950000D01*
X81290000Y-135150000D02*
X81290000Y-135950000D01*
X84410000Y-135150000D02*
X84410000Y-133350000D01*
X55050000Y-117585000D02*
X57510000Y-117585000D01*
X57510000Y-116115000D02*
X55050000Y-116115000D01*
X57510000Y-117585000D02*
X57510000Y-116115000D01*
X51696359Y-117980000D02*
X52003641Y-117980000D01*
X51696359Y-117220000D02*
X52003641Y-117220000D01*
X51696359Y-116480000D02*
X52003641Y-116480000D01*
X51696359Y-115720000D02*
X52003641Y-115720000D01*
D10*
X104039500Y-136701000D02*
X104039500Y-126951000D01*
X116239500Y-126951000D02*
X104039500Y-126951000D01*
X116239500Y-136701000D02*
X116239500Y-126951000D01*
X104039500Y-136701000D02*
X116239500Y-136701000D01*
X116239500Y-136701000D02*
X116214500Y-136676000D01*
D11*
X41850000Y-74930000D02*
X44510000Y-74930000D01*
X41850000Y-82610000D02*
X44510000Y-82610000D01*
X44510000Y-74930000D02*
X44510000Y-82610000D01*
X41850000Y-73660000D02*
X41850000Y-72330000D01*
X41850000Y-72330000D02*
X43180000Y-72330000D01*
X41850000Y-74930000D02*
X41850000Y-82610000D01*
X74040000Y-129693641D02*
X74040000Y-129386359D01*
X73280000Y-129693641D02*
X73280000Y-129386359D01*
X104810000Y-108050000D02*
X104810000Y-107950000D01*
X104810000Y-107950000D02*
X105610000Y-107950000D01*
X105610000Y-107950000D02*
X105610000Y-108050000D01*
X98466000Y-88610000D02*
X99116000Y-88610000D01*
X98466000Y-88610000D02*
X96791000Y-88610000D01*
X98466000Y-91730000D02*
X97816000Y-91730000D01*
X98466000Y-91730000D02*
X99116000Y-91730000D01*
X114990000Y-90750000D02*
X114990000Y-97210000D01*
X114960000Y-90750000D02*
X114990000Y-90750000D01*
X108530000Y-90750000D02*
X108530000Y-97210000D01*
X108530000Y-97210000D02*
X108560000Y-97210000D01*
X108530000Y-90750000D02*
X108560000Y-90750000D01*
X113060000Y-97210000D02*
X110460000Y-97210000D01*
X113060000Y-90750000D02*
X110460000Y-90750000D01*
X114990000Y-97210000D02*
X114960000Y-97210000D01*
X78800000Y-91160000D02*
X76850000Y-91160000D01*
X78800000Y-86040000D02*
X75350000Y-86040000D01*
X78800000Y-91160000D02*
X80750000Y-91160000D01*
X78800000Y-86040000D02*
X80750000Y-86040000D01*
X104755836Y-106397000D02*
X104540164Y-106397000D01*
X104755836Y-107117000D02*
X104540164Y-107117000D01*
X106593500Y-78810000D02*
X106593500Y-70010000D01*
X115793500Y-70010000D02*
X115793500Y-84710000D01*
X109293500Y-84710000D02*
X106593500Y-84710000D01*
X115793500Y-84710000D02*
X113193500Y-84710000D01*
X106593500Y-84710000D02*
X106593500Y-82810000D01*
X115993500Y-83860000D02*
X115993500Y-84910000D01*
X106593500Y-70010000D02*
X115793500Y-70010000D01*
X114943500Y-84910000D02*
X115993500Y-84910000D01*
X72970000Y-74900000D02*
X72970000Y-77500000D01*
X79430000Y-79430000D02*
X79430000Y-79400000D01*
X72970000Y-72970000D02*
X79430000Y-72970000D01*
X72970000Y-79430000D02*
X79430000Y-79430000D01*
X72970000Y-79430000D02*
X72970000Y-79400000D01*
X79430000Y-74900000D02*
X79430000Y-77500000D01*
X72970000Y-73000000D02*
X72970000Y-72970000D01*
X79430000Y-72970000D02*
X79430000Y-73000000D01*
X101726000Y-106256000D02*
X101726000Y-116756000D01*
X85726000Y-106256000D02*
X101726000Y-106256000D01*
X101726000Y-116756000D02*
X85726000Y-116756000D01*
X85726000Y-116756000D02*
X85726000Y-106256000D01*
X86826000Y-107156000D02*
G75*
G03*
X86826000Y-107156000I-212132J0D01*
G01*
X109327836Y-107371000D02*
X109112164Y-107371000D01*
X109327836Y-106651000D02*
X109112164Y-106651000D01*
X83390000Y-155442164D02*
X83390000Y-155657836D01*
X84110000Y-155442164D02*
X84110000Y-155657836D01*
X107698000Y-107610221D02*
X107698000Y-107935779D01*
X106678000Y-107610221D02*
X106678000Y-107935779D01*
X83948000Y-149960359D02*
X83948000Y-150267641D01*
X84708000Y-149960359D02*
X84708000Y-150267641D01*
X78124164Y-164952000D02*
X78339836Y-164952000D01*
X78124164Y-164232000D02*
X78339836Y-164232000D01*
X101226000Y-84245563D02*
X101226000Y-83610000D01*
X101226000Y-80854437D02*
X101226000Y-81490000D01*
X102091000Y-84235000D02*
X101466000Y-84235000D01*
X100161563Y-79790000D02*
X95706000Y-79790000D01*
X101226000Y-80854437D02*
X100161563Y-79790000D01*
X95706000Y-79790000D02*
X95706000Y-81490000D01*
X95706000Y-85310000D02*
X95706000Y-83610000D01*
X101778500Y-84547500D02*
X101778500Y-83922500D01*
X101226000Y-84245563D02*
X100161563Y-85310000D01*
X100161563Y-85310000D02*
X95706000Y-85310000D01*
X86213836Y-118978000D02*
X85998164Y-118978000D01*
X86213836Y-118258000D02*
X85998164Y-118258000D01*
X91276000Y-74492500D02*
X90826000Y-74492500D01*
X83476000Y-74492500D02*
X83926000Y-74492500D01*
X83476000Y-70092500D02*
X83476000Y-70342500D01*
X91276000Y-70092500D02*
X91276000Y-70342500D01*
X89076000Y-75042500D02*
X89076000Y-74592500D01*
X89076000Y-75042500D02*
X88626000Y-75042500D01*
X83476000Y-72642500D02*
X83476000Y-74492500D01*
X91276000Y-72642500D02*
X91276000Y-74492500D01*
X100220000Y-122874000D02*
X100220000Y-120974000D01*
X97900000Y-121474000D02*
X97900000Y-122874000D01*
D13*
X82047000Y-153234000D02*
X82047000Y-153964000D01*
X82047000Y-161504000D02*
X82047000Y-162234000D01*
X82047000Y-162234000D02*
X80367000Y-162234000D01*
X80367000Y-153234000D02*
X82047000Y-153234000D01*
D14*
X78372000Y-154134000D02*
G75*
G03*
X78372000Y-154134000I-100000J0D01*
G01*
D11*
X85472000Y-149960359D02*
X85472000Y-150267641D01*
X86232000Y-149960359D02*
X86232000Y-150267641D01*
X86820000Y-103746359D02*
X86820000Y-104053641D01*
X87580000Y-103746359D02*
X87580000Y-104053641D01*
X44510000Y-133350000D02*
X44510000Y-115510000D01*
X44510000Y-135950000D02*
X43180000Y-135950000D01*
X44510000Y-133350000D02*
X41850000Y-133350000D01*
X41850000Y-133350000D02*
X41850000Y-115510000D01*
X44510000Y-115510000D02*
X41850000Y-115510000D01*
X44510000Y-134620000D02*
X44510000Y-135950000D01*
X41850000Y-107950000D02*
X41850000Y-90110000D01*
X44510000Y-107950000D02*
X41850000Y-107950000D01*
X44510000Y-109220000D02*
X44510000Y-110550000D01*
X44510000Y-110550000D02*
X43180000Y-110550000D01*
X44510000Y-107950000D02*
X44510000Y-90110000D01*
X44510000Y-90110000D02*
X41850000Y-90110000D01*
X62083836Y-86000000D02*
X61868164Y-86000000D01*
X62083836Y-86720000D02*
X61868164Y-86720000D01*
X100395000Y-168965000D02*
X99065000Y-168965000D01*
X100395000Y-143445000D02*
X95195000Y-143445000D01*
X97795000Y-168965000D02*
X95195000Y-168965000D01*
X100395000Y-166365000D02*
X100395000Y-143445000D01*
X100395000Y-166365000D02*
X97795000Y-166365000D01*
X97795000Y-166365000D02*
X97795000Y-168965000D01*
X95195000Y-168965000D02*
X95195000Y-143445000D01*
X100395000Y-167635000D02*
X100395000Y-168965000D01*
X83040000Y-140900000D02*
X83040000Y-140300000D01*
X86490000Y-141600000D02*
X83690000Y-141600000D01*
X83690000Y-139600000D02*
X86490000Y-139600000D01*
X83590000Y-142100000D02*
X84190000Y-142100000D01*
X83890000Y-141800000D02*
X84190000Y-142100000D01*
X87140000Y-140300000D02*
X87140000Y-140900000D01*
X83890000Y-141800000D02*
X83590000Y-142100000D01*
X83040000Y-140900000D02*
G75*
G03*
X83740000Y-141600000I699999J-1D01*
G01*
X87140000Y-140300000D02*
G75*
G03*
X86440000Y-139600000I-700000J0D01*
G01*
X86440000Y-141600000D02*
G75*
G03*
X87140000Y-140900000I0J700000D01*
G01*
X83740000Y-139600000D02*
G75*
G03*
X83040000Y-140300000I-1J-699999D01*
G01*
X74720000Y-130753641D02*
X74720000Y-130446359D01*
X75480000Y-130753641D02*
X75480000Y-130446359D01*
X69237470Y-127110000D02*
X68582530Y-127110000D01*
X70675000Y-127110000D02*
X69852530Y-127110000D01*
X68785000Y-129638471D02*
X68785000Y-129781529D01*
X67145000Y-131040000D02*
X67145000Y-127110000D01*
X70675000Y-129585000D02*
X70675000Y-127110000D01*
X67967470Y-127110000D02*
X67145000Y-127110000D01*
X68785000Y-131040000D02*
X68582530Y-131040000D01*
X68981529Y-129585000D02*
X68838471Y-129585000D01*
X70675000Y-129585000D02*
X70108471Y-129585000D01*
X70675000Y-130345000D02*
X70675000Y-131105000D01*
X67967470Y-131040000D02*
X67145000Y-131040000D01*
X68785000Y-130908471D02*
X68785000Y-131040000D01*
X70675000Y-131105000D02*
X69545000Y-131105000D01*
X113090000Y-166365000D02*
X113090000Y-143445000D01*
X113090000Y-167635000D02*
X113090000Y-168965000D01*
X110490000Y-166365000D02*
X110490000Y-168965000D01*
X107890000Y-168965000D02*
X107890000Y-143445000D01*
X113090000Y-143445000D02*
X107890000Y-143445000D01*
X113090000Y-168965000D02*
X111760000Y-168965000D01*
X110490000Y-168965000D02*
X107890000Y-168965000D01*
X113090000Y-166365000D02*
X110490000Y-166365000D01*
X86207836Y-119590000D02*
X85992164Y-119590000D01*
X86207836Y-120310000D02*
X85992164Y-120310000D01*
D10*
X68521000Y-84227500D02*
X68521000Y-72827500D01*
X62321000Y-72827500D02*
X55921000Y-72827500D01*
X68521000Y-72827500D02*
X62121000Y-72827500D01*
X55921000Y-72827500D02*
X55921000Y-84227500D01*
X68521000Y-84227500D02*
X55921000Y-84227500D01*
D11*
X86210000Y-104007836D02*
X86210000Y-103792164D01*
X85490000Y-104007836D02*
X85490000Y-103792164D01*
X111476000Y-108511000D02*
X111276000Y-108511000D01*
X114276000Y-107711000D02*
X114276000Y-108511000D01*
X114076000Y-105511000D02*
X114276000Y-105511000D01*
X114276000Y-105511000D02*
X114276000Y-106311000D01*
X114276000Y-108511000D02*
X114076000Y-108511000D01*
X111276000Y-107711000D02*
X110776000Y-107711000D01*
X111276000Y-106311000D02*
X110776000Y-106311000D01*
X111276000Y-108511000D02*
X111276000Y-107711000D01*
X111276000Y-106311000D02*
X111276000Y-105711000D01*
X111276000Y-105711000D02*
X111476000Y-105511000D01*
X85738748Y-144465000D02*
X86261252Y-144465000D01*
X85738748Y-145935000D02*
X86261252Y-145935000D01*
X86738000Y-167432000D02*
X86738000Y-166832000D01*
X88838000Y-168132000D02*
X87438000Y-168132000D01*
X87438000Y-166132000D02*
X88838000Y-166132000D01*
X89538000Y-166832000D02*
X89538000Y-167432000D01*
X86738000Y-167432000D02*
G75*
G03*
X87438000Y-168132000I700000J0D01*
G01*
X88838000Y-168132000D02*
G75*
G03*
X89538000Y-167432000I1J699999D01*
G01*
X87438000Y-166132000D02*
G75*
G03*
X86738000Y-166832000I0J-700000D01*
G01*
X89538000Y-166832000D02*
G75*
G03*
X88838000Y-166132000I-699999J1D01*
G01*
X82698000Y-111359836D02*
X82698000Y-111144164D01*
X83418000Y-111359836D02*
X83418000Y-111144164D01*
X46930000Y-107950000D02*
X46930000Y-72330000D01*
X49590000Y-107950000D02*
X46930000Y-107950000D01*
X49590000Y-72330000D02*
X46930000Y-72330000D01*
X49590000Y-110550000D02*
X48260000Y-110550000D01*
X49590000Y-109220000D02*
X49590000Y-110550000D01*
X49590000Y-107950000D02*
X49590000Y-72330000D01*
X96036000Y-75160000D02*
X96636000Y-75160000D01*
X96336000Y-74860000D02*
X96636000Y-75160000D01*
X95486000Y-73960000D02*
X95486000Y-73360000D01*
X99586000Y-73360000D02*
X99586000Y-73960000D01*
X96136000Y-72660000D02*
X98936000Y-72660000D01*
X98936000Y-74660000D02*
X96136000Y-74660000D01*
X96336000Y-74860000D02*
X96036000Y-75160000D01*
X99586000Y-73360000D02*
G75*
G03*
X98886000Y-72660000I-700000J0D01*
G01*
X95486000Y-73960000D02*
G75*
G03*
X96186000Y-74660000I699999J-1D01*
G01*
X96186000Y-72660000D02*
G75*
G03*
X95486000Y-73360000I-1J-699999D01*
G01*
X98886000Y-74660000D02*
G75*
G03*
X99586000Y-73960000I0J700000D01*
G01*
X83968000Y-103778164D02*
X83968000Y-103993836D01*
X84688000Y-103778164D02*
X84688000Y-103993836D01*
X59589641Y-86740000D02*
X59282359Y-86740000D01*
X59589641Y-85980000D02*
X59282359Y-85980000D01*
X107726000Y-110500000D02*
X107926000Y-110500000D01*
X104926000Y-111300000D02*
X104926000Y-110700000D01*
X104926000Y-113500000D02*
X104926000Y-112700000D01*
X104926000Y-111300000D02*
X104426000Y-111300000D01*
X104926000Y-112700000D02*
X104426000Y-112700000D01*
X105126000Y-113500000D02*
X104926000Y-113500000D01*
X107926000Y-110500000D02*
X107926000Y-111300000D01*
X107926000Y-112700000D02*
X107926000Y-113500000D01*
X107926000Y-113500000D02*
X107726000Y-113500000D01*
X104926000Y-110700000D02*
X105126000Y-110500000D01*
X82698000Y-113645836D02*
X82698000Y-113430164D01*
X83418000Y-113645836D02*
X83418000Y-113430164D01*
X102935000Y-121761164D02*
X102935000Y-121976836D01*
X102215000Y-121761164D02*
X102215000Y-121976836D01*
X92651000Y-90431252D02*
X92651000Y-89908748D01*
X94121000Y-90431252D02*
X94121000Y-89908748D01*
M02*
