G04 #@! TF.GenerationSoftware,KiCad,Pcbnew,(6.0.7)*
G04 #@! TF.CreationDate,2022-12-02T15:18:26+11:00*
G04 #@! TF.ProjectId,nRF_dev,6e52465f-6465-4762-9e6b-696361645f70,0.0.2*
G04 #@! TF.SameCoordinates,Original*
G04 #@! TF.FileFunction,Paste,Top*
G04 #@! TF.FilePolarity,Positive*
%FSLAX46Y46*%
G04 Gerber Fmt 4.6, Leading zero omitted, Abs format (unit mm)*
G04 Created by KiCad (PCBNEW (6.0.7)) date 2022-12-02 15:18:26*
%MOMM*%
%LPD*%
G01*
G04 APERTURE LIST*
G04 Aperture macros list*
%AMRoundRect*
0 Rectangle with rounded corners*
0 $1 Rounding radius*
0 $2 $3 $4 $5 $6 $7 $8 $9 X,Y pos of 4 corners*
0 Add a 4 corners polygon primitive as box body*
4,1,4,$2,$3,$4,$5,$6,$7,$8,$9,$2,$3,0*
0 Add four circle primitives for the rounded corners*
1,1,$1+$1,$2,$3*
1,1,$1+$1,$4,$5*
1,1,$1+$1,$6,$7*
1,1,$1+$1,$8,$9*
0 Add four rect primitives between the rounded corners*
20,1,$1+$1,$2,$3,$4,$5,0*
20,1,$1+$1,$4,$5,$6,$7,0*
20,1,$1+$1,$6,$7,$8,$9,0*
20,1,$1+$1,$8,$9,$2,$3,0*%
G04 Aperture macros list end*
%ADD10C,0.010000*%
%ADD11RoundRect,0.150000X-0.150000X0.512500X-0.150000X-0.512500X0.150000X-0.512500X0.150000X0.512500X0*%
%ADD12RoundRect,0.237500X0.287500X0.237500X-0.287500X0.237500X-0.287500X-0.237500X0.287500X-0.237500X0*%
%ADD13RoundRect,0.135000X-0.135000X-0.185000X0.135000X-0.185000X0.135000X0.185000X-0.135000X0.185000X0*%
%ADD14RoundRect,0.135000X0.185000X-0.135000X0.185000X0.135000X-0.185000X0.135000X-0.185000X-0.135000X0*%
%ADD15R,0.250000X0.250000*%
%ADD16RoundRect,0.150000X-0.587500X-0.150000X0.587500X-0.150000X0.587500X0.150000X-0.587500X0.150000X0*%
%ADD17R,1.300000X1.550000*%
%ADD18RoundRect,0.150000X-0.825000X-0.150000X0.825000X-0.150000X0.825000X0.150000X-0.825000X0.150000X0*%
%ADD19RoundRect,0.140000X0.140000X0.170000X-0.140000X0.170000X-0.140000X-0.170000X0.140000X-0.170000X0*%
%ADD20R,1.550000X1.300000*%
%ADD21R,0.300000X0.300000*%
%ADD22R,0.800000X0.800000*%
%ADD23RoundRect,0.140000X-0.170000X0.140000X-0.170000X-0.140000X0.170000X-0.140000X0.170000X0.140000X0*%
%ADD24RoundRect,0.218750X-0.256250X0.218750X-0.256250X-0.218750X0.256250X-0.218750X0.256250X0.218750X0*%
%ADD25RoundRect,0.135000X-0.185000X0.135000X-0.185000X-0.135000X0.185000X-0.135000X0.185000X0.135000X0*%
%ADD26RoundRect,0.140000X-0.140000X-0.170000X0.140000X-0.170000X0.140000X0.170000X-0.140000X0.170000X0*%
%ADD27RoundRect,0.250000X1.250000X0.550000X-1.250000X0.550000X-1.250000X-0.550000X1.250000X-0.550000X0*%
%ADD28R,0.400000X1.350000*%
%ADD29R,1.500000X1.900000*%
%ADD30R,0.400000X0.650000*%
%ADD31R,0.850000X1.100000*%
%ADD32R,0.750000X1.100000*%
%ADD33R,1.900000X1.350000*%
%ADD34R,1.170000X1.800000*%
%ADD35R,1.550000X1.350000*%
%ADD36R,1.200000X1.000000*%
%ADD37RoundRect,0.140000X0.170000X-0.140000X0.170000X0.140000X-0.170000X0.140000X-0.170000X-0.140000X0*%
%ADD38R,1.000000X1.000000*%
%ADD39R,2.200000X1.050000*%
%ADD40RoundRect,0.250000X-0.250000X-0.475000X0.250000X-0.475000X0.250000X0.475000X-0.250000X0.475000X0*%
%ADD41RoundRect,0.135000X0.135000X0.185000X-0.135000X0.185000X-0.135000X-0.185000X0.135000X-0.185000X0*%
%ADD42RoundRect,0.250000X0.475000X-0.250000X0.475000X0.250000X-0.475000X0.250000X-0.475000X-0.250000X0*%
G04 APERTURE END LIST*
G36*
X82497000Y-159349000D02*
G01*
X81947000Y-159349000D01*
X81947000Y-159119000D01*
X82497000Y-159119000D01*
X82497000Y-159349000D01*
G37*
D10*
X82497000Y-159349000D02*
X81947000Y-159349000D01*
X81947000Y-159119000D01*
X82497000Y-159119000D01*
X82497000Y-159349000D01*
G36*
X82497000Y-158149000D02*
G01*
X81947000Y-158149000D01*
X81947000Y-157919000D01*
X82497000Y-157919000D01*
X82497000Y-158149000D01*
G37*
X82497000Y-158149000D02*
X81947000Y-158149000D01*
X81947000Y-157919000D01*
X82497000Y-157919000D01*
X82497000Y-158149000D01*
G36*
X82497000Y-154549000D02*
G01*
X81947000Y-154549000D01*
X81947000Y-154319000D01*
X82497000Y-154319000D01*
X82497000Y-154549000D01*
G37*
X82497000Y-154549000D02*
X81947000Y-154549000D01*
X81947000Y-154319000D01*
X82497000Y-154319000D01*
X82497000Y-154549000D01*
G36*
X82497000Y-158749000D02*
G01*
X81947000Y-158749000D01*
X81947000Y-158519000D01*
X82497000Y-158519000D01*
X82497000Y-158749000D01*
G37*
X82497000Y-158749000D02*
X81947000Y-158749000D01*
X81947000Y-158519000D01*
X82497000Y-158519000D01*
X82497000Y-158749000D01*
G36*
X79547000Y-154849000D02*
G01*
X78897000Y-154849000D01*
X78897000Y-154619000D01*
X79547000Y-154619000D01*
X79547000Y-154849000D01*
G37*
X79547000Y-154849000D02*
X78897000Y-154849000D01*
X78897000Y-154619000D01*
X79547000Y-154619000D01*
X79547000Y-154849000D01*
G36*
X79547000Y-156649000D02*
G01*
X78897000Y-156649000D01*
X78897000Y-156419000D01*
X79547000Y-156419000D01*
X79547000Y-156649000D01*
G37*
X79547000Y-156649000D02*
X78897000Y-156649000D01*
X78897000Y-156419000D01*
X79547000Y-156419000D01*
X79547000Y-156649000D01*
G36*
X79797000Y-153534000D02*
G01*
X79097000Y-153534000D01*
X79097000Y-153234000D01*
X79797000Y-153234000D01*
X79797000Y-153534000D01*
G37*
X79797000Y-153534000D02*
X79097000Y-153534000D01*
X79097000Y-153234000D01*
X79797000Y-153234000D01*
X79797000Y-153534000D01*
G36*
X79547000Y-160249000D02*
G01*
X78897000Y-160249000D01*
X78897000Y-160019000D01*
X79547000Y-160019000D01*
X79547000Y-160249000D01*
G37*
X79547000Y-160249000D02*
X78897000Y-160249000D01*
X78897000Y-160019000D01*
X79547000Y-160019000D01*
X79547000Y-160249000D01*
G36*
X79797000Y-162234000D02*
G01*
X79097000Y-162234000D01*
X79097000Y-161934000D01*
X79797000Y-161934000D01*
X79797000Y-162234000D01*
G37*
X79797000Y-162234000D02*
X79097000Y-162234000D01*
X79097000Y-161934000D01*
X79797000Y-161934000D01*
X79797000Y-162234000D01*
G36*
X79547000Y-159049000D02*
G01*
X78897000Y-159049000D01*
X78897000Y-158819000D01*
X79547000Y-158819000D01*
X79547000Y-159049000D01*
G37*
X79547000Y-159049000D02*
X78897000Y-159049000D01*
X78897000Y-158819000D01*
X79547000Y-158819000D01*
X79547000Y-159049000D01*
G36*
X79547000Y-156049000D02*
G01*
X78897000Y-156049000D01*
X78897000Y-155819000D01*
X79547000Y-155819000D01*
X79547000Y-156049000D01*
G37*
X79547000Y-156049000D02*
X78897000Y-156049000D01*
X78897000Y-155819000D01*
X79547000Y-155819000D01*
X79547000Y-156049000D01*
G36*
X79547000Y-159649000D02*
G01*
X78897000Y-159649000D01*
X78897000Y-159419000D01*
X79547000Y-159419000D01*
X79547000Y-159649000D01*
G37*
X79547000Y-159649000D02*
X78897000Y-159649000D01*
X78897000Y-159419000D01*
X79547000Y-159419000D01*
X79547000Y-159649000D01*
G36*
X82497000Y-157549000D02*
G01*
X81947000Y-157549000D01*
X81947000Y-157319000D01*
X82497000Y-157319000D01*
X82497000Y-157549000D01*
G37*
X82497000Y-157549000D02*
X81947000Y-157549000D01*
X81947000Y-157319000D01*
X82497000Y-157319000D01*
X82497000Y-157549000D01*
G36*
X82497000Y-156949000D02*
G01*
X81947000Y-156949000D01*
X81947000Y-156719000D01*
X82497000Y-156719000D01*
X82497000Y-156949000D01*
G37*
X82497000Y-156949000D02*
X81947000Y-156949000D01*
X81947000Y-156719000D01*
X82497000Y-156719000D01*
X82497000Y-156949000D01*
G36*
X82497000Y-156349000D02*
G01*
X81947000Y-156349000D01*
X81947000Y-156119000D01*
X82497000Y-156119000D01*
X82497000Y-156349000D01*
G37*
X82497000Y-156349000D02*
X81947000Y-156349000D01*
X81947000Y-156119000D01*
X82497000Y-156119000D01*
X82497000Y-156349000D01*
G36*
X79547000Y-154249000D02*
G01*
X78897000Y-154249000D01*
X78897000Y-154019000D01*
X79547000Y-154019000D01*
X79547000Y-154249000D01*
G37*
X79547000Y-154249000D02*
X78897000Y-154249000D01*
X78897000Y-154019000D01*
X79547000Y-154019000D01*
X79547000Y-154249000D01*
G36*
X79547000Y-155449000D02*
G01*
X78897000Y-155449000D01*
X78897000Y-155219000D01*
X79547000Y-155219000D01*
X79547000Y-155449000D01*
G37*
X79547000Y-155449000D02*
X78897000Y-155449000D01*
X78897000Y-155219000D01*
X79547000Y-155219000D01*
X79547000Y-155449000D01*
G36*
X82497000Y-155749000D02*
G01*
X81947000Y-155749000D01*
X81947000Y-155519000D01*
X82497000Y-155519000D01*
X82497000Y-155749000D01*
G37*
X82497000Y-155749000D02*
X81947000Y-155749000D01*
X81947000Y-155519000D01*
X82497000Y-155519000D01*
X82497000Y-155749000D01*
G36*
X79547000Y-157849000D02*
G01*
X78897000Y-157849000D01*
X78897000Y-157619000D01*
X79547000Y-157619000D01*
X79547000Y-157849000D01*
G37*
X79547000Y-157849000D02*
X78897000Y-157849000D01*
X78897000Y-157619000D01*
X79547000Y-157619000D01*
X79547000Y-157849000D01*
G36*
X79547000Y-158449000D02*
G01*
X78897000Y-158449000D01*
X78897000Y-158219000D01*
X79547000Y-158219000D01*
X79547000Y-158449000D01*
G37*
X79547000Y-158449000D02*
X78897000Y-158449000D01*
X78897000Y-158219000D01*
X79547000Y-158219000D01*
X79547000Y-158449000D01*
G36*
X82497000Y-155149000D02*
G01*
X81947000Y-155149000D01*
X81947000Y-154919000D01*
X82497000Y-154919000D01*
X82497000Y-155149000D01*
G37*
X82497000Y-155149000D02*
X81947000Y-155149000D01*
X81947000Y-154919000D01*
X82497000Y-154919000D01*
X82497000Y-155149000D01*
G36*
X79547000Y-157249000D02*
G01*
X78897000Y-157249000D01*
X78897000Y-157019000D01*
X79547000Y-157019000D01*
X79547000Y-157249000D01*
G37*
X79547000Y-157249000D02*
X78897000Y-157249000D01*
X78897000Y-157019000D01*
X79547000Y-157019000D01*
X79547000Y-157249000D01*
G36*
X82497000Y-159949000D02*
G01*
X81947000Y-159949000D01*
X81947000Y-159719000D01*
X82497000Y-159719000D01*
X82497000Y-159949000D01*
G37*
X82497000Y-159949000D02*
X81947000Y-159949000D01*
X81947000Y-159719000D01*
X82497000Y-159719000D01*
X82497000Y-159949000D01*
G36*
X79547000Y-160849000D02*
G01*
X78897000Y-160849000D01*
X78897000Y-160619000D01*
X79547000Y-160619000D01*
X79547000Y-160849000D01*
G37*
X79547000Y-160849000D02*
X78897000Y-160849000D01*
X78897000Y-160619000D01*
X79547000Y-160619000D01*
X79547000Y-160849000D01*
G36*
X79547000Y-161449000D02*
G01*
X78897000Y-161449000D01*
X78897000Y-161219000D01*
X79547000Y-161219000D01*
X79547000Y-161449000D01*
G37*
X79547000Y-161449000D02*
X78897000Y-161449000D01*
X78897000Y-161219000D01*
X79547000Y-161219000D01*
X79547000Y-161449000D01*
G36*
X82497000Y-160549000D02*
G01*
X81947000Y-160549000D01*
X81947000Y-160319000D01*
X82497000Y-160319000D01*
X82497000Y-160549000D01*
G37*
X82497000Y-160549000D02*
X81947000Y-160549000D01*
X81947000Y-160319000D01*
X82497000Y-160319000D01*
X82497000Y-160549000D01*
G36*
X82497000Y-161149000D02*
G01*
X81947000Y-161149000D01*
X81947000Y-160919000D01*
X82497000Y-160919000D01*
X82497000Y-161149000D01*
G37*
X82497000Y-161149000D02*
X81947000Y-161149000D01*
X81947000Y-160919000D01*
X82497000Y-160919000D01*
X82497000Y-161149000D01*
D11*
X83800000Y-134012500D03*
X82850000Y-134012500D03*
X81900000Y-134012500D03*
X81900000Y-136287500D03*
X82850000Y-136287500D03*
X83800000Y-136287500D03*
D12*
X56725000Y-116850000D03*
X54975000Y-116850000D03*
D13*
X52360000Y-117600000D03*
X51340000Y-117600000D03*
X52360000Y-116100000D03*
X51340000Y-116100000D03*
D14*
X73660000Y-130050000D03*
X73660000Y-129030000D03*
D15*
X105010000Y-108200000D03*
X105010000Y-108600000D03*
X105010000Y-109000000D03*
X105410000Y-109000000D03*
X105410000Y-108600000D03*
X105410000Y-108200000D03*
D16*
X97528500Y-89220000D03*
X97528500Y-91120000D03*
X99403500Y-90170000D03*
D17*
X114010000Y-90005000D03*
X114010000Y-97955000D03*
X109510000Y-97955000D03*
X109510000Y-90005000D03*
D18*
X76325000Y-86695000D03*
X76325000Y-87965000D03*
X76325000Y-89235000D03*
X76325000Y-90505000D03*
X81275000Y-90505000D03*
X81275000Y-89235000D03*
X81275000Y-87965000D03*
X81275000Y-86695000D03*
D19*
X105128000Y-106757000D03*
X104168000Y-106757000D03*
D20*
X80175000Y-73950000D03*
X72225000Y-73950000D03*
X80175000Y-78450000D03*
X72225000Y-78450000D03*
D21*
X85976000Y-106506000D03*
X85976000Y-107006000D03*
X85976000Y-107506000D03*
X85976000Y-108006000D03*
X85976000Y-108506000D03*
X85976000Y-109006000D03*
X85976000Y-109506000D03*
X85976000Y-110006000D03*
X85976000Y-110506000D03*
X85976000Y-111006000D03*
X85976000Y-111506000D03*
X85976000Y-112006000D03*
X85976000Y-112506000D03*
X85976000Y-113006000D03*
X85976000Y-113506000D03*
X85976000Y-114006000D03*
X85976000Y-114506000D03*
X85976000Y-115006000D03*
X85976000Y-115506000D03*
X85976000Y-116006000D03*
X85976000Y-116506000D03*
X86476000Y-116506000D03*
X86976000Y-116506000D03*
X87476000Y-116506000D03*
X87976000Y-116506000D03*
X88476000Y-116506000D03*
X88976000Y-116506000D03*
X89476000Y-116506000D03*
X89976000Y-116506000D03*
X90476000Y-116506000D03*
X90976000Y-116506000D03*
X91476000Y-116506000D03*
X91976000Y-116506000D03*
X92476000Y-116506000D03*
X92976000Y-116506000D03*
X93476000Y-116506000D03*
X93976000Y-116506000D03*
X94476000Y-116506000D03*
X94976000Y-116506000D03*
X95476000Y-116506000D03*
X95976000Y-116506000D03*
X96476000Y-116506000D03*
X96976000Y-116506000D03*
X97476000Y-116506000D03*
X97976000Y-116506000D03*
X98476000Y-116506000D03*
X98976000Y-116506000D03*
X99476000Y-116506000D03*
X99976000Y-116506000D03*
X100476000Y-116506000D03*
X100976000Y-116506000D03*
X101476000Y-116506000D03*
X101476000Y-116006000D03*
X101476000Y-115506000D03*
X101476000Y-115006000D03*
X101476000Y-114506000D03*
X101476000Y-114006000D03*
X101476000Y-113506000D03*
X101476000Y-113006000D03*
X101476000Y-112506000D03*
X101476000Y-112006000D03*
X101476000Y-111506000D03*
X101476000Y-111006000D03*
X101476000Y-110506000D03*
X101476000Y-110006000D03*
X101476000Y-109506000D03*
X101476000Y-109006000D03*
X101476000Y-108506000D03*
X101476000Y-108006000D03*
X101476000Y-107506000D03*
X101476000Y-107006000D03*
X101476000Y-106506000D03*
X100976000Y-106506000D03*
X100476000Y-106506000D03*
X99976000Y-106506000D03*
X99476000Y-106506000D03*
X98976000Y-106506000D03*
X98476000Y-106506000D03*
X97976000Y-106506000D03*
X97476000Y-106506000D03*
X96976000Y-106506000D03*
X96476000Y-106506000D03*
X95976000Y-106506000D03*
X95476000Y-106506000D03*
X94976000Y-106506000D03*
X94476000Y-106506000D03*
X93976000Y-106506000D03*
X93476000Y-106506000D03*
X92976000Y-106506000D03*
X92476000Y-106506000D03*
X91976000Y-106506000D03*
X91476000Y-106506000D03*
X90976000Y-106506000D03*
X90476000Y-106506000D03*
X89976000Y-106506000D03*
X89476000Y-106506000D03*
X88976000Y-106506000D03*
X88476000Y-106506000D03*
X87976000Y-106506000D03*
X87476000Y-106506000D03*
X86976000Y-106506000D03*
X86476000Y-106506000D03*
D22*
X89726000Y-109906000D03*
X93726000Y-113106000D03*
X89726000Y-111506000D03*
X99726000Y-113106000D03*
X99726000Y-108306000D03*
X93726000Y-109906000D03*
X97726000Y-113106000D03*
X91726000Y-113106000D03*
X87726000Y-111506000D03*
X93726000Y-108306000D03*
X95726000Y-113106000D03*
X95726000Y-109906000D03*
X95726000Y-108306000D03*
X89726000Y-113106000D03*
X87726000Y-114706000D03*
X97726000Y-108306000D03*
X89726000Y-108306000D03*
X91726000Y-114706000D03*
X87726000Y-109906000D03*
X97726000Y-109906000D03*
X99726000Y-114706000D03*
X99726000Y-109906000D03*
X87726000Y-113106000D03*
X91726000Y-108306000D03*
X93726000Y-111506000D03*
X93726000Y-114706000D03*
X95726000Y-111506000D03*
X99726000Y-111506000D03*
X97726000Y-111506000D03*
X95726000Y-114706000D03*
X91726000Y-109906000D03*
X89726000Y-114706000D03*
X91726000Y-111506000D03*
X97726000Y-114706000D03*
X87726000Y-108306000D03*
D21*
X88976000Y-115856000D03*
X89476000Y-115856000D03*
X89976000Y-115856000D03*
X90476000Y-115856000D03*
X93976000Y-115856000D03*
X94476000Y-115856000D03*
X94976000Y-115856000D03*
X95476000Y-115856000D03*
X97976000Y-115856000D03*
X98476000Y-115856000D03*
X98976000Y-115856000D03*
X99476000Y-115856000D03*
X99476000Y-107156000D03*
X98976000Y-107156000D03*
X98476000Y-107156000D03*
X97976000Y-107156000D03*
X95476000Y-107156000D03*
X94976000Y-107156000D03*
X94476000Y-107156000D03*
X93976000Y-107156000D03*
X90476000Y-107156000D03*
X89976000Y-107156000D03*
X89476000Y-107156000D03*
X88976000Y-107156000D03*
D19*
X109700000Y-107011000D03*
X108740000Y-107011000D03*
D23*
X83750000Y-156030000D03*
X83750000Y-155070000D03*
D24*
X107188000Y-106985500D03*
X107188000Y-108560500D03*
D25*
X84328000Y-149604000D03*
X84328000Y-150624000D03*
D26*
X77752000Y-164592000D03*
X78712000Y-164592000D03*
D27*
X100666000Y-82550000D03*
X96266000Y-82550000D03*
D19*
X86586000Y-118618000D03*
X85626000Y-118618000D03*
D28*
X88676000Y-74192500D03*
X88026000Y-74192500D03*
X87376000Y-74192500D03*
X86726000Y-74192500D03*
X86076000Y-74192500D03*
D29*
X86376000Y-71492500D03*
X88376000Y-71492500D03*
D30*
X99710000Y-121224000D03*
X99060000Y-121224000D03*
X98410000Y-121224000D03*
X98410000Y-123124000D03*
X99710000Y-123124000D03*
D25*
X85852000Y-149604000D03*
X85852000Y-150624000D03*
X87200000Y-103390000D03*
X87200000Y-104410000D03*
D19*
X62456000Y-86360000D03*
X61496000Y-86360000D03*
D14*
X75100000Y-131110000D03*
X75100000Y-130090000D03*
D19*
X86580000Y-119950000D03*
X85620000Y-119950000D03*
D31*
X59196000Y-73127500D03*
X60296000Y-73127500D03*
X61396000Y-73127500D03*
X62496000Y-73127500D03*
X63596000Y-73127500D03*
X64696000Y-73127500D03*
X65796000Y-73127500D03*
D32*
X66846000Y-73127500D03*
D33*
X59981000Y-84227500D03*
D34*
X68046000Y-73477500D03*
D33*
X65101000Y-84227500D03*
D35*
X56306000Y-73252500D03*
D36*
X55921000Y-82927500D03*
X55921000Y-78227500D03*
D37*
X85850000Y-104380000D03*
X85850000Y-103420000D03*
D38*
X111276000Y-107011000D03*
D39*
X112776000Y-108486000D03*
X112776000Y-105536000D03*
D38*
X114276000Y-107011000D03*
D40*
X85050000Y-145200000D03*
X86950000Y-145200000D03*
D37*
X83058000Y-111732000D03*
X83058000Y-110772000D03*
D23*
X84328000Y-103406000D03*
X84328000Y-104366000D03*
D41*
X59946000Y-86360000D03*
X58926000Y-86360000D03*
D38*
X104926000Y-112000000D03*
X107926000Y-112000000D03*
D39*
X106426000Y-110525000D03*
X106426000Y-113475000D03*
D37*
X83058000Y-114018000D03*
X83058000Y-113058000D03*
D23*
X102575000Y-121389000D03*
X102575000Y-122349000D03*
D42*
X93386000Y-91120000D03*
X93386000Y-89220000D03*
M02*
