G04 #@! TF.GenerationSoftware,KiCad,Pcbnew,(6.0.7)*
G04 #@! TF.CreationDate,2022-12-02T15:18:26+11:00*
G04 #@! TF.ProjectId,nRF_dev,6e52465f-6465-4762-9e6b-696361645f70,0.0.2*
G04 #@! TF.SameCoordinates,Original*
G04 #@! TF.FileFunction,Soldermask,Bot*
G04 #@! TF.FilePolarity,Negative*
%FSLAX46Y46*%
G04 Gerber Fmt 4.6, Leading zero omitted, Abs format (unit mm)*
G04 Created by KiCad (PCBNEW (6.0.7)) date 2022-12-02 15:18:26*
%MOMM*%
%LPD*%
G01*
G04 APERTURE LIST*
G04 Aperture macros list*
%AMRoundRect*
0 Rectangle with rounded corners*
0 $1 Rounding radius*
0 $2 $3 $4 $5 $6 $7 $8 $9 X,Y pos of 4 corners*
0 Add a 4 corners polygon primitive as box body*
4,1,4,$2,$3,$4,$5,$6,$7,$8,$9,$2,$3,0*
0 Add four circle primitives for the rounded corners*
1,1,$1+$1,$2,$3*
1,1,$1+$1,$4,$5*
1,1,$1+$1,$6,$7*
1,1,$1+$1,$8,$9*
0 Add four rect primitives between the rounded corners*
20,1,$1+$1,$2,$3,$4,$5,0*
20,1,$1+$1,$4,$5,$6,$7,0*
20,1,$1+$1,$6,$7,$8,$9,0*
20,1,$1+$1,$8,$9,$2,$3,0*%
G04 Aperture macros list end*
%ADD10RoundRect,0.051000X-0.850000X-0.850000X0.850000X-0.850000X0.850000X0.850000X-0.850000X0.850000X0*%
%ADD11O,1.802000X1.802000*%
%ADD12RoundRect,0.051000X-1.750000X1.750000X-1.750000X-1.750000X1.750000X-1.750000X1.750000X1.750000X0*%
%ADD13RoundRect,0.801000X-1.000000X0.750000X-1.000000X-0.750000X1.000000X-0.750000X1.000000X0.750000X0*%
%ADD14RoundRect,0.926000X-0.875000X0.875000X-0.875000X-0.875000X0.875000X-0.875000X0.875000X0.875000X0*%
%ADD15C,2.802000*%
%ADD16C,1.552000*%
%ADD17O,1.302000X2.002000*%
%ADD18RoundRect,0.051000X0.850000X0.850000X-0.850000X0.850000X-0.850000X-0.850000X0.850000X-0.850000X0*%
%ADD19RoundRect,0.051000X0.500000X0.500000X-0.500000X0.500000X-0.500000X-0.500000X0.500000X-0.500000X0*%
%ADD20O,1.102000X1.102000*%
G04 APERTURE END LIST*
D10*
X43180000Y-73660000D03*
D11*
X43180000Y-76200000D03*
X43180000Y-78740000D03*
X43180000Y-81280000D03*
D12*
X111193500Y-83810000D03*
D13*
X111193500Y-77810000D03*
D14*
X106493500Y-80810000D03*
D15*
X103000000Y-96000000D03*
D16*
X89876000Y-74192500D03*
D17*
X83876000Y-71492500D03*
D16*
X84876000Y-74192500D03*
D17*
X90876000Y-71492500D03*
D18*
X43180000Y-134620000D03*
D11*
X43180000Y-132080000D03*
X43180000Y-129540000D03*
X43180000Y-127000000D03*
X43180000Y-124460000D03*
X43180000Y-121920000D03*
X43180000Y-119380000D03*
X43180000Y-116840000D03*
D18*
X43180000Y-109220000D03*
D11*
X43180000Y-106680000D03*
X43180000Y-104140000D03*
X43180000Y-101600000D03*
X43180000Y-99060000D03*
X43180000Y-96520000D03*
X43180000Y-93980000D03*
X43180000Y-91440000D03*
D18*
X99065000Y-167635000D03*
D11*
X96525000Y-167635000D03*
X99065000Y-165095000D03*
X96525000Y-165095000D03*
X99065000Y-162555000D03*
X96525000Y-162555000D03*
X99065000Y-160015000D03*
X96525000Y-160015000D03*
X99065000Y-157475000D03*
X96525000Y-157475000D03*
X99065000Y-154935000D03*
X96525000Y-154935000D03*
X99065000Y-152395000D03*
X96525000Y-152395000D03*
X99065000Y-149855000D03*
X96525000Y-149855000D03*
X99065000Y-147315000D03*
X96525000Y-147315000D03*
X99065000Y-144775000D03*
X96525000Y-144775000D03*
D19*
X69545000Y-130345000D03*
D20*
X68275000Y-130345000D03*
X69545000Y-129075000D03*
X68275000Y-129075000D03*
X69545000Y-127805000D03*
X68275000Y-127805000D03*
D18*
X111760000Y-167635000D03*
D11*
X109220000Y-167635000D03*
X111760000Y-165095000D03*
X109220000Y-165095000D03*
X111760000Y-162555000D03*
X109220000Y-162555000D03*
X111760000Y-160015000D03*
X109220000Y-160015000D03*
X111760000Y-157475000D03*
X109220000Y-157475000D03*
X111760000Y-154935000D03*
X109220000Y-154935000D03*
X111760000Y-152395000D03*
X109220000Y-152395000D03*
X111760000Y-149855000D03*
X109220000Y-149855000D03*
X111760000Y-147315000D03*
X109220000Y-147315000D03*
X111760000Y-144775000D03*
X109220000Y-144775000D03*
D18*
X48260000Y-109220000D03*
D11*
X48260000Y-106680000D03*
X48260000Y-104140000D03*
X48260000Y-101600000D03*
X48260000Y-99060000D03*
X48260000Y-96520000D03*
X48260000Y-93980000D03*
X48260000Y-91440000D03*
X48260000Y-88900000D03*
X48260000Y-86360000D03*
X48260000Y-83820000D03*
X48260000Y-81280000D03*
X48260000Y-78740000D03*
X48260000Y-76200000D03*
X48260000Y-73660000D03*
D15*
X68000000Y-96000000D03*
X43000000Y-166000000D03*
X43000000Y-143000000D03*
M02*
