M48
INCH,TZ
T1C0.0138
T2C0.0236
T3C0.0256
T4C0.0335
T5C0.0394
T6C0.1063
%
G90
G05
T1
X20157Y-31000
X21457Y-28819
X23661Y-51339
X24449Y-33169
X24606Y-29606
X25906Y-31378
X26063Y-51417
X26299Y-29606
X26457Y-44331
X27598Y-28976
X28839Y-34980
X28976Y-60000
X29232Y-34921
X29331Y-60000
X29528Y-36181
X29606Y-66378
X29685Y-60000
X30020Y-64055
X30039Y-60000
X30236Y-64331
X30394Y-51433
X30684Y-63261
X31024Y-64134
X31181Y-35394
X31220Y-34843
X31225Y-51019
X31339Y-59921
X31811Y-40728
X32283Y-50709
X32539Y-41112
X32677Y-50551
X32756Y-63937
X32795Y-41339
X32816Y-47126
X32874Y-47795
X32953Y-34646
X32992Y-62126
X33027Y-51816
X33071Y-63268
X33110Y-42244
X33397Y-51879
X33504Y-41417
X33780Y-65787
X33799Y-46319
X33878Y-48317
X33997Y-47726
X34055Y-62992
X34213Y-63898
X34370Y-37205
X34429Y-47840
X34429Y-48179
X34705Y-40198
X34882Y-57165
X35137Y-47441
X35315Y-48110
X35339Y-40142
X35669Y-40118
X35866Y-34764
X36063Y-41575
X36113Y-43900
X36220Y-39921
X36260Y-40236
X36298Y-49016
X36496Y-45472
X36654Y-36535
X36899Y-39387
X37008Y-47402
X37205Y-46850
X37402Y-36545
X37559Y-40640
X37589Y-40226
X37589Y-40984
X37618Y-47402
X37913Y-47402
X38081Y-39665
X38189Y-41575
X38193Y-48421
X38465Y-47480
X38976Y-47244
X39055Y-49705
X39567Y-42244
X40236Y-46142
X40276Y-41575
X40315Y-42598
X40315Y-43228
X40315Y-43780
X40315Y-44409
X40748Y-49134
X40787Y-42598
X40787Y-43228
X40787Y-43780
X40787Y-44409
X41181Y-43504
X41181Y-44685
X41417Y-41535
X41811Y-42087
X42638Y-43504
X42638Y-44685
X43465Y-41654
X43465Y-42638
X44272Y-39744
X45118Y-41535
X45118Y-42756
X45163Y-50518
T3
X26880Y-50317
X26880Y-50817
X26880Y-51317
X27380Y-50317
X27380Y-50817
X27380Y-51317
T4
X33416Y-29210
X35384Y-29210
T5
X17000Y-29000
X17000Y-30000
X17000Y-31000
X17000Y-32000
X17000Y-36000
X17000Y-37000
X17000Y-38000
X17000Y-39000
X17000Y-40000
X17000Y-41000
X17000Y-42000
X17000Y-43000
X17000Y-46000
X17000Y-47000
X17000Y-48000
X17000Y-49000
X17000Y-50000
X17000Y-51000
X17000Y-52000
X17000Y-53000
X19000Y-29000
X19000Y-30000
X19000Y-31000
X19000Y-32000
X19000Y-33000
X19000Y-34000
X19000Y-35000
X19000Y-36000
X19000Y-37000
X19000Y-38000
X19000Y-39000
X19000Y-40000
X19000Y-41000
X19000Y-42000
X19000Y-43000
X38002Y-56998
X38002Y-57998
X38002Y-58998
X38002Y-59998
X38002Y-60998
X38002Y-61998
X38002Y-62998
X38002Y-63998
X38002Y-64998
X38002Y-65998
X39002Y-56998
X39002Y-57998
X39002Y-58998
X39002Y-59998
X39002Y-60998
X39002Y-61998
X39002Y-62998
X39002Y-63998
X39002Y-64998
X39002Y-65998
X43000Y-56998
X43000Y-57998
X43000Y-58998
X43000Y-59998
X43000Y-60998
X43000Y-61998
X43000Y-62998
X43000Y-63998
X43000Y-64998
X43000Y-65998
X44000Y-56998
X44000Y-57998
X44000Y-58998
X44000Y-59998
X44000Y-60998
X44000Y-61998
X44000Y-62998
X44000Y-63998
X44000Y-64998
X44000Y-65998
T6
X16929Y-56299
X16929Y-65354
X26772Y-37795
X40551Y-37795
T2
G00X33022Y-28284
M15
G01X33022Y-28009
M16
G05
G00X35778Y-28009
M15
G01X35778Y-28284
M16
G05
T5
G00X41927Y-31421
M15
G01X41927Y-32209
M16
G05
G00X44171Y-30634
M15
G01X43383Y-30634
M16
G05
G00X44171Y-32996
M15
G01X43383Y-32996
M16
G05
T0
M30
