M48
; DRILL file {KiCad (6.0.7)} date Fri Dec  2 15:18:27 2022
; FORMAT={-:-/ absolute / inch / decimal}
; #@! TF.CreationDate,2022-12-02T15:18:27+11:00
; #@! TF.GenerationSoftware,Kicad,Pcbnew,(6.0.7)
; #@! TF.FileFunction,Plated,1,2,PTH
FMAT,2
INCH
; #@! TA.AperFunction,Plated,PTH,ViaDrill
T1C0.0138
; #@! TA.AperFunction,Plated,PTH,ComponentDrill
T2C0.0236
; #@! TA.AperFunction,Plated,PTH,ComponentDrill
T3C0.0256
; #@! TA.AperFunction,Plated,PTH,ComponentDrill
T4C0.0335
; #@! TA.AperFunction,Plated,PTH,ComponentDrill
T5C0.0394
%
G90
G05
T1
X2.0157Y-3.1
X2.1457Y-2.8819
X2.3169Y-4.6004
X2.4449Y-3.3169
X2.4606Y-2.9606
X2.5315Y-5.1417
X2.5906Y-3.1378
X2.6299Y-2.9606
X2.6457Y-4.4331
X2.7598Y-2.8976
X2.874Y-6.6358
X2.8839Y-3.498
X2.9232Y-3.4921
X2.9528Y-3.6181
X3.0394Y-5.1433
X3.066Y-6.3043
X3.0669Y-6.1634
X3.0669Y-6.2579
X3.0846Y-6.0669
X3.0846Y-6.187
X3.0846Y-6.2343
X3.0846Y-6.2815
X3.0846Y-6.3287
X3.1181Y-3.5394
X3.122Y-3.4843
X3.1225Y-5.1019
X3.1594Y-5.9902
X3.1811Y-4.0728
X3.2244Y-5.4331
X3.2283Y-5.0709
X3.2539Y-4.1112
X3.2677Y-5.0551
X3.2795Y-4.1339
X3.2816Y-4.7126
X3.2874Y-4.7795
X3.2953Y-3.4646
X3.3027Y-5.1816
X3.3031Y-6.376
X3.311Y-4.2244
X3.3397Y-5.1879
X3.3504Y-4.1417
X3.3602Y-6.126
X3.3602Y-6.1732
X3.378Y-6.5787
X3.3799Y-4.6319
X3.3878Y-4.8317
X3.3997Y-4.7726
X3.437Y-3.7205
X3.4429Y-4.784
X3.4429Y-4.8179
X3.4705Y-4.0198
X3.4882Y-5.7165
X3.5177Y-4.75
X3.5275Y-4.8179
X3.5339Y-4.0142
X3.5552Y-6.2067
X3.5669Y-4.0118
X3.5689Y-4.0413
X3.5728Y-4.0748
X3.5866Y-3.4764
X3.5984Y-6.185
X3.6063Y-4.1575
X3.6113Y-4.39
X3.626Y-4.878
X3.6417Y-6.1634
X3.6496Y-4.5472
X3.6654Y-3.6535
X3.6899Y-3.9387
X3.7008Y-4.7402
X3.7106Y-6.1988
X3.7205Y-4.685
X3.7402Y-3.6545
X3.7559Y-4.064
X3.7589Y-4.0226
X3.7589Y-4.0984
X3.7618Y-4.7402
X3.7913Y-4.7402
X3.8081Y-3.9665
X3.8189Y-4.1575
X3.8193Y-4.8421
X3.8465Y-4.748
X3.8976Y-4.7244
X3.9055Y-4.9705
X3.9567Y-4.2244
X4.0236Y-4.6142
X4.0276Y-4.1575
X4.0315Y-4.2598
X4.0315Y-4.3228
X4.0315Y-4.378
X4.0315Y-4.4409
X4.0748Y-4.9134
X4.0787Y-4.2598
X4.0787Y-4.3228
X4.0787Y-4.378
X4.0787Y-4.4409
X4.1181Y-4.3504
X4.1181Y-4.4685
X4.1417Y-4.1535
X4.1811Y-4.2087
X4.2638Y-4.3504
X4.2638Y-4.4685
X4.3465Y-4.1654
X4.3465Y-4.2638
X4.4272Y-3.9744
X4.5118Y-4.1535
X4.5118Y-4.2756
X4.5163Y-5.0518
T3
X2.688Y-5.0317
X2.688Y-5.0817
X2.688Y-5.1317
X2.738Y-5.0317
X2.738Y-5.0817
X2.738Y-5.1317
T4
X3.3416Y-2.921
X3.5384Y-2.921
T5
X1.7Y-2.9
X1.7Y-3.0
X1.7Y-3.1
X1.7Y-3.2
X1.7Y-3.6
X1.7Y-3.7
X1.7Y-3.8
X1.7Y-3.9
X1.7Y-4.0
X1.7Y-4.1
X1.7Y-4.2
X1.7Y-4.3
X1.7Y-4.6
X1.7Y-4.7
X1.7Y-4.8
X1.7Y-4.9
X1.7Y-5.0
X1.7Y-5.1
X1.7Y-5.2
X1.7Y-5.3
X1.9Y-2.9
X1.9Y-3.0
X1.9Y-3.1
X1.9Y-3.2
X1.9Y-3.3
X1.9Y-3.4
X1.9Y-3.5
X1.9Y-3.6
X1.9Y-3.7
X1.9Y-3.8
X1.9Y-3.9
X1.9Y-4.0
X1.9Y-4.1
X1.9Y-4.2
X1.9Y-4.3
X3.8002Y-5.6998
X3.8002Y-5.7998
X3.8002Y-5.8998
X3.8002Y-5.9998
X3.8002Y-6.0998
X3.8002Y-6.1998
X3.8002Y-6.2998
X3.8002Y-6.3998
X3.8002Y-6.4998
X3.8002Y-6.5998
X3.9002Y-5.6998
X3.9002Y-5.7998
X3.9002Y-5.8998
X3.9002Y-5.9998
X3.9002Y-6.0998
X3.9002Y-6.1998
X3.9002Y-6.2998
X3.9002Y-6.3998
X3.9002Y-6.4998
X3.9002Y-6.5998
X4.3Y-5.6998
X4.3Y-5.7998
X4.3Y-5.8998
X4.3Y-5.9998
X4.3Y-6.0998
X4.3Y-6.1998
X4.3Y-6.2998
X4.3Y-6.3998
X4.3Y-6.4998
X4.3Y-6.5998
X4.4Y-5.6998
X4.4Y-5.7998
X4.4Y-5.8998
X4.4Y-5.9998
X4.4Y-6.0998
X4.4Y-6.1998
X4.4Y-6.2998
X4.4Y-6.3998
X4.4Y-6.4998
X4.4Y-6.5998
T2
G00X3.3022Y-2.8284
M15
G01X3.3022Y-2.8009
M16
G05
G00X3.5778Y-2.8009
M15
G01X3.5778Y-2.8284
M16
G05
T5
G00X4.1927Y-3.1421
M15
G01X4.1927Y-3.2209
M16
G05
G00X4.4171Y-3.0634
M15
G01X4.3383Y-3.0634
M16
G05
G00X4.4171Y-3.2996
M15
G01X4.3383Y-3.2996
M16
G05
T0
M30
