G04 #@! TF.GenerationSoftware,KiCad,Pcbnew,7.0.6*
G04 #@! TF.CreationDate,2024-03-12T10:09:57+11:00*
G04 #@! TF.ProjectId,owts,6f777473-2e6b-4696-9361-645f70636258,1.2.0*
G04 #@! TF.SameCoordinates,Original*
G04 #@! TF.FileFunction,Soldermask,Top*
G04 #@! TF.FilePolarity,Negative*
%FSLAX46Y46*%
G04 Gerber Fmt 4.6, Leading zero omitted, Abs format (unit mm)*
G04 Created by KiCad (PCBNEW 7.0.6) date 2024-03-12 10:09:57*
%MOMM*%
%LPD*%
G01*
G04 APERTURE LIST*
G04 APERTURE END LIST*
G36*
X36414986Y-111792939D02*
G01*
X36613045Y-111869667D01*
X36793632Y-111981482D01*
X36950599Y-112124576D01*
X37078600Y-112294077D01*
X37173276Y-112484211D01*
X37231402Y-112688504D01*
X37251000Y-112900000D01*
X37231402Y-113111496D01*
X37173276Y-113315789D01*
X37078600Y-113505923D01*
X36950599Y-113675424D01*
X36793632Y-113818518D01*
X36613045Y-113930333D01*
X36414986Y-114007061D01*
X36206201Y-114046090D01*
X35993799Y-114046090D01*
X35785014Y-114007061D01*
X35586955Y-113930333D01*
X35406368Y-113818518D01*
X35249401Y-113675424D01*
X35121400Y-113505923D01*
X35026724Y-113315789D01*
X34968598Y-113111496D01*
X34949000Y-112900000D01*
X34968598Y-112688504D01*
X35026724Y-112484211D01*
X35121400Y-112294077D01*
X35249401Y-112124576D01*
X35406368Y-111981482D01*
X35586955Y-111869667D01*
X35785014Y-111792939D01*
X35993799Y-111753910D01*
X36206201Y-111753910D01*
X36414986Y-111792939D01*
G37*
G36*
X56819517Y-111502882D02*
G01*
X56836062Y-111513938D01*
X56847118Y-111530483D01*
X56851000Y-111550000D01*
X56851000Y-113850000D01*
X56847118Y-113869517D01*
X56836062Y-113886062D01*
X56819517Y-113897118D01*
X56800000Y-113901000D01*
X55800000Y-113901000D01*
X55780483Y-113897118D01*
X55763938Y-113886062D01*
X55752882Y-113869517D01*
X55749000Y-113850000D01*
X55749000Y-111550000D01*
X55752882Y-111530483D01*
X55763938Y-111513938D01*
X55780483Y-111502882D01*
X55800000Y-111499000D01*
X56800000Y-111499000D01*
X56819517Y-111502882D01*
G37*
G36*
X66619517Y-111502882D02*
G01*
X66636062Y-111513938D01*
X66647118Y-111530483D01*
X66651000Y-111550000D01*
X66651000Y-113850000D01*
X66647118Y-113869517D01*
X66636062Y-113886062D01*
X66619517Y-113897118D01*
X66600000Y-113901000D01*
X65600000Y-113901000D01*
X65580483Y-113897118D01*
X65563938Y-113886062D01*
X65552882Y-113869517D01*
X65549000Y-113850000D01*
X65549000Y-111550000D01*
X65552882Y-111530483D01*
X65563938Y-111513938D01*
X65580483Y-111502882D01*
X65600000Y-111499000D01*
X66600000Y-111499000D01*
X66619517Y-111502882D01*
G37*
G36*
X73944517Y-111977882D02*
G01*
X73961062Y-111988938D01*
X73972118Y-112005483D01*
X73976000Y-112025000D01*
X73976000Y-113725000D01*
X73972118Y-113744517D01*
X73961062Y-113761062D01*
X73944517Y-113772118D01*
X73925000Y-113776000D01*
X72225000Y-113776000D01*
X72205483Y-113772118D01*
X72188938Y-113761062D01*
X72177882Y-113744517D01*
X72174000Y-113725000D01*
X72174000Y-112025000D01*
X72177882Y-112005483D01*
X72188938Y-111988938D01*
X72205483Y-111977882D01*
X72225000Y-111974000D01*
X73925000Y-111974000D01*
X73944517Y-111977882D01*
G37*
G36*
X75662913Y-111978936D02*
G01*
X75709180Y-111978936D01*
X75749129Y-111987427D01*
X75790733Y-111991525D01*
X75842998Y-112007379D01*
X75893424Y-112018098D01*
X75925694Y-112032465D01*
X75959712Y-112042785D01*
X76013767Y-112071678D01*
X76065500Y-112094711D01*
X76089551Y-112112185D01*
X76115447Y-112126027D01*
X76168271Y-112169378D01*
X76217887Y-112205427D01*
X76233996Y-112223318D01*
X76251948Y-112238051D01*
X76300188Y-112296831D01*
X76343924Y-112345405D01*
X76353111Y-112361319D01*
X76363972Y-112374552D01*
X76404149Y-112449719D01*
X76438104Y-112508530D01*
X76442009Y-112520550D01*
X76447214Y-112530287D01*
X76475913Y-112624896D01*
X76496311Y-112687672D01*
X76497028Y-112694502D01*
X76498474Y-112699266D01*
X76512537Y-112842054D01*
X76516000Y-112875000D01*
X76512534Y-112907972D01*
X76498474Y-113050733D01*
X76497029Y-113055496D01*
X76496311Y-113062328D01*
X76475909Y-113125117D01*
X76447214Y-113219712D01*
X76442010Y-113229447D01*
X76438104Y-113241470D01*
X76404142Y-113300293D01*
X76363972Y-113375447D01*
X76353113Y-113388677D01*
X76343924Y-113404595D01*
X76300178Y-113453178D01*
X76251948Y-113511948D01*
X76234000Y-113526677D01*
X76217887Y-113544573D01*
X76168260Y-113580628D01*
X76115447Y-113623972D01*
X76089557Y-113637810D01*
X76065500Y-113655289D01*
X76013756Y-113678326D01*
X75959712Y-113707214D01*
X75925701Y-113717531D01*
X75893424Y-113731902D01*
X75842987Y-113742622D01*
X75790733Y-113758474D01*
X75749138Y-113762570D01*
X75709180Y-113771064D01*
X75662903Y-113771064D01*
X75615000Y-113775782D01*
X75567097Y-113771064D01*
X75520820Y-113771064D01*
X75480862Y-113762570D01*
X75439266Y-113758474D01*
X75387009Y-113742621D01*
X75336576Y-113731902D01*
X75304300Y-113717532D01*
X75270287Y-113707214D01*
X75216237Y-113678323D01*
X75164500Y-113655289D01*
X75140445Y-113637812D01*
X75114552Y-113623972D01*
X75061730Y-113580622D01*
X75012113Y-113544573D01*
X74996002Y-113526680D01*
X74978051Y-113511948D01*
X74929809Y-113453166D01*
X74886076Y-113404595D01*
X74876888Y-113388681D01*
X74866027Y-113375447D01*
X74825844Y-113300269D01*
X74791896Y-113241470D01*
X74787991Y-113229451D01*
X74782785Y-113219712D01*
X74754075Y-113125071D01*
X74733689Y-113062328D01*
X74732971Y-113055501D01*
X74731525Y-113050733D01*
X74717449Y-112907820D01*
X74714000Y-112875000D01*
X74717446Y-112842206D01*
X74731525Y-112699266D01*
X74732971Y-112694497D01*
X74733689Y-112687672D01*
X74754071Y-112624942D01*
X74782785Y-112530287D01*
X74787991Y-112520545D01*
X74791896Y-112508530D01*
X74825836Y-112449742D01*
X74866027Y-112374552D01*
X74876890Y-112361314D01*
X74886076Y-112345405D01*
X74929800Y-112296843D01*
X74978051Y-112238051D01*
X74996005Y-112223315D01*
X75012113Y-112205427D01*
X75061720Y-112169385D01*
X75114552Y-112126027D01*
X75140450Y-112112183D01*
X75164500Y-112094711D01*
X75216226Y-112071681D01*
X75270287Y-112042785D01*
X75304307Y-112032464D01*
X75336576Y-112018098D01*
X75386998Y-112007380D01*
X75439266Y-111991525D01*
X75480871Y-111987427D01*
X75520820Y-111978936D01*
X75567086Y-111978936D01*
X75615000Y-111974217D01*
X75662913Y-111978936D01*
G37*
G36*
X78202913Y-111978936D02*
G01*
X78249180Y-111978936D01*
X78289129Y-111987427D01*
X78330733Y-111991525D01*
X78382998Y-112007379D01*
X78433424Y-112018098D01*
X78465694Y-112032465D01*
X78499712Y-112042785D01*
X78553767Y-112071678D01*
X78605500Y-112094711D01*
X78629551Y-112112185D01*
X78655447Y-112126027D01*
X78708271Y-112169378D01*
X78757887Y-112205427D01*
X78773996Y-112223318D01*
X78791948Y-112238051D01*
X78840188Y-112296831D01*
X78883924Y-112345405D01*
X78893111Y-112361319D01*
X78903972Y-112374552D01*
X78944149Y-112449719D01*
X78978104Y-112508530D01*
X78982009Y-112520550D01*
X78987214Y-112530287D01*
X79015913Y-112624896D01*
X79036311Y-112687672D01*
X79037028Y-112694502D01*
X79038474Y-112699266D01*
X79052537Y-112842054D01*
X79056000Y-112875000D01*
X79052534Y-112907972D01*
X79038474Y-113050733D01*
X79037029Y-113055496D01*
X79036311Y-113062328D01*
X79015909Y-113125117D01*
X78987214Y-113219712D01*
X78982010Y-113229447D01*
X78978104Y-113241470D01*
X78944142Y-113300293D01*
X78903972Y-113375447D01*
X78893113Y-113388677D01*
X78883924Y-113404595D01*
X78840178Y-113453178D01*
X78791948Y-113511948D01*
X78774000Y-113526677D01*
X78757887Y-113544573D01*
X78708260Y-113580628D01*
X78655447Y-113623972D01*
X78629557Y-113637810D01*
X78605500Y-113655289D01*
X78553756Y-113678326D01*
X78499712Y-113707214D01*
X78465701Y-113717531D01*
X78433424Y-113731902D01*
X78382987Y-113742622D01*
X78330733Y-113758474D01*
X78289138Y-113762570D01*
X78249180Y-113771064D01*
X78202902Y-113771064D01*
X78154999Y-113775782D01*
X78107096Y-113771064D01*
X78060820Y-113771064D01*
X78020862Y-113762570D01*
X77979266Y-113758474D01*
X77927009Y-113742621D01*
X77876576Y-113731902D01*
X77844300Y-113717532D01*
X77810287Y-113707214D01*
X77756237Y-113678323D01*
X77704500Y-113655289D01*
X77680445Y-113637812D01*
X77654552Y-113623972D01*
X77601730Y-113580622D01*
X77552113Y-113544573D01*
X77536002Y-113526680D01*
X77518051Y-113511948D01*
X77469809Y-113453166D01*
X77426076Y-113404595D01*
X77416888Y-113388681D01*
X77406027Y-113375447D01*
X77365844Y-113300269D01*
X77331896Y-113241470D01*
X77327991Y-113229451D01*
X77322785Y-113219712D01*
X77294075Y-113125071D01*
X77273689Y-113062328D01*
X77272971Y-113055501D01*
X77271525Y-113050733D01*
X77257449Y-112907820D01*
X77254000Y-112875000D01*
X77257446Y-112842206D01*
X77271525Y-112699266D01*
X77272971Y-112694497D01*
X77273689Y-112687672D01*
X77294071Y-112624942D01*
X77322785Y-112530287D01*
X77327991Y-112520545D01*
X77331896Y-112508530D01*
X77365836Y-112449742D01*
X77406027Y-112374552D01*
X77416890Y-112361314D01*
X77426076Y-112345405D01*
X77469800Y-112296843D01*
X77518051Y-112238051D01*
X77536005Y-112223315D01*
X77552113Y-112205427D01*
X77601720Y-112169385D01*
X77654552Y-112126027D01*
X77680450Y-112112183D01*
X77704500Y-112094711D01*
X77756226Y-112071681D01*
X77810287Y-112042785D01*
X77844307Y-112032464D01*
X77876576Y-112018098D01*
X77926998Y-112007380D01*
X77979266Y-111991525D01*
X78020871Y-111987427D01*
X78060820Y-111978936D01*
X78107086Y-111978936D01*
X78154999Y-111974217D01*
X78202913Y-111978936D01*
G37*
G36*
X80742913Y-111978936D02*
G01*
X80789180Y-111978936D01*
X80829129Y-111987427D01*
X80870733Y-111991525D01*
X80922998Y-112007379D01*
X80973424Y-112018098D01*
X81005694Y-112032465D01*
X81039712Y-112042785D01*
X81093767Y-112071678D01*
X81145500Y-112094711D01*
X81169551Y-112112185D01*
X81195447Y-112126027D01*
X81248271Y-112169378D01*
X81297887Y-112205427D01*
X81313996Y-112223318D01*
X81331948Y-112238051D01*
X81380188Y-112296831D01*
X81423924Y-112345405D01*
X81433111Y-112361319D01*
X81443972Y-112374552D01*
X81484149Y-112449719D01*
X81518104Y-112508530D01*
X81522009Y-112520550D01*
X81527214Y-112530287D01*
X81555913Y-112624896D01*
X81576311Y-112687672D01*
X81577028Y-112694502D01*
X81578474Y-112699266D01*
X81592536Y-112842042D01*
X81596000Y-112875000D01*
X81592535Y-112907959D01*
X81578474Y-113050733D01*
X81577029Y-113055496D01*
X81576311Y-113062328D01*
X81555909Y-113125117D01*
X81527214Y-113219712D01*
X81522010Y-113229447D01*
X81518104Y-113241470D01*
X81484142Y-113300293D01*
X81443972Y-113375447D01*
X81433113Y-113388677D01*
X81423924Y-113404595D01*
X81380178Y-113453178D01*
X81331948Y-113511948D01*
X81314000Y-113526677D01*
X81297887Y-113544573D01*
X81248260Y-113580628D01*
X81195447Y-113623972D01*
X81169557Y-113637810D01*
X81145500Y-113655289D01*
X81093756Y-113678326D01*
X81039712Y-113707214D01*
X81005701Y-113717531D01*
X80973424Y-113731902D01*
X80922987Y-113742622D01*
X80870733Y-113758474D01*
X80829138Y-113762570D01*
X80789180Y-113771064D01*
X80742903Y-113771064D01*
X80695000Y-113775782D01*
X80647097Y-113771064D01*
X80600820Y-113771064D01*
X80560862Y-113762570D01*
X80519266Y-113758474D01*
X80467009Y-113742621D01*
X80416576Y-113731902D01*
X80384300Y-113717532D01*
X80350287Y-113707214D01*
X80296237Y-113678323D01*
X80244500Y-113655289D01*
X80220445Y-113637812D01*
X80194552Y-113623972D01*
X80141730Y-113580622D01*
X80092113Y-113544573D01*
X80076002Y-113526680D01*
X80058051Y-113511948D01*
X80009809Y-113453166D01*
X79966076Y-113404595D01*
X79956888Y-113388681D01*
X79946027Y-113375447D01*
X79905844Y-113300269D01*
X79871896Y-113241470D01*
X79867991Y-113229451D01*
X79862785Y-113219712D01*
X79834075Y-113125071D01*
X79813689Y-113062328D01*
X79812971Y-113055501D01*
X79811525Y-113050733D01*
X79797448Y-112907808D01*
X79794000Y-112875000D01*
X79797448Y-112842194D01*
X79811525Y-112699266D01*
X79812971Y-112694497D01*
X79813689Y-112687672D01*
X79834071Y-112624942D01*
X79862785Y-112530287D01*
X79867991Y-112520545D01*
X79871896Y-112508530D01*
X79905836Y-112449742D01*
X79946027Y-112374552D01*
X79956890Y-112361314D01*
X79966076Y-112345405D01*
X80009800Y-112296843D01*
X80058051Y-112238051D01*
X80076005Y-112223315D01*
X80092113Y-112205427D01*
X80141720Y-112169385D01*
X80194552Y-112126027D01*
X80220450Y-112112183D01*
X80244500Y-112094711D01*
X80296226Y-112071681D01*
X80350287Y-112042785D01*
X80384307Y-112032464D01*
X80416576Y-112018098D01*
X80466998Y-112007380D01*
X80519266Y-111991525D01*
X80560871Y-111987427D01*
X80600820Y-111978936D01*
X80647086Y-111978936D01*
X80694999Y-111974217D01*
X80742913Y-111978936D01*
G37*
G36*
X103118913Y-112056995D02*
G01*
X103123644Y-112059084D01*
X103126810Y-112059501D01*
X103166433Y-112077977D01*
X103220106Y-112101676D01*
X103298324Y-112179894D01*
X103322032Y-112233588D01*
X103340498Y-112273189D01*
X103340914Y-112276352D01*
X103343005Y-112281087D01*
X103350999Y-112350002D01*
X103351000Y-113349999D01*
X103343005Y-113418913D01*
X103340914Y-113423648D01*
X103340498Y-113426810D01*
X103322040Y-113466392D01*
X103298324Y-113520106D01*
X103220106Y-113598324D01*
X103166392Y-113622040D01*
X103126810Y-113640498D01*
X103123647Y-113640914D01*
X103118913Y-113643005D01*
X103049998Y-113650999D01*
X103047056Y-113650999D01*
X103047049Y-113651000D01*
X100152951Y-113651000D01*
X100152950Y-113650999D01*
X100150001Y-113651000D01*
X100081087Y-113643005D01*
X100076352Y-113640914D01*
X100073189Y-113640498D01*
X100033588Y-113622032D01*
X99979894Y-113598324D01*
X99901676Y-113520106D01*
X99877977Y-113466433D01*
X99859501Y-113426810D01*
X99859084Y-113423644D01*
X99856995Y-113418913D01*
X99849001Y-113349998D01*
X99849000Y-113347056D01*
X99849000Y-113347049D01*
X99849000Y-112352950D01*
X99849000Y-112352949D01*
X99849000Y-112350001D01*
X99856995Y-112281087D01*
X99859084Y-112276355D01*
X99859501Y-112273189D01*
X99877985Y-112233548D01*
X99901676Y-112179894D01*
X99979894Y-112101676D01*
X100033548Y-112077985D01*
X100073189Y-112059501D01*
X100076355Y-112059084D01*
X100081087Y-112056995D01*
X100150002Y-112049001D01*
X100152943Y-112049000D01*
X100152951Y-112049000D01*
X103047049Y-112049000D01*
X103049999Y-112049000D01*
X103118913Y-112056995D01*
G37*
G36*
X25564517Y-111652882D02*
G01*
X25581062Y-111663938D01*
X25592118Y-111680483D01*
X25596000Y-111700000D01*
X25596000Y-113300000D01*
X25592118Y-113319517D01*
X25581062Y-113336062D01*
X25564517Y-113347118D01*
X25545000Y-113351000D01*
X24295000Y-113351000D01*
X24275483Y-113347118D01*
X24258938Y-113336062D01*
X24247882Y-113319517D01*
X24244000Y-113300000D01*
X24244000Y-111700000D01*
X24247882Y-111680483D01*
X24258938Y-111663938D01*
X24275483Y-111652882D01*
X24295000Y-111649000D01*
X25545000Y-111649000D01*
X25564517Y-111652882D01*
G37*
G36*
X27324517Y-111652882D02*
G01*
X27341062Y-111663938D01*
X27352118Y-111680483D01*
X27356000Y-111700000D01*
X27356000Y-113300000D01*
X27352118Y-113319517D01*
X27341062Y-113336062D01*
X27324517Y-113347118D01*
X27305000Y-113351000D01*
X26055000Y-113351000D01*
X26035483Y-113347118D01*
X26018938Y-113336062D01*
X26007882Y-113319517D01*
X26004000Y-113300000D01*
X26004000Y-111700000D01*
X26007882Y-111680483D01*
X26018938Y-111663938D01*
X26035483Y-111652882D01*
X26055000Y-111649000D01*
X27305000Y-111649000D01*
X27324517Y-111652882D01*
G37*
G36*
X90718914Y-110156995D02*
G01*
X90723645Y-110159084D01*
X90726811Y-110159501D01*
X90766442Y-110177981D01*
X90820106Y-110201676D01*
X90898324Y-110279894D01*
X90922028Y-110333579D01*
X90940498Y-110373188D01*
X90940914Y-110376351D01*
X90943005Y-110381086D01*
X90951000Y-110450000D01*
X90951000Y-112950000D01*
X90943005Y-113018914D01*
X90940914Y-113023648D01*
X90940498Y-113026811D01*
X90922036Y-113066402D01*
X90898324Y-113120106D01*
X90820106Y-113198324D01*
X90766402Y-113222036D01*
X90726811Y-113240498D01*
X90723648Y-113240914D01*
X90718914Y-113243005D01*
X90650000Y-113251000D01*
X89550000Y-113251000D01*
X89481086Y-113243005D01*
X89476351Y-113240914D01*
X89473188Y-113240498D01*
X89433579Y-113222028D01*
X89379894Y-113198324D01*
X89301676Y-113120106D01*
X89277981Y-113066442D01*
X89259501Y-113026811D01*
X89259084Y-113023645D01*
X89256995Y-113018914D01*
X89249000Y-112950000D01*
X89249000Y-110450000D01*
X89256995Y-110381086D01*
X89259084Y-110376354D01*
X89259501Y-110373188D01*
X89277989Y-110333538D01*
X89301676Y-110279894D01*
X89379894Y-110201676D01*
X89433538Y-110177989D01*
X89473188Y-110159501D01*
X89476354Y-110159084D01*
X89481086Y-110156995D01*
X89550000Y-110149000D01*
X90650000Y-110149000D01*
X90718914Y-110156995D01*
G37*
G36*
X29378638Y-111974723D02*
G01*
X29430819Y-111980777D01*
X29448647Y-111988649D01*
X29471054Y-111993106D01*
X29495042Y-112009134D01*
X29516409Y-112018569D01*
X29531002Y-112033162D01*
X29552484Y-112047516D01*
X29566837Y-112068997D01*
X29581430Y-112083590D01*
X29590863Y-112104954D01*
X29606894Y-112128946D01*
X29611351Y-112151354D01*
X29619222Y-112169180D01*
X29625274Y-112221351D01*
X29626000Y-112225000D01*
X29626000Y-112775000D01*
X29625273Y-112778651D01*
X29619222Y-112830819D01*
X29611351Y-112848643D01*
X29606894Y-112871054D01*
X29590862Y-112895047D01*
X29581430Y-112916409D01*
X29566839Y-112930999D01*
X29552484Y-112952484D01*
X29530999Y-112966839D01*
X29516409Y-112981430D01*
X29495047Y-112990862D01*
X29471054Y-113006894D01*
X29448643Y-113011351D01*
X29430819Y-113019222D01*
X29378650Y-113025273D01*
X29375000Y-113026000D01*
X28975000Y-113026000D01*
X28971351Y-113025274D01*
X28919180Y-113019222D01*
X28901354Y-113011351D01*
X28878946Y-113006894D01*
X28854954Y-112990863D01*
X28833590Y-112981430D01*
X28818997Y-112966837D01*
X28797516Y-112952484D01*
X28783162Y-112931002D01*
X28768569Y-112916409D01*
X28759134Y-112895042D01*
X28743106Y-112871054D01*
X28738649Y-112848647D01*
X28730777Y-112830819D01*
X28724723Y-112778638D01*
X28724000Y-112775000D01*
X28724000Y-112225000D01*
X28724723Y-112221361D01*
X28730777Y-112169180D01*
X28738649Y-112151350D01*
X28743106Y-112128946D01*
X28759133Y-112104959D01*
X28768569Y-112083590D01*
X28783164Y-112068994D01*
X28797516Y-112047516D01*
X28818994Y-112033164D01*
X28833590Y-112018569D01*
X28854959Y-112009133D01*
X28878946Y-111993106D01*
X28901350Y-111988649D01*
X28919180Y-111980777D01*
X28971363Y-111974723D01*
X28975000Y-111974000D01*
X29375000Y-111974000D01*
X29378638Y-111974723D01*
G37*
G36*
X31028638Y-111974723D02*
G01*
X31080819Y-111980777D01*
X31098647Y-111988649D01*
X31121054Y-111993106D01*
X31145042Y-112009134D01*
X31166409Y-112018569D01*
X31181002Y-112033162D01*
X31202484Y-112047516D01*
X31216837Y-112068997D01*
X31231430Y-112083590D01*
X31240863Y-112104954D01*
X31256894Y-112128946D01*
X31261351Y-112151354D01*
X31269222Y-112169180D01*
X31275274Y-112221351D01*
X31276000Y-112225000D01*
X31276000Y-112775000D01*
X31275273Y-112778651D01*
X31269222Y-112830819D01*
X31261351Y-112848643D01*
X31256894Y-112871054D01*
X31240862Y-112895047D01*
X31231430Y-112916409D01*
X31216839Y-112930999D01*
X31202484Y-112952484D01*
X31180999Y-112966839D01*
X31166409Y-112981430D01*
X31145047Y-112990862D01*
X31121054Y-113006894D01*
X31098643Y-113011351D01*
X31080819Y-113019222D01*
X31028650Y-113025273D01*
X31025000Y-113026000D01*
X30625000Y-113026000D01*
X30621351Y-113025274D01*
X30569180Y-113019222D01*
X30551354Y-113011351D01*
X30528946Y-113006894D01*
X30504954Y-112990863D01*
X30483590Y-112981430D01*
X30468997Y-112966837D01*
X30447516Y-112952484D01*
X30433162Y-112931002D01*
X30418569Y-112916409D01*
X30409134Y-112895042D01*
X30393106Y-112871054D01*
X30388649Y-112848647D01*
X30380777Y-112830819D01*
X30374723Y-112778638D01*
X30374000Y-112775000D01*
X30374000Y-112225000D01*
X30374723Y-112221361D01*
X30380777Y-112169180D01*
X30388649Y-112151350D01*
X30393106Y-112128946D01*
X30409133Y-112104959D01*
X30418569Y-112083590D01*
X30433164Y-112068994D01*
X30447516Y-112047516D01*
X30468994Y-112033164D01*
X30483590Y-112018569D01*
X30504959Y-112009133D01*
X30528946Y-111993106D01*
X30551350Y-111988649D01*
X30569180Y-111980777D01*
X30621363Y-111974723D01*
X30625000Y-111974000D01*
X31025000Y-111974000D01*
X31028638Y-111974723D01*
G37*
G36*
X84726919Y-111064300D02*
G01*
X84792128Y-111107872D01*
X84835700Y-111173081D01*
X84851000Y-111250000D01*
X84851000Y-112425000D01*
X84835700Y-112501919D01*
X84792128Y-112567128D01*
X84726919Y-112610700D01*
X84650000Y-112626000D01*
X84350000Y-112626000D01*
X84273081Y-112610700D01*
X84207872Y-112567128D01*
X84164300Y-112501919D01*
X84149000Y-112425000D01*
X84149000Y-111250000D01*
X84164300Y-111173081D01*
X84207872Y-111107872D01*
X84273081Y-111064300D01*
X84350000Y-111049000D01*
X84650000Y-111049000D01*
X84726919Y-111064300D01*
G37*
G36*
X53294517Y-111757882D02*
G01*
X53311062Y-111768938D01*
X53322118Y-111785483D01*
X53326000Y-111805000D01*
X53326000Y-112205000D01*
X53322118Y-112224517D01*
X53311062Y-112241062D01*
X53294517Y-112252118D01*
X53275000Y-112256000D01*
X52625000Y-112256000D01*
X52605483Y-112252118D01*
X52588938Y-112241062D01*
X52577882Y-112224517D01*
X52574000Y-112205000D01*
X52574000Y-111805000D01*
X52577882Y-111785483D01*
X52588938Y-111768938D01*
X52605483Y-111757882D01*
X52625000Y-111754000D01*
X53275000Y-111754000D01*
X53294517Y-111757882D01*
G37*
G36*
X55194517Y-111757882D02*
G01*
X55211062Y-111768938D01*
X55222118Y-111785483D01*
X55226000Y-111805000D01*
X55226000Y-112205000D01*
X55222118Y-112224517D01*
X55211062Y-112241062D01*
X55194517Y-112252118D01*
X55175000Y-112256000D01*
X54525000Y-112256000D01*
X54505483Y-112252118D01*
X54488938Y-112241062D01*
X54477882Y-112224517D01*
X54474000Y-112205000D01*
X54474000Y-111805000D01*
X54477882Y-111785483D01*
X54488938Y-111768938D01*
X54505483Y-111757882D01*
X54525000Y-111754000D01*
X55175000Y-111754000D01*
X55194517Y-111757882D01*
G37*
G36*
X48072517Y-111552882D02*
G01*
X48089062Y-111563938D01*
X48100118Y-111580483D01*
X48104000Y-111600000D01*
X48104000Y-112000000D01*
X48100118Y-112019517D01*
X48089062Y-112036062D01*
X48072517Y-112047118D01*
X48053000Y-112051000D01*
X47103000Y-112051000D01*
X47083483Y-112047118D01*
X47066938Y-112036062D01*
X47055882Y-112019517D01*
X47052000Y-112000000D01*
X47052000Y-111600000D01*
X47055882Y-111580483D01*
X47066938Y-111563938D01*
X47083483Y-111552882D01*
X47103000Y-111549000D01*
X48053000Y-111549000D01*
X48072517Y-111552882D01*
G37*
G36*
X53294517Y-111107882D02*
G01*
X53311062Y-111118938D01*
X53322118Y-111135483D01*
X53326000Y-111155000D01*
X53326000Y-111555000D01*
X53322118Y-111574517D01*
X53311062Y-111591062D01*
X53294517Y-111602118D01*
X53275000Y-111606000D01*
X52625000Y-111606000D01*
X52605483Y-111602118D01*
X52588938Y-111591062D01*
X52577882Y-111574517D01*
X52574000Y-111555000D01*
X52574000Y-111155000D01*
X52577882Y-111135483D01*
X52588938Y-111118938D01*
X52605483Y-111107882D01*
X52625000Y-111104000D01*
X53275000Y-111104000D01*
X53294517Y-111107882D01*
G37*
G36*
X47722517Y-110902882D02*
G01*
X47739062Y-110913938D01*
X47750118Y-110930483D01*
X47754000Y-110950000D01*
X47754000Y-111250000D01*
X47750118Y-111269517D01*
X47739062Y-111286062D01*
X47722517Y-111297118D01*
X47703000Y-111301000D01*
X46903000Y-111301000D01*
X46883483Y-111297118D01*
X46866938Y-111286062D01*
X46855882Y-111269517D01*
X46852000Y-111250000D01*
X46852000Y-110950000D01*
X46855882Y-110930483D01*
X46866938Y-110913938D01*
X46883483Y-110902882D01*
X46903000Y-110899000D01*
X47703000Y-110899000D01*
X47722517Y-110902882D01*
G37*
G36*
X73122913Y-109438936D02*
G01*
X73169180Y-109438936D01*
X73209129Y-109447427D01*
X73250733Y-109451525D01*
X73302998Y-109467379D01*
X73353424Y-109478098D01*
X73385694Y-109492465D01*
X73419712Y-109502785D01*
X73473767Y-109531678D01*
X73525500Y-109554711D01*
X73549551Y-109572185D01*
X73575447Y-109586027D01*
X73628271Y-109629378D01*
X73677887Y-109665427D01*
X73693996Y-109683318D01*
X73711948Y-109698051D01*
X73760188Y-109756831D01*
X73803924Y-109805405D01*
X73813111Y-109821319D01*
X73823972Y-109834552D01*
X73864149Y-109909719D01*
X73898104Y-109968530D01*
X73902009Y-109980550D01*
X73907214Y-109990287D01*
X73935913Y-110084896D01*
X73956311Y-110147672D01*
X73957028Y-110154502D01*
X73958474Y-110159266D01*
X73972536Y-110302042D01*
X73976000Y-110335000D01*
X73972535Y-110367959D01*
X73958474Y-110510733D01*
X73957029Y-110515496D01*
X73956311Y-110522328D01*
X73935909Y-110585117D01*
X73907214Y-110679712D01*
X73902010Y-110689447D01*
X73898104Y-110701470D01*
X73864142Y-110760293D01*
X73823972Y-110835447D01*
X73813113Y-110848677D01*
X73803924Y-110864595D01*
X73760178Y-110913178D01*
X73711948Y-110971948D01*
X73694000Y-110986677D01*
X73677887Y-111004573D01*
X73628260Y-111040628D01*
X73575447Y-111083972D01*
X73549557Y-111097810D01*
X73525500Y-111115289D01*
X73473756Y-111138326D01*
X73419712Y-111167214D01*
X73385701Y-111177531D01*
X73353424Y-111191902D01*
X73302987Y-111202622D01*
X73250733Y-111218474D01*
X73209138Y-111222570D01*
X73169180Y-111231064D01*
X73122902Y-111231064D01*
X73074999Y-111235782D01*
X73027096Y-111231064D01*
X72980820Y-111231064D01*
X72940862Y-111222570D01*
X72899266Y-111218474D01*
X72847009Y-111202621D01*
X72796576Y-111191902D01*
X72764300Y-111177532D01*
X72730287Y-111167214D01*
X72676237Y-111138323D01*
X72624500Y-111115289D01*
X72600445Y-111097812D01*
X72574552Y-111083972D01*
X72521730Y-111040622D01*
X72472113Y-111004573D01*
X72456002Y-110986680D01*
X72438051Y-110971948D01*
X72389809Y-110913166D01*
X72346076Y-110864595D01*
X72336888Y-110848681D01*
X72326027Y-110835447D01*
X72285844Y-110760269D01*
X72251896Y-110701470D01*
X72247991Y-110689451D01*
X72242785Y-110679712D01*
X72214075Y-110585071D01*
X72193689Y-110522328D01*
X72192971Y-110515501D01*
X72191525Y-110510733D01*
X72177448Y-110367808D01*
X72174000Y-110335000D01*
X72177448Y-110302194D01*
X72191525Y-110159266D01*
X72192971Y-110154497D01*
X72193689Y-110147672D01*
X72214071Y-110084942D01*
X72242785Y-109990287D01*
X72247991Y-109980545D01*
X72251896Y-109968530D01*
X72285836Y-109909742D01*
X72326027Y-109834552D01*
X72336890Y-109821314D01*
X72346076Y-109805405D01*
X72389800Y-109756843D01*
X72438051Y-109698051D01*
X72456005Y-109683315D01*
X72472113Y-109665427D01*
X72521720Y-109629385D01*
X72574552Y-109586027D01*
X72600450Y-109572183D01*
X72624500Y-109554711D01*
X72676226Y-109531681D01*
X72730287Y-109502785D01*
X72764307Y-109492464D01*
X72796576Y-109478098D01*
X72846998Y-109467380D01*
X72899266Y-109451525D01*
X72940871Y-109447427D01*
X72980820Y-109438936D01*
X73027086Y-109438936D01*
X73074999Y-109434217D01*
X73122913Y-109438936D01*
G37*
G36*
X75662913Y-109438936D02*
G01*
X75709180Y-109438936D01*
X75749129Y-109447427D01*
X75790733Y-109451525D01*
X75842998Y-109467379D01*
X75893424Y-109478098D01*
X75925694Y-109492465D01*
X75959712Y-109502785D01*
X76013767Y-109531678D01*
X76065500Y-109554711D01*
X76089551Y-109572185D01*
X76115447Y-109586027D01*
X76168271Y-109629378D01*
X76217887Y-109665427D01*
X76233996Y-109683318D01*
X76251948Y-109698051D01*
X76300188Y-109756831D01*
X76343924Y-109805405D01*
X76353111Y-109821319D01*
X76363972Y-109834552D01*
X76404149Y-109909719D01*
X76438104Y-109968530D01*
X76442009Y-109980550D01*
X76447214Y-109990287D01*
X76475913Y-110084896D01*
X76496311Y-110147672D01*
X76497028Y-110154502D01*
X76498474Y-110159266D01*
X76512536Y-110302042D01*
X76516000Y-110335000D01*
X76512535Y-110367959D01*
X76498474Y-110510733D01*
X76497029Y-110515496D01*
X76496311Y-110522328D01*
X76475909Y-110585117D01*
X76447214Y-110679712D01*
X76442010Y-110689447D01*
X76438104Y-110701470D01*
X76404142Y-110760293D01*
X76363972Y-110835447D01*
X76353113Y-110848677D01*
X76343924Y-110864595D01*
X76300178Y-110913178D01*
X76251948Y-110971948D01*
X76234000Y-110986677D01*
X76217887Y-111004573D01*
X76168260Y-111040628D01*
X76115447Y-111083972D01*
X76089557Y-111097810D01*
X76065500Y-111115289D01*
X76013756Y-111138326D01*
X75959712Y-111167214D01*
X75925701Y-111177531D01*
X75893424Y-111191902D01*
X75842987Y-111202622D01*
X75790733Y-111218474D01*
X75749138Y-111222570D01*
X75709180Y-111231064D01*
X75662903Y-111231064D01*
X75615000Y-111235782D01*
X75567097Y-111231064D01*
X75520820Y-111231064D01*
X75480862Y-111222570D01*
X75439266Y-111218474D01*
X75387009Y-111202621D01*
X75336576Y-111191902D01*
X75304300Y-111177532D01*
X75270287Y-111167214D01*
X75216237Y-111138323D01*
X75164500Y-111115289D01*
X75140445Y-111097812D01*
X75114552Y-111083972D01*
X75061730Y-111040622D01*
X75012113Y-111004573D01*
X74996002Y-110986680D01*
X74978051Y-110971948D01*
X74929809Y-110913166D01*
X74886076Y-110864595D01*
X74876888Y-110848681D01*
X74866027Y-110835447D01*
X74825844Y-110760269D01*
X74791896Y-110701470D01*
X74787991Y-110689451D01*
X74782785Y-110679712D01*
X74754075Y-110585071D01*
X74733689Y-110522328D01*
X74732971Y-110515501D01*
X74731525Y-110510733D01*
X74717448Y-110367808D01*
X74714000Y-110335000D01*
X74717448Y-110302194D01*
X74731525Y-110159266D01*
X74732971Y-110154497D01*
X74733689Y-110147672D01*
X74754071Y-110084942D01*
X74782785Y-109990287D01*
X74787991Y-109980545D01*
X74791896Y-109968530D01*
X74825836Y-109909742D01*
X74866027Y-109834552D01*
X74876890Y-109821314D01*
X74886076Y-109805405D01*
X74929800Y-109756843D01*
X74978051Y-109698051D01*
X74996005Y-109683315D01*
X75012113Y-109665427D01*
X75061720Y-109629385D01*
X75114552Y-109586027D01*
X75140450Y-109572183D01*
X75164500Y-109554711D01*
X75216226Y-109531681D01*
X75270287Y-109502785D01*
X75304307Y-109492464D01*
X75336576Y-109478098D01*
X75386998Y-109467380D01*
X75439266Y-109451525D01*
X75480871Y-109447427D01*
X75520820Y-109438936D01*
X75567086Y-109438936D01*
X75615000Y-109434217D01*
X75662913Y-109438936D01*
G37*
G36*
X78202913Y-109438936D02*
G01*
X78249180Y-109438936D01*
X78289129Y-109447427D01*
X78330733Y-109451525D01*
X78382998Y-109467379D01*
X78433424Y-109478098D01*
X78465694Y-109492465D01*
X78499712Y-109502785D01*
X78553767Y-109531678D01*
X78605500Y-109554711D01*
X78629551Y-109572185D01*
X78655447Y-109586027D01*
X78708271Y-109629378D01*
X78757887Y-109665427D01*
X78773996Y-109683318D01*
X78791948Y-109698051D01*
X78840188Y-109756831D01*
X78883924Y-109805405D01*
X78893111Y-109821319D01*
X78903972Y-109834552D01*
X78944149Y-109909719D01*
X78978104Y-109968530D01*
X78982009Y-109980550D01*
X78987214Y-109990287D01*
X79015913Y-110084896D01*
X79036311Y-110147672D01*
X79037028Y-110154502D01*
X79038474Y-110159266D01*
X79052536Y-110302042D01*
X79056000Y-110335000D01*
X79052535Y-110367959D01*
X79038474Y-110510733D01*
X79037029Y-110515496D01*
X79036311Y-110522328D01*
X79015909Y-110585117D01*
X78987214Y-110679712D01*
X78982010Y-110689447D01*
X78978104Y-110701470D01*
X78944142Y-110760293D01*
X78903972Y-110835447D01*
X78893113Y-110848677D01*
X78883924Y-110864595D01*
X78840178Y-110913178D01*
X78791948Y-110971948D01*
X78774000Y-110986677D01*
X78757887Y-111004573D01*
X78708260Y-111040628D01*
X78655447Y-111083972D01*
X78629557Y-111097810D01*
X78605500Y-111115289D01*
X78553756Y-111138326D01*
X78499712Y-111167214D01*
X78465701Y-111177531D01*
X78433424Y-111191902D01*
X78382987Y-111202622D01*
X78330733Y-111218474D01*
X78289138Y-111222570D01*
X78249180Y-111231064D01*
X78202903Y-111231064D01*
X78155000Y-111235782D01*
X78107097Y-111231064D01*
X78060820Y-111231064D01*
X78020862Y-111222570D01*
X77979266Y-111218474D01*
X77927009Y-111202621D01*
X77876576Y-111191902D01*
X77844300Y-111177532D01*
X77810287Y-111167214D01*
X77756237Y-111138323D01*
X77704500Y-111115289D01*
X77680445Y-111097812D01*
X77654552Y-111083972D01*
X77601730Y-111040622D01*
X77552113Y-111004573D01*
X77536002Y-110986680D01*
X77518051Y-110971948D01*
X77469809Y-110913166D01*
X77426076Y-110864595D01*
X77416888Y-110848681D01*
X77406027Y-110835447D01*
X77365844Y-110760269D01*
X77331896Y-110701470D01*
X77327991Y-110689451D01*
X77322785Y-110679712D01*
X77294075Y-110585071D01*
X77273689Y-110522328D01*
X77272971Y-110515501D01*
X77271525Y-110510733D01*
X77257448Y-110367808D01*
X77254000Y-110335000D01*
X77257448Y-110302194D01*
X77271525Y-110159266D01*
X77272971Y-110154497D01*
X77273689Y-110147672D01*
X77294071Y-110084942D01*
X77322785Y-109990287D01*
X77327991Y-109980545D01*
X77331896Y-109968530D01*
X77365836Y-109909742D01*
X77406027Y-109834552D01*
X77416890Y-109821314D01*
X77426076Y-109805405D01*
X77469800Y-109756843D01*
X77518051Y-109698051D01*
X77536005Y-109683315D01*
X77552113Y-109665427D01*
X77601720Y-109629385D01*
X77654552Y-109586027D01*
X77680450Y-109572183D01*
X77704500Y-109554711D01*
X77756226Y-109531681D01*
X77810287Y-109502785D01*
X77844307Y-109492464D01*
X77876576Y-109478098D01*
X77926998Y-109467380D01*
X77979266Y-109451525D01*
X78020871Y-109447427D01*
X78060820Y-109438936D01*
X78107086Y-109438936D01*
X78155000Y-109434217D01*
X78202913Y-109438936D01*
G37*
G36*
X80742913Y-109438936D02*
G01*
X80789180Y-109438936D01*
X80829129Y-109447427D01*
X80870733Y-109451525D01*
X80922998Y-109467379D01*
X80973424Y-109478098D01*
X81005694Y-109492465D01*
X81039712Y-109502785D01*
X81093767Y-109531678D01*
X81145500Y-109554711D01*
X81169551Y-109572185D01*
X81195447Y-109586027D01*
X81248271Y-109629378D01*
X81297887Y-109665427D01*
X81313996Y-109683318D01*
X81331948Y-109698051D01*
X81380188Y-109756831D01*
X81423924Y-109805405D01*
X81433111Y-109821319D01*
X81443972Y-109834552D01*
X81484149Y-109909719D01*
X81518104Y-109968530D01*
X81522009Y-109980550D01*
X81527214Y-109990287D01*
X81555913Y-110084896D01*
X81576311Y-110147672D01*
X81577028Y-110154502D01*
X81578474Y-110159266D01*
X81592536Y-110302042D01*
X81596000Y-110335000D01*
X81592535Y-110367959D01*
X81578474Y-110510733D01*
X81577029Y-110515496D01*
X81576311Y-110522328D01*
X81555909Y-110585117D01*
X81527214Y-110679712D01*
X81522010Y-110689447D01*
X81518104Y-110701470D01*
X81484142Y-110760293D01*
X81443972Y-110835447D01*
X81433113Y-110848677D01*
X81423924Y-110864595D01*
X81380178Y-110913178D01*
X81331948Y-110971948D01*
X81314000Y-110986677D01*
X81297887Y-111004573D01*
X81248260Y-111040628D01*
X81195447Y-111083972D01*
X81169557Y-111097810D01*
X81145500Y-111115289D01*
X81093756Y-111138326D01*
X81039712Y-111167214D01*
X81005701Y-111177531D01*
X80973424Y-111191902D01*
X80922987Y-111202622D01*
X80870733Y-111218474D01*
X80829138Y-111222570D01*
X80789180Y-111231064D01*
X80742902Y-111231064D01*
X80694999Y-111235782D01*
X80647096Y-111231064D01*
X80600820Y-111231064D01*
X80560862Y-111222570D01*
X80519266Y-111218474D01*
X80467009Y-111202621D01*
X80416576Y-111191902D01*
X80384300Y-111177532D01*
X80350287Y-111167214D01*
X80296237Y-111138323D01*
X80244500Y-111115289D01*
X80220445Y-111097812D01*
X80194552Y-111083972D01*
X80141730Y-111040622D01*
X80092113Y-111004573D01*
X80076002Y-110986680D01*
X80058051Y-110971948D01*
X80009809Y-110913166D01*
X79966076Y-110864595D01*
X79956888Y-110848681D01*
X79946027Y-110835447D01*
X79905844Y-110760269D01*
X79871896Y-110701470D01*
X79867991Y-110689451D01*
X79862785Y-110679712D01*
X79834075Y-110585071D01*
X79813689Y-110522328D01*
X79812971Y-110515501D01*
X79811525Y-110510733D01*
X79797448Y-110367808D01*
X79794000Y-110335000D01*
X79797448Y-110302194D01*
X79811525Y-110159266D01*
X79812971Y-110154497D01*
X79813689Y-110147672D01*
X79834071Y-110084942D01*
X79862785Y-109990287D01*
X79867991Y-109980545D01*
X79871896Y-109968530D01*
X79905836Y-109909742D01*
X79946027Y-109834552D01*
X79956890Y-109821314D01*
X79966076Y-109805405D01*
X80009800Y-109756843D01*
X80058051Y-109698051D01*
X80076005Y-109683315D01*
X80092113Y-109665427D01*
X80141720Y-109629385D01*
X80194552Y-109586027D01*
X80220450Y-109572183D01*
X80244500Y-109554711D01*
X80296226Y-109531681D01*
X80350287Y-109502785D01*
X80384307Y-109492464D01*
X80416576Y-109478098D01*
X80466998Y-109467380D01*
X80519266Y-109451525D01*
X80560871Y-109447427D01*
X80600820Y-109438936D01*
X80647086Y-109438936D01*
X80694999Y-109434217D01*
X80742913Y-109438936D01*
G37*
G36*
X97418914Y-109956995D02*
G01*
X97423645Y-109959084D01*
X97426811Y-109959501D01*
X97466442Y-109977981D01*
X97520106Y-110001676D01*
X97598324Y-110079894D01*
X97622028Y-110133579D01*
X97640498Y-110173188D01*
X97640914Y-110176351D01*
X97643005Y-110181086D01*
X97651000Y-110250000D01*
X97651000Y-110750000D01*
X97643005Y-110818914D01*
X97640914Y-110823648D01*
X97640498Y-110826811D01*
X97622036Y-110866402D01*
X97598324Y-110920106D01*
X97520106Y-110998324D01*
X97466402Y-111022036D01*
X97426811Y-111040498D01*
X97423648Y-111040914D01*
X97418914Y-111043005D01*
X97350000Y-111051000D01*
X94350000Y-111051000D01*
X94281086Y-111043005D01*
X94276351Y-111040914D01*
X94273188Y-111040498D01*
X94233579Y-111022028D01*
X94179894Y-110998324D01*
X94101676Y-110920106D01*
X94077981Y-110866442D01*
X94059501Y-110826811D01*
X94059084Y-110823645D01*
X94056995Y-110818914D01*
X94049000Y-110750000D01*
X94049000Y-110250000D01*
X94056995Y-110181086D01*
X94059084Y-110176354D01*
X94059501Y-110173188D01*
X94077989Y-110133538D01*
X94101676Y-110079894D01*
X94179894Y-110001676D01*
X94233538Y-109977989D01*
X94273188Y-109959501D01*
X94276354Y-109959084D01*
X94281086Y-109956995D01*
X94350000Y-109949000D01*
X97350000Y-109949000D01*
X97418914Y-109956995D01*
G37*
G36*
X50522517Y-110602882D02*
G01*
X50539062Y-110613938D01*
X50550118Y-110630483D01*
X50554000Y-110650000D01*
X50554000Y-110950000D01*
X50550118Y-110969517D01*
X50539062Y-110986062D01*
X50522517Y-110997118D01*
X50503000Y-111001000D01*
X49853000Y-111001000D01*
X49833483Y-110997118D01*
X49816938Y-110986062D01*
X49805882Y-110969517D01*
X49802000Y-110950000D01*
X49802000Y-110650000D01*
X49805882Y-110630483D01*
X49816938Y-110613938D01*
X49833483Y-110602882D01*
X49853000Y-110599000D01*
X50503000Y-110599000D01*
X50522517Y-110602882D01*
G37*
G36*
X53294517Y-110457882D02*
G01*
X53311062Y-110468938D01*
X53322118Y-110485483D01*
X53326000Y-110505000D01*
X53326000Y-110905000D01*
X53322118Y-110924517D01*
X53311062Y-110941062D01*
X53294517Y-110952118D01*
X53275000Y-110956000D01*
X52625000Y-110956000D01*
X52605483Y-110952118D01*
X52588938Y-110941062D01*
X52577882Y-110924517D01*
X52574000Y-110905000D01*
X52574000Y-110505000D01*
X52577882Y-110485483D01*
X52588938Y-110468938D01*
X52605483Y-110457882D01*
X52625000Y-110454000D01*
X53275000Y-110454000D01*
X53294517Y-110457882D01*
G37*
G36*
X55194517Y-110457882D02*
G01*
X55211062Y-110468938D01*
X55222118Y-110485483D01*
X55226000Y-110505000D01*
X55226000Y-110905000D01*
X55222118Y-110924517D01*
X55211062Y-110941062D01*
X55194517Y-110952118D01*
X55175000Y-110956000D01*
X54525000Y-110956000D01*
X54505483Y-110952118D01*
X54488938Y-110941062D01*
X54477882Y-110924517D01*
X54474000Y-110905000D01*
X54474000Y-110505000D01*
X54477882Y-110485483D01*
X54488938Y-110468938D01*
X54505483Y-110457882D01*
X54525000Y-110454000D01*
X55175000Y-110454000D01*
X55194517Y-110457882D01*
G37*
G36*
X83776919Y-109189300D02*
G01*
X83842128Y-109232872D01*
X83885700Y-109298081D01*
X83901000Y-109375000D01*
X83901000Y-110550000D01*
X83885700Y-110626919D01*
X83842128Y-110692128D01*
X83776919Y-110735700D01*
X83700000Y-110751000D01*
X83400000Y-110751000D01*
X83323081Y-110735700D01*
X83257872Y-110692128D01*
X83214300Y-110626919D01*
X83199000Y-110550000D01*
X83199000Y-109375000D01*
X83214300Y-109298081D01*
X83257872Y-109232872D01*
X83323081Y-109189300D01*
X83400000Y-109174000D01*
X83700000Y-109174000D01*
X83776919Y-109189300D01*
G37*
G36*
X85676919Y-109189300D02*
G01*
X85742128Y-109232872D01*
X85785700Y-109298081D01*
X85801000Y-109375000D01*
X85801000Y-110550000D01*
X85785700Y-110626919D01*
X85742128Y-110692128D01*
X85676919Y-110735700D01*
X85600000Y-110751000D01*
X85300000Y-110751000D01*
X85223081Y-110735700D01*
X85157872Y-110692128D01*
X85114300Y-110626919D01*
X85099000Y-110550000D01*
X85099000Y-109375000D01*
X85114300Y-109298081D01*
X85157872Y-109232872D01*
X85223081Y-109189300D01*
X85300000Y-109174000D01*
X85600000Y-109174000D01*
X85676919Y-109189300D01*
G37*
G36*
X47722517Y-110302882D02*
G01*
X47739062Y-110313938D01*
X47750118Y-110330483D01*
X47754000Y-110350000D01*
X47754000Y-110650000D01*
X47750118Y-110669517D01*
X47739062Y-110686062D01*
X47722517Y-110697118D01*
X47703000Y-110701000D01*
X46903000Y-110701000D01*
X46883483Y-110697118D01*
X46866938Y-110686062D01*
X46855882Y-110669517D01*
X46852000Y-110650000D01*
X46852000Y-110350000D01*
X46855882Y-110330483D01*
X46866938Y-110313938D01*
X46883483Y-110302882D01*
X46903000Y-110299000D01*
X47703000Y-110299000D01*
X47722517Y-110302882D01*
G37*
G36*
X50522517Y-110002882D02*
G01*
X50539062Y-110013938D01*
X50550118Y-110030483D01*
X50554000Y-110050000D01*
X50554000Y-110350000D01*
X50550118Y-110369517D01*
X50539062Y-110386062D01*
X50522517Y-110397118D01*
X50503000Y-110401000D01*
X49853000Y-110401000D01*
X49833483Y-110397118D01*
X49816938Y-110386062D01*
X49805882Y-110369517D01*
X49802000Y-110350000D01*
X49802000Y-110050000D01*
X49805882Y-110030483D01*
X49816938Y-110013938D01*
X49833483Y-110002882D01*
X49853000Y-109999000D01*
X50503000Y-109999000D01*
X50522517Y-110002882D01*
G37*
G36*
X56819517Y-109402882D02*
G01*
X56836062Y-109413938D01*
X56847118Y-109430483D01*
X56851000Y-109450000D01*
X56851000Y-110250000D01*
X56847118Y-110269517D01*
X56836062Y-110286062D01*
X56819517Y-110297118D01*
X56800000Y-110301000D01*
X55800000Y-110301000D01*
X55780483Y-110297118D01*
X55763938Y-110286062D01*
X55752882Y-110269517D01*
X55749000Y-110250000D01*
X55749000Y-109450000D01*
X55752882Y-109430483D01*
X55763938Y-109413938D01*
X55780483Y-109402882D01*
X55800000Y-109399000D01*
X56800000Y-109399000D01*
X56819517Y-109402882D01*
G37*
G36*
X66519517Y-109402882D02*
G01*
X66536062Y-109413938D01*
X66547118Y-109430483D01*
X66551000Y-109450000D01*
X66551000Y-110250000D01*
X66547118Y-110269517D01*
X66536062Y-110286062D01*
X66519517Y-110297118D01*
X66500000Y-110301000D01*
X65500000Y-110301000D01*
X65480483Y-110297118D01*
X65463938Y-110286062D01*
X65452882Y-110269517D01*
X65449000Y-110250000D01*
X65449000Y-109450000D01*
X65452882Y-109430483D01*
X65463938Y-109413938D01*
X65480483Y-109402882D01*
X65500000Y-109399000D01*
X66500000Y-109399000D01*
X66519517Y-109402882D01*
G37*
G36*
X68193093Y-109513539D02*
G01*
X68255057Y-109554943D01*
X68296461Y-109616907D01*
X68311000Y-109690000D01*
X68311000Y-109970000D01*
X68296461Y-110043093D01*
X68255057Y-110105057D01*
X68193093Y-110146461D01*
X68120000Y-110161000D01*
X67780000Y-110161000D01*
X67706907Y-110146461D01*
X67644943Y-110105057D01*
X67603539Y-110043093D01*
X67589000Y-109970000D01*
X67589000Y-109690000D01*
X67603539Y-109616907D01*
X67644943Y-109554943D01*
X67706907Y-109513539D01*
X67780000Y-109499000D01*
X68120000Y-109499000D01*
X68193093Y-109513539D01*
G37*
G36*
X47722517Y-109702882D02*
G01*
X47739062Y-109713938D01*
X47750118Y-109730483D01*
X47754000Y-109750000D01*
X47754000Y-110050000D01*
X47750118Y-110069517D01*
X47739062Y-110086062D01*
X47722517Y-110097118D01*
X47703000Y-110101000D01*
X46903000Y-110101000D01*
X46883483Y-110097118D01*
X46866938Y-110086062D01*
X46855882Y-110069517D01*
X46852000Y-110050000D01*
X46852000Y-109750000D01*
X46855882Y-109730483D01*
X46866938Y-109713938D01*
X46883483Y-109702882D01*
X46903000Y-109699000D01*
X47703000Y-109699000D01*
X47722517Y-109702882D01*
G37*
G36*
X50522517Y-109402882D02*
G01*
X50539062Y-109413938D01*
X50550118Y-109430483D01*
X50554000Y-109450000D01*
X50554000Y-109750000D01*
X50550118Y-109769517D01*
X50539062Y-109786062D01*
X50522517Y-109797118D01*
X50503000Y-109801000D01*
X49853000Y-109801000D01*
X49833483Y-109797118D01*
X49816938Y-109786062D01*
X49805882Y-109769517D01*
X49802000Y-109750000D01*
X49802000Y-109450000D01*
X49805882Y-109430483D01*
X49816938Y-109413938D01*
X49833483Y-109402882D01*
X49853000Y-109399000D01*
X50503000Y-109399000D01*
X50522517Y-109402882D01*
G37*
G36*
X47722517Y-109102882D02*
G01*
X47739062Y-109113938D01*
X47750118Y-109130483D01*
X47754000Y-109150000D01*
X47754000Y-109450000D01*
X47750118Y-109469517D01*
X47739062Y-109486062D01*
X47722517Y-109497118D01*
X47703000Y-109501000D01*
X46903000Y-109501000D01*
X46883483Y-109497118D01*
X46866938Y-109486062D01*
X46855882Y-109469517D01*
X46852000Y-109450000D01*
X46852000Y-109150000D01*
X46855882Y-109130483D01*
X46866938Y-109113938D01*
X46883483Y-109102882D01*
X46903000Y-109099000D01*
X47703000Y-109099000D01*
X47722517Y-109102882D01*
G37*
G36*
X50522517Y-108802882D02*
G01*
X50539062Y-108813938D01*
X50550118Y-108830483D01*
X50554000Y-108850000D01*
X50554000Y-109150000D01*
X50550118Y-109169517D01*
X50539062Y-109186062D01*
X50522517Y-109197118D01*
X50503000Y-109201000D01*
X49853000Y-109201000D01*
X49833483Y-109197118D01*
X49816938Y-109186062D01*
X49805882Y-109169517D01*
X49802000Y-109150000D01*
X49802000Y-108850000D01*
X49805882Y-108830483D01*
X49816938Y-108813938D01*
X49833483Y-108802882D01*
X49853000Y-108799000D01*
X50503000Y-108799000D01*
X50522517Y-108802882D01*
G37*
G36*
X68193093Y-108553539D02*
G01*
X68255057Y-108594943D01*
X68296461Y-108656907D01*
X68311000Y-108730000D01*
X68311000Y-109010000D01*
X68296461Y-109083093D01*
X68255057Y-109145057D01*
X68193093Y-109186461D01*
X68120000Y-109201000D01*
X67780000Y-109201000D01*
X67706907Y-109186461D01*
X67644943Y-109145057D01*
X67603539Y-109083093D01*
X67589000Y-109010000D01*
X67589000Y-108730000D01*
X67603539Y-108656907D01*
X67644943Y-108594943D01*
X67706907Y-108553539D01*
X67780000Y-108539000D01*
X68120000Y-108539000D01*
X68193093Y-108553539D01*
G37*
G36*
X56819517Y-108202882D02*
G01*
X56836062Y-108213938D01*
X56847118Y-108230483D01*
X56851000Y-108250000D01*
X56851000Y-109050000D01*
X56847118Y-109069517D01*
X56836062Y-109086062D01*
X56819517Y-109097118D01*
X56800000Y-109101000D01*
X55800000Y-109101000D01*
X55780483Y-109097118D01*
X55763938Y-109086062D01*
X55752882Y-109069517D01*
X55749000Y-109050000D01*
X55749000Y-108250000D01*
X55752882Y-108230483D01*
X55763938Y-108213938D01*
X55780483Y-108202882D01*
X55800000Y-108199000D01*
X56800000Y-108199000D01*
X56819517Y-108202882D01*
G37*
G36*
X66519517Y-108202882D02*
G01*
X66536062Y-108213938D01*
X66547118Y-108230483D01*
X66551000Y-108250000D01*
X66551000Y-109050000D01*
X66547118Y-109069517D01*
X66536062Y-109086062D01*
X66519517Y-109097118D01*
X66500000Y-109101000D01*
X65500000Y-109101000D01*
X65480483Y-109097118D01*
X65463938Y-109086062D01*
X65452882Y-109069517D01*
X65449000Y-109050000D01*
X65449000Y-108250000D01*
X65452882Y-108230483D01*
X65463938Y-108213938D01*
X65480483Y-108202882D01*
X65500000Y-108199000D01*
X66500000Y-108199000D01*
X66519517Y-108202882D01*
G37*
G36*
X97418914Y-107956995D02*
G01*
X97423645Y-107959084D01*
X97426811Y-107959501D01*
X97466442Y-107977981D01*
X97520106Y-108001676D01*
X97598324Y-108079894D01*
X97622028Y-108133579D01*
X97640498Y-108173188D01*
X97640914Y-108176351D01*
X97643005Y-108181086D01*
X97651000Y-108250000D01*
X97651000Y-108750000D01*
X97643005Y-108818914D01*
X97640914Y-108823648D01*
X97640498Y-108826811D01*
X97622036Y-108866402D01*
X97598324Y-108920106D01*
X97520106Y-108998324D01*
X97466402Y-109022036D01*
X97426811Y-109040498D01*
X97423648Y-109040914D01*
X97418914Y-109043005D01*
X97350000Y-109051000D01*
X94350000Y-109051000D01*
X94281086Y-109043005D01*
X94276351Y-109040914D01*
X94273188Y-109040498D01*
X94233579Y-109022028D01*
X94179894Y-108998324D01*
X94101676Y-108920106D01*
X94077981Y-108866442D01*
X94059501Y-108826811D01*
X94059084Y-108823645D01*
X94056995Y-108818914D01*
X94049000Y-108750000D01*
X94049000Y-108250000D01*
X94056995Y-108181086D01*
X94059084Y-108176354D01*
X94059501Y-108173188D01*
X94077989Y-108133538D01*
X94101676Y-108079894D01*
X94179894Y-108001676D01*
X94233538Y-107977989D01*
X94273188Y-107959501D01*
X94276354Y-107959084D01*
X94281086Y-107956995D01*
X94350000Y-107949000D01*
X97350000Y-107949000D01*
X97418914Y-107956995D01*
G37*
G36*
X47722517Y-108502882D02*
G01*
X47739062Y-108513938D01*
X47750118Y-108530483D01*
X47754000Y-108550000D01*
X47754000Y-108850000D01*
X47750118Y-108869517D01*
X47739062Y-108886062D01*
X47722517Y-108897118D01*
X47703000Y-108901000D01*
X46903000Y-108901000D01*
X46883483Y-108897118D01*
X46866938Y-108886062D01*
X46855882Y-108869517D01*
X46852000Y-108850000D01*
X46852000Y-108550000D01*
X46855882Y-108530483D01*
X46866938Y-108513938D01*
X46883483Y-108502882D01*
X46903000Y-108499000D01*
X47703000Y-108499000D01*
X47722517Y-108502882D01*
G37*
G36*
X90718914Y-105756995D02*
G01*
X90723645Y-105759084D01*
X90726811Y-105759501D01*
X90766442Y-105777981D01*
X90820106Y-105801676D01*
X90898324Y-105879894D01*
X90922028Y-105933579D01*
X90940498Y-105973188D01*
X90940914Y-105976351D01*
X90943005Y-105981086D01*
X90951000Y-106050000D01*
X90951000Y-108550000D01*
X90943005Y-108618914D01*
X90940914Y-108623648D01*
X90940498Y-108626811D01*
X90922036Y-108666402D01*
X90898324Y-108720106D01*
X90820106Y-108798324D01*
X90766402Y-108822036D01*
X90726811Y-108840498D01*
X90723648Y-108840914D01*
X90718914Y-108843005D01*
X90650000Y-108851000D01*
X89550000Y-108851000D01*
X89481086Y-108843005D01*
X89476351Y-108840914D01*
X89473188Y-108840498D01*
X89433579Y-108822028D01*
X89379894Y-108798324D01*
X89301676Y-108720106D01*
X89277981Y-108666442D01*
X89259501Y-108626811D01*
X89259084Y-108623645D01*
X89256995Y-108618914D01*
X89249000Y-108550000D01*
X89249000Y-106050000D01*
X89256995Y-105981086D01*
X89259084Y-105976354D01*
X89259501Y-105973188D01*
X89277989Y-105933538D01*
X89301676Y-105879894D01*
X89379894Y-105801676D01*
X89433538Y-105777989D01*
X89473188Y-105759501D01*
X89476354Y-105759084D01*
X89481086Y-105756995D01*
X89550000Y-105749000D01*
X90650000Y-105749000D01*
X90718914Y-105756995D01*
G37*
G36*
X50522517Y-108202882D02*
G01*
X50539062Y-108213938D01*
X50550118Y-108230483D01*
X50554000Y-108250000D01*
X50554000Y-108550000D01*
X50550118Y-108569517D01*
X50539062Y-108586062D01*
X50522517Y-108597118D01*
X50503000Y-108601000D01*
X49853000Y-108601000D01*
X49833483Y-108597118D01*
X49816938Y-108586062D01*
X49805882Y-108569517D01*
X49802000Y-108550000D01*
X49802000Y-108250000D01*
X49805882Y-108230483D01*
X49816938Y-108213938D01*
X49833483Y-108202882D01*
X49853000Y-108199000D01*
X50503000Y-108199000D01*
X50522517Y-108202882D01*
G37*
G36*
X25564517Y-106652882D02*
G01*
X25581062Y-106663938D01*
X25592118Y-106680483D01*
X25596000Y-106700000D01*
X25596000Y-108300000D01*
X25592118Y-108319517D01*
X25581062Y-108336062D01*
X25564517Y-108347118D01*
X25545000Y-108351000D01*
X24295000Y-108351000D01*
X24275483Y-108347118D01*
X24258938Y-108336062D01*
X24247882Y-108319517D01*
X24244000Y-108300000D01*
X24244000Y-106700000D01*
X24247882Y-106680483D01*
X24258938Y-106663938D01*
X24275483Y-106652882D01*
X24295000Y-106649000D01*
X25545000Y-106649000D01*
X25564517Y-106652882D01*
G37*
G36*
X27324517Y-106652882D02*
G01*
X27341062Y-106663938D01*
X27352118Y-106680483D01*
X27356000Y-106700000D01*
X27356000Y-108300000D01*
X27352118Y-108319517D01*
X27341062Y-108336062D01*
X27324517Y-108347118D01*
X27305000Y-108351000D01*
X26055000Y-108351000D01*
X26035483Y-108347118D01*
X26018938Y-108336062D01*
X26007882Y-108319517D01*
X26004000Y-108300000D01*
X26004000Y-106700000D01*
X26007882Y-106680483D01*
X26018938Y-106663938D01*
X26035483Y-106652882D01*
X26055000Y-106649000D01*
X27305000Y-106649000D01*
X27324517Y-106652882D01*
G37*
G36*
X47722517Y-107902882D02*
G01*
X47739062Y-107913938D01*
X47750118Y-107930483D01*
X47754000Y-107950000D01*
X47754000Y-108250000D01*
X47750118Y-108269517D01*
X47739062Y-108286062D01*
X47722517Y-108297118D01*
X47703000Y-108301000D01*
X46903000Y-108301000D01*
X46883483Y-108297118D01*
X46866938Y-108286062D01*
X46855882Y-108269517D01*
X46852000Y-108250000D01*
X46852000Y-107950000D01*
X46855882Y-107930483D01*
X46866938Y-107913938D01*
X46883483Y-107902882D01*
X46903000Y-107899000D01*
X47703000Y-107899000D01*
X47722517Y-107902882D01*
G37*
G36*
X29378638Y-106974723D02*
G01*
X29430819Y-106980777D01*
X29448647Y-106988649D01*
X29471054Y-106993106D01*
X29495042Y-107009134D01*
X29516409Y-107018569D01*
X29531002Y-107033162D01*
X29552484Y-107047516D01*
X29566837Y-107068997D01*
X29581430Y-107083590D01*
X29590863Y-107104954D01*
X29606894Y-107128946D01*
X29611351Y-107151354D01*
X29619222Y-107169180D01*
X29625274Y-107221351D01*
X29626000Y-107225000D01*
X29626000Y-107775000D01*
X29625273Y-107778651D01*
X29619222Y-107830819D01*
X29611351Y-107848643D01*
X29606894Y-107871054D01*
X29590862Y-107895047D01*
X29581430Y-107916409D01*
X29566839Y-107930999D01*
X29552484Y-107952484D01*
X29530999Y-107966839D01*
X29516409Y-107981430D01*
X29495047Y-107990862D01*
X29471054Y-108006894D01*
X29448643Y-108011351D01*
X29430819Y-108019222D01*
X29378650Y-108025273D01*
X29375000Y-108026000D01*
X28975000Y-108026000D01*
X28971351Y-108025274D01*
X28919180Y-108019222D01*
X28901354Y-108011351D01*
X28878946Y-108006894D01*
X28854954Y-107990863D01*
X28833590Y-107981430D01*
X28818997Y-107966837D01*
X28797516Y-107952484D01*
X28783162Y-107931002D01*
X28768569Y-107916409D01*
X28759134Y-107895042D01*
X28743106Y-107871054D01*
X28738649Y-107848647D01*
X28730777Y-107830819D01*
X28724723Y-107778638D01*
X28724000Y-107775000D01*
X28724000Y-107225000D01*
X28724723Y-107221361D01*
X28730777Y-107169180D01*
X28738649Y-107151350D01*
X28743106Y-107128946D01*
X28759133Y-107104959D01*
X28768569Y-107083590D01*
X28783164Y-107068994D01*
X28797516Y-107047516D01*
X28818994Y-107033164D01*
X28833590Y-107018569D01*
X28854959Y-107009133D01*
X28878946Y-106993106D01*
X28901350Y-106988649D01*
X28919180Y-106980777D01*
X28971363Y-106974723D01*
X28975000Y-106974000D01*
X29375000Y-106974000D01*
X29378638Y-106974723D01*
G37*
G36*
X31028638Y-106974723D02*
G01*
X31080819Y-106980777D01*
X31098647Y-106988649D01*
X31121054Y-106993106D01*
X31145042Y-107009134D01*
X31166409Y-107018569D01*
X31181002Y-107033162D01*
X31202484Y-107047516D01*
X31216837Y-107068997D01*
X31231430Y-107083590D01*
X31240863Y-107104954D01*
X31256894Y-107128946D01*
X31261351Y-107151354D01*
X31269222Y-107169180D01*
X31275274Y-107221351D01*
X31276000Y-107225000D01*
X31276000Y-107775000D01*
X31275273Y-107778651D01*
X31269222Y-107830819D01*
X31261351Y-107848643D01*
X31256894Y-107871054D01*
X31240862Y-107895047D01*
X31231430Y-107916409D01*
X31216839Y-107930999D01*
X31202484Y-107952484D01*
X31180999Y-107966839D01*
X31166409Y-107981430D01*
X31145047Y-107990862D01*
X31121054Y-108006894D01*
X31098643Y-108011351D01*
X31080819Y-108019222D01*
X31028650Y-108025273D01*
X31025000Y-108026000D01*
X30625000Y-108026000D01*
X30621351Y-108025274D01*
X30569180Y-108019222D01*
X30551354Y-108011351D01*
X30528946Y-108006894D01*
X30504954Y-107990863D01*
X30483590Y-107981430D01*
X30468997Y-107966837D01*
X30447516Y-107952484D01*
X30433162Y-107931002D01*
X30418569Y-107916409D01*
X30409134Y-107895042D01*
X30393106Y-107871054D01*
X30388649Y-107848647D01*
X30380777Y-107830819D01*
X30374723Y-107778638D01*
X30374000Y-107775000D01*
X30374000Y-107225000D01*
X30374723Y-107221361D01*
X30380777Y-107169180D01*
X30388649Y-107151350D01*
X30393106Y-107128946D01*
X30409133Y-107104959D01*
X30418569Y-107083590D01*
X30433164Y-107068994D01*
X30447516Y-107047516D01*
X30468994Y-107033164D01*
X30483590Y-107018569D01*
X30504959Y-107009133D01*
X30528946Y-106993106D01*
X30551350Y-106988649D01*
X30569180Y-106980777D01*
X30621363Y-106974723D01*
X30625000Y-106974000D01*
X31025000Y-106974000D01*
X31028638Y-106974723D01*
G37*
G36*
X50522517Y-107602882D02*
G01*
X50539062Y-107613938D01*
X50550118Y-107630483D01*
X50554000Y-107650000D01*
X50554000Y-107950000D01*
X50550118Y-107969517D01*
X50539062Y-107986062D01*
X50522517Y-107997118D01*
X50503000Y-108001000D01*
X49853000Y-108001000D01*
X49833483Y-107997118D01*
X49816938Y-107986062D01*
X49805882Y-107969517D01*
X49802000Y-107950000D01*
X49802000Y-107650000D01*
X49805882Y-107630483D01*
X49816938Y-107613938D01*
X49833483Y-107602882D01*
X49853000Y-107599000D01*
X50503000Y-107599000D01*
X50522517Y-107602882D01*
G37*
G36*
X56819517Y-107002882D02*
G01*
X56836062Y-107013938D01*
X56847118Y-107030483D01*
X56851000Y-107050000D01*
X56851000Y-107850000D01*
X56847118Y-107869517D01*
X56836062Y-107886062D01*
X56819517Y-107897118D01*
X56800000Y-107901000D01*
X55800000Y-107901000D01*
X55780483Y-107897118D01*
X55763938Y-107886062D01*
X55752882Y-107869517D01*
X55749000Y-107850000D01*
X55749000Y-107050000D01*
X55752882Y-107030483D01*
X55763938Y-107013938D01*
X55780483Y-107002882D01*
X55800000Y-106999000D01*
X56800000Y-106999000D01*
X56819517Y-107002882D01*
G37*
G36*
X66519517Y-107002882D02*
G01*
X66536062Y-107013938D01*
X66547118Y-107030483D01*
X66551000Y-107050000D01*
X66551000Y-107850000D01*
X66547118Y-107869517D01*
X66536062Y-107886062D01*
X66519517Y-107897118D01*
X66500000Y-107901000D01*
X65500000Y-107901000D01*
X65480483Y-107897118D01*
X65463938Y-107886062D01*
X65452882Y-107869517D01*
X65449000Y-107850000D01*
X65449000Y-107050000D01*
X65452882Y-107030483D01*
X65463938Y-107013938D01*
X65480483Y-107002882D01*
X65500000Y-106999000D01*
X66500000Y-106999000D01*
X66519517Y-107002882D01*
G37*
G36*
X47722517Y-107302882D02*
G01*
X47739062Y-107313938D01*
X47750118Y-107330483D01*
X47754000Y-107350000D01*
X47754000Y-107650000D01*
X47750118Y-107669517D01*
X47739062Y-107686062D01*
X47722517Y-107697118D01*
X47703000Y-107701000D01*
X46903000Y-107701000D01*
X46883483Y-107697118D01*
X46866938Y-107686062D01*
X46855882Y-107669517D01*
X46852000Y-107650000D01*
X46852000Y-107350000D01*
X46855882Y-107330483D01*
X46866938Y-107313938D01*
X46883483Y-107302882D01*
X46903000Y-107299000D01*
X47703000Y-107299000D01*
X47722517Y-107302882D01*
G37*
G36*
X83068914Y-106131995D02*
G01*
X83073645Y-106134084D01*
X83076811Y-106134501D01*
X83116442Y-106152981D01*
X83170106Y-106176676D01*
X83248324Y-106254894D01*
X83272028Y-106308579D01*
X83290498Y-106348188D01*
X83290914Y-106351351D01*
X83293005Y-106356086D01*
X83301000Y-106425000D01*
X83301000Y-107375000D01*
X83293005Y-107443914D01*
X83290914Y-107448648D01*
X83290498Y-107451811D01*
X83272036Y-107491402D01*
X83248324Y-107545106D01*
X83170106Y-107623324D01*
X83116402Y-107647036D01*
X83076811Y-107665498D01*
X83073648Y-107665914D01*
X83068914Y-107668005D01*
X83000000Y-107676000D01*
X82500000Y-107676000D01*
X82431086Y-107668005D01*
X82426351Y-107665914D01*
X82423188Y-107665498D01*
X82383579Y-107647028D01*
X82329894Y-107623324D01*
X82251676Y-107545106D01*
X82227981Y-107491442D01*
X82209501Y-107451811D01*
X82209084Y-107448645D01*
X82206995Y-107443914D01*
X82199000Y-107375000D01*
X82199000Y-106425000D01*
X82206995Y-106356086D01*
X82209084Y-106351354D01*
X82209501Y-106348188D01*
X82227989Y-106308538D01*
X82251676Y-106254894D01*
X82329894Y-106176676D01*
X82383538Y-106152989D01*
X82423188Y-106134501D01*
X82426354Y-106134084D01*
X82431086Y-106131995D01*
X82500000Y-106124000D01*
X83000000Y-106124000D01*
X83068914Y-106131995D01*
G37*
G36*
X84968914Y-106131995D02*
G01*
X84973645Y-106134084D01*
X84976811Y-106134501D01*
X85016442Y-106152981D01*
X85070106Y-106176676D01*
X85148324Y-106254894D01*
X85172028Y-106308579D01*
X85190498Y-106348188D01*
X85190914Y-106351351D01*
X85193005Y-106356086D01*
X85201000Y-106425000D01*
X85201000Y-107375000D01*
X85193005Y-107443914D01*
X85190914Y-107448648D01*
X85190498Y-107451811D01*
X85172036Y-107491402D01*
X85148324Y-107545106D01*
X85070106Y-107623324D01*
X85016402Y-107647036D01*
X84976811Y-107665498D01*
X84973648Y-107665914D01*
X84968914Y-107668005D01*
X84900000Y-107676000D01*
X84400000Y-107676000D01*
X84331086Y-107668005D01*
X84326351Y-107665914D01*
X84323188Y-107665498D01*
X84283579Y-107647028D01*
X84229894Y-107623324D01*
X84151676Y-107545106D01*
X84127981Y-107491442D01*
X84109501Y-107451811D01*
X84109084Y-107448645D01*
X84106995Y-107443914D01*
X84099000Y-107375000D01*
X84099000Y-106425000D01*
X84106995Y-106356086D01*
X84109084Y-106351354D01*
X84109501Y-106348188D01*
X84127989Y-106308538D01*
X84151676Y-106254894D01*
X84229894Y-106176676D01*
X84283538Y-106152989D01*
X84323188Y-106134501D01*
X84326354Y-106134084D01*
X84331086Y-106131995D01*
X84400000Y-106124000D01*
X84900000Y-106124000D01*
X84968914Y-106131995D01*
G37*
G36*
X50522517Y-107002882D02*
G01*
X50539062Y-107013938D01*
X50550118Y-107030483D01*
X50554000Y-107050000D01*
X50554000Y-107350000D01*
X50550118Y-107369517D01*
X50539062Y-107386062D01*
X50522517Y-107397118D01*
X50503000Y-107401000D01*
X49853000Y-107401000D01*
X49833483Y-107397118D01*
X49816938Y-107386062D01*
X49805882Y-107369517D01*
X49802000Y-107350000D01*
X49802000Y-107050000D01*
X49805882Y-107030483D01*
X49816938Y-107013938D01*
X49833483Y-107002882D01*
X49853000Y-106999000D01*
X50503000Y-106999000D01*
X50522517Y-107002882D01*
G37*
G36*
X47722517Y-106702882D02*
G01*
X47739062Y-106713938D01*
X47750118Y-106730483D01*
X47754000Y-106750000D01*
X47754000Y-107050000D01*
X47750118Y-107069517D01*
X47739062Y-107086062D01*
X47722517Y-107097118D01*
X47703000Y-107101000D01*
X46903000Y-107101000D01*
X46883483Y-107097118D01*
X46866938Y-107086062D01*
X46855882Y-107069517D01*
X46852000Y-107050000D01*
X46852000Y-106750000D01*
X46855882Y-106730483D01*
X46866938Y-106713938D01*
X46883483Y-106702882D01*
X46903000Y-106699000D01*
X47703000Y-106699000D01*
X47722517Y-106702882D01*
G37*
G36*
X103118913Y-105356995D02*
G01*
X103123644Y-105359084D01*
X103126810Y-105359501D01*
X103166433Y-105377977D01*
X103220106Y-105401676D01*
X103298324Y-105479894D01*
X103322032Y-105533588D01*
X103340498Y-105573189D01*
X103340914Y-105576352D01*
X103343005Y-105581087D01*
X103350999Y-105650002D01*
X103351000Y-106649999D01*
X103343005Y-106718913D01*
X103340914Y-106723648D01*
X103340498Y-106726810D01*
X103322040Y-106766392D01*
X103298324Y-106820106D01*
X103220106Y-106898324D01*
X103166392Y-106922040D01*
X103126810Y-106940498D01*
X103123647Y-106940914D01*
X103118913Y-106943005D01*
X103049998Y-106950999D01*
X103047056Y-106950999D01*
X103047049Y-106951000D01*
X100152951Y-106951000D01*
X100152950Y-106950999D01*
X100150001Y-106951000D01*
X100081087Y-106943005D01*
X100076352Y-106940914D01*
X100073189Y-106940498D01*
X100033588Y-106922032D01*
X99979894Y-106898324D01*
X99901676Y-106820106D01*
X99877977Y-106766433D01*
X99859501Y-106726810D01*
X99859084Y-106723644D01*
X99856995Y-106718913D01*
X99849001Y-106649998D01*
X99849000Y-106647056D01*
X99849000Y-106647049D01*
X99849000Y-105652950D01*
X99849000Y-105652949D01*
X99849000Y-105650001D01*
X99856995Y-105581087D01*
X99859084Y-105576355D01*
X99859501Y-105573189D01*
X99877985Y-105533548D01*
X99901676Y-105479894D01*
X99979894Y-105401676D01*
X100033548Y-105377985D01*
X100073189Y-105359501D01*
X100076355Y-105359084D01*
X100081087Y-105356995D01*
X100150002Y-105349001D01*
X100152943Y-105349000D01*
X100152951Y-105349000D01*
X103047049Y-105349000D01*
X103049999Y-105349000D01*
X103118913Y-105356995D01*
G37*
G36*
X51771093Y-106163539D02*
G01*
X51833057Y-106204943D01*
X51874461Y-106266907D01*
X51889000Y-106340000D01*
X51889000Y-106620000D01*
X51874461Y-106693093D01*
X51833057Y-106755057D01*
X51771093Y-106796461D01*
X51698000Y-106811000D01*
X51358000Y-106811000D01*
X51284907Y-106796461D01*
X51222943Y-106755057D01*
X51181539Y-106693093D01*
X51167000Y-106620000D01*
X51167000Y-106340000D01*
X51181539Y-106266907D01*
X51222943Y-106204943D01*
X51284907Y-106163539D01*
X51358000Y-106149000D01*
X51698000Y-106149000D01*
X51771093Y-106163539D01*
G37*
G36*
X50522517Y-106402882D02*
G01*
X50539062Y-106413938D01*
X50550118Y-106430483D01*
X50554000Y-106450000D01*
X50554000Y-106750000D01*
X50550118Y-106769517D01*
X50539062Y-106786062D01*
X50522517Y-106797118D01*
X50503000Y-106801000D01*
X49853000Y-106801000D01*
X49833483Y-106797118D01*
X49816938Y-106786062D01*
X49805882Y-106769517D01*
X49802000Y-106750000D01*
X49802000Y-106450000D01*
X49805882Y-106430483D01*
X49816938Y-106413938D01*
X49833483Y-106402882D01*
X49853000Y-106399000D01*
X50503000Y-106399000D01*
X50522517Y-106402882D01*
G37*
G36*
X56819517Y-104302882D02*
G01*
X56836062Y-104313938D01*
X56847118Y-104330483D01*
X56851000Y-104350000D01*
X56851000Y-106650000D01*
X56847118Y-106669517D01*
X56836062Y-106686062D01*
X56819517Y-106697118D01*
X56800000Y-106701000D01*
X55800000Y-106701000D01*
X55780483Y-106697118D01*
X55763938Y-106686062D01*
X55752882Y-106669517D01*
X55749000Y-106650000D01*
X55749000Y-104350000D01*
X55752882Y-104330483D01*
X55763938Y-104313938D01*
X55780483Y-104302882D01*
X55800000Y-104299000D01*
X56800000Y-104299000D01*
X56819517Y-104302882D01*
G37*
G36*
X66519517Y-104302882D02*
G01*
X66536062Y-104313938D01*
X66547118Y-104330483D01*
X66551000Y-104350000D01*
X66551000Y-106650000D01*
X66547118Y-106669517D01*
X66536062Y-106686062D01*
X66519517Y-106697118D01*
X66500000Y-106701000D01*
X65500000Y-106701000D01*
X65480483Y-106697118D01*
X65463938Y-106686062D01*
X65452882Y-106669517D01*
X65449000Y-106650000D01*
X65449000Y-104350000D01*
X65452882Y-104330483D01*
X65463938Y-104313938D01*
X65480483Y-104302882D01*
X65500000Y-104299000D01*
X66500000Y-104299000D01*
X66519517Y-104302882D01*
G37*
G36*
X69296179Y-105893158D02*
G01*
X69356522Y-105933478D01*
X69396842Y-105993821D01*
X69411000Y-106065000D01*
X69411000Y-106435000D01*
X69396842Y-106506179D01*
X69356522Y-106566522D01*
X69296179Y-106606842D01*
X69225000Y-106621000D01*
X68955000Y-106621000D01*
X68883821Y-106606842D01*
X68823478Y-106566522D01*
X68783158Y-106506179D01*
X68769000Y-106435000D01*
X68769000Y-106065000D01*
X68783158Y-105993821D01*
X68823478Y-105933478D01*
X68883821Y-105893158D01*
X68955000Y-105879000D01*
X69225000Y-105879000D01*
X69296179Y-105893158D01*
G37*
G36*
X70316179Y-105893158D02*
G01*
X70376522Y-105933478D01*
X70416842Y-105993821D01*
X70431000Y-106065000D01*
X70431000Y-106435000D01*
X70416842Y-106506179D01*
X70376522Y-106566522D01*
X70316179Y-106606842D01*
X70245000Y-106621000D01*
X69975000Y-106621000D01*
X69903821Y-106606842D01*
X69843478Y-106566522D01*
X69803158Y-106506179D01*
X69789000Y-106435000D01*
X69789000Y-106065000D01*
X69803158Y-105993821D01*
X69843478Y-105933478D01*
X69903821Y-105893158D01*
X69975000Y-105879000D01*
X70245000Y-105879000D01*
X70316179Y-105893158D01*
G37*
G36*
X47722517Y-106102882D02*
G01*
X47739062Y-106113938D01*
X47750118Y-106130483D01*
X47754000Y-106150000D01*
X47754000Y-106450000D01*
X47750118Y-106469517D01*
X47739062Y-106486062D01*
X47722517Y-106497118D01*
X47703000Y-106501000D01*
X46903000Y-106501000D01*
X46883483Y-106497118D01*
X46866938Y-106486062D01*
X46855882Y-106469517D01*
X46852000Y-106450000D01*
X46852000Y-106150000D01*
X46855882Y-106130483D01*
X46866938Y-106113938D01*
X46883483Y-106102882D01*
X46903000Y-106099000D01*
X47703000Y-106099000D01*
X47722517Y-106102882D01*
G37*
G36*
X50522517Y-105802882D02*
G01*
X50539062Y-105813938D01*
X50550118Y-105830483D01*
X50554000Y-105850000D01*
X50554000Y-106150000D01*
X50550118Y-106169517D01*
X50539062Y-106186062D01*
X50522517Y-106197118D01*
X50503000Y-106201000D01*
X49853000Y-106201000D01*
X49833483Y-106197118D01*
X49816938Y-106186062D01*
X49805882Y-106169517D01*
X49802000Y-106150000D01*
X49802000Y-105850000D01*
X49805882Y-105830483D01*
X49816938Y-105813938D01*
X49833483Y-105802882D01*
X49853000Y-105799000D01*
X50503000Y-105799000D01*
X50522517Y-105802882D01*
G37*
G36*
X47722517Y-105502882D02*
G01*
X47739062Y-105513938D01*
X47750118Y-105530483D01*
X47754000Y-105550000D01*
X47754000Y-105850000D01*
X47750118Y-105869517D01*
X47739062Y-105886062D01*
X47722517Y-105897118D01*
X47703000Y-105901000D01*
X46903000Y-105901000D01*
X46883483Y-105897118D01*
X46866938Y-105886062D01*
X46855882Y-105869517D01*
X46852000Y-105850000D01*
X46852000Y-105550000D01*
X46855882Y-105530483D01*
X46866938Y-105513938D01*
X46883483Y-105502882D01*
X46903000Y-105499000D01*
X47703000Y-105499000D01*
X47722517Y-105502882D01*
G37*
G36*
X51771093Y-105203539D02*
G01*
X51833057Y-105244943D01*
X51874461Y-105306907D01*
X51889000Y-105380000D01*
X51889000Y-105660000D01*
X51874461Y-105733093D01*
X51833057Y-105795057D01*
X51771093Y-105836461D01*
X51698000Y-105851000D01*
X51358000Y-105851000D01*
X51284907Y-105836461D01*
X51222943Y-105795057D01*
X51181539Y-105733093D01*
X51167000Y-105660000D01*
X51167000Y-105380000D01*
X51181539Y-105306907D01*
X51222943Y-105244943D01*
X51284907Y-105203539D01*
X51358000Y-105189000D01*
X51698000Y-105189000D01*
X51771093Y-105203539D01*
G37*
G36*
X50522517Y-105202882D02*
G01*
X50539062Y-105213938D01*
X50550118Y-105230483D01*
X50554000Y-105250000D01*
X50554000Y-105550000D01*
X50550118Y-105569517D01*
X50539062Y-105586062D01*
X50522517Y-105597118D01*
X50503000Y-105601000D01*
X49853000Y-105601000D01*
X49833483Y-105597118D01*
X49816938Y-105586062D01*
X49805882Y-105569517D01*
X49802000Y-105550000D01*
X49802000Y-105250000D01*
X49805882Y-105230483D01*
X49816938Y-105213938D01*
X49833483Y-105202882D01*
X49853000Y-105199000D01*
X50503000Y-105199000D01*
X50522517Y-105202882D01*
G37*
G36*
X78119517Y-104452882D02*
G01*
X78136062Y-104463938D01*
X78147118Y-104480483D01*
X78151000Y-104500000D01*
X78151000Y-105400000D01*
X78147118Y-105419517D01*
X78136062Y-105436062D01*
X78119517Y-105447118D01*
X78100000Y-105451000D01*
X77100000Y-105451000D01*
X77080483Y-105447118D01*
X77063938Y-105436062D01*
X77052882Y-105419517D01*
X77049000Y-105400000D01*
X77049000Y-104500000D01*
X77052882Y-104480483D01*
X77063938Y-104463938D01*
X77080483Y-104452882D01*
X77100000Y-104449000D01*
X78100000Y-104449000D01*
X78119517Y-104452882D01*
G37*
G36*
X79719517Y-104452882D02*
G01*
X79736062Y-104463938D01*
X79747118Y-104480483D01*
X79751000Y-104500000D01*
X79751000Y-105400000D01*
X79747118Y-105419517D01*
X79736062Y-105436062D01*
X79719517Y-105447118D01*
X79700000Y-105451000D01*
X78700000Y-105451000D01*
X78680483Y-105447118D01*
X78663938Y-105436062D01*
X78652882Y-105419517D01*
X78649000Y-105400000D01*
X78649000Y-104500000D01*
X78652882Y-104480483D01*
X78663938Y-104463938D01*
X78680483Y-104452882D01*
X78700000Y-104449000D01*
X79700000Y-104449000D01*
X79719517Y-104452882D01*
G37*
G36*
X47722517Y-104902882D02*
G01*
X47739062Y-104913938D01*
X47750118Y-104930483D01*
X47754000Y-104950000D01*
X47754000Y-105250000D01*
X47750118Y-105269517D01*
X47739062Y-105286062D01*
X47722517Y-105297118D01*
X47703000Y-105301000D01*
X46903000Y-105301000D01*
X46883483Y-105297118D01*
X46866938Y-105286062D01*
X46855882Y-105269517D01*
X46852000Y-105250000D01*
X46852000Y-104950000D01*
X46855882Y-104930483D01*
X46866938Y-104913938D01*
X46883483Y-104902882D01*
X46903000Y-104899000D01*
X47703000Y-104899000D01*
X47722517Y-104902882D01*
G37*
G36*
X50522517Y-104602882D02*
G01*
X50539062Y-104613938D01*
X50550118Y-104630483D01*
X50554000Y-104650000D01*
X50554000Y-104950000D01*
X50550118Y-104969517D01*
X50539062Y-104986062D01*
X50522517Y-104997118D01*
X50503000Y-105001000D01*
X49853000Y-105001000D01*
X49833483Y-104997118D01*
X49816938Y-104986062D01*
X49805882Y-104969517D01*
X49802000Y-104950000D01*
X49802000Y-104650000D01*
X49805882Y-104630483D01*
X49816938Y-104613938D01*
X49833483Y-104602882D01*
X49853000Y-104599000D01*
X50503000Y-104599000D01*
X50522517Y-104602882D01*
G37*
G36*
X51946179Y-104122158D02*
G01*
X52006522Y-104162478D01*
X52046842Y-104222821D01*
X52061000Y-104294000D01*
X52061000Y-104664000D01*
X52046842Y-104735179D01*
X52006522Y-104795522D01*
X51946179Y-104835842D01*
X51875000Y-104850000D01*
X51605000Y-104850000D01*
X51533821Y-104835842D01*
X51473478Y-104795522D01*
X51433158Y-104735179D01*
X51419000Y-104664000D01*
X51419000Y-104294000D01*
X51433158Y-104222821D01*
X51473478Y-104162478D01*
X51533821Y-104122158D01*
X51605000Y-104108000D01*
X51875000Y-104108000D01*
X51946179Y-104122158D01*
G37*
G36*
X52966179Y-104122158D02*
G01*
X53026522Y-104162478D01*
X53066842Y-104222821D01*
X53081000Y-104294000D01*
X53081000Y-104664000D01*
X53066842Y-104735179D01*
X53026522Y-104795522D01*
X52966179Y-104835842D01*
X52895000Y-104850000D01*
X52625000Y-104850000D01*
X52553821Y-104835842D01*
X52493478Y-104795522D01*
X52453158Y-104735179D01*
X52439000Y-104664000D01*
X52439000Y-104294000D01*
X52453158Y-104222821D01*
X52493478Y-104162478D01*
X52553821Y-104122158D01*
X52625000Y-104108000D01*
X52895000Y-104108000D01*
X52966179Y-104122158D01*
G37*
G36*
X47722517Y-104302882D02*
G01*
X47739062Y-104313938D01*
X47750118Y-104330483D01*
X47754000Y-104350000D01*
X47754000Y-104650000D01*
X47750118Y-104669517D01*
X47739062Y-104686062D01*
X47722517Y-104697118D01*
X47703000Y-104701000D01*
X46903000Y-104701000D01*
X46883483Y-104697118D01*
X46866938Y-104686062D01*
X46855882Y-104669517D01*
X46852000Y-104650000D01*
X46852000Y-104350000D01*
X46855882Y-104330483D01*
X46866938Y-104313938D01*
X46883483Y-104302882D01*
X46903000Y-104299000D01*
X47703000Y-104299000D01*
X47722517Y-104302882D01*
G37*
G36*
X50522517Y-104002882D02*
G01*
X50539062Y-104013938D01*
X50550118Y-104030483D01*
X50554000Y-104050000D01*
X50554000Y-104350000D01*
X50550118Y-104369517D01*
X50539062Y-104386062D01*
X50522517Y-104397118D01*
X50503000Y-104401000D01*
X49853000Y-104401000D01*
X49833483Y-104397118D01*
X49816938Y-104386062D01*
X49805882Y-104369517D01*
X49802000Y-104350000D01*
X49802000Y-104050000D01*
X49805882Y-104030483D01*
X49816938Y-104013938D01*
X49833483Y-104002882D01*
X49853000Y-103999000D01*
X50503000Y-103999000D01*
X50522517Y-104002882D01*
G37*
G36*
X69097609Y-103242775D02*
G01*
X69230500Y-103297820D01*
X69344616Y-103385384D01*
X69432180Y-103499500D01*
X69487225Y-103632391D01*
X69506000Y-103775000D01*
X69487225Y-103917609D01*
X69432180Y-104050500D01*
X69344616Y-104164616D01*
X69230500Y-104252180D01*
X69097609Y-104307225D01*
X68955000Y-104326000D01*
X68812391Y-104307225D01*
X68679500Y-104252180D01*
X68565384Y-104164616D01*
X68477820Y-104050500D01*
X68422775Y-103917609D01*
X68404000Y-103775000D01*
X68422775Y-103632391D01*
X68477820Y-103499500D01*
X68565384Y-103385384D01*
X68679500Y-103297820D01*
X68812391Y-103242775D01*
X68955000Y-103224000D01*
X69097609Y-103242775D01*
G37*
G36*
X70744517Y-103227882D02*
G01*
X70761062Y-103238938D01*
X70772118Y-103255483D01*
X70776000Y-103275000D01*
X70776000Y-104275000D01*
X70772118Y-104294517D01*
X70761062Y-104311062D01*
X70744517Y-104322118D01*
X70725000Y-104326000D01*
X69725000Y-104326000D01*
X69705483Y-104322118D01*
X69688938Y-104311062D01*
X69677882Y-104294517D01*
X69674000Y-104275000D01*
X69674000Y-103275000D01*
X69677882Y-103255483D01*
X69688938Y-103238938D01*
X69705483Y-103227882D01*
X69725000Y-103224000D01*
X70725000Y-103224000D01*
X70744517Y-103227882D01*
G37*
G36*
X74869517Y-103102882D02*
G01*
X74886062Y-103113938D01*
X74897118Y-103130483D01*
X74901000Y-103150000D01*
X74901000Y-103700000D01*
X74897118Y-103719517D01*
X74896147Y-103720968D01*
X74895911Y-103723374D01*
X74895911Y-103771157D01*
X74893845Y-103785525D01*
X74853750Y-103922076D01*
X74847720Y-103935281D01*
X74770779Y-104055003D01*
X74761273Y-104065973D01*
X74653718Y-104159170D01*
X74641506Y-104167018D01*
X74512052Y-104226137D01*
X74498124Y-104230227D01*
X74357258Y-104250481D01*
X74350000Y-104251000D01*
X74348398Y-104251000D01*
X73851602Y-104251000D01*
X73850000Y-104251000D01*
X73842742Y-104250481D01*
X73701876Y-104230227D01*
X73687948Y-104226137D01*
X73558494Y-104167018D01*
X73546282Y-104159170D01*
X73438727Y-104065973D01*
X73429221Y-104055003D01*
X73352280Y-103935281D01*
X73346250Y-103922076D01*
X73344908Y-103917507D01*
X73307062Y-103788615D01*
X73307061Y-103788612D01*
X73306155Y-103785525D01*
X73304089Y-103771157D01*
X73304089Y-103723374D01*
X73303852Y-103720968D01*
X73302882Y-103719517D01*
X73299000Y-103700000D01*
X73299000Y-103150000D01*
X73302882Y-103130483D01*
X73313938Y-103113938D01*
X73330483Y-103102882D01*
X73350000Y-103099000D01*
X74850000Y-103099000D01*
X74869517Y-103102882D01*
G37*
G36*
X47722517Y-103702882D02*
G01*
X47739062Y-103713938D01*
X47750118Y-103730483D01*
X47754000Y-103750000D01*
X47754000Y-104050000D01*
X47750118Y-104069517D01*
X47739062Y-104086062D01*
X47722517Y-104097118D01*
X47703000Y-104101000D01*
X46903000Y-104101000D01*
X46883483Y-104097118D01*
X46866938Y-104086062D01*
X46855882Y-104069517D01*
X46852000Y-104050000D01*
X46852000Y-103750000D01*
X46855882Y-103730483D01*
X46866938Y-103713938D01*
X46883483Y-103702882D01*
X46903000Y-103699000D01*
X47703000Y-103699000D01*
X47722517Y-103702882D01*
G37*
G36*
X51946179Y-103098158D02*
G01*
X52006522Y-103138478D01*
X52046842Y-103198821D01*
X52061000Y-103270000D01*
X52061000Y-103640000D01*
X52046842Y-103711179D01*
X52006522Y-103771522D01*
X51946179Y-103811842D01*
X51875000Y-103826000D01*
X51605000Y-103826000D01*
X51533821Y-103811842D01*
X51473478Y-103771522D01*
X51433158Y-103711179D01*
X51419000Y-103640000D01*
X51419000Y-103270000D01*
X51433158Y-103198821D01*
X51473478Y-103138478D01*
X51533821Y-103098158D01*
X51605000Y-103084000D01*
X51875000Y-103084000D01*
X51946179Y-103098158D01*
G37*
G36*
X52966179Y-103098158D02*
G01*
X53026522Y-103138478D01*
X53066842Y-103198821D01*
X53081000Y-103270000D01*
X53081000Y-103640000D01*
X53066842Y-103711179D01*
X53026522Y-103771522D01*
X52966179Y-103811842D01*
X52895000Y-103826000D01*
X52625000Y-103826000D01*
X52553821Y-103811842D01*
X52493478Y-103771522D01*
X52453158Y-103711179D01*
X52439000Y-103640000D01*
X52439000Y-103270000D01*
X52453158Y-103198821D01*
X52493478Y-103138478D01*
X52553821Y-103098158D01*
X52625000Y-103084000D01*
X52895000Y-103084000D01*
X52966179Y-103098158D01*
G37*
G36*
X83314986Y-101392939D02*
G01*
X83513045Y-101469667D01*
X83693632Y-101581482D01*
X83850599Y-101724576D01*
X83978600Y-101894077D01*
X84073276Y-102084211D01*
X84131402Y-102288504D01*
X84151000Y-102500000D01*
X84131402Y-102711496D01*
X84073276Y-102915789D01*
X83978600Y-103105923D01*
X83850599Y-103275424D01*
X83693632Y-103418518D01*
X83513045Y-103530333D01*
X83314986Y-103607061D01*
X83106201Y-103646090D01*
X82893799Y-103646090D01*
X82685014Y-103607061D01*
X82486955Y-103530333D01*
X82306368Y-103418518D01*
X82149401Y-103275424D01*
X82021400Y-103105923D01*
X81926724Y-102915789D01*
X81868598Y-102711496D01*
X81849000Y-102500000D01*
X81868598Y-102288504D01*
X81926724Y-102084211D01*
X82021400Y-101894077D01*
X82149401Y-101724576D01*
X82306368Y-101581482D01*
X82486955Y-101469667D01*
X82685014Y-101392939D01*
X82893799Y-101353910D01*
X83106201Y-101353910D01*
X83314986Y-101392939D01*
G37*
G36*
X92623552Y-102501663D02*
G01*
X92628138Y-102503688D01*
X92631076Y-102504075D01*
X92667825Y-102521211D01*
X92720542Y-102544488D01*
X92795512Y-102619458D01*
X92818802Y-102672207D01*
X92835924Y-102708924D01*
X92836310Y-102711857D01*
X92838337Y-102716448D01*
X92846000Y-102782500D01*
X92846000Y-103357500D01*
X92838337Y-103423552D01*
X92836310Y-103428142D01*
X92835924Y-103431076D01*
X92818806Y-103467785D01*
X92795512Y-103520542D01*
X92720542Y-103595512D01*
X92667773Y-103618811D01*
X92631075Y-103635924D01*
X92628142Y-103636310D01*
X92623552Y-103638337D01*
X92557500Y-103646000D01*
X92082500Y-103646000D01*
X92016448Y-103638337D01*
X92011858Y-103636310D01*
X92008923Y-103635924D01*
X91972196Y-103618798D01*
X91919458Y-103595512D01*
X91844488Y-103520542D01*
X91821206Y-103467814D01*
X91804075Y-103431075D01*
X91803688Y-103428139D01*
X91801663Y-103423552D01*
X91794000Y-103357500D01*
X91794000Y-102782500D01*
X91801663Y-102716448D01*
X91803688Y-102711861D01*
X91804075Y-102708923D01*
X91821219Y-102672155D01*
X91844488Y-102619458D01*
X91919458Y-102544488D01*
X91972167Y-102521214D01*
X92008924Y-102504075D01*
X92011861Y-102503688D01*
X92016448Y-102501663D01*
X92082500Y-102494000D01*
X92557500Y-102494000D01*
X92623552Y-102501663D01*
G37*
G36*
X48072517Y-102952882D02*
G01*
X48089062Y-102963938D01*
X48100118Y-102980483D01*
X48104000Y-103000000D01*
X48104000Y-103400000D01*
X48100118Y-103419517D01*
X48089062Y-103436062D01*
X48072517Y-103447118D01*
X48053000Y-103451000D01*
X47103000Y-103451000D01*
X47083483Y-103447118D01*
X47066938Y-103436062D01*
X47055882Y-103419517D01*
X47052000Y-103400000D01*
X47052000Y-103000000D01*
X47055882Y-102980483D01*
X47066938Y-102963938D01*
X47083483Y-102952882D01*
X47103000Y-102949000D01*
X48053000Y-102949000D01*
X48072517Y-102952882D01*
G37*
G36*
X25564517Y-101652882D02*
G01*
X25581062Y-101663938D01*
X25592118Y-101680483D01*
X25596000Y-101700000D01*
X25596000Y-103300000D01*
X25592118Y-103319517D01*
X25581062Y-103336062D01*
X25564517Y-103347118D01*
X25545000Y-103351000D01*
X24295000Y-103351000D01*
X24275483Y-103347118D01*
X24258938Y-103336062D01*
X24247882Y-103319517D01*
X24244000Y-103300000D01*
X24244000Y-101700000D01*
X24247882Y-101680483D01*
X24258938Y-101663938D01*
X24275483Y-101652882D01*
X24295000Y-101649000D01*
X25545000Y-101649000D01*
X25564517Y-101652882D01*
G37*
G36*
X27324517Y-101652882D02*
G01*
X27341062Y-101663938D01*
X27352118Y-101680483D01*
X27356000Y-101700000D01*
X27356000Y-103300000D01*
X27352118Y-103319517D01*
X27341062Y-103336062D01*
X27324517Y-103347118D01*
X27305000Y-103351000D01*
X26055000Y-103351000D01*
X26035483Y-103347118D01*
X26018938Y-103336062D01*
X26007882Y-103319517D01*
X26004000Y-103300000D01*
X26004000Y-101700000D01*
X26007882Y-101680483D01*
X26018938Y-101663938D01*
X26035483Y-101652882D01*
X26055000Y-101649000D01*
X27305000Y-101649000D01*
X27324517Y-101652882D01*
G37*
G36*
X97719517Y-102152882D02*
G01*
X97736062Y-102163938D01*
X97747118Y-102180483D01*
X97751000Y-102200000D01*
X97751000Y-103200000D01*
X97747118Y-103219517D01*
X97736062Y-103236062D01*
X97719517Y-103247118D01*
X97700000Y-103251000D01*
X96800000Y-103251000D01*
X96780483Y-103247118D01*
X96763938Y-103236062D01*
X96752882Y-103219517D01*
X96749000Y-103200000D01*
X96749000Y-102200000D01*
X96752882Y-102180483D01*
X96763938Y-102163938D01*
X96780483Y-102152882D01*
X96800000Y-102149000D01*
X97700000Y-102149000D01*
X97719517Y-102152882D01*
G37*
G36*
X101819517Y-102152882D02*
G01*
X101836062Y-102163938D01*
X101847118Y-102180483D01*
X101851000Y-102200000D01*
X101851000Y-103200000D01*
X101847118Y-103219517D01*
X101836062Y-103236062D01*
X101819517Y-103247118D01*
X101800000Y-103251000D01*
X100900000Y-103251000D01*
X100880483Y-103247118D01*
X100863938Y-103236062D01*
X100852882Y-103219517D01*
X100849000Y-103200000D01*
X100849000Y-102200000D01*
X100852882Y-102180483D01*
X100863938Y-102163938D01*
X100880483Y-102152882D01*
X100900000Y-102149000D01*
X101800000Y-102149000D01*
X101819517Y-102152882D01*
G37*
G36*
X69097609Y-101972775D02*
G01*
X69230500Y-102027820D01*
X69344616Y-102115384D01*
X69432180Y-102229500D01*
X69487225Y-102362391D01*
X69506000Y-102505000D01*
X69487225Y-102647609D01*
X69432180Y-102780500D01*
X69344616Y-102894616D01*
X69230500Y-102982180D01*
X69097609Y-103037225D01*
X68955000Y-103056000D01*
X68812391Y-103037225D01*
X68679500Y-102982180D01*
X68565384Y-102894616D01*
X68477820Y-102780500D01*
X68422775Y-102647609D01*
X68404000Y-102505000D01*
X68422775Y-102362391D01*
X68477820Y-102229500D01*
X68565384Y-102115384D01*
X68679500Y-102027820D01*
X68812391Y-101972775D01*
X68955000Y-101954000D01*
X69097609Y-101972775D01*
G37*
G36*
X70367609Y-101972775D02*
G01*
X70500500Y-102027820D01*
X70614616Y-102115384D01*
X70702180Y-102229500D01*
X70757225Y-102362391D01*
X70776000Y-102505000D01*
X70757225Y-102647609D01*
X70702180Y-102780500D01*
X70614616Y-102894616D01*
X70500500Y-102982180D01*
X70367609Y-103037225D01*
X70225000Y-103056000D01*
X70082391Y-103037225D01*
X69949500Y-102982180D01*
X69835384Y-102894616D01*
X69747820Y-102780500D01*
X69692775Y-102647609D01*
X69674000Y-102505000D01*
X69692775Y-102362391D01*
X69747820Y-102229500D01*
X69835384Y-102115384D01*
X69949500Y-102027820D01*
X70082391Y-101972775D01*
X70225000Y-101954000D01*
X70367609Y-101972775D01*
G37*
G36*
X29378638Y-101974723D02*
G01*
X29430819Y-101980777D01*
X29448647Y-101988649D01*
X29471054Y-101993106D01*
X29495042Y-102009134D01*
X29516409Y-102018569D01*
X29531002Y-102033162D01*
X29552484Y-102047516D01*
X29566837Y-102068997D01*
X29581430Y-102083590D01*
X29590863Y-102104954D01*
X29606894Y-102128946D01*
X29611351Y-102151354D01*
X29619222Y-102169180D01*
X29625274Y-102221351D01*
X29626000Y-102225000D01*
X29626000Y-102775000D01*
X29625273Y-102778651D01*
X29619222Y-102830819D01*
X29611351Y-102848643D01*
X29606894Y-102871054D01*
X29590862Y-102895047D01*
X29581430Y-102916409D01*
X29566839Y-102930999D01*
X29552484Y-102952484D01*
X29530999Y-102966839D01*
X29516409Y-102981430D01*
X29495047Y-102990862D01*
X29471054Y-103006894D01*
X29448643Y-103011351D01*
X29430819Y-103019222D01*
X29378650Y-103025273D01*
X29375000Y-103026000D01*
X28975000Y-103026000D01*
X28971351Y-103025274D01*
X28919180Y-103019222D01*
X28901354Y-103011351D01*
X28878946Y-103006894D01*
X28854954Y-102990863D01*
X28833590Y-102981430D01*
X28818997Y-102966837D01*
X28797516Y-102952484D01*
X28783162Y-102931002D01*
X28768569Y-102916409D01*
X28759134Y-102895042D01*
X28743106Y-102871054D01*
X28738649Y-102848647D01*
X28730777Y-102830819D01*
X28724723Y-102778638D01*
X28724000Y-102775000D01*
X28724000Y-102225000D01*
X28724723Y-102221361D01*
X28730777Y-102169180D01*
X28738649Y-102151350D01*
X28743106Y-102128946D01*
X28759133Y-102104959D01*
X28768569Y-102083590D01*
X28783164Y-102068994D01*
X28797516Y-102047516D01*
X28818994Y-102033164D01*
X28833590Y-102018569D01*
X28854959Y-102009133D01*
X28878946Y-101993106D01*
X28901350Y-101988649D01*
X28919180Y-101980777D01*
X28971363Y-101974723D01*
X28975000Y-101974000D01*
X29375000Y-101974000D01*
X29378638Y-101974723D01*
G37*
G36*
X31028638Y-101974723D02*
G01*
X31080819Y-101980777D01*
X31098647Y-101988649D01*
X31121054Y-101993106D01*
X31145042Y-102009134D01*
X31166409Y-102018569D01*
X31181002Y-102033162D01*
X31202484Y-102047516D01*
X31216837Y-102068997D01*
X31231430Y-102083590D01*
X31240863Y-102104954D01*
X31256894Y-102128946D01*
X31261351Y-102151354D01*
X31269222Y-102169180D01*
X31275274Y-102221351D01*
X31276000Y-102225000D01*
X31276000Y-102775000D01*
X31275273Y-102778651D01*
X31269222Y-102830819D01*
X31261351Y-102848643D01*
X31256894Y-102871054D01*
X31240862Y-102895047D01*
X31231430Y-102916409D01*
X31216839Y-102930999D01*
X31202484Y-102952484D01*
X31180999Y-102966839D01*
X31166409Y-102981430D01*
X31145047Y-102990862D01*
X31121054Y-103006894D01*
X31098643Y-103011351D01*
X31080819Y-103019222D01*
X31028650Y-103025273D01*
X31025000Y-103026000D01*
X30625000Y-103026000D01*
X30621351Y-103025274D01*
X30569180Y-103019222D01*
X30551354Y-103011351D01*
X30528946Y-103006894D01*
X30504954Y-102990863D01*
X30483590Y-102981430D01*
X30468997Y-102966837D01*
X30447516Y-102952484D01*
X30433162Y-102931002D01*
X30418569Y-102916409D01*
X30409134Y-102895042D01*
X30393106Y-102871054D01*
X30388649Y-102848647D01*
X30380777Y-102830819D01*
X30374723Y-102778638D01*
X30374000Y-102775000D01*
X30374000Y-102225000D01*
X30374723Y-102221361D01*
X30380777Y-102169180D01*
X30388649Y-102151350D01*
X30393106Y-102128946D01*
X30409133Y-102104959D01*
X30418569Y-102083590D01*
X30433164Y-102068994D01*
X30447516Y-102047516D01*
X30468994Y-102033164D01*
X30483590Y-102018569D01*
X30504959Y-102009133D01*
X30528946Y-101993106D01*
X30551350Y-101988649D01*
X30569180Y-101980777D01*
X30621363Y-101974723D01*
X30625000Y-101974000D01*
X31025000Y-101974000D01*
X31028638Y-101974723D01*
G37*
G36*
X94496179Y-102243158D02*
G01*
X94556522Y-102283478D01*
X94596842Y-102343821D01*
X94611000Y-102415000D01*
X94611000Y-102785000D01*
X94596842Y-102856179D01*
X94556522Y-102916522D01*
X94496179Y-102956842D01*
X94425000Y-102971000D01*
X94155000Y-102971000D01*
X94083821Y-102956842D01*
X94023478Y-102916522D01*
X93983158Y-102856179D01*
X93969000Y-102785000D01*
X93969000Y-102415000D01*
X93983158Y-102343821D01*
X94023478Y-102283478D01*
X94083821Y-102243158D01*
X94155000Y-102229000D01*
X94425000Y-102229000D01*
X94496179Y-102243158D01*
G37*
G36*
X95516179Y-102243158D02*
G01*
X95576522Y-102283478D01*
X95616842Y-102343821D01*
X95631000Y-102415000D01*
X95631000Y-102785000D01*
X95616842Y-102856179D01*
X95576522Y-102916522D01*
X95516179Y-102956842D01*
X95445000Y-102971000D01*
X95175000Y-102971000D01*
X95103821Y-102956842D01*
X95043478Y-102916522D01*
X95003158Y-102856179D01*
X94989000Y-102785000D01*
X94989000Y-102415000D01*
X95003158Y-102343821D01*
X95043478Y-102283478D01*
X95103821Y-102243158D01*
X95175000Y-102229000D01*
X95445000Y-102229000D01*
X95516179Y-102243158D01*
G37*
G36*
X74869517Y-101852882D02*
G01*
X74886062Y-101863938D01*
X74897118Y-101880483D01*
X74901000Y-101900000D01*
X74901000Y-102900000D01*
X74897118Y-102919517D01*
X74886062Y-102936062D01*
X74869517Y-102947118D01*
X74850000Y-102951000D01*
X73350000Y-102951000D01*
X73330483Y-102947118D01*
X73313938Y-102936062D01*
X73302882Y-102919517D01*
X73299000Y-102900000D01*
X73299000Y-101900000D01*
X73302882Y-101880483D01*
X73313938Y-101863938D01*
X73330483Y-101852882D01*
X73350000Y-101849000D01*
X74850000Y-101849000D01*
X74869517Y-101852882D01*
G37*
G36*
X59864517Y-101437882D02*
G01*
X59881062Y-101448938D01*
X59892118Y-101465483D01*
X59896000Y-101485000D01*
X59896000Y-102785000D01*
X59892118Y-102804517D01*
X59881062Y-102821062D01*
X59864517Y-102832118D01*
X59845000Y-102836000D01*
X58745000Y-102836000D01*
X58725483Y-102832118D01*
X58708938Y-102821062D01*
X58697882Y-102804517D01*
X58694000Y-102785000D01*
X58694000Y-101485000D01*
X58697882Y-101465483D01*
X58708938Y-101448938D01*
X58725483Y-101437882D01*
X58745000Y-101434000D01*
X59845000Y-101434000D01*
X59864517Y-101437882D01*
G37*
G36*
X63674517Y-101437882D02*
G01*
X63691062Y-101448938D01*
X63702118Y-101465483D01*
X63706000Y-101485000D01*
X63706000Y-102785000D01*
X63702118Y-102804517D01*
X63691062Y-102821062D01*
X63674517Y-102832118D01*
X63655000Y-102836000D01*
X62555000Y-102836000D01*
X62535483Y-102832118D01*
X62518938Y-102821062D01*
X62507882Y-102804517D01*
X62504000Y-102785000D01*
X62504000Y-101485000D01*
X62507882Y-101465483D01*
X62518938Y-101448938D01*
X62535483Y-101437882D01*
X62555000Y-101434000D01*
X63655000Y-101434000D01*
X63674517Y-101437882D01*
G37*
G36*
X49896914Y-100731995D02*
G01*
X49901645Y-100734084D01*
X49904811Y-100734501D01*
X49944442Y-100752981D01*
X49998106Y-100776676D01*
X50076324Y-100854894D01*
X50100028Y-100908579D01*
X50118498Y-100948188D01*
X50118914Y-100951351D01*
X50121005Y-100956086D01*
X50129000Y-101025000D01*
X50129000Y-101975000D01*
X50121005Y-102043914D01*
X50118914Y-102048648D01*
X50118498Y-102051811D01*
X50100036Y-102091402D01*
X50076324Y-102145106D01*
X49998106Y-102223324D01*
X49944402Y-102247036D01*
X49904811Y-102265498D01*
X49901648Y-102265914D01*
X49896914Y-102268005D01*
X49828000Y-102276000D01*
X49328000Y-102276000D01*
X49259086Y-102268005D01*
X49254351Y-102265914D01*
X49251188Y-102265498D01*
X49211579Y-102247028D01*
X49157894Y-102223324D01*
X49079676Y-102145106D01*
X49055981Y-102091442D01*
X49037501Y-102051811D01*
X49037084Y-102048645D01*
X49034995Y-102043914D01*
X49027000Y-101975000D01*
X49027000Y-101025000D01*
X49034995Y-100956086D01*
X49037084Y-100951354D01*
X49037501Y-100948188D01*
X49055989Y-100908538D01*
X49079676Y-100854894D01*
X49157894Y-100776676D01*
X49211538Y-100752989D01*
X49251188Y-100734501D01*
X49254354Y-100734084D01*
X49259086Y-100731995D01*
X49328000Y-100724000D01*
X49828000Y-100724000D01*
X49896914Y-100731995D01*
G37*
G36*
X51796914Y-100731995D02*
G01*
X51801645Y-100734084D01*
X51804811Y-100734501D01*
X51844442Y-100752981D01*
X51898106Y-100776676D01*
X51976324Y-100854894D01*
X52000028Y-100908579D01*
X52018498Y-100948188D01*
X52018914Y-100951351D01*
X52021005Y-100956086D01*
X52029000Y-101025000D01*
X52029000Y-101975000D01*
X52021005Y-102043914D01*
X52018914Y-102048648D01*
X52018498Y-102051811D01*
X52000036Y-102091402D01*
X51976324Y-102145106D01*
X51898106Y-102223324D01*
X51844402Y-102247036D01*
X51804811Y-102265498D01*
X51801648Y-102265914D01*
X51796914Y-102268005D01*
X51728000Y-102276000D01*
X51228000Y-102276000D01*
X51159086Y-102268005D01*
X51154351Y-102265914D01*
X51151188Y-102265498D01*
X51111579Y-102247028D01*
X51057894Y-102223324D01*
X50979676Y-102145106D01*
X50955981Y-102091442D01*
X50937501Y-102051811D01*
X50937084Y-102048645D01*
X50934995Y-102043914D01*
X50927000Y-101975000D01*
X50927000Y-101025000D01*
X50934995Y-100956086D01*
X50937084Y-100951354D01*
X50937501Y-100948188D01*
X50955989Y-100908538D01*
X50979676Y-100854894D01*
X51057894Y-100776676D01*
X51111538Y-100752989D01*
X51151188Y-100734501D01*
X51154354Y-100734084D01*
X51159086Y-100731995D01*
X51228000Y-100724000D01*
X51728000Y-100724000D01*
X51796914Y-100731995D01*
G37*
G36*
X46261093Y-101403539D02*
G01*
X46323057Y-101444943D01*
X46364461Y-101506907D01*
X46379000Y-101580000D01*
X46379000Y-101920000D01*
X46364461Y-101993093D01*
X46323057Y-102055057D01*
X46261093Y-102096461D01*
X46188000Y-102111000D01*
X45908000Y-102111000D01*
X45834907Y-102096461D01*
X45772943Y-102055057D01*
X45731539Y-101993093D01*
X45717000Y-101920000D01*
X45717000Y-101580000D01*
X45731539Y-101506907D01*
X45772943Y-101444943D01*
X45834907Y-101403539D01*
X45908000Y-101389000D01*
X46188000Y-101389000D01*
X46261093Y-101403539D01*
G37*
G36*
X47221093Y-101403539D02*
G01*
X47283057Y-101444943D01*
X47324461Y-101506907D01*
X47339000Y-101580000D01*
X47339000Y-101920000D01*
X47324461Y-101993093D01*
X47283057Y-102055057D01*
X47221093Y-102096461D01*
X47148000Y-102111000D01*
X46868000Y-102111000D01*
X46794907Y-102096461D01*
X46732943Y-102055057D01*
X46691539Y-101993093D01*
X46677000Y-101920000D01*
X46677000Y-101580000D01*
X46691539Y-101506907D01*
X46732943Y-101444943D01*
X46794907Y-101403539D01*
X46868000Y-101389000D01*
X47148000Y-101389000D01*
X47221093Y-101403539D01*
G37*
G36*
X92623552Y-100751663D02*
G01*
X92628138Y-100753688D01*
X92631076Y-100754075D01*
X92667825Y-100771211D01*
X92720542Y-100794488D01*
X92795512Y-100869458D01*
X92818802Y-100922207D01*
X92835924Y-100958924D01*
X92836310Y-100961857D01*
X92838337Y-100966448D01*
X92846000Y-101032500D01*
X92846000Y-101607500D01*
X92838337Y-101673552D01*
X92836310Y-101678142D01*
X92835924Y-101681076D01*
X92818806Y-101717785D01*
X92795512Y-101770542D01*
X92720542Y-101845512D01*
X92667773Y-101868811D01*
X92631075Y-101885924D01*
X92628142Y-101886310D01*
X92623552Y-101888337D01*
X92557500Y-101896000D01*
X92082500Y-101896000D01*
X92016448Y-101888337D01*
X92011858Y-101886310D01*
X92008923Y-101885924D01*
X91972196Y-101868798D01*
X91919458Y-101845512D01*
X91844488Y-101770542D01*
X91821206Y-101717814D01*
X91804075Y-101681075D01*
X91803688Y-101678139D01*
X91801663Y-101673552D01*
X91794000Y-101607500D01*
X91794000Y-101032500D01*
X91801663Y-100966448D01*
X91803688Y-100961861D01*
X91804075Y-100958923D01*
X91821219Y-100922155D01*
X91844488Y-100869458D01*
X91919458Y-100794488D01*
X91972167Y-100771214D01*
X92008924Y-100754075D01*
X92011861Y-100753688D01*
X92016448Y-100751663D01*
X92082500Y-100744000D01*
X92557500Y-100744000D01*
X92623552Y-100751663D01*
G37*
G36*
X69097609Y-100702775D02*
G01*
X69230500Y-100757820D01*
X69344616Y-100845384D01*
X69432180Y-100959500D01*
X69487225Y-101092391D01*
X69506000Y-101235000D01*
X69487225Y-101377609D01*
X69432180Y-101510500D01*
X69344616Y-101624616D01*
X69230500Y-101712180D01*
X69097609Y-101767225D01*
X68955000Y-101786000D01*
X68812391Y-101767225D01*
X68679500Y-101712180D01*
X68565384Y-101624616D01*
X68477820Y-101510500D01*
X68422775Y-101377609D01*
X68404000Y-101235000D01*
X68422775Y-101092391D01*
X68477820Y-100959500D01*
X68565384Y-100845384D01*
X68679500Y-100757820D01*
X68812391Y-100702775D01*
X68955000Y-100684000D01*
X69097609Y-100702775D01*
G37*
G36*
X70367609Y-100702775D02*
G01*
X70500500Y-100757820D01*
X70614616Y-100845384D01*
X70702180Y-100959500D01*
X70757225Y-101092391D01*
X70776000Y-101235000D01*
X70757225Y-101377609D01*
X70702180Y-101510500D01*
X70614616Y-101624616D01*
X70500500Y-101712180D01*
X70367609Y-101767225D01*
X70225000Y-101786000D01*
X70082391Y-101767225D01*
X69949500Y-101712180D01*
X69835384Y-101624616D01*
X69747820Y-101510500D01*
X69692775Y-101377609D01*
X69674000Y-101235000D01*
X69692775Y-101092391D01*
X69747820Y-100959500D01*
X69835384Y-100845384D01*
X69949500Y-100757820D01*
X70082391Y-100702775D01*
X70225000Y-100684000D01*
X70367609Y-100702775D01*
G37*
G36*
X74357258Y-100549519D02*
G01*
X74358830Y-100549745D01*
X74358843Y-100549746D01*
X74494939Y-100569315D01*
X74498124Y-100569773D01*
X74512052Y-100573863D01*
X74514973Y-100575197D01*
X74514976Y-100575198D01*
X74638584Y-100631647D01*
X74638587Y-100631649D01*
X74641506Y-100632982D01*
X74653718Y-100640830D01*
X74761273Y-100734027D01*
X74770779Y-100744997D01*
X74847720Y-100864719D01*
X74853750Y-100877924D01*
X74893845Y-101014475D01*
X74895911Y-101028843D01*
X74895911Y-101032062D01*
X74895911Y-101076625D01*
X74896147Y-101079030D01*
X74897118Y-101080483D01*
X74901000Y-101100000D01*
X74901000Y-101650000D01*
X74897118Y-101669517D01*
X74886062Y-101686062D01*
X74869517Y-101697118D01*
X74850000Y-101701000D01*
X74845571Y-101701000D01*
X73354429Y-101701000D01*
X73350000Y-101701000D01*
X73330483Y-101697118D01*
X73313938Y-101686062D01*
X73302882Y-101669517D01*
X73299000Y-101650000D01*
X73299000Y-101100000D01*
X73302882Y-101080483D01*
X73303852Y-101079030D01*
X73304089Y-101076625D01*
X73304089Y-101032062D01*
X73304089Y-101028843D01*
X73306155Y-101014475D01*
X73307061Y-101011388D01*
X73307062Y-101011384D01*
X73345344Y-100881008D01*
X73345345Y-100881005D01*
X73346250Y-100877924D01*
X73352280Y-100864719D01*
X73429221Y-100744997D01*
X73438727Y-100734027D01*
X73441156Y-100731921D01*
X73441159Y-100731919D01*
X73543853Y-100642934D01*
X73543856Y-100642931D01*
X73546282Y-100640830D01*
X73558494Y-100632982D01*
X73561409Y-100631650D01*
X73561415Y-100631647D01*
X73685023Y-100575198D01*
X73685027Y-100575196D01*
X73687948Y-100573863D01*
X73701876Y-100569773D01*
X73705058Y-100569315D01*
X73705060Y-100569315D01*
X73841156Y-100549746D01*
X73841170Y-100549744D01*
X73842742Y-100549519D01*
X73850000Y-100549000D01*
X74350000Y-100549000D01*
X74357258Y-100549519D01*
G37*
G36*
X94496179Y-100943158D02*
G01*
X94556522Y-100983478D01*
X94596842Y-101043821D01*
X94611000Y-101115000D01*
X94611000Y-101485000D01*
X94596842Y-101556179D01*
X94556522Y-101616522D01*
X94496179Y-101656842D01*
X94425000Y-101671000D01*
X94155000Y-101671000D01*
X94083821Y-101656842D01*
X94023478Y-101616522D01*
X93983158Y-101556179D01*
X93969000Y-101485000D01*
X93969000Y-101115000D01*
X93983158Y-101043821D01*
X94023478Y-100983478D01*
X94083821Y-100943158D01*
X94155000Y-100929000D01*
X94425000Y-100929000D01*
X94496179Y-100943158D01*
G37*
G36*
X95516179Y-100943158D02*
G01*
X95576522Y-100983478D01*
X95616842Y-101043821D01*
X95631000Y-101115000D01*
X95631000Y-101485000D01*
X95616842Y-101556179D01*
X95576522Y-101616522D01*
X95516179Y-101656842D01*
X95445000Y-101671000D01*
X95175000Y-101671000D01*
X95103821Y-101656842D01*
X95043478Y-101616522D01*
X95003158Y-101556179D01*
X94989000Y-101485000D01*
X94989000Y-101115000D01*
X95003158Y-101043821D01*
X95043478Y-100983478D01*
X95103821Y-100943158D01*
X95175000Y-100929000D01*
X95445000Y-100929000D01*
X95516179Y-100943158D01*
G37*
G36*
X97719517Y-100552882D02*
G01*
X97736062Y-100563938D01*
X97747118Y-100580483D01*
X97751000Y-100600000D01*
X97751000Y-101600000D01*
X97747118Y-101619517D01*
X97736062Y-101636062D01*
X97719517Y-101647118D01*
X97700000Y-101651000D01*
X96800000Y-101651000D01*
X96780483Y-101647118D01*
X96763938Y-101636062D01*
X96752882Y-101619517D01*
X96749000Y-101600000D01*
X96749000Y-100600000D01*
X96752882Y-100580483D01*
X96763938Y-100563938D01*
X96780483Y-100552882D01*
X96800000Y-100549000D01*
X97700000Y-100549000D01*
X97719517Y-100552882D01*
G37*
G36*
X101819517Y-100552882D02*
G01*
X101836062Y-100563938D01*
X101847118Y-100580483D01*
X101851000Y-100600000D01*
X101851000Y-101600000D01*
X101847118Y-101619517D01*
X101836062Y-101636062D01*
X101819517Y-101647118D01*
X101800000Y-101651000D01*
X100900000Y-101651000D01*
X100880483Y-101647118D01*
X100863938Y-101636062D01*
X100852882Y-101619517D01*
X100849000Y-101600000D01*
X100849000Y-100600000D01*
X100852882Y-100580483D01*
X100863938Y-100563938D01*
X100880483Y-100552882D01*
X100900000Y-100549000D01*
X101800000Y-100549000D01*
X101819517Y-100552882D01*
G37*
G36*
X78119517Y-100352882D02*
G01*
X78136062Y-100363938D01*
X78147118Y-100380483D01*
X78151000Y-100400000D01*
X78151000Y-101300000D01*
X78147118Y-101319517D01*
X78136062Y-101336062D01*
X78119517Y-101347118D01*
X78100000Y-101351000D01*
X77100000Y-101351000D01*
X77080483Y-101347118D01*
X77063938Y-101336062D01*
X77052882Y-101319517D01*
X77049000Y-101300000D01*
X77049000Y-100400000D01*
X77052882Y-100380483D01*
X77063938Y-100363938D01*
X77080483Y-100352882D01*
X77100000Y-100349000D01*
X78100000Y-100349000D01*
X78119517Y-100352882D01*
G37*
G36*
X79719517Y-100352882D02*
G01*
X79736062Y-100363938D01*
X79747118Y-100380483D01*
X79751000Y-100400000D01*
X79751000Y-101300000D01*
X79747118Y-101319517D01*
X79736062Y-101336062D01*
X79719517Y-101347118D01*
X79700000Y-101351000D01*
X78700000Y-101351000D01*
X78680483Y-101347118D01*
X78663938Y-101336062D01*
X78652882Y-101319517D01*
X78649000Y-101300000D01*
X78649000Y-100400000D01*
X78652882Y-100380483D01*
X78663938Y-100363938D01*
X78680483Y-100352882D01*
X78700000Y-100349000D01*
X79700000Y-100349000D01*
X79719517Y-100352882D01*
G37*
M02*
