G04 #@! TF.GenerationSoftware,KiCad,Pcbnew,7.0.6*
G04 #@! TF.CreationDate,2024-03-12T10:09:57+11:00*
G04 #@! TF.ProjectId,owts,6f777473-2e6b-4696-9361-645f70636258,1.2.0*
G04 #@! TF.SameCoordinates,Original*
G04 #@! TF.FileFunction,Copper,L2,Inr*
G04 #@! TF.FilePolarity,Positive*
%FSLAX46Y46*%
G04 Gerber Fmt 4.6, Leading zero omitted, Abs format (unit mm)*
G04 Created by KiCad (PCBNEW 7.0.6) date 2024-03-12 10:09:57*
%MOMM*%
%LPD*%
G01*
G04 APERTURE LIST*
G04 #@! TA.AperFunction,ComponentPad*
%ADD10R,1.700000X1.700000*%
G04 #@! TD*
G04 #@! TA.AperFunction,ComponentPad*
%ADD11O,1.700000X1.700000*%
G04 #@! TD*
G04 #@! TA.AperFunction,ComponentPad*
%ADD12R,1.000000X1.000000*%
G04 #@! TD*
G04 #@! TA.AperFunction,ComponentPad*
%ADD13O,1.000000X1.000000*%
G04 #@! TD*
G04 #@! TA.AperFunction,ViaPad*
%ADD14C,0.500000*%
G04 #@! TD*
G04 #@! TA.AperFunction,ViaPad*
%ADD15C,0.300000*%
G04 #@! TD*
G04 #@! TA.AperFunction,ViaPad*
%ADD16C,0.600000*%
G04 #@! TD*
G04 #@! TA.AperFunction,Conductor*
%ADD17C,0.160000*%
G04 #@! TD*
G04 APERTURE END LIST*
D10*
X73075000Y-112875000D03*
D11*
X73075000Y-110335000D03*
X75615000Y-112875000D03*
X75615000Y-110335000D03*
X78155000Y-112875000D03*
X78155000Y-110335000D03*
X80695000Y-112875000D03*
X80695000Y-110335000D03*
D12*
X70225000Y-103775000D03*
D13*
X68955000Y-103775000D03*
X70225000Y-102505000D03*
X68955000Y-102505000D03*
X70225000Y-101235000D03*
X68955000Y-101235000D03*
D14*
X27750000Y-111000000D03*
D15*
X51500000Y-113750000D03*
X55450000Y-113550000D03*
X54250000Y-113200000D03*
D14*
X30825000Y-109125000D03*
D15*
X48825000Y-107075000D03*
X48750000Y-106300000D03*
X53190000Y-103715000D03*
X46740000Y-107505000D03*
X53000000Y-105250000D03*
X62675000Y-111655000D03*
X48750000Y-105250000D03*
X59960000Y-111895000D03*
X51100000Y-107250000D03*
D14*
X59410000Y-113485000D03*
X60250000Y-113265000D03*
X61000000Y-104225000D03*
X48777502Y-107850000D03*
X60980000Y-103505000D03*
X60240000Y-103385000D03*
X48756694Y-108572751D03*
X59720000Y-101035000D03*
X59450000Y-103375000D03*
X48777502Y-109400000D03*
X58025000Y-101305000D03*
X57539058Y-101844058D03*
D15*
X49250000Y-105000000D03*
D14*
X48775000Y-110175000D03*
X58219495Y-101985505D03*
X40400000Y-101805000D03*
X56421558Y-105501558D03*
X41200000Y-106405000D03*
X55000000Y-109005000D03*
X55225000Y-101505000D03*
D16*
X97225000Y-113355000D03*
D14*
X48100000Y-101400000D03*
X55836667Y-111879500D03*
X45600000Y-109405000D03*
D16*
X63747086Y-103224968D03*
D15*
X58730000Y-113195000D03*
D16*
X100125000Y-101105000D03*
X97525000Y-104955000D03*
D14*
X41800000Y-101805000D03*
D16*
X63475156Y-111780000D03*
X67050000Y-108580000D03*
D14*
X52700000Y-106500000D03*
X43600000Y-101805000D03*
D16*
X84700000Y-108400000D03*
X72100000Y-105445500D03*
D14*
X62596800Y-109003200D03*
X39400000Y-104605000D03*
X35600000Y-101205000D03*
X64475000Y-107855000D03*
X39400000Y-101205000D03*
X45600000Y-106405000D03*
X41200000Y-109405000D03*
D16*
X91240000Y-103075000D03*
X86300000Y-113100000D03*
D14*
X44600000Y-106405000D03*
X52748500Y-101745000D03*
X44600000Y-109405000D03*
X35600000Y-104605000D03*
X40400000Y-103805000D03*
D16*
X79200000Y-102175000D03*
X87510000Y-109695000D03*
D14*
X41800000Y-103805000D03*
X46766652Y-111742471D03*
D16*
X75650000Y-104365000D03*
X51478000Y-101365000D03*
X82750000Y-108200000D03*
D14*
X62600000Y-107900000D03*
X45200000Y-101805000D03*
D16*
X80620000Y-100935000D03*
D15*
X48800000Y-113700000D03*
D14*
X65050000Y-109900000D03*
D15*
X59000000Y-110415000D03*
D16*
X61880000Y-113445000D03*
X62169049Y-101254581D03*
D15*
X57230540Y-112998428D03*
X57730000Y-113005000D03*
D14*
X53220000Y-113264500D03*
X87350000Y-106309500D03*
X52598561Y-113453356D03*
X85875000Y-106830000D03*
X86700000Y-106880000D03*
X51982673Y-113247115D03*
X85867959Y-105805500D03*
D15*
X51300000Y-111995000D03*
D14*
X50530000Y-101465000D03*
X75600000Y-103100000D03*
X52470000Y-100905000D03*
X65400000Y-101204500D03*
X72610000Y-100965000D03*
X76690000Y-104025000D03*
D15*
X53950000Y-100830000D03*
X44000000Y-103605000D03*
X54420000Y-103155000D03*
X58610000Y-110035000D03*
X50730000Y-112065000D03*
D14*
X64475000Y-109430000D03*
D15*
X50700000Y-113065000D03*
X48406594Y-113250000D03*
X53847198Y-113495388D03*
D14*
X69897645Y-107427645D03*
X69200000Y-107700000D03*
D16*
X76820000Y-103085000D03*
D15*
X59730000Y-112915000D03*
X68600000Y-110550000D03*
X65250000Y-110550000D03*
D14*
X77460000Y-103845000D03*
D15*
X58230000Y-112830000D03*
D17*
X59880000Y-112765000D02*
X59730000Y-112915000D01*
X62990000Y-113690000D02*
X62065000Y-112765000D01*
X71400000Y-111571594D02*
X69281594Y-113690000D01*
X71400000Y-109900000D02*
X71400000Y-111571594D01*
X62065000Y-112765000D02*
X59880000Y-112765000D01*
X72250000Y-109050000D02*
X71400000Y-109900000D01*
X69281594Y-113690000D02*
X62990000Y-113690000D01*
X76870000Y-109050000D02*
X72250000Y-109050000D01*
X78155000Y-110335000D02*
X76870000Y-109050000D01*
X58725000Y-114000000D02*
X69410000Y-114000000D01*
X69410000Y-114000000D02*
X73075000Y-110335000D01*
X57730000Y-113005000D02*
X58725000Y-114000000D01*
X86632107Y-106880000D02*
X86700000Y-106880000D01*
X65710000Y-106285000D02*
X86037107Y-106285000D01*
X65490000Y-106065000D02*
X65710000Y-106285000D01*
X59085514Y-106065000D02*
X65490000Y-106065000D01*
X51982673Y-113167841D02*
X59085514Y-106065000D01*
X86037107Y-106285000D02*
X86632107Y-106880000D01*
X51982673Y-113247115D02*
X51982673Y-113167841D01*
X46772502Y-107505000D02*
X46740000Y-107505000D01*
X52500000Y-105750000D02*
X48527502Y-105750000D01*
X48527502Y-105750000D02*
X46772502Y-107505000D01*
X53000000Y-105250000D02*
X52500000Y-105750000D01*
X73870000Y-114620000D02*
X75615000Y-112875000D01*
X56520000Y-114620000D02*
X73870000Y-114620000D01*
X55450000Y-113550000D02*
X56520000Y-114620000D01*
X69685000Y-107215000D02*
X69897645Y-107427645D01*
X65324782Y-107215000D02*
X69685000Y-107215000D01*
X65104782Y-106995000D02*
X65324782Y-107215000D01*
X59560000Y-106995000D02*
X65104782Y-106995000D01*
X59056812Y-107498188D02*
X59560000Y-106995000D01*
X53743769Y-112818043D02*
X59056812Y-107505000D01*
X59056812Y-107505000D02*
X59056812Y-107498188D01*
X53847198Y-113495388D02*
X53743769Y-113391959D01*
X53743769Y-113391959D02*
X53743769Y-112818043D01*
X59695218Y-107305000D02*
X54250000Y-112750218D01*
X64976376Y-107305000D02*
X59695218Y-107305000D01*
X54250000Y-112750218D02*
X54250000Y-113200000D01*
X69025000Y-107525000D02*
X65196376Y-107525000D01*
X69200000Y-107700000D02*
X69025000Y-107525000D01*
X65196376Y-107525000D02*
X64976376Y-107305000D01*
X74350000Y-111600000D02*
X75615000Y-110335000D01*
X74350000Y-113701594D02*
X74350000Y-111600000D01*
X73741594Y-114310000D02*
X74350000Y-113701594D01*
X58426888Y-114310000D02*
X73741594Y-114310000D01*
X57230540Y-112998428D02*
X57230540Y-113113652D01*
X57230540Y-113113652D02*
X58426888Y-114310000D01*
X65581594Y-106595000D02*
X85640000Y-106595000D01*
X85640000Y-106595000D02*
X85875000Y-106830000D01*
X52598561Y-112990359D02*
X59213920Y-106375000D01*
X59213920Y-106375000D02*
X65361594Y-106375000D01*
X52598561Y-113453356D02*
X52598561Y-112990359D01*
X65361594Y-106375000D02*
X65581594Y-106595000D01*
X47655000Y-110700000D02*
X47655000Y-108967338D01*
X47655000Y-108967338D02*
X48772338Y-107850000D01*
X60810000Y-104415000D02*
X56830000Y-104415000D01*
X48260000Y-111305000D02*
X47655000Y-110700000D01*
X61000000Y-104225000D02*
X60810000Y-104415000D01*
X56830000Y-104415000D02*
X49940000Y-111305000D01*
X49940000Y-111305000D02*
X48260000Y-111305000D01*
X48772338Y-107850000D02*
X48777502Y-107850000D01*
X59520000Y-104105000D02*
X56686812Y-104105000D01*
X49796812Y-110995000D02*
X48388406Y-110995000D01*
X47965000Y-109364445D02*
X48756694Y-108572751D01*
X47965000Y-110571594D02*
X47965000Y-109364445D01*
X56686812Y-104105000D02*
X49796812Y-110995000D01*
X48388406Y-110995000D02*
X47965000Y-110571594D01*
X60240000Y-103385000D02*
X59520000Y-104105000D01*
X59030000Y-103795000D02*
X59450000Y-103375000D01*
X48516812Y-110685000D02*
X49668406Y-110685000D01*
X49668406Y-110685000D02*
X56558406Y-103795000D01*
X48635000Y-109400000D02*
X48275000Y-109760000D01*
X48275000Y-110443188D02*
X48516812Y-110685000D01*
X48275000Y-109760000D02*
X48275000Y-110443188D01*
X56558406Y-103795000D02*
X59030000Y-103795000D01*
X48777502Y-109400000D02*
X48635000Y-109400000D01*
X58219495Y-102835505D02*
X57570000Y-103485000D01*
X56430000Y-103485000D02*
X49740000Y-110175000D01*
X49740000Y-110175000D02*
X48775000Y-110175000D01*
X57570000Y-103485000D02*
X56430000Y-103485000D01*
X58219495Y-101985505D02*
X58219495Y-102835505D01*
X59000000Y-110415000D02*
X59030000Y-110445000D01*
X64505000Y-110445000D02*
X65050000Y-109900000D01*
X59030000Y-110445000D02*
X64505000Y-110445000D01*
X87350000Y-106980000D02*
X87350000Y-106309500D01*
X53220000Y-113264500D02*
X53220000Y-112807325D01*
X59342326Y-106685000D02*
X65233188Y-106685000D01*
X86850000Y-107480000D02*
X87350000Y-106980000D01*
X85817893Y-107480000D02*
X86850000Y-107480000D01*
X65233188Y-106685000D02*
X65453188Y-106905000D01*
X85242893Y-106905000D02*
X85817893Y-107480000D01*
X65453188Y-106905000D02*
X85242893Y-106905000D01*
X53220000Y-112807325D02*
X59342326Y-106685000D01*
X52717107Y-111995000D02*
X51300000Y-111995000D01*
X58957108Y-105755000D02*
X52717107Y-111995000D01*
X85867959Y-105805500D02*
X85698459Y-105975000D01*
X85698459Y-105975000D02*
X65838406Y-105975000D01*
X65838406Y-105975000D02*
X65618406Y-105755000D01*
X65618406Y-105755000D02*
X58957108Y-105755000D01*
X51045000Y-100380000D02*
X50530000Y-100895000D01*
X72880000Y-100380000D02*
X51045000Y-100380000D01*
X50530000Y-100895000D02*
X50530000Y-101465000D01*
X75600000Y-103100000D02*
X72880000Y-100380000D01*
X52430000Y-103605000D02*
X44000000Y-103605000D01*
X54420000Y-103155000D02*
X52880000Y-103155000D01*
X52880000Y-103155000D02*
X52430000Y-103605000D01*
X63930000Y-109965000D02*
X58680000Y-109965000D01*
X64465000Y-109430000D02*
X63930000Y-109965000D01*
X64475000Y-109430000D02*
X64465000Y-109430000D01*
X58680000Y-109965000D02*
X58610000Y-110035000D01*
G04 #@! TA.AperFunction,Conductor*
G36*
X50644439Y-100318982D02*
G01*
X50671459Y-100365782D01*
X50662075Y-100419000D01*
X50649520Y-100435362D01*
X50365127Y-100719752D01*
X50363628Y-100721175D01*
X50347870Y-100735365D01*
X50331085Y-100750479D01*
X50327455Y-100758633D01*
X50320520Y-100774208D01*
X50314605Y-100785101D01*
X50300458Y-100806885D01*
X50299041Y-100815832D01*
X50293185Y-100835601D01*
X50289500Y-100843878D01*
X50289500Y-100869857D01*
X50288527Y-100882215D01*
X50284464Y-100907865D01*
X50284464Y-100907868D01*
X50286808Y-100916614D01*
X50289500Y-100937062D01*
X50289500Y-101092242D01*
X50271018Y-101143022D01*
X50266361Y-101148103D01*
X50193760Y-101220703D01*
X50167841Y-101271573D01*
X50134725Y-101336567D01*
X50134724Y-101336568D01*
X50134725Y-101336568D01*
X50134723Y-101336573D01*
X50114383Y-101464997D01*
X50114383Y-101465002D01*
X50134723Y-101593426D01*
X50134724Y-101593429D01*
X50134725Y-101593433D01*
X50177699Y-101677774D01*
X50193760Y-101709296D01*
X50285703Y-101801239D01*
X50285705Y-101801240D01*
X50285706Y-101801241D01*
X50401567Y-101860275D01*
X50401572Y-101860275D01*
X50401573Y-101860276D01*
X50529998Y-101880617D01*
X50530000Y-101880617D01*
X50530002Y-101880617D01*
X50654834Y-101860845D01*
X50658433Y-101860275D01*
X50774294Y-101801241D01*
X50866241Y-101709294D01*
X50925275Y-101593433D01*
X50933073Y-101544202D01*
X50945617Y-101465002D01*
X50945617Y-101464997D01*
X50925276Y-101336573D01*
X50925275Y-101336572D01*
X50925275Y-101336567D01*
X50866241Y-101220706D01*
X50793637Y-101148102D01*
X50770800Y-101099128D01*
X50770500Y-101092263D01*
X50770500Y-101027339D01*
X50788983Y-100976559D01*
X50793639Y-100971478D01*
X51121480Y-100643638D01*
X51170456Y-100620801D01*
X51177341Y-100620500D01*
X52025329Y-100620500D01*
X52076109Y-100638982D01*
X52103129Y-100685782D01*
X52095719Y-100735363D01*
X52074725Y-100776567D01*
X52074724Y-100776568D01*
X52074725Y-100776568D01*
X52074723Y-100776573D01*
X52054383Y-100904997D01*
X52054383Y-100905002D01*
X52074723Y-101033426D01*
X52074724Y-101033429D01*
X52074725Y-101033433D01*
X52123296Y-101128759D01*
X52133760Y-101149296D01*
X52225703Y-101241239D01*
X52225705Y-101241240D01*
X52225706Y-101241241D01*
X52341567Y-101300275D01*
X52341572Y-101300275D01*
X52341573Y-101300276D01*
X52422481Y-101313091D01*
X52469745Y-101339289D01*
X52489111Y-101389739D01*
X52471518Y-101440834D01*
X52465985Y-101446979D01*
X52412259Y-101500705D01*
X52398135Y-101528426D01*
X52353225Y-101616567D01*
X52353224Y-101616568D01*
X52353225Y-101616568D01*
X52353223Y-101616573D01*
X52332883Y-101744997D01*
X52332883Y-101745002D01*
X52353223Y-101873426D01*
X52353224Y-101873429D01*
X52353225Y-101873433D01*
X52410327Y-101985502D01*
X52412260Y-101989296D01*
X52504203Y-102081239D01*
X52504205Y-102081240D01*
X52504206Y-102081241D01*
X52620067Y-102140275D01*
X52620072Y-102140275D01*
X52620073Y-102140276D01*
X52748498Y-102160617D01*
X52748500Y-102160617D01*
X52748502Y-102160617D01*
X52844115Y-102145472D01*
X52876933Y-102140275D01*
X52992794Y-102081241D01*
X53084741Y-101989294D01*
X53143775Y-101873433D01*
X53154614Y-101804997D01*
X53164117Y-101745002D01*
X53164117Y-101744997D01*
X53143776Y-101616573D01*
X53143775Y-101616572D01*
X53143775Y-101616567D01*
X53086930Y-101505002D01*
X54809383Y-101505002D01*
X54829723Y-101633426D01*
X54829724Y-101633429D01*
X54829725Y-101633433D01*
X54871607Y-101715631D01*
X54888760Y-101749296D01*
X54980703Y-101841239D01*
X54980705Y-101841240D01*
X54980706Y-101841241D01*
X55096567Y-101900275D01*
X55096572Y-101900275D01*
X55096573Y-101900276D01*
X55224998Y-101920617D01*
X55225000Y-101920617D01*
X55225002Y-101920617D01*
X55320615Y-101905472D01*
X55353433Y-101900275D01*
X55469294Y-101841241D01*
X55561241Y-101749294D01*
X55620275Y-101633433D01*
X55628180Y-101583521D01*
X55640617Y-101505002D01*
X55640617Y-101504997D01*
X55620276Y-101376573D01*
X55620275Y-101376572D01*
X55620275Y-101376567D01*
X55561241Y-101260706D01*
X55561240Y-101260705D01*
X55561239Y-101260703D01*
X55469296Y-101168760D01*
X55443670Y-101155703D01*
X55353433Y-101109725D01*
X55353429Y-101109724D01*
X55353426Y-101109723D01*
X55225002Y-101089383D01*
X55224998Y-101089383D01*
X55096573Y-101109723D01*
X55096568Y-101109724D01*
X55096567Y-101109725D01*
X55059211Y-101128759D01*
X54980703Y-101168760D01*
X54888760Y-101260703D01*
X54868597Y-101300276D01*
X54829725Y-101376567D01*
X54829724Y-101376568D01*
X54829725Y-101376568D01*
X54829723Y-101376573D01*
X54809383Y-101504997D01*
X54809383Y-101505002D01*
X53086930Y-101505002D01*
X53084741Y-101500706D01*
X53084740Y-101500705D01*
X53084739Y-101500703D01*
X52992796Y-101408760D01*
X52975603Y-101400000D01*
X52876933Y-101349725D01*
X52876929Y-101349724D01*
X52876926Y-101349723D01*
X52796017Y-101336908D01*
X52748754Y-101310709D01*
X52729388Y-101260259D01*
X52746982Y-101209164D01*
X52752505Y-101203029D01*
X52806241Y-101149294D01*
X52865275Y-101033433D01*
X52874283Y-100976559D01*
X52885617Y-100905002D01*
X52885617Y-100904997D01*
X52865276Y-100776573D01*
X52865275Y-100776572D01*
X52865275Y-100776567D01*
X52844280Y-100735363D01*
X52837696Y-100681729D01*
X52867128Y-100636408D01*
X52914671Y-100620500D01*
X53536205Y-100620500D01*
X53586985Y-100638982D01*
X53614005Y-100685782D01*
X53612035Y-100713971D01*
X53613472Y-100714199D01*
X53595131Y-100829997D01*
X53595131Y-100830002D01*
X53612498Y-100939655D01*
X53612499Y-100939658D01*
X53612500Y-100939661D01*
X53645651Y-101004723D01*
X53662906Y-101038589D01*
X53741410Y-101117093D01*
X53741412Y-101117094D01*
X53741413Y-101117095D01*
X53840339Y-101167500D01*
X53840343Y-101167500D01*
X53840344Y-101167501D01*
X53949998Y-101184869D01*
X53950000Y-101184869D01*
X53950002Y-101184869D01*
X54059655Y-101167501D01*
X54059655Y-101167500D01*
X54059661Y-101167500D01*
X54158587Y-101117095D01*
X54237095Y-101038587D01*
X54287500Y-100939661D01*
X54292990Y-100905000D01*
X54304869Y-100830002D01*
X54304869Y-100829997D01*
X54286528Y-100714199D01*
X54289012Y-100713805D01*
X54290551Y-100669897D01*
X54326715Y-100629743D01*
X54363795Y-100620500D01*
X59363242Y-100620500D01*
X59414022Y-100638982D01*
X59441042Y-100685782D01*
X59431658Y-100739000D01*
X59419103Y-100755361D01*
X59383760Y-100790703D01*
X59363030Y-100831389D01*
X59324725Y-100906567D01*
X59324724Y-100906568D01*
X59324725Y-100906568D01*
X59324723Y-100906573D01*
X59304383Y-101034997D01*
X59304383Y-101035002D01*
X59324723Y-101163426D01*
X59324724Y-101163429D01*
X59324725Y-101163433D01*
X59374288Y-101260706D01*
X59383760Y-101279296D01*
X59475703Y-101371239D01*
X59475705Y-101371240D01*
X59475706Y-101371241D01*
X59591567Y-101430275D01*
X59591572Y-101430275D01*
X59591573Y-101430276D01*
X59719998Y-101450617D01*
X59720000Y-101450617D01*
X59720002Y-101450617D01*
X59828494Y-101433433D01*
X59848433Y-101430275D01*
X59964294Y-101371241D01*
X60056241Y-101279294D01*
X60068833Y-101254580D01*
X61703814Y-101254580D01*
X61722658Y-101385650D01*
X61722659Y-101385653D01*
X61777668Y-101506106D01*
X61859266Y-101600275D01*
X61864385Y-101606182D01*
X61975783Y-101677774D01*
X62065531Y-101704126D01*
X62102838Y-101715081D01*
X62102839Y-101715081D01*
X62235260Y-101715081D01*
X62264098Y-101706612D01*
X62362315Y-101677774D01*
X62473713Y-101606182D01*
X62560430Y-101506106D01*
X62615439Y-101385653D01*
X62634284Y-101254581D01*
X62627084Y-101204502D01*
X64984383Y-101204502D01*
X65004723Y-101332926D01*
X65004724Y-101332929D01*
X65004725Y-101332933D01*
X65050758Y-101423278D01*
X65063760Y-101448796D01*
X65155703Y-101540739D01*
X65155705Y-101540740D01*
X65155706Y-101540741D01*
X65271567Y-101599775D01*
X65271572Y-101599775D01*
X65271573Y-101599776D01*
X65399998Y-101620117D01*
X65400000Y-101620117D01*
X65400002Y-101620117D01*
X65495615Y-101604972D01*
X65528433Y-101599775D01*
X65644294Y-101540741D01*
X65736241Y-101448794D01*
X65795275Y-101332933D01*
X65809798Y-101241239D01*
X65815617Y-101204502D01*
X65815617Y-101204497D01*
X65795276Y-101076073D01*
X65795275Y-101076072D01*
X65795275Y-101076067D01*
X65736241Y-100960206D01*
X65736240Y-100960205D01*
X65736239Y-100960203D01*
X65644296Y-100868260D01*
X65642169Y-100867176D01*
X65528433Y-100809225D01*
X65528429Y-100809224D01*
X65528426Y-100809223D01*
X65400002Y-100788883D01*
X65399998Y-100788883D01*
X65271573Y-100809223D01*
X65271568Y-100809224D01*
X65271567Y-100809225D01*
X65238440Y-100826104D01*
X65155703Y-100868260D01*
X65063760Y-100960203D01*
X65041075Y-101004725D01*
X65004725Y-101076067D01*
X65004724Y-101076068D01*
X65004725Y-101076068D01*
X65004723Y-101076073D01*
X64984383Y-101204497D01*
X64984383Y-101204502D01*
X62627084Y-101204502D01*
X62615439Y-101123509D01*
X62560430Y-101003056D01*
X62473713Y-100902980D01*
X62448948Y-100887064D01*
X62362317Y-100831389D01*
X62362315Y-100831388D01*
X62235260Y-100794081D01*
X62235259Y-100794081D01*
X62102839Y-100794081D01*
X62102838Y-100794081D01*
X61975782Y-100831388D01*
X61975780Y-100831389D01*
X61864384Y-100902980D01*
X61777668Y-101003055D01*
X61722659Y-101123508D01*
X61722658Y-101123511D01*
X61703814Y-101254580D01*
X60068833Y-101254580D01*
X60115275Y-101163433D01*
X60126551Y-101092241D01*
X60135617Y-101035002D01*
X60135617Y-101034997D01*
X60115276Y-100906573D01*
X60115275Y-100906572D01*
X60115275Y-100906567D01*
X60056241Y-100790706D01*
X60056240Y-100790705D01*
X60056239Y-100790703D01*
X60020897Y-100755361D01*
X59998059Y-100706385D01*
X60012045Y-100654187D01*
X60056311Y-100623192D01*
X60076758Y-100620500D01*
X68444277Y-100620500D01*
X68495057Y-100638982D01*
X68522077Y-100685782D01*
X68512693Y-100739000D01*
X68496663Y-100758633D01*
X68456980Y-100793787D01*
X68456979Y-100793789D01*
X68365859Y-100925797D01*
X68308983Y-101075768D01*
X68308983Y-101075769D01*
X68289649Y-101234999D01*
X68289649Y-101235000D01*
X68308983Y-101394230D01*
X68308983Y-101394231D01*
X68365859Y-101544202D01*
X68456979Y-101676210D01*
X68456981Y-101676212D01*
X68501476Y-101715631D01*
X68577038Y-101782573D01*
X68610336Y-101800049D01*
X68646709Y-101840011D01*
X68648886Y-101894006D01*
X68615846Y-101936768D01*
X68610337Y-101939949D01*
X68577038Y-101957426D01*
X68456981Y-102063787D01*
X68456979Y-102063789D01*
X68365859Y-102195797D01*
X68308983Y-102345768D01*
X68308983Y-102345769D01*
X68289649Y-102504999D01*
X68289649Y-102505000D01*
X68308983Y-102664230D01*
X68308983Y-102664231D01*
X68365859Y-102814202D01*
X68415850Y-102886625D01*
X68456520Y-102945546D01*
X68456979Y-102946210D01*
X68456981Y-102946212D01*
X68495147Y-102980024D01*
X68577038Y-103052573D01*
X68610336Y-103070049D01*
X68646710Y-103110014D01*
X68648885Y-103164009D01*
X68615844Y-103206770D01*
X68610340Y-103209948D01*
X68599226Y-103215781D01*
X68577037Y-103227427D01*
X68456981Y-103333787D01*
X68456979Y-103333789D01*
X68365859Y-103465797D01*
X68308983Y-103615768D01*
X68308983Y-103615769D01*
X68289649Y-103774999D01*
X68289649Y-103775000D01*
X68308983Y-103934230D01*
X68308983Y-103934231D01*
X68365859Y-104084202D01*
X68414812Y-104155122D01*
X68452502Y-104209725D01*
X68456979Y-104216210D01*
X68456981Y-104216212D01*
X68577038Y-104322573D01*
X68577037Y-104322573D01*
X68650709Y-104361239D01*
X68719063Y-104397114D01*
X68874801Y-104435500D01*
X69035199Y-104435500D01*
X69156880Y-104405508D01*
X69210606Y-104411300D01*
X69248041Y-104450273D01*
X69249804Y-104454604D01*
X69274554Y-104520962D01*
X69274555Y-104520964D01*
X69362096Y-104637903D01*
X69479035Y-104725444D01*
X69479037Y-104725445D01*
X69615903Y-104776493D01*
X69615911Y-104776495D01*
X69676404Y-104783000D01*
X69971000Y-104783000D01*
X69971000Y-103977905D01*
X70012871Y-104027805D01*
X70112129Y-104085112D01*
X70196564Y-104100000D01*
X70253436Y-104100000D01*
X70337871Y-104085112D01*
X70435059Y-104029000D01*
X70479000Y-104029000D01*
X70479000Y-104783000D01*
X70773596Y-104783000D01*
X70834088Y-104776495D01*
X70834096Y-104776493D01*
X70970962Y-104725445D01*
X70970964Y-104725444D01*
X71087903Y-104637903D01*
X71175444Y-104520964D01*
X71175445Y-104520962D01*
X71226493Y-104384096D01*
X71226495Y-104384088D01*
X71233000Y-104323596D01*
X71233000Y-104029000D01*
X70479000Y-104029000D01*
X70435059Y-104029000D01*
X70437129Y-104027805D01*
X70439481Y-104025002D01*
X76274383Y-104025002D01*
X76294723Y-104153426D01*
X76294724Y-104153429D01*
X76294725Y-104153433D01*
X76338973Y-104240274D01*
X76353760Y-104269296D01*
X76445703Y-104361239D01*
X76445705Y-104361240D01*
X76445706Y-104361241D01*
X76561567Y-104420275D01*
X76561572Y-104420275D01*
X76561573Y-104420276D01*
X76689998Y-104440617D01*
X76690000Y-104440617D01*
X76690002Y-104440617D01*
X76785615Y-104425472D01*
X76818433Y-104420275D01*
X76934294Y-104361241D01*
X77026241Y-104269294D01*
X77070551Y-104182329D01*
X77110071Y-104145477D01*
X77164036Y-104142649D01*
X77196800Y-104162336D01*
X77215703Y-104181239D01*
X77215705Y-104181240D01*
X77215706Y-104181241D01*
X77331567Y-104240275D01*
X77331572Y-104240275D01*
X77331573Y-104240276D01*
X77459998Y-104260617D01*
X77460000Y-104260617D01*
X77460002Y-104260617D01*
X77555615Y-104245472D01*
X77588433Y-104240275D01*
X77704294Y-104181241D01*
X77796241Y-104089294D01*
X77855275Y-103973433D01*
X77868686Y-103888759D01*
X77875617Y-103845002D01*
X77875617Y-103844997D01*
X77855276Y-103716573D01*
X77855275Y-103716572D01*
X77855275Y-103716567D01*
X77796241Y-103600706D01*
X77796240Y-103600705D01*
X77796239Y-103600703D01*
X77704296Y-103508760D01*
X77696920Y-103505002D01*
X77588433Y-103449725D01*
X77588429Y-103449724D01*
X77588426Y-103449723D01*
X77460002Y-103429383D01*
X77459998Y-103429383D01*
X77331573Y-103449723D01*
X77331567Y-103449725D01*
X77301332Y-103465130D01*
X77247696Y-103471714D01*
X77202375Y-103442281D01*
X77186577Y-103390602D01*
X77205767Y-103343003D01*
X77211381Y-103336525D01*
X77266390Y-103216072D01*
X77285235Y-103085000D01*
X77266390Y-102953928D01*
X77211381Y-102833475D01*
X77124664Y-102733399D01*
X77017038Y-102664231D01*
X77013268Y-102661808D01*
X77013266Y-102661807D01*
X76886211Y-102624500D01*
X76886210Y-102624500D01*
X76753790Y-102624500D01*
X76753789Y-102624500D01*
X76626733Y-102661807D01*
X76626731Y-102661808D01*
X76515335Y-102733399D01*
X76428619Y-102833474D01*
X76373610Y-102953927D01*
X76373609Y-102953930D01*
X76354765Y-103084999D01*
X76373609Y-103216069D01*
X76373610Y-103216072D01*
X76428619Y-103336525D01*
X76515335Y-103436600D01*
X76515338Y-103436603D01*
X76591194Y-103485354D01*
X76623921Y-103528356D01*
X76621349Y-103582334D01*
X76584682Y-103622030D01*
X76567442Y-103627677D01*
X76567483Y-103627803D01*
X76561568Y-103629724D01*
X76561567Y-103629725D01*
X76520378Y-103650712D01*
X76445703Y-103688760D01*
X76353760Y-103780703D01*
X76326087Y-103835016D01*
X76294725Y-103896567D01*
X76294724Y-103896568D01*
X76294725Y-103896568D01*
X76294723Y-103896573D01*
X76274383Y-104024997D01*
X76274383Y-104025002D01*
X70439481Y-104025002D01*
X70510801Y-103940007D01*
X70550000Y-103832306D01*
X70550000Y-103717694D01*
X70510801Y-103609993D01*
X70437129Y-103522195D01*
X70435059Y-103521000D01*
X71233000Y-103521000D01*
X71233000Y-103226403D01*
X71226495Y-103165911D01*
X71226493Y-103165903D01*
X71175445Y-103029037D01*
X71175444Y-103029035D01*
X71087903Y-102912096D01*
X70970964Y-102824555D01*
X70970962Y-102824554D01*
X70904560Y-102799787D01*
X70863440Y-102764723D01*
X70854480Y-102711432D01*
X70858298Y-102697766D01*
X70871017Y-102664229D01*
X70890351Y-102505000D01*
X70871017Y-102345771D01*
X70860000Y-102316721D01*
X70814140Y-102195797D01*
X70757631Y-102113931D01*
X70723022Y-102063791D01*
X70723020Y-102063789D01*
X70723018Y-102063787D01*
X70602961Y-101957426D01*
X70602958Y-101957424D01*
X70569663Y-101939949D01*
X70533289Y-101899985D01*
X70531114Y-101845989D01*
X70564155Y-101803228D01*
X70569642Y-101800060D01*
X70602962Y-101782573D01*
X70723022Y-101676209D01*
X70814139Y-101544204D01*
X70815264Y-101541239D01*
X70850328Y-101448781D01*
X70871017Y-101394229D01*
X70890351Y-101235000D01*
X70871017Y-101075771D01*
X70866462Y-101063760D01*
X70814140Y-100925797D01*
X70774769Y-100868759D01*
X70723022Y-100793791D01*
X70723020Y-100793789D01*
X70723019Y-100793787D01*
X70683337Y-100758633D01*
X70657583Y-100711125D01*
X70668392Y-100658178D01*
X70710706Y-100624566D01*
X70735723Y-100620500D01*
X72195900Y-100620500D01*
X72246680Y-100638982D01*
X72273700Y-100685782D01*
X72266290Y-100735364D01*
X72214725Y-100836567D01*
X72214724Y-100836568D01*
X72214725Y-100836568D01*
X72214723Y-100836573D01*
X72194383Y-100964997D01*
X72194383Y-100965002D01*
X72214723Y-101093426D01*
X72214724Y-101093429D01*
X72214725Y-101093433D01*
X72257087Y-101176573D01*
X72273760Y-101209296D01*
X72365703Y-101301239D01*
X72365705Y-101301240D01*
X72365706Y-101301241D01*
X72481567Y-101360275D01*
X72481572Y-101360275D01*
X72481573Y-101360276D01*
X72609998Y-101380617D01*
X72610000Y-101380617D01*
X72610002Y-101380617D01*
X72705615Y-101365472D01*
X72738433Y-101360275D01*
X72854294Y-101301241D01*
X72946241Y-101209294D01*
X73005275Y-101093433D01*
X73014530Y-101035000D01*
X73014935Y-101032444D01*
X73041133Y-100985180D01*
X73091583Y-100965814D01*
X73142678Y-100983407D01*
X73148822Y-100988940D01*
X74158476Y-101998595D01*
X75166242Y-103006361D01*
X75189080Y-103055337D01*
X75188408Y-103074578D01*
X75184384Y-103099997D01*
X75184383Y-103100001D01*
X75184383Y-103100003D01*
X75204723Y-103228426D01*
X75204724Y-103228429D01*
X75204725Y-103228433D01*
X75259801Y-103336525D01*
X75263760Y-103344296D01*
X75355703Y-103436239D01*
X75355705Y-103436240D01*
X75355706Y-103436241D01*
X75471567Y-103495275D01*
X75471572Y-103495275D01*
X75471573Y-103495276D01*
X75599998Y-103515617D01*
X75600000Y-103515617D01*
X75600002Y-103515617D01*
X75695615Y-103500472D01*
X75728433Y-103495275D01*
X75844294Y-103436241D01*
X75936241Y-103344294D01*
X75995275Y-103228433D01*
X76003290Y-103177829D01*
X76015617Y-103100002D01*
X76015617Y-103099997D01*
X75995276Y-102971573D01*
X75995275Y-102971572D01*
X75995275Y-102971567D01*
X75936241Y-102855706D01*
X75936240Y-102855705D01*
X75936239Y-102855703D01*
X75844296Y-102763760D01*
X75825031Y-102753944D01*
X75728433Y-102704725D01*
X75728429Y-102704724D01*
X75728426Y-102704723D01*
X75600003Y-102684383D01*
X75600001Y-102684383D01*
X75600000Y-102684383D01*
X75585116Y-102686740D01*
X75574578Y-102688409D01*
X75521532Y-102678096D01*
X75506361Y-102666242D01*
X75015119Y-102175000D01*
X78734765Y-102175000D01*
X78753609Y-102306069D01*
X78753610Y-102306072D01*
X78808619Y-102426525D01*
X78872281Y-102499995D01*
X78895336Y-102526601D01*
X79006734Y-102598193D01*
X79062271Y-102614500D01*
X79133789Y-102635500D01*
X79133790Y-102635500D01*
X79266211Y-102635500D01*
X79295049Y-102627031D01*
X79393266Y-102598193D01*
X79504664Y-102526601D01*
X79527711Y-102500004D01*
X81644341Y-102500004D01*
X81664935Y-102735399D01*
X81664937Y-102735412D01*
X81712924Y-102914500D01*
X81724124Y-102956301D01*
X81726098Y-102963666D01*
X81726098Y-102963667D01*
X81825962Y-103177825D01*
X81956672Y-103364500D01*
X81961505Y-103371401D01*
X82128599Y-103538495D01*
X82128604Y-103538499D01*
X82128606Y-103538500D01*
X82191208Y-103582334D01*
X82258889Y-103629725D01*
X82322174Y-103674037D01*
X82490803Y-103752670D01*
X82536337Y-103773903D01*
X82701576Y-103818178D01*
X82764587Y-103835062D01*
X82764590Y-103835062D01*
X82764592Y-103835063D01*
X82764594Y-103835063D01*
X82764599Y-103835064D01*
X82941030Y-103850500D01*
X82941034Y-103850500D01*
X83058970Y-103850500D01*
X83235400Y-103835064D01*
X83235403Y-103835063D01*
X83235408Y-103835063D01*
X83235584Y-103835016D01*
X83274229Y-103824661D01*
X83463663Y-103773903D01*
X83636934Y-103693105D01*
X83677825Y-103674037D01*
X83677825Y-103674036D01*
X83677829Y-103674035D01*
X83871401Y-103538495D01*
X84038495Y-103371401D01*
X84174035Y-103177830D01*
X84178265Y-103168760D01*
X84221986Y-103074999D01*
X90774765Y-103074999D01*
X90793609Y-103206069D01*
X90793610Y-103206072D01*
X90848619Y-103326525D01*
X90890620Y-103374997D01*
X90935336Y-103426601D01*
X91046734Y-103498193D01*
X91136482Y-103524545D01*
X91173789Y-103535500D01*
X91173790Y-103535500D01*
X91306211Y-103535500D01*
X91335049Y-103527031D01*
X91433266Y-103498193D01*
X91544664Y-103426601D01*
X91631381Y-103326525D01*
X91686390Y-103206072D01*
X91705235Y-103075000D01*
X91686390Y-102943928D01*
X91631381Y-102823475D01*
X91544664Y-102723399D01*
X91500016Y-102694705D01*
X91433268Y-102651808D01*
X91433266Y-102651807D01*
X91306211Y-102614500D01*
X91306210Y-102614500D01*
X91173790Y-102614500D01*
X91173789Y-102614500D01*
X91046733Y-102651807D01*
X91046731Y-102651808D01*
X90935335Y-102723399D01*
X90848619Y-102823474D01*
X90793610Y-102943927D01*
X90793609Y-102943930D01*
X90774765Y-103074999D01*
X84221986Y-103074999D01*
X84232444Y-103052572D01*
X84273903Y-102963663D01*
X84335063Y-102735408D01*
X84337161Y-102711432D01*
X84355659Y-102500004D01*
X84355659Y-102499995D01*
X84335064Y-102264600D01*
X84335062Y-102264587D01*
X84316413Y-102194989D01*
X84273903Y-102036337D01*
X84257618Y-102001414D01*
X84174037Y-101822174D01*
X84124766Y-101751808D01*
X84071832Y-101676209D01*
X84038500Y-101628606D01*
X84038493Y-101628597D01*
X83871402Y-101461506D01*
X83871393Y-101461499D01*
X83677825Y-101325962D01*
X83463666Y-101226098D01*
X83463663Y-101226097D01*
X83428353Y-101216635D01*
X83235412Y-101164937D01*
X83235400Y-101164935D01*
X83058970Y-101149500D01*
X83058966Y-101149500D01*
X82941034Y-101149500D01*
X82941030Y-101149500D01*
X82764599Y-101164935D01*
X82764587Y-101164937D01*
X82536333Y-101226098D01*
X82536332Y-101226098D01*
X82322174Y-101325962D01*
X82128606Y-101461499D01*
X82128597Y-101461506D01*
X81961506Y-101628597D01*
X81961499Y-101628606D01*
X81825962Y-101822173D01*
X81726098Y-102036332D01*
X81726098Y-102036333D01*
X81664937Y-102264587D01*
X81664935Y-102264600D01*
X81644341Y-102499995D01*
X81644341Y-102500004D01*
X79527711Y-102500004D01*
X79591381Y-102426525D01*
X79646390Y-102306072D01*
X79665235Y-102175000D01*
X79646390Y-102043928D01*
X79591381Y-101923475D01*
X79504664Y-101823399D01*
X79460901Y-101795274D01*
X79393268Y-101751808D01*
X79393266Y-101751807D01*
X79266211Y-101714500D01*
X79266210Y-101714500D01*
X79133790Y-101714500D01*
X79133789Y-101714500D01*
X79006733Y-101751807D01*
X79006731Y-101751808D01*
X78895335Y-101823399D01*
X78808619Y-101923474D01*
X78753610Y-102043927D01*
X78753609Y-102043930D01*
X78734765Y-102175000D01*
X75015119Y-102175000D01*
X74400822Y-101560703D01*
X73945119Y-101105000D01*
X99659765Y-101105000D01*
X99678609Y-101236069D01*
X99678610Y-101236072D01*
X99733619Y-101356525D01*
X99813561Y-101448783D01*
X99820336Y-101456601D01*
X99931734Y-101528193D01*
X100021481Y-101554545D01*
X100058789Y-101565500D01*
X100058790Y-101565500D01*
X100191211Y-101565500D01*
X100220049Y-101557031D01*
X100318266Y-101528193D01*
X100429664Y-101456601D01*
X100516381Y-101356525D01*
X100571390Y-101236072D01*
X100590235Y-101105000D01*
X100571390Y-100973928D01*
X100516381Y-100853475D01*
X100429664Y-100753399D01*
X100379523Y-100721175D01*
X100318268Y-100681808D01*
X100318266Y-100681807D01*
X100191211Y-100644500D01*
X100191210Y-100644500D01*
X100058790Y-100644500D01*
X100058789Y-100644500D01*
X99931733Y-100681807D01*
X99931731Y-100681808D01*
X99820335Y-100753399D01*
X99733619Y-100853474D01*
X99678610Y-100973927D01*
X99678609Y-100973930D01*
X99659765Y-101105000D01*
X73945119Y-101105000D01*
X73275478Y-100435360D01*
X73252641Y-100386385D01*
X73266627Y-100334187D01*
X73310893Y-100303192D01*
X73331340Y-100300500D01*
X101952405Y-100300500D01*
X101998584Y-100300500D01*
X102001403Y-100300601D01*
X102109396Y-100308323D01*
X102236236Y-100317395D01*
X102247384Y-100318999D01*
X102473288Y-100368143D01*
X102484101Y-100371317D01*
X102700700Y-100452104D01*
X102710950Y-100456784D01*
X102913868Y-100567586D01*
X102923337Y-100573672D01*
X103075296Y-100687427D01*
X103108417Y-100712221D01*
X103116935Y-100719603D01*
X103280396Y-100883064D01*
X103287778Y-100891582D01*
X103297820Y-100904997D01*
X103426260Y-101076573D01*
X103426323Y-101076656D01*
X103432415Y-101086135D01*
X103466253Y-101148104D01*
X103543214Y-101289047D01*
X103547896Y-101299301D01*
X103628681Y-101515897D01*
X103631856Y-101526711D01*
X103681000Y-101752615D01*
X103682605Y-101763772D01*
X103699399Y-101998595D01*
X103699500Y-102001414D01*
X103699500Y-112998584D01*
X103699399Y-113001403D01*
X103682605Y-113236227D01*
X103681000Y-113247384D01*
X103631856Y-113473288D01*
X103628681Y-113484102D01*
X103547896Y-113700698D01*
X103543214Y-113710952D01*
X103432417Y-113913861D01*
X103426323Y-113923343D01*
X103287778Y-114108417D01*
X103280396Y-114116935D01*
X103116935Y-114280396D01*
X103108417Y-114287778D01*
X102923343Y-114426323D01*
X102913861Y-114432417D01*
X102710952Y-114543214D01*
X102700698Y-114547896D01*
X102484102Y-114628681D01*
X102473288Y-114631856D01*
X102247384Y-114681000D01*
X102236227Y-114682605D01*
X102001403Y-114699399D01*
X101998584Y-114699500D01*
X74321340Y-114699500D01*
X74270560Y-114681018D01*
X74243540Y-114634218D01*
X74252924Y-114581000D01*
X74265479Y-114564639D01*
X74656217Y-114173901D01*
X75048533Y-113781584D01*
X75097508Y-113758747D01*
X75141633Y-113767774D01*
X75182458Y-113789595D01*
X75226427Y-113813097D01*
X75226429Y-113813097D01*
X75226430Y-113813098D01*
X75410623Y-113868973D01*
X75416907Y-113870879D01*
X75615000Y-113890389D01*
X75813093Y-113870879D01*
X76003573Y-113813097D01*
X76179120Y-113719265D01*
X76332988Y-113592988D01*
X76459265Y-113439120D01*
X76553097Y-113263573D01*
X76610879Y-113073093D01*
X76630389Y-112875000D01*
X76630389Y-112874999D01*
X77139611Y-112874999D01*
X77159121Y-113073095D01*
X77159122Y-113073099D01*
X77216901Y-113263569D01*
X77216901Y-113263570D01*
X77310735Y-113439121D01*
X77437011Y-113592988D01*
X77590878Y-113719264D01*
X77590880Y-113719265D01*
X77766427Y-113813097D01*
X77766429Y-113813097D01*
X77766430Y-113813098D01*
X77950623Y-113868973D01*
X77956907Y-113870879D01*
X78155000Y-113890389D01*
X78353093Y-113870879D01*
X78543573Y-113813097D01*
X78719120Y-113719265D01*
X78872988Y-113592988D01*
X78999265Y-113439120D01*
X79093097Y-113263573D01*
X79150879Y-113073093D01*
X79170389Y-112875000D01*
X79679611Y-112875000D01*
X79699121Y-113073095D01*
X79699122Y-113073099D01*
X79756901Y-113263569D01*
X79756901Y-113263570D01*
X79850735Y-113439121D01*
X79977011Y-113592988D01*
X80130878Y-113719264D01*
X80130880Y-113719265D01*
X80306427Y-113813097D01*
X80306429Y-113813097D01*
X80306430Y-113813098D01*
X80490623Y-113868973D01*
X80496907Y-113870879D01*
X80695000Y-113890389D01*
X80893093Y-113870879D01*
X81083573Y-113813097D01*
X81259120Y-113719265D01*
X81412988Y-113592988D01*
X81539265Y-113439120D01*
X81633097Y-113263573D01*
X81682717Y-113100000D01*
X85834765Y-113100000D01*
X85853609Y-113231069D01*
X85853610Y-113231072D01*
X85908619Y-113351525D01*
X85985582Y-113440345D01*
X85995336Y-113451601D01*
X86106734Y-113523193D01*
X86194856Y-113549068D01*
X86233789Y-113560500D01*
X86233790Y-113560500D01*
X86366211Y-113560500D01*
X86401963Y-113550002D01*
X86493266Y-113523193D01*
X86604664Y-113451601D01*
X86688371Y-113354999D01*
X96759765Y-113354999D01*
X96778609Y-113486069D01*
X96778610Y-113486072D01*
X96833619Y-113606525D01*
X96918060Y-113703975D01*
X96920336Y-113706601D01*
X97031734Y-113778193D01*
X97121481Y-113804545D01*
X97158789Y-113815500D01*
X97158790Y-113815500D01*
X97291211Y-113815500D01*
X97320049Y-113807031D01*
X97418266Y-113778193D01*
X97529664Y-113706601D01*
X97616381Y-113606525D01*
X97671390Y-113486072D01*
X97690235Y-113355000D01*
X97671390Y-113223928D01*
X97616381Y-113103475D01*
X97529664Y-113003399D01*
X97473391Y-112967234D01*
X97418268Y-112931808D01*
X97418266Y-112931807D01*
X97291211Y-112894500D01*
X97291210Y-112894500D01*
X97158790Y-112894500D01*
X97158789Y-112894500D01*
X97031733Y-112931807D01*
X97031731Y-112931808D01*
X96920335Y-113003399D01*
X96833619Y-113103474D01*
X96778610Y-113223927D01*
X96778609Y-113223930D01*
X96759765Y-113354999D01*
X86688371Y-113354999D01*
X86691381Y-113351525D01*
X86746390Y-113231072D01*
X86765235Y-113100000D01*
X86746390Y-112968928D01*
X86691381Y-112848475D01*
X86604664Y-112748399D01*
X86572142Y-112727498D01*
X86493268Y-112676808D01*
X86493266Y-112676807D01*
X86366211Y-112639500D01*
X86366210Y-112639500D01*
X86233790Y-112639500D01*
X86233789Y-112639500D01*
X86106733Y-112676807D01*
X86106731Y-112676808D01*
X85995335Y-112748399D01*
X85908619Y-112848474D01*
X85853610Y-112968927D01*
X85853609Y-112968930D01*
X85834765Y-113100000D01*
X81682717Y-113100000D01*
X81690879Y-113073093D01*
X81710389Y-112875000D01*
X81690879Y-112676907D01*
X81688025Y-112667500D01*
X81633098Y-112486430D01*
X81633098Y-112486429D01*
X81539264Y-112310878D01*
X81412988Y-112157011D01*
X81259121Y-112030735D01*
X81118064Y-111955339D01*
X81083573Y-111936903D01*
X81083572Y-111936902D01*
X81083569Y-111936901D01*
X80893099Y-111879122D01*
X80893095Y-111879121D01*
X80695000Y-111859611D01*
X80496904Y-111879121D01*
X80496900Y-111879122D01*
X80306430Y-111936901D01*
X80306429Y-111936901D01*
X80130878Y-112030735D01*
X79977011Y-112157011D01*
X79850735Y-112310878D01*
X79756901Y-112486429D01*
X79756901Y-112486430D01*
X79699122Y-112676900D01*
X79699121Y-112676904D01*
X79679611Y-112875000D01*
X79170389Y-112875000D01*
X79150879Y-112676907D01*
X79148025Y-112667500D01*
X79093098Y-112486430D01*
X79093098Y-112486429D01*
X78999264Y-112310878D01*
X78872988Y-112157011D01*
X78719121Y-112030735D01*
X78578064Y-111955339D01*
X78543573Y-111936903D01*
X78543572Y-111936902D01*
X78543569Y-111936901D01*
X78353099Y-111879122D01*
X78353095Y-111879121D01*
X78195370Y-111863587D01*
X78155000Y-111859611D01*
X78154999Y-111859611D01*
X77956904Y-111879121D01*
X77956900Y-111879122D01*
X77766430Y-111936901D01*
X77766429Y-111936901D01*
X77590878Y-112030735D01*
X77437011Y-112157011D01*
X77310735Y-112310878D01*
X77216901Y-112486429D01*
X77216901Y-112486430D01*
X77159122Y-112676900D01*
X77159121Y-112676904D01*
X77139611Y-112874999D01*
X76630389Y-112874999D01*
X76610879Y-112676907D01*
X76608025Y-112667500D01*
X76553098Y-112486430D01*
X76553098Y-112486429D01*
X76459264Y-112310878D01*
X76332988Y-112157011D01*
X76179121Y-112030735D01*
X76038064Y-111955339D01*
X76003573Y-111936903D01*
X76003572Y-111936902D01*
X76003569Y-111936901D01*
X75813099Y-111879122D01*
X75813095Y-111879121D01*
X75655370Y-111863587D01*
X75615000Y-111859611D01*
X75614999Y-111859611D01*
X75416904Y-111879121D01*
X75416900Y-111879122D01*
X75226430Y-111936901D01*
X75226429Y-111936901D01*
X75050878Y-112030735D01*
X74897011Y-112157011D01*
X74770737Y-112310877D01*
X74770736Y-112310878D01*
X74770735Y-112310880D01*
X74748706Y-112352095D01*
X74739172Y-112369931D01*
X74698934Y-112406002D01*
X74644923Y-112407770D01*
X74602413Y-112374407D01*
X74590500Y-112332690D01*
X74590500Y-111732339D01*
X74608982Y-111681559D01*
X74613628Y-111676489D01*
X75048534Y-111241583D01*
X75097508Y-111218746D01*
X75141630Y-111227772D01*
X75226427Y-111273097D01*
X75226429Y-111273097D01*
X75226432Y-111273099D01*
X75403638Y-111326854D01*
X75416907Y-111330879D01*
X75615000Y-111350389D01*
X75813093Y-111330879D01*
X76003573Y-111273097D01*
X76179120Y-111179265D01*
X76332988Y-111052988D01*
X76459265Y-110899120D01*
X76553097Y-110723573D01*
X76610879Y-110533093D01*
X76630389Y-110335000D01*
X76610879Y-110136907D01*
X76608638Y-110129521D01*
X76553098Y-109946430D01*
X76553098Y-109946429D01*
X76459264Y-109770878D01*
X76332988Y-109617011D01*
X76179121Y-109490735D01*
X76096895Y-109446785D01*
X76082651Y-109439171D01*
X76046580Y-109398934D01*
X76044812Y-109344924D01*
X76078175Y-109302413D01*
X76119892Y-109290500D01*
X76737660Y-109290500D01*
X76788440Y-109308982D01*
X76793521Y-109313639D01*
X77248414Y-109768532D01*
X77271252Y-109817508D01*
X77262225Y-109861632D01*
X77216903Y-109946425D01*
X77216901Y-109946431D01*
X77159122Y-110136900D01*
X77159121Y-110136904D01*
X77139611Y-110335000D01*
X77159121Y-110533095D01*
X77159122Y-110533099D01*
X77216901Y-110723569D01*
X77216901Y-110723570D01*
X77310735Y-110899121D01*
X77437011Y-111052988D01*
X77590878Y-111179264D01*
X77590880Y-111179265D01*
X77766427Y-111273097D01*
X77766429Y-111273097D01*
X77766430Y-111273098D01*
X77919395Y-111319500D01*
X77956907Y-111330879D01*
X78155000Y-111350389D01*
X78353093Y-111330879D01*
X78543573Y-111273097D01*
X78719120Y-111179265D01*
X78872988Y-111052988D01*
X78999265Y-110899120D01*
X79093097Y-110723573D01*
X79150879Y-110533093D01*
X79170389Y-110335000D01*
X79679611Y-110335000D01*
X79699121Y-110533095D01*
X79699122Y-110533099D01*
X79756901Y-110723569D01*
X79756901Y-110723570D01*
X79850735Y-110899121D01*
X79977011Y-111052988D01*
X80130878Y-111179264D01*
X80130880Y-111179265D01*
X80306427Y-111273097D01*
X80306429Y-111273097D01*
X80306430Y-111273098D01*
X80459395Y-111319500D01*
X80496907Y-111330879D01*
X80695000Y-111350389D01*
X80893093Y-111330879D01*
X81083573Y-111273097D01*
X81259120Y-111179265D01*
X81412988Y-111052988D01*
X81539265Y-110899120D01*
X81633097Y-110723573D01*
X81690879Y-110533093D01*
X81710389Y-110335000D01*
X81690879Y-110136907D01*
X81688638Y-110129521D01*
X81633098Y-109946430D01*
X81633098Y-109946429D01*
X81539264Y-109770878D01*
X81476992Y-109695000D01*
X87044765Y-109695000D01*
X87063609Y-109826069D01*
X87063610Y-109826072D01*
X87118619Y-109946525D01*
X87195283Y-110035000D01*
X87205336Y-110046601D01*
X87316734Y-110118193D01*
X87386929Y-110138804D01*
X87443789Y-110155500D01*
X87443790Y-110155500D01*
X87576211Y-110155500D01*
X87613131Y-110144659D01*
X87703266Y-110118193D01*
X87814664Y-110046601D01*
X87901381Y-109946525D01*
X87956390Y-109826072D01*
X87975235Y-109695000D01*
X87956390Y-109563928D01*
X87901381Y-109443475D01*
X87814664Y-109343399D01*
X87808007Y-109339121D01*
X87703268Y-109271808D01*
X87703266Y-109271807D01*
X87576211Y-109234500D01*
X87576210Y-109234500D01*
X87443790Y-109234500D01*
X87443789Y-109234500D01*
X87316733Y-109271807D01*
X87316731Y-109271808D01*
X87205335Y-109343399D01*
X87118619Y-109443474D01*
X87063610Y-109563927D01*
X87063609Y-109563930D01*
X87044765Y-109695000D01*
X81476992Y-109695000D01*
X81412988Y-109617011D01*
X81259121Y-109490735D01*
X81098716Y-109404997D01*
X81083573Y-109396903D01*
X81083572Y-109396902D01*
X81083569Y-109396901D01*
X80893099Y-109339122D01*
X80893095Y-109339121D01*
X80695000Y-109319611D01*
X80496904Y-109339121D01*
X80496900Y-109339122D01*
X80306430Y-109396901D01*
X80306429Y-109396901D01*
X80130878Y-109490735D01*
X79977011Y-109617011D01*
X79850735Y-109770878D01*
X79756901Y-109946429D01*
X79756901Y-109946430D01*
X79699122Y-110136900D01*
X79699121Y-110136904D01*
X79679611Y-110335000D01*
X79170389Y-110335000D01*
X79150879Y-110136907D01*
X79148638Y-110129521D01*
X79093098Y-109946430D01*
X79093098Y-109946429D01*
X78999264Y-109770878D01*
X78872988Y-109617011D01*
X78719121Y-109490735D01*
X78558716Y-109404997D01*
X78543573Y-109396903D01*
X78543572Y-109396902D01*
X78543569Y-109396901D01*
X78353099Y-109339122D01*
X78353095Y-109339121D01*
X78221030Y-109326114D01*
X78155000Y-109319611D01*
X78154999Y-109319611D01*
X77956904Y-109339121D01*
X77956900Y-109339122D01*
X77766431Y-109396901D01*
X77766425Y-109396903D01*
X77681632Y-109442225D01*
X77628135Y-109449862D01*
X77588532Y-109428414D01*
X77320821Y-109160703D01*
X77045236Y-108885118D01*
X77043832Y-108883638D01*
X77014525Y-108851089D01*
X77014523Y-108851087D01*
X77014521Y-108851085D01*
X77014518Y-108851083D01*
X77014516Y-108851082D01*
X76990784Y-108840515D01*
X76979894Y-108834603D01*
X76975154Y-108831525D01*
X76958113Y-108820458D01*
X76958112Y-108820457D01*
X76958111Y-108820457D01*
X76949167Y-108819041D01*
X76929396Y-108813185D01*
X76921120Y-108809500D01*
X76921119Y-108809500D01*
X76895143Y-108809500D01*
X76882785Y-108808527D01*
X76857134Y-108804464D01*
X76857129Y-108804464D01*
X76848384Y-108806808D01*
X76827937Y-108809500D01*
X72257341Y-108809500D01*
X72255274Y-108809446D01*
X72221590Y-108807680D01*
X72211538Y-108807154D01*
X72211537Y-108807154D01*
X72211536Y-108807154D01*
X72187280Y-108816464D01*
X72175403Y-108819982D01*
X72149992Y-108825384D01*
X72142659Y-108830711D01*
X72124551Y-108840543D01*
X72116087Y-108843792D01*
X72097715Y-108862164D01*
X72088295Y-108870210D01*
X72067281Y-108885479D01*
X72067280Y-108885479D01*
X72062750Y-108893326D01*
X72050198Y-108909681D01*
X71235137Y-109724744D01*
X71233637Y-109726167D01*
X71201086Y-109755478D01*
X71201085Y-109755479D01*
X71193922Y-109771568D01*
X71190520Y-109779208D01*
X71184605Y-109790101D01*
X71170458Y-109811885D01*
X71169041Y-109820832D01*
X71163185Y-109840601D01*
X71159500Y-109848878D01*
X71159500Y-109874857D01*
X71158527Y-109887215D01*
X71154464Y-109912865D01*
X71154464Y-109912868D01*
X71156808Y-109921614D01*
X71159500Y-109942062D01*
X71159500Y-111439254D01*
X71141018Y-111490034D01*
X71136361Y-111495115D01*
X69205115Y-113426361D01*
X69156139Y-113449199D01*
X69149254Y-113449500D01*
X63122341Y-113449500D01*
X63071561Y-113431018D01*
X63066480Y-113426361D01*
X62864046Y-113223927D01*
X62240235Y-112600117D01*
X62238831Y-112598637D01*
X62209525Y-112566089D01*
X62209523Y-112566087D01*
X62209521Y-112566085D01*
X62209518Y-112566083D01*
X62209516Y-112566082D01*
X62185784Y-112555515D01*
X62174894Y-112549603D01*
X62167872Y-112545043D01*
X62153113Y-112535458D01*
X62153112Y-112535457D01*
X62153111Y-112535457D01*
X62144167Y-112534041D01*
X62124396Y-112528185D01*
X62116120Y-112524500D01*
X62116119Y-112524500D01*
X62090143Y-112524500D01*
X62077785Y-112523527D01*
X62052134Y-112519464D01*
X62052129Y-112519464D01*
X62043384Y-112521808D01*
X62022937Y-112524500D01*
X59887341Y-112524500D01*
X59885274Y-112524446D01*
X59857885Y-112523010D01*
X59841538Y-112522154D01*
X59841537Y-112522154D01*
X59841536Y-112522154D01*
X59817285Y-112531463D01*
X59805404Y-112534982D01*
X59779993Y-112540384D01*
X59773581Y-112545043D01*
X59735846Y-112557304D01*
X59736140Y-112559158D01*
X59620344Y-112577498D01*
X59620340Y-112577499D01*
X59620339Y-112577500D01*
X59578855Y-112598637D01*
X59521410Y-112627906D01*
X59442906Y-112706410D01*
X59421512Y-112748399D01*
X59392500Y-112805339D01*
X59392499Y-112805340D01*
X59392500Y-112805340D01*
X59392498Y-112805344D01*
X59375131Y-112914997D01*
X59375131Y-112915003D01*
X59387479Y-112992965D01*
X59377168Y-113046011D01*
X59335172Y-113080019D01*
X59321811Y-113083350D01*
X59281573Y-113089723D01*
X59281568Y-113089724D01*
X59281567Y-113089725D01*
X59214298Y-113124000D01*
X59181010Y-113140961D01*
X59127373Y-113147546D01*
X59082052Y-113118114D01*
X59070506Y-113090902D01*
X59069422Y-113091255D01*
X59067501Y-113085346D01*
X59067500Y-113085339D01*
X59017095Y-112986413D01*
X59017094Y-112986412D01*
X59017093Y-112986410D01*
X58938589Y-112907906D01*
X58923072Y-112900000D01*
X58839661Y-112857500D01*
X58839658Y-112857499D01*
X58839655Y-112857498D01*
X58730002Y-112840131D01*
X58729996Y-112840131D01*
X58668012Y-112849948D01*
X58614966Y-112839637D01*
X58580958Y-112797640D01*
X58577629Y-112784293D01*
X58567500Y-112720339D01*
X58517095Y-112621413D01*
X58517094Y-112621412D01*
X58517093Y-112621410D01*
X58438589Y-112542906D01*
X58417997Y-112532414D01*
X58339661Y-112492500D01*
X58339658Y-112492499D01*
X58339655Y-112492498D01*
X58230002Y-112475131D01*
X58229998Y-112475131D01*
X58120344Y-112492498D01*
X58120340Y-112492499D01*
X58120339Y-112492500D01*
X58071782Y-112517240D01*
X58021410Y-112542906D01*
X57942904Y-112621412D01*
X57938723Y-112629619D01*
X57899200Y-112666472D01*
X57845235Y-112669298D01*
X57843923Y-112668885D01*
X57839656Y-112667498D01*
X57730002Y-112650131D01*
X57729998Y-112650131D01*
X57620344Y-112667498D01*
X57620340Y-112667499D01*
X57620339Y-112667500D01*
X57601877Y-112676907D01*
X57521497Y-112717862D01*
X57467860Y-112724447D01*
X57444782Y-112713929D01*
X57444667Y-112714156D01*
X57439463Y-112711504D01*
X57439192Y-112711381D01*
X57439131Y-112711337D01*
X57439127Y-112711333D01*
X57340201Y-112660928D01*
X57340198Y-112660927D01*
X57340195Y-112660926D01*
X57230542Y-112643559D01*
X57230538Y-112643559D01*
X57120884Y-112660926D01*
X57120880Y-112660927D01*
X57120879Y-112660928D01*
X57072322Y-112685668D01*
X57021950Y-112711334D01*
X56943446Y-112789838D01*
X56922983Y-112830000D01*
X56893040Y-112888767D01*
X56893039Y-112888768D01*
X56893040Y-112888768D01*
X56893038Y-112888772D01*
X56875671Y-112998425D01*
X56875671Y-112998430D01*
X56893038Y-113108083D01*
X56893039Y-113108086D01*
X56893040Y-113108089D01*
X56926957Y-113174655D01*
X56943446Y-113207017D01*
X57021950Y-113285521D01*
X57021952Y-113285522D01*
X57021953Y-113285523D01*
X57093053Y-113321750D01*
X57113048Y-113336278D01*
X58021408Y-114244639D01*
X58044246Y-114293615D01*
X58030260Y-114345813D01*
X57985994Y-114376808D01*
X57965547Y-114379500D01*
X56652341Y-114379500D01*
X56601561Y-114361018D01*
X56596480Y-114356361D01*
X55825795Y-113585676D01*
X55803629Y-113542173D01*
X55802824Y-113537093D01*
X55787500Y-113440339D01*
X55737095Y-113341413D01*
X55737094Y-113341412D01*
X55737093Y-113341410D01*
X55658589Y-113262906D01*
X55617291Y-113241864D01*
X55559661Y-113212500D01*
X55559658Y-113212499D01*
X55559655Y-113212498D01*
X55450002Y-113195131D01*
X55449998Y-113195131D01*
X55340344Y-113212498D01*
X55340340Y-113212499D01*
X55340339Y-113212500D01*
X55303895Y-113231069D01*
X55241410Y-113262906D01*
X55162906Y-113341410D01*
X55145620Y-113375337D01*
X55112500Y-113440339D01*
X55112499Y-113440340D01*
X55112500Y-113440340D01*
X55112498Y-113440344D01*
X55095131Y-113549997D01*
X55095131Y-113550002D01*
X55112498Y-113659655D01*
X55112499Y-113659658D01*
X55112500Y-113659661D01*
X55156273Y-113745571D01*
X55162906Y-113758589D01*
X55241410Y-113837093D01*
X55241412Y-113837094D01*
X55241413Y-113837095D01*
X55340339Y-113887500D01*
X55442173Y-113903629D01*
X55485676Y-113925795D01*
X56124520Y-114564639D01*
X56147358Y-114613615D01*
X56133372Y-114665813D01*
X56089106Y-114696808D01*
X56068659Y-114699500D01*
X25001416Y-114699500D01*
X24998597Y-114699399D01*
X24763772Y-114682605D01*
X24752615Y-114681000D01*
X24526711Y-114631856D01*
X24515897Y-114628681D01*
X24299301Y-114547896D01*
X24289047Y-114543214D01*
X24086138Y-114432417D01*
X24076656Y-114426323D01*
X23969107Y-114345813D01*
X23891583Y-114287778D01*
X23883064Y-114280396D01*
X23719603Y-114116935D01*
X23712221Y-114108417D01*
X23709565Y-114104869D01*
X23573672Y-113923337D01*
X23567586Y-113913868D01*
X23456784Y-113710950D01*
X23452103Y-113700698D01*
X23451843Y-113700002D01*
X23371317Y-113484101D01*
X23368143Y-113473288D01*
X23318999Y-113247384D01*
X23317395Y-113236236D01*
X23308219Y-113107930D01*
X23300601Y-113001403D01*
X23300500Y-112998584D01*
X23300500Y-112900004D01*
X34744341Y-112900004D01*
X34764935Y-113135399D01*
X34764937Y-113135412D01*
X34809026Y-113299952D01*
X34825785Y-113362500D01*
X34826098Y-113363666D01*
X34826098Y-113363667D01*
X34925962Y-113577825D01*
X35053171Y-113759500D01*
X35061505Y-113771401D01*
X35228599Y-113938495D01*
X35228604Y-113938499D01*
X35228606Y-113938500D01*
X35422174Y-114074037D01*
X35597112Y-114155612D01*
X35636337Y-114173903D01*
X35803429Y-114218674D01*
X35864587Y-114235062D01*
X35864590Y-114235062D01*
X35864592Y-114235063D01*
X35864594Y-114235063D01*
X35864599Y-114235064D01*
X36041030Y-114250500D01*
X36041034Y-114250500D01*
X36158970Y-114250500D01*
X36335400Y-114235064D01*
X36335403Y-114235063D01*
X36335408Y-114235063D01*
X36563663Y-114173903D01*
X36748951Y-114087501D01*
X36777825Y-114074037D01*
X36777825Y-114074036D01*
X36777829Y-114074035D01*
X36971401Y-113938495D01*
X37138495Y-113771401D01*
X37274035Y-113577830D01*
X37274854Y-113576075D01*
X37349847Y-113415251D01*
X37373903Y-113363663D01*
X37404358Y-113250002D01*
X48051725Y-113250002D01*
X48069092Y-113359655D01*
X48069093Y-113359658D01*
X48069094Y-113359661D01*
X48118575Y-113456774D01*
X48119500Y-113458589D01*
X48198004Y-113537093D01*
X48198006Y-113537094D01*
X48198007Y-113537095D01*
X48296933Y-113587500D01*
X48296938Y-113587500D01*
X48296939Y-113587501D01*
X48380858Y-113600793D01*
X48428122Y-113626991D01*
X48447488Y-113677441D01*
X48446528Y-113691174D01*
X48445131Y-113699997D01*
X48445131Y-113700002D01*
X48462498Y-113809655D01*
X48462499Y-113809658D01*
X48462500Y-113809661D01*
X48493692Y-113870879D01*
X48512906Y-113908589D01*
X48591410Y-113987093D01*
X48591412Y-113987094D01*
X48591413Y-113987095D01*
X48690339Y-114037500D01*
X48690343Y-114037500D01*
X48690344Y-114037501D01*
X48799998Y-114054869D01*
X48800000Y-114054869D01*
X48800002Y-114054869D01*
X48909655Y-114037501D01*
X48909655Y-114037500D01*
X48909661Y-114037500D01*
X49008587Y-113987095D01*
X49087095Y-113908587D01*
X49137500Y-113809661D01*
X49142484Y-113778192D01*
X49154869Y-113700002D01*
X49154869Y-113699997D01*
X49137501Y-113590344D01*
X49137500Y-113590343D01*
X49137500Y-113590339D01*
X49087095Y-113491413D01*
X49087094Y-113491412D01*
X49087093Y-113491410D01*
X49008589Y-113412906D01*
X49000112Y-113408587D01*
X48909661Y-113362500D01*
X48909657Y-113362499D01*
X48909654Y-113362498D01*
X48825734Y-113349206D01*
X48778471Y-113323007D01*
X48759105Y-113272557D01*
X48760066Y-113258819D01*
X48761463Y-113250000D01*
X48761463Y-113249997D01*
X48744095Y-113140344D01*
X48744094Y-113140343D01*
X48744094Y-113140339D01*
X48705708Y-113065002D01*
X50345131Y-113065002D01*
X50362498Y-113174655D01*
X50362499Y-113174658D01*
X50362500Y-113174661D01*
X50407462Y-113262905D01*
X50412906Y-113273589D01*
X50491410Y-113352093D01*
X50491412Y-113352094D01*
X50491413Y-113352095D01*
X50590339Y-113402500D01*
X50590343Y-113402500D01*
X50590344Y-113402501D01*
X50699998Y-113419869D01*
X50700000Y-113419869D01*
X50700002Y-113419869D01*
X50809655Y-113402501D01*
X50809655Y-113402500D01*
X50809661Y-113402500D01*
X50908587Y-113352095D01*
X50987095Y-113273587D01*
X51037500Y-113174661D01*
X51041795Y-113147546D01*
X51054869Y-113065002D01*
X51054869Y-113064997D01*
X51037501Y-112955344D01*
X51037500Y-112955343D01*
X51037500Y-112955339D01*
X50987095Y-112856413D01*
X50987094Y-112856412D01*
X50987093Y-112856410D01*
X50908589Y-112777906D01*
X50906774Y-112776981D01*
X50809661Y-112727500D01*
X50809658Y-112727499D01*
X50809655Y-112727498D01*
X50700002Y-112710131D01*
X50699998Y-112710131D01*
X50590344Y-112727498D01*
X50590340Y-112727499D01*
X50590339Y-112727500D01*
X50549322Y-112748399D01*
X50491410Y-112777906D01*
X50412906Y-112856410D01*
X50393499Y-112894500D01*
X50362500Y-112955339D01*
X50362499Y-112955340D01*
X50362500Y-112955340D01*
X50362498Y-112955344D01*
X50345131Y-113064997D01*
X50345131Y-113065002D01*
X48705708Y-113065002D01*
X48693689Y-113041413D01*
X48693688Y-113041412D01*
X48693687Y-113041410D01*
X48615183Y-112962906D01*
X48613368Y-112961981D01*
X48516255Y-112912500D01*
X48516252Y-112912499D01*
X48516249Y-112912498D01*
X48406596Y-112895131D01*
X48406592Y-112895131D01*
X48296938Y-112912498D01*
X48296934Y-112912499D01*
X48296933Y-112912500D01*
X48269800Y-112926325D01*
X48198004Y-112962906D01*
X48119500Y-113041410D01*
X48104784Y-113070293D01*
X48069094Y-113140339D01*
X48069093Y-113140340D01*
X48069094Y-113140340D01*
X48069092Y-113140344D01*
X48051725Y-113249997D01*
X48051725Y-113250002D01*
X37404358Y-113250002D01*
X37433740Y-113140344D01*
X37435062Y-113135412D01*
X37435064Y-113135399D01*
X37455659Y-112900004D01*
X37455659Y-112899995D01*
X37435064Y-112664600D01*
X37435062Y-112664587D01*
X37411727Y-112577500D01*
X37373903Y-112436337D01*
X37360582Y-112407770D01*
X37274037Y-112222174D01*
X37260746Y-112203193D01*
X37138495Y-112028599D01*
X36971401Y-111861505D01*
X36971398Y-111861502D01*
X36971393Y-111861499D01*
X36801405Y-111742473D01*
X46351035Y-111742473D01*
X46371375Y-111870897D01*
X46371376Y-111870900D01*
X46371377Y-111870904D01*
X46407650Y-111942093D01*
X46430412Y-111986767D01*
X46522355Y-112078710D01*
X46522357Y-112078711D01*
X46522358Y-112078712D01*
X46638219Y-112137746D01*
X46638224Y-112137746D01*
X46638225Y-112137747D01*
X46766650Y-112158088D01*
X46766652Y-112158088D01*
X46766654Y-112158088D01*
X46862267Y-112142943D01*
X46895085Y-112137746D01*
X47010946Y-112078712D01*
X47024656Y-112065002D01*
X50375131Y-112065002D01*
X50392498Y-112174655D01*
X50392499Y-112174658D01*
X50392500Y-112174661D01*
X50430820Y-112249869D01*
X50442906Y-112273589D01*
X50521410Y-112352093D01*
X50521412Y-112352094D01*
X50521413Y-112352095D01*
X50620339Y-112402500D01*
X50620343Y-112402500D01*
X50620344Y-112402501D01*
X50729998Y-112419869D01*
X50730000Y-112419869D01*
X50730002Y-112419869D01*
X50839655Y-112402501D01*
X50839655Y-112402500D01*
X50839661Y-112402500D01*
X50938587Y-112352095D01*
X50995958Y-112294723D01*
X51044933Y-112271886D01*
X51087684Y-112280195D01*
X51091412Y-112282094D01*
X51091413Y-112282095D01*
X51190339Y-112332500D01*
X51190343Y-112332500D01*
X51190344Y-112332501D01*
X51299998Y-112349869D01*
X51300000Y-112349869D01*
X51300002Y-112349869D01*
X51409655Y-112332501D01*
X51409655Y-112332500D01*
X51409661Y-112332500D01*
X51508587Y-112282095D01*
X51532041Y-112258640D01*
X51581017Y-112235801D01*
X51587904Y-112235500D01*
X52384174Y-112235500D01*
X52434954Y-112253982D01*
X52461974Y-112300782D01*
X52452590Y-112354000D01*
X52440039Y-112370356D01*
X52103985Y-112706410D01*
X51996337Y-112814058D01*
X51952835Y-112836223D01*
X51854244Y-112851838D01*
X51854240Y-112851839D01*
X51738376Y-112910875D01*
X51646433Y-113002818D01*
X51637319Y-113020706D01*
X51587398Y-113118682D01*
X51587397Y-113118683D01*
X51587398Y-113118683D01*
X51587396Y-113118688D01*
X51567056Y-113247112D01*
X51567056Y-113247117D01*
X51576029Y-113303773D01*
X51565718Y-113356819D01*
X51523721Y-113390827D01*
X51506080Y-113393779D01*
X51506141Y-113394158D01*
X51390344Y-113412498D01*
X51390340Y-113412499D01*
X51390339Y-113412500D01*
X51353995Y-113431018D01*
X51291410Y-113462906D01*
X51212906Y-113541410D01*
X51195247Y-113576069D01*
X51162500Y-113640339D01*
X51162499Y-113640340D01*
X51162500Y-113640340D01*
X51162498Y-113640344D01*
X51145131Y-113749997D01*
X51145131Y-113750002D01*
X51162498Y-113859655D01*
X51162499Y-113859658D01*
X51162500Y-113859661D01*
X51196197Y-113925795D01*
X51212906Y-113958589D01*
X51291410Y-114037093D01*
X51291412Y-114037094D01*
X51291413Y-114037095D01*
X51390339Y-114087500D01*
X51390343Y-114087500D01*
X51390344Y-114087501D01*
X51499998Y-114104869D01*
X51500000Y-114104869D01*
X51500002Y-114104869D01*
X51609655Y-114087501D01*
X51609655Y-114087500D01*
X51609661Y-114087500D01*
X51708587Y-114037095D01*
X51787095Y-113958587D01*
X51837500Y-113859661D01*
X51837501Y-113859655D01*
X51854869Y-113750002D01*
X51854869Y-113749997D01*
X51854413Y-113747119D01*
X51854869Y-113744773D01*
X51854869Y-113743782D01*
X51855062Y-113743782D01*
X51864724Y-113694072D01*
X51906720Y-113660064D01*
X51944797Y-113656733D01*
X51964010Y-113659776D01*
X51982672Y-113662732D01*
X51982673Y-113662732D01*
X51982675Y-113662732D01*
X52111102Y-113642391D01*
X52111103Y-113642390D01*
X52111106Y-113642390D01*
X52138412Y-113628476D01*
X52192045Y-113621890D01*
X52237367Y-113651321D01*
X52244662Y-113662994D01*
X52256209Y-113685657D01*
X52262321Y-113697652D01*
X52354264Y-113789595D01*
X52354266Y-113789596D01*
X52354267Y-113789597D01*
X52470128Y-113848631D01*
X52470133Y-113848631D01*
X52470134Y-113848632D01*
X52598559Y-113868973D01*
X52598561Y-113868973D01*
X52598563Y-113868973D01*
X52694176Y-113853828D01*
X52726994Y-113848631D01*
X52842855Y-113789597D01*
X52934802Y-113697650D01*
X52946567Y-113674558D01*
X52986088Y-113637704D01*
X53040053Y-113634874D01*
X53052822Y-113640034D01*
X53091564Y-113659774D01*
X53091566Y-113659774D01*
X53091567Y-113659775D01*
X53110237Y-113662732D01*
X53219998Y-113680117D01*
X53220000Y-113680117D01*
X53220002Y-113680117D01*
X53346608Y-113660064D01*
X53348433Y-113659775D01*
X53428207Y-113619127D01*
X53481843Y-113612542D01*
X53527164Y-113641973D01*
X53534461Y-113653651D01*
X53560103Y-113703975D01*
X53560103Y-113703976D01*
X53638608Y-113782481D01*
X53638610Y-113782482D01*
X53638611Y-113782483D01*
X53737537Y-113832888D01*
X53737541Y-113832888D01*
X53737542Y-113832889D01*
X53847196Y-113850257D01*
X53847198Y-113850257D01*
X53847200Y-113850257D01*
X53956853Y-113832889D01*
X53956853Y-113832888D01*
X53956859Y-113832888D01*
X54055785Y-113782483D01*
X54134293Y-113703975D01*
X54184698Y-113605049D01*
X54184698Y-113605046D01*
X54187520Y-113599509D01*
X54189920Y-113600731D01*
X54216634Y-113566520D01*
X54246159Y-113555477D01*
X54249998Y-113554868D01*
X54250000Y-113554869D01*
X54359661Y-113537500D01*
X54458587Y-113487095D01*
X54537095Y-113408587D01*
X54587500Y-113309661D01*
X54591323Y-113285523D01*
X54604869Y-113200002D01*
X54604869Y-113199997D01*
X54587501Y-113090344D01*
X54587500Y-113090343D01*
X54587500Y-113090339D01*
X54537095Y-112991413D01*
X54537094Y-112991412D01*
X54537093Y-112991410D01*
X54513639Y-112967956D01*
X54490801Y-112918980D01*
X54490500Y-112912095D01*
X54490500Y-112882557D01*
X54508982Y-112831777D01*
X54513628Y-112826707D01*
X55327718Y-112012617D01*
X55376692Y-111989780D01*
X55428889Y-112003766D01*
X55453966Y-112032613D01*
X55500426Y-112123794D01*
X55500426Y-112123795D01*
X55592370Y-112215739D01*
X55592372Y-112215740D01*
X55592373Y-112215741D01*
X55708234Y-112274775D01*
X55708239Y-112274775D01*
X55708240Y-112274776D01*
X55836665Y-112295117D01*
X55836667Y-112295117D01*
X55836669Y-112295117D01*
X55932282Y-112279972D01*
X55965100Y-112274775D01*
X56080961Y-112215741D01*
X56172908Y-112123794D01*
X56231942Y-112007933D01*
X56243192Y-111936903D01*
X56249829Y-111895002D01*
X59605131Y-111895002D01*
X59622498Y-112004655D01*
X59622499Y-112004658D01*
X59622500Y-112004661D01*
X59653243Y-112064997D01*
X59672906Y-112103589D01*
X59751410Y-112182093D01*
X59751412Y-112182094D01*
X59751413Y-112182095D01*
X59850339Y-112232500D01*
X59850343Y-112232500D01*
X59850344Y-112232501D01*
X59959998Y-112249869D01*
X59960000Y-112249869D01*
X59960002Y-112249869D01*
X60069655Y-112232501D01*
X60069655Y-112232500D01*
X60069661Y-112232500D01*
X60168587Y-112182095D01*
X60247095Y-112103587D01*
X60297500Y-112004661D01*
X60308232Y-111936903D01*
X60314869Y-111895002D01*
X60314869Y-111894997D01*
X60297501Y-111785344D01*
X60297500Y-111785343D01*
X60297500Y-111785339D01*
X60247095Y-111686413D01*
X60247094Y-111686412D01*
X60247093Y-111686410D01*
X60215685Y-111655002D01*
X62320131Y-111655002D01*
X62337498Y-111764655D01*
X62337499Y-111764658D01*
X62337500Y-111764661D01*
X62384248Y-111856410D01*
X62387906Y-111863589D01*
X62466410Y-111942093D01*
X62466412Y-111942094D01*
X62466413Y-111942095D01*
X62565339Y-111992500D01*
X62565343Y-111992500D01*
X62565344Y-111992501D01*
X62674998Y-112009869D01*
X62675000Y-112009869D01*
X62675002Y-112009869D01*
X62784655Y-111992501D01*
X62784655Y-111992500D01*
X62784661Y-111992500D01*
X62883587Y-111942095D01*
X62912521Y-111913160D01*
X62961496Y-111890323D01*
X63013694Y-111904308D01*
X63040243Y-111936204D01*
X63083775Y-112031525D01*
X63146217Y-112103587D01*
X63170492Y-112131601D01*
X63281890Y-112203193D01*
X63352204Y-112223839D01*
X63408945Y-112240500D01*
X63408946Y-112240500D01*
X63541367Y-112240500D01*
X63577160Y-112229990D01*
X63668422Y-112203193D01*
X63779820Y-112131601D01*
X63866537Y-112031525D01*
X63921546Y-111911072D01*
X63940391Y-111780000D01*
X63921546Y-111648928D01*
X63866537Y-111528475D01*
X63779820Y-111428399D01*
X63689805Y-111370549D01*
X63668424Y-111356808D01*
X63668422Y-111356807D01*
X63541367Y-111319500D01*
X63541366Y-111319500D01*
X63408946Y-111319500D01*
X63408945Y-111319500D01*
X63281889Y-111356807D01*
X63281887Y-111356808D01*
X63170493Y-111428398D01*
X63170492Y-111428398D01*
X63170492Y-111428399D01*
X63135032Y-111469322D01*
X63110311Y-111497851D01*
X63063088Y-111524124D01*
X63010026Y-111513896D01*
X62980217Y-111481980D01*
X62974805Y-111471359D01*
X62962095Y-111446413D01*
X62962094Y-111446411D01*
X62883589Y-111367906D01*
X62881774Y-111366981D01*
X62784661Y-111317500D01*
X62784658Y-111317499D01*
X62784655Y-111317498D01*
X62675002Y-111300131D01*
X62674998Y-111300131D01*
X62565344Y-111317498D01*
X62565340Y-111317499D01*
X62565339Y-111317500D01*
X62516782Y-111342240D01*
X62466410Y-111367906D01*
X62387906Y-111446410D01*
X62366490Y-111488443D01*
X62337500Y-111545339D01*
X62337499Y-111545340D01*
X62337500Y-111545340D01*
X62337498Y-111545344D01*
X62320131Y-111654997D01*
X62320131Y-111655002D01*
X60215685Y-111655002D01*
X60168589Y-111607906D01*
X60166774Y-111606981D01*
X60069661Y-111557500D01*
X60069658Y-111557499D01*
X60069655Y-111557498D01*
X59960002Y-111540131D01*
X59959998Y-111540131D01*
X59850344Y-111557498D01*
X59850340Y-111557499D01*
X59850339Y-111557500D01*
X59804076Y-111581072D01*
X59751410Y-111607906D01*
X59672906Y-111686410D01*
X59650003Y-111731361D01*
X59622500Y-111785339D01*
X59622499Y-111785340D01*
X59622500Y-111785340D01*
X59622498Y-111785344D01*
X59605131Y-111894997D01*
X59605131Y-111895002D01*
X56249829Y-111895002D01*
X56252284Y-111879502D01*
X56252284Y-111879497D01*
X56231943Y-111751073D01*
X56231942Y-111751072D01*
X56231942Y-111751067D01*
X56172908Y-111635206D01*
X56172907Y-111635205D01*
X56172906Y-111635203D01*
X56080962Y-111543259D01*
X55989780Y-111496799D01*
X55952926Y-111457277D01*
X55950098Y-111403312D01*
X55969783Y-111370551D01*
X57305332Y-110035002D01*
X58255131Y-110035002D01*
X58272498Y-110144655D01*
X58272499Y-110144658D01*
X58272500Y-110144661D01*
X58321981Y-110241774D01*
X58322906Y-110243589D01*
X58401410Y-110322093D01*
X58401412Y-110322094D01*
X58401413Y-110322095D01*
X58500339Y-110372500D01*
X58500344Y-110372500D01*
X58500345Y-110372501D01*
X58585261Y-110385951D01*
X58632525Y-110412149D01*
X58650930Y-110451619D01*
X58662498Y-110524654D01*
X58662499Y-110524657D01*
X58662500Y-110524661D01*
X58705737Y-110609519D01*
X58712906Y-110623589D01*
X58791410Y-110702093D01*
X58791412Y-110702094D01*
X58791413Y-110702095D01*
X58890339Y-110752500D01*
X58890343Y-110752500D01*
X58890344Y-110752501D01*
X58999998Y-110769869D01*
X59000000Y-110769869D01*
X59000002Y-110769869D01*
X59109655Y-110752501D01*
X59109655Y-110752500D01*
X59109661Y-110752500D01*
X59208587Y-110702095D01*
X59208589Y-110702092D01*
X59210662Y-110700587D01*
X59213102Y-110699794D01*
X59214127Y-110699272D01*
X59214209Y-110699434D01*
X59257097Y-110685500D01*
X64497659Y-110685500D01*
X64499726Y-110685554D01*
X64506563Y-110685912D01*
X64543462Y-110687846D01*
X64567717Y-110678534D01*
X64579596Y-110675016D01*
X64605006Y-110669616D01*
X64612332Y-110664292D01*
X64630461Y-110654450D01*
X64638910Y-110651207D01*
X64638910Y-110651206D01*
X64638912Y-110651206D01*
X64657278Y-110632838D01*
X64666706Y-110624787D01*
X64668358Y-110623587D01*
X64687719Y-110609521D01*
X64692246Y-110601678D01*
X64704800Y-110585316D01*
X64764303Y-110525813D01*
X64813278Y-110502976D01*
X64865476Y-110516962D01*
X64896471Y-110561228D01*
X64898190Y-110569316D01*
X64912498Y-110659655D01*
X64912499Y-110659658D01*
X64912500Y-110659661D01*
X64959803Y-110752499D01*
X64962906Y-110758589D01*
X65041410Y-110837093D01*
X65041412Y-110837094D01*
X65041413Y-110837095D01*
X65140339Y-110887500D01*
X65140343Y-110887500D01*
X65140344Y-110887501D01*
X65249998Y-110904869D01*
X65250000Y-110904869D01*
X65250002Y-110904869D01*
X65359655Y-110887501D01*
X65359655Y-110887500D01*
X65359661Y-110887500D01*
X65458587Y-110837095D01*
X65537095Y-110758587D01*
X65587500Y-110659661D01*
X65593024Y-110624787D01*
X65604869Y-110550002D01*
X68245131Y-110550002D01*
X68262498Y-110659655D01*
X68262499Y-110659658D01*
X68262500Y-110659661D01*
X68309803Y-110752499D01*
X68312906Y-110758589D01*
X68391410Y-110837093D01*
X68391412Y-110837094D01*
X68391413Y-110837095D01*
X68490339Y-110887500D01*
X68490343Y-110887500D01*
X68490344Y-110887501D01*
X68599998Y-110904869D01*
X68600000Y-110904869D01*
X68600002Y-110904869D01*
X68709655Y-110887501D01*
X68709655Y-110887500D01*
X68709661Y-110887500D01*
X68808587Y-110837095D01*
X68887095Y-110758587D01*
X68937500Y-110659661D01*
X68943024Y-110624787D01*
X68954869Y-110550002D01*
X68954869Y-110549997D01*
X68937501Y-110440344D01*
X68937500Y-110440343D01*
X68937500Y-110440339D01*
X68887095Y-110341413D01*
X68887094Y-110341412D01*
X68887093Y-110341410D01*
X68808589Y-110262906D01*
X68806774Y-110261981D01*
X68709661Y-110212500D01*
X68709658Y-110212499D01*
X68709655Y-110212498D01*
X68600002Y-110195131D01*
X68599998Y-110195131D01*
X68490344Y-110212498D01*
X68490340Y-110212499D01*
X68490339Y-110212500D01*
X68441782Y-110237240D01*
X68391410Y-110262906D01*
X68312906Y-110341410D01*
X68297066Y-110372499D01*
X68262500Y-110440339D01*
X68262499Y-110440340D01*
X68262500Y-110440340D01*
X68262498Y-110440344D01*
X68245131Y-110549997D01*
X68245131Y-110550002D01*
X65604869Y-110550002D01*
X65604869Y-110549997D01*
X65587501Y-110440344D01*
X65587500Y-110440343D01*
X65587500Y-110440339D01*
X65537095Y-110341413D01*
X65537094Y-110341412D01*
X65537093Y-110341410D01*
X65458588Y-110262905D01*
X65458585Y-110262903D01*
X65423562Y-110245058D01*
X65386707Y-110205537D01*
X65383879Y-110151571D01*
X65389038Y-110138804D01*
X65399540Y-110118193D01*
X65445275Y-110028433D01*
X65460153Y-109934500D01*
X65465617Y-109900002D01*
X65465617Y-109899997D01*
X65445276Y-109771573D01*
X65445275Y-109771572D01*
X65445275Y-109771567D01*
X65386241Y-109655706D01*
X65386240Y-109655705D01*
X65386239Y-109655703D01*
X65294296Y-109563760D01*
X65292169Y-109562676D01*
X65178433Y-109504725D01*
X65178429Y-109504724D01*
X65178426Y-109504723D01*
X65050002Y-109484383D01*
X65049997Y-109484383D01*
X64980947Y-109495319D01*
X64927901Y-109485008D01*
X64893893Y-109443011D01*
X64890562Y-109429650D01*
X64870276Y-109301573D01*
X64870275Y-109301572D01*
X64870275Y-109301567D01*
X64811241Y-109185706D01*
X64811240Y-109185705D01*
X64811239Y-109185703D01*
X64719296Y-109093760D01*
X64717169Y-109092676D01*
X64603433Y-109034725D01*
X64603429Y-109034724D01*
X64603426Y-109034723D01*
X64475002Y-109014383D01*
X64474998Y-109014383D01*
X64346573Y-109034723D01*
X64346568Y-109034724D01*
X64346567Y-109034725D01*
X64313715Y-109051464D01*
X64230703Y-109093760D01*
X64138760Y-109185703D01*
X64113897Y-109234500D01*
X64079725Y-109301567D01*
X64079724Y-109301568D01*
X64079725Y-109301568D01*
X64079723Y-109301573D01*
X64059383Y-109429996D01*
X64059383Y-109430002D01*
X64062041Y-109446785D01*
X64051730Y-109499831D01*
X64039876Y-109515004D01*
X63853521Y-109701361D01*
X63804545Y-109724199D01*
X63797659Y-109724500D01*
X58791618Y-109724500D01*
X58755754Y-109715890D01*
X58719662Y-109697500D01*
X58719655Y-109697498D01*
X58610002Y-109680131D01*
X58609998Y-109680131D01*
X58500344Y-109697498D01*
X58500340Y-109697499D01*
X58500339Y-109697500D01*
X58451782Y-109722240D01*
X58401410Y-109747906D01*
X58322906Y-109826410D01*
X58304960Y-109861632D01*
X58272500Y-109925339D01*
X58272499Y-109925340D01*
X58272500Y-109925340D01*
X58272498Y-109925344D01*
X58255131Y-110034997D01*
X58255131Y-110035002D01*
X57305332Y-110035002D01*
X58337132Y-109003202D01*
X62181183Y-109003202D01*
X62201523Y-109131626D01*
X62201524Y-109131629D01*
X62201525Y-109131633D01*
X62229077Y-109185706D01*
X62260560Y-109247496D01*
X62352503Y-109339439D01*
X62352505Y-109339440D01*
X62352506Y-109339441D01*
X62468367Y-109398475D01*
X62468372Y-109398475D01*
X62468373Y-109398476D01*
X62596798Y-109418817D01*
X62596800Y-109418817D01*
X62596802Y-109418817D01*
X62715592Y-109400002D01*
X62725233Y-109398475D01*
X62841094Y-109339441D01*
X62933041Y-109247494D01*
X62992075Y-109131633D01*
X63010646Y-109014383D01*
X63012417Y-109003202D01*
X63012417Y-109003197D01*
X62992076Y-108874773D01*
X62992075Y-108874772D01*
X62992075Y-108874767D01*
X62933041Y-108758906D01*
X62933040Y-108758905D01*
X62933039Y-108758903D01*
X62841096Y-108666960D01*
X62810803Y-108651525D01*
X62725233Y-108607925D01*
X62725229Y-108607924D01*
X62725226Y-108607923D01*
X62596802Y-108587583D01*
X62596798Y-108587583D01*
X62468373Y-108607923D01*
X62468368Y-108607924D01*
X62468367Y-108607925D01*
X62411498Y-108636900D01*
X62352503Y-108666960D01*
X62260560Y-108758903D01*
X62243655Y-108792082D01*
X62201525Y-108874767D01*
X62201524Y-108874768D01*
X62201525Y-108874768D01*
X62201523Y-108874773D01*
X62181183Y-109003197D01*
X62181183Y-109003202D01*
X58337132Y-109003202D01*
X58760335Y-108579999D01*
X66584765Y-108579999D01*
X66603609Y-108711069D01*
X66603610Y-108711072D01*
X66658619Y-108831525D01*
X66707702Y-108888170D01*
X66745336Y-108931601D01*
X66856734Y-109003193D01*
X66946482Y-109029545D01*
X66983789Y-109040500D01*
X66983790Y-109040500D01*
X67116211Y-109040500D01*
X67145049Y-109032031D01*
X67243266Y-109003193D01*
X67354664Y-108931601D01*
X67441381Y-108831525D01*
X67496390Y-108711072D01*
X67515235Y-108580000D01*
X67496390Y-108448928D01*
X67474045Y-108400000D01*
X84234765Y-108400000D01*
X84253609Y-108531069D01*
X84253610Y-108531072D01*
X84308619Y-108651525D01*
X84360214Y-108711069D01*
X84395336Y-108751601D01*
X84506734Y-108823193D01*
X84586267Y-108846546D01*
X84633789Y-108860500D01*
X84633790Y-108860500D01*
X84766211Y-108860500D01*
X84798261Y-108851089D01*
X84893266Y-108823193D01*
X85004664Y-108751601D01*
X85091381Y-108651525D01*
X85146390Y-108531072D01*
X85165235Y-108400000D01*
X85146390Y-108268928D01*
X85091381Y-108148475D01*
X85004664Y-108048399D01*
X84985743Y-108036239D01*
X84893268Y-107976808D01*
X84893266Y-107976807D01*
X84766211Y-107939500D01*
X84766210Y-107939500D01*
X84633790Y-107939500D01*
X84633789Y-107939500D01*
X84506733Y-107976807D01*
X84506731Y-107976808D01*
X84395335Y-108048399D01*
X84308619Y-108148474D01*
X84253610Y-108268927D01*
X84253609Y-108268930D01*
X84234765Y-108400000D01*
X67474045Y-108400000D01*
X67441381Y-108328475D01*
X67354664Y-108228399D01*
X67273856Y-108176466D01*
X67243268Y-108156808D01*
X67243266Y-108156807D01*
X67116211Y-108119500D01*
X67116210Y-108119500D01*
X66983790Y-108119500D01*
X66983789Y-108119500D01*
X66856733Y-108156807D01*
X66856731Y-108156808D01*
X66745335Y-108228399D01*
X66658619Y-108328474D01*
X66603610Y-108448927D01*
X66603609Y-108448930D01*
X66584765Y-108579999D01*
X58760335Y-108579999D01*
X59771696Y-107568639D01*
X59820673Y-107545801D01*
X59827558Y-107545500D01*
X64043067Y-107545500D01*
X64093847Y-107563982D01*
X64120867Y-107610782D01*
X64113457Y-107660363D01*
X64079725Y-107726567D01*
X64079724Y-107726568D01*
X64079725Y-107726568D01*
X64079723Y-107726573D01*
X64059383Y-107854997D01*
X64059383Y-107855002D01*
X64079723Y-107983426D01*
X64079724Y-107983429D01*
X64079725Y-107983433D01*
X64112827Y-108048399D01*
X64138760Y-108099296D01*
X64230703Y-108191239D01*
X64230705Y-108191240D01*
X64230706Y-108191241D01*
X64346567Y-108250275D01*
X64346572Y-108250275D01*
X64346573Y-108250276D01*
X64474998Y-108270617D01*
X64475000Y-108270617D01*
X64475002Y-108270617D01*
X64570615Y-108255472D01*
X64603433Y-108250275D01*
X64719294Y-108191241D01*
X64811241Y-108099294D01*
X64870275Y-107983433D01*
X64890617Y-107855000D01*
X64889825Y-107850002D01*
X64873015Y-107743864D01*
X64883326Y-107690818D01*
X64925322Y-107656810D01*
X64979353Y-107657753D01*
X65006903Y-107675645D01*
X65021136Y-107689878D01*
X65022536Y-107691352D01*
X65034478Y-107704616D01*
X65050891Y-107722845D01*
X65051855Y-107723915D01*
X65069278Y-107731672D01*
X65075582Y-107734479D01*
X65086476Y-107740394D01*
X65108259Y-107754540D01*
X65108261Y-107754540D01*
X65108263Y-107754542D01*
X65117206Y-107755958D01*
X65136984Y-107761817D01*
X65145255Y-107765500D01*
X65145256Y-107765500D01*
X65171233Y-107765500D01*
X65183591Y-107766473D01*
X65209244Y-107770536D01*
X65217991Y-107768192D01*
X65238439Y-107765500D01*
X68727285Y-107765500D01*
X68778065Y-107783982D01*
X68800707Y-107823199D01*
X68802803Y-107822518D01*
X68804724Y-107828432D01*
X68863760Y-107944296D01*
X68955703Y-108036239D01*
X68955705Y-108036240D01*
X68955706Y-108036241D01*
X69071567Y-108095275D01*
X69071572Y-108095275D01*
X69071573Y-108095276D01*
X69199998Y-108115617D01*
X69200000Y-108115617D01*
X69200002Y-108115617D01*
X69303058Y-108099294D01*
X69328433Y-108095275D01*
X69444294Y-108036241D01*
X69536241Y-107944294D01*
X69595275Y-107828433D01*
X69595275Y-107828429D01*
X69597488Y-107824087D01*
X69637009Y-107787231D01*
X69690975Y-107784403D01*
X69703743Y-107789562D01*
X69769212Y-107822920D01*
X69769217Y-107822920D01*
X69769218Y-107822921D01*
X69897643Y-107843262D01*
X69897645Y-107843262D01*
X69897647Y-107843262D01*
X69993260Y-107828117D01*
X70026078Y-107822920D01*
X70141939Y-107763886D01*
X70233886Y-107671939D01*
X70292920Y-107556078D01*
X70304361Y-107483846D01*
X70313262Y-107427647D01*
X70313262Y-107427642D01*
X70292921Y-107299218D01*
X70292920Y-107299217D01*
X70292920Y-107299212D01*
X70273125Y-107260363D01*
X70266541Y-107206728D01*
X70295973Y-107161408D01*
X70343516Y-107145500D01*
X85110553Y-107145500D01*
X85161333Y-107163982D01*
X85166413Y-107168638D01*
X85642662Y-107644888D01*
X85644062Y-107646362D01*
X85673372Y-107678915D01*
X85697101Y-107689479D01*
X85707984Y-107695387D01*
X85729781Y-107709543D01*
X85738725Y-107710959D01*
X85758496Y-107716815D01*
X85766773Y-107720500D01*
X85792749Y-107720500D01*
X85805107Y-107721473D01*
X85808253Y-107721971D01*
X85830761Y-107725536D01*
X85839510Y-107723191D01*
X85859955Y-107720500D01*
X86842659Y-107720500D01*
X86844726Y-107720554D01*
X86851563Y-107720912D01*
X86888462Y-107722846D01*
X86912717Y-107713534D01*
X86924596Y-107710016D01*
X86950006Y-107704616D01*
X86957332Y-107699292D01*
X86975461Y-107689450D01*
X86983910Y-107686207D01*
X86983910Y-107686206D01*
X86983912Y-107686206D01*
X87002278Y-107667838D01*
X87011706Y-107659787D01*
X87032719Y-107644521D01*
X87037246Y-107636678D01*
X87049800Y-107620316D01*
X87514906Y-107155211D01*
X87516369Y-107153824D01*
X87548915Y-107124521D01*
X87559479Y-107100792D01*
X87565394Y-107089898D01*
X87579543Y-107068112D01*
X87580959Y-107059168D01*
X87586817Y-107039389D01*
X87590500Y-107031120D01*
X87590500Y-107005143D01*
X87591473Y-106992785D01*
X87594153Y-106975864D01*
X87595536Y-106967132D01*
X87594404Y-106962906D01*
X87593191Y-106958377D01*
X87590500Y-106937935D01*
X87590500Y-106682258D01*
X87608982Y-106631478D01*
X87613639Y-106626397D01*
X87686239Y-106553796D01*
X87686239Y-106553795D01*
X87686241Y-106553794D01*
X87745275Y-106437933D01*
X87755786Y-106371568D01*
X87765617Y-106309502D01*
X87765617Y-106309497D01*
X87745276Y-106181073D01*
X87745275Y-106181072D01*
X87745275Y-106181067D01*
X87686241Y-106065206D01*
X87686240Y-106065205D01*
X87686239Y-106065203D01*
X87594296Y-105973260D01*
X87574509Y-105963178D01*
X87478433Y-105914225D01*
X87478429Y-105914224D01*
X87478426Y-105914223D01*
X87350002Y-105893883D01*
X87349998Y-105893883D01*
X87221573Y-105914223D01*
X87221568Y-105914224D01*
X87221567Y-105914225D01*
X87182902Y-105933926D01*
X87105703Y-105973260D01*
X87013760Y-106065203D01*
X87000406Y-106091413D01*
X86954725Y-106181067D01*
X86954724Y-106181068D01*
X86954725Y-106181068D01*
X86954723Y-106181073D01*
X86934383Y-106309497D01*
X86934383Y-106309502D01*
X86949618Y-106405693D01*
X86939307Y-106458739D01*
X86897311Y-106492747D01*
X86843280Y-106491804D01*
X86835729Y-106488442D01*
X86828435Y-106484726D01*
X86828434Y-106484725D01*
X86828433Y-106484725D01*
X86828431Y-106484724D01*
X86828426Y-106484723D01*
X86700003Y-106464383D01*
X86699997Y-106464383D01*
X86615969Y-106477691D01*
X86562922Y-106467380D01*
X86547750Y-106455525D01*
X86223797Y-106131572D01*
X86200959Y-106082596D01*
X86209267Y-106039848D01*
X86263234Y-105933933D01*
X86283576Y-105805500D01*
X86270429Y-105722496D01*
X86263235Y-105677073D01*
X86263234Y-105677072D01*
X86263234Y-105677067D01*
X86204200Y-105561206D01*
X86204199Y-105561205D01*
X86204198Y-105561203D01*
X86112255Y-105469260D01*
X86091308Y-105458587D01*
X85996392Y-105410225D01*
X85996388Y-105410224D01*
X85996385Y-105410223D01*
X85867961Y-105389883D01*
X85867957Y-105389883D01*
X85739532Y-105410223D01*
X85739527Y-105410224D01*
X85739526Y-105410225D01*
X85703771Y-105428443D01*
X85623662Y-105469260D01*
X85531719Y-105561203D01*
X85472682Y-105677069D01*
X85471759Y-105679913D01*
X85470250Y-105681844D01*
X85469862Y-105682606D01*
X85469713Y-105682530D01*
X85438489Y-105722496D01*
X85396626Y-105734500D01*
X72597193Y-105734500D01*
X72546413Y-105716018D01*
X72519393Y-105669218D01*
X72525332Y-105622682D01*
X72546390Y-105576572D01*
X72565235Y-105445500D01*
X72546390Y-105314428D01*
X72491381Y-105193975D01*
X72404664Y-105093899D01*
X72322995Y-105041413D01*
X72293268Y-105022308D01*
X72293266Y-105022307D01*
X72166211Y-104985000D01*
X72166210Y-104985000D01*
X72033790Y-104985000D01*
X72033789Y-104985000D01*
X71906733Y-105022307D01*
X71906731Y-105022308D01*
X71795335Y-105093899D01*
X71708619Y-105193974D01*
X71653610Y-105314427D01*
X71653609Y-105314430D01*
X71634765Y-105445500D01*
X71653609Y-105576569D01*
X71653610Y-105576572D01*
X71668730Y-105609681D01*
X71674668Y-105622682D01*
X71678950Y-105676552D01*
X71647605Y-105720571D01*
X71602807Y-105734500D01*
X65970746Y-105734500D01*
X65919966Y-105716018D01*
X65914885Y-105711361D01*
X65854410Y-105650886D01*
X65793642Y-105590118D01*
X65792238Y-105588638D01*
X65762931Y-105556089D01*
X65762929Y-105556087D01*
X65762927Y-105556085D01*
X65762924Y-105556083D01*
X65762922Y-105556082D01*
X65739190Y-105545515D01*
X65728300Y-105539603D01*
X65714615Y-105530716D01*
X65706519Y-105525458D01*
X65706518Y-105525457D01*
X65706517Y-105525457D01*
X65697573Y-105524041D01*
X65677802Y-105518185D01*
X65669526Y-105514500D01*
X65669525Y-105514500D01*
X65643549Y-105514500D01*
X65631191Y-105513527D01*
X65605540Y-105509464D01*
X65605535Y-105509464D01*
X65596790Y-105511808D01*
X65576343Y-105514500D01*
X58964440Y-105514500D01*
X58962372Y-105514446D01*
X58939635Y-105513254D01*
X58918645Y-105512154D01*
X58918644Y-105512154D01*
X58918643Y-105512154D01*
X58918640Y-105512154D01*
X58894393Y-105521462D01*
X58882512Y-105524982D01*
X58857101Y-105530384D01*
X58849772Y-105535709D01*
X58831655Y-105545546D01*
X58823195Y-105548793D01*
X58804826Y-105567162D01*
X58795405Y-105575208D01*
X58774389Y-105590478D01*
X58774386Y-105590481D01*
X58769857Y-105598326D01*
X58757304Y-105614684D01*
X55505965Y-108866023D01*
X55456989Y-108888861D01*
X55404791Y-108874875D01*
X55379714Y-108846027D01*
X55376920Y-108840543D01*
X55336241Y-108760706D01*
X55336240Y-108760705D01*
X55336239Y-108760703D01*
X55244296Y-108668760D01*
X55210470Y-108651525D01*
X55128433Y-108609725D01*
X55128429Y-108609724D01*
X55128426Y-108609723D01*
X55000002Y-108589383D01*
X54999998Y-108589383D01*
X54871573Y-108609723D01*
X54871568Y-108609724D01*
X54871567Y-108609725D01*
X54816217Y-108637927D01*
X54755703Y-108668760D01*
X54663760Y-108760703D01*
X54649465Y-108788759D01*
X54604725Y-108876567D01*
X54604724Y-108876568D01*
X54604725Y-108876568D01*
X54604723Y-108876573D01*
X54584383Y-109004997D01*
X54584383Y-109005002D01*
X54604723Y-109133426D01*
X54604724Y-109133429D01*
X54604725Y-109133433D01*
X54656221Y-109234500D01*
X54663760Y-109249296D01*
X54755703Y-109341239D01*
X54755705Y-109341240D01*
X54755706Y-109341241D01*
X54841027Y-109384714D01*
X54877882Y-109424236D01*
X54880710Y-109478201D01*
X54861023Y-109510965D01*
X52640628Y-111731361D01*
X52591652Y-111754199D01*
X52584767Y-111754500D01*
X51587904Y-111754500D01*
X51537124Y-111736018D01*
X51532042Y-111731360D01*
X51508589Y-111707906D01*
X51506774Y-111706981D01*
X51409661Y-111657500D01*
X51409658Y-111657499D01*
X51409655Y-111657498D01*
X51300002Y-111640131D01*
X51299998Y-111640131D01*
X51190344Y-111657498D01*
X51190340Y-111657499D01*
X51190339Y-111657500D01*
X51143120Y-111681559D01*
X51091412Y-111707905D01*
X51034041Y-111765276D01*
X50985065Y-111788113D01*
X50942316Y-111779804D01*
X50839662Y-111727500D01*
X50839655Y-111727498D01*
X50730002Y-111710131D01*
X50729998Y-111710131D01*
X50620344Y-111727498D01*
X50620340Y-111727499D01*
X50620339Y-111727500D01*
X50590957Y-111742471D01*
X50521410Y-111777906D01*
X50442906Y-111856410D01*
X50423244Y-111895000D01*
X50392500Y-111955339D01*
X50392499Y-111955340D01*
X50392500Y-111955340D01*
X50392498Y-111955344D01*
X50375131Y-112064997D01*
X50375131Y-112065002D01*
X47024656Y-112065002D01*
X47102893Y-111986765D01*
X47161927Y-111870904D01*
X47178657Y-111765276D01*
X47182269Y-111742473D01*
X47182269Y-111742468D01*
X47161928Y-111614044D01*
X47161927Y-111614043D01*
X47161927Y-111614038D01*
X47102893Y-111498177D01*
X47102892Y-111498176D01*
X47102891Y-111498174D01*
X47010948Y-111406231D01*
X46995775Y-111398500D01*
X46895085Y-111347196D01*
X46895081Y-111347195D01*
X46895078Y-111347194D01*
X46766654Y-111326854D01*
X46766650Y-111326854D01*
X46638225Y-111347194D01*
X46638220Y-111347195D01*
X46638219Y-111347196D01*
X46592386Y-111370549D01*
X46522355Y-111406231D01*
X46430412Y-111498174D01*
X46406381Y-111545339D01*
X46371377Y-111614038D01*
X46371376Y-111614039D01*
X46371377Y-111614039D01*
X46371375Y-111614044D01*
X46351035Y-111742468D01*
X46351035Y-111742473D01*
X36801405Y-111742473D01*
X36777825Y-111725962D01*
X36563666Y-111626098D01*
X36563663Y-111626097D01*
X36518680Y-111614044D01*
X36335412Y-111564937D01*
X36335400Y-111564935D01*
X36158970Y-111549500D01*
X36158966Y-111549500D01*
X36041034Y-111549500D01*
X36041030Y-111549500D01*
X35864599Y-111564935D01*
X35864587Y-111564937D01*
X35636333Y-111626098D01*
X35636332Y-111626098D01*
X35422174Y-111725962D01*
X35228606Y-111861499D01*
X35228597Y-111861506D01*
X35061506Y-112028597D01*
X35061499Y-112028606D01*
X34925962Y-112222173D01*
X34826098Y-112436332D01*
X34826098Y-112436333D01*
X34764937Y-112664587D01*
X34764935Y-112664600D01*
X34744341Y-112899995D01*
X34744341Y-112900004D01*
X23300500Y-112900004D01*
X23300500Y-111000002D01*
X27334383Y-111000002D01*
X27354723Y-111128426D01*
X27354724Y-111128429D01*
X27354725Y-111128433D01*
X27391269Y-111200155D01*
X27413760Y-111244296D01*
X27505703Y-111336239D01*
X27505705Y-111336240D01*
X27505706Y-111336241D01*
X27621567Y-111395275D01*
X27621572Y-111395275D01*
X27621573Y-111395276D01*
X27749998Y-111415617D01*
X27750000Y-111415617D01*
X27750002Y-111415617D01*
X27858071Y-111398500D01*
X27878433Y-111395275D01*
X27994294Y-111336241D01*
X28086241Y-111244294D01*
X28145275Y-111128433D01*
X28150472Y-111095615D01*
X28165617Y-111000002D01*
X28165617Y-110999997D01*
X28145276Y-110871573D01*
X28145275Y-110871572D01*
X28145275Y-110871567D01*
X28086241Y-110755706D01*
X28086240Y-110755705D01*
X28086239Y-110755703D01*
X27994296Y-110663760D01*
X27986239Y-110659655D01*
X27878433Y-110604725D01*
X27878429Y-110604724D01*
X27878426Y-110604723D01*
X27750002Y-110584383D01*
X27749998Y-110584383D01*
X27621573Y-110604723D01*
X27621568Y-110604724D01*
X27621567Y-110604725D01*
X27582193Y-110624787D01*
X27505703Y-110663760D01*
X27413760Y-110755703D01*
X27391187Y-110800006D01*
X27354725Y-110871567D01*
X27354724Y-110871568D01*
X27354725Y-110871568D01*
X27354723Y-110871573D01*
X27334383Y-110999997D01*
X27334383Y-111000002D01*
X23300500Y-111000002D01*
X23300500Y-109125002D01*
X30409383Y-109125002D01*
X30429723Y-109253426D01*
X30429724Y-109253429D01*
X30429725Y-109253433D01*
X30475565Y-109343399D01*
X30488760Y-109369296D01*
X30580703Y-109461239D01*
X30580705Y-109461240D01*
X30580706Y-109461241D01*
X30696567Y-109520275D01*
X30696572Y-109520275D01*
X30696573Y-109520276D01*
X30824998Y-109540617D01*
X30825000Y-109540617D01*
X30825002Y-109540617D01*
X30920615Y-109525472D01*
X30953433Y-109520275D01*
X31069294Y-109461241D01*
X31125533Y-109405002D01*
X40784383Y-109405002D01*
X40804723Y-109533426D01*
X40804724Y-109533429D01*
X40804725Y-109533433D01*
X40847310Y-109617011D01*
X40863760Y-109649296D01*
X40955703Y-109741239D01*
X40955705Y-109741240D01*
X40955706Y-109741241D01*
X41071567Y-109800275D01*
X41071572Y-109800275D01*
X41071573Y-109800276D01*
X41199998Y-109820617D01*
X41200000Y-109820617D01*
X41200002Y-109820617D01*
X41295615Y-109805472D01*
X41328433Y-109800275D01*
X41444294Y-109741241D01*
X41536241Y-109649294D01*
X41595275Y-109533433D01*
X41606710Y-109461239D01*
X41615617Y-109405002D01*
X44184383Y-109405002D01*
X44204723Y-109533426D01*
X44204724Y-109533429D01*
X44204725Y-109533433D01*
X44247310Y-109617011D01*
X44263760Y-109649296D01*
X44355703Y-109741239D01*
X44355705Y-109741240D01*
X44355706Y-109741241D01*
X44471567Y-109800275D01*
X44471572Y-109800275D01*
X44471573Y-109800276D01*
X44599998Y-109820617D01*
X44600000Y-109820617D01*
X44600002Y-109820617D01*
X44695615Y-109805472D01*
X44728433Y-109800275D01*
X44844294Y-109741241D01*
X44936241Y-109649294D01*
X44995275Y-109533433D01*
X45006710Y-109461239D01*
X45015617Y-109405002D01*
X45184383Y-109405002D01*
X45204723Y-109533426D01*
X45204724Y-109533429D01*
X45204725Y-109533433D01*
X45247310Y-109617011D01*
X45263760Y-109649296D01*
X45355703Y-109741239D01*
X45355705Y-109741240D01*
X45355706Y-109741241D01*
X45471567Y-109800275D01*
X45471572Y-109800275D01*
X45471573Y-109800276D01*
X45599998Y-109820617D01*
X45600000Y-109820617D01*
X45600002Y-109820617D01*
X45695615Y-109805472D01*
X45728433Y-109800275D01*
X45844294Y-109741241D01*
X45936241Y-109649294D01*
X45995275Y-109533433D01*
X46006710Y-109461239D01*
X46015617Y-109405002D01*
X46015617Y-109404997D01*
X45995276Y-109276573D01*
X45995275Y-109276572D01*
X45995275Y-109276567D01*
X45936241Y-109160706D01*
X45936240Y-109160705D01*
X45936239Y-109160703D01*
X45844296Y-109068760D01*
X45834481Y-109063759D01*
X45728433Y-109009725D01*
X45728429Y-109009724D01*
X45728426Y-109009723D01*
X45600002Y-108989383D01*
X45599998Y-108989383D01*
X45471573Y-109009723D01*
X45471568Y-109009724D01*
X45471567Y-109009725D01*
X45422506Y-109034723D01*
X45355703Y-109068760D01*
X45263760Y-109160703D01*
X45251022Y-109185703D01*
X45204725Y-109276567D01*
X45204724Y-109276568D01*
X45204725Y-109276568D01*
X45204723Y-109276573D01*
X45184383Y-109404997D01*
X45184383Y-109405002D01*
X45015617Y-109405002D01*
X45015617Y-109404997D01*
X44995276Y-109276573D01*
X44995275Y-109276572D01*
X44995275Y-109276567D01*
X44936241Y-109160706D01*
X44936240Y-109160705D01*
X44936239Y-109160703D01*
X44844296Y-109068760D01*
X44834481Y-109063759D01*
X44728433Y-109009725D01*
X44728429Y-109009724D01*
X44728426Y-109009723D01*
X44600002Y-108989383D01*
X44599998Y-108989383D01*
X44471573Y-109009723D01*
X44471568Y-109009724D01*
X44471567Y-109009725D01*
X44422506Y-109034723D01*
X44355703Y-109068760D01*
X44263760Y-109160703D01*
X44251022Y-109185703D01*
X44204725Y-109276567D01*
X44204724Y-109276568D01*
X44204725Y-109276568D01*
X44204723Y-109276573D01*
X44184383Y-109404997D01*
X44184383Y-109405002D01*
X41615617Y-109405002D01*
X41615617Y-109404997D01*
X41595276Y-109276573D01*
X41595275Y-109276572D01*
X41595275Y-109276567D01*
X41536241Y-109160706D01*
X41536240Y-109160705D01*
X41536239Y-109160703D01*
X41444296Y-109068760D01*
X41434481Y-109063759D01*
X41328433Y-109009725D01*
X41328429Y-109009724D01*
X41328426Y-109009723D01*
X41200002Y-108989383D01*
X41199998Y-108989383D01*
X41071573Y-109009723D01*
X41071568Y-109009724D01*
X41071567Y-109009725D01*
X41022506Y-109034723D01*
X40955703Y-109068760D01*
X40863760Y-109160703D01*
X40851022Y-109185703D01*
X40804725Y-109276567D01*
X40804724Y-109276568D01*
X40804725Y-109276568D01*
X40804723Y-109276573D01*
X40784383Y-109404997D01*
X40784383Y-109405002D01*
X31125533Y-109405002D01*
X31161241Y-109369294D01*
X31220275Y-109253433D01*
X31231002Y-109185706D01*
X31240617Y-109125002D01*
X31240617Y-109124997D01*
X31220276Y-108996573D01*
X31220275Y-108996572D01*
X31220275Y-108996567D01*
X31161241Y-108880706D01*
X31161240Y-108880705D01*
X31161239Y-108880703D01*
X31069296Y-108788760D01*
X31067169Y-108787676D01*
X30953433Y-108729725D01*
X30953429Y-108729724D01*
X30953426Y-108729723D01*
X30825002Y-108709383D01*
X30824998Y-108709383D01*
X30696573Y-108729723D01*
X30696568Y-108729724D01*
X30696567Y-108729725D01*
X30653635Y-108751600D01*
X30580703Y-108788760D01*
X30488760Y-108880703D01*
X30470666Y-108916216D01*
X30429725Y-108996567D01*
X30429724Y-108996568D01*
X30429725Y-108996568D01*
X30429723Y-108996573D01*
X30409383Y-109124997D01*
X30409383Y-109125002D01*
X23300500Y-109125002D01*
X23300500Y-107505002D01*
X46385131Y-107505002D01*
X46402498Y-107614655D01*
X46402499Y-107614658D01*
X46402500Y-107614661D01*
X46451565Y-107710958D01*
X46452906Y-107713589D01*
X46531410Y-107792093D01*
X46531412Y-107792094D01*
X46531413Y-107792095D01*
X46630339Y-107842500D01*
X46630343Y-107842500D01*
X46630344Y-107842501D01*
X46739998Y-107859869D01*
X46740000Y-107859869D01*
X46740002Y-107859869D01*
X46849655Y-107842501D01*
X46849655Y-107842500D01*
X46849661Y-107842500D01*
X46948587Y-107792095D01*
X47027095Y-107713587D01*
X47077500Y-107614661D01*
X47087513Y-107551439D01*
X47109676Y-107507942D01*
X48274900Y-106342719D01*
X48323875Y-106319882D01*
X48376073Y-106333868D01*
X48407068Y-106378134D01*
X48408787Y-106386222D01*
X48412498Y-106409655D01*
X48412499Y-106409658D01*
X48412500Y-106409661D01*
X48452641Y-106488442D01*
X48462906Y-106508589D01*
X48541411Y-106587094D01*
X48541413Y-106587095D01*
X48637822Y-106636217D01*
X48674676Y-106675737D01*
X48677505Y-106729702D01*
X48644984Y-106772860D01*
X48637824Y-106776995D01*
X48616410Y-106787906D01*
X48537906Y-106866410D01*
X48514424Y-106912498D01*
X48487500Y-106965339D01*
X48487499Y-106965340D01*
X48487500Y-106965340D01*
X48487498Y-106965344D01*
X48470131Y-107074997D01*
X48470131Y-107075002D01*
X48487498Y-107184655D01*
X48487499Y-107184658D01*
X48487500Y-107184661D01*
X48515442Y-107239500D01*
X48537906Y-107283589D01*
X48611912Y-107357595D01*
X48634750Y-107406571D01*
X48620764Y-107458769D01*
X48591916Y-107483846D01*
X48533205Y-107513760D01*
X48441262Y-107605703D01*
X48421485Y-107644519D01*
X48382227Y-107721567D01*
X48382226Y-107721568D01*
X48382227Y-107721568D01*
X48382225Y-107721573D01*
X48361885Y-107849996D01*
X48361885Y-107849997D01*
X48361885Y-107850000D01*
X48363448Y-107859869D01*
X48365205Y-107870962D01*
X48354892Y-107924008D01*
X48343038Y-107939180D01*
X47490137Y-108792082D01*
X47488637Y-108793505D01*
X47458706Y-108820457D01*
X47456085Y-108822817D01*
X47446746Y-108843793D01*
X47445520Y-108846546D01*
X47439605Y-108857439D01*
X47425458Y-108879223D01*
X47424041Y-108888170D01*
X47418185Y-108907939D01*
X47414500Y-108916216D01*
X47414500Y-108942195D01*
X47413526Y-108954553D01*
X47409464Y-108980206D01*
X47410675Y-108984727D01*
X47411808Y-108988952D01*
X47414500Y-109009400D01*
X47414500Y-110692659D01*
X47414446Y-110694726D01*
X47412154Y-110738463D01*
X47412154Y-110738465D01*
X47421462Y-110762713D01*
X47424982Y-110774596D01*
X47430383Y-110800005D01*
X47435708Y-110807334D01*
X47445547Y-110825456D01*
X47448791Y-110833908D01*
X47448794Y-110833912D01*
X47467158Y-110852276D01*
X47475204Y-110861696D01*
X47490479Y-110882719D01*
X47498245Y-110887202D01*
X47498322Y-110887247D01*
X47514685Y-110899802D01*
X48084760Y-111469878D01*
X48086160Y-111471352D01*
X48093233Y-111479208D01*
X48110312Y-111498177D01*
X48115479Y-111503915D01*
X48131855Y-111511206D01*
X48139206Y-111514479D01*
X48150100Y-111520394D01*
X48171883Y-111534540D01*
X48171885Y-111534540D01*
X48171887Y-111534542D01*
X48180830Y-111535958D01*
X48200608Y-111541817D01*
X48208879Y-111545500D01*
X48208880Y-111545500D01*
X48234857Y-111545500D01*
X48247215Y-111546473D01*
X48272868Y-111550536D01*
X48281615Y-111548192D01*
X48302063Y-111545500D01*
X49932659Y-111545500D01*
X49934726Y-111545554D01*
X49941563Y-111545912D01*
X49978462Y-111547846D01*
X50002717Y-111538534D01*
X50014596Y-111535016D01*
X50040006Y-111529616D01*
X50047332Y-111524292D01*
X50065461Y-111514450D01*
X50073910Y-111511207D01*
X50073910Y-111511206D01*
X50073912Y-111511206D01*
X50092278Y-111492838D01*
X50101706Y-111484787D01*
X50122719Y-111469521D01*
X50127246Y-111461678D01*
X50139800Y-111445316D01*
X55925379Y-105659737D01*
X55974354Y-105636900D01*
X56026552Y-105650886D01*
X56051627Y-105679731D01*
X56067743Y-105711361D01*
X56085318Y-105745854D01*
X56177261Y-105837797D01*
X56177263Y-105837798D01*
X56177264Y-105837799D01*
X56293125Y-105896833D01*
X56293130Y-105896833D01*
X56293131Y-105896834D01*
X56421556Y-105917175D01*
X56421558Y-105917175D01*
X56421560Y-105917175D01*
X56544706Y-105897670D01*
X56549991Y-105896833D01*
X56665852Y-105837799D01*
X56757799Y-105745852D01*
X56816833Y-105629991D01*
X56826088Y-105571556D01*
X56837175Y-105501560D01*
X56837175Y-105501555D01*
X56816834Y-105373131D01*
X56816833Y-105373130D01*
X56816833Y-105373125D01*
X56757799Y-105257264D01*
X56757798Y-105257263D01*
X56757797Y-105257261D01*
X56665854Y-105165318D01*
X56660608Y-105162645D01*
X56599734Y-105131628D01*
X56562880Y-105092107D01*
X56560052Y-105038142D01*
X56579737Y-105005380D01*
X56630117Y-104955000D01*
X97059765Y-104955000D01*
X97078609Y-105086069D01*
X97078610Y-105086072D01*
X97133619Y-105206525D01*
X97202202Y-105285674D01*
X97220336Y-105306601D01*
X97331734Y-105378193D01*
X97387741Y-105394638D01*
X97458789Y-105415500D01*
X97458790Y-105415500D01*
X97591211Y-105415500D01*
X97620049Y-105407031D01*
X97718266Y-105378193D01*
X97829664Y-105306601D01*
X97916381Y-105206525D01*
X97971390Y-105086072D01*
X97990235Y-104955000D01*
X97971390Y-104823928D01*
X97916381Y-104703475D01*
X97829664Y-104603399D01*
X97718266Y-104531807D01*
X97681338Y-104520964D01*
X97591211Y-104494500D01*
X97591210Y-104494500D01*
X97458790Y-104494500D01*
X97458789Y-104494500D01*
X97331733Y-104531807D01*
X97331731Y-104531808D01*
X97220335Y-104603399D01*
X97133619Y-104703474D01*
X97078610Y-104823927D01*
X97078609Y-104823930D01*
X97059765Y-104955000D01*
X56630117Y-104955000D01*
X56906480Y-104678637D01*
X56955455Y-104655801D01*
X56962340Y-104655500D01*
X60802659Y-104655500D01*
X60804726Y-104655554D01*
X60811563Y-104655912D01*
X60848462Y-104657846D01*
X60872717Y-104648534D01*
X60884596Y-104645016D01*
X60896774Y-104642428D01*
X60910002Y-104639617D01*
X60910002Y-104639616D01*
X60910006Y-104639616D01*
X60910008Y-104639613D01*
X60910580Y-104639360D01*
X60912243Y-104639140D01*
X60918130Y-104637890D01*
X60918228Y-104638352D01*
X60955074Y-104633501D01*
X61000000Y-104640617D01*
X61000002Y-104640617D01*
X61095615Y-104625472D01*
X61128433Y-104620275D01*
X61244294Y-104561241D01*
X61336241Y-104469294D01*
X61395275Y-104353433D01*
X61408601Y-104269296D01*
X61415617Y-104225002D01*
X61415617Y-104224997D01*
X61395276Y-104096573D01*
X61395275Y-104096572D01*
X61395275Y-104096567D01*
X61336241Y-103980706D01*
X61336240Y-103980705D01*
X61336239Y-103980703D01*
X61266397Y-103910861D01*
X61243559Y-103861885D01*
X61257545Y-103809687D01*
X61266397Y-103799139D01*
X61316239Y-103749296D01*
X61316241Y-103749294D01*
X61375275Y-103633433D01*
X61383368Y-103582334D01*
X61395617Y-103505002D01*
X61395617Y-103504997D01*
X61375276Y-103376573D01*
X61375275Y-103376572D01*
X61375275Y-103376567D01*
X61316241Y-103260706D01*
X61316240Y-103260705D01*
X61316239Y-103260703D01*
X61280504Y-103224968D01*
X63281851Y-103224968D01*
X63284659Y-103244500D01*
X63300695Y-103356037D01*
X63300696Y-103356040D01*
X63355705Y-103476493D01*
X63428676Y-103560706D01*
X63442422Y-103576569D01*
X63553820Y-103648161D01*
X63640287Y-103673550D01*
X63680875Y-103685468D01*
X63680876Y-103685468D01*
X63813297Y-103685468D01*
X63853885Y-103673550D01*
X63940352Y-103648161D01*
X64051750Y-103576569D01*
X64138467Y-103476493D01*
X64193476Y-103356040D01*
X64212321Y-103224968D01*
X64193476Y-103093896D01*
X64138467Y-102973443D01*
X64051750Y-102873367D01*
X63975798Y-102824555D01*
X63940354Y-102801776D01*
X63940352Y-102801775D01*
X63813297Y-102764468D01*
X63813296Y-102764468D01*
X63680876Y-102764468D01*
X63680875Y-102764468D01*
X63553819Y-102801775D01*
X63553817Y-102801776D01*
X63442421Y-102873367D01*
X63355705Y-102973442D01*
X63300696Y-103093895D01*
X63300695Y-103093898D01*
X63281851Y-103224967D01*
X63281851Y-103224968D01*
X61280504Y-103224968D01*
X61224296Y-103168760D01*
X61217898Y-103165500D01*
X61108433Y-103109725D01*
X61108429Y-103109724D01*
X61108426Y-103109723D01*
X60980002Y-103089383D01*
X60979998Y-103089383D01*
X60851573Y-103109723D01*
X60851568Y-103109724D01*
X60851567Y-103109725D01*
X60802113Y-103134923D01*
X60735705Y-103168759D01*
X60716421Y-103188043D01*
X60667445Y-103210880D01*
X60615247Y-103196892D01*
X60590172Y-103168046D01*
X60576240Y-103140705D01*
X60576240Y-103140704D01*
X60484296Y-103048760D01*
X60445583Y-103029035D01*
X60368433Y-102989725D01*
X60368429Y-102989724D01*
X60368426Y-102989723D01*
X60240002Y-102969383D01*
X60239998Y-102969383D01*
X60111573Y-102989723D01*
X60111568Y-102989724D01*
X60111567Y-102989725D01*
X60070297Y-103010753D01*
X59995705Y-103048759D01*
X59905306Y-103139158D01*
X59856330Y-103161995D01*
X59804132Y-103148009D01*
X59790816Y-103134923D01*
X59790638Y-103135102D01*
X59694296Y-103038760D01*
X59675213Y-103029037D01*
X59578433Y-102979725D01*
X59578429Y-102979724D01*
X59578426Y-102979723D01*
X59450002Y-102959383D01*
X59449998Y-102959383D01*
X59321573Y-102979723D01*
X59321568Y-102979724D01*
X59321567Y-102979725D01*
X59269291Y-103006361D01*
X59205703Y-103038760D01*
X59113760Y-103130703D01*
X59089751Y-103177825D01*
X59054725Y-103246567D01*
X59054724Y-103246568D01*
X59054725Y-103246568D01*
X59054723Y-103246573D01*
X59034383Y-103374996D01*
X59034383Y-103374997D01*
X59034383Y-103375000D01*
X59038409Y-103400419D01*
X59028097Y-103453465D01*
X59016243Y-103468637D01*
X58999527Y-103485354D01*
X58962682Y-103522200D01*
X58953521Y-103531361D01*
X58904546Y-103554199D01*
X58897659Y-103554500D01*
X58031340Y-103554500D01*
X57980560Y-103536018D01*
X57953540Y-103489218D01*
X57962924Y-103436000D01*
X57975474Y-103419643D01*
X58384401Y-103010716D01*
X58385864Y-103009329D01*
X58418410Y-102980026D01*
X58428974Y-102956297D01*
X58434889Y-102945403D01*
X58435847Y-102943928D01*
X58449038Y-102923617D01*
X58450454Y-102914673D01*
X58456312Y-102894894D01*
X58459995Y-102886625D01*
X58459994Y-102860649D01*
X58460967Y-102848289D01*
X58465031Y-102822637D01*
X58463655Y-102817500D01*
X58462686Y-102813882D01*
X58459995Y-102793440D01*
X58459995Y-102358263D01*
X58478477Y-102307483D01*
X58483134Y-102302402D01*
X58555734Y-102229801D01*
X58555734Y-102229800D01*
X58555736Y-102229799D01*
X58614770Y-102113938D01*
X58632592Y-102001414D01*
X58635112Y-101985507D01*
X58635112Y-101985502D01*
X58614771Y-101857078D01*
X58614770Y-101857077D01*
X58614770Y-101857072D01*
X58555736Y-101741211D01*
X58555735Y-101741210D01*
X58555734Y-101741208D01*
X58463791Y-101649265D01*
X58423245Y-101628606D01*
X58412326Y-101623042D01*
X58375472Y-101583521D01*
X58372644Y-101529556D01*
X58377798Y-101516797D01*
X58420275Y-101433433D01*
X58431862Y-101360275D01*
X58440617Y-101305002D01*
X58440617Y-101304997D01*
X58420276Y-101176573D01*
X58420275Y-101176572D01*
X58420275Y-101176567D01*
X58361241Y-101060706D01*
X58361240Y-101060705D01*
X58361239Y-101060703D01*
X58269296Y-100968760D01*
X58261920Y-100965002D01*
X58153433Y-100909725D01*
X58153429Y-100909724D01*
X58153426Y-100909723D01*
X58025002Y-100889383D01*
X58024998Y-100889383D01*
X57896573Y-100909723D01*
X57896568Y-100909724D01*
X57896567Y-100909725D01*
X57842915Y-100937062D01*
X57780703Y-100968760D01*
X57688760Y-101060703D01*
X57672087Y-101093426D01*
X57629725Y-101176567D01*
X57629724Y-101176568D01*
X57629725Y-101176568D01*
X57629723Y-101176573D01*
X57609383Y-101304997D01*
X57609383Y-101305002D01*
X57614464Y-101337083D01*
X57604153Y-101390129D01*
X57562157Y-101424137D01*
X57545121Y-101426987D01*
X57545198Y-101427468D01*
X57410631Y-101448781D01*
X57410626Y-101448782D01*
X57410625Y-101448783D01*
X57371420Y-101468759D01*
X57294761Y-101507818D01*
X57202818Y-101599761D01*
X57177595Y-101649265D01*
X57143783Y-101715625D01*
X57143782Y-101715626D01*
X57143783Y-101715626D01*
X57143781Y-101715631D01*
X57123441Y-101844055D01*
X57123441Y-101844060D01*
X57143781Y-101972484D01*
X57143782Y-101972487D01*
X57143783Y-101972491D01*
X57180182Y-102043928D01*
X57202818Y-102088354D01*
X57294761Y-102180297D01*
X57294763Y-102180298D01*
X57294764Y-102180299D01*
X57410625Y-102239333D01*
X57410630Y-102239333D01*
X57410631Y-102239334D01*
X57539056Y-102259675D01*
X57539058Y-102259675D01*
X57539060Y-102259675D01*
X57634673Y-102244530D01*
X57667491Y-102239333D01*
X57772252Y-102185954D01*
X57825886Y-102179369D01*
X57871207Y-102208800D01*
X57878504Y-102220477D01*
X57883255Y-102229801D01*
X57955856Y-102302402D01*
X57978694Y-102351378D01*
X57978995Y-102358263D01*
X57978995Y-102703164D01*
X57960513Y-102753944D01*
X57955856Y-102759025D01*
X57493521Y-103221361D01*
X57444545Y-103244199D01*
X57437660Y-103244500D01*
X56437341Y-103244500D01*
X56435274Y-103244446D01*
X56401590Y-103242680D01*
X56391538Y-103242154D01*
X56391537Y-103242154D01*
X56391536Y-103242154D01*
X56367280Y-103251464D01*
X56355403Y-103254982D01*
X56329992Y-103260384D01*
X56322659Y-103265711D01*
X56304551Y-103275543D01*
X56296087Y-103278792D01*
X56277715Y-103297164D01*
X56268295Y-103305210D01*
X56247281Y-103320479D01*
X56247280Y-103320479D01*
X56242750Y-103328326D01*
X56230198Y-103344681D01*
X53208628Y-106366252D01*
X53159652Y-106389090D01*
X53107454Y-106375104D01*
X53082379Y-106346257D01*
X53036241Y-106255706D01*
X53036240Y-106255704D01*
X52944296Y-106163760D01*
X52897448Y-106139890D01*
X52828433Y-106104725D01*
X52828429Y-106104724D01*
X52828426Y-106104723D01*
X52700002Y-106084383D01*
X52696458Y-106084383D01*
X52645678Y-106065901D01*
X52618658Y-106019101D01*
X52628042Y-105965883D01*
X52640594Y-105949524D01*
X52652276Y-105937841D01*
X52661706Y-105929787D01*
X52682719Y-105914521D01*
X52687247Y-105906676D01*
X52699799Y-105890317D01*
X52964324Y-105625793D01*
X53007824Y-105603629D01*
X53109661Y-105587500D01*
X53208587Y-105537095D01*
X53287095Y-105458587D01*
X53337500Y-105359661D01*
X53338259Y-105354869D01*
X53354869Y-105250002D01*
X53354869Y-105249997D01*
X53337501Y-105140344D01*
X53337500Y-105140343D01*
X53337500Y-105140339D01*
X53287095Y-105041413D01*
X53287094Y-105041412D01*
X53287093Y-105041410D01*
X53208589Y-104962906D01*
X53193072Y-104955000D01*
X53109661Y-104912500D01*
X53109658Y-104912499D01*
X53109655Y-104912498D01*
X53000002Y-104895131D01*
X52999998Y-104895131D01*
X52890344Y-104912498D01*
X52890340Y-104912499D01*
X52890339Y-104912500D01*
X52844694Y-104935757D01*
X52791410Y-104962906D01*
X52712906Y-105041410D01*
X52690152Y-105086069D01*
X52662500Y-105140339D01*
X52662499Y-105140340D01*
X52662500Y-105140340D01*
X52662498Y-105140344D01*
X52646370Y-105242172D01*
X52624205Y-105285674D01*
X52423521Y-105486361D01*
X52374545Y-105509199D01*
X52367659Y-105509500D01*
X49277489Y-105509500D01*
X49251133Y-105499907D01*
X49237584Y-105508049D01*
X49222511Y-105509500D01*
X49140069Y-105509500D01*
X49089289Y-105491018D01*
X49062269Y-105444218D01*
X49069678Y-105394638D01*
X49072101Y-105389883D01*
X49075835Y-105382553D01*
X49115354Y-105345698D01*
X49158584Y-105340390D01*
X49234870Y-105352473D01*
X49246984Y-105359188D01*
X49250469Y-105356264D01*
X49265130Y-105352473D01*
X49359655Y-105337501D01*
X49359655Y-105337500D01*
X49359661Y-105337500D01*
X49458587Y-105287095D01*
X49537095Y-105208587D01*
X49587500Y-105109661D01*
X49601604Y-105020617D01*
X49604869Y-105000002D01*
X49604869Y-104999997D01*
X49587501Y-104890344D01*
X49587500Y-104890343D01*
X49587500Y-104890339D01*
X49537095Y-104791413D01*
X49537094Y-104791412D01*
X49537093Y-104791410D01*
X49458589Y-104712906D01*
X49440079Y-104703475D01*
X49359661Y-104662500D01*
X49359658Y-104662499D01*
X49359655Y-104662498D01*
X49250002Y-104645131D01*
X49249998Y-104645131D01*
X49140344Y-104662498D01*
X49140340Y-104662499D01*
X49140339Y-104662500D01*
X49091782Y-104687240D01*
X49041410Y-104712906D01*
X48962905Y-104791411D01*
X48962905Y-104791412D01*
X48924162Y-104867448D01*
X48884640Y-104904302D01*
X48841415Y-104909609D01*
X48750003Y-104895131D01*
X48749998Y-104895131D01*
X48640344Y-104912498D01*
X48640340Y-104912499D01*
X48640339Y-104912500D01*
X48594694Y-104935757D01*
X48541410Y-104962906D01*
X48462906Y-105041410D01*
X48440152Y-105086069D01*
X48412500Y-105140339D01*
X48412499Y-105140340D01*
X48412500Y-105140340D01*
X48412498Y-105140344D01*
X48395131Y-105249997D01*
X48395131Y-105250002D01*
X48412498Y-105359655D01*
X48412499Y-105359658D01*
X48412500Y-105359661D01*
X48440951Y-105415500D01*
X48447546Y-105428443D01*
X48454131Y-105482080D01*
X48424699Y-105527401D01*
X48423576Y-105528231D01*
X48420154Y-105530716D01*
X48402053Y-105540543D01*
X48393589Y-105543792D01*
X48375217Y-105562164D01*
X48365797Y-105570210D01*
X48344783Y-105585479D01*
X48344782Y-105585479D01*
X48340252Y-105593326D01*
X48327700Y-105609681D01*
X46809253Y-107128128D01*
X46760277Y-107150966D01*
X46741040Y-107150295D01*
X46740004Y-107150131D01*
X46739998Y-107150131D01*
X46630344Y-107167498D01*
X46630340Y-107167499D01*
X46630339Y-107167500D01*
X46581782Y-107192240D01*
X46531410Y-107217906D01*
X46452906Y-107296410D01*
X46427240Y-107346782D01*
X46402500Y-107395339D01*
X46402499Y-107395340D01*
X46402500Y-107395340D01*
X46402498Y-107395344D01*
X46385131Y-107504997D01*
X46385131Y-107505002D01*
X23300500Y-107505002D01*
X23300500Y-106405002D01*
X40784383Y-106405002D01*
X40804723Y-106533426D01*
X40804724Y-106533429D01*
X40804725Y-106533433D01*
X40857750Y-106637500D01*
X40863760Y-106649296D01*
X40955703Y-106741239D01*
X40955705Y-106741240D01*
X40955706Y-106741241D01*
X41071567Y-106800275D01*
X41071572Y-106800275D01*
X41071573Y-106800276D01*
X41199998Y-106820617D01*
X41200000Y-106820617D01*
X41200002Y-106820617D01*
X41295615Y-106805472D01*
X41328433Y-106800275D01*
X41444294Y-106741241D01*
X41536241Y-106649294D01*
X41595275Y-106533433D01*
X41606212Y-106464383D01*
X41615617Y-106405002D01*
X44184383Y-106405002D01*
X44204723Y-106533426D01*
X44204724Y-106533429D01*
X44204725Y-106533433D01*
X44257750Y-106637500D01*
X44263760Y-106649296D01*
X44355703Y-106741239D01*
X44355705Y-106741240D01*
X44355706Y-106741241D01*
X44471567Y-106800275D01*
X44471572Y-106800275D01*
X44471573Y-106800276D01*
X44599998Y-106820617D01*
X44600000Y-106820617D01*
X44600002Y-106820617D01*
X44695615Y-106805472D01*
X44728433Y-106800275D01*
X44844294Y-106741241D01*
X44936241Y-106649294D01*
X44995275Y-106533433D01*
X45006212Y-106464383D01*
X45015617Y-106405002D01*
X45184383Y-106405002D01*
X45204723Y-106533426D01*
X45204724Y-106533429D01*
X45204725Y-106533433D01*
X45257750Y-106637500D01*
X45263760Y-106649296D01*
X45355703Y-106741239D01*
X45355705Y-106741240D01*
X45355706Y-106741241D01*
X45471567Y-106800275D01*
X45471572Y-106800275D01*
X45471573Y-106800276D01*
X45599998Y-106820617D01*
X45600000Y-106820617D01*
X45600002Y-106820617D01*
X45695615Y-106805472D01*
X45728433Y-106800275D01*
X45844294Y-106741241D01*
X45936241Y-106649294D01*
X45995275Y-106533433D01*
X46006212Y-106464383D01*
X46015617Y-106405002D01*
X46015617Y-106404997D01*
X45995276Y-106276573D01*
X45995275Y-106276572D01*
X45995275Y-106276567D01*
X45936241Y-106160706D01*
X45936240Y-106160705D01*
X45936239Y-106160703D01*
X45844296Y-106068760D01*
X45818825Y-106055782D01*
X45728433Y-106009725D01*
X45728429Y-106009724D01*
X45728426Y-106009723D01*
X45600002Y-105989383D01*
X45599998Y-105989383D01*
X45471573Y-106009723D01*
X45471568Y-106009724D01*
X45471567Y-106009725D01*
X45453166Y-106019101D01*
X45355703Y-106068760D01*
X45263760Y-106160703D01*
X45239711Y-106207902D01*
X45204725Y-106276567D01*
X45204724Y-106276568D01*
X45204725Y-106276568D01*
X45204723Y-106276573D01*
X45184383Y-106404997D01*
X45184383Y-106405002D01*
X45015617Y-106405002D01*
X45015617Y-106404997D01*
X44995276Y-106276573D01*
X44995275Y-106276572D01*
X44995275Y-106276567D01*
X44936241Y-106160706D01*
X44936240Y-106160705D01*
X44936239Y-106160703D01*
X44844296Y-106068760D01*
X44818825Y-106055782D01*
X44728433Y-106009725D01*
X44728429Y-106009724D01*
X44728426Y-106009723D01*
X44600002Y-105989383D01*
X44599998Y-105989383D01*
X44471573Y-106009723D01*
X44471568Y-106009724D01*
X44471567Y-106009725D01*
X44453166Y-106019101D01*
X44355703Y-106068760D01*
X44263760Y-106160703D01*
X44239711Y-106207902D01*
X44204725Y-106276567D01*
X44204724Y-106276568D01*
X44204725Y-106276568D01*
X44204723Y-106276573D01*
X44184383Y-106404997D01*
X44184383Y-106405002D01*
X41615617Y-106405002D01*
X41615617Y-106404997D01*
X41595276Y-106276573D01*
X41595275Y-106276572D01*
X41595275Y-106276567D01*
X41536241Y-106160706D01*
X41536240Y-106160705D01*
X41536239Y-106160703D01*
X41444296Y-106068760D01*
X41418825Y-106055782D01*
X41328433Y-106009725D01*
X41328429Y-106009724D01*
X41328426Y-106009723D01*
X41200002Y-105989383D01*
X41199998Y-105989383D01*
X41071573Y-106009723D01*
X41071568Y-106009724D01*
X41071567Y-106009725D01*
X41053166Y-106019101D01*
X40955703Y-106068760D01*
X40863760Y-106160703D01*
X40839711Y-106207902D01*
X40804725Y-106276567D01*
X40804724Y-106276568D01*
X40804725Y-106276568D01*
X40804723Y-106276573D01*
X40784383Y-106404997D01*
X40784383Y-106405002D01*
X23300500Y-106405002D01*
X23300500Y-104605002D01*
X35184383Y-104605002D01*
X35204723Y-104733426D01*
X35204724Y-104733429D01*
X35204725Y-104733433D01*
X35262676Y-104847169D01*
X35263760Y-104849296D01*
X35355703Y-104941239D01*
X35355705Y-104941240D01*
X35355706Y-104941241D01*
X35471567Y-105000275D01*
X35471572Y-105000275D01*
X35471573Y-105000276D01*
X35599998Y-105020617D01*
X35600000Y-105020617D01*
X35600002Y-105020617D01*
X35696221Y-105005377D01*
X35728433Y-105000275D01*
X35844294Y-104941241D01*
X35936241Y-104849294D01*
X35995275Y-104733433D01*
X36010134Y-104639617D01*
X36015617Y-104605002D01*
X38984383Y-104605002D01*
X39004723Y-104733426D01*
X39004724Y-104733429D01*
X39004725Y-104733433D01*
X39062676Y-104847169D01*
X39063760Y-104849296D01*
X39155703Y-104941239D01*
X39155705Y-104941240D01*
X39155706Y-104941241D01*
X39271567Y-105000275D01*
X39271572Y-105000275D01*
X39271573Y-105000276D01*
X39399998Y-105020617D01*
X39400000Y-105020617D01*
X39400002Y-105020617D01*
X39496221Y-105005377D01*
X39528433Y-105000275D01*
X39644294Y-104941241D01*
X39736241Y-104849294D01*
X39795275Y-104733433D01*
X39810134Y-104639617D01*
X39815617Y-104605002D01*
X39815617Y-104604997D01*
X39795276Y-104476573D01*
X39795275Y-104476572D01*
X39795275Y-104476567D01*
X39736241Y-104360706D01*
X39736240Y-104360705D01*
X39736239Y-104360703D01*
X39644296Y-104268760D01*
X39628314Y-104260617D01*
X39528433Y-104209725D01*
X39528429Y-104209724D01*
X39528426Y-104209723D01*
X39400002Y-104189383D01*
X39399998Y-104189383D01*
X39271573Y-104209723D01*
X39271568Y-104209724D01*
X39271567Y-104209725D01*
X39214698Y-104238700D01*
X39155703Y-104268760D01*
X39063760Y-104360703D01*
X39063487Y-104361239D01*
X39004725Y-104476567D01*
X39004724Y-104476568D01*
X39004725Y-104476568D01*
X39004723Y-104476573D01*
X38984383Y-104604997D01*
X38984383Y-104605002D01*
X36015617Y-104605002D01*
X36015617Y-104604997D01*
X35995276Y-104476573D01*
X35995275Y-104476572D01*
X35995275Y-104476567D01*
X35936241Y-104360706D01*
X35936240Y-104360705D01*
X35936239Y-104360703D01*
X35844296Y-104268760D01*
X35828314Y-104260617D01*
X35728433Y-104209725D01*
X35728429Y-104209724D01*
X35728426Y-104209723D01*
X35600002Y-104189383D01*
X35599998Y-104189383D01*
X35471573Y-104209723D01*
X35471568Y-104209724D01*
X35471567Y-104209725D01*
X35414698Y-104238700D01*
X35355703Y-104268760D01*
X35263760Y-104360703D01*
X35263487Y-104361239D01*
X35204725Y-104476567D01*
X35204724Y-104476568D01*
X35204725Y-104476568D01*
X35204723Y-104476573D01*
X35184383Y-104604997D01*
X35184383Y-104605002D01*
X23300500Y-104605002D01*
X23300500Y-103805002D01*
X39984383Y-103805002D01*
X40004723Y-103933426D01*
X40004724Y-103933429D01*
X40004725Y-103933433D01*
X40028812Y-103980706D01*
X40063760Y-104049296D01*
X40155703Y-104141239D01*
X40155705Y-104141240D01*
X40155706Y-104141241D01*
X40271567Y-104200275D01*
X40271572Y-104200275D01*
X40271573Y-104200276D01*
X40399998Y-104220617D01*
X40400000Y-104220617D01*
X40400002Y-104220617D01*
X40495615Y-104205472D01*
X40528433Y-104200275D01*
X40644294Y-104141241D01*
X40736241Y-104049294D01*
X40795275Y-103933433D01*
X40806921Y-103859904D01*
X40815617Y-103805002D01*
X41384383Y-103805002D01*
X41404723Y-103933426D01*
X41404724Y-103933429D01*
X41404725Y-103933433D01*
X41428812Y-103980706D01*
X41463760Y-104049296D01*
X41555703Y-104141239D01*
X41555705Y-104141240D01*
X41555706Y-104141241D01*
X41671567Y-104200275D01*
X41671572Y-104200275D01*
X41671573Y-104200276D01*
X41799998Y-104220617D01*
X41800000Y-104220617D01*
X41800002Y-104220617D01*
X41895615Y-104205472D01*
X41928433Y-104200275D01*
X42044294Y-104141241D01*
X42136241Y-104049294D01*
X42195275Y-103933433D01*
X42206921Y-103859904D01*
X42215617Y-103805002D01*
X42215617Y-103804997D01*
X42195276Y-103676573D01*
X42195275Y-103676572D01*
X42195275Y-103676567D01*
X42158811Y-103605002D01*
X43645131Y-103605002D01*
X43662498Y-103714655D01*
X43662499Y-103714658D01*
X43662500Y-103714661D01*
X43708528Y-103804997D01*
X43712906Y-103813589D01*
X43791410Y-103892093D01*
X43791412Y-103892094D01*
X43791413Y-103892095D01*
X43890339Y-103942500D01*
X43890343Y-103942500D01*
X43890344Y-103942501D01*
X43999998Y-103959869D01*
X44000000Y-103959869D01*
X44000002Y-103959869D01*
X44109655Y-103942501D01*
X44109655Y-103942500D01*
X44109661Y-103942500D01*
X44208587Y-103892095D01*
X44232041Y-103868640D01*
X44281017Y-103845801D01*
X44287904Y-103845500D01*
X52422659Y-103845500D01*
X52424726Y-103845554D01*
X52431563Y-103845912D01*
X52468462Y-103847846D01*
X52492717Y-103838534D01*
X52504596Y-103835016D01*
X52530006Y-103829616D01*
X52537332Y-103824292D01*
X52555461Y-103814450D01*
X52563910Y-103811207D01*
X52563910Y-103811206D01*
X52563912Y-103811206D01*
X52582278Y-103792838D01*
X52591706Y-103784787D01*
X52612719Y-103769521D01*
X52617247Y-103761676D01*
X52629803Y-103745314D01*
X52701567Y-103673550D01*
X52750543Y-103650712D01*
X52802741Y-103664698D01*
X52833736Y-103708964D01*
X52835455Y-103717052D01*
X52852498Y-103824654D01*
X52852499Y-103824657D01*
X52852500Y-103824661D01*
X52886858Y-103892093D01*
X52902906Y-103923589D01*
X52981410Y-104002093D01*
X52981412Y-104002094D01*
X52981413Y-104002095D01*
X53080339Y-104052500D01*
X53080343Y-104052500D01*
X53080344Y-104052501D01*
X53189998Y-104069869D01*
X53190000Y-104069869D01*
X53190002Y-104069869D01*
X53299655Y-104052501D01*
X53299655Y-104052500D01*
X53299661Y-104052500D01*
X53398587Y-104002095D01*
X53477095Y-103923587D01*
X53527500Y-103824661D01*
X53531946Y-103796591D01*
X53544869Y-103715002D01*
X53544869Y-103714997D01*
X53527501Y-103605344D01*
X53527500Y-103605340D01*
X53527500Y-103605339D01*
X53479107Y-103510363D01*
X53472523Y-103456729D01*
X53501955Y-103411408D01*
X53549498Y-103395500D01*
X54132096Y-103395500D01*
X54182876Y-103413982D01*
X54187958Y-103418640D01*
X54211410Y-103442093D01*
X54211412Y-103442094D01*
X54211413Y-103442095D01*
X54310339Y-103492500D01*
X54310343Y-103492500D01*
X54310344Y-103492501D01*
X54419998Y-103509869D01*
X54420000Y-103509869D01*
X54420002Y-103509869D01*
X54529655Y-103492501D01*
X54529655Y-103492500D01*
X54529661Y-103492500D01*
X54628587Y-103442095D01*
X54707095Y-103363587D01*
X54757500Y-103264661D01*
X54763238Y-103228433D01*
X54774869Y-103155002D01*
X54774869Y-103154997D01*
X54757501Y-103045344D01*
X54757500Y-103045343D01*
X54757500Y-103045339D01*
X54707095Y-102946413D01*
X54707094Y-102946412D01*
X54707093Y-102946410D01*
X54628589Y-102867906D01*
X54604639Y-102855703D01*
X54529661Y-102817500D01*
X54529658Y-102817499D01*
X54529655Y-102817498D01*
X54420002Y-102800131D01*
X54419998Y-102800131D01*
X54310344Y-102817498D01*
X54310340Y-102817499D01*
X54310339Y-102817500D01*
X54296495Y-102824554D01*
X54211410Y-102867906D01*
X54187958Y-102891360D01*
X54138983Y-102914199D01*
X54132096Y-102914500D01*
X52887332Y-102914500D01*
X52885264Y-102914446D01*
X52862644Y-102913260D01*
X52841538Y-102912154D01*
X52841537Y-102912154D01*
X52841536Y-102912154D01*
X52817285Y-102921463D01*
X52805404Y-102924982D01*
X52779993Y-102930384D01*
X52772664Y-102935709D01*
X52754547Y-102945546D01*
X52746087Y-102948793D01*
X52727718Y-102967162D01*
X52718297Y-102975208D01*
X52697281Y-102990478D01*
X52697279Y-102990479D01*
X52692750Y-102998325D01*
X52680198Y-103014682D01*
X52353521Y-103341361D01*
X52304545Y-103364199D01*
X52297659Y-103364500D01*
X44287904Y-103364500D01*
X44237124Y-103346018D01*
X44232042Y-103341360D01*
X44208589Y-103317906D01*
X44206774Y-103316981D01*
X44109661Y-103267500D01*
X44109658Y-103267499D01*
X44109655Y-103267498D01*
X44000002Y-103250131D01*
X43999998Y-103250131D01*
X43890344Y-103267498D01*
X43890340Y-103267499D01*
X43890339Y-103267500D01*
X43841782Y-103292240D01*
X43791410Y-103317906D01*
X43712906Y-103396410D01*
X43692613Y-103436239D01*
X43662500Y-103495339D01*
X43662499Y-103495340D01*
X43662500Y-103495340D01*
X43662498Y-103495344D01*
X43645131Y-103604997D01*
X43645131Y-103605002D01*
X42158811Y-103605002D01*
X42136241Y-103560706D01*
X42136240Y-103560705D01*
X42136239Y-103560703D01*
X42044296Y-103468760D01*
X42036697Y-103464888D01*
X41928433Y-103409725D01*
X41928429Y-103409724D01*
X41928426Y-103409723D01*
X41800002Y-103389383D01*
X41799998Y-103389383D01*
X41671573Y-103409723D01*
X41671568Y-103409724D01*
X41671567Y-103409725D01*
X41652110Y-103419639D01*
X41555703Y-103468760D01*
X41463760Y-103560703D01*
X41443378Y-103600706D01*
X41404725Y-103676567D01*
X41404724Y-103676568D01*
X41404725Y-103676568D01*
X41404723Y-103676573D01*
X41384383Y-103804997D01*
X41384383Y-103805002D01*
X40815617Y-103805002D01*
X40815617Y-103804997D01*
X40795276Y-103676573D01*
X40795275Y-103676572D01*
X40795275Y-103676567D01*
X40736241Y-103560706D01*
X40736240Y-103560705D01*
X40736239Y-103560703D01*
X40644296Y-103468760D01*
X40636697Y-103464888D01*
X40528433Y-103409725D01*
X40528429Y-103409724D01*
X40528426Y-103409723D01*
X40400002Y-103389383D01*
X40399998Y-103389383D01*
X40271573Y-103409723D01*
X40271568Y-103409724D01*
X40271567Y-103409725D01*
X40252110Y-103419639D01*
X40155703Y-103468760D01*
X40063760Y-103560703D01*
X40043378Y-103600706D01*
X40004725Y-103676567D01*
X40004724Y-103676568D01*
X40004725Y-103676568D01*
X40004723Y-103676573D01*
X39984383Y-103804997D01*
X39984383Y-103805002D01*
X23300500Y-103805002D01*
X23300500Y-102001414D01*
X23300601Y-101998595D01*
X23309552Y-101873426D01*
X23314446Y-101805002D01*
X39984383Y-101805002D01*
X40004723Y-101933426D01*
X40004724Y-101933429D01*
X40004725Y-101933433D01*
X40033188Y-101989294D01*
X40063760Y-102049296D01*
X40155703Y-102141239D01*
X40155705Y-102141240D01*
X40155706Y-102141241D01*
X40271567Y-102200275D01*
X40271572Y-102200275D01*
X40271573Y-102200276D01*
X40399998Y-102220617D01*
X40400000Y-102220617D01*
X40400002Y-102220617D01*
X40495615Y-102205472D01*
X40528433Y-102200275D01*
X40644294Y-102141241D01*
X40736241Y-102049294D01*
X40795275Y-101933433D01*
X40804778Y-101873433D01*
X40815617Y-101805002D01*
X41384383Y-101805002D01*
X41404723Y-101933426D01*
X41404724Y-101933429D01*
X41404725Y-101933433D01*
X41433188Y-101989294D01*
X41463760Y-102049296D01*
X41555703Y-102141239D01*
X41555705Y-102141240D01*
X41555706Y-102141241D01*
X41671567Y-102200275D01*
X41671572Y-102200275D01*
X41671573Y-102200276D01*
X41799998Y-102220617D01*
X41800000Y-102220617D01*
X41800002Y-102220617D01*
X41895615Y-102205472D01*
X41928433Y-102200275D01*
X42044294Y-102141241D01*
X42136241Y-102049294D01*
X42195275Y-101933433D01*
X42204778Y-101873433D01*
X42215617Y-101805002D01*
X43184383Y-101805002D01*
X43204723Y-101933426D01*
X43204724Y-101933429D01*
X43204725Y-101933433D01*
X43233188Y-101989294D01*
X43263760Y-102049296D01*
X43355703Y-102141239D01*
X43355705Y-102141240D01*
X43355706Y-102141241D01*
X43471567Y-102200275D01*
X43471572Y-102200275D01*
X43471573Y-102200276D01*
X43599998Y-102220617D01*
X43600000Y-102220617D01*
X43600002Y-102220617D01*
X43695615Y-102205472D01*
X43728433Y-102200275D01*
X43844294Y-102141241D01*
X43936241Y-102049294D01*
X43995275Y-101933433D01*
X44004778Y-101873433D01*
X44015617Y-101805002D01*
X44015617Y-101804997D01*
X43995276Y-101676573D01*
X43995275Y-101676572D01*
X43995275Y-101676567D01*
X43936241Y-101560706D01*
X43936240Y-101560705D01*
X43936239Y-101560703D01*
X43844296Y-101468760D01*
X43836920Y-101465002D01*
X43728433Y-101409725D01*
X43728429Y-101409724D01*
X43728426Y-101409723D01*
X43667049Y-101400002D01*
X47684383Y-101400002D01*
X47704723Y-101528426D01*
X47704724Y-101528429D01*
X47704725Y-101528433D01*
X47758224Y-101633431D01*
X47763760Y-101644296D01*
X47855703Y-101736239D01*
X47855705Y-101736240D01*
X47855706Y-101736241D01*
X47971567Y-101795275D01*
X47971572Y-101795275D01*
X47971573Y-101795276D01*
X48099998Y-101815617D01*
X48100000Y-101815617D01*
X48100002Y-101815617D01*
X48198304Y-101800047D01*
X48228433Y-101795275D01*
X48344294Y-101736241D01*
X48436241Y-101644294D01*
X48495275Y-101528433D01*
X48505875Y-101461506D01*
X48515617Y-101400002D01*
X48515617Y-101399997D01*
X48495276Y-101271573D01*
X48495275Y-101271572D01*
X48495275Y-101271567D01*
X48436241Y-101155706D01*
X48436240Y-101155705D01*
X48436239Y-101155703D01*
X48344296Y-101063760D01*
X48325376Y-101054120D01*
X48228433Y-101004725D01*
X48228429Y-101004724D01*
X48228426Y-101004723D01*
X48100002Y-100984383D01*
X48099998Y-100984383D01*
X47971573Y-101004723D01*
X47971568Y-101004724D01*
X47971567Y-101004725D01*
X47917165Y-101032444D01*
X47855703Y-101063760D01*
X47763760Y-101155703D01*
X47738641Y-101205002D01*
X47704725Y-101271567D01*
X47704724Y-101271568D01*
X47704725Y-101271568D01*
X47704723Y-101271573D01*
X47684383Y-101399997D01*
X47684383Y-101400002D01*
X43667049Y-101400002D01*
X43600002Y-101389383D01*
X43599998Y-101389383D01*
X43471573Y-101409723D01*
X43471568Y-101409724D01*
X43471567Y-101409725D01*
X43414698Y-101438700D01*
X43355703Y-101468760D01*
X43263760Y-101560703D01*
X43243597Y-101600276D01*
X43204725Y-101676567D01*
X43204724Y-101676568D01*
X43204725Y-101676568D01*
X43204723Y-101676573D01*
X43184383Y-101804997D01*
X43184383Y-101805002D01*
X42215617Y-101805002D01*
X42215617Y-101804997D01*
X42195276Y-101676573D01*
X42195275Y-101676572D01*
X42195275Y-101676567D01*
X42136241Y-101560706D01*
X42136240Y-101560705D01*
X42136239Y-101560703D01*
X42044296Y-101468760D01*
X42036920Y-101465002D01*
X41928433Y-101409725D01*
X41928429Y-101409724D01*
X41928426Y-101409723D01*
X41800002Y-101389383D01*
X41799998Y-101389383D01*
X41671573Y-101409723D01*
X41671568Y-101409724D01*
X41671567Y-101409725D01*
X41614698Y-101438700D01*
X41555703Y-101468760D01*
X41463760Y-101560703D01*
X41443597Y-101600276D01*
X41404725Y-101676567D01*
X41404724Y-101676568D01*
X41404725Y-101676568D01*
X41404723Y-101676573D01*
X41384383Y-101804997D01*
X41384383Y-101805002D01*
X40815617Y-101805002D01*
X40815617Y-101804997D01*
X40795276Y-101676573D01*
X40795275Y-101676572D01*
X40795275Y-101676567D01*
X40736241Y-101560706D01*
X40736240Y-101560705D01*
X40736239Y-101560703D01*
X40644296Y-101468760D01*
X40636920Y-101465002D01*
X40528433Y-101409725D01*
X40528429Y-101409724D01*
X40528426Y-101409723D01*
X40400002Y-101389383D01*
X40399998Y-101389383D01*
X40271573Y-101409723D01*
X40271568Y-101409724D01*
X40271567Y-101409725D01*
X40214698Y-101438700D01*
X40155703Y-101468760D01*
X40063760Y-101560703D01*
X40043597Y-101600276D01*
X40004725Y-101676567D01*
X40004724Y-101676568D01*
X40004725Y-101676568D01*
X40004723Y-101676573D01*
X39984383Y-101804997D01*
X39984383Y-101805002D01*
X23314446Y-101805002D01*
X23317395Y-101763761D01*
X23318999Y-101752615D01*
X23368143Y-101526711D01*
X23371318Y-101515897D01*
X23452106Y-101299293D01*
X23456781Y-101289054D01*
X23502677Y-101205002D01*
X35184383Y-101205002D01*
X35204723Y-101333426D01*
X35204724Y-101333429D01*
X35204725Y-101333433D01*
X35262579Y-101446979D01*
X35263760Y-101449296D01*
X35355703Y-101541239D01*
X35355705Y-101541240D01*
X35355706Y-101541241D01*
X35471567Y-101600275D01*
X35471572Y-101600275D01*
X35471573Y-101600276D01*
X35599998Y-101620617D01*
X35600000Y-101620617D01*
X35600002Y-101620617D01*
X35695615Y-101605472D01*
X35728433Y-101600275D01*
X35844294Y-101541241D01*
X35936241Y-101449294D01*
X35995275Y-101333433D01*
X36006794Y-101260706D01*
X36015617Y-101205002D01*
X38984383Y-101205002D01*
X39004723Y-101333426D01*
X39004724Y-101333429D01*
X39004725Y-101333433D01*
X39062579Y-101446979D01*
X39063760Y-101449296D01*
X39155703Y-101541239D01*
X39155705Y-101541240D01*
X39155706Y-101541241D01*
X39271567Y-101600275D01*
X39271572Y-101600275D01*
X39271573Y-101600276D01*
X39399998Y-101620617D01*
X39400000Y-101620617D01*
X39400002Y-101620617D01*
X39495615Y-101605472D01*
X39528433Y-101600275D01*
X39644294Y-101541241D01*
X39736241Y-101449294D01*
X39795275Y-101333433D01*
X39806794Y-101260706D01*
X39815617Y-101205002D01*
X39815617Y-101204997D01*
X39795276Y-101076573D01*
X39795275Y-101076572D01*
X39795275Y-101076567D01*
X39736241Y-100960706D01*
X39736240Y-100960705D01*
X39736239Y-100960703D01*
X39644296Y-100868760D01*
X39601695Y-100847054D01*
X39528433Y-100809725D01*
X39528429Y-100809724D01*
X39528426Y-100809723D01*
X39400002Y-100789383D01*
X39399998Y-100789383D01*
X39271573Y-100809723D01*
X39271568Y-100809724D01*
X39271567Y-100809725D01*
X39218885Y-100836568D01*
X39155703Y-100868760D01*
X39063760Y-100960703D01*
X39041331Y-101004723D01*
X39004725Y-101076567D01*
X39004724Y-101076568D01*
X39004725Y-101076568D01*
X39004723Y-101076573D01*
X38984383Y-101204997D01*
X38984383Y-101205002D01*
X36015617Y-101205002D01*
X36015617Y-101204997D01*
X35995276Y-101076573D01*
X35995275Y-101076572D01*
X35995275Y-101076567D01*
X35936241Y-100960706D01*
X35936240Y-100960705D01*
X35936239Y-100960703D01*
X35844296Y-100868760D01*
X35801695Y-100847054D01*
X35728433Y-100809725D01*
X35728429Y-100809724D01*
X35728426Y-100809723D01*
X35600002Y-100789383D01*
X35599998Y-100789383D01*
X35471573Y-100809723D01*
X35471568Y-100809724D01*
X35471567Y-100809725D01*
X35418885Y-100836568D01*
X35355703Y-100868760D01*
X35263760Y-100960703D01*
X35241331Y-101004723D01*
X35204725Y-101076567D01*
X35204724Y-101076568D01*
X35204725Y-101076568D01*
X35204723Y-101076573D01*
X35184383Y-101204997D01*
X35184383Y-101205002D01*
X23502677Y-101205002D01*
X23567590Y-101086125D01*
X23573667Y-101076668D01*
X23712227Y-100891574D01*
X23719596Y-100883071D01*
X23883071Y-100719596D01*
X23891574Y-100712227D01*
X24076668Y-100573667D01*
X24086125Y-100567590D01*
X24289054Y-100456781D01*
X24299293Y-100452106D01*
X24515902Y-100371316D01*
X24526711Y-100368143D01*
X24752615Y-100318999D01*
X24763761Y-100317395D01*
X24895743Y-100307956D01*
X24998597Y-100300601D01*
X25001416Y-100300500D01*
X25047595Y-100300500D01*
X50593659Y-100300500D01*
X50644439Y-100318982D01*
G37*
G04 #@! TD.AperFunction*
G04 #@! TA.AperFunction,Conductor*
G36*
X71683313Y-112159126D02*
G01*
X71714308Y-112203392D01*
X71717000Y-112223839D01*
X71717000Y-112621000D01*
X72643884Y-112621000D01*
X72615507Y-112665156D01*
X72575000Y-112803111D01*
X72575000Y-112946889D01*
X72615507Y-113084844D01*
X72643884Y-113129000D01*
X71717000Y-113129000D01*
X71717000Y-113773596D01*
X71723504Y-113834088D01*
X71723506Y-113834099D01*
X71771544Y-113962893D01*
X71771973Y-114016930D01*
X71737566Y-114058601D01*
X71697525Y-114069500D01*
X69871340Y-114069500D01*
X69820560Y-114051018D01*
X69793540Y-114004218D01*
X69802924Y-113951000D01*
X69815479Y-113934639D01*
X70685121Y-113064997D01*
X71582140Y-112167977D01*
X71631115Y-112145140D01*
X71683313Y-112159126D01*
G37*
G04 #@! TD.AperFunction*
G04 #@! TA.AperFunction,Conductor*
G36*
X75160888Y-109308982D02*
G01*
X75187908Y-109355782D01*
X75178524Y-109409000D01*
X75147348Y-109439171D01*
X75139299Y-109443474D01*
X75050878Y-109490735D01*
X74897011Y-109617011D01*
X74770735Y-109770878D01*
X74676901Y-109946429D01*
X74676901Y-109946430D01*
X74619122Y-110136900D01*
X74619121Y-110136904D01*
X74599611Y-110334999D01*
X74619121Y-110533095D01*
X74619122Y-110533099D01*
X74676901Y-110723568D01*
X74676901Y-110723569D01*
X74676902Y-110723570D01*
X74676903Y-110723573D01*
X74717757Y-110800006D01*
X74722225Y-110808365D01*
X74729862Y-110861862D01*
X74708414Y-110901466D01*
X74185138Y-111424743D01*
X74183638Y-111426166D01*
X74151086Y-111455478D01*
X74151085Y-111455479D01*
X74144015Y-111471359D01*
X74140520Y-111479208D01*
X74134603Y-111490105D01*
X74132046Y-111494042D01*
X74088887Y-111526561D01*
X74038186Y-111525031D01*
X74034099Y-111523506D01*
X74034088Y-111523504D01*
X73973596Y-111517000D01*
X73329000Y-111517000D01*
X73329000Y-112441325D01*
X73217315Y-112390320D01*
X73110763Y-112375000D01*
X73039237Y-112375000D01*
X72932685Y-112390320D01*
X72821000Y-112441325D01*
X72821000Y-111517000D01*
X72423840Y-111517000D01*
X72373060Y-111498518D01*
X72346040Y-111451718D01*
X72355424Y-111398500D01*
X72367974Y-111382143D01*
X72508534Y-111241583D01*
X72557507Y-111218747D01*
X72601633Y-111227774D01*
X72632544Y-111244296D01*
X72686427Y-111273097D01*
X72686429Y-111273097D01*
X72686430Y-111273098D01*
X72839395Y-111319500D01*
X72876907Y-111330879D01*
X73075000Y-111350389D01*
X73273093Y-111330879D01*
X73463573Y-111273097D01*
X73639120Y-111179265D01*
X73792988Y-111052988D01*
X73919265Y-110899120D01*
X74013097Y-110723573D01*
X74070879Y-110533093D01*
X74090389Y-110335000D01*
X74070879Y-110136907D01*
X74068638Y-110129521D01*
X74013098Y-109946430D01*
X74013098Y-109946429D01*
X73919264Y-109770878D01*
X73792988Y-109617011D01*
X73639121Y-109490735D01*
X73556895Y-109446785D01*
X73542651Y-109439171D01*
X73506580Y-109398934D01*
X73504812Y-109344924D01*
X73538175Y-109302413D01*
X73579892Y-109290500D01*
X75110108Y-109290500D01*
X75160888Y-109308982D01*
G37*
G04 #@! TD.AperFunction*
G04 #@! TA.AperFunction,Conductor*
G36*
X69988936Y-103550718D02*
G01*
X69989482Y-103549220D01*
X69990863Y-103548422D01*
X69988936Y-103550718D01*
G37*
G04 #@! TD.AperFunction*
M02*
