M48
; DRILL file {KiCad (6.0.7)} date Wed Apr 12 10:42:44 2023
; FORMAT={-:-/ absolute / inch / decimal}
; #@! TF.CreationDate,2023-04-12T10:42:44+10:00
; #@! TF.GenerationSoftware,Kicad,Pcbnew,(6.0.7)
; #@! TF.FileFunction,Plated,1,4,PTH
FMAT,2
INCH
; #@! TA.AperFunction,Plated,PTH,ViaDrill
T1C0.0079
; #@! TA.AperFunction,Plated,PTH,ViaDrill
T2C0.0118
; #@! TA.AperFunction,Plated,PTH,ViaDrill
T3C0.0138
; #@! TA.AperFunction,Plated,PTH,ComponentDrill
T4C0.0256
; #@! TA.AperFunction,Plated,PTH,ComponentDrill
T5C0.0394
%
G90
G05
T1
X1.7323Y-4.0789
X1.8402Y-4.2325
X1.8967Y-4.1378
X1.9213Y-4.1201
X1.9776Y-4.4817
X1.9961Y-4.4514
X1.9972Y-4.412
X2.0118Y-4.2224
X2.0122Y-4.4833
X2.0197Y-4.4093
X2.0776Y-4.1132
X2.0941Y-4.0833
X2.1161Y-4.4717
X2.124Y-3.9697
X2.1348Y-4.4608
X2.1425Y-4.0612
X2.1831Y-4.4734
X2.2531Y-4.4421
X2.2728Y-4.449
X2.2925Y-4.4421
X2.3075Y-4.3321
X2.3122Y-4.4565
X2.3228Y-4.347
X2.3516Y-4.4455
X2.3606Y-4.4053
X2.4675Y-4.3959
X2.5433Y-4.3957
X2.5689Y-4.3524
X2.7008Y-4.3524
T2
X1.4016Y-3.9844
X1.4016Y-4.1183
X1.5512Y-3.9844
X1.5512Y-4.1183
X1.5906Y-4.0081
X1.5906Y-4.0868
X1.622Y-4.1892
X1.622Y-4.3073
X1.6457Y-4.0081
X1.6457Y-4.0868
X1.7165Y-4.0081
X1.7559Y-4.1892
X1.7559Y-4.3073
X1.7795Y-4.0081
X1.7953Y-4.1892
X1.7953Y-4.3073
X1.8412Y-4.3993
X1.8937Y-3.9921
X1.9196Y-4.2745
X1.9203Y-4.3376
X1.9204Y-4.2461
X1.9204Y-4.3071
X1.9894Y-3.9947
X2.0433Y-4.462
X2.0657Y-3.9726
X2.0673Y-4.473
X2.0748Y-4.1929
X2.0767Y-4.0057
X2.0953Y-4.4592
X2.1654Y-4.2915
X2.1742Y-3.9963
X2.1983Y-4.4047
X2.2213Y-4.1536
X2.2653Y-4.0096
X2.2844Y-3.9884
X2.2921Y-4.0152
X2.339Y-4.4679
X2.3406Y-4.0699
X2.3512Y-3.9778
X2.3717Y-4.0703
X2.372Y-4.4593
X2.4008Y-4.075
X2.4016Y-4.1033
X2.4644Y-4.2915
X2.4646Y-4.248
X2.5384Y-4.2463
X2.5384Y-4.3083
X2.561Y-4.3268
X2.5748Y-3.9844
X2.7244Y-4.2402
X2.7519Y-4.2294
X2.8587Y-3.975
X2.9764Y-4.0591
X3.0193Y-4.0955
X3.0496Y-4.0884
X3.3806Y-4.1656
X3.3809Y-4.2059
X3.4134Y-4.2079
X3.439Y-4.1854
T3
X2.0267Y-3.9907
X2.4362Y-4.4663
X2.4476Y-3.9864
X2.499Y-4.4008
X2.5097Y-4.064
X2.6398Y-4.2748
X2.8386Y-4.1514
X2.9783Y-4.1089
X3.0244Y-4.0585
X3.1181Y-4.0226
X3.174Y-3.9738
X3.2579Y-4.2598
X3.3346Y-4.2677
X3.3976Y-4.4528
X3.4453Y-4.3187
X3.5921Y-4.0581
X3.8278Y-4.4628
X3.8396Y-4.1321
X3.9419Y-3.9805
T4
X2.7148Y-3.9856
X2.7148Y-4.0356
X2.7148Y-4.0856
X2.7648Y-3.9856
X2.7648Y-4.0356
X2.7648Y-4.0856
T5
X2.777Y-4.3439
X2.777Y-4.4439
X2.877Y-4.3439
X2.877Y-4.4439
X2.977Y-4.3439
X2.977Y-4.4439
X3.077Y-4.3439
X3.077Y-4.4439
X3.177Y-4.3439
X3.177Y-4.4439
T0
M30
