G04 #@! TF.GenerationSoftware,KiCad,Pcbnew,7.0.6*
G04 #@! TF.CreationDate,2024-03-12T10:09:57+11:00*
G04 #@! TF.ProjectId,owts,6f777473-2e6b-4696-9361-645f70636258,1.2.0*
G04 #@! TF.SameCoordinates,Original*
G04 #@! TF.FileFunction,Copper,L3,Inr*
G04 #@! TF.FilePolarity,Positive*
%FSLAX46Y46*%
G04 Gerber Fmt 4.6, Leading zero omitted, Abs format (unit mm)*
G04 Created by KiCad (PCBNEW 7.0.6) date 2024-03-12 10:09:57*
%MOMM*%
%LPD*%
G01*
G04 APERTURE LIST*
G04 #@! TA.AperFunction,ComponentPad*
%ADD10R,1.700000X1.700000*%
G04 #@! TD*
G04 #@! TA.AperFunction,ComponentPad*
%ADD11O,1.700000X1.700000*%
G04 #@! TD*
G04 #@! TA.AperFunction,ComponentPad*
%ADD12R,1.000000X1.000000*%
G04 #@! TD*
G04 #@! TA.AperFunction,ComponentPad*
%ADD13O,1.000000X1.000000*%
G04 #@! TD*
G04 #@! TA.AperFunction,ViaPad*
%ADD14C,0.500000*%
G04 #@! TD*
G04 #@! TA.AperFunction,ViaPad*
%ADD15C,0.300000*%
G04 #@! TD*
G04 #@! TA.AperFunction,ViaPad*
%ADD16C,0.600000*%
G04 #@! TD*
G04 #@! TA.AperFunction,Conductor*
%ADD17C,0.160000*%
G04 #@! TD*
G04 APERTURE END LIST*
D10*
X73075000Y-112875000D03*
D11*
X73075000Y-110335000D03*
X75615000Y-112875000D03*
X75615000Y-110335000D03*
X78155000Y-112875000D03*
X78155000Y-110335000D03*
X80695000Y-112875000D03*
X80695000Y-110335000D03*
D12*
X70225000Y-103775000D03*
D13*
X68955000Y-103775000D03*
X70225000Y-102505000D03*
X68955000Y-102505000D03*
X70225000Y-101235000D03*
X68955000Y-101235000D03*
D14*
X27750000Y-111000000D03*
D15*
X51500000Y-113750000D03*
X55450000Y-113550000D03*
X54250000Y-113200000D03*
D14*
X30825000Y-109125000D03*
D15*
X48825000Y-107075000D03*
X48750000Y-106300000D03*
X53190000Y-103715000D03*
X46740000Y-107505000D03*
X53000000Y-105250000D03*
X62675000Y-111655000D03*
X48750000Y-105250000D03*
X59960000Y-111895000D03*
X51100000Y-107250000D03*
D14*
X59410000Y-113485000D03*
X60250000Y-113265000D03*
X61000000Y-104225000D03*
X48777502Y-107850000D03*
X60980000Y-103505000D03*
X60240000Y-103385000D03*
X48756694Y-108572751D03*
X59720000Y-101035000D03*
X59450000Y-103375000D03*
X48777502Y-109400000D03*
X58025000Y-101305000D03*
X57539058Y-101844058D03*
D15*
X49250000Y-105000000D03*
D14*
X48775000Y-110175000D03*
X58219495Y-101985505D03*
X40400000Y-101805000D03*
X56421558Y-105501558D03*
X41200000Y-106405000D03*
X55000000Y-109005000D03*
X55225000Y-101505000D03*
D16*
X97225000Y-113355000D03*
D14*
X48100000Y-101400000D03*
X55836667Y-111879500D03*
X45600000Y-109405000D03*
D16*
X63747086Y-103224968D03*
D15*
X58730000Y-113195000D03*
D16*
X100125000Y-101105000D03*
X97525000Y-104955000D03*
D14*
X41800000Y-101805000D03*
D16*
X63475156Y-111780000D03*
X67050000Y-108580000D03*
D14*
X52700000Y-106500000D03*
X43600000Y-101805000D03*
D16*
X84700000Y-108400000D03*
X72100000Y-105445500D03*
D14*
X62596800Y-109003200D03*
X39400000Y-104605000D03*
X35600000Y-101205000D03*
X64475000Y-107855000D03*
X39400000Y-101205000D03*
X45600000Y-106405000D03*
X41200000Y-109405000D03*
D16*
X91240000Y-103075000D03*
X86300000Y-113100000D03*
D14*
X44600000Y-106405000D03*
X52748500Y-101745000D03*
X44600000Y-109405000D03*
X35600000Y-104605000D03*
X40400000Y-103805000D03*
D16*
X79200000Y-102175000D03*
X87510000Y-109695000D03*
D14*
X41800000Y-103805000D03*
X46766652Y-111742471D03*
D16*
X75650000Y-104365000D03*
X51478000Y-101365000D03*
X82750000Y-108200000D03*
D14*
X62600000Y-107900000D03*
X45200000Y-101805000D03*
D16*
X80620000Y-100935000D03*
D15*
X48800000Y-113700000D03*
D14*
X65050000Y-109900000D03*
D15*
X59000000Y-110415000D03*
D16*
X61880000Y-113445000D03*
X62169049Y-101254581D03*
D15*
X57230540Y-112998428D03*
X57730000Y-113005000D03*
D14*
X53220000Y-113264500D03*
X87350000Y-106309500D03*
X52598561Y-113453356D03*
X85875000Y-106830000D03*
X86700000Y-106880000D03*
X51982673Y-113247115D03*
X85867959Y-105805500D03*
D15*
X51300000Y-111995000D03*
D14*
X50530000Y-101465000D03*
X75600000Y-103100000D03*
X52470000Y-100905000D03*
X65400000Y-101204500D03*
X72610000Y-100965000D03*
X76690000Y-104025000D03*
D15*
X53950000Y-100830000D03*
X44000000Y-103605000D03*
X54420000Y-103155000D03*
X58610000Y-110035000D03*
X50730000Y-112065000D03*
D14*
X64475000Y-109430000D03*
D15*
X50700000Y-113065000D03*
X48406594Y-113250000D03*
X53847198Y-113495388D03*
D14*
X69897645Y-107427645D03*
X69200000Y-107700000D03*
D16*
X76820000Y-103085000D03*
D15*
X59730000Y-112915000D03*
X68600000Y-110550000D03*
X65250000Y-110550000D03*
D14*
X77460000Y-103845000D03*
D15*
X58230000Y-112830000D03*
D17*
X52883406Y-112445000D02*
X51100000Y-110661594D01*
X56566594Y-112445000D02*
X52883406Y-112445000D01*
X57116594Y-111895000D02*
X56566594Y-112445000D01*
X51100000Y-110661594D02*
X51100000Y-107250000D01*
X59960000Y-111895000D02*
X57116594Y-111895000D01*
X61985000Y-112345000D02*
X62675000Y-111655000D01*
X52755000Y-112755000D02*
X56695000Y-112755000D01*
X50790000Y-110790000D02*
X52755000Y-112755000D01*
X50790000Y-107715000D02*
X50790000Y-110790000D01*
X56695000Y-112755000D02*
X57105000Y-112345000D01*
X48750000Y-105675000D02*
X50790000Y-107715000D01*
X57105000Y-112345000D02*
X61985000Y-112345000D01*
X48750000Y-105250000D02*
X48750000Y-105675000D01*
X57405000Y-113995000D02*
X51745000Y-113995000D01*
X58230000Y-113170000D02*
X57405000Y-113995000D01*
X51745000Y-113995000D02*
X51500000Y-113750000D01*
X58230000Y-112830000D02*
X58230000Y-113170000D01*
X60250000Y-113560000D02*
X60250000Y-113265000D01*
X59190000Y-114620000D02*
X60250000Y-113560000D01*
X50870000Y-114620000D02*
X59190000Y-114620000D01*
X49750000Y-113500000D02*
X50870000Y-114620000D01*
X49750000Y-108000000D02*
X49750000Y-113500000D01*
X48825000Y-107075000D02*
X49750000Y-108000000D01*
X51055000Y-114305000D02*
X58590000Y-114305000D01*
X50060000Y-113310000D02*
X51055000Y-114305000D01*
X50060000Y-107610000D02*
X50060000Y-113310000D01*
X48750000Y-106300000D02*
X50060000Y-107610000D01*
X58590000Y-114305000D02*
X59410000Y-113485000D01*
X54150000Y-101280000D02*
X53763603Y-101280000D01*
X53763603Y-101280000D02*
X53388603Y-100905000D01*
X64920081Y-100724581D02*
X60905419Y-100724581D01*
X59405000Y-101535000D02*
X58625000Y-100755000D01*
X60095000Y-101535000D02*
X59405000Y-101535000D01*
X54675000Y-100755000D02*
X54150000Y-101280000D01*
X53388603Y-100905000D02*
X52470000Y-100905000D01*
X65400000Y-101204500D02*
X64920081Y-100724581D01*
X60905419Y-100724581D02*
X60095000Y-101535000D01*
X58625000Y-100755000D02*
X54675000Y-100755000D01*
X76190000Y-102875000D02*
X76190000Y-103525000D01*
X73695000Y-100380000D02*
X76190000Y-102875000D01*
X53950000Y-100830000D02*
X54395000Y-100385000D01*
X54395000Y-100385000D02*
X54395000Y-100380000D01*
X76190000Y-103525000D02*
X76690000Y-104025000D01*
X54395000Y-100380000D02*
X73695000Y-100380000D01*
G04 #@! TA.AperFunction,Conductor*
G36*
X52125787Y-100320502D02*
G01*
X52172280Y-100374158D01*
X52182384Y-100444432D01*
X52152890Y-100509012D01*
X52140182Y-100521721D01*
X52138875Y-100522852D01*
X52044623Y-100631626D01*
X51984835Y-100762542D01*
X51976951Y-100817381D01*
X51947457Y-100881961D01*
X51887731Y-100920345D01*
X51816735Y-100920345D01*
X51775530Y-100899412D01*
X51755623Y-100884137D01*
X51621709Y-100828670D01*
X51478000Y-100809750D01*
X51334290Y-100828670D01*
X51200375Y-100884137D01*
X51085380Y-100972377D01*
X51025107Y-101050926D01*
X50967769Y-101092793D01*
X50896898Y-101097014D01*
X50857025Y-101080219D01*
X50740053Y-101005047D01*
X50601961Y-100964500D01*
X50458039Y-100964500D01*
X50319946Y-101005047D01*
X50198873Y-101082855D01*
X50104623Y-101191626D01*
X50044835Y-101322543D01*
X50024797Y-101461915D01*
X50024353Y-101465000D01*
X50044835Y-101607457D01*
X50104623Y-101738373D01*
X50191950Y-101839155D01*
X50198873Y-101847144D01*
X50234438Y-101870000D01*
X50319947Y-101924953D01*
X50458039Y-101965500D01*
X50601961Y-101965500D01*
X50740053Y-101924953D01*
X50861128Y-101847143D01*
X50919534Y-101779737D01*
X50979257Y-101741355D01*
X51050254Y-101741354D01*
X51091461Y-101762288D01*
X51097761Y-101767122D01*
X51198025Y-101844058D01*
X51200378Y-101845863D01*
X51275887Y-101877138D01*
X51334291Y-101901330D01*
X51478000Y-101920250D01*
X51621709Y-101901330D01*
X51719450Y-101860845D01*
X51755624Y-101845862D01*
X51870621Y-101757621D01*
X51958862Y-101642624D01*
X52014330Y-101508709D01*
X52015272Y-101501555D01*
X52025011Y-101427579D01*
X52053732Y-101362654D01*
X52112997Y-101323562D01*
X52183988Y-101322717D01*
X52218052Y-101338029D01*
X52231934Y-101346950D01*
X52259947Y-101364953D01*
X52398039Y-101405500D01*
X52541961Y-101405500D01*
X52680053Y-101364953D01*
X52801128Y-101287143D01*
X52808194Y-101278987D01*
X52867920Y-101240604D01*
X52903419Y-101235500D01*
X53199515Y-101235500D01*
X53267636Y-101255502D01*
X53288609Y-101272405D01*
X53517766Y-101501561D01*
X53521470Y-101505604D01*
X53547883Y-101537081D01*
X53547886Y-101537084D01*
X53561792Y-101545112D01*
X53583465Y-101557625D01*
X53583471Y-101557628D01*
X53588109Y-101560583D01*
X53621773Y-101584155D01*
X53621775Y-101584156D01*
X53626734Y-101586468D01*
X53643676Y-101593485D01*
X53648816Y-101595356D01*
X53648822Y-101595359D01*
X53689312Y-101602498D01*
X53694635Y-101603678D01*
X53734353Y-101614321D01*
X53775285Y-101610739D01*
X53780770Y-101610500D01*
X54132832Y-101610500D01*
X54138316Y-101610739D01*
X54179249Y-101614321D01*
X54218958Y-101603680D01*
X54224299Y-101602496D01*
X54264781Y-101595359D01*
X54264785Y-101595356D01*
X54269947Y-101593478D01*
X54286856Y-101586473D01*
X54291825Y-101584156D01*
X54291830Y-101584155D01*
X54325509Y-101560571D01*
X54330108Y-101557641D01*
X54365718Y-101537083D01*
X54392131Y-101505604D01*
X54395830Y-101501566D01*
X54774993Y-101122404D01*
X54837306Y-101088379D01*
X54864089Y-101085500D01*
X57405500Y-101085500D01*
X57473621Y-101105502D01*
X57520114Y-101159158D01*
X57530218Y-101229432D01*
X57530217Y-101229433D01*
X57527391Y-101249087D01*
X57497898Y-101313667D01*
X57438173Y-101352050D01*
X57329004Y-101384105D01*
X57207931Y-101461913D01*
X57113681Y-101570684D01*
X57053893Y-101701601D01*
X57033567Y-101842976D01*
X57033411Y-101844058D01*
X57053893Y-101986515D01*
X57075629Y-102034110D01*
X57113681Y-102117431D01*
X57207931Y-102226202D01*
X57267661Y-102264588D01*
X57329005Y-102304011D01*
X57467097Y-102344558D01*
X57611018Y-102344558D01*
X57611019Y-102344558D01*
X57738472Y-102307135D01*
X57809465Y-102307135D01*
X57869191Y-102345518D01*
X57888367Y-102367648D01*
X57888368Y-102367649D01*
X57948904Y-102406552D01*
X58009442Y-102445458D01*
X58147534Y-102486005D01*
X58291456Y-102486005D01*
X58429548Y-102445458D01*
X58550623Y-102367648D01*
X58644872Y-102258878D01*
X58704660Y-102127962D01*
X58725142Y-101985505D01*
X58704660Y-101843048D01*
X58644872Y-101712132D01*
X58550623Y-101603362D01*
X58550622Y-101603361D01*
X58550621Y-101603360D01*
X58543811Y-101597459D01*
X58545880Y-101595070D01*
X58509643Y-101553229D01*
X58499556Y-101482953D01*
X58509657Y-101448568D01*
X58510165Y-101447457D01*
X58517068Y-101399440D01*
X58546559Y-101334862D01*
X58606284Y-101296478D01*
X58677281Y-101296476D01*
X58730880Y-101328278D01*
X59159163Y-101756561D01*
X59162867Y-101760604D01*
X59189280Y-101792081D01*
X59189283Y-101792084D01*
X59211654Y-101804999D01*
X59224862Y-101812625D01*
X59224868Y-101812628D01*
X59229506Y-101815583D01*
X59263170Y-101839155D01*
X59263172Y-101839156D01*
X59268131Y-101841468D01*
X59285085Y-101848490D01*
X59290219Y-101850359D01*
X59330704Y-101857497D01*
X59336041Y-101858680D01*
X59375751Y-101869321D01*
X59407138Y-101866575D01*
X59416690Y-101865740D01*
X59422182Y-101865500D01*
X60077832Y-101865500D01*
X60083316Y-101865739D01*
X60124249Y-101869321D01*
X60163958Y-101858680D01*
X60169299Y-101857496D01*
X60209781Y-101850359D01*
X60209785Y-101850356D01*
X60214947Y-101848478D01*
X60231856Y-101841473D01*
X60236825Y-101839156D01*
X60236830Y-101839155D01*
X60270509Y-101815571D01*
X60275108Y-101812641D01*
X60310718Y-101792083D01*
X60311702Y-101790911D01*
X60337125Y-101760611D01*
X60340830Y-101756566D01*
X61005412Y-101091985D01*
X61067725Y-101057960D01*
X61094508Y-101055081D01*
X61496388Y-101055081D01*
X61564509Y-101075083D01*
X61611002Y-101128739D01*
X61621310Y-101197527D01*
X61613799Y-101254579D01*
X61613799Y-101254581D01*
X61632719Y-101398290D01*
X61688186Y-101532205D01*
X61776427Y-101647202D01*
X61891424Y-101735443D01*
X61967905Y-101767121D01*
X62025340Y-101790911D01*
X62150127Y-101807339D01*
X62169048Y-101809831D01*
X62169048Y-101809830D01*
X62169049Y-101809831D01*
X62312758Y-101790911D01*
X62412129Y-101749751D01*
X62446673Y-101735443D01*
X62561670Y-101647202D01*
X62649911Y-101532205D01*
X62677747Y-101465000D01*
X62705379Y-101398290D01*
X62724299Y-101254581D01*
X62720549Y-101226096D01*
X62716788Y-101197527D01*
X62727727Y-101127378D01*
X62774856Y-101074280D01*
X62841710Y-101055081D01*
X64730993Y-101055081D01*
X64799114Y-101075083D01*
X64820088Y-101091986D01*
X64858275Y-101130173D01*
X64892301Y-101192485D01*
X64893897Y-101201336D01*
X64914833Y-101346950D01*
X64914834Y-101346955D01*
X64914835Y-101346957D01*
X64974623Y-101477873D01*
X65067071Y-101584565D01*
X65068873Y-101586644D01*
X65101259Y-101607457D01*
X65189947Y-101664453D01*
X65328039Y-101705000D01*
X65471961Y-101705000D01*
X65610053Y-101664453D01*
X65731128Y-101586643D01*
X65825377Y-101477873D01*
X65885165Y-101346957D01*
X65905647Y-101204500D01*
X65885165Y-101062043D01*
X65825377Y-100931127D01*
X65825376Y-100931125D01*
X65814881Y-100919014D01*
X65785387Y-100854433D01*
X65795490Y-100784159D01*
X65841982Y-100730503D01*
X65910103Y-100710500D01*
X68170228Y-100710500D01*
X68238349Y-100730502D01*
X68284842Y-100784158D01*
X68294946Y-100854432D01*
X68276914Y-100903538D01*
X68274544Y-100907309D01*
X68228506Y-101038879D01*
X68218687Y-101066941D01*
X68199751Y-101235000D01*
X68218687Y-101403059D01*
X68218688Y-101403061D01*
X68274543Y-101562689D01*
X68288031Y-101584155D01*
X68364523Y-101705890D01*
X68364526Y-101705893D01*
X68364526Y-101705894D01*
X68439537Y-101780905D01*
X68473563Y-101843217D01*
X68468498Y-101914032D01*
X68439537Y-101959095D01*
X68364526Y-102034105D01*
X68364526Y-102034106D01*
X68364524Y-102034108D01*
X68364523Y-102034110D01*
X68339974Y-102073180D01*
X68274543Y-102177310D01*
X68218688Y-102336938D01*
X68218687Y-102336941D01*
X68199751Y-102505000D01*
X68218687Y-102673059D01*
X68234362Y-102717856D01*
X68274543Y-102832689D01*
X68274544Y-102832690D01*
X68364523Y-102975890D01*
X68364526Y-102975893D01*
X68364526Y-102975894D01*
X68439537Y-103050905D01*
X68473563Y-103113217D01*
X68468498Y-103184032D01*
X68439537Y-103229095D01*
X68364526Y-103304105D01*
X68364526Y-103304106D01*
X68364524Y-103304108D01*
X68364523Y-103304110D01*
X68339144Y-103344500D01*
X68274543Y-103447310D01*
X68234940Y-103560491D01*
X68218687Y-103606941D01*
X68199751Y-103775000D01*
X68218687Y-103943059D01*
X68234222Y-103987456D01*
X68274543Y-104102689D01*
X68274544Y-104102690D01*
X68364523Y-104245890D01*
X68364525Y-104245893D01*
X68364526Y-104245893D01*
X68364526Y-104245894D01*
X68484105Y-104365473D01*
X68484107Y-104365474D01*
X68484110Y-104365477D01*
X68627310Y-104455456D01*
X68786941Y-104511313D01*
X68955000Y-104530249D01*
X69123059Y-104511313D01*
X69282690Y-104455456D01*
X69363208Y-104404862D01*
X69431528Y-104385557D01*
X69499442Y-104406252D01*
X69535009Y-104441548D01*
X69544399Y-104455601D01*
X69627260Y-104510966D01*
X69700326Y-104525500D01*
X70749674Y-104525500D01*
X70822740Y-104510966D01*
X70905601Y-104455601D01*
X70960966Y-104372740D01*
X70975500Y-104299674D01*
X70975500Y-103250326D01*
X70960966Y-103177260D01*
X70905601Y-103094399D01*
X70891548Y-103085009D01*
X70846021Y-103030533D01*
X70837172Y-102960090D01*
X70854862Y-102913209D01*
X70905456Y-102832690D01*
X70961313Y-102673059D01*
X70980249Y-102505000D01*
X70961313Y-102336941D01*
X70905456Y-102177310D01*
X70882956Y-102141501D01*
X70863649Y-102073180D01*
X70884344Y-102005267D01*
X70909711Y-101977062D01*
X70941215Y-101951208D01*
X71067173Y-101797727D01*
X71067174Y-101797727D01*
X71160775Y-101622612D01*
X71160776Y-101622610D01*
X71201307Y-101489000D01*
X70435059Y-101489000D01*
X70437129Y-101487805D01*
X70510801Y-101400007D01*
X70550000Y-101292306D01*
X70550000Y-101177694D01*
X70510801Y-101069993D01*
X70437129Y-100982195D01*
X70435059Y-100981000D01*
X71201306Y-100981000D01*
X71168568Y-100873076D01*
X71167934Y-100802083D01*
X71205783Y-100742016D01*
X71270097Y-100711948D01*
X71289142Y-100710500D01*
X71995533Y-100710500D01*
X72063654Y-100730502D01*
X72110147Y-100784158D01*
X72120250Y-100854428D01*
X72120250Y-100854432D01*
X72104353Y-100964996D01*
X72104353Y-100964997D01*
X72104353Y-100965000D01*
X72124835Y-101107457D01*
X72165969Y-101197527D01*
X72184623Y-101238373D01*
X72278873Y-101347144D01*
X72303546Y-101363000D01*
X72399947Y-101424953D01*
X72538039Y-101465500D01*
X72681961Y-101465500D01*
X72820053Y-101424953D01*
X72941128Y-101347143D01*
X73035377Y-101238373D01*
X73095165Y-101107457D01*
X73115647Y-100965000D01*
X73115647Y-100964997D01*
X73115647Y-100964996D01*
X73099750Y-100854432D01*
X73109853Y-100784158D01*
X73156346Y-100730502D01*
X73224467Y-100710500D01*
X73505912Y-100710500D01*
X73574033Y-100730502D01*
X73595007Y-100747405D01*
X75338864Y-102491262D01*
X75372890Y-102553574D01*
X75367825Y-102624389D01*
X75325278Y-102681225D01*
X75317890Y-102686355D01*
X75268872Y-102717856D01*
X75174623Y-102826626D01*
X75122258Y-102941290D01*
X75114835Y-102957543D01*
X75094353Y-103100000D01*
X75114835Y-103242457D01*
X75174623Y-103373373D01*
X75264118Y-103476657D01*
X75268873Y-103482144D01*
X75270283Y-103483050D01*
X75389947Y-103559953D01*
X75491237Y-103589694D01*
X75494963Y-103590788D01*
X75554689Y-103629171D01*
X75584182Y-103693752D01*
X75574079Y-103764026D01*
X75527586Y-103817682D01*
X75507683Y-103828093D01*
X75372374Y-103884138D01*
X75257378Y-103972378D01*
X75169137Y-104087375D01*
X75113670Y-104221290D01*
X75094750Y-104364999D01*
X75094750Y-104365000D01*
X75113670Y-104508709D01*
X75169137Y-104642624D01*
X75257378Y-104757621D01*
X75372375Y-104845862D01*
X75456821Y-104880839D01*
X75506291Y-104901330D01*
X75650000Y-104920250D01*
X75793709Y-104901330D01*
X75882978Y-104864354D01*
X75927624Y-104845862D01*
X76042621Y-104757621D01*
X76130862Y-104642624D01*
X76153837Y-104587152D01*
X76186330Y-104508709D01*
X76186330Y-104508705D01*
X76188468Y-104500731D01*
X76190009Y-104501143D01*
X76214910Y-104444853D01*
X76274175Y-104405760D01*
X76345166Y-104404915D01*
X76379229Y-104420225D01*
X76479947Y-104484953D01*
X76618039Y-104525500D01*
X76761961Y-104525500D01*
X76900053Y-104484953D01*
X77021128Y-104407143D01*
X77088353Y-104329560D01*
X77148075Y-104291178D01*
X77219072Y-104291177D01*
X77241628Y-104301478D01*
X77241751Y-104301210D01*
X77249944Y-104304951D01*
X77249947Y-104304953D01*
X77388039Y-104345500D01*
X77531961Y-104345500D01*
X77670053Y-104304953D01*
X77791128Y-104227143D01*
X77885377Y-104118373D01*
X77945165Y-103987457D01*
X77965647Y-103845000D01*
X77945165Y-103702543D01*
X77885377Y-103571627D01*
X77791128Y-103462857D01*
X77791127Y-103462856D01*
X77791126Y-103462855D01*
X77670053Y-103385047D01*
X77531961Y-103344500D01*
X77484761Y-103344500D01*
X77416640Y-103324498D01*
X77370147Y-103270842D01*
X77359839Y-103202053D01*
X77363029Y-103177829D01*
X77375250Y-103085000D01*
X77356330Y-102941291D01*
X77311347Y-102832690D01*
X77300862Y-102807375D01*
X77212621Y-102692378D01*
X77097624Y-102604137D01*
X76963709Y-102548670D01*
X76820000Y-102529750D01*
X76676290Y-102548670D01*
X76542376Y-102604138D01*
X76542375Y-102604138D01*
X76541860Y-102604534D01*
X76541346Y-102604732D01*
X76535223Y-102608268D01*
X76534671Y-102607312D01*
X76475640Y-102630133D01*
X76406091Y-102615867D01*
X76376063Y-102593665D01*
X76282398Y-102500000D01*
X81644341Y-102500000D01*
X81646944Y-102529750D01*
X81664937Y-102735411D01*
X81726096Y-102963661D01*
X81726098Y-102963665D01*
X81825966Y-103177832D01*
X81961498Y-103371392D01*
X81961502Y-103371397D01*
X81961505Y-103371401D01*
X82128599Y-103538495D01*
X82128603Y-103538498D01*
X82128607Y-103538501D01*
X82322167Y-103674033D01*
X82322166Y-103674033D01*
X82353041Y-103688430D01*
X82536337Y-103773903D01*
X82716359Y-103822139D01*
X82764177Y-103834952D01*
X82764592Y-103835063D01*
X82941034Y-103850500D01*
X82941035Y-103850500D01*
X83058965Y-103850500D01*
X83058966Y-103850500D01*
X83235408Y-103835063D01*
X83463663Y-103773903D01*
X83677829Y-103674035D01*
X83715787Y-103647457D01*
X83761706Y-103615304D01*
X83871401Y-103538495D01*
X84038495Y-103371401D01*
X84174035Y-103177830D01*
X84273903Y-102963663D01*
X84335063Y-102735408D01*
X84355659Y-102500000D01*
X84335063Y-102264592D01*
X84273903Y-102036337D01*
X84174035Y-101822171D01*
X84174034Y-101822169D01*
X84174033Y-101822167D01*
X84038501Y-101628607D01*
X84038497Y-101628602D01*
X84038495Y-101628599D01*
X83871401Y-101461505D01*
X83871397Y-101461502D01*
X83871392Y-101461498D01*
X83677832Y-101325966D01*
X83677833Y-101325966D01*
X83463665Y-101226098D01*
X83463661Y-101226096D01*
X83235411Y-101164937D01*
X83103076Y-101153359D01*
X83058966Y-101149500D01*
X82941034Y-101149500D01*
X82905745Y-101152587D01*
X82764588Y-101164937D01*
X82536338Y-101226096D01*
X82536334Y-101226098D01*
X82322167Y-101325966D01*
X82128607Y-101461498D01*
X82128596Y-101461507D01*
X81961507Y-101628596D01*
X81961502Y-101628602D01*
X81825965Y-101822169D01*
X81726098Y-102036334D01*
X81726096Y-102036338D01*
X81664937Y-102264588D01*
X81655920Y-102367649D01*
X81644341Y-102500000D01*
X76282398Y-102500000D01*
X74297993Y-100515595D01*
X74263967Y-100453283D01*
X74269032Y-100382468D01*
X74311579Y-100325632D01*
X74378099Y-100300821D01*
X74387088Y-100300500D01*
X80171418Y-100300500D01*
X80239539Y-100320502D01*
X80286032Y-100374158D01*
X80296136Y-100444432D01*
X80266642Y-100509012D01*
X80248126Y-100526458D01*
X80242193Y-100531012D01*
X80227376Y-100542381D01*
X80139137Y-100657375D01*
X80083670Y-100791290D01*
X80064750Y-100934999D01*
X80064750Y-100935000D01*
X80083670Y-101078709D01*
X80139137Y-101212624D01*
X80227378Y-101327621D01*
X80342375Y-101415862D01*
X80421326Y-101448563D01*
X80476291Y-101471330D01*
X80620000Y-101490250D01*
X80763709Y-101471330D01*
X80875675Y-101424953D01*
X80897624Y-101415862D01*
X81012621Y-101327621D01*
X81100862Y-101212624D01*
X81138231Y-101122404D01*
X81156330Y-101078709D01*
X81175250Y-100935000D01*
X81156330Y-100791291D01*
X81122744Y-100710205D01*
X81100862Y-100657375D01*
X81012623Y-100542381D01*
X81012621Y-100542380D01*
X81012621Y-100542379D01*
X80991876Y-100526461D01*
X80950011Y-100469125D01*
X80945789Y-100398254D01*
X80980553Y-100336351D01*
X81043265Y-100303070D01*
X81068582Y-100300500D01*
X101952405Y-100300500D01*
X101997748Y-100300500D01*
X102002244Y-100300661D01*
X102156223Y-100311673D01*
X102232880Y-100317155D01*
X102250670Y-100319713D01*
X102470000Y-100367426D01*
X102487236Y-100372486D01*
X102697559Y-100450932D01*
X102713906Y-100458398D01*
X102733551Y-100469125D01*
X102910909Y-100565971D01*
X102926032Y-100575690D01*
X103105724Y-100710205D01*
X103119310Y-100721978D01*
X103278021Y-100880689D01*
X103289794Y-100894275D01*
X103424309Y-101073967D01*
X103434028Y-101089090D01*
X103541599Y-101286089D01*
X103549068Y-101302443D01*
X103627510Y-101512756D01*
X103632574Y-101530005D01*
X103680285Y-101749327D01*
X103682844Y-101767121D01*
X103699339Y-101997754D01*
X103699500Y-102002250D01*
X103699500Y-112952406D01*
X103699499Y-112997750D01*
X103699338Y-113002245D01*
X103682844Y-113232877D01*
X103680285Y-113250672D01*
X103632574Y-113469994D01*
X103627510Y-113487243D01*
X103549068Y-113697556D01*
X103541599Y-113713910D01*
X103434028Y-113910909D01*
X103424309Y-113926032D01*
X103289794Y-114105724D01*
X103278021Y-114119310D01*
X103119310Y-114278021D01*
X103105724Y-114289794D01*
X102926032Y-114424309D01*
X102910909Y-114434028D01*
X102713910Y-114541599D01*
X102697556Y-114549068D01*
X102487243Y-114627510D01*
X102469994Y-114632574D01*
X102250672Y-114680285D01*
X102232878Y-114682844D01*
X102002244Y-114699339D01*
X101997748Y-114699500D01*
X59882089Y-114699500D01*
X59813968Y-114679498D01*
X59767475Y-114625842D01*
X59757371Y-114555568D01*
X59786865Y-114490988D01*
X59792993Y-114484405D01*
X60103496Y-114173901D01*
X60471560Y-113805835D01*
X60475604Y-113802131D01*
X60507083Y-113775718D01*
X60527633Y-113740121D01*
X60530585Y-113735489D01*
X60554155Y-113701830D01*
X60554156Y-113701822D01*
X60556472Y-113696860D01*
X60566274Y-113673195D01*
X60570872Y-113665232D01*
X60571879Y-113665813D01*
X60586506Y-113640936D01*
X60587285Y-113640037D01*
X60675377Y-113538373D01*
X60735165Y-113407457D01*
X60755647Y-113265000D01*
X60735165Y-113122543D01*
X60675377Y-112991627D01*
X60615001Y-112921949D01*
X60582129Y-112884012D01*
X60552636Y-112819431D01*
X60562741Y-112749157D01*
X60609234Y-112695502D01*
X60677354Y-112675500D01*
X61665768Y-112675500D01*
X61733889Y-112695502D01*
X61780382Y-112749158D01*
X61790486Y-112819432D01*
X61760992Y-112884012D01*
X61713985Y-112917909D01*
X61602375Y-112964137D01*
X61487378Y-113052378D01*
X61399137Y-113167375D01*
X61343670Y-113301290D01*
X61324750Y-113444999D01*
X61324750Y-113445000D01*
X61343670Y-113588709D01*
X61399137Y-113722624D01*
X61487378Y-113837621D01*
X61602375Y-113925862D01*
X61686821Y-113960839D01*
X61736291Y-113981330D01*
X61880000Y-114000250D01*
X62023709Y-113981330D01*
X62127109Y-113938501D01*
X62157624Y-113925862D01*
X62272621Y-113837621D01*
X62340103Y-113749677D01*
X71974500Y-113749677D01*
X71989033Y-113822739D01*
X71989034Y-113822740D01*
X72044399Y-113905601D01*
X72127260Y-113960966D01*
X72200326Y-113975500D01*
X73949674Y-113975500D01*
X74022740Y-113960966D01*
X74105601Y-113905601D01*
X74160966Y-113822740D01*
X74175500Y-113749674D01*
X74175500Y-112875000D01*
X74509785Y-112875000D01*
X74528603Y-113078084D01*
X74584416Y-113274245D01*
X74584417Y-113274247D01*
X74584418Y-113274250D01*
X74675327Y-113456821D01*
X74675328Y-113456822D01*
X74675329Y-113456824D01*
X74798234Y-113619578D01*
X74948959Y-113756981D01*
X74948960Y-113756982D01*
X75122351Y-113864341D01*
X75122354Y-113864342D01*
X75122363Y-113864348D01*
X75312544Y-113938024D01*
X75513024Y-113975500D01*
X75513026Y-113975500D01*
X75716974Y-113975500D01*
X75716976Y-113975500D01*
X75917456Y-113938024D01*
X76107637Y-113864348D01*
X76281041Y-113756981D01*
X76431764Y-113619579D01*
X76435388Y-113614781D01*
X76482237Y-113552742D01*
X76554673Y-113456821D01*
X76633175Y-113299166D01*
X76681441Y-113247106D01*
X76750195Y-113229403D01*
X76817605Y-113251682D01*
X76862270Y-113306869D01*
X76865133Y-113314411D01*
X76866177Y-113317452D01*
X76956580Y-113523548D01*
X77079674Y-113711958D01*
X77232097Y-113877534D01*
X77409698Y-114015767D01*
X77409699Y-114015768D01*
X77607628Y-114122882D01*
X77607630Y-114122883D01*
X77820483Y-114195955D01*
X77820492Y-114195957D01*
X77901000Y-114209391D01*
X77901000Y-113308674D01*
X78012685Y-113359680D01*
X78119237Y-113375000D01*
X78190763Y-113375000D01*
X78297315Y-113359680D01*
X78409000Y-113308674D01*
X78409000Y-114209390D01*
X78489507Y-114195957D01*
X78489516Y-114195955D01*
X78702369Y-114122883D01*
X78702371Y-114122882D01*
X78900300Y-114015768D01*
X78900301Y-114015767D01*
X79077902Y-113877534D01*
X79230325Y-113711958D01*
X79353419Y-113523548D01*
X79443819Y-113317460D01*
X79444861Y-113314425D01*
X79445621Y-113313351D01*
X79445916Y-113312680D01*
X79446054Y-113312740D01*
X79485896Y-113256488D01*
X79551740Y-113229933D01*
X79621487Y-113243192D01*
X79672994Y-113292054D01*
X79676815Y-113299147D01*
X79755327Y-113456821D01*
X79755328Y-113456822D01*
X79755329Y-113456824D01*
X79878234Y-113619578D01*
X80028959Y-113756981D01*
X80028960Y-113756982D01*
X80202351Y-113864341D01*
X80202354Y-113864342D01*
X80202363Y-113864348D01*
X80392544Y-113938024D01*
X80593024Y-113975500D01*
X80593026Y-113975500D01*
X80796974Y-113975500D01*
X80796976Y-113975500D01*
X80997456Y-113938024D01*
X81187637Y-113864348D01*
X81361041Y-113756981D01*
X81511764Y-113619579D01*
X81532373Y-113592289D01*
X81553702Y-113564044D01*
X81634673Y-113456821D01*
X81725582Y-113274250D01*
X81781397Y-113078083D01*
X81800215Y-112875000D01*
X81781397Y-112671917D01*
X81725582Y-112475750D01*
X81634673Y-112293179D01*
X81625378Y-112280870D01*
X81511765Y-112130421D01*
X81361040Y-111993018D01*
X81361039Y-111993017D01*
X81187648Y-111885658D01*
X81187641Y-111885654D01*
X81187637Y-111885652D01*
X81120718Y-111859727D01*
X81064425Y-111816469D01*
X81040454Y-111749642D01*
X81056418Y-111680463D01*
X81107249Y-111630897D01*
X81125325Y-111623064D01*
X81242365Y-111582884D01*
X81242371Y-111582882D01*
X81440300Y-111475768D01*
X81440301Y-111475767D01*
X81617902Y-111337534D01*
X81770325Y-111171958D01*
X81893419Y-110983548D01*
X81983820Y-110777456D01*
X81983823Y-110777449D01*
X82031544Y-110589000D01*
X81126116Y-110589000D01*
X81154493Y-110544844D01*
X81195000Y-110406889D01*
X81195000Y-110263111D01*
X81154493Y-110125156D01*
X81126116Y-110081000D01*
X82031544Y-110081000D01*
X82031544Y-110080999D01*
X81983823Y-109892550D01*
X81983820Y-109892543D01*
X81893419Y-109686451D01*
X81770325Y-109498041D01*
X81617902Y-109332465D01*
X81440301Y-109194232D01*
X81440300Y-109194231D01*
X81242371Y-109087117D01*
X81242369Y-109087116D01*
X81029512Y-109014043D01*
X81029501Y-109014040D01*
X80949000Y-109000606D01*
X80949000Y-109901325D01*
X80837315Y-109850320D01*
X80730763Y-109835000D01*
X80659237Y-109835000D01*
X80552685Y-109850320D01*
X80441000Y-109901325D01*
X80441000Y-109000607D01*
X80440999Y-109000606D01*
X80360498Y-109014040D01*
X80360487Y-109014043D01*
X80147630Y-109087116D01*
X80147628Y-109087117D01*
X79949699Y-109194231D01*
X79949698Y-109194232D01*
X79772097Y-109332465D01*
X79619674Y-109498041D01*
X79496580Y-109686451D01*
X79406173Y-109892556D01*
X79405131Y-109895592D01*
X79404372Y-109896663D01*
X79404084Y-109897320D01*
X79403948Y-109897260D01*
X79364088Y-109953523D01*
X79298240Y-109980067D01*
X79228495Y-109966798D01*
X79176995Y-109917928D01*
X79173183Y-109910850D01*
X79094673Y-109753179D01*
X79059762Y-109706949D01*
X78971765Y-109590421D01*
X78821040Y-109453018D01*
X78821039Y-109453017D01*
X78647648Y-109345658D01*
X78647641Y-109345654D01*
X78647637Y-109345652D01*
X78507665Y-109291427D01*
X78457457Y-109271976D01*
X78380246Y-109257543D01*
X78256976Y-109234500D01*
X78053024Y-109234500D01*
X77952783Y-109253238D01*
X77852542Y-109271976D01*
X77713499Y-109325842D01*
X77662363Y-109345652D01*
X77662362Y-109345652D01*
X77662361Y-109345653D01*
X77662351Y-109345658D01*
X77488960Y-109453017D01*
X77488959Y-109453018D01*
X77338234Y-109590421D01*
X77215329Y-109753175D01*
X77124416Y-109935754D01*
X77068603Y-110131915D01*
X77049785Y-110334999D01*
X77068603Y-110538084D01*
X77124416Y-110734245D01*
X77124417Y-110734247D01*
X77124418Y-110734250D01*
X77215327Y-110916821D01*
X77215328Y-110916822D01*
X77215329Y-110916824D01*
X77338234Y-111079578D01*
X77488959Y-111216981D01*
X77488960Y-111216982D01*
X77662351Y-111324341D01*
X77662356Y-111324343D01*
X77662363Y-111324348D01*
X77729280Y-111350271D01*
X77785574Y-111393529D01*
X77809545Y-111460356D01*
X77793582Y-111529535D01*
X77742751Y-111579101D01*
X77724676Y-111586935D01*
X77607628Y-111627118D01*
X77409699Y-111734231D01*
X77409698Y-111734232D01*
X77232097Y-111872465D01*
X77079674Y-112038041D01*
X76956580Y-112226451D01*
X76866173Y-112432556D01*
X76865131Y-112435592D01*
X76864372Y-112436663D01*
X76864084Y-112437320D01*
X76863948Y-112437260D01*
X76824088Y-112493523D01*
X76758240Y-112520067D01*
X76688495Y-112506798D01*
X76636995Y-112457928D01*
X76633173Y-112450830D01*
X76554673Y-112293179D01*
X76545378Y-112280870D01*
X76431765Y-112130421D01*
X76281040Y-111993018D01*
X76281039Y-111993017D01*
X76107648Y-111885658D01*
X76107641Y-111885654D01*
X76107637Y-111885652D01*
X75955355Y-111826658D01*
X75917457Y-111811976D01*
X75794726Y-111789034D01*
X75716976Y-111774500D01*
X75513024Y-111774500D01*
X75435279Y-111789033D01*
X75312542Y-111811976D01*
X75189281Y-111859728D01*
X75122363Y-111885652D01*
X75122362Y-111885652D01*
X75122361Y-111885653D01*
X75122351Y-111885658D01*
X74948960Y-111993017D01*
X74948959Y-111993018D01*
X74798234Y-112130421D01*
X74675329Y-112293175D01*
X74584416Y-112475754D01*
X74528603Y-112671915D01*
X74509785Y-112875000D01*
X74175500Y-112875000D01*
X74175500Y-112000326D01*
X74160966Y-111927260D01*
X74105601Y-111844399D01*
X74022740Y-111789034D01*
X74022739Y-111789033D01*
X73949677Y-111774500D01*
X73949674Y-111774500D01*
X72200326Y-111774500D01*
X72200322Y-111774500D01*
X72127260Y-111789033D01*
X72044399Y-111844399D01*
X71989033Y-111927260D01*
X71974500Y-112000322D01*
X71974500Y-113749677D01*
X62340103Y-113749677D01*
X62360862Y-113722624D01*
X62388855Y-113655040D01*
X62416330Y-113588709D01*
X62435250Y-113445000D01*
X62434373Y-113438342D01*
X62430046Y-113405471D01*
X62416330Y-113301291D01*
X62389605Y-113236769D01*
X62360862Y-113167375D01*
X62272621Y-113052378D01*
X62157624Y-112964137D01*
X62026713Y-112909914D01*
X61971432Y-112865367D01*
X61949010Y-112798003D01*
X61966568Y-112729212D01*
X62018529Y-112680833D01*
X62042319Y-112671799D01*
X62053951Y-112668682D01*
X62059308Y-112667494D01*
X62099781Y-112660359D01*
X62099785Y-112660356D01*
X62104947Y-112658478D01*
X62121856Y-112651473D01*
X62126825Y-112649156D01*
X62126830Y-112649155D01*
X62160509Y-112625571D01*
X62165108Y-112622641D01*
X62200718Y-112602083D01*
X62227132Y-112570602D01*
X62230825Y-112566571D01*
X62719606Y-112077790D01*
X62781916Y-112043766D01*
X62788991Y-112042438D01*
X62793963Y-112041650D01*
X62800304Y-112040646D01*
X62913342Y-111983050D01*
X63003050Y-111893342D01*
X63060646Y-111780304D01*
X63080492Y-111655000D01*
X63060646Y-111529696D01*
X63012651Y-111435500D01*
X63003050Y-111416657D01*
X62913342Y-111326949D01*
X62837502Y-111288307D01*
X62800304Y-111269354D01*
X62675000Y-111249508D01*
X62674999Y-111249508D01*
X62651418Y-111253242D01*
X62549696Y-111269354D01*
X62549694Y-111269354D01*
X62549694Y-111269355D01*
X62436657Y-111326949D01*
X62346951Y-111416655D01*
X62346948Y-111416660D01*
X62289354Y-111529694D01*
X62289353Y-111529699D01*
X62287561Y-111541012D01*
X62257146Y-111605164D01*
X62252209Y-111610391D01*
X61885007Y-111977595D01*
X61822695Y-112011620D01*
X61795911Y-112014500D01*
X60491492Y-112014500D01*
X60423371Y-111994498D01*
X60376878Y-111940842D01*
X60368970Y-111904489D01*
X60367043Y-111904795D01*
X60364012Y-111885658D01*
X60345646Y-111769696D01*
X60300732Y-111681547D01*
X60288050Y-111656657D01*
X60198342Y-111566949D01*
X60122502Y-111528307D01*
X60085304Y-111509354D01*
X59960000Y-111489508D01*
X59959999Y-111489508D01*
X59936418Y-111493242D01*
X59834696Y-111509354D01*
X59755906Y-111549500D01*
X59753419Y-111550767D01*
X59696216Y-111564500D01*
X57133764Y-111564500D01*
X57128272Y-111564260D01*
X57092281Y-111561111D01*
X57087344Y-111560680D01*
X57087343Y-111560680D01*
X57047661Y-111571312D01*
X57042296Y-111572501D01*
X57001815Y-111579639D01*
X56996728Y-111581491D01*
X56979657Y-111588562D01*
X56974767Y-111590842D01*
X56941104Y-111614413D01*
X56936468Y-111617367D01*
X56900877Y-111637916D01*
X56900872Y-111637919D01*
X56874457Y-111669400D01*
X56870742Y-111673453D01*
X56466599Y-112077596D01*
X56404289Y-112111620D01*
X56377506Y-112114500D01*
X53072494Y-112114500D01*
X53004373Y-112094498D01*
X52983399Y-112077595D01*
X51467405Y-110561601D01*
X51433379Y-110499289D01*
X51430500Y-110472506D01*
X51430500Y-110035000D01*
X58204508Y-110035000D01*
X58224354Y-110160304D01*
X58232687Y-110176658D01*
X58281949Y-110273342D01*
X58371657Y-110363050D01*
X58423286Y-110389356D01*
X58484696Y-110420646D01*
X58507836Y-110424310D01*
X58571986Y-110454723D01*
X58609513Y-110514992D01*
X58612570Y-110529043D01*
X58614354Y-110540304D01*
X58671949Y-110653341D01*
X58671951Y-110653344D01*
X58761657Y-110743050D01*
X58793295Y-110759170D01*
X58874696Y-110800646D01*
X59000000Y-110820492D01*
X59125304Y-110800646D01*
X59238342Y-110743050D01*
X59328050Y-110653342D01*
X59385646Y-110540304D01*
X59405492Y-110415000D01*
X59385646Y-110289696D01*
X59341212Y-110202489D01*
X59328050Y-110176657D01*
X59238344Y-110086951D01*
X59238341Y-110086949D01*
X59125304Y-110029353D01*
X59102163Y-110025688D01*
X59038011Y-109995274D01*
X59000485Y-109935005D01*
X58997428Y-109920946D01*
X58995825Y-109910829D01*
X58995646Y-109909696D01*
X58945940Y-109812143D01*
X58938050Y-109796657D01*
X58848342Y-109706949D01*
X58772502Y-109668307D01*
X58735304Y-109649354D01*
X58610000Y-109629508D01*
X58484696Y-109649354D01*
X58484694Y-109649354D01*
X58484694Y-109649355D01*
X58371657Y-109706949D01*
X58281949Y-109796657D01*
X58230690Y-109897260D01*
X58224354Y-109909696D01*
X58204508Y-110035000D01*
X51430500Y-110035000D01*
X51430500Y-109430000D01*
X63969353Y-109430000D01*
X63989835Y-109572457D01*
X64049623Y-109703373D01*
X64130453Y-109796657D01*
X64143873Y-109812144D01*
X64179438Y-109835000D01*
X64264947Y-109889953D01*
X64403039Y-109930500D01*
X64439558Y-109930500D01*
X64507679Y-109950502D01*
X64554172Y-110004158D01*
X64564275Y-110038565D01*
X64564833Y-110042451D01*
X64564834Y-110042455D01*
X64564835Y-110042457D01*
X64611441Y-110144508D01*
X64624623Y-110173373D01*
X64718873Y-110282144D01*
X64802210Y-110335701D01*
X64848703Y-110389356D01*
X64858808Y-110459630D01*
X64858539Y-110461409D01*
X64844508Y-110549999D01*
X64844508Y-110550000D01*
X64864354Y-110675304D01*
X64864355Y-110675305D01*
X64921949Y-110788342D01*
X65011657Y-110878050D01*
X65050299Y-110897738D01*
X65124696Y-110935646D01*
X65250000Y-110955492D01*
X65375304Y-110935646D01*
X65488342Y-110878050D01*
X65578050Y-110788342D01*
X65635646Y-110675304D01*
X65655492Y-110550000D01*
X68194508Y-110550000D01*
X68214354Y-110675304D01*
X68214355Y-110675305D01*
X68271949Y-110788342D01*
X68361657Y-110878050D01*
X68400299Y-110897738D01*
X68474696Y-110935646D01*
X68600000Y-110955492D01*
X68725304Y-110935646D01*
X68838342Y-110878050D01*
X68928050Y-110788342D01*
X68985646Y-110675304D01*
X69005492Y-110550000D01*
X68985646Y-110424696D01*
X68940301Y-110335701D01*
X68939943Y-110334999D01*
X71969785Y-110334999D01*
X71988603Y-110538084D01*
X72044416Y-110734245D01*
X72044417Y-110734247D01*
X72044418Y-110734250D01*
X72135327Y-110916821D01*
X72135328Y-110916822D01*
X72135329Y-110916824D01*
X72258234Y-111079578D01*
X72408959Y-111216981D01*
X72408960Y-111216982D01*
X72582351Y-111324341D01*
X72582354Y-111324342D01*
X72582363Y-111324348D01*
X72772544Y-111398024D01*
X72973024Y-111435500D01*
X72973026Y-111435500D01*
X73176974Y-111435500D01*
X73176976Y-111435500D01*
X73377456Y-111398024D01*
X73567637Y-111324348D01*
X73741041Y-111216981D01*
X73891764Y-111079579D01*
X74014673Y-110916821D01*
X74105582Y-110734250D01*
X74161397Y-110538083D01*
X74180215Y-110335000D01*
X74180215Y-110334999D01*
X74509785Y-110334999D01*
X74528603Y-110538084D01*
X74584416Y-110734245D01*
X74584417Y-110734247D01*
X74584418Y-110734250D01*
X74675327Y-110916821D01*
X74675328Y-110916822D01*
X74675329Y-110916824D01*
X74798234Y-111079578D01*
X74948959Y-111216981D01*
X74948960Y-111216982D01*
X75122351Y-111324341D01*
X75122354Y-111324342D01*
X75122363Y-111324348D01*
X75312544Y-111398024D01*
X75513024Y-111435500D01*
X75513026Y-111435500D01*
X75716974Y-111435500D01*
X75716976Y-111435500D01*
X75917456Y-111398024D01*
X76107637Y-111324348D01*
X76281041Y-111216981D01*
X76431764Y-111079579D01*
X76554673Y-110916821D01*
X76645582Y-110734250D01*
X76701397Y-110538083D01*
X76720215Y-110335000D01*
X76701397Y-110131917D01*
X76645582Y-109935750D01*
X76554673Y-109753179D01*
X76519762Y-109706949D01*
X76431765Y-109590421D01*
X76281040Y-109453018D01*
X76281039Y-109453017D01*
X76107648Y-109345658D01*
X76107641Y-109345654D01*
X76107637Y-109345652D01*
X75967665Y-109291427D01*
X75917457Y-109271976D01*
X75840246Y-109257543D01*
X75716976Y-109234500D01*
X75513024Y-109234500D01*
X75412784Y-109253238D01*
X75312542Y-109271976D01*
X75173499Y-109325842D01*
X75122363Y-109345652D01*
X75122362Y-109345652D01*
X75122361Y-109345653D01*
X75122351Y-109345658D01*
X74948960Y-109453017D01*
X74948959Y-109453018D01*
X74798234Y-109590421D01*
X74675329Y-109753175D01*
X74584416Y-109935754D01*
X74528603Y-110131915D01*
X74509785Y-110334999D01*
X74180215Y-110334999D01*
X74161397Y-110131917D01*
X74105582Y-109935750D01*
X74014673Y-109753179D01*
X73979762Y-109706949D01*
X73891765Y-109590421D01*
X73741040Y-109453018D01*
X73741039Y-109453017D01*
X73567648Y-109345658D01*
X73567641Y-109345654D01*
X73567637Y-109345652D01*
X73427665Y-109291427D01*
X73377457Y-109271976D01*
X73300246Y-109257543D01*
X73176976Y-109234500D01*
X72973024Y-109234500D01*
X72872783Y-109253238D01*
X72772542Y-109271976D01*
X72633499Y-109325842D01*
X72582363Y-109345652D01*
X72582362Y-109345652D01*
X72582361Y-109345653D01*
X72582351Y-109345658D01*
X72408960Y-109453017D01*
X72408959Y-109453018D01*
X72258234Y-109590421D01*
X72135329Y-109753175D01*
X72044416Y-109935754D01*
X71988603Y-110131915D01*
X71969785Y-110334999D01*
X68939943Y-110334999D01*
X68928050Y-110311657D01*
X68838342Y-110221949D01*
X68749450Y-110176657D01*
X68725304Y-110164354D01*
X68600000Y-110144508D01*
X68474696Y-110164354D01*
X68474694Y-110164354D01*
X68474694Y-110164355D01*
X68361657Y-110221949D01*
X68271949Y-110311657D01*
X68219294Y-110415000D01*
X68214354Y-110424696D01*
X68194508Y-110550000D01*
X65655492Y-110550000D01*
X65635646Y-110424696D01*
X65590301Y-110335701D01*
X65578050Y-110311657D01*
X65526073Y-110259680D01*
X65492047Y-110197368D01*
X65497112Y-110126553D01*
X65500546Y-110118259D01*
X65535165Y-110042457D01*
X65555647Y-109900000D01*
X65535165Y-109757543D01*
X65475377Y-109626627D01*
X65381128Y-109517857D01*
X65381127Y-109517856D01*
X65381126Y-109517855D01*
X65260053Y-109440047D01*
X65121961Y-109399500D01*
X65085441Y-109399500D01*
X65017320Y-109379498D01*
X64970827Y-109325842D01*
X64960723Y-109291427D01*
X64960165Y-109287543D01*
X64900377Y-109156627D01*
X64806128Y-109047857D01*
X64806127Y-109047856D01*
X64806126Y-109047855D01*
X64685053Y-108970047D01*
X64546961Y-108929500D01*
X64403039Y-108929500D01*
X64264946Y-108970047D01*
X64143873Y-109047855D01*
X64049623Y-109156626D01*
X63999008Y-109267457D01*
X63989835Y-109287543D01*
X63969353Y-109430000D01*
X51430500Y-109430000D01*
X51430500Y-107900000D01*
X62094353Y-107900000D01*
X62114835Y-108042457D01*
X62174623Y-108173373D01*
X62198128Y-108200500D01*
X62268873Y-108282144D01*
X62295690Y-108299378D01*
X62389947Y-108359953D01*
X62528039Y-108400500D01*
X62671961Y-108400500D01*
X62810053Y-108359953D01*
X62931128Y-108282143D01*
X63025377Y-108173373D01*
X63085165Y-108042457D01*
X63105647Y-107900000D01*
X63085165Y-107757543D01*
X63058886Y-107700000D01*
X68694353Y-107700000D01*
X68714835Y-107842457D01*
X68774623Y-107973373D01*
X68846470Y-108056290D01*
X68868873Y-108082144D01*
X68929409Y-108121048D01*
X68989947Y-108159953D01*
X69128039Y-108200500D01*
X69271961Y-108200500D01*
X69273664Y-108200000D01*
X82194750Y-108200000D01*
X82213670Y-108343709D01*
X82269137Y-108477624D01*
X82357378Y-108592621D01*
X82472375Y-108680862D01*
X82555295Y-108715207D01*
X82606291Y-108736330D01*
X82750000Y-108755250D01*
X82893709Y-108736330D01*
X82978155Y-108701351D01*
X83027624Y-108680862D01*
X83142621Y-108592621D01*
X83230862Y-108477624D01*
X83251351Y-108428155D01*
X83286330Y-108343709D01*
X83305250Y-108200000D01*
X83286330Y-108056291D01*
X83265839Y-108006821D01*
X83230862Y-107922375D01*
X83142621Y-107807378D01*
X83027624Y-107719137D01*
X82893709Y-107663670D01*
X82750000Y-107644750D01*
X82606290Y-107663670D01*
X82472375Y-107719137D01*
X82357378Y-107807378D01*
X82269137Y-107922375D01*
X82213670Y-108056290D01*
X82194750Y-108199999D01*
X82194750Y-108200000D01*
X69273664Y-108200000D01*
X69410053Y-108159953D01*
X69531128Y-108082143D01*
X69625377Y-107973373D01*
X69625381Y-107973364D01*
X69630249Y-107965791D01*
X69633341Y-107967778D01*
X69668351Y-107927328D01*
X69736461Y-107907287D01*
X69772030Y-107912391D01*
X69825684Y-107928145D01*
X69969606Y-107928145D01*
X70107698Y-107887598D01*
X70228773Y-107809788D01*
X70323022Y-107701018D01*
X70382810Y-107570102D01*
X70403292Y-107427645D01*
X70382810Y-107285188D01*
X70323022Y-107154272D01*
X70228773Y-107045502D01*
X70228772Y-107045501D01*
X70228771Y-107045500D01*
X70107698Y-106967692D01*
X69969606Y-106927145D01*
X69825684Y-106927145D01*
X69687591Y-106967692D01*
X69566518Y-107045500D01*
X69472268Y-107154271D01*
X69467396Y-107161853D01*
X69464323Y-107159878D01*
X69429152Y-107200406D01*
X69361017Y-107220357D01*
X69325615Y-107215254D01*
X69315023Y-107212144D01*
X69271961Y-107199500D01*
X69128039Y-107199500D01*
X68989946Y-107240047D01*
X68868873Y-107317855D01*
X68774623Y-107426626D01*
X68738831Y-107504999D01*
X68714835Y-107557543D01*
X68694353Y-107700000D01*
X63058886Y-107700000D01*
X63025377Y-107626627D01*
X62931128Y-107517857D01*
X62931127Y-107517856D01*
X62931126Y-107517855D01*
X62810053Y-107440047D01*
X62671961Y-107399500D01*
X62528039Y-107399500D01*
X62389946Y-107440047D01*
X62268873Y-107517855D01*
X62174623Y-107626626D01*
X62132374Y-107719139D01*
X62114835Y-107757543D01*
X62094353Y-107900000D01*
X51430500Y-107900000D01*
X51430500Y-107513783D01*
X51444234Y-107456579D01*
X51485644Y-107375309D01*
X51485644Y-107375307D01*
X51485646Y-107375304D01*
X51505492Y-107250000D01*
X51485646Y-107124696D01*
X51447738Y-107050299D01*
X51428050Y-107011657D01*
X51338342Y-106921949D01*
X51256011Y-106880000D01*
X51225304Y-106864354D01*
X51100000Y-106844508D01*
X51099999Y-106844508D01*
X51076418Y-106848242D01*
X50974696Y-106864354D01*
X50974694Y-106864354D01*
X50974694Y-106864355D01*
X50861657Y-106921949D01*
X50771949Y-107011657D01*
X50766964Y-107018518D01*
X50710738Y-107061866D01*
X50640001Y-107067935D01*
X50577212Y-107034797D01*
X50575940Y-107033542D01*
X49880341Y-106337943D01*
X49347899Y-105805500D01*
X85362312Y-105805500D01*
X85382794Y-105947957D01*
X85442582Y-106078873D01*
X85536831Y-106187643D01*
X85577866Y-106214015D01*
X85624358Y-106267669D01*
X85634463Y-106337943D01*
X85604970Y-106402524D01*
X85577866Y-106426010D01*
X85543872Y-106447856D01*
X85449623Y-106556626D01*
X85393671Y-106679144D01*
X85389835Y-106687543D01*
X85369353Y-106830000D01*
X85389835Y-106972457D01*
X85449623Y-107103373D01*
X85513376Y-107176949D01*
X85543873Y-107212144D01*
X85595559Y-107245360D01*
X85664947Y-107289953D01*
X85803039Y-107330500D01*
X85946961Y-107330500D01*
X86085053Y-107289953D01*
X86190988Y-107221872D01*
X86259105Y-107201872D01*
X86327225Y-107221874D01*
X86354328Y-107245358D01*
X86368872Y-107262143D01*
X86368874Y-107262144D01*
X86368873Y-107262144D01*
X86375897Y-107266658D01*
X86489947Y-107339953D01*
X86628039Y-107380500D01*
X86771961Y-107380500D01*
X86910053Y-107339953D01*
X87031128Y-107262143D01*
X87125377Y-107153373D01*
X87185165Y-107022457D01*
X87200173Y-106918067D01*
X87229666Y-106853488D01*
X87289392Y-106815104D01*
X87324891Y-106810000D01*
X87421961Y-106810000D01*
X87560053Y-106769453D01*
X87681128Y-106691643D01*
X87775377Y-106582873D01*
X87835165Y-106451957D01*
X87855647Y-106309500D01*
X87835165Y-106167043D01*
X87775377Y-106036127D01*
X87681128Y-105927357D01*
X87681127Y-105927356D01*
X87681126Y-105927355D01*
X87560053Y-105849547D01*
X87421961Y-105809000D01*
X87278039Y-105809000D01*
X87139946Y-105849547D01*
X87018873Y-105927355D01*
X86924623Y-106036126D01*
X86912963Y-106061658D01*
X86864835Y-106167043D01*
X86849826Y-106271432D01*
X86820334Y-106336012D01*
X86760608Y-106374396D01*
X86725109Y-106379500D01*
X86628039Y-106379500D01*
X86489946Y-106420047D01*
X86384014Y-106488125D01*
X86315893Y-106508127D01*
X86247773Y-106488125D01*
X86220669Y-106464638D01*
X86206129Y-106447857D01*
X86206126Y-106447855D01*
X86165093Y-106421485D01*
X86118600Y-106367830D01*
X86108495Y-106297556D01*
X86137988Y-106232975D01*
X86165095Y-106209488D01*
X86199084Y-106187645D01*
X86199085Y-106187644D01*
X86199084Y-106187644D01*
X86199087Y-106187643D01*
X86293336Y-106078873D01*
X86353124Y-105947957D01*
X86373606Y-105805500D01*
X86353124Y-105663043D01*
X86293336Y-105532127D01*
X86199087Y-105423357D01*
X86199086Y-105423356D01*
X86199085Y-105423355D01*
X86078012Y-105345547D01*
X85939920Y-105305000D01*
X85795998Y-105305000D01*
X85657905Y-105345547D01*
X85536832Y-105423355D01*
X85442582Y-105532126D01*
X85382794Y-105663043D01*
X85376870Y-105704249D01*
X85362312Y-105805500D01*
X49347899Y-105805500D01*
X49162986Y-105620587D01*
X49128960Y-105558275D01*
X49134025Y-105487459D01*
X49176572Y-105430624D01*
X49243092Y-105405813D01*
X49249391Y-105405588D01*
X49249998Y-105405491D01*
X49250000Y-105405492D01*
X49375304Y-105385646D01*
X49488342Y-105328050D01*
X49566392Y-105250000D01*
X52594508Y-105250000D01*
X52614354Y-105375304D01*
X52629736Y-105405492D01*
X52671949Y-105488342D01*
X52761657Y-105578050D01*
X52800299Y-105597738D01*
X52874696Y-105635646D01*
X53000000Y-105655492D01*
X53125304Y-105635646D01*
X53238342Y-105578050D01*
X53328050Y-105488342D01*
X53385646Y-105375304D01*
X53405492Y-105250000D01*
X53385646Y-105124696D01*
X53347738Y-105050299D01*
X53328050Y-105011657D01*
X53238342Y-104921949D01*
X53145597Y-104874694D01*
X53125304Y-104864354D01*
X53000000Y-104844508D01*
X52874696Y-104864354D01*
X52874694Y-104864354D01*
X52874694Y-104864355D01*
X52761657Y-104921949D01*
X52671949Y-105011657D01*
X52614355Y-105124694D01*
X52614354Y-105124696D01*
X52594508Y-105250000D01*
X49566392Y-105250000D01*
X49578050Y-105238342D01*
X49635646Y-105125304D01*
X49655492Y-105000000D01*
X49635646Y-104874696D01*
X49597738Y-104800299D01*
X49578050Y-104761657D01*
X49488342Y-104671949D01*
X49412502Y-104633307D01*
X49375304Y-104614354D01*
X49250000Y-104594508D01*
X49124696Y-104614354D01*
X49124694Y-104614354D01*
X49124694Y-104614355D01*
X49011657Y-104671949D01*
X48921950Y-104761656D01*
X48911606Y-104781958D01*
X48862857Y-104833572D01*
X48793941Y-104850636D01*
X48779631Y-104849201D01*
X48750000Y-104844508D01*
X48624696Y-104864354D01*
X48624694Y-104864354D01*
X48624694Y-104864355D01*
X48511657Y-104921949D01*
X48421949Y-105011657D01*
X48364355Y-105124694D01*
X48364354Y-105124696D01*
X48364258Y-105125304D01*
X48344508Y-105250000D01*
X48364353Y-105375302D01*
X48364353Y-105375303D01*
X48364354Y-105375304D01*
X48405766Y-105456581D01*
X48419499Y-105513782D01*
X48419499Y-105657831D01*
X48419259Y-105663324D01*
X48415679Y-105704248D01*
X48415679Y-105704252D01*
X48426314Y-105743944D01*
X48427504Y-105749310D01*
X48434640Y-105789778D01*
X48436505Y-105794901D01*
X48443548Y-105811907D01*
X48445843Y-105816828D01*
X48469419Y-105850497D01*
X48472370Y-105855129D01*
X48476852Y-105862894D01*
X48481172Y-105870376D01*
X48497905Y-105939373D01*
X48474679Y-106006463D01*
X48461144Y-106022462D01*
X48421949Y-106061657D01*
X48368253Y-106167043D01*
X48364354Y-106174696D01*
X48344508Y-106300000D01*
X48364354Y-106425304D01*
X48383307Y-106462502D01*
X48421949Y-106538342D01*
X48518669Y-106635062D01*
X48516012Y-106637718D01*
X48547962Y-106679144D01*
X48554042Y-106749880D01*
X48520915Y-106812674D01*
X48519647Y-106813960D01*
X48496949Y-106836657D01*
X48453491Y-106921950D01*
X48439354Y-106949696D01*
X48419508Y-107075000D01*
X48439354Y-107200304D01*
X48439354Y-107200305D01*
X48439355Y-107200307D01*
X48492029Y-107303686D01*
X48505133Y-107373462D01*
X48478433Y-107439247D01*
X48447893Y-107466880D01*
X48446375Y-107467855D01*
X48352125Y-107576626D01*
X48292337Y-107707543D01*
X48272940Y-107842457D01*
X48271855Y-107850000D01*
X48292337Y-107992457D01*
X48333296Y-108082143D01*
X48352125Y-108123373D01*
X48356997Y-108130954D01*
X48353838Y-108132983D01*
X48375967Y-108181409D01*
X48365878Y-108251685D01*
X48346481Y-108281876D01*
X48331318Y-108299375D01*
X48331316Y-108299378D01*
X48271528Y-108430294D01*
X48271529Y-108430294D01*
X48251047Y-108572751D01*
X48271529Y-108715208D01*
X48327855Y-108838543D01*
X48331317Y-108846124D01*
X48391752Y-108915870D01*
X48421245Y-108980450D01*
X48411141Y-109050724D01*
X48391752Y-109080894D01*
X48352125Y-109126626D01*
X48292337Y-109257543D01*
X48271855Y-109400000D01*
X48292337Y-109542457D01*
X48314242Y-109590421D01*
X48352125Y-109673373D01*
X48378268Y-109703544D01*
X48407761Y-109768125D01*
X48397656Y-109838399D01*
X48378268Y-109868568D01*
X48349623Y-109901626D01*
X48319860Y-109966798D01*
X48289835Y-110032543D01*
X48269353Y-110175000D01*
X48289835Y-110317457D01*
X48349623Y-110448373D01*
X48427357Y-110538084D01*
X48443873Y-110557144D01*
X48504409Y-110596048D01*
X48564947Y-110634953D01*
X48703039Y-110675500D01*
X48846961Y-110675500D01*
X48985053Y-110634953D01*
X49106128Y-110557143D01*
X49198275Y-110450797D01*
X49258000Y-110412415D01*
X49328996Y-110412415D01*
X49388723Y-110450798D01*
X49418216Y-110515378D01*
X49419499Y-110533311D01*
X49419499Y-113482823D01*
X49419259Y-113488316D01*
X49416873Y-113515597D01*
X49391010Y-113581716D01*
X49384828Y-113586192D01*
X49414004Y-113599517D01*
X49439263Y-113632981D01*
X49439522Y-113632800D01*
X49444589Y-113640037D01*
X49445687Y-113641491D01*
X49445845Y-113641830D01*
X49469423Y-113675503D01*
X49472362Y-113680115D01*
X49492917Y-113715718D01*
X49492918Y-113715719D01*
X49524394Y-113742130D01*
X49528436Y-113745834D01*
X49901912Y-114119310D01*
X50267007Y-114484405D01*
X50301033Y-114546717D01*
X50295968Y-114617532D01*
X50253421Y-114674368D01*
X50186901Y-114699179D01*
X50177912Y-114699500D01*
X25002252Y-114699500D01*
X24997756Y-114699339D01*
X24767121Y-114682844D01*
X24749327Y-114680285D01*
X24530005Y-114632574D01*
X24512756Y-114627510D01*
X24302443Y-114549068D01*
X24286089Y-114541599D01*
X24089090Y-114434028D01*
X24073967Y-114424309D01*
X23894275Y-114289794D01*
X23880689Y-114278021D01*
X23721978Y-114119310D01*
X23710205Y-114105724D01*
X23575690Y-113926032D01*
X23565971Y-113910909D01*
X23486837Y-113765988D01*
X23458398Y-113713906D01*
X23450931Y-113697556D01*
X23372486Y-113487236D01*
X23367425Y-113469994D01*
X23367037Y-113468212D01*
X23319713Y-113250670D01*
X23317155Y-113232877D01*
X23316944Y-113229933D01*
X23310004Y-113132880D01*
X23300661Y-113002244D01*
X23300500Y-112997748D01*
X23300500Y-112900000D01*
X34744341Y-112900000D01*
X34764937Y-113135411D01*
X34825461Y-113361291D01*
X34826097Y-113363663D01*
X34836382Y-113385720D01*
X34925966Y-113577832D01*
X35061498Y-113771392D01*
X35061502Y-113771397D01*
X35061505Y-113771401D01*
X35228599Y-113938495D01*
X35228603Y-113938498D01*
X35228607Y-113938501D01*
X35422167Y-114074033D01*
X35422166Y-114074033D01*
X35489628Y-114105491D01*
X35636337Y-114173903D01*
X35864592Y-114235063D01*
X36041034Y-114250500D01*
X36041035Y-114250500D01*
X36158965Y-114250500D01*
X36158966Y-114250500D01*
X36335408Y-114235063D01*
X36563663Y-114173903D01*
X36777829Y-114074035D01*
X36971401Y-113938495D01*
X37138495Y-113771401D01*
X37274035Y-113577830D01*
X37373903Y-113363663D01*
X37404359Y-113250000D01*
X48001102Y-113250000D01*
X48020948Y-113375304D01*
X48029989Y-113393048D01*
X48078543Y-113488342D01*
X48168251Y-113578050D01*
X48196197Y-113592289D01*
X48281290Y-113635646D01*
X48296545Y-113638062D01*
X48360699Y-113668472D01*
X48398228Y-113728739D01*
X48401287Y-113742800D01*
X48414354Y-113825305D01*
X48471949Y-113938342D01*
X48561657Y-114028050D01*
X48600299Y-114047738D01*
X48674696Y-114085646D01*
X48800000Y-114105492D01*
X48925304Y-114085646D01*
X49038342Y-114028050D01*
X49128050Y-113938342D01*
X49185646Y-113825304D01*
X49205492Y-113700000D01*
X49205492Y-113699997D01*
X49205492Y-113694741D01*
X49225494Y-113626620D01*
X49239703Y-113614307D01*
X49200855Y-113592289D01*
X49179085Y-113561820D01*
X49177813Y-113559324D01*
X49148889Y-113502557D01*
X49128050Y-113461657D01*
X49038342Y-113371949D01*
X48959078Y-113331563D01*
X48925304Y-113314354D01*
X48921178Y-113313700D01*
X48910040Y-113311936D01*
X48845888Y-113281522D01*
X48808363Y-113221252D01*
X48805309Y-113207213D01*
X48792240Y-113124696D01*
X48782030Y-113104658D01*
X48734644Y-113011657D01*
X48644936Y-112921949D01*
X48568212Y-112882857D01*
X48531898Y-112864354D01*
X48406594Y-112844508D01*
X48281290Y-112864354D01*
X48281288Y-112864354D01*
X48281288Y-112864355D01*
X48168251Y-112921949D01*
X48078543Y-113011657D01*
X48031158Y-113104658D01*
X48020948Y-113124696D01*
X48014174Y-113167468D01*
X48002003Y-113244314D01*
X48001102Y-113250000D01*
X37404359Y-113250000D01*
X37435063Y-113135408D01*
X37455659Y-112900000D01*
X37435063Y-112664592D01*
X37373903Y-112436337D01*
X37274035Y-112222171D01*
X37274034Y-112222169D01*
X37274033Y-112222167D01*
X37138501Y-112028607D01*
X37138497Y-112028602D01*
X37138495Y-112028599D01*
X36971401Y-111861505D01*
X36971397Y-111861502D01*
X36971392Y-111861498D01*
X36777832Y-111725966D01*
X36777833Y-111725966D01*
X36573957Y-111630897D01*
X36563663Y-111626097D01*
X36563661Y-111626096D01*
X36335411Y-111564937D01*
X36203076Y-111553359D01*
X36158966Y-111549500D01*
X36041034Y-111549500D01*
X36005745Y-111552587D01*
X35864588Y-111564937D01*
X35636338Y-111626096D01*
X35636334Y-111626098D01*
X35422167Y-111725966D01*
X35228607Y-111861498D01*
X35228596Y-111861507D01*
X35061507Y-112028596D01*
X35061502Y-112028602D01*
X34925965Y-112222169D01*
X34826098Y-112436334D01*
X34826096Y-112436338D01*
X34764937Y-112664588D01*
X34744341Y-112900000D01*
X23300500Y-112900000D01*
X23300500Y-109125000D01*
X30319353Y-109125000D01*
X30339835Y-109267457D01*
X30375546Y-109345652D01*
X30399623Y-109398373D01*
X30493873Y-109507144D01*
X30510540Y-109517855D01*
X30614947Y-109584953D01*
X30753039Y-109625500D01*
X30896961Y-109625500D01*
X31035053Y-109584953D01*
X31156128Y-109507143D01*
X31250377Y-109398373D01*
X31310165Y-109267457D01*
X31330647Y-109125000D01*
X31310165Y-108982543D01*
X31250377Y-108851627D01*
X31156128Y-108742857D01*
X31156127Y-108742856D01*
X31156126Y-108742855D01*
X31035053Y-108665047D01*
X30896961Y-108624500D01*
X30753039Y-108624500D01*
X30614946Y-108665047D01*
X30493873Y-108742855D01*
X30399623Y-108851626D01*
X30375047Y-108905440D01*
X30339835Y-108982543D01*
X30319353Y-109125000D01*
X23300500Y-109125000D01*
X23300500Y-107505000D01*
X46334508Y-107505000D01*
X46354354Y-107630304D01*
X46354355Y-107630305D01*
X46411949Y-107743342D01*
X46501657Y-107833050D01*
X46520118Y-107842456D01*
X46614696Y-107890646D01*
X46740000Y-107910492D01*
X46865304Y-107890646D01*
X46978342Y-107833050D01*
X47068050Y-107743342D01*
X47125646Y-107630304D01*
X47145492Y-107505000D01*
X47125646Y-107379696D01*
X47086917Y-107303686D01*
X47068050Y-107266657D01*
X46978342Y-107176949D01*
X46875784Y-107124694D01*
X46865304Y-107119354D01*
X46740000Y-107099508D01*
X46739999Y-107099508D01*
X46716418Y-107103242D01*
X46614696Y-107119354D01*
X46614694Y-107119354D01*
X46614694Y-107119355D01*
X46501657Y-107176949D01*
X46411949Y-107266657D01*
X46374604Y-107339953D01*
X46354354Y-107379696D01*
X46334508Y-107505000D01*
X23300500Y-107505000D01*
X23300500Y-103605000D01*
X43594508Y-103605000D01*
X43614354Y-103730304D01*
X43628029Y-103757143D01*
X43671949Y-103843342D01*
X43761657Y-103933050D01*
X43798115Y-103951626D01*
X43874696Y-103990646D01*
X44000000Y-104010492D01*
X44125304Y-103990646D01*
X44238342Y-103933050D01*
X44328050Y-103843342D01*
X44385646Y-103730304D01*
X44388070Y-103715000D01*
X52784508Y-103715000D01*
X52804354Y-103840304D01*
X52811057Y-103853459D01*
X52861949Y-103953342D01*
X52951657Y-104043050D01*
X52990299Y-104062738D01*
X53064696Y-104100646D01*
X53190000Y-104120492D01*
X53315304Y-104100646D01*
X53428342Y-104043050D01*
X53518050Y-103953342D01*
X53575646Y-103840304D01*
X53595492Y-103715000D01*
X53575646Y-103589696D01*
X53521307Y-103483050D01*
X53518050Y-103476657D01*
X53428342Y-103386949D01*
X53352502Y-103348307D01*
X53315304Y-103329354D01*
X53190000Y-103309508D01*
X53064696Y-103329354D01*
X53064694Y-103329354D01*
X53064694Y-103329355D01*
X52951657Y-103386949D01*
X52861949Y-103476657D01*
X52804355Y-103589694D01*
X52804354Y-103589696D01*
X52790996Y-103674035D01*
X52786449Y-103702748D01*
X52784508Y-103715000D01*
X44388070Y-103715000D01*
X44405492Y-103605000D01*
X44385646Y-103479696D01*
X44341646Y-103393342D01*
X44328050Y-103366657D01*
X44238342Y-103276949D01*
X44157944Y-103235985D01*
X44125304Y-103219354D01*
X44000000Y-103199508D01*
X43874696Y-103219354D01*
X43874694Y-103219354D01*
X43874694Y-103219355D01*
X43761657Y-103276949D01*
X43671949Y-103366657D01*
X43622935Y-103462855D01*
X43614354Y-103479696D01*
X43594508Y-103605000D01*
X23300500Y-103605000D01*
X23300500Y-103155000D01*
X54014508Y-103155000D01*
X54034354Y-103280304D01*
X54034355Y-103280305D01*
X54091949Y-103393342D01*
X54181657Y-103483050D01*
X54220299Y-103502738D01*
X54294696Y-103540646D01*
X54420000Y-103560492D01*
X54545304Y-103540646D01*
X54658342Y-103483050D01*
X54748050Y-103393342D01*
X54757396Y-103375000D01*
X58944353Y-103375000D01*
X58964835Y-103517457D01*
X59009521Y-103615304D01*
X59024623Y-103648373D01*
X59118873Y-103757144D01*
X59151908Y-103778374D01*
X59239947Y-103834953D01*
X59378039Y-103875500D01*
X59521961Y-103875500D01*
X59660053Y-103834953D01*
X59769101Y-103764871D01*
X59837219Y-103744871D01*
X59905339Y-103764873D01*
X59961595Y-103801026D01*
X60029947Y-103844953D01*
X60168039Y-103885500D01*
X60311961Y-103885500D01*
X60385450Y-103863922D01*
X60456445Y-103863922D01*
X60516171Y-103902306D01*
X60545665Y-103966886D01*
X60535561Y-104037159D01*
X60514835Y-104082543D01*
X60494353Y-104225000D01*
X60514835Y-104367457D01*
X60574623Y-104498373D01*
X60602243Y-104530249D01*
X60668873Y-104607144D01*
X60680094Y-104614355D01*
X60789947Y-104684953D01*
X60928039Y-104725500D01*
X61071961Y-104725500D01*
X61210053Y-104684953D01*
X61331128Y-104607143D01*
X61425377Y-104498373D01*
X61485165Y-104367457D01*
X61505647Y-104225000D01*
X61485165Y-104082543D01*
X61425377Y-103951627D01*
X61411732Y-103935880D01*
X61382240Y-103871300D01*
X61392343Y-103801026D01*
X61400960Y-103785246D01*
X61405376Y-103778374D01*
X61405375Y-103778374D01*
X61405377Y-103778373D01*
X61465165Y-103647457D01*
X61485647Y-103505000D01*
X61465165Y-103362543D01*
X61405377Y-103231627D01*
X61311128Y-103122857D01*
X61311127Y-103122856D01*
X61311126Y-103122855D01*
X61190053Y-103045047D01*
X61051961Y-103004500D01*
X60908039Y-103004500D01*
X60790426Y-103039034D01*
X60769947Y-103045047D01*
X60769945Y-103045047D01*
X60769943Y-103045049D01*
X60757570Y-103053001D01*
X60689448Y-103073002D01*
X60621328Y-103052999D01*
X60594226Y-103029514D01*
X60581761Y-103015128D01*
X60571128Y-103002857D01*
X60571127Y-103002856D01*
X60571126Y-103002855D01*
X60450053Y-102925047D01*
X60311961Y-102884500D01*
X60168039Y-102884500D01*
X60029946Y-102925047D01*
X59920900Y-102995126D01*
X59852779Y-103015128D01*
X59784660Y-102995126D01*
X59660053Y-102915047D01*
X59521961Y-102874500D01*
X59378039Y-102874500D01*
X59239946Y-102915047D01*
X59118873Y-102992855D01*
X59024623Y-103101626D01*
X58964835Y-103232543D01*
X58944746Y-103372270D01*
X58944353Y-103375000D01*
X54757396Y-103375000D01*
X54805646Y-103280304D01*
X54825492Y-103155000D01*
X54805646Y-103029696D01*
X54760601Y-102941290D01*
X54748050Y-102916657D01*
X54658342Y-102826949D01*
X54582502Y-102788307D01*
X54545304Y-102769354D01*
X54420000Y-102749508D01*
X54419999Y-102749508D01*
X54396418Y-102753242D01*
X54294696Y-102769354D01*
X54294694Y-102769354D01*
X54294694Y-102769355D01*
X54181657Y-102826949D01*
X54091949Y-102916657D01*
X54053124Y-102992857D01*
X54034354Y-103029696D01*
X54014508Y-103155000D01*
X23300500Y-103155000D01*
X23300500Y-102002250D01*
X23300661Y-101997754D01*
X23312003Y-101839156D01*
X23314446Y-101805000D01*
X44694353Y-101805000D01*
X44714835Y-101947457D01*
X44774623Y-102078373D01*
X44860347Y-102177305D01*
X44868873Y-102187144D01*
X44929409Y-102226048D01*
X44989947Y-102264953D01*
X45128039Y-102305500D01*
X45271961Y-102305500D01*
X45410053Y-102264953D01*
X45531128Y-102187143D01*
X45625377Y-102078373D01*
X45685165Y-101947457D01*
X45705647Y-101805000D01*
X45685165Y-101662543D01*
X45625377Y-101531627D01*
X45531128Y-101422857D01*
X45531127Y-101422856D01*
X45531126Y-101422855D01*
X45410053Y-101345047D01*
X45271961Y-101304500D01*
X45128039Y-101304500D01*
X44989946Y-101345047D01*
X44868873Y-101422855D01*
X44774623Y-101531626D01*
X44730333Y-101628607D01*
X44714835Y-101662543D01*
X44694353Y-101805000D01*
X23314446Y-101805000D01*
X23317155Y-101767117D01*
X23319714Y-101749327D01*
X23367427Y-101529995D01*
X23372485Y-101512767D01*
X23450934Y-101302434D01*
X23458395Y-101286098D01*
X23565973Y-101089086D01*
X23575690Y-101073967D01*
X23580952Y-101066938D01*
X23710211Y-100894267D01*
X23721971Y-100880696D01*
X23880696Y-100721971D01*
X23894267Y-100710211D01*
X24073970Y-100575688D01*
X24089086Y-100565973D01*
X24286098Y-100458395D01*
X24302434Y-100450934D01*
X24512767Y-100372485D01*
X24529995Y-100367427D01*
X24749331Y-100319713D01*
X24767117Y-100317155D01*
X24856953Y-100310730D01*
X24997756Y-100300661D01*
X25002252Y-100300500D01*
X25047595Y-100300500D01*
X52057666Y-100300500D01*
X52125787Y-100320502D01*
G37*
G04 #@! TD.AperFunction*
G04 #@! TA.AperFunction,Conductor*
G36*
X59283035Y-112695502D02*
G01*
X59329528Y-112749158D01*
X59339632Y-112819432D01*
X59339372Y-112821150D01*
X59329599Y-112882857D01*
X59324773Y-112913328D01*
X59294360Y-112977481D01*
X59235823Y-113014513D01*
X59199946Y-113025047D01*
X59078873Y-113102855D01*
X58984623Y-113211626D01*
X58924835Y-113342543D01*
X58924833Y-113342549D01*
X58903897Y-113488161D01*
X58874404Y-113552742D01*
X58868276Y-113559324D01*
X58490007Y-113937595D01*
X58427695Y-113971620D01*
X58400911Y-113974500D01*
X58197089Y-113974500D01*
X58128968Y-113954498D01*
X58082475Y-113900842D01*
X58072371Y-113830568D01*
X58101865Y-113765988D01*
X58107993Y-113759405D01*
X58364840Y-113502557D01*
X58451566Y-113415830D01*
X58455611Y-113412125D01*
X58461175Y-113407457D01*
X58487083Y-113385718D01*
X58507641Y-113350108D01*
X58510571Y-113345509D01*
X58534155Y-113311830D01*
X58534156Y-113311825D01*
X58536473Y-113306856D01*
X58543484Y-113289932D01*
X58545358Y-113284784D01*
X58545359Y-113284781D01*
X58552497Y-113244291D01*
X58553677Y-113238969D01*
X58564321Y-113199250D01*
X58560739Y-113158319D01*
X58560500Y-113152832D01*
X58560500Y-113093783D01*
X58574234Y-113036579D01*
X58615644Y-112955309D01*
X58615644Y-112955307D01*
X58615646Y-112955304D01*
X58635492Y-112830000D01*
X58634100Y-112821211D01*
X58634100Y-112821208D01*
X58643201Y-112750797D01*
X58688924Y-112696484D01*
X58756753Y-112675513D01*
X58758549Y-112675500D01*
X59214914Y-112675500D01*
X59283035Y-112695502D01*
G37*
G04 #@! TD.AperFunction*
M02*
