G04 #@! TF.GenerationSoftware,KiCad,Pcbnew,(6.0.7)*
G04 #@! TF.CreationDate,2022-12-21T15:12:10+11:00*
G04 #@! TF.ProjectId,owts,6f777473-2e6b-4696-9361-645f70636258,0.0.2*
G04 #@! TF.SameCoordinates,Original*
G04 #@! TF.FileFunction,Legend,Top*
G04 #@! TF.FilePolarity,Positive*
%FSLAX46Y46*%
G04 Gerber Fmt 4.6, Leading zero omitted, Abs format (unit mm)*
G04 Created by KiCad (PCBNEW (6.0.7)) date 2022-12-21 15:12:10*
%MOMM*%
%LPD*%
G01*
G04 APERTURE LIST*
%ADD10C,0.125000*%
%ADD11C,0.150000*%
%ADD12C,0.120000*%
%ADD13C,0.127000*%
%ADD14C,0.200000*%
G04 APERTURE END LIST*
D10*
X72933333Y-108516666D02*
X72700000Y-108183333D01*
X72533333Y-108516666D02*
X72533333Y-107816666D01*
X72800000Y-107816666D01*
X72866666Y-107850000D01*
X72900000Y-107883333D01*
X72933333Y-107950000D01*
X72933333Y-108050000D01*
X72900000Y-108116666D01*
X72866666Y-108150000D01*
X72800000Y-108183333D01*
X72533333Y-108183333D01*
X73166666Y-107816666D02*
X73633333Y-108516666D01*
X73633333Y-107816666D02*
X73166666Y-108516666D01*
X66797916Y-104116666D02*
X66797916Y-103416666D01*
X67264583Y-103416666D02*
X67397916Y-103416666D01*
X67464583Y-103450000D01*
X67531250Y-103516666D01*
X67564583Y-103650000D01*
X67564583Y-103883333D01*
X67531250Y-104016666D01*
X67464583Y-104083333D01*
X67397916Y-104116666D01*
X67264583Y-104116666D01*
X67197916Y-104083333D01*
X67131250Y-104016666D01*
X67097916Y-103883333D01*
X67097916Y-103650000D01*
X67131250Y-103516666D01*
X67197916Y-103450000D01*
X67264583Y-103416666D01*
D11*
X93119047Y-108471428D02*
X93880952Y-108471428D01*
D10*
X71936011Y-102726190D02*
X71769345Y-102488095D01*
X71650297Y-102726190D02*
X71650297Y-102226190D01*
X71840773Y-102226190D01*
X71888392Y-102250000D01*
X71912202Y-102273809D01*
X71936011Y-102321428D01*
X71936011Y-102392857D01*
X71912202Y-102440476D01*
X71888392Y-102464285D01*
X71840773Y-102488095D01*
X71650297Y-102488095D01*
X72126488Y-102702380D02*
X72197916Y-102726190D01*
X72316964Y-102726190D01*
X72364583Y-102702380D01*
X72388392Y-102678571D01*
X72412202Y-102630952D01*
X72412202Y-102583333D01*
X72388392Y-102535714D01*
X72364583Y-102511904D01*
X72316964Y-102488095D01*
X72221726Y-102464285D01*
X72174107Y-102440476D01*
X72150297Y-102416666D01*
X72126488Y-102369047D01*
X72126488Y-102321428D01*
X72150297Y-102273809D01*
X72174107Y-102250000D01*
X72221726Y-102226190D01*
X72340773Y-102226190D01*
X72412202Y-102250000D01*
X72555059Y-102226190D02*
X72840773Y-102226190D01*
X72697916Y-102726190D02*
X72697916Y-102226190D01*
D11*
X93119047Y-110571428D02*
X93880952Y-110571428D01*
X93500000Y-110952380D02*
X93500000Y-110190476D01*
D10*
X80166666Y-107850000D02*
X80100000Y-107816666D01*
X80000000Y-107816666D01*
X79900000Y-107850000D01*
X79833333Y-107916666D01*
X79800000Y-107983333D01*
X79766666Y-108116666D01*
X79766666Y-108216666D01*
X79800000Y-108350000D01*
X79833333Y-108416666D01*
X79900000Y-108483333D01*
X80000000Y-108516666D01*
X80066666Y-108516666D01*
X80166666Y-108483333D01*
X80200000Y-108450000D01*
X80200000Y-108216666D01*
X80066666Y-108216666D01*
X80500000Y-108516666D02*
X80500000Y-107816666D01*
X80900000Y-108516666D01*
X80900000Y-107816666D01*
X81233333Y-108516666D02*
X81233333Y-107816666D01*
X81400000Y-107816666D01*
X81500000Y-107850000D01*
X81566666Y-107916666D01*
X81600000Y-107983333D01*
X81633333Y-108116666D01*
X81633333Y-108216666D01*
X81600000Y-108350000D01*
X81566666Y-108416666D01*
X81500000Y-108483333D01*
X81400000Y-108516666D01*
X81233333Y-108516666D01*
X93083333Y-112403166D02*
X92750000Y-112403166D01*
X92716666Y-112736500D01*
X92750000Y-112703166D01*
X92816666Y-112669833D01*
X92983333Y-112669833D01*
X93050000Y-112703166D01*
X93083333Y-112736500D01*
X93116666Y-112803166D01*
X93116666Y-112969833D01*
X93083333Y-113036500D01*
X93050000Y-113069833D01*
X92983333Y-113103166D01*
X92816666Y-113103166D01*
X92750000Y-113069833D01*
X92716666Y-113036500D01*
X93316666Y-112403166D02*
X93550000Y-113103166D01*
X93783333Y-112403166D01*
X94350000Y-112403166D02*
X94016666Y-112403166D01*
X93983333Y-112736500D01*
X94016666Y-112703166D01*
X94083333Y-112669833D01*
X94250000Y-112669833D01*
X94316666Y-112703166D01*
X94350000Y-112736500D01*
X94383333Y-112803166D01*
X94383333Y-112969833D01*
X94350000Y-113036500D01*
X94316666Y-113069833D01*
X94250000Y-113103166D01*
X94083333Y-113103166D01*
X94016666Y-113069833D01*
X93983333Y-113036500D01*
X92683333Y-114230166D02*
X92683333Y-113530166D01*
X92916666Y-114030166D01*
X93150000Y-113530166D01*
X93150000Y-114230166D01*
X93450000Y-114030166D02*
X93783333Y-114030166D01*
X93383333Y-114230166D02*
X93616666Y-113530166D01*
X93850000Y-114230166D01*
X94016666Y-113530166D02*
X94483333Y-114230166D01*
X94483333Y-113530166D02*
X94016666Y-114230166D01*
X71912202Y-100950000D02*
X71864583Y-100926190D01*
X71793154Y-100926190D01*
X71721726Y-100950000D01*
X71674107Y-100997619D01*
X71650297Y-101045238D01*
X71626488Y-101140476D01*
X71626488Y-101211904D01*
X71650297Y-101307142D01*
X71674107Y-101354761D01*
X71721726Y-101402380D01*
X71793154Y-101426190D01*
X71840773Y-101426190D01*
X71912202Y-101402380D01*
X71936011Y-101378571D01*
X71936011Y-101211904D01*
X71840773Y-101211904D01*
X72150297Y-101426190D02*
X72150297Y-100926190D01*
X72436011Y-101426190D01*
X72436011Y-100926190D01*
X72674107Y-101426190D02*
X72674107Y-100926190D01*
X72793154Y-100926190D01*
X72864583Y-100950000D01*
X72912202Y-100997619D01*
X72936011Y-101045238D01*
X72959821Y-101140476D01*
X72959821Y-101211904D01*
X72936011Y-101307142D01*
X72912202Y-101354761D01*
X72864583Y-101402380D01*
X72793154Y-101426190D01*
X72674107Y-101426190D01*
X72480952Y-114376190D02*
X72790476Y-114376190D01*
X72623809Y-114566666D01*
X72695238Y-114566666D01*
X72742857Y-114590476D01*
X72766666Y-114614285D01*
X72790476Y-114661904D01*
X72790476Y-114780952D01*
X72766666Y-114828571D01*
X72742857Y-114852380D01*
X72695238Y-114876190D01*
X72552380Y-114876190D01*
X72504761Y-114852380D01*
X72480952Y-114828571D01*
X72933333Y-114376190D02*
X73100000Y-114876190D01*
X73266666Y-114376190D01*
X73385714Y-114376190D02*
X73695238Y-114376190D01*
X73528571Y-114566666D01*
X73600000Y-114566666D01*
X73647619Y-114590476D01*
X73671428Y-114614285D01*
X73695238Y-114661904D01*
X73695238Y-114780952D01*
X73671428Y-114828571D01*
X73647619Y-114852380D01*
X73600000Y-114876190D01*
X73457142Y-114876190D01*
X73409523Y-114852380D01*
X73385714Y-114828571D01*
X71697916Y-103366666D02*
X71931250Y-104066666D01*
X72164583Y-103366666D01*
X72297916Y-103366666D02*
X72697916Y-103366666D01*
X72497916Y-104066666D02*
X72497916Y-103366666D01*
X75976190Y-104197321D02*
X75976190Y-103887797D01*
X76166666Y-104054464D01*
X76166666Y-103983035D01*
X76190476Y-103935416D01*
X76214285Y-103911607D01*
X76261904Y-103887797D01*
X76380952Y-103887797D01*
X76428571Y-103911607D01*
X76452380Y-103935416D01*
X76476190Y-103983035D01*
X76476190Y-104125892D01*
X76452380Y-104173511D01*
X76428571Y-104197321D01*
X75976190Y-103744940D02*
X76476190Y-103578273D01*
X75976190Y-103411607D01*
X75976190Y-103292559D02*
X75976190Y-102983035D01*
X76166666Y-103149702D01*
X76166666Y-103078273D01*
X76190476Y-103030654D01*
X76214285Y-103006845D01*
X76261904Y-102983035D01*
X76380952Y-102983035D01*
X76428571Y-103006845D01*
X76452380Y-103030654D01*
X76476190Y-103078273D01*
X76476190Y-103221130D01*
X76452380Y-103268750D01*
X76428571Y-103292559D01*
X77769047Y-114400000D02*
X77721428Y-114376190D01*
X77650000Y-114376190D01*
X77578571Y-114400000D01*
X77530952Y-114447619D01*
X77507142Y-114495238D01*
X77483333Y-114590476D01*
X77483333Y-114661904D01*
X77507142Y-114757142D01*
X77530952Y-114804761D01*
X77578571Y-114852380D01*
X77650000Y-114876190D01*
X77697619Y-114876190D01*
X77769047Y-114852380D01*
X77792857Y-114828571D01*
X77792857Y-114661904D01*
X77697619Y-114661904D01*
X78007142Y-114876190D02*
X78007142Y-114376190D01*
X78292857Y-114876190D01*
X78292857Y-114376190D01*
X78530952Y-114876190D02*
X78530952Y-114376190D01*
X78650000Y-114376190D01*
X78721428Y-114400000D01*
X78769047Y-114447619D01*
X78792857Y-114495238D01*
X78816666Y-114590476D01*
X78816666Y-114661904D01*
X78792857Y-114757142D01*
X78769047Y-114804761D01*
X78721428Y-114852380D01*
X78650000Y-114876190D01*
X78530952Y-114876190D01*
D11*
X103202380Y-102447619D02*
X102726190Y-102780952D01*
X103202380Y-103019047D02*
X102202380Y-103019047D01*
X102202380Y-102638095D01*
X102250000Y-102542857D01*
X102297619Y-102495238D01*
X102392857Y-102447619D01*
X102535714Y-102447619D01*
X102630952Y-102495238D01*
X102678571Y-102542857D01*
X102726190Y-102638095D01*
X102726190Y-103019047D01*
X103154761Y-102066666D02*
X103202380Y-101923809D01*
X103202380Y-101685714D01*
X103154761Y-101590476D01*
X103107142Y-101542857D01*
X103011904Y-101495238D01*
X102916666Y-101495238D01*
X102821428Y-101542857D01*
X102773809Y-101590476D01*
X102726190Y-101685714D01*
X102678571Y-101876190D01*
X102630952Y-101971428D01*
X102583333Y-102019047D01*
X102488095Y-102066666D01*
X102392857Y-102066666D01*
X102297619Y-102019047D01*
X102250000Y-101971428D01*
X102202380Y-101876190D01*
X102202380Y-101638095D01*
X102250000Y-101495238D01*
X102202380Y-101209523D02*
X102202380Y-100638095D01*
X103202380Y-100923809D02*
X102202380Y-100923809D01*
D10*
X75066666Y-107816666D02*
X75466666Y-107816666D01*
X75266666Y-108516666D02*
X75266666Y-107816666D01*
X75633333Y-107816666D02*
X76100000Y-108516666D01*
X76100000Y-107816666D02*
X75633333Y-108516666D01*
X80133333Y-114376190D02*
X80300000Y-114876190D01*
X80466666Y-114376190D01*
X80633333Y-114876190D02*
X80633333Y-114376190D01*
X80823809Y-114376190D01*
X80871428Y-114400000D01*
X80895238Y-114423809D01*
X80919047Y-114471428D01*
X80919047Y-114542857D01*
X80895238Y-114590476D01*
X80871428Y-114614285D01*
X80823809Y-114638095D01*
X80633333Y-114638095D01*
X81133333Y-114876190D02*
X81133333Y-114376190D01*
X81323809Y-114376190D01*
X81371428Y-114400000D01*
X81395238Y-114423809D01*
X81419047Y-114471428D01*
X81419047Y-114542857D01*
X81395238Y-114590476D01*
X81371428Y-114614285D01*
X81323809Y-114638095D01*
X81133333Y-114638095D01*
X72983333Y-105419833D02*
X73083333Y-105453166D01*
X73250000Y-105453166D01*
X73316666Y-105419833D01*
X73350000Y-105386500D01*
X73383333Y-105319833D01*
X73383333Y-105253166D01*
X73350000Y-105186500D01*
X73316666Y-105153166D01*
X73250000Y-105119833D01*
X73116666Y-105086500D01*
X73050000Y-105053166D01*
X73016666Y-105019833D01*
X72983333Y-104953166D01*
X72983333Y-104886500D01*
X73016666Y-104819833D01*
X73050000Y-104786500D01*
X73116666Y-104753166D01*
X73283333Y-104753166D01*
X73383333Y-104786500D01*
X73683333Y-105453166D02*
X73683333Y-104753166D01*
X73850000Y-104753166D01*
X73950000Y-104786500D01*
X74016666Y-104853166D01*
X74050000Y-104919833D01*
X74083333Y-105053166D01*
X74083333Y-105153166D01*
X74050000Y-105286500D01*
X74016666Y-105353166D01*
X73950000Y-105419833D01*
X73850000Y-105453166D01*
X73683333Y-105453166D01*
X74383333Y-105453166D02*
X74383333Y-104753166D01*
X74383333Y-105086500D02*
X74783333Y-105086500D01*
X74783333Y-105453166D02*
X74783333Y-104753166D01*
X75516666Y-105386500D02*
X75483333Y-105419833D01*
X75383333Y-105453166D01*
X75316666Y-105453166D01*
X75216666Y-105419833D01*
X75150000Y-105353166D01*
X75116666Y-105286500D01*
X75083333Y-105153166D01*
X75083333Y-105053166D01*
X75116666Y-104919833D01*
X75150000Y-104853166D01*
X75216666Y-104786500D01*
X75316666Y-104753166D01*
X75383333Y-104753166D01*
X75483333Y-104786500D01*
X75516666Y-104819833D01*
X73316666Y-106580166D02*
X73316666Y-105880166D01*
X73583333Y-105880166D01*
X73650000Y-105913500D01*
X73683333Y-105946833D01*
X73716666Y-106013500D01*
X73716666Y-106113500D01*
X73683333Y-106180166D01*
X73650000Y-106213500D01*
X73583333Y-106246833D01*
X73316666Y-106246833D01*
X73950000Y-105880166D02*
X74116666Y-106580166D01*
X74250000Y-106080166D01*
X74383333Y-106580166D01*
X74550000Y-105880166D01*
X75216666Y-106580166D02*
X74983333Y-106246833D01*
X74816666Y-106580166D02*
X74816666Y-105880166D01*
X75083333Y-105880166D01*
X75150000Y-105913500D01*
X75183333Y-105946833D01*
X75216666Y-106013500D01*
X75216666Y-106113500D01*
X75183333Y-106180166D01*
X75150000Y-106213500D01*
X75083333Y-106246833D01*
X74816666Y-106246833D01*
X77233333Y-107816666D02*
X77400000Y-108516666D01*
X77533333Y-108016666D01*
X77666666Y-108516666D01*
X77833333Y-107816666D01*
X78100000Y-108516666D02*
X78100000Y-107816666D01*
X78500000Y-108516666D02*
X78200000Y-108116666D01*
X78500000Y-107816666D02*
X78100000Y-108216666D01*
X78800000Y-108150000D02*
X79033333Y-108150000D01*
X79133333Y-108516666D02*
X78800000Y-108516666D01*
X78800000Y-107816666D01*
X79133333Y-107816666D01*
D11*
X39000119Y-112473571D02*
X39142976Y-112521190D01*
X39190595Y-112568809D01*
X39238214Y-112664047D01*
X39238214Y-112806904D01*
X39190595Y-112902142D01*
X39142976Y-112949761D01*
X39047738Y-112997380D01*
X38666785Y-112997380D01*
X38666785Y-111997380D01*
X39000119Y-111997380D01*
X39095357Y-112045000D01*
X39142976Y-112092619D01*
X39190595Y-112187857D01*
X39190595Y-112283095D01*
X39142976Y-112378333D01*
X39095357Y-112425952D01*
X39000119Y-112473571D01*
X38666785Y-112473571D01*
X39809642Y-112997380D02*
X39714404Y-112949761D01*
X39666785Y-112902142D01*
X39619166Y-112806904D01*
X39619166Y-112521190D01*
X39666785Y-112425952D01*
X39714404Y-112378333D01*
X39809642Y-112330714D01*
X39952500Y-112330714D01*
X40047738Y-112378333D01*
X40095357Y-112425952D01*
X40142976Y-112521190D01*
X40142976Y-112806904D01*
X40095357Y-112902142D01*
X40047738Y-112949761D01*
X39952500Y-112997380D01*
X39809642Y-112997380D01*
X40523928Y-112949761D02*
X40666785Y-112997380D01*
X40904880Y-112997380D01*
X41000119Y-112949761D01*
X41047738Y-112902142D01*
X41095357Y-112806904D01*
X41095357Y-112711666D01*
X41047738Y-112616428D01*
X41000119Y-112568809D01*
X40904880Y-112521190D01*
X40714404Y-112473571D01*
X40619166Y-112425952D01*
X40571547Y-112378333D01*
X40523928Y-112283095D01*
X40523928Y-112187857D01*
X40571547Y-112092619D01*
X40619166Y-112045000D01*
X40714404Y-111997380D01*
X40952500Y-111997380D01*
X41095357Y-112045000D01*
X42000119Y-112997380D02*
X41523928Y-112997380D01*
X41523928Y-111997380D01*
X43523928Y-112949761D02*
X43428690Y-112997380D01*
X43238214Y-112997380D01*
X43142976Y-112949761D01*
X43095357Y-112902142D01*
X43047738Y-112806904D01*
X43047738Y-112521190D01*
X43095357Y-112425952D01*
X43142976Y-112378333D01*
X43238214Y-112330714D01*
X43428690Y-112330714D01*
X43523928Y-112378333D01*
X44381071Y-112997380D02*
X44381071Y-112473571D01*
X44333452Y-112378333D01*
X44238214Y-112330714D01*
X44047738Y-112330714D01*
X43952500Y-112378333D01*
X44381071Y-112949761D02*
X44285833Y-112997380D01*
X44047738Y-112997380D01*
X43952500Y-112949761D01*
X43904880Y-112854523D01*
X43904880Y-112759285D01*
X43952500Y-112664047D01*
X44047738Y-112616428D01*
X44285833Y-112616428D01*
X44381071Y-112568809D01*
X44857261Y-112997380D02*
X44857261Y-112330714D01*
X44857261Y-112425952D02*
X44904880Y-112378333D01*
X45000119Y-112330714D01*
X45142976Y-112330714D01*
X45238214Y-112378333D01*
X45285833Y-112473571D01*
X45285833Y-112997380D01*
X45285833Y-112473571D02*
X45333452Y-112378333D01*
X45428690Y-112330714D01*
X45571547Y-112330714D01*
X45666785Y-112378333D01*
X45714404Y-112473571D01*
X45714404Y-112997380D01*
X40142976Y-114607380D02*
X40142976Y-113940714D01*
X40142976Y-114131190D02*
X40190595Y-114035952D01*
X40238214Y-113988333D01*
X40333452Y-113940714D01*
X40428690Y-113940714D01*
X41142976Y-114559761D02*
X41047738Y-114607380D01*
X40857261Y-114607380D01*
X40762023Y-114559761D01*
X40714404Y-114464523D01*
X40714404Y-114083571D01*
X40762023Y-113988333D01*
X40857261Y-113940714D01*
X41047738Y-113940714D01*
X41142976Y-113988333D01*
X41190595Y-114083571D01*
X41190595Y-114178809D01*
X40714404Y-114274047D01*
X41523928Y-113940714D02*
X41762023Y-114607380D01*
X42000119Y-113940714D01*
X42904880Y-114607380D02*
X42333452Y-114607380D01*
X42619166Y-114607380D02*
X42619166Y-113607380D01*
X42523928Y-113750238D01*
X42428690Y-113845476D01*
X42333452Y-113893095D01*
X43333452Y-114512142D02*
X43381071Y-114559761D01*
X43333452Y-114607380D01*
X43285833Y-114559761D01*
X43333452Y-114512142D01*
X43333452Y-114607380D01*
X44000119Y-113607380D02*
X44095357Y-113607380D01*
X44190595Y-113655000D01*
X44238214Y-113702619D01*
X44285833Y-113797857D01*
X44333452Y-113988333D01*
X44333452Y-114226428D01*
X44285833Y-114416904D01*
X44238214Y-114512142D01*
X44190595Y-114559761D01*
X44095357Y-114607380D01*
X44000119Y-114607380D01*
X43904880Y-114559761D01*
X43857261Y-114512142D01*
X43809642Y-114416904D01*
X43762023Y-114226428D01*
X43762023Y-113988333D01*
X43809642Y-113797857D01*
X43857261Y-113702619D01*
X43904880Y-113655000D01*
X44000119Y-113607380D01*
X44762023Y-114512142D02*
X44809642Y-114559761D01*
X44762023Y-114607380D01*
X44714404Y-114559761D01*
X44762023Y-114512142D01*
X44762023Y-114607380D01*
X45428690Y-113607380D02*
X45523928Y-113607380D01*
X45619166Y-113655000D01*
X45666785Y-113702619D01*
X45714404Y-113797857D01*
X45762023Y-113988333D01*
X45762023Y-114226428D01*
X45714404Y-114416904D01*
X45666785Y-114512142D01*
X45619166Y-114559761D01*
X45523928Y-114607380D01*
X45428690Y-114607380D01*
X45333452Y-114559761D01*
X45285833Y-114512142D01*
X45238214Y-114416904D01*
X45190595Y-114226428D01*
X45190595Y-113988333D01*
X45238214Y-113797857D01*
X45285833Y-113702619D01*
X45333452Y-113655000D01*
X45428690Y-113607380D01*
D10*
X77250000Y-106200000D02*
X77350000Y-106233333D01*
X77383333Y-106266666D01*
X77416666Y-106333333D01*
X77416666Y-106433333D01*
X77383333Y-106500000D01*
X77350000Y-106533333D01*
X77283333Y-106566666D01*
X77016666Y-106566666D01*
X77016666Y-105866666D01*
X77250000Y-105866666D01*
X77316666Y-105900000D01*
X77350000Y-105933333D01*
X77383333Y-106000000D01*
X77383333Y-106066666D01*
X77350000Y-106133333D01*
X77316666Y-106166666D01*
X77250000Y-106200000D01*
X77016666Y-106200000D01*
X77616666Y-105866666D02*
X78016666Y-105866666D01*
X77816666Y-106566666D02*
X77816666Y-105866666D01*
X78250000Y-106566666D02*
X78250000Y-105866666D01*
X78650000Y-106566666D01*
X78650000Y-105866666D01*
X79483333Y-106366666D02*
X79816666Y-106366666D01*
X79416666Y-106566666D02*
X79650000Y-105866666D01*
X79883333Y-106566666D01*
X66686011Y-102728571D02*
X66662202Y-102752380D01*
X66590773Y-102776190D01*
X66543154Y-102776190D01*
X66471726Y-102752380D01*
X66424107Y-102704761D01*
X66400297Y-102657142D01*
X66376488Y-102561904D01*
X66376488Y-102490476D01*
X66400297Y-102395238D01*
X66424107Y-102347619D01*
X66471726Y-102300000D01*
X66543154Y-102276190D01*
X66590773Y-102276190D01*
X66662202Y-102300000D01*
X66686011Y-102323809D01*
X67138392Y-102776190D02*
X66900297Y-102776190D01*
X66900297Y-102276190D01*
X67305059Y-102776190D02*
X67305059Y-102276190D01*
X67590773Y-102776190D02*
X67376488Y-102490476D01*
X67590773Y-102276190D02*
X67305059Y-102561904D01*
X68714583Y-105483333D02*
X68814583Y-105516666D01*
X68981250Y-105516666D01*
X69047916Y-105483333D01*
X69081250Y-105450000D01*
X69114583Y-105383333D01*
X69114583Y-105316666D01*
X69081250Y-105250000D01*
X69047916Y-105216666D01*
X68981250Y-105183333D01*
X68847916Y-105150000D01*
X68781250Y-105116666D01*
X68747916Y-105083333D01*
X68714583Y-105016666D01*
X68714583Y-104950000D01*
X68747916Y-104883333D01*
X68781250Y-104850000D01*
X68847916Y-104816666D01*
X69014583Y-104816666D01*
X69114583Y-104850000D01*
X69347916Y-104816666D02*
X69514583Y-105516666D01*
X69647916Y-105016666D01*
X69781250Y-105516666D01*
X69947916Y-104816666D01*
X70214583Y-105516666D02*
X70214583Y-104816666D01*
X70381250Y-104816666D01*
X70481250Y-104850000D01*
X70547916Y-104916666D01*
X70581250Y-104983333D01*
X70614583Y-105116666D01*
X70614583Y-105216666D01*
X70581250Y-105350000D01*
X70547916Y-105416666D01*
X70481250Y-105483333D01*
X70381250Y-105516666D01*
X70214583Y-105516666D01*
X75326190Y-114876190D02*
X75159523Y-114638095D01*
X75040476Y-114876190D02*
X75040476Y-114376190D01*
X75230952Y-114376190D01*
X75278571Y-114400000D01*
X75302380Y-114423809D01*
X75326190Y-114471428D01*
X75326190Y-114542857D01*
X75302380Y-114590476D01*
X75278571Y-114614285D01*
X75230952Y-114638095D01*
X75040476Y-114638095D01*
X75516666Y-114852380D02*
X75588095Y-114876190D01*
X75707142Y-114876190D01*
X75754761Y-114852380D01*
X75778571Y-114828571D01*
X75802380Y-114780952D01*
X75802380Y-114733333D01*
X75778571Y-114685714D01*
X75754761Y-114661904D01*
X75707142Y-114638095D01*
X75611904Y-114614285D01*
X75564285Y-114590476D01*
X75540476Y-114566666D01*
X75516666Y-114519047D01*
X75516666Y-114471428D01*
X75540476Y-114423809D01*
X75564285Y-114400000D01*
X75611904Y-114376190D01*
X75730952Y-114376190D01*
X75802380Y-114400000D01*
X75945238Y-114376190D02*
X76230952Y-114376190D01*
X76088095Y-114876190D02*
X76088095Y-114376190D01*
X76476190Y-101849702D02*
X75976190Y-101849702D01*
X75976190Y-101659226D01*
X76000000Y-101611607D01*
X76023809Y-101587797D01*
X76071428Y-101563988D01*
X76142857Y-101563988D01*
X76190476Y-101587797D01*
X76214285Y-101611607D01*
X76238095Y-101659226D01*
X76238095Y-101849702D01*
X76476190Y-101349702D02*
X75976190Y-101349702D01*
X76333333Y-101183035D01*
X75976190Y-101016369D01*
X76476190Y-101016369D01*
X76476190Y-100778273D02*
X75976190Y-100778273D01*
X76428571Y-100254464D02*
X76452380Y-100278273D01*
X76476190Y-100349702D01*
X76476190Y-100397321D01*
X76452380Y-100468750D01*
X76404761Y-100516369D01*
X76357142Y-100540178D01*
X76261904Y-100563988D01*
X76190476Y-100563988D01*
X76095238Y-100540178D01*
X76047619Y-100516369D01*
X76000000Y-100468750D01*
X75976190Y-100397321D01*
X75976190Y-100349702D01*
X76000000Y-100278273D01*
X76023809Y-100254464D01*
X66547916Y-101100000D02*
X66781250Y-101100000D01*
X66881250Y-101466666D02*
X66547916Y-101466666D01*
X66547916Y-100766666D01*
X66881250Y-100766666D01*
X67181250Y-101466666D02*
X67181250Y-100766666D01*
X67581250Y-101466666D01*
X67581250Y-100766666D01*
X71141666Y-106476190D02*
X70975000Y-106238095D01*
X70855952Y-106476190D02*
X70855952Y-105976190D01*
X71046428Y-105976190D01*
X71094047Y-106000000D01*
X71117857Y-106023809D01*
X71141666Y-106071428D01*
X71141666Y-106142857D01*
X71117857Y-106190476D01*
X71094047Y-106214285D01*
X71046428Y-106238095D01*
X70855952Y-106238095D01*
X71308333Y-105976190D02*
X71641666Y-105976190D01*
X71427380Y-106476190D01*
X85719047Y-108226190D02*
X85719047Y-108630952D01*
X85742857Y-108678571D01*
X85766666Y-108702380D01*
X85814285Y-108726190D01*
X85909523Y-108726190D01*
X85957142Y-108702380D01*
X85980952Y-108678571D01*
X86004761Y-108630952D01*
X86004761Y-108226190D01*
X86219047Y-108273809D02*
X86242857Y-108250000D01*
X86290476Y-108226190D01*
X86409523Y-108226190D01*
X86457142Y-108250000D01*
X86480952Y-108273809D01*
X86504761Y-108321428D01*
X86504761Y-108369047D01*
X86480952Y-108440476D01*
X86195238Y-108726190D01*
X86504761Y-108726190D01*
X88216666Y-102426190D02*
X88050000Y-102188095D01*
X87930952Y-102426190D02*
X87930952Y-101926190D01*
X88121428Y-101926190D01*
X88169047Y-101950000D01*
X88192857Y-101973809D01*
X88216666Y-102021428D01*
X88216666Y-102092857D01*
X88192857Y-102140476D01*
X88169047Y-102164285D01*
X88121428Y-102188095D01*
X87930952Y-102188095D01*
X88692857Y-102426190D02*
X88407142Y-102426190D01*
X88550000Y-102426190D02*
X88550000Y-101926190D01*
X88502380Y-101997619D01*
X88454761Y-102045238D01*
X88407142Y-102069047D01*
X51978571Y-107578571D02*
X51954761Y-107602380D01*
X51883333Y-107626190D01*
X51835714Y-107626190D01*
X51764285Y-107602380D01*
X51716666Y-107554761D01*
X51692857Y-107507142D01*
X51669047Y-107411904D01*
X51669047Y-107340476D01*
X51692857Y-107245238D01*
X51716666Y-107197619D01*
X51764285Y-107150000D01*
X51835714Y-107126190D01*
X51883333Y-107126190D01*
X51954761Y-107150000D01*
X51978571Y-107173809D01*
X52454761Y-107626190D02*
X52169047Y-107626190D01*
X52311904Y-107626190D02*
X52311904Y-107126190D01*
X52264285Y-107197619D01*
X52216666Y-107245238D01*
X52169047Y-107269047D01*
X52692857Y-107626190D02*
X52788095Y-107626190D01*
X52835714Y-107602380D01*
X52859523Y-107578571D01*
X52907142Y-107507142D01*
X52930952Y-107411904D01*
X52930952Y-107221428D01*
X52907142Y-107173809D01*
X52883333Y-107150000D01*
X52835714Y-107126190D01*
X52740476Y-107126190D01*
X52692857Y-107150000D01*
X52669047Y-107173809D01*
X52645238Y-107221428D01*
X52645238Y-107340476D01*
X52669047Y-107388095D01*
X52692857Y-107411904D01*
X52740476Y-107435714D01*
X52835714Y-107435714D01*
X52883333Y-107411904D01*
X52907142Y-107388095D01*
X52930952Y-107340476D01*
X53716666Y-104705190D02*
X53550000Y-104467095D01*
X53430952Y-104705190D02*
X53430952Y-104205190D01*
X53621428Y-104205190D01*
X53669047Y-104229000D01*
X53692857Y-104252809D01*
X53716666Y-104300428D01*
X53716666Y-104371857D01*
X53692857Y-104419476D01*
X53669047Y-104443285D01*
X53621428Y-104467095D01*
X53430952Y-104467095D01*
X53907142Y-104252809D02*
X53930952Y-104229000D01*
X53978571Y-104205190D01*
X54097619Y-104205190D01*
X54145238Y-104229000D01*
X54169047Y-104252809D01*
X54192857Y-104300428D01*
X54192857Y-104348047D01*
X54169047Y-104419476D01*
X53883333Y-104705190D01*
X54192857Y-104705190D01*
X86478571Y-102378571D02*
X86454761Y-102402380D01*
X86383333Y-102426190D01*
X86335714Y-102426190D01*
X86264285Y-102402380D01*
X86216666Y-102354761D01*
X86192857Y-102307142D01*
X86169047Y-102211904D01*
X86169047Y-102140476D01*
X86192857Y-102045238D01*
X86216666Y-101997619D01*
X86264285Y-101950000D01*
X86335714Y-101926190D01*
X86383333Y-101926190D01*
X86454761Y-101950000D01*
X86478571Y-101973809D01*
X86954761Y-102426190D02*
X86669047Y-102426190D01*
X86811904Y-102426190D02*
X86811904Y-101926190D01*
X86764285Y-101997619D01*
X86716666Y-102045238D01*
X86669047Y-102069047D01*
X87121428Y-101926190D02*
X87430952Y-101926190D01*
X87264285Y-102116666D01*
X87335714Y-102116666D01*
X87383333Y-102140476D01*
X87407142Y-102164285D01*
X87430952Y-102211904D01*
X87430952Y-102330952D01*
X87407142Y-102378571D01*
X87383333Y-102402380D01*
X87335714Y-102426190D01*
X87192857Y-102426190D01*
X87145238Y-102402380D01*
X87121428Y-102378571D01*
X46206571Y-100978571D02*
X46182761Y-101002380D01*
X46111333Y-101026190D01*
X46063714Y-101026190D01*
X45992285Y-101002380D01*
X45944666Y-100954761D01*
X45920857Y-100907142D01*
X45897047Y-100811904D01*
X45897047Y-100740476D01*
X45920857Y-100645238D01*
X45944666Y-100597619D01*
X45992285Y-100550000D01*
X46063714Y-100526190D01*
X46111333Y-100526190D01*
X46182761Y-100550000D01*
X46206571Y-100573809D01*
X46682761Y-101026190D02*
X46397047Y-101026190D01*
X46539904Y-101026190D02*
X46539904Y-100526190D01*
X46492285Y-100597619D01*
X46444666Y-100645238D01*
X46397047Y-100669047D01*
X46968476Y-100740476D02*
X46920857Y-100716666D01*
X46897047Y-100692857D01*
X46873238Y-100645238D01*
X46873238Y-100621428D01*
X46897047Y-100573809D01*
X46920857Y-100550000D01*
X46968476Y-100526190D01*
X47063714Y-100526190D01*
X47111333Y-100550000D01*
X47135142Y-100573809D01*
X47158952Y-100621428D01*
X47158952Y-100645238D01*
X47135142Y-100692857D01*
X47111333Y-100716666D01*
X47063714Y-100740476D01*
X46968476Y-100740476D01*
X46920857Y-100764285D01*
X46897047Y-100788095D01*
X46873238Y-100835714D01*
X46873238Y-100930952D01*
X46897047Y-100978571D01*
X46920857Y-101002380D01*
X46968476Y-101026190D01*
X47063714Y-101026190D01*
X47111333Y-101002380D01*
X47135142Y-100978571D01*
X47158952Y-100930952D01*
X47158952Y-100835714D01*
X47135142Y-100788095D01*
X47111333Y-100764285D01*
X47063714Y-100740476D01*
X90016666Y-114178571D02*
X89992857Y-114202380D01*
X89921428Y-114226190D01*
X89873809Y-114226190D01*
X89802380Y-114202380D01*
X89754761Y-114154761D01*
X89730952Y-114107142D01*
X89707142Y-114011904D01*
X89707142Y-113940476D01*
X89730952Y-113845238D01*
X89754761Y-113797619D01*
X89802380Y-113750000D01*
X89873809Y-113726190D01*
X89921428Y-113726190D01*
X89992857Y-113750000D01*
X90016666Y-113773809D01*
X90492857Y-114226190D02*
X90207142Y-114226190D01*
X90350000Y-114226190D02*
X90350000Y-113726190D01*
X90302380Y-113797619D01*
X90254761Y-113845238D01*
X90207142Y-113869047D01*
X52519047Y-109326190D02*
X52519047Y-109730952D01*
X52542857Y-109778571D01*
X52566666Y-109802380D01*
X52614285Y-109826190D01*
X52709523Y-109826190D01*
X52757142Y-109802380D01*
X52780952Y-109778571D01*
X52804761Y-109730952D01*
X52804761Y-109326190D01*
X53257142Y-109326190D02*
X53161904Y-109326190D01*
X53114285Y-109350000D01*
X53090476Y-109373809D01*
X53042857Y-109445238D01*
X53019047Y-109540476D01*
X53019047Y-109730952D01*
X53042857Y-109778571D01*
X53066666Y-109802380D01*
X53114285Y-109826190D01*
X53209523Y-109826190D01*
X53257142Y-109802380D01*
X53280952Y-109778571D01*
X53304761Y-109730952D01*
X53304761Y-109611904D01*
X53280952Y-109564285D01*
X53257142Y-109540476D01*
X53209523Y-109516666D01*
X53114285Y-109516666D01*
X53066666Y-109540476D01*
X53042857Y-109564285D01*
X53019047Y-109611904D01*
X53716666Y-103626190D02*
X53550000Y-103388095D01*
X53430952Y-103626190D02*
X53430952Y-103126190D01*
X53621428Y-103126190D01*
X53669047Y-103150000D01*
X53692857Y-103173809D01*
X53716666Y-103221428D01*
X53716666Y-103292857D01*
X53692857Y-103340476D01*
X53669047Y-103364285D01*
X53621428Y-103388095D01*
X53430952Y-103388095D01*
X54169047Y-103126190D02*
X53930952Y-103126190D01*
X53907142Y-103364285D01*
X53930952Y-103340476D01*
X53978571Y-103316666D01*
X54097619Y-103316666D01*
X54145238Y-103340476D01*
X54169047Y-103364285D01*
X54192857Y-103411904D01*
X54192857Y-103530952D01*
X54169047Y-103578571D01*
X54145238Y-103602380D01*
X54097619Y-103626190D01*
X53978571Y-103626190D01*
X53930952Y-103602380D01*
X53907142Y-103578571D01*
X89416666Y-102426190D02*
X89250000Y-102188095D01*
X89130952Y-102426190D02*
X89130952Y-101926190D01*
X89321428Y-101926190D01*
X89369047Y-101950000D01*
X89392857Y-101973809D01*
X89416666Y-102021428D01*
X89416666Y-102092857D01*
X89392857Y-102140476D01*
X89369047Y-102164285D01*
X89321428Y-102188095D01*
X89130952Y-102188095D01*
X89583333Y-101926190D02*
X89892857Y-101926190D01*
X89726190Y-102116666D01*
X89797619Y-102116666D01*
X89845238Y-102140476D01*
X89869047Y-102164285D01*
X89892857Y-102211904D01*
X89892857Y-102330952D01*
X89869047Y-102378571D01*
X89845238Y-102402380D01*
X89797619Y-102426190D01*
X89654761Y-102426190D01*
X89607142Y-102402380D01*
X89583333Y-102378571D01*
X50578571Y-102978571D02*
X50554761Y-103002380D01*
X50483333Y-103026190D01*
X50435714Y-103026190D01*
X50364285Y-103002380D01*
X50316666Y-102954761D01*
X50292857Y-102907142D01*
X50269047Y-102811904D01*
X50269047Y-102740476D01*
X50292857Y-102645238D01*
X50316666Y-102597619D01*
X50364285Y-102550000D01*
X50435714Y-102526190D01*
X50483333Y-102526190D01*
X50554761Y-102550000D01*
X50578571Y-102573809D01*
X51054761Y-103026190D02*
X50769047Y-103026190D01*
X50911904Y-103026190D02*
X50911904Y-102526190D01*
X50864285Y-102597619D01*
X50816666Y-102645238D01*
X50769047Y-102669047D01*
X51221428Y-102526190D02*
X51554761Y-102526190D01*
X51340476Y-103026190D01*
X96116666Y-101526190D02*
X95950000Y-101288095D01*
X95830952Y-101526190D02*
X95830952Y-101026190D01*
X96021428Y-101026190D01*
X96069047Y-101050000D01*
X96092857Y-101073809D01*
X96116666Y-101121428D01*
X96116666Y-101192857D01*
X96092857Y-101240476D01*
X96069047Y-101264285D01*
X96021428Y-101288095D01*
X95830952Y-101288095D01*
X96402380Y-101240476D02*
X96354761Y-101216666D01*
X96330952Y-101192857D01*
X96307142Y-101145238D01*
X96307142Y-101121428D01*
X96330952Y-101073809D01*
X96354761Y-101050000D01*
X96402380Y-101026190D01*
X96497619Y-101026190D01*
X96545238Y-101050000D01*
X96569047Y-101073809D01*
X96592857Y-101121428D01*
X96592857Y-101145238D01*
X96569047Y-101192857D01*
X96545238Y-101216666D01*
X96497619Y-101240476D01*
X96402380Y-101240476D01*
X96354761Y-101264285D01*
X96330952Y-101288095D01*
X96307142Y-101335714D01*
X96307142Y-101430952D01*
X96330952Y-101478571D01*
X96354761Y-101502380D01*
X96402380Y-101526190D01*
X96497619Y-101526190D01*
X96545238Y-101502380D01*
X96569047Y-101478571D01*
X96592857Y-101430952D01*
X96592857Y-101335714D01*
X96569047Y-101288095D01*
X96545238Y-101264285D01*
X96497619Y-101240476D01*
X90520952Y-101526190D02*
X90520952Y-101026190D01*
X90640000Y-101026190D01*
X90711428Y-101050000D01*
X90759047Y-101097619D01*
X90782857Y-101145238D01*
X90806666Y-101240476D01*
X90806666Y-101311904D01*
X90782857Y-101407142D01*
X90759047Y-101454761D01*
X90711428Y-101502380D01*
X90640000Y-101526190D01*
X90520952Y-101526190D01*
X91282857Y-101526190D02*
X90997142Y-101526190D01*
X91140000Y-101526190D02*
X91140000Y-101026190D01*
X91092380Y-101097619D01*
X91044761Y-101145238D01*
X90997142Y-101169047D01*
X96116666Y-102826190D02*
X95950000Y-102588095D01*
X95830952Y-102826190D02*
X95830952Y-102326190D01*
X96021428Y-102326190D01*
X96069047Y-102350000D01*
X96092857Y-102373809D01*
X96116666Y-102421428D01*
X96116666Y-102492857D01*
X96092857Y-102540476D01*
X96069047Y-102564285D01*
X96021428Y-102588095D01*
X95830952Y-102588095D01*
X96545238Y-102326190D02*
X96450000Y-102326190D01*
X96402380Y-102350000D01*
X96378571Y-102373809D01*
X96330952Y-102445238D01*
X96307142Y-102540476D01*
X96307142Y-102730952D01*
X96330952Y-102778571D01*
X96354761Y-102802380D01*
X96402380Y-102826190D01*
X96497619Y-102826190D01*
X96545238Y-102802380D01*
X96569047Y-102778571D01*
X96592857Y-102730952D01*
X96592857Y-102611904D01*
X96569047Y-102564285D01*
X96545238Y-102540476D01*
X96497619Y-102516666D01*
X96402380Y-102516666D01*
X96354761Y-102540476D01*
X96330952Y-102564285D01*
X96307142Y-102611904D01*
X67678571Y-108178571D02*
X67654761Y-108202380D01*
X67583333Y-108226190D01*
X67535714Y-108226190D01*
X67464285Y-108202380D01*
X67416666Y-108154761D01*
X67392857Y-108107142D01*
X67369047Y-108011904D01*
X67369047Y-107940476D01*
X67392857Y-107845238D01*
X67416666Y-107797619D01*
X67464285Y-107750000D01*
X67535714Y-107726190D01*
X67583333Y-107726190D01*
X67654761Y-107750000D01*
X67678571Y-107773809D01*
X68154761Y-108226190D02*
X67869047Y-108226190D01*
X68011904Y-108226190D02*
X68011904Y-107726190D01*
X67964285Y-107797619D01*
X67916666Y-107845238D01*
X67869047Y-107869047D01*
X68464285Y-107726190D02*
X68511904Y-107726190D01*
X68559523Y-107750000D01*
X68583333Y-107773809D01*
X68607142Y-107821428D01*
X68630952Y-107916666D01*
X68630952Y-108035714D01*
X68607142Y-108130952D01*
X68583333Y-108178571D01*
X68559523Y-108202380D01*
X68511904Y-108226190D01*
X68464285Y-108226190D01*
X68416666Y-108202380D01*
X68392857Y-108178571D01*
X68369047Y-108130952D01*
X68345238Y-108035714D01*
X68345238Y-107916666D01*
X68369047Y-107821428D01*
X68392857Y-107773809D01*
X68416666Y-107750000D01*
X68464285Y-107726190D01*
X83616666Y-105678571D02*
X83592857Y-105702380D01*
X83521428Y-105726190D01*
X83473809Y-105726190D01*
X83402380Y-105702380D01*
X83354761Y-105654761D01*
X83330952Y-105607142D01*
X83307142Y-105511904D01*
X83307142Y-105440476D01*
X83330952Y-105345238D01*
X83354761Y-105297619D01*
X83402380Y-105250000D01*
X83473809Y-105226190D01*
X83521428Y-105226190D01*
X83592857Y-105250000D01*
X83616666Y-105273809D01*
X84045238Y-105392857D02*
X84045238Y-105726190D01*
X83926190Y-105202380D02*
X83807142Y-105559523D01*
X84116666Y-105559523D01*
D11*
X56325000Y-102025000D02*
X66075000Y-102025000D01*
X66075000Y-114225000D02*
X66075000Y-102025000D01*
X56325000Y-114225000D02*
X66075000Y-114225000D01*
X56325000Y-102025000D02*
X56325000Y-114225000D01*
X56325000Y-114225000D02*
X56350000Y-114200000D01*
D12*
X71745000Y-109005000D02*
X82025000Y-109005000D01*
X74345000Y-111605000D02*
X71745000Y-111605000D01*
X71745000Y-111605000D02*
X71745000Y-109005000D01*
X74345000Y-114205000D02*
X82025000Y-114205000D01*
X71745000Y-114205000D02*
X71745000Y-112875000D01*
X73075000Y-114205000D02*
X71745000Y-114205000D01*
X82025000Y-114205000D02*
X82025000Y-109005000D01*
X74345000Y-114205000D02*
X74345000Y-111605000D01*
X69446359Y-106630000D02*
X69753641Y-106630000D01*
X69446359Y-105870000D02*
X69753641Y-105870000D01*
X86060000Y-110900000D02*
X86060000Y-111550000D01*
X86060000Y-110900000D02*
X86060000Y-109225000D01*
X82940000Y-110900000D02*
X82940000Y-110250000D01*
X82940000Y-110900000D02*
X82940000Y-111550000D01*
X97100000Y-101950000D02*
X97100000Y-101850000D01*
X97100000Y-103450000D02*
X101500000Y-103450000D01*
X101500000Y-101950000D02*
X101500000Y-101850000D01*
X101500000Y-100350000D02*
X97100000Y-100350000D01*
X95390000Y-106460000D02*
X96990000Y-106460000D01*
X99640000Y-105440000D02*
X95390000Y-105440000D01*
X99640000Y-113560000D02*
X95390000Y-113560000D01*
X95390000Y-105440000D02*
X95390000Y-106460000D01*
X96990000Y-111260000D02*
X94100000Y-111260000D01*
X96990000Y-106460000D02*
X96990000Y-107740000D01*
X103210000Y-111840000D02*
X103210000Y-107160000D01*
X96990000Y-112540000D02*
X96990000Y-111260000D01*
X95390000Y-113560000D02*
X95390000Y-112540000D01*
X95390000Y-112540000D02*
X96990000Y-112540000D01*
X79950000Y-105100000D02*
X79950000Y-100700000D01*
X78350000Y-100700000D02*
X78450000Y-100700000D01*
X78350000Y-105100000D02*
X78450000Y-105100000D01*
X76850000Y-100700000D02*
X76850000Y-105100000D01*
X87870000Y-103411359D02*
X87870000Y-103718641D01*
X88630000Y-103411359D02*
X88630000Y-103718641D01*
X51888000Y-105892164D02*
X51888000Y-106107836D01*
X51168000Y-105892164D02*
X51168000Y-106107836D01*
X52096359Y-104859000D02*
X52403641Y-104859000D01*
X52096359Y-104099000D02*
X52403641Y-104099000D01*
X87360000Y-103457164D02*
X87360000Y-103672836D01*
X86640000Y-103457164D02*
X86640000Y-103672836D01*
X46420164Y-102110000D02*
X46635836Y-102110000D01*
X46420164Y-101390000D02*
X46635836Y-101390000D01*
X88404437Y-112260000D02*
X89040000Y-112260000D01*
X91795563Y-112260000D02*
X91160000Y-112260000D01*
X88415000Y-113125000D02*
X88415000Y-112500000D01*
X92860000Y-111195563D02*
X92860000Y-106740000D01*
X91795563Y-112260000D02*
X92860000Y-111195563D01*
X92860000Y-106740000D02*
X91160000Y-106740000D01*
X87340000Y-106740000D02*
X89040000Y-106740000D01*
X88102500Y-112812500D02*
X88727500Y-112812500D01*
X88404437Y-112260000D02*
X87340000Y-111195563D01*
X87340000Y-111195563D02*
X87340000Y-106740000D01*
X54600000Y-110195000D02*
X52700000Y-110195000D01*
X53200000Y-112515000D02*
X54600000Y-112515000D01*
D13*
X50053000Y-103000000D02*
X50053000Y-103730000D01*
X50053000Y-111270000D02*
X50053000Y-112000000D01*
X50053000Y-112000000D02*
X48373000Y-112000000D01*
X48373000Y-103000000D02*
X50053000Y-103000000D01*
D14*
X46378000Y-103900000D02*
G75*
G03*
X46378000Y-103900000I-100000J0D01*
G01*
D12*
X52096359Y-103835000D02*
X52403641Y-103835000D01*
X52096359Y-103075000D02*
X52403641Y-103075000D01*
X74557500Y-104450000D02*
X73957500Y-104450000D01*
X75257500Y-101000000D02*
X75257500Y-103800000D01*
X73257500Y-103800000D02*
X73257500Y-101000000D01*
X75757500Y-103900000D02*
X75757500Y-103300000D01*
X75457500Y-103600000D02*
X75757500Y-103300000D01*
X73957500Y-100350000D02*
X74557500Y-100350000D01*
X75457500Y-103600000D02*
X75757500Y-103900000D01*
X74557500Y-104450000D02*
G75*
G03*
X75257500Y-103750000I1J699999D01*
G01*
X73957500Y-100350000D02*
G75*
G03*
X73257500Y-101050000I0J-700000D01*
G01*
X75257500Y-101050000D02*
G75*
G03*
X74557500Y-100350000I-700000J0D01*
G01*
X73257500Y-103750000D02*
G75*
G03*
X73957500Y-104450000I699999J-1D01*
G01*
X89120000Y-103718641D02*
X89120000Y-103411359D01*
X89880000Y-103718641D02*
X89880000Y-103411359D01*
X69917470Y-100540000D02*
X69262530Y-100540000D01*
X71355000Y-100540000D02*
X70532530Y-100540000D01*
X69465000Y-103068471D02*
X69465000Y-103211529D01*
X67825000Y-104470000D02*
X67825000Y-100540000D01*
X71355000Y-103015000D02*
X71355000Y-100540000D01*
X68647470Y-100540000D02*
X67825000Y-100540000D01*
X69465000Y-104470000D02*
X69262530Y-104470000D01*
X69661529Y-103015000D02*
X69518471Y-103015000D01*
X71355000Y-103015000D02*
X70788471Y-103015000D01*
X71355000Y-103775000D02*
X71355000Y-104535000D01*
X68647470Y-104470000D02*
X67825000Y-104470000D01*
X69465000Y-104338471D02*
X69465000Y-104470000D01*
X71355000Y-104535000D02*
X70225000Y-104535000D01*
X50789252Y-102235000D02*
X50266748Y-102235000D01*
X50789252Y-100765000D02*
X50266748Y-100765000D01*
X94953641Y-101680000D02*
X94646359Y-101680000D01*
X94953641Y-100920000D02*
X94646359Y-100920000D01*
X91585000Y-101395000D02*
X91585000Y-103855000D01*
X91585000Y-103855000D02*
X93055000Y-103855000D01*
X93055000Y-103855000D02*
X93055000Y-101395000D01*
X94953641Y-102980000D02*
X94646359Y-102980000D01*
X94953641Y-102220000D02*
X94646359Y-102220000D01*
X68310000Y-109242164D02*
X68310000Y-109457836D01*
X67590000Y-109242164D02*
X67590000Y-109457836D01*
X83438748Y-106165000D02*
X83961252Y-106165000D01*
X83438748Y-107635000D02*
X83961252Y-107635000D01*
M02*
