G04 #@! TF.GenerationSoftware,KiCad,Pcbnew,7.0.6*
G04 #@! TF.CreationDate,2024-03-12T10:09:57+11:00*
G04 #@! TF.ProjectId,owts,6f777473-2e6b-4696-9361-645f70636258,1.2.0*
G04 #@! TF.SameCoordinates,Original*
G04 #@! TF.FileFunction,Copper,L1,Top*
G04 #@! TF.FilePolarity,Positive*
%FSLAX46Y46*%
G04 Gerber Fmt 4.6, Leading zero omitted, Abs format (unit mm)*
G04 Created by KiCad (PCBNEW 7.0.6) date 2024-03-12 10:09:57*
%MOMM*%
%LPD*%
G01*
G04 APERTURE LIST*
G04 Aperture macros list*
%AMRoundRect*
0 Rectangle with rounded corners*
0 $1 Rounding radius*
0 $2 $3 $4 $5 $6 $7 $8 $9 X,Y pos of 4 corners*
0 Add a 4 corners polygon primitive as box body*
4,1,4,$2,$3,$4,$5,$6,$7,$8,$9,$2,$3,0*
0 Add four circle primitives for the rounded corners*
1,1,$1+$1,$2,$3*
1,1,$1+$1,$4,$5*
1,1,$1+$1,$6,$7*
1,1,$1+$1,$8,$9*
0 Add four rect primitives between the rounded corners*
20,1,$1+$1,$2,$3,$4,$5,0*
20,1,$1+$1,$4,$5,$6,$7,0*
20,1,$1+$1,$6,$7,$8,$9,0*
20,1,$1+$1,$8,$9,$2,$3,0*%
%AMFreePoly0*
4,1,19,0.550000,-0.750000,0.000000,-0.750000,0.000000,-0.744911,-0.071157,-0.744911,-0.207708,-0.704816,-0.327430,-0.627875,-0.420627,-0.520320,-0.479746,-0.390866,-0.500000,-0.250000,-0.500000,0.250000,-0.479746,0.390866,-0.420627,0.520320,-0.327430,0.627875,-0.207708,0.704816,-0.071157,0.744911,0.000000,0.744911,0.000000,0.750000,0.550000,0.750000,0.550000,-0.750000,0.550000,-0.750000,
$1*%
%AMFreePoly1*
4,1,19,0.000000,0.744911,0.071157,0.744911,0.207708,0.704816,0.327430,0.627875,0.420627,0.520320,0.479746,0.390866,0.500000,0.250000,0.500000,-0.250000,0.479746,-0.390866,0.420627,-0.520320,0.327430,-0.627875,0.207708,-0.704816,0.071157,-0.744911,0.000000,-0.744911,0.000000,-0.750000,-0.550000,-0.750000,-0.550000,0.750000,0.000000,0.750000,0.000000,0.744911,0.000000,0.744911,
$1*%
G04 Aperture macros list end*
G04 #@! TA.AperFunction,SMDPad,CuDef*
%ADD10RoundRect,0.200000X-0.200000X-0.275000X0.200000X-0.275000X0.200000X0.275000X-0.200000X0.275000X0*%
G04 #@! TD*
G04 #@! TA.AperFunction,SMDPad,CuDef*
%ADD11R,1.250000X1.600000*%
G04 #@! TD*
G04 #@! TA.AperFunction,ConnectorPad*
%ADD12R,1.000000X0.800000*%
G04 #@! TD*
G04 #@! TA.AperFunction,ConnectorPad*
%ADD13R,1.000000X2.300000*%
G04 #@! TD*
G04 #@! TA.AperFunction,ConnectorPad*
%ADD14R,1.100000X1.300000*%
G04 #@! TD*
G04 #@! TA.AperFunction,ComponentPad*
%ADD15R,1.700000X1.700000*%
G04 #@! TD*
G04 #@! TA.AperFunction,ComponentPad*
%ADD16O,1.700000X1.700000*%
G04 #@! TD*
G04 #@! TA.AperFunction,SMDPad,CuDef*
%ADD17RoundRect,0.135000X-0.135000X-0.185000X0.135000X-0.185000X0.135000X0.185000X-0.135000X0.185000X0*%
G04 #@! TD*
G04 #@! TA.AperFunction,SMDPad,CuDef*
%ADD18RoundRect,0.150000X-0.150000X0.587500X-0.150000X-0.587500X0.150000X-0.587500X0.150000X0.587500X0*%
G04 #@! TD*
G04 #@! TA.AperFunction,SMDPad,CuDef*
%ADD19R,0.900000X1.000000*%
G04 #@! TD*
G04 #@! TA.AperFunction,SMDPad,CuDef*
%ADD20RoundRect,0.250000X1.500000X-0.250000X1.500000X0.250000X-1.500000X0.250000X-1.500000X-0.250000X0*%
G04 #@! TD*
G04 #@! TA.AperFunction,SMDPad,CuDef*
%ADD21RoundRect,0.250001X1.449999X-0.499999X1.449999X0.499999X-1.449999X0.499999X-1.449999X-0.499999X0*%
G04 #@! TD*
G04 #@! TA.AperFunction,SMDPad,CuDef*
%ADD22R,1.000000X0.900000*%
G04 #@! TD*
G04 #@! TA.AperFunction,SMDPad,CuDef*
%ADD23RoundRect,0.140000X-0.170000X0.140000X-0.170000X-0.140000X0.170000X-0.140000X0.170000X0.140000X0*%
G04 #@! TD*
G04 #@! TA.AperFunction,SMDPad,CuDef*
%ADD24RoundRect,0.140000X-0.140000X-0.170000X0.140000X-0.170000X0.140000X0.170000X-0.140000X0.170000X0*%
G04 #@! TD*
G04 #@! TA.AperFunction,SMDPad,CuDef*
%ADD25RoundRect,0.250000X0.550000X-1.250000X0.550000X1.250000X-0.550000X1.250000X-0.550000X-1.250000X0*%
G04 #@! TD*
G04 #@! TA.AperFunction,SMDPad,CuDef*
%ADD26R,0.650000X0.400000*%
G04 #@! TD*
G04 #@! TA.AperFunction,SMDPad,CuDef*
%ADD27FreePoly0,90.000000*%
G04 #@! TD*
G04 #@! TA.AperFunction,SMDPad,CuDef*
%ADD28R,1.500000X1.000000*%
G04 #@! TD*
G04 #@! TA.AperFunction,SMDPad,CuDef*
%ADD29FreePoly1,90.000000*%
G04 #@! TD*
G04 #@! TA.AperFunction,ComponentPad*
%ADD30R,1.000000X1.000000*%
G04 #@! TD*
G04 #@! TA.AperFunction,ComponentPad*
%ADD31O,1.000000X1.000000*%
G04 #@! TD*
G04 #@! TA.AperFunction,SMDPad,CuDef*
%ADD32RoundRect,0.250000X0.250000X0.475000X-0.250000X0.475000X-0.250000X-0.475000X0.250000X-0.475000X0*%
G04 #@! TD*
G04 #@! TA.AperFunction,SMDPad,CuDef*
%ADD33RoundRect,0.135000X0.135000X0.185000X-0.135000X0.185000X-0.135000X-0.185000X0.135000X-0.185000X0*%
G04 #@! TD*
G04 #@! TA.AperFunction,SMDPad,CuDef*
%ADD34RoundRect,0.237500X0.237500X-0.287500X0.237500X0.287500X-0.237500X0.287500X-0.237500X-0.287500X0*%
G04 #@! TD*
G04 #@! TA.AperFunction,SMDPad,CuDef*
%ADD35RoundRect,0.250000X-0.250000X-0.475000X0.250000X-0.475000X0.250000X0.475000X-0.250000X0.475000X0*%
G04 #@! TD*
G04 #@! TA.AperFunction,SMDPad,CuDef*
%ADD36R,0.800000X0.300000*%
G04 #@! TD*
G04 #@! TA.AperFunction,SMDPad,CuDef*
%ADD37R,0.650000X0.300000*%
G04 #@! TD*
G04 #@! TA.AperFunction,SMDPad,CuDef*
%ADD38R,0.950000X0.400000*%
G04 #@! TD*
G04 #@! TA.AperFunction,ViaPad*
%ADD39C,0.500000*%
G04 #@! TD*
G04 #@! TA.AperFunction,ViaPad*
%ADD40C,0.300000*%
G04 #@! TD*
G04 #@! TA.AperFunction,ViaPad*
%ADD41C,0.600000*%
G04 #@! TD*
G04 #@! TA.AperFunction,Conductor*
%ADD42C,0.160000*%
G04 #@! TD*
G04 #@! TA.AperFunction,Conductor*
%ADD43C,0.400000*%
G04 #@! TD*
G04 #@! TA.AperFunction,Conductor*
%ADD44C,0.600000*%
G04 #@! TD*
G04 #@! TA.AperFunction,Conductor*
%ADD45C,0.300000*%
G04 #@! TD*
G04 APERTURE END LIST*
G04 #@! TA.AperFunction,EtchedComponent*
G36*
X74400000Y-103300000D02*
G01*
X73800000Y-103300000D01*
X73800000Y-102800000D01*
X74400000Y-102800000D01*
X74400000Y-103300000D01*
G37*
G04 #@! TD.AperFunction*
D10*
X29175000Y-112500000D03*
X30825000Y-112500000D03*
X29175000Y-107500000D03*
X30825000Y-107500000D03*
X29175000Y-102500000D03*
X30825000Y-102500000D03*
D11*
X26680000Y-112500000D03*
X24920000Y-112500000D03*
X26680000Y-107500000D03*
X24920000Y-107500000D03*
X26680000Y-102500000D03*
X24920000Y-102500000D03*
D12*
X66000000Y-109850000D03*
X66000000Y-108650000D03*
X56300000Y-109850000D03*
D13*
X56300000Y-105500000D03*
X56300000Y-112700000D03*
X66000000Y-105500000D03*
D12*
X66000000Y-107450000D03*
D13*
X66100000Y-112700000D03*
D12*
X56300000Y-108650000D03*
X56300000Y-107450000D03*
D14*
X59295000Y-102135000D03*
X63105000Y-102135000D03*
D15*
X73075000Y-112875000D03*
D16*
X73075000Y-110335000D03*
X75615000Y-112875000D03*
X75615000Y-110335000D03*
X78155000Y-112875000D03*
X78155000Y-110335000D03*
X80695000Y-112875000D03*
X80695000Y-110335000D03*
D17*
X69090000Y-106250000D03*
X70110000Y-106250000D03*
D18*
X85450000Y-109962500D03*
X83550000Y-109962500D03*
X84500000Y-111837500D03*
D19*
X97250000Y-101100000D03*
X101350000Y-101100000D03*
X101350000Y-102700000D03*
X97250000Y-102700000D03*
D20*
X95850000Y-110500000D03*
X95850000Y-108500000D03*
D21*
X101600000Y-106150000D03*
X101600000Y-112850000D03*
D22*
X79200000Y-100850000D03*
X79200000Y-104950000D03*
X77600000Y-104950000D03*
X77600000Y-100850000D03*
D23*
X51528000Y-105520000D03*
X51528000Y-106480000D03*
D17*
X51740000Y-104479000D03*
X52760000Y-104479000D03*
D24*
X46048000Y-101750000D03*
X47008000Y-101750000D03*
D25*
X90100000Y-111700000D03*
X90100000Y-107300000D03*
D26*
X52950000Y-110705000D03*
X52950000Y-111355000D03*
X52950000Y-112005000D03*
X54850000Y-112005000D03*
X54850000Y-110705000D03*
D17*
X51740000Y-103455000D03*
X52760000Y-103455000D03*
D27*
X74100000Y-103700000D03*
D28*
X74100000Y-102400000D03*
D29*
X74100000Y-101100000D03*
D30*
X70225000Y-103775000D03*
D31*
X68955000Y-103775000D03*
X70225000Y-102505000D03*
X68955000Y-102505000D03*
X70225000Y-101235000D03*
X68955000Y-101235000D03*
D32*
X51478000Y-101500000D03*
X49578000Y-101500000D03*
D33*
X95310000Y-101300000D03*
X94290000Y-101300000D03*
D34*
X92320000Y-103070000D03*
X92320000Y-101320000D03*
D33*
X95310000Y-102600000D03*
X94290000Y-102600000D03*
D23*
X67950000Y-108870000D03*
X67950000Y-109830000D03*
D35*
X82750000Y-106900000D03*
X84650000Y-106900000D03*
D36*
X47303000Y-103900000D03*
D37*
X50178000Y-104200000D03*
D36*
X47303000Y-104500000D03*
D37*
X50178000Y-104800000D03*
D36*
X47303000Y-105100000D03*
D37*
X50178000Y-105400000D03*
D36*
X47303000Y-105700000D03*
D37*
X50178000Y-106000000D03*
D36*
X47303000Y-106300000D03*
D37*
X50178000Y-106600000D03*
D36*
X47303000Y-106900000D03*
D37*
X50178000Y-107200000D03*
D36*
X47303000Y-107500000D03*
D37*
X50178000Y-107800000D03*
D36*
X47303000Y-108100000D03*
D37*
X50178000Y-108400000D03*
D36*
X47303000Y-108700000D03*
D37*
X50178000Y-109000000D03*
D36*
X47303000Y-109300000D03*
D37*
X50178000Y-109600000D03*
D36*
X47303000Y-109900000D03*
D37*
X50178000Y-110200000D03*
D36*
X47303000Y-110500000D03*
D37*
X50178000Y-110800000D03*
D36*
X47303000Y-111100000D03*
D38*
X47578000Y-103200000D03*
X47578000Y-111800000D03*
D39*
X27750000Y-111000000D03*
D40*
X51500000Y-113750000D03*
X55450000Y-113550000D03*
X54250000Y-113200000D03*
D39*
X30825000Y-109125000D03*
D40*
X48825000Y-107075000D03*
X48750000Y-106300000D03*
X53190000Y-103715000D03*
X46740000Y-107505000D03*
X53000000Y-105250000D03*
X62675000Y-111655000D03*
X48750000Y-105250000D03*
X59960000Y-111895000D03*
X51100000Y-107250000D03*
D39*
X59410000Y-113485000D03*
X60250000Y-113265000D03*
X61000000Y-104225000D03*
X48777502Y-107850000D03*
X60980000Y-103505000D03*
X60240000Y-103385000D03*
X48756694Y-108572751D03*
X59720000Y-101035000D03*
X59450000Y-103375000D03*
X48777502Y-109400000D03*
X58025000Y-101305000D03*
X57539058Y-101844058D03*
D40*
X49250000Y-105000000D03*
D39*
X48775000Y-110175000D03*
X58219495Y-101985505D03*
X40400000Y-101805000D03*
X56421558Y-105501558D03*
X41200000Y-106405000D03*
X55000000Y-109005000D03*
X55225000Y-101505000D03*
D41*
X97225000Y-113355000D03*
D39*
X48100000Y-101400000D03*
X55836667Y-111879500D03*
X45600000Y-109405000D03*
D41*
X63747086Y-103224968D03*
D40*
X58730000Y-113195000D03*
D41*
X100125000Y-101105000D03*
X97525000Y-104955000D03*
D39*
X41800000Y-101805000D03*
D41*
X63475156Y-111780000D03*
X67050000Y-108580000D03*
D39*
X52700000Y-106500000D03*
X43600000Y-101805000D03*
D41*
X84700000Y-108400000D03*
X72100000Y-105445500D03*
D39*
X62596800Y-109003200D03*
X39400000Y-104605000D03*
X35600000Y-101205000D03*
X64475000Y-107855000D03*
X39400000Y-101205000D03*
X45600000Y-106405000D03*
X41200000Y-109405000D03*
D41*
X91240000Y-103075000D03*
X86300000Y-113100000D03*
D39*
X44600000Y-106405000D03*
X52748500Y-101745000D03*
X44600000Y-109405000D03*
X35600000Y-104605000D03*
X40400000Y-103805000D03*
D41*
X79200000Y-102175000D03*
X87510000Y-109695000D03*
D39*
X41800000Y-103805000D03*
X46766652Y-111742471D03*
D41*
X75650000Y-104365000D03*
X51478000Y-101365000D03*
X82750000Y-108200000D03*
D39*
X62600000Y-107900000D03*
X45200000Y-101805000D03*
D41*
X80620000Y-100935000D03*
D40*
X48800000Y-113700000D03*
D39*
X65050000Y-109900000D03*
D40*
X59000000Y-110415000D03*
D41*
X61880000Y-113445000D03*
X62169049Y-101254581D03*
D40*
X57230540Y-112998428D03*
X57730000Y-113005000D03*
D39*
X53220000Y-113264500D03*
X87350000Y-106309500D03*
X52598561Y-113453356D03*
X85875000Y-106830000D03*
X86700000Y-106880000D03*
X51982673Y-113247115D03*
X85867959Y-105805500D03*
D40*
X51300000Y-111995000D03*
D39*
X50530000Y-101465000D03*
X75600000Y-103100000D03*
X52470000Y-100905000D03*
X65400000Y-101204500D03*
X72610000Y-100965000D03*
X76690000Y-104025000D03*
D40*
X53950000Y-100830000D03*
X44000000Y-103605000D03*
X54420000Y-103155000D03*
X58610000Y-110035000D03*
X50730000Y-112065000D03*
D39*
X64475000Y-109430000D03*
D40*
X50700000Y-113065000D03*
X48406594Y-113250000D03*
X53847198Y-113495388D03*
D39*
X69897645Y-107427645D03*
X69200000Y-107700000D03*
D41*
X76820000Y-103085000D03*
D40*
X59730000Y-112915000D03*
X68600000Y-110550000D03*
X65250000Y-110550000D03*
D39*
X77460000Y-103845000D03*
D40*
X58230000Y-112830000D03*
D42*
X72092355Y-111600000D02*
X74340000Y-111600000D01*
X74340000Y-111600000D02*
X75615000Y-112875000D01*
X69090000Y-108597645D02*
X72092355Y-111600000D01*
X51643946Y-112745000D02*
X53718406Y-112745000D01*
X54458406Y-112005000D02*
X54850000Y-112005000D01*
X50688946Y-113700000D02*
X51643946Y-112745000D01*
X53718406Y-112745000D02*
X54458406Y-112005000D01*
X48800000Y-113700000D02*
X50688946Y-113700000D01*
X48150000Y-103900000D02*
X47303000Y-103900000D01*
X49250000Y-105000000D02*
X48150000Y-103900000D01*
X48600000Y-105100000D02*
X47303000Y-105100000D01*
X48750000Y-105250000D02*
X48600000Y-105100000D01*
X52760000Y-105010000D02*
X53000000Y-105250000D01*
X52760000Y-104479000D02*
X52760000Y-105010000D01*
D43*
X30825000Y-112500000D02*
X30825000Y-109125000D01*
X30825000Y-109125000D02*
X30825000Y-107500000D01*
D44*
X24920000Y-113470000D02*
X24920000Y-112500000D01*
X25550000Y-114100000D02*
X24920000Y-113470000D01*
X31000000Y-114100000D02*
X25550000Y-114100000D01*
X34950000Y-110150000D02*
X31000000Y-114100000D01*
X37250000Y-110150000D02*
X34950000Y-110150000D01*
X41500000Y-114400000D02*
X37250000Y-110150000D01*
X60925000Y-114400000D02*
X41500000Y-114400000D01*
X61880000Y-113445000D02*
X60925000Y-114400000D01*
D42*
X52210000Y-110705000D02*
X52950000Y-110705000D01*
X48406594Y-113250000D02*
X50461594Y-111195000D01*
X50461594Y-111195000D02*
X51720000Y-111195000D01*
X51720000Y-111195000D02*
X52210000Y-110705000D01*
X48373015Y-106300000D02*
X48750000Y-106300000D01*
X47303000Y-106300000D02*
X48373015Y-106300000D01*
X48650000Y-106900000D02*
X47303000Y-106900000D01*
X48825000Y-107075000D02*
X48650000Y-106900000D01*
D43*
X30825000Y-107500000D02*
X30825000Y-102500000D01*
X26680000Y-102500000D02*
X29175000Y-102500000D01*
X29175000Y-107500000D02*
X26680000Y-107500000D01*
X26680000Y-112500000D02*
X29175000Y-112500000D01*
X24920000Y-107500000D02*
X24920000Y-112500000D01*
X24920000Y-102500000D02*
X24920000Y-107500000D01*
D42*
X95310000Y-103416594D02*
X95310000Y-102600000D01*
X94581594Y-104145000D02*
X95310000Y-103416594D01*
X85561594Y-104145000D02*
X94581594Y-104145000D01*
X84581594Y-105125000D02*
X85561594Y-104145000D01*
X81061594Y-105125000D02*
X84581594Y-105125000D01*
X79121594Y-107065000D02*
X81061594Y-105125000D01*
X69427645Y-107927645D02*
X70104752Y-107927645D01*
X70104752Y-107927645D02*
X70967397Y-107065000D01*
X69200000Y-107700000D02*
X69427645Y-107927645D01*
X70967397Y-107065000D02*
X79121594Y-107065000D01*
X53470000Y-103995000D02*
X53190000Y-103715000D01*
X52496376Y-107800000D02*
X53470000Y-106826376D01*
X52930000Y-103455000D02*
X53190000Y-103715000D01*
X53470000Y-106826376D02*
X53470000Y-103995000D01*
X50178000Y-107800000D02*
X52496376Y-107800000D01*
X46745000Y-107500000D02*
X46740000Y-107505000D01*
X47303000Y-107500000D02*
X46745000Y-107500000D01*
X51100000Y-107250000D02*
X50450000Y-106600000D01*
X50450000Y-106600000D02*
X50178000Y-106600000D01*
X48527502Y-108100000D02*
X48777502Y-107850000D01*
X47303000Y-108100000D02*
X48527502Y-108100000D01*
X60165000Y-100380000D02*
X60980000Y-101195000D01*
X56340000Y-101488188D02*
X57448188Y-100380000D01*
X60980000Y-101195000D02*
X60980000Y-103505000D01*
X53780000Y-104539782D02*
X56340000Y-101979782D01*
X53780000Y-106954782D02*
X53780000Y-104539782D01*
X52334782Y-108400000D02*
X53780000Y-106954782D01*
X56340000Y-101979782D02*
X56340000Y-101488188D01*
X50178000Y-108400000D02*
X52334782Y-108400000D01*
X57448188Y-100380000D02*
X60165000Y-100380000D01*
X48629445Y-108700000D02*
X47303000Y-108700000D01*
X48756694Y-108572751D02*
X48629445Y-108700000D01*
X59479500Y-100794500D02*
X57472094Y-100794500D01*
X52173188Y-109000000D02*
X50178000Y-109000000D01*
X54090000Y-107083188D02*
X52173188Y-109000000D01*
X56670000Y-101596594D02*
X56670000Y-102088188D01*
X54090000Y-104668188D02*
X54090000Y-107083188D01*
X57472094Y-100794500D02*
X56670000Y-101596594D01*
X56670000Y-102088188D02*
X54090000Y-104668188D01*
X59720000Y-101035000D02*
X59479500Y-100794500D01*
X48777502Y-109400000D02*
X48677502Y-109300000D01*
X48677502Y-109300000D02*
X47303000Y-109300000D01*
X54400000Y-107211594D02*
X52011594Y-109600000D01*
X52011594Y-109600000D02*
X50178000Y-109600000D01*
X57400000Y-101305000D02*
X57000000Y-101705000D01*
X57000000Y-102196594D02*
X54400000Y-104796594D01*
X58025000Y-101305000D02*
X57400000Y-101305000D01*
X57000000Y-101705000D02*
X57000000Y-102196594D01*
X54400000Y-104796594D02*
X54400000Y-107211594D01*
X54710000Y-104925000D02*
X54710000Y-107340000D01*
X57539058Y-101844058D02*
X57539058Y-102095942D01*
X51850000Y-110200000D02*
X50178000Y-110200000D01*
X54710000Y-107340000D02*
X51850000Y-110200000D01*
X57539058Y-102095942D02*
X54710000Y-104925000D01*
X48500000Y-109900000D02*
X47303000Y-109900000D01*
X48775000Y-110175000D02*
X48500000Y-109900000D01*
X53600000Y-110405000D02*
X55000000Y-109005000D01*
X52950000Y-111355000D02*
X53490000Y-111355000D01*
X67050000Y-107775000D02*
X67050000Y-108575000D01*
D45*
X51528000Y-106480000D02*
X51315000Y-106480000D01*
X49685000Y-106000000D02*
X50178000Y-106000000D01*
D44*
X85450000Y-109150000D02*
X84700000Y-108400000D01*
D42*
X67205000Y-108730000D02*
X67345000Y-108870000D01*
D45*
X47435000Y-101750000D02*
X47785000Y-101400000D01*
X47008000Y-102103000D02*
X47578000Y-102673000D01*
D44*
X85450000Y-109962500D02*
X85450000Y-109150000D01*
D45*
X50835000Y-106000000D02*
X50178000Y-106000000D01*
D44*
X90100000Y-107300000D02*
X87800000Y-107300000D01*
X93700000Y-108500000D02*
X92500000Y-107300000D01*
D45*
X47008000Y-101750000D02*
X47435000Y-101750000D01*
X47008000Y-101750000D02*
X47008000Y-102103000D01*
D42*
X67200000Y-108730000D02*
X67205000Y-108730000D01*
X97250000Y-101100000D02*
X99975000Y-101100000D01*
X79200000Y-102175000D02*
X79200000Y-100850000D01*
X79200000Y-102175000D02*
X79200000Y-104950000D01*
X53600000Y-111245000D02*
X53600000Y-110405000D01*
D44*
X86700000Y-108400000D02*
X84700000Y-108400000D01*
D42*
X46824181Y-111800000D02*
X47578000Y-111800000D01*
D45*
X48100000Y-101400000D02*
X49478000Y-101400000D01*
D42*
X67345000Y-108870000D02*
X67950000Y-108870000D01*
X67050000Y-108575000D02*
X67205000Y-108730000D01*
D45*
X52680000Y-106480000D02*
X52700000Y-106500000D01*
D42*
X63475156Y-111780000D02*
X64395156Y-112700000D01*
X64395156Y-112700000D02*
X66100000Y-112700000D01*
D45*
X49417708Y-106807291D02*
X49417708Y-106267292D01*
D42*
X91245000Y-103080000D02*
X92310000Y-103080000D01*
D45*
X49417708Y-106267292D02*
X49685000Y-106000000D01*
D42*
X53490000Y-111355000D02*
X53600000Y-111245000D01*
X91240000Y-103075000D02*
X91245000Y-103080000D01*
D45*
X51315000Y-106480000D02*
X50835000Y-106000000D01*
X50178000Y-107200000D02*
X49810417Y-107200000D01*
X47578000Y-102673000D02*
X47578000Y-103200000D01*
D44*
X92500000Y-107300000D02*
X90100000Y-107300000D01*
D42*
X46766652Y-111742471D02*
X46824181Y-111800000D01*
D44*
X95850000Y-108500000D02*
X93700000Y-108500000D01*
D42*
X66000000Y-107450000D02*
X66000000Y-105500000D01*
D45*
X47785000Y-101400000D02*
X48100000Y-101400000D01*
X49810417Y-107200000D02*
X49417708Y-106807291D01*
D44*
X84700000Y-108400000D02*
X84700000Y-106950000D01*
D42*
X67050000Y-108580000D02*
X67200000Y-108730000D01*
X66725000Y-107450000D02*
X67050000Y-107775000D01*
X99975000Y-101100000D02*
X101350000Y-101100000D01*
D45*
X51528000Y-106480000D02*
X52680000Y-106480000D01*
D44*
X87800000Y-107300000D02*
X86700000Y-108400000D01*
D42*
X66000000Y-107450000D02*
X66725000Y-107450000D01*
D45*
X51528000Y-105157000D02*
X51740000Y-104945000D01*
X51740000Y-104479000D02*
X51740000Y-103455000D01*
X46048000Y-105183000D02*
X46048000Y-101750000D01*
X51740000Y-103455000D02*
X51740000Y-103115000D01*
D43*
X74922500Y-104365000D02*
X74257500Y-103700000D01*
D45*
X51478000Y-100948000D02*
X50980000Y-100450000D01*
D44*
X83550000Y-108950000D02*
X83550000Y-109962500D01*
X82750000Y-108200000D02*
X82800000Y-108200000D01*
D45*
X50980000Y-100450000D02*
X46905000Y-100450000D01*
D44*
X82800000Y-108200000D02*
X83550000Y-108950000D01*
D45*
X51740000Y-104945000D02*
X51740000Y-104479000D01*
X51528000Y-105520000D02*
X51528000Y-105157000D01*
D43*
X75650000Y-104365000D02*
X74922500Y-104365000D01*
D45*
X47303000Y-105700000D02*
X46565000Y-105700000D01*
X46905000Y-100450000D02*
X46048000Y-101307000D01*
X50925000Y-105400000D02*
X51045000Y-105520000D01*
D44*
X82750000Y-108200000D02*
X82750000Y-106900000D01*
D45*
X51045000Y-105520000D02*
X51528000Y-105520000D01*
X46565000Y-105700000D02*
X46048000Y-105183000D01*
X46048000Y-101307000D02*
X46048000Y-101750000D01*
X51478000Y-102853000D02*
X51478000Y-101500000D01*
X50178000Y-105400000D02*
X50925000Y-105400000D01*
X51740000Y-103115000D02*
X51478000Y-102853000D01*
D42*
X59000000Y-110415000D02*
X58165000Y-111250000D01*
X55625000Y-111250000D02*
X54870000Y-112005000D01*
X65050000Y-109900000D02*
X65950000Y-109900000D01*
X58165000Y-111250000D02*
X55625000Y-111250000D01*
X66000000Y-109850000D02*
X67930000Y-109850000D01*
D44*
X80695000Y-112875000D02*
X79170000Y-114400000D01*
X84500000Y-111837500D02*
X89962500Y-111837500D01*
X95850000Y-110500000D02*
X93500000Y-110500000D01*
X61880000Y-113445000D02*
X61876800Y-113441800D01*
X62835000Y-114400000D02*
X78500000Y-114400000D01*
X84500000Y-111837500D02*
X81732500Y-111837500D01*
X92300000Y-111700000D02*
X90100000Y-111700000D01*
X81732500Y-111837500D02*
X80695000Y-112875000D01*
X61876800Y-113441800D02*
X61876800Y-101546830D01*
X61880000Y-113445000D02*
X62835000Y-114400000D01*
X79170000Y-114400000D02*
X78500000Y-114400000D01*
X61876800Y-101546830D02*
X62169049Y-101254581D01*
X93500000Y-110500000D02*
X92300000Y-111700000D01*
D42*
X65400000Y-101204500D02*
X66169500Y-100435000D01*
X66169500Y-100435000D02*
X72080000Y-100435000D01*
X72080000Y-100435000D02*
X72610000Y-100965000D01*
X68500000Y-108007645D02*
X69090000Y-108597645D01*
X69450000Y-108237645D02*
X69090000Y-108597645D01*
X68500000Y-106840000D02*
X68500000Y-108007645D01*
X85690000Y-104455000D02*
X84710000Y-105435000D01*
X79250000Y-107375000D02*
X71225000Y-107375000D01*
X84710000Y-105435000D02*
X81190000Y-105435000D01*
X96465000Y-102700000D02*
X94710000Y-104455000D01*
X81190000Y-105435000D02*
X79250000Y-107375000D01*
X71225000Y-107375000D02*
X70362355Y-108237645D01*
X94710000Y-104455000D02*
X85690000Y-104455000D01*
X70362355Y-108237645D02*
X69450000Y-108237645D01*
X68500000Y-106840000D02*
X69090000Y-106250000D01*
X101350000Y-102700000D02*
X97250000Y-102700000D01*
X97250000Y-102700000D02*
X96465000Y-102700000D01*
X71440000Y-105055000D02*
X71440000Y-103045000D01*
X70900000Y-102505000D02*
X70225000Y-102505000D01*
X71440000Y-103045000D02*
X70900000Y-102505000D01*
X70110000Y-106250000D02*
X70245000Y-106250000D01*
X70245000Y-106250000D02*
X71440000Y-105055000D01*
X54428406Y-110705000D02*
X54850000Y-110705000D01*
X57920000Y-110725000D02*
X55025000Y-110725000D01*
X64475000Y-109430000D02*
X65255000Y-108650000D01*
X50990000Y-112445000D02*
X51486397Y-112445000D01*
X54220000Y-110913406D02*
X54428406Y-110705000D01*
X50730000Y-112065000D02*
X50730000Y-112185000D01*
X53590000Y-112435000D02*
X54220000Y-111805000D01*
X51496397Y-112435000D02*
X53590000Y-112435000D01*
X54220000Y-111805000D02*
X54220000Y-110913406D01*
X58610000Y-110035000D02*
X57920000Y-110725000D01*
X51486397Y-112445000D02*
X51496397Y-112435000D01*
X65255000Y-108650000D02*
X66000000Y-108650000D01*
X50730000Y-112185000D02*
X50990000Y-112445000D01*
X50280000Y-111815000D02*
X50590000Y-111505000D01*
X52950000Y-112005000D02*
X53581594Y-112005000D01*
X51690000Y-111505000D02*
X52190000Y-112005000D01*
X50700000Y-113065000D02*
X50280000Y-112645000D01*
X53910000Y-110785000D02*
X54845000Y-109850000D01*
X50590000Y-111505000D02*
X51690000Y-111505000D01*
X53581594Y-112005000D02*
X53910000Y-111676594D01*
X50280000Y-112645000D02*
X50280000Y-111815000D01*
X54845000Y-109850000D02*
X56300000Y-109850000D01*
X53910000Y-111676594D02*
X53910000Y-110785000D01*
X52190000Y-112005000D02*
X52950000Y-112005000D01*
X55525000Y-107450000D02*
X52950000Y-110025000D01*
X56300000Y-107450000D02*
X55525000Y-107450000D01*
X52950000Y-110025000D02*
X52950000Y-110705000D01*
X94290000Y-101300000D02*
X94290000Y-102600000D01*
X92325000Y-101315000D02*
X94275000Y-101315000D01*
X78190000Y-103915000D02*
X78190000Y-102115000D01*
X77600000Y-105885000D02*
X77600000Y-105015000D01*
X70137355Y-107427645D02*
X70810000Y-106755000D01*
X78190000Y-102115000D02*
X77600000Y-101525000D01*
X76730000Y-106755000D02*
X77600000Y-105885000D01*
X70810000Y-106755000D02*
X76730000Y-106755000D01*
X77600000Y-104950000D02*
X77600000Y-104505000D01*
X77600000Y-101525000D02*
X77600000Y-100850000D01*
X77600000Y-104505000D02*
X78190000Y-103915000D01*
X69897645Y-107427645D02*
X70137355Y-107427645D01*
X95310000Y-102600000D02*
X95310000Y-101300000D01*
D43*
X74257500Y-102400000D02*
X76135000Y-102400000D01*
X76135000Y-102400000D02*
X76820000Y-103085000D01*
D42*
X68600000Y-110550000D02*
X65250000Y-110550000D01*
D43*
X74257500Y-101100000D02*
X75965000Y-101100000D01*
X77680000Y-102815000D02*
X77680000Y-103625000D01*
X77680000Y-103625000D02*
X77460000Y-103845000D01*
X75965000Y-101100000D02*
X77680000Y-102815000D01*
G04 #@! TA.AperFunction,Conductor*
G36*
X46475444Y-100318982D02*
G01*
X46502464Y-100365782D01*
X46493080Y-100419000D01*
X46480525Y-100435361D01*
X45873369Y-101042516D01*
X45863054Y-101049940D01*
X45863485Y-101050510D01*
X45857642Y-101054922D01*
X45823987Y-101091838D01*
X45822730Y-101093155D01*
X45808100Y-101107785D01*
X45805562Y-101111490D01*
X45802169Y-101115772D01*
X45779435Y-101140711D01*
X45779433Y-101140714D01*
X45774788Y-101152703D01*
X45766302Y-101168803D01*
X45759037Y-101179409D01*
X45751310Y-101212257D01*
X45749691Y-101217486D01*
X45737500Y-101248957D01*
X45737500Y-101261812D01*
X45735402Y-101279899D01*
X45732458Y-101292412D01*
X45732121Y-101299724D01*
X45729001Y-101299579D01*
X45720384Y-101339818D01*
X45709314Y-101353714D01*
X45655796Y-101407232D01*
X45655792Y-101407238D01*
X45618748Y-101491133D01*
X45581329Y-101530120D01*
X45527603Y-101535934D01*
X45490619Y-101515083D01*
X45444296Y-101468760D01*
X45437054Y-101465070D01*
X45328433Y-101409725D01*
X45328429Y-101409724D01*
X45328426Y-101409723D01*
X45200002Y-101389383D01*
X45199998Y-101389383D01*
X45071573Y-101409723D01*
X45071568Y-101409724D01*
X45071567Y-101409725D01*
X45017907Y-101437066D01*
X44955703Y-101468760D01*
X44863760Y-101560703D01*
X44843853Y-101599774D01*
X44804725Y-101676567D01*
X44804724Y-101676568D01*
X44804725Y-101676568D01*
X44804723Y-101676573D01*
X44784383Y-101804997D01*
X44784383Y-101805002D01*
X44804723Y-101933426D01*
X44804724Y-101933429D01*
X44804725Y-101933433D01*
X44858389Y-102038754D01*
X44863760Y-102049296D01*
X44955703Y-102141239D01*
X44955705Y-102141240D01*
X44955706Y-102141241D01*
X45071567Y-102200275D01*
X45071572Y-102200275D01*
X45071573Y-102200276D01*
X45199998Y-102220617D01*
X45200000Y-102220617D01*
X45200002Y-102220617D01*
X45328218Y-102200309D01*
X45328433Y-102200275D01*
X45444294Y-102141241D01*
X45524312Y-102061222D01*
X45573287Y-102038385D01*
X45625485Y-102052371D01*
X45652440Y-102085171D01*
X45655791Y-102092759D01*
X45655794Y-102092765D01*
X45655796Y-102092767D01*
X45655798Y-102092770D01*
X45714361Y-102151333D01*
X45737199Y-102200309D01*
X45737500Y-102207194D01*
X45737500Y-105119465D01*
X45735453Y-105132014D01*
X45736162Y-105132113D01*
X45735151Y-105139358D01*
X45735151Y-105139359D01*
X45735375Y-105144211D01*
X45737458Y-105189263D01*
X45737500Y-105191088D01*
X45737500Y-105211768D01*
X45738322Y-105216167D01*
X45738952Y-105221601D01*
X45740512Y-105255322D01*
X45740513Y-105255325D01*
X45745706Y-105267086D01*
X45751091Y-105284475D01*
X45753452Y-105297106D01*
X45753452Y-105297107D01*
X45753453Y-105297108D01*
X45757427Y-105303527D01*
X45771212Y-105325792D01*
X45773765Y-105330635D01*
X45787399Y-105361512D01*
X45787403Y-105361517D01*
X45796490Y-105370604D01*
X45807793Y-105384872D01*
X45810896Y-105389883D01*
X45814563Y-105395806D01*
X45814564Y-105395807D01*
X45841493Y-105416143D01*
X45845617Y-105419731D01*
X46081242Y-105655355D01*
X46300516Y-105874629D01*
X46307944Y-105884950D01*
X46308515Y-105884520D01*
X46312923Y-105890358D01*
X46312924Y-105890359D01*
X46340263Y-105915282D01*
X46349850Y-105924021D01*
X46351170Y-105925283D01*
X46365786Y-105939899D01*
X46369481Y-105942429D01*
X46373762Y-105945820D01*
X46398712Y-105968565D01*
X46410699Y-105973208D01*
X46426804Y-105981697D01*
X46437410Y-105988962D01*
X46470260Y-105996688D01*
X46475475Y-105998303D01*
X46494816Y-106005796D01*
X46506957Y-106010500D01*
X46506958Y-106010500D01*
X46519814Y-106010500D01*
X46537901Y-106012598D01*
X46550411Y-106015541D01*
X46583836Y-106010878D01*
X46589291Y-106010500D01*
X46670843Y-106010500D01*
X46721623Y-106028982D01*
X46748643Y-106075782D01*
X46748325Y-106104913D01*
X46742500Y-106134195D01*
X46742500Y-106465805D01*
X46751812Y-106512623D01*
X46780869Y-106556111D01*
X46793712Y-106608602D01*
X46780869Y-106643889D01*
X46751812Y-106687376D01*
X46742500Y-106734194D01*
X46742500Y-107065805D01*
X46742655Y-107066585D01*
X46742607Y-107066896D01*
X46742880Y-107069667D01*
X46742169Y-107069736D01*
X46734434Y-107119995D01*
X46693805Y-107155626D01*
X46677533Y-107160024D01*
X46630344Y-107167498D01*
X46630340Y-107167499D01*
X46630339Y-107167500D01*
X46591730Y-107187172D01*
X46531410Y-107217906D01*
X46452906Y-107296410D01*
X46429046Y-107343240D01*
X46402500Y-107395339D01*
X46402499Y-107395340D01*
X46402500Y-107395340D01*
X46402498Y-107395344D01*
X46385131Y-107504997D01*
X46385131Y-107505002D01*
X46402498Y-107614655D01*
X46402499Y-107614658D01*
X46402500Y-107614661D01*
X46428559Y-107665805D01*
X46452906Y-107713589D01*
X46531410Y-107792093D01*
X46531412Y-107792094D01*
X46531413Y-107792095D01*
X46630339Y-107842500D01*
X46676108Y-107849749D01*
X46723370Y-107875947D01*
X46742737Y-107926396D01*
X46742500Y-107932286D01*
X46742500Y-108265805D01*
X46751812Y-108312623D01*
X46780869Y-108356111D01*
X46793712Y-108408602D01*
X46780869Y-108443889D01*
X46751812Y-108487376D01*
X46742500Y-108534194D01*
X46742500Y-108865805D01*
X46751812Y-108912623D01*
X46780869Y-108956111D01*
X46793712Y-109008602D01*
X46780869Y-109043889D01*
X46751812Y-109087376D01*
X46742500Y-109134194D01*
X46742500Y-109465805D01*
X46751812Y-109512623D01*
X46780869Y-109556111D01*
X46793712Y-109608602D01*
X46780869Y-109643889D01*
X46751812Y-109687376D01*
X46742500Y-109734194D01*
X46742500Y-110065805D01*
X46751812Y-110112623D01*
X46780869Y-110156111D01*
X46793712Y-110208602D01*
X46780869Y-110243889D01*
X46751812Y-110287376D01*
X46742500Y-110334194D01*
X46742500Y-110665805D01*
X46751812Y-110712623D01*
X46780869Y-110756111D01*
X46793712Y-110808602D01*
X46780869Y-110843889D01*
X46751812Y-110887376D01*
X46742499Y-110934194D01*
X46742500Y-111207590D01*
X46726743Y-111254933D01*
X46652555Y-111354035D01*
X46652554Y-111354037D01*
X46601506Y-111490903D01*
X46601504Y-111490911D01*
X46595000Y-111551403D01*
X46595000Y-111600000D01*
X48561000Y-111600000D01*
X48561000Y-111551403D01*
X48554495Y-111490911D01*
X48554493Y-111490903D01*
X48503445Y-111354037D01*
X48503444Y-111354035D01*
X48415903Y-111237096D01*
X48298964Y-111149555D01*
X48298962Y-111149554D01*
X48162096Y-111098506D01*
X48162088Y-111098504D01*
X48101596Y-111092000D01*
X47942500Y-111092000D01*
X47891720Y-111073518D01*
X47864700Y-111026718D01*
X47863500Y-111013000D01*
X47863500Y-110934194D01*
X47854187Y-110887376D01*
X47825129Y-110843887D01*
X47812285Y-110791400D01*
X47825130Y-110756111D01*
X47854187Y-110712624D01*
X47863500Y-110665806D01*
X47863500Y-110334194D01*
X47854187Y-110287376D01*
X47838159Y-110263389D01*
X47825316Y-110210899D01*
X47849217Y-110162433D01*
X47898679Y-110140669D01*
X47903846Y-110140500D01*
X48286446Y-110140500D01*
X48337226Y-110158982D01*
X48364246Y-110205782D01*
X48364473Y-110207141D01*
X48379723Y-110303427D01*
X48379724Y-110303430D01*
X48379725Y-110303433D01*
X48435643Y-110413178D01*
X48438760Y-110419296D01*
X48530703Y-110511239D01*
X48530705Y-110511240D01*
X48530706Y-110511241D01*
X48646567Y-110570275D01*
X48646572Y-110570275D01*
X48646573Y-110570276D01*
X48774998Y-110590617D01*
X48775000Y-110590617D01*
X48775002Y-110590617D01*
X48870615Y-110575472D01*
X48903433Y-110570275D01*
X49019294Y-110511241D01*
X49111241Y-110419294D01*
X49170275Y-110303433D01*
X49184044Y-110216500D01*
X49190617Y-110175002D01*
X49190617Y-110174997D01*
X49170276Y-110046573D01*
X49170275Y-110046572D01*
X49170275Y-110046567D01*
X49111241Y-109930706D01*
X49111240Y-109930705D01*
X49111239Y-109930703D01*
X49025148Y-109844612D01*
X49002310Y-109795636D01*
X49016296Y-109743438D01*
X49025148Y-109732890D01*
X49113741Y-109644296D01*
X49113741Y-109644295D01*
X49113743Y-109644294D01*
X49172777Y-109528433D01*
X49182696Y-109465806D01*
X49193119Y-109400002D01*
X49193119Y-109399997D01*
X49172778Y-109271573D01*
X49172777Y-109271572D01*
X49172777Y-109271567D01*
X49113743Y-109155706D01*
X49113742Y-109155705D01*
X49113741Y-109155703D01*
X49021798Y-109063760D01*
X49013437Y-109059500D01*
X48997664Y-109051463D01*
X48960810Y-109011942D01*
X48957982Y-108957977D01*
X48990503Y-108914819D01*
X48997671Y-108910682D01*
X49000285Y-108909350D01*
X49000988Y-108908992D01*
X49092935Y-108817045D01*
X49151969Y-108701184D01*
X49164595Y-108621467D01*
X49172311Y-108572753D01*
X49172311Y-108572748D01*
X49151970Y-108444324D01*
X49151969Y-108444323D01*
X49151969Y-108444318D01*
X49092935Y-108328457D01*
X49092934Y-108328456D01*
X49092933Y-108328454D01*
X49042119Y-108277640D01*
X49019281Y-108228664D01*
X49033267Y-108176466D01*
X49042113Y-108165923D01*
X49113743Y-108094294D01*
X49172777Y-107978433D01*
X49184439Y-107904803D01*
X49193119Y-107850002D01*
X49193119Y-107849997D01*
X49172778Y-107721573D01*
X49172777Y-107721572D01*
X49172777Y-107721567D01*
X49113743Y-107605706D01*
X49113742Y-107605705D01*
X49113741Y-107605703D01*
X49021797Y-107513759D01*
X49017006Y-107511318D01*
X48980154Y-107471794D01*
X48977328Y-107417829D01*
X49009852Y-107374673D01*
X49017000Y-107370546D01*
X49033587Y-107362095D01*
X49112095Y-107283587D01*
X49162500Y-107184661D01*
X49162708Y-107183351D01*
X49179869Y-107075000D01*
X49179869Y-107074997D01*
X49162501Y-106965344D01*
X49162500Y-106965343D01*
X49162500Y-106965339D01*
X49112095Y-106866413D01*
X49112094Y-106866412D01*
X49112093Y-106866410D01*
X49033589Y-106787906D01*
X49014981Y-106778425D01*
X48937175Y-106738781D01*
X48900322Y-106699261D01*
X48897494Y-106645296D01*
X48930015Y-106602138D01*
X48937172Y-106598006D01*
X48958587Y-106587095D01*
X49037095Y-106508587D01*
X49087500Y-106409661D01*
X49087501Y-106409655D01*
X49104869Y-106300002D01*
X49104869Y-106299997D01*
X49087501Y-106190344D01*
X49087500Y-106190343D01*
X49087500Y-106190339D01*
X49037095Y-106091413D01*
X49037094Y-106091412D01*
X49037093Y-106091410D01*
X48958589Y-106012906D01*
X48953867Y-106010500D01*
X48859661Y-105962500D01*
X48859658Y-105962499D01*
X48859655Y-105962498D01*
X48750002Y-105945131D01*
X48749998Y-105945131D01*
X48640344Y-105962498D01*
X48640340Y-105962499D01*
X48640339Y-105962500D01*
X48612823Y-105976520D01*
X48541410Y-106012906D01*
X48517958Y-106036360D01*
X48468983Y-106059199D01*
X48462096Y-106059500D01*
X47903846Y-106059500D01*
X47853066Y-106041018D01*
X47826046Y-105994218D01*
X47835430Y-105941000D01*
X47838160Y-105936610D01*
X47854187Y-105912624D01*
X47863500Y-105865806D01*
X47863500Y-105534194D01*
X47854187Y-105487376D01*
X47838159Y-105463389D01*
X47825316Y-105410899D01*
X47849217Y-105362433D01*
X47898679Y-105340669D01*
X47903846Y-105340500D01*
X48354326Y-105340500D01*
X48405106Y-105358982D01*
X48424714Y-105383632D01*
X48441279Y-105416143D01*
X48462906Y-105458589D01*
X48541410Y-105537093D01*
X48541412Y-105537094D01*
X48541413Y-105537095D01*
X48640339Y-105587500D01*
X48640343Y-105587500D01*
X48640344Y-105587501D01*
X48749998Y-105604869D01*
X48750000Y-105604869D01*
X48750002Y-105604869D01*
X48859655Y-105587501D01*
X48859655Y-105587500D01*
X48859661Y-105587500D01*
X48958587Y-105537095D01*
X49037095Y-105458587D01*
X49075836Y-105382551D01*
X49115356Y-105345698D01*
X49158584Y-105340390D01*
X49249998Y-105354869D01*
X49250000Y-105354869D01*
X49250002Y-105354869D01*
X49359655Y-105337501D01*
X49359655Y-105337500D01*
X49359661Y-105337500D01*
X49458587Y-105287095D01*
X49537095Y-105208587D01*
X49543110Y-105196780D01*
X49582631Y-105159926D01*
X49636597Y-105157098D01*
X49679755Y-105189619D01*
X49692500Y-105232647D01*
X49692499Y-105312828D01*
X49674016Y-105363608D01*
X49641109Y-105386845D01*
X49607039Y-105399553D01*
X49607035Y-105399555D01*
X49490096Y-105487096D01*
X49402555Y-105604035D01*
X49402554Y-105604037D01*
X49351506Y-105740903D01*
X49351504Y-105740911D01*
X49345000Y-105801403D01*
X49345000Y-105850000D01*
X50249000Y-105850000D01*
X50299780Y-105868482D01*
X50326800Y-105915282D01*
X50328000Y-105929000D01*
X50328000Y-106210500D01*
X50309518Y-106261280D01*
X50262718Y-106288300D01*
X50249000Y-106289500D01*
X50107000Y-106289500D01*
X50056220Y-106271018D01*
X50029200Y-106224218D01*
X50028000Y-106210500D01*
X50028000Y-106150000D01*
X49345000Y-106150000D01*
X49345000Y-106198596D01*
X49351504Y-106259088D01*
X49351506Y-106259096D01*
X49402554Y-106395962D01*
X49402555Y-106395964D01*
X49490095Y-106512903D01*
X49521959Y-106536756D01*
X49551534Y-106581983D01*
X49545119Y-106635640D01*
X49521961Y-106663240D01*
X49490097Y-106687094D01*
X49402555Y-106804035D01*
X49402554Y-106804037D01*
X49351506Y-106940903D01*
X49351504Y-106940911D01*
X49345000Y-107001403D01*
X49345000Y-107050000D01*
X50028000Y-107050000D01*
X50028000Y-106989500D01*
X50046482Y-106938720D01*
X50093282Y-106911700D01*
X50107000Y-106910500D01*
X50249000Y-106910500D01*
X50299780Y-106928982D01*
X50326800Y-106975782D01*
X50328000Y-106989500D01*
X50328000Y-107271000D01*
X50309518Y-107321780D01*
X50262718Y-107348800D01*
X50249000Y-107350000D01*
X49345000Y-107350000D01*
X49345000Y-107398596D01*
X49351504Y-107459088D01*
X49351506Y-107459096D01*
X49402554Y-107595962D01*
X49402555Y-107595964D01*
X49490096Y-107712903D01*
X49607038Y-107800446D01*
X49641107Y-107813153D01*
X49682227Y-107848215D01*
X49692500Y-107887172D01*
X49692500Y-107965805D01*
X49701812Y-108012623D01*
X49730869Y-108056111D01*
X49743712Y-108108602D01*
X49730869Y-108143889D01*
X49701812Y-108187376D01*
X49695754Y-108217835D01*
X49692500Y-108234194D01*
X49692500Y-108565806D01*
X49693882Y-108572753D01*
X49701812Y-108612623D01*
X49730869Y-108656111D01*
X49743712Y-108708602D01*
X49730869Y-108743889D01*
X49701812Y-108787376D01*
X49697901Y-108807040D01*
X49692500Y-108834194D01*
X49692500Y-109165806D01*
X49694024Y-109173467D01*
X49701812Y-109212623D01*
X49730869Y-109256111D01*
X49743712Y-109308602D01*
X49730869Y-109343889D01*
X49701812Y-109387376D01*
X49697248Y-109410323D01*
X49692500Y-109434194D01*
X49692500Y-109765806D01*
X49693688Y-109771780D01*
X49701812Y-109812623D01*
X49730869Y-109856111D01*
X49743712Y-109908602D01*
X49730869Y-109943889D01*
X49701812Y-109987376D01*
X49692500Y-110034194D01*
X49692500Y-110365805D01*
X49701812Y-110412623D01*
X49730869Y-110456111D01*
X49743712Y-110508602D01*
X49730869Y-110543889D01*
X49701812Y-110587376D01*
X49692500Y-110634194D01*
X49692500Y-110965805D01*
X49701812Y-111012623D01*
X49737285Y-111065714D01*
X49763830Y-111083450D01*
X49790376Y-111101187D01*
X49837194Y-111110500D01*
X50015253Y-111110500D01*
X50066033Y-111128982D01*
X50093053Y-111175782D01*
X50083669Y-111229000D01*
X50071114Y-111245361D01*
X48442269Y-112874204D01*
X48398767Y-112896370D01*
X48296938Y-112912498D01*
X48296934Y-112912499D01*
X48296933Y-112912500D01*
X48265643Y-112928443D01*
X48198004Y-112962906D01*
X48119500Y-113041410D01*
X48100636Y-113078433D01*
X48069094Y-113140339D01*
X48069093Y-113140340D01*
X48069094Y-113140340D01*
X48069092Y-113140344D01*
X48051725Y-113249997D01*
X48051725Y-113250002D01*
X48069092Y-113359655D01*
X48069093Y-113359658D01*
X48069094Y-113359661D01*
X48102800Y-113425813D01*
X48119500Y-113458589D01*
X48198004Y-113537093D01*
X48198006Y-113537094D01*
X48198007Y-113537095D01*
X48296933Y-113587500D01*
X48296938Y-113587500D01*
X48296939Y-113587501D01*
X48380858Y-113600793D01*
X48428122Y-113626991D01*
X48447488Y-113677441D01*
X48446528Y-113691174D01*
X48445131Y-113699997D01*
X48445131Y-113700002D01*
X48462498Y-113809655D01*
X48462499Y-113809658D01*
X48462500Y-113809661D01*
X48468400Y-113821241D01*
X48470130Y-113824636D01*
X48476715Y-113878272D01*
X48447282Y-113923593D01*
X48399740Y-113939500D01*
X41723468Y-113939500D01*
X41672688Y-113921018D01*
X41667607Y-113916361D01*
X40651241Y-112899995D01*
X39751246Y-112000000D01*
X46595000Y-112000000D01*
X46595000Y-112048596D01*
X46601504Y-112109088D01*
X46601506Y-112109096D01*
X46652554Y-112245962D01*
X46652555Y-112245964D01*
X46740096Y-112362903D01*
X46857035Y-112450444D01*
X46857037Y-112450445D01*
X46993903Y-112501493D01*
X46993911Y-112501495D01*
X47054404Y-112508000D01*
X47378000Y-112508000D01*
X47378000Y-112000000D01*
X47778000Y-112000000D01*
X47778000Y-112508000D01*
X48101596Y-112508000D01*
X48162088Y-112501495D01*
X48162096Y-112501493D01*
X48298962Y-112450445D01*
X48298964Y-112450444D01*
X48415903Y-112362903D01*
X48503444Y-112245964D01*
X48503445Y-112245962D01*
X48554493Y-112109096D01*
X48554495Y-112109088D01*
X48561000Y-112048596D01*
X48561000Y-112000000D01*
X47778000Y-112000000D01*
X47378000Y-112000000D01*
X46595000Y-112000000D01*
X39751246Y-112000000D01*
X37595481Y-109844236D01*
X37592536Y-109840941D01*
X37587543Y-109834680D01*
X37566758Y-109808616D01*
X37516513Y-109774360D01*
X37508538Y-109768474D01*
X37467608Y-109738265D01*
X37462377Y-109735501D01*
X37462423Y-109735413D01*
X37457441Y-109732897D01*
X37457398Y-109732987D01*
X37452061Y-109730417D01*
X37393966Y-109712497D01*
X37372506Y-109704988D01*
X37336582Y-109692417D01*
X37330765Y-109691317D01*
X37330783Y-109691219D01*
X37325276Y-109690284D01*
X37325262Y-109690382D01*
X37319409Y-109689500D01*
X37258612Y-109689500D01*
X37197858Y-109687227D01*
X37197857Y-109687227D01*
X37191977Y-109687890D01*
X37191965Y-109687789D01*
X37178976Y-109689500D01*
X34978088Y-109689500D01*
X34973662Y-109689251D01*
X34932591Y-109684623D01*
X34932586Y-109684623D01*
X34886589Y-109693326D01*
X34872832Y-109695929D01*
X34812732Y-109704988D01*
X34812730Y-109704988D01*
X34812729Y-109704989D01*
X34807071Y-109706734D01*
X34807041Y-109706638D01*
X34801743Y-109708381D01*
X34801776Y-109708475D01*
X34796190Y-109710429D01*
X34742428Y-109738844D01*
X34687663Y-109765217D01*
X34682766Y-109768556D01*
X34682710Y-109768474D01*
X34678163Y-109771700D01*
X34678222Y-109771780D01*
X34673458Y-109775295D01*
X34630457Y-109818295D01*
X34585901Y-109859637D01*
X34582211Y-109864265D01*
X34582133Y-109864202D01*
X34574155Y-109874597D01*
X31510538Y-112938215D01*
X31461562Y-112961053D01*
X31409364Y-112947067D01*
X31378369Y-112902801D01*
X31376503Y-112870966D01*
X31385500Y-112809215D01*
X31385499Y-112190786D01*
X31375291Y-112120714D01*
X31322449Y-112012625D01*
X31322446Y-112012621D01*
X31237380Y-111927555D01*
X31237376Y-111927552D01*
X31237375Y-111927551D01*
X31229801Y-111923848D01*
X31192300Y-111884942D01*
X31185500Y-111852877D01*
X31185500Y-109340648D01*
X31194111Y-109304782D01*
X31205813Y-109281816D01*
X31220275Y-109253433D01*
X31231002Y-109185706D01*
X31240617Y-109125002D01*
X31240617Y-109124997D01*
X31220276Y-108996573D01*
X31220275Y-108996572D01*
X31220275Y-108996567D01*
X31204555Y-108965714D01*
X31194110Y-108945215D01*
X31185499Y-108909354D01*
X31185499Y-108147122D01*
X31203981Y-108096343D01*
X31229806Y-108076149D01*
X31237375Y-108072449D01*
X31322449Y-107987375D01*
X31375291Y-107879286D01*
X31385500Y-107809215D01*
X31385499Y-107190786D01*
X31375291Y-107120714D01*
X31322449Y-107012625D01*
X31322446Y-107012621D01*
X31237380Y-106927555D01*
X31237376Y-106927552D01*
X31237375Y-106927551D01*
X31229801Y-106923848D01*
X31192300Y-106884942D01*
X31185500Y-106852877D01*
X31185500Y-103605002D01*
X43645131Y-103605002D01*
X43662498Y-103714655D01*
X43662499Y-103714658D01*
X43662500Y-103714661D01*
X43707283Y-103802553D01*
X43712906Y-103813589D01*
X43791410Y-103892093D01*
X43791412Y-103892094D01*
X43791413Y-103892095D01*
X43890339Y-103942500D01*
X43890343Y-103942500D01*
X43890344Y-103942501D01*
X43999998Y-103959869D01*
X44000000Y-103959869D01*
X44000002Y-103959869D01*
X44109655Y-103942501D01*
X44109655Y-103942500D01*
X44109661Y-103942500D01*
X44208587Y-103892095D01*
X44287095Y-103813587D01*
X44337500Y-103714661D01*
X44340914Y-103693105D01*
X44354869Y-103605002D01*
X44354869Y-103604997D01*
X44337501Y-103495344D01*
X44337500Y-103495343D01*
X44337500Y-103495339D01*
X44287095Y-103396413D01*
X44287094Y-103396412D01*
X44287093Y-103396410D01*
X44208589Y-103317906D01*
X44204287Y-103315714D01*
X44109661Y-103267500D01*
X44109658Y-103267499D01*
X44109655Y-103267498D01*
X44000002Y-103250131D01*
X43999998Y-103250131D01*
X43890344Y-103267498D01*
X43890340Y-103267499D01*
X43890339Y-103267500D01*
X43841782Y-103292240D01*
X43791410Y-103317906D01*
X43712906Y-103396410D01*
X43692613Y-103436239D01*
X43662500Y-103495339D01*
X43662499Y-103495340D01*
X43662500Y-103495340D01*
X43662498Y-103495344D01*
X43645131Y-103604997D01*
X43645131Y-103605002D01*
X31185500Y-103605002D01*
X31185500Y-103147123D01*
X31203982Y-103096343D01*
X31229805Y-103076150D01*
X31231487Y-103075327D01*
X31237375Y-103072449D01*
X31322449Y-102987375D01*
X31375291Y-102879286D01*
X31385500Y-102809215D01*
X31385499Y-102190786D01*
X31375291Y-102120714D01*
X31322449Y-102012625D01*
X31322446Y-102012621D01*
X31237378Y-101927553D01*
X31237372Y-101927549D01*
X31168758Y-101894006D01*
X31129286Y-101874709D01*
X31129288Y-101874709D01*
X31094250Y-101869604D01*
X31059215Y-101864500D01*
X31059213Y-101864500D01*
X30590790Y-101864500D01*
X30590783Y-101864501D01*
X30520712Y-101874709D01*
X30520710Y-101874710D01*
X30412625Y-101927550D01*
X30412621Y-101927553D01*
X30327553Y-102012621D01*
X30327549Y-102012627D01*
X30274709Y-102120713D01*
X30264500Y-102190783D01*
X30264500Y-102809209D01*
X30264501Y-102809216D01*
X30274709Y-102879287D01*
X30274710Y-102879289D01*
X30327550Y-102987374D01*
X30327553Y-102987378D01*
X30412620Y-103072445D01*
X30412623Y-103072447D01*
X30412625Y-103072449D01*
X30412628Y-103072450D01*
X30412629Y-103072451D01*
X30420196Y-103076151D01*
X30457699Y-103115058D01*
X30464499Y-103147123D01*
X30464499Y-106852877D01*
X30446017Y-106903657D01*
X30420199Y-106923848D01*
X30412627Y-106927549D01*
X30412619Y-106927555D01*
X30327553Y-107012621D01*
X30327549Y-107012627D01*
X30274709Y-107120713D01*
X30264500Y-107190783D01*
X30264500Y-107809209D01*
X30264501Y-107809216D01*
X30274709Y-107879287D01*
X30274710Y-107879289D01*
X30327550Y-107987374D01*
X30327553Y-107987378D01*
X30412620Y-108072445D01*
X30412622Y-108072446D01*
X30412625Y-108072449D01*
X30417400Y-108074783D01*
X30420195Y-108076150D01*
X30457699Y-108115056D01*
X30464500Y-108147123D01*
X30464500Y-108909350D01*
X30455890Y-108945214D01*
X30429726Y-108996565D01*
X30429723Y-108996573D01*
X30409383Y-109124997D01*
X30409383Y-109125002D01*
X30429724Y-109253431D01*
X30429724Y-109253432D01*
X30455889Y-109304782D01*
X30464500Y-109340648D01*
X30464500Y-111852877D01*
X30446018Y-111903657D01*
X30420199Y-111923848D01*
X30417176Y-111925325D01*
X30412626Y-111927550D01*
X30412619Y-111927555D01*
X30327553Y-112012621D01*
X30327549Y-112012627D01*
X30274709Y-112120713D01*
X30264500Y-112190783D01*
X30264500Y-112809209D01*
X30264501Y-112809216D01*
X30274709Y-112879287D01*
X30274710Y-112879289D01*
X30327550Y-112987374D01*
X30327553Y-112987378D01*
X30412621Y-113072446D01*
X30412624Y-113072448D01*
X30412625Y-113072449D01*
X30520712Y-113125290D01*
X30520714Y-113125291D01*
X30590785Y-113135500D01*
X31059214Y-113135499D01*
X31120968Y-113126502D01*
X31173880Y-113137471D01*
X31207364Y-113179886D01*
X31205751Y-113233901D01*
X31188217Y-113260537D01*
X30832393Y-113616361D01*
X30783418Y-113639199D01*
X30776533Y-113639500D01*
X25773469Y-113639500D01*
X25722689Y-113621018D01*
X25717608Y-113616361D01*
X25642607Y-113541360D01*
X25619769Y-113492384D01*
X25633755Y-113440186D01*
X25654581Y-113419811D01*
X25660714Y-113415714D01*
X25696187Y-113362624D01*
X25705500Y-113315806D01*
X25705500Y-113315805D01*
X25894500Y-113315805D01*
X25903812Y-113362623D01*
X25939285Y-113415714D01*
X25954400Y-113425813D01*
X25992376Y-113451187D01*
X26039194Y-113460500D01*
X27320806Y-113460500D01*
X27367624Y-113451187D01*
X27420714Y-113415714D01*
X27456187Y-113362624D01*
X27465500Y-113315806D01*
X27465500Y-112939500D01*
X27483982Y-112888720D01*
X27530782Y-112861700D01*
X27544500Y-112860500D01*
X28566211Y-112860500D01*
X28616991Y-112878982D01*
X28637182Y-112904801D01*
X28641145Y-112912906D01*
X28677550Y-112987374D01*
X28677553Y-112987378D01*
X28762621Y-113072446D01*
X28762624Y-113072448D01*
X28762625Y-113072449D01*
X28870712Y-113125290D01*
X28870714Y-113125291D01*
X28940785Y-113135500D01*
X29409214Y-113135499D01*
X29479286Y-113125291D01*
X29587375Y-113072449D01*
X29672449Y-112987375D01*
X29725291Y-112879286D01*
X29735500Y-112809215D01*
X29735499Y-112190786D01*
X29725291Y-112120714D01*
X29672449Y-112012625D01*
X29672446Y-112012621D01*
X29587378Y-111927553D01*
X29587372Y-111927549D01*
X29529959Y-111899482D01*
X29479286Y-111874709D01*
X29479288Y-111874709D01*
X29444250Y-111869604D01*
X29409215Y-111864500D01*
X29409213Y-111864500D01*
X28940790Y-111864500D01*
X28940783Y-111864501D01*
X28870712Y-111874709D01*
X28870710Y-111874710D01*
X28762625Y-111927550D01*
X28762621Y-111927553D01*
X28677553Y-112012621D01*
X28677550Y-112012625D01*
X28654567Y-112059639D01*
X28643039Y-112083221D01*
X28637184Y-112095197D01*
X28598277Y-112132700D01*
X28566211Y-112139500D01*
X27544500Y-112139500D01*
X27493720Y-112121018D01*
X27466700Y-112074218D01*
X27465500Y-112060500D01*
X27465500Y-111684194D01*
X27456187Y-111637376D01*
X27420714Y-111584285D01*
X27376884Y-111555000D01*
X27367624Y-111548813D01*
X27367623Y-111548812D01*
X27320806Y-111539500D01*
X26039194Y-111539500D01*
X25992376Y-111548812D01*
X25939285Y-111584285D01*
X25903812Y-111637376D01*
X25894500Y-111684194D01*
X25894500Y-113315805D01*
X25705500Y-113315805D01*
X25705500Y-111684194D01*
X25696187Y-111637376D01*
X25689333Y-111627118D01*
X25660714Y-111584285D01*
X25616884Y-111555000D01*
X25607624Y-111548813D01*
X25607623Y-111548812D01*
X25560806Y-111539500D01*
X25359500Y-111539500D01*
X25308720Y-111521018D01*
X25281700Y-111474218D01*
X25280500Y-111460500D01*
X25280500Y-108539500D01*
X25298982Y-108488720D01*
X25345782Y-108461700D01*
X25359500Y-108460500D01*
X25560806Y-108460500D01*
X25607624Y-108451187D01*
X25660714Y-108415714D01*
X25696187Y-108362624D01*
X25705500Y-108315806D01*
X25894500Y-108315806D01*
X25896352Y-108325118D01*
X25903812Y-108362623D01*
X25939285Y-108415714D01*
X25961731Y-108430711D01*
X25992376Y-108451187D01*
X26039194Y-108460500D01*
X27320806Y-108460500D01*
X27367624Y-108451187D01*
X27420714Y-108415714D01*
X27456187Y-108362624D01*
X27465500Y-108315806D01*
X27465500Y-107939500D01*
X27483982Y-107888720D01*
X27530782Y-107861700D01*
X27544500Y-107860500D01*
X28566211Y-107860500D01*
X28616991Y-107878982D01*
X28637184Y-107904803D01*
X28677550Y-107987374D01*
X28677553Y-107987378D01*
X28762621Y-108072446D01*
X28762624Y-108072448D01*
X28762625Y-108072449D01*
X28870712Y-108125290D01*
X28870714Y-108125291D01*
X28940785Y-108135500D01*
X29409214Y-108135499D01*
X29479286Y-108125291D01*
X29587375Y-108072449D01*
X29672449Y-107987375D01*
X29725291Y-107879286D01*
X29735500Y-107809215D01*
X29735499Y-107190786D01*
X29725291Y-107120714D01*
X29672449Y-107012625D01*
X29672446Y-107012621D01*
X29587378Y-106927553D01*
X29587372Y-106927549D01*
X29509541Y-106889500D01*
X29479286Y-106874709D01*
X29479288Y-106874709D01*
X29444250Y-106869604D01*
X29409215Y-106864500D01*
X29409213Y-106864500D01*
X28940790Y-106864500D01*
X28940783Y-106864501D01*
X28870712Y-106874709D01*
X28870710Y-106874710D01*
X28762625Y-106927550D01*
X28762621Y-106927553D01*
X28677553Y-107012621D01*
X28677550Y-107012625D01*
X28654147Y-107060498D01*
X28639038Y-107091405D01*
X28637184Y-107095197D01*
X28598277Y-107132700D01*
X28566211Y-107139500D01*
X27544500Y-107139500D01*
X27493720Y-107121018D01*
X27466700Y-107074218D01*
X27465500Y-107060500D01*
X27465500Y-106684194D01*
X27456187Y-106637376D01*
X27420714Y-106584285D01*
X27378546Y-106556111D01*
X27367624Y-106548813D01*
X27367623Y-106548812D01*
X27320806Y-106539500D01*
X26039194Y-106539500D01*
X25992376Y-106548812D01*
X25939285Y-106584285D01*
X25903812Y-106637376D01*
X25894500Y-106684193D01*
X25894500Y-106684194D01*
X25894500Y-108315806D01*
X25705500Y-108315806D01*
X25705500Y-106684194D01*
X25696187Y-106637376D01*
X25686995Y-106623619D01*
X25660714Y-106584285D01*
X25618546Y-106556111D01*
X25607624Y-106548813D01*
X25607623Y-106548812D01*
X25560806Y-106539500D01*
X25359500Y-106539500D01*
X25308720Y-106521018D01*
X25281700Y-106474218D01*
X25280500Y-106460500D01*
X25280500Y-103539500D01*
X25298982Y-103488720D01*
X25345782Y-103461700D01*
X25359500Y-103460500D01*
X25560806Y-103460500D01*
X25607624Y-103451187D01*
X25660714Y-103415714D01*
X25696187Y-103362624D01*
X25705500Y-103315806D01*
X25705500Y-103315805D01*
X25894500Y-103315805D01*
X25903812Y-103362623D01*
X25939285Y-103415714D01*
X25957531Y-103427905D01*
X25992376Y-103451187D01*
X26039194Y-103460500D01*
X27320806Y-103460500D01*
X27367624Y-103451187D01*
X27420714Y-103415714D01*
X27456187Y-103362624D01*
X27465500Y-103315806D01*
X27465500Y-102939500D01*
X27483982Y-102888720D01*
X27530782Y-102861700D01*
X27544500Y-102860500D01*
X28566211Y-102860500D01*
X28616991Y-102878982D01*
X28637182Y-102904801D01*
X28654146Y-102939500D01*
X28677550Y-102987374D01*
X28677553Y-102987378D01*
X28762621Y-103072446D01*
X28762624Y-103072448D01*
X28762625Y-103072449D01*
X28870712Y-103125290D01*
X28870714Y-103125291D01*
X28940785Y-103135500D01*
X29409214Y-103135499D01*
X29479286Y-103125291D01*
X29587375Y-103072449D01*
X29672449Y-102987375D01*
X29725291Y-102879286D01*
X29735500Y-102809215D01*
X29735499Y-102190786D01*
X29725291Y-102120714D01*
X29672449Y-102012625D01*
X29672446Y-102012621D01*
X29587378Y-101927553D01*
X29587372Y-101927549D01*
X29518758Y-101894006D01*
X29479286Y-101874709D01*
X29479288Y-101874709D01*
X29444250Y-101869604D01*
X29409215Y-101864500D01*
X29409213Y-101864500D01*
X28940790Y-101864500D01*
X28940783Y-101864501D01*
X28870712Y-101874709D01*
X28870710Y-101874710D01*
X28762625Y-101927550D01*
X28762621Y-101927553D01*
X28677553Y-102012621D01*
X28677550Y-102012625D01*
X28651525Y-102065862D01*
X28638376Y-102092759D01*
X28637184Y-102095197D01*
X28598277Y-102132700D01*
X28566211Y-102139500D01*
X27544500Y-102139500D01*
X27493720Y-102121018D01*
X27466700Y-102074218D01*
X27465500Y-102060500D01*
X27465500Y-101684194D01*
X27456187Y-101637376D01*
X27420714Y-101584285D01*
X27375128Y-101553827D01*
X27367624Y-101548813D01*
X27367623Y-101548812D01*
X27320806Y-101539500D01*
X26039194Y-101539500D01*
X25992376Y-101548812D01*
X25939285Y-101584285D01*
X25903812Y-101637376D01*
X25894500Y-101684194D01*
X25894500Y-103315805D01*
X25705500Y-103315805D01*
X25705500Y-101684194D01*
X25696187Y-101637376D01*
X25690327Y-101628606D01*
X25660714Y-101584285D01*
X25615128Y-101553827D01*
X25607624Y-101548813D01*
X25607623Y-101548812D01*
X25560806Y-101539500D01*
X24279194Y-101539500D01*
X24232376Y-101548812D01*
X24179285Y-101584285D01*
X24143812Y-101637376D01*
X24134500Y-101684194D01*
X24134500Y-103315805D01*
X24143812Y-103362623D01*
X24179285Y-103415714D01*
X24197531Y-103427905D01*
X24232376Y-103451187D01*
X24279194Y-103460500D01*
X24480500Y-103460500D01*
X24531280Y-103478982D01*
X24558300Y-103525782D01*
X24559500Y-103539500D01*
X24559500Y-106460500D01*
X24541018Y-106511280D01*
X24494218Y-106538300D01*
X24480500Y-106539500D01*
X24279194Y-106539500D01*
X24232376Y-106548812D01*
X24179285Y-106584285D01*
X24143812Y-106637376D01*
X24134500Y-106684193D01*
X24134500Y-106684194D01*
X24134500Y-108315806D01*
X24136352Y-108325118D01*
X24143812Y-108362623D01*
X24179285Y-108415714D01*
X24201731Y-108430711D01*
X24232376Y-108451187D01*
X24279194Y-108460500D01*
X24480500Y-108460500D01*
X24531280Y-108478982D01*
X24558300Y-108525782D01*
X24559500Y-108539500D01*
X24559500Y-111460500D01*
X24541018Y-111511280D01*
X24494218Y-111538300D01*
X24480500Y-111539500D01*
X24279194Y-111539500D01*
X24232376Y-111548812D01*
X24179285Y-111584285D01*
X24143812Y-111637376D01*
X24134500Y-111684194D01*
X24134500Y-113315805D01*
X24143812Y-113362623D01*
X24179285Y-113415714D01*
X24194400Y-113425813D01*
X24232376Y-113451187D01*
X24279194Y-113460500D01*
X24384077Y-113460500D01*
X24434857Y-113478982D01*
X24461699Y-113524811D01*
X24465929Y-113547167D01*
X24474626Y-113604869D01*
X24474989Y-113607273D01*
X24476733Y-113612927D01*
X24476638Y-113612956D01*
X24478383Y-113618258D01*
X24478477Y-113618226D01*
X24480432Y-113623814D01*
X24499703Y-113660276D01*
X24508839Y-113677562D01*
X24535219Y-113732339D01*
X24535221Y-113732341D01*
X24538552Y-113737227D01*
X24538469Y-113737282D01*
X24541703Y-113741839D01*
X24541783Y-113741781D01*
X24545299Y-113746545D01*
X24588282Y-113789527D01*
X24629641Y-113834102D01*
X24634267Y-113837790D01*
X24634204Y-113837868D01*
X24644601Y-113845847D01*
X25204516Y-114405761D01*
X25207461Y-114409057D01*
X25233237Y-114441379D01*
X25233240Y-114441381D01*
X25233242Y-114441384D01*
X25253610Y-114455271D01*
X25283486Y-114475640D01*
X25323768Y-114505369D01*
X25331614Y-114511160D01*
X25332395Y-114511736D01*
X25337626Y-114514501D01*
X25337578Y-114514590D01*
X25342565Y-114517107D01*
X25342609Y-114517016D01*
X25347939Y-114519583D01*
X25406038Y-114537503D01*
X25430130Y-114545934D01*
X25471956Y-114580151D01*
X25482002Y-114633248D01*
X25455567Y-114680380D01*
X25405021Y-114699494D01*
X25404037Y-114699500D01*
X25001416Y-114699500D01*
X24998597Y-114699399D01*
X24763772Y-114682605D01*
X24752615Y-114681000D01*
X24526711Y-114631856D01*
X24515897Y-114628681D01*
X24299301Y-114547896D01*
X24289047Y-114543214D01*
X24086138Y-114432417D01*
X24076656Y-114426323D01*
X24053591Y-114409057D01*
X23891583Y-114287778D01*
X23883064Y-114280396D01*
X23719603Y-114116935D01*
X23712221Y-114108417D01*
X23703109Y-114096245D01*
X23573672Y-113923337D01*
X23567586Y-113913868D01*
X23456784Y-113710950D01*
X23452103Y-113700698D01*
X23451843Y-113700002D01*
X23371317Y-113484101D01*
X23368143Y-113473288D01*
X23318999Y-113247384D01*
X23317395Y-113236236D01*
X23306135Y-113078784D01*
X23300601Y-113001403D01*
X23300500Y-112998584D01*
X23300500Y-102001414D01*
X23300601Y-101998595D01*
X23309071Y-101880163D01*
X23317395Y-101763761D01*
X23318999Y-101752615D01*
X23368143Y-101526711D01*
X23371318Y-101515897D01*
X23373514Y-101510009D01*
X23452106Y-101299293D01*
X23456781Y-101289054D01*
X23567590Y-101086125D01*
X23573667Y-101076668D01*
X23712227Y-100891574D01*
X23719596Y-100883071D01*
X23883071Y-100719596D01*
X23891574Y-100712227D01*
X24076668Y-100573667D01*
X24086125Y-100567590D01*
X24289054Y-100456781D01*
X24299293Y-100452106D01*
X24515902Y-100371316D01*
X24526711Y-100368143D01*
X24752615Y-100318999D01*
X24763761Y-100317395D01*
X24895743Y-100307956D01*
X24998597Y-100300601D01*
X25001416Y-100300500D01*
X25047595Y-100300500D01*
X46424664Y-100300500D01*
X46475444Y-100318982D01*
G37*
G04 #@! TD.AperFunction*
G04 #@! TA.AperFunction,Conductor*
G36*
X96306521Y-100318982D02*
G01*
X96333541Y-100365782D01*
X96329760Y-100407107D01*
X96298506Y-100490900D01*
X96298504Y-100490911D01*
X96292000Y-100551403D01*
X96292000Y-100846000D01*
X98208000Y-100846000D01*
X98208000Y-100551403D01*
X98201495Y-100490911D01*
X98201493Y-100490900D01*
X98170240Y-100407107D01*
X98169811Y-100353070D01*
X98204218Y-100311399D01*
X98244259Y-100300500D01*
X100355741Y-100300500D01*
X100406521Y-100318982D01*
X100433541Y-100365782D01*
X100429760Y-100407107D01*
X100398506Y-100490900D01*
X100398504Y-100490911D01*
X100392000Y-100551403D01*
X100392000Y-100846000D01*
X102308000Y-100846000D01*
X102308000Y-100551403D01*
X102301495Y-100490911D01*
X102301493Y-100490903D01*
X102287053Y-100452186D01*
X102286624Y-100398148D01*
X102321031Y-100356477D01*
X102374173Y-100346672D01*
X102377865Y-100347384D01*
X102473288Y-100368143D01*
X102484101Y-100371317D01*
X102700700Y-100452104D01*
X102710950Y-100456784D01*
X102913868Y-100567586D01*
X102923337Y-100573672D01*
X103090434Y-100698759D01*
X103108417Y-100712221D01*
X103116935Y-100719603D01*
X103280396Y-100883064D01*
X103287778Y-100891582D01*
X103296313Y-100902983D01*
X103425886Y-101076073D01*
X103426323Y-101076656D01*
X103432415Y-101086135D01*
X103448598Y-101115772D01*
X103543214Y-101289047D01*
X103547896Y-101299301D01*
X103628681Y-101515897D01*
X103631856Y-101526711D01*
X103681000Y-101752615D01*
X103682605Y-101763772D01*
X103699399Y-101998595D01*
X103699500Y-102001414D01*
X103699500Y-112998584D01*
X103699399Y-113001403D01*
X103682605Y-113236227D01*
X103681000Y-113247384D01*
X103631856Y-113473288D01*
X103628681Y-113484102D01*
X103547896Y-113700698D01*
X103543214Y-113710952D01*
X103432417Y-113913861D01*
X103426323Y-113923343D01*
X103287778Y-114108417D01*
X103280396Y-114116935D01*
X103116935Y-114280396D01*
X103108417Y-114287778D01*
X102923343Y-114426323D01*
X102913861Y-114432417D01*
X102710952Y-114543214D01*
X102700698Y-114547896D01*
X102484102Y-114628681D01*
X102473288Y-114631856D01*
X102247384Y-114681000D01*
X102236227Y-114682605D01*
X102001403Y-114699399D01*
X101998584Y-114699500D01*
X79712466Y-114699500D01*
X79661686Y-114681018D01*
X79634666Y-114634218D01*
X79644050Y-114581000D01*
X79656605Y-114564639D01*
X79986182Y-114235062D01*
X80350990Y-113870253D01*
X80399965Y-113847416D01*
X80429783Y-113850517D01*
X80494846Y-113870254D01*
X80496907Y-113870879D01*
X80695000Y-113890389D01*
X80893093Y-113870879D01*
X81083573Y-113813097D01*
X81259120Y-113719265D01*
X81412988Y-113592988D01*
X81539265Y-113439120D01*
X81569635Y-113382301D01*
X99739500Y-113382301D01*
X99739501Y-113382317D01*
X99754723Y-113478425D01*
X99754724Y-113478428D01*
X99754725Y-113478432D01*
X99797373Y-113562134D01*
X99813760Y-113594295D01*
X99905704Y-113686239D01*
X99905706Y-113686240D01*
X99905707Y-113686241D01*
X100021568Y-113745275D01*
X100117694Y-113760500D01*
X100117699Y-113760500D01*
X103082301Y-113760500D01*
X103082306Y-113760500D01*
X103178432Y-113745275D01*
X103294293Y-113686241D01*
X103386241Y-113594293D01*
X103445275Y-113478432D01*
X103460500Y-113382306D01*
X103460500Y-112317694D01*
X103447007Y-112232501D01*
X103445276Y-112221574D01*
X103445275Y-112221573D01*
X103445275Y-112221568D01*
X103386241Y-112105707D01*
X103386240Y-112105706D01*
X103386239Y-112105704D01*
X103294295Y-112013760D01*
X103276425Y-112004655D01*
X103178432Y-111954725D01*
X103178428Y-111954724D01*
X103178425Y-111954723D01*
X103082317Y-111939501D01*
X103082309Y-111939500D01*
X103082306Y-111939500D01*
X100117694Y-111939500D01*
X100117691Y-111939500D01*
X100117682Y-111939501D01*
X100021574Y-111954723D01*
X100021569Y-111954724D01*
X100021568Y-111954725D01*
X99994702Y-111968414D01*
X99905704Y-112013760D01*
X99813760Y-112105704D01*
X99793732Y-112145012D01*
X99754725Y-112221568D01*
X99754724Y-112221569D01*
X99754725Y-112221569D01*
X99754723Y-112221574D01*
X99739501Y-112317682D01*
X99739500Y-112317698D01*
X99739500Y-113382301D01*
X81569635Y-113382301D01*
X81633097Y-113263573D01*
X81690879Y-113073093D01*
X81710389Y-112875000D01*
X81690879Y-112676907D01*
X81670517Y-112609783D01*
X81673462Y-112555825D01*
X81690251Y-112530992D01*
X81900106Y-112321138D01*
X81949083Y-112298301D01*
X81955968Y-112298000D01*
X83960501Y-112298000D01*
X84011281Y-112316482D01*
X84038301Y-112363282D01*
X84039501Y-112377000D01*
X84039501Y-112471362D01*
X84041249Y-112486427D01*
X84042512Y-112497320D01*
X84089401Y-112603514D01*
X84089403Y-112603516D01*
X84089405Y-112603519D01*
X84171480Y-112685594D01*
X84171483Y-112685596D01*
X84171486Y-112685599D01*
X84277680Y-112732488D01*
X84303643Y-112735500D01*
X84696356Y-112735499D01*
X84722320Y-112732488D01*
X84828514Y-112685599D01*
X84910599Y-112603514D01*
X84957488Y-112497320D01*
X84960500Y-112471357D01*
X84960500Y-112377000D01*
X84978982Y-112326220D01*
X85025782Y-112299200D01*
X85039500Y-112298000D01*
X89060501Y-112298000D01*
X89111281Y-112316482D01*
X89138301Y-112363282D01*
X89139501Y-112377000D01*
X89139501Y-112982306D01*
X89154725Y-113078433D01*
X89203756Y-113174661D01*
X89213760Y-113194296D01*
X89305703Y-113286239D01*
X89305705Y-113286240D01*
X89305706Y-113286241D01*
X89421567Y-113345275D01*
X89517693Y-113360500D01*
X90682306Y-113360499D01*
X90778433Y-113345275D01*
X90894294Y-113286241D01*
X90986241Y-113194294D01*
X91045275Y-113078433D01*
X91060500Y-112982307D01*
X91060500Y-112239499D01*
X91078982Y-112188720D01*
X91125782Y-112161700D01*
X91139500Y-112160500D01*
X92271912Y-112160500D01*
X92276338Y-112160749D01*
X92282779Y-112161474D01*
X92317413Y-112165377D01*
X92377167Y-112154070D01*
X92437268Y-112145012D01*
X92437277Y-112145007D01*
X92442930Y-112143265D01*
X92442960Y-112143362D01*
X92448257Y-112141619D01*
X92448224Y-112141524D01*
X92453812Y-112139569D01*
X92507562Y-112111160D01*
X92518885Y-112105707D01*
X92562339Y-112084781D01*
X92562341Y-112084778D01*
X92567230Y-112081446D01*
X92567287Y-112081529D01*
X92571838Y-112078300D01*
X92571778Y-112078219D01*
X92576541Y-112074703D01*
X92576540Y-112074703D01*
X92576543Y-112074702D01*
X92619527Y-112031717D01*
X92664100Y-111990360D01*
X92664102Y-111990355D01*
X92664104Y-111990354D01*
X92667796Y-111985726D01*
X92667874Y-111985788D01*
X92675846Y-111975397D01*
X93667605Y-110983639D01*
X93716582Y-110960801D01*
X93723467Y-110960500D01*
X93948954Y-110960500D01*
X93999734Y-110978982D01*
X94012868Y-110993068D01*
X94013760Y-110994296D01*
X94105703Y-111086239D01*
X94105705Y-111086240D01*
X94105706Y-111086241D01*
X94221567Y-111145275D01*
X94317693Y-111160500D01*
X97382306Y-111160499D01*
X97478433Y-111145275D01*
X97594294Y-111086241D01*
X97686241Y-110994294D01*
X97745275Y-110878433D01*
X97760500Y-110782307D01*
X97760499Y-110217694D01*
X97745275Y-110121567D01*
X97686241Y-110005706D01*
X97686240Y-110005705D01*
X97686239Y-110005703D01*
X97594296Y-109913760D01*
X97567290Y-109900000D01*
X97478433Y-109854725D01*
X97478429Y-109854724D01*
X97478426Y-109854723D01*
X97382318Y-109839501D01*
X97382310Y-109839500D01*
X97382307Y-109839500D01*
X97382302Y-109839500D01*
X94317696Y-109839500D01*
X94248339Y-109850485D01*
X94221567Y-109854725D01*
X94182566Y-109874597D01*
X94105703Y-109913760D01*
X94013760Y-110005703D01*
X94012868Y-110006932D01*
X94011835Y-110007628D01*
X94009362Y-110010102D01*
X94008881Y-110009621D01*
X93968069Y-110037153D01*
X93948954Y-110039500D01*
X93528083Y-110039500D01*
X93523657Y-110039251D01*
X93482592Y-110034624D01*
X93482586Y-110034624D01*
X93454210Y-110039993D01*
X93422858Y-110045925D01*
X93362732Y-110054988D01*
X93362731Y-110054988D01*
X93362727Y-110054989D01*
X93357073Y-110056733D01*
X93357044Y-110056639D01*
X93351741Y-110058384D01*
X93351774Y-110058478D01*
X93346186Y-110060433D01*
X93334736Y-110066485D01*
X93292449Y-110088834D01*
X93255643Y-110106559D01*
X93237660Y-110115219D01*
X93232774Y-110118551D01*
X93232719Y-110118470D01*
X93228158Y-110121705D01*
X93228217Y-110121785D01*
X93223455Y-110125299D01*
X93180472Y-110168282D01*
X93135899Y-110209639D01*
X93132209Y-110214267D01*
X93132131Y-110214205D01*
X93124153Y-110224600D01*
X92132394Y-111216361D01*
X92083418Y-111239199D01*
X92076533Y-111239500D01*
X91139499Y-111239500D01*
X91088719Y-111221018D01*
X91061699Y-111174218D01*
X91060499Y-111160500D01*
X91060499Y-110417696D01*
X91060497Y-110417681D01*
X91045275Y-110321567D01*
X90986241Y-110205706D01*
X90986240Y-110205705D01*
X90986239Y-110205703D01*
X90894296Y-110113760D01*
X90892064Y-110112623D01*
X90778433Y-110054725D01*
X90778429Y-110054724D01*
X90778426Y-110054723D01*
X90682318Y-110039501D01*
X90682310Y-110039500D01*
X90682307Y-110039500D01*
X90682302Y-110039500D01*
X89517696Y-110039500D01*
X89439656Y-110051860D01*
X89421567Y-110054725D01*
X89369999Y-110081000D01*
X89305703Y-110113760D01*
X89213760Y-110205703D01*
X89194304Y-110243889D01*
X89154725Y-110321567D01*
X89154724Y-110321568D01*
X89154725Y-110321568D01*
X89154723Y-110321573D01*
X89139501Y-110417681D01*
X89139500Y-110417697D01*
X89139500Y-111298000D01*
X89121018Y-111348780D01*
X89074218Y-111375800D01*
X89060500Y-111377000D01*
X85039499Y-111377000D01*
X84988719Y-111358518D01*
X84961699Y-111311718D01*
X84960499Y-111298000D01*
X84960499Y-111241791D01*
X84978981Y-111191011D01*
X85025781Y-111163991D01*
X85061539Y-111165928D01*
X85195999Y-111204992D01*
X85196000Y-111204991D01*
X85196000Y-110216500D01*
X85704000Y-110216500D01*
X85704000Y-111204992D01*
X85863397Y-111158683D01*
X86006498Y-111074054D01*
X86006501Y-111074052D01*
X86124052Y-110956501D01*
X86124054Y-110956498D01*
X86208680Y-110813401D01*
X86255064Y-110653752D01*
X86255064Y-110653750D01*
X86258000Y-110616454D01*
X86258000Y-110216500D01*
X85704000Y-110216500D01*
X85196000Y-110216500D01*
X84642001Y-110216500D01*
X84642001Y-110616453D01*
X84644935Y-110653751D01*
X84691318Y-110813401D01*
X84695391Y-110820287D01*
X84705330Y-110873405D01*
X84678801Y-110920484D01*
X84628216Y-110939496D01*
X84627391Y-110939500D01*
X84303649Y-110939500D01*
X84303637Y-110939501D01*
X84277680Y-110942512D01*
X84171486Y-110989401D01*
X84171480Y-110989405D01*
X84089405Y-111071480D01*
X84089401Y-111071486D01*
X84042512Y-111177679D01*
X84039500Y-111203642D01*
X84039500Y-111298000D01*
X84021018Y-111348780D01*
X83974218Y-111375800D01*
X83960500Y-111377000D01*
X81760581Y-111377000D01*
X81756164Y-111376751D01*
X81752904Y-111376384D01*
X81704521Y-111352314D01*
X81682931Y-111302775D01*
X81698234Y-111250948D01*
X81703657Y-111244378D01*
X81770326Y-111171955D01*
X81893413Y-110983559D01*
X81893418Y-110983550D01*
X81983821Y-110777454D01*
X82031543Y-110589000D01*
X81126116Y-110589000D01*
X81154493Y-110544844D01*
X81195000Y-110406889D01*
X81195000Y-110263111D01*
X81154493Y-110125156D01*
X81126116Y-110081000D01*
X82031543Y-110081000D01*
X81983821Y-109892545D01*
X81893418Y-109686449D01*
X81893413Y-109686440D01*
X81770325Y-109498041D01*
X81770324Y-109498040D01*
X81617906Y-109332469D01*
X81617896Y-109332460D01*
X81440300Y-109194232D01*
X81440295Y-109194228D01*
X81242374Y-109087118D01*
X81029506Y-109014041D01*
X81029498Y-109014039D01*
X80949000Y-109000606D01*
X80949000Y-109901325D01*
X80837315Y-109850320D01*
X80730763Y-109835000D01*
X80659237Y-109835000D01*
X80552685Y-109850320D01*
X80441000Y-109901325D01*
X80441000Y-109000607D01*
X80440999Y-109000606D01*
X80360501Y-109014039D01*
X80360493Y-109014041D01*
X80147625Y-109087118D01*
X79949704Y-109194228D01*
X79949699Y-109194232D01*
X79772103Y-109332460D01*
X79772093Y-109332469D01*
X79619675Y-109498040D01*
X79619674Y-109498041D01*
X79496586Y-109686440D01*
X79496581Y-109686449D01*
X79406178Y-109892545D01*
X79358457Y-110081000D01*
X80263884Y-110081000D01*
X80235507Y-110125156D01*
X80195000Y-110263111D01*
X80195000Y-110406889D01*
X80235507Y-110544844D01*
X80263884Y-110589000D01*
X79358457Y-110589000D01*
X79406178Y-110777454D01*
X79496581Y-110983550D01*
X79496586Y-110983559D01*
X79619674Y-111171958D01*
X79619675Y-111171959D01*
X79772093Y-111337530D01*
X79772103Y-111337539D01*
X79949699Y-111475767D01*
X79949704Y-111475771D01*
X80147625Y-111582881D01*
X80360485Y-111655956D01*
X80440999Y-111669391D01*
X80441000Y-111669391D01*
X80441000Y-110768674D01*
X80552685Y-110819680D01*
X80659237Y-110835000D01*
X80730763Y-110835000D01*
X80837315Y-110819680D01*
X80949000Y-110768674D01*
X80949000Y-111669391D01*
X81029517Y-111655955D01*
X81061779Y-111644880D01*
X81115809Y-111645872D01*
X81156561Y-111681362D01*
X81164966Y-111734743D01*
X81143292Y-111775460D01*
X81039008Y-111879744D01*
X80990032Y-111902582D01*
X80960215Y-111899482D01*
X80912282Y-111884942D01*
X80893093Y-111879121D01*
X80695000Y-111859611D01*
X80496904Y-111879121D01*
X80496900Y-111879122D01*
X80306430Y-111936901D01*
X80306429Y-111936901D01*
X80130878Y-112030735D01*
X79977011Y-112157011D01*
X79850735Y-112310878D01*
X79756901Y-112486429D01*
X79756901Y-112486430D01*
X79699122Y-112676900D01*
X79699121Y-112676904D01*
X79679689Y-112874204D01*
X79679611Y-112875000D01*
X79681716Y-112896370D01*
X79699121Y-113073094D01*
X79699122Y-113073098D01*
X79704354Y-113090344D01*
X79719389Y-113139910D01*
X79719482Y-113140214D01*
X79716536Y-113194173D01*
X79699745Y-113219008D01*
X79593295Y-113325458D01*
X79544319Y-113348296D01*
X79492121Y-113334310D01*
X79461126Y-113290044D01*
X79460851Y-113250204D01*
X79491543Y-113129000D01*
X78586116Y-113129000D01*
X78614493Y-113084844D01*
X78655000Y-112946889D01*
X78655000Y-112803111D01*
X78614493Y-112665156D01*
X78586116Y-112621000D01*
X79491543Y-112621000D01*
X79443821Y-112432545D01*
X79353418Y-112226449D01*
X79353413Y-112226440D01*
X79230325Y-112038041D01*
X79230324Y-112038040D01*
X79077906Y-111872469D01*
X79077896Y-111872460D01*
X78900300Y-111734232D01*
X78900295Y-111734228D01*
X78702374Y-111627118D01*
X78489506Y-111554041D01*
X78489498Y-111554039D01*
X78409000Y-111540606D01*
X78409000Y-112441325D01*
X78297315Y-112390320D01*
X78190763Y-112375000D01*
X78119237Y-112375000D01*
X78012685Y-112390320D01*
X77900999Y-112441325D01*
X77900999Y-111540607D01*
X77900999Y-111540606D01*
X77820501Y-111554039D01*
X77820493Y-111554041D01*
X77607625Y-111627118D01*
X77409704Y-111734228D01*
X77409699Y-111734232D01*
X77232103Y-111872460D01*
X77232093Y-111872469D01*
X77079675Y-112038040D01*
X77079674Y-112038041D01*
X76956586Y-112226440D01*
X76956581Y-112226449D01*
X76866178Y-112432545D01*
X76818457Y-112621000D01*
X77723884Y-112621000D01*
X77695507Y-112665156D01*
X77655000Y-112803111D01*
X77655000Y-112946889D01*
X77695507Y-113084844D01*
X77723884Y-113129000D01*
X76818457Y-113129000D01*
X76866178Y-113317454D01*
X76956581Y-113523550D01*
X76956586Y-113523559D01*
X77079674Y-113711958D01*
X77079675Y-113711959D01*
X77167162Y-113806995D01*
X77187957Y-113856873D01*
X77171825Y-113908448D01*
X77126316Y-113937588D01*
X77109040Y-113939500D01*
X76082475Y-113939500D01*
X76031695Y-113921018D01*
X76004675Y-113874218D01*
X76014059Y-113821000D01*
X76045235Y-113790828D01*
X76045308Y-113790789D01*
X76179120Y-113719265D01*
X76332988Y-113592988D01*
X76459265Y-113439120D01*
X76553097Y-113263573D01*
X76610879Y-113073093D01*
X76630389Y-112875000D01*
X76610879Y-112676907D01*
X76608025Y-112667500D01*
X76553098Y-112486430D01*
X76553098Y-112486429D01*
X76529153Y-112441632D01*
X76459265Y-112310880D01*
X76459264Y-112310878D01*
X76332988Y-112157011D01*
X76179121Y-112030735D01*
X76018439Y-111944849D01*
X76003573Y-111936903D01*
X76003572Y-111936902D01*
X76003569Y-111936901D01*
X75813099Y-111879122D01*
X75813095Y-111879121D01*
X75643612Y-111862429D01*
X75615000Y-111859611D01*
X75614999Y-111859611D01*
X75416904Y-111879121D01*
X75416900Y-111879122D01*
X75226431Y-111936901D01*
X75226425Y-111936903D01*
X75141632Y-111982225D01*
X75088135Y-111989862D01*
X75048532Y-111968414D01*
X74806080Y-111725962D01*
X74515236Y-111435118D01*
X74513832Y-111433638D01*
X74484525Y-111401089D01*
X74484523Y-111401087D01*
X74484521Y-111401085D01*
X74484518Y-111401083D01*
X74484516Y-111401082D01*
X74460784Y-111390515D01*
X74449894Y-111384603D01*
X74448086Y-111383429D01*
X74428113Y-111370458D01*
X74428112Y-111370457D01*
X74428111Y-111370457D01*
X74419167Y-111369041D01*
X74399396Y-111363185D01*
X74391120Y-111359500D01*
X74391119Y-111359500D01*
X74365143Y-111359500D01*
X74352785Y-111358527D01*
X74327134Y-111354464D01*
X74327129Y-111354464D01*
X74318384Y-111356808D01*
X74297937Y-111359500D01*
X73617309Y-111359500D01*
X73566529Y-111341018D01*
X73539509Y-111294218D01*
X73548893Y-111241000D01*
X73580067Y-111210829D01*
X73639120Y-111179265D01*
X73792988Y-111052988D01*
X73919265Y-110899120D01*
X74013097Y-110723573D01*
X74070879Y-110533093D01*
X74090389Y-110335000D01*
X74599611Y-110335000D01*
X74602636Y-110365714D01*
X74619121Y-110533095D01*
X74619122Y-110533099D01*
X74676901Y-110723569D01*
X74676901Y-110723570D01*
X74770735Y-110899121D01*
X74897011Y-111052988D01*
X75050878Y-111179264D01*
X75050880Y-111179265D01*
X75226427Y-111273097D01*
X75226429Y-111273097D01*
X75226430Y-111273098D01*
X75372802Y-111317500D01*
X75416907Y-111330879D01*
X75615000Y-111350389D01*
X75813093Y-111330879D01*
X76003573Y-111273097D01*
X76179120Y-111179265D01*
X76332988Y-111052988D01*
X76459265Y-110899120D01*
X76553097Y-110723573D01*
X76610879Y-110533093D01*
X76630389Y-110335000D01*
X77139611Y-110335000D01*
X77159121Y-110533095D01*
X77159122Y-110533099D01*
X77216901Y-110723569D01*
X77216901Y-110723570D01*
X77310735Y-110899121D01*
X77437011Y-111052988D01*
X77590878Y-111179264D01*
X77590880Y-111179265D01*
X77766427Y-111273097D01*
X77766429Y-111273097D01*
X77766430Y-111273098D01*
X77912802Y-111317500D01*
X77956907Y-111330879D01*
X78155000Y-111350389D01*
X78353093Y-111330879D01*
X78543573Y-111273097D01*
X78719120Y-111179265D01*
X78872988Y-111052988D01*
X78999265Y-110899120D01*
X79093097Y-110723573D01*
X79150879Y-110533093D01*
X79170389Y-110335000D01*
X79150879Y-110136907D01*
X79147357Y-110125298D01*
X79093098Y-109946430D01*
X79093098Y-109946429D01*
X78999264Y-109770878D01*
X78872988Y-109617011D01*
X78719121Y-109490735D01*
X78568674Y-109410320D01*
X78543573Y-109396903D01*
X78543572Y-109396902D01*
X78543569Y-109396901D01*
X78353099Y-109339122D01*
X78353095Y-109339121D01*
X78221030Y-109326114D01*
X78155000Y-109319611D01*
X78154999Y-109319611D01*
X77956904Y-109339121D01*
X77956900Y-109339122D01*
X77766430Y-109396901D01*
X77766429Y-109396901D01*
X77590878Y-109490735D01*
X77437011Y-109617011D01*
X77310735Y-109770878D01*
X77216901Y-109946429D01*
X77216901Y-109946430D01*
X77159122Y-110136900D01*
X77159121Y-110136904D01*
X77139611Y-110335000D01*
X76630389Y-110335000D01*
X76610879Y-110136907D01*
X76607357Y-110125298D01*
X76553098Y-109946430D01*
X76553098Y-109946429D01*
X76459264Y-109770878D01*
X76332988Y-109617011D01*
X76179121Y-109490735D01*
X76028674Y-109410320D01*
X76003573Y-109396903D01*
X76003572Y-109396902D01*
X76003569Y-109396901D01*
X75813099Y-109339122D01*
X75813095Y-109339121D01*
X75615000Y-109319611D01*
X75416904Y-109339121D01*
X75416900Y-109339122D01*
X75226430Y-109396901D01*
X75226429Y-109396901D01*
X75050878Y-109490735D01*
X74897011Y-109617011D01*
X74770735Y-109770878D01*
X74676901Y-109946429D01*
X74676901Y-109946430D01*
X74619122Y-110136900D01*
X74619121Y-110136904D01*
X74602122Y-110309500D01*
X74599611Y-110335000D01*
X74090389Y-110335000D01*
X74070879Y-110136907D01*
X74067357Y-110125298D01*
X74013098Y-109946430D01*
X74013098Y-109946429D01*
X73919264Y-109770878D01*
X73792988Y-109617011D01*
X73639121Y-109490735D01*
X73488674Y-109410320D01*
X73463573Y-109396903D01*
X73463572Y-109396902D01*
X73463569Y-109396901D01*
X73273099Y-109339122D01*
X73273095Y-109339121D01*
X73075000Y-109319611D01*
X72876904Y-109339121D01*
X72876900Y-109339122D01*
X72686430Y-109396901D01*
X72686429Y-109396901D01*
X72510878Y-109490735D01*
X72357011Y-109617011D01*
X72230735Y-109770878D01*
X72136901Y-109946429D01*
X72136901Y-109946430D01*
X72079122Y-110136900D01*
X72079121Y-110136904D01*
X72062122Y-110309500D01*
X72059611Y-110335000D01*
X72062636Y-110365714D01*
X72079121Y-110533095D01*
X72079122Y-110533099D01*
X72136901Y-110723569D01*
X72136901Y-110723570D01*
X72230735Y-110899121D01*
X72357011Y-111052988D01*
X72510878Y-111179264D01*
X72510880Y-111179265D01*
X72569931Y-111210828D01*
X72606003Y-111251066D01*
X72607771Y-111305076D01*
X72574408Y-111347587D01*
X72532691Y-111359500D01*
X72224695Y-111359500D01*
X72173915Y-111341018D01*
X72168834Y-111336361D01*
X69485979Y-108653506D01*
X69463141Y-108604530D01*
X69477127Y-108552332D01*
X69485972Y-108541791D01*
X69526481Y-108501282D01*
X69575459Y-108478445D01*
X69582342Y-108478145D01*
X70355014Y-108478145D01*
X70357081Y-108478199D01*
X70363918Y-108478557D01*
X70400817Y-108480491D01*
X70425072Y-108471179D01*
X70436951Y-108467661D01*
X70462361Y-108462261D01*
X70469687Y-108456937D01*
X70487816Y-108447095D01*
X70496265Y-108443852D01*
X70496265Y-108443851D01*
X70496267Y-108443851D01*
X70514633Y-108425483D01*
X70524061Y-108417432D01*
X70525392Y-108416465D01*
X70545074Y-108402166D01*
X70549601Y-108394323D01*
X70562152Y-108377964D01*
X71301480Y-107638637D01*
X71350455Y-107615801D01*
X71357340Y-107615500D01*
X79242659Y-107615500D01*
X79244726Y-107615554D01*
X79251563Y-107615912D01*
X79288462Y-107617846D01*
X79312717Y-107608534D01*
X79324596Y-107605016D01*
X79350006Y-107599616D01*
X79357332Y-107594292D01*
X79375461Y-107584450D01*
X79383910Y-107581207D01*
X79383910Y-107581206D01*
X79383912Y-107581206D01*
X79402278Y-107562838D01*
X79411706Y-107554787D01*
X79432719Y-107539521D01*
X79437246Y-107531678D01*
X79449800Y-107515316D01*
X79557813Y-107407303D01*
X82089500Y-107407303D01*
X82097651Y-107458769D01*
X82104725Y-107503433D01*
X82144353Y-107581207D01*
X82163760Y-107619296D01*
X82255703Y-107711239D01*
X82256932Y-107712132D01*
X82257628Y-107713164D01*
X82260102Y-107715638D01*
X82259621Y-107716118D01*
X82287153Y-107756931D01*
X82289500Y-107776046D01*
X82289500Y-108139207D01*
X82287520Y-108156784D01*
X82285599Y-108165197D01*
X82286383Y-108175657D01*
X82285801Y-108192794D01*
X82284765Y-108200002D01*
X82284765Y-108200003D01*
X82289060Y-108229882D01*
X82289351Y-108232541D01*
X82289498Y-108234503D01*
X82291853Y-108250137D01*
X82292184Y-108253069D01*
X82295973Y-108303623D01*
X82295974Y-108303630D01*
X82298448Y-108309933D01*
X82303102Y-108327541D01*
X82303610Y-108331076D01*
X82303766Y-108331606D01*
X82304920Y-108336827D01*
X82304985Y-108337259D01*
X82304987Y-108337266D01*
X82326984Y-108382944D01*
X82328165Y-108385651D01*
X82346690Y-108432851D01*
X82346691Y-108432852D01*
X82348590Y-108435234D01*
X82358127Y-108450759D01*
X82362861Y-108458125D01*
X82365212Y-108462329D01*
X82365217Y-108462337D01*
X82365219Y-108462339D01*
X82399704Y-108499505D01*
X82401623Y-108501736D01*
X82433237Y-108541379D01*
X82436403Y-108544316D01*
X82440786Y-108548220D01*
X82441064Y-108547900D01*
X82449605Y-108555300D01*
X82449501Y-108555419D01*
X82458836Y-108563233D01*
X82459640Y-108564100D01*
X82459642Y-108564101D01*
X82503540Y-108589446D01*
X82506042Y-108591018D01*
X82547937Y-108619582D01*
X82547939Y-108619583D01*
X82548234Y-108619674D01*
X82553013Y-108621493D01*
X82556728Y-108623189D01*
X82556734Y-108623193D01*
X82558360Y-108623670D01*
X82575620Y-108631062D01*
X82576555Y-108631602D01*
X82592906Y-108644151D01*
X83066361Y-109117606D01*
X83089199Y-109166582D01*
X83089500Y-109173467D01*
X83089500Y-110596350D01*
X83089501Y-110596362D01*
X83091832Y-110616453D01*
X83092512Y-110622320D01*
X83139401Y-110728514D01*
X83139403Y-110728516D01*
X83139405Y-110728519D01*
X83221480Y-110810594D01*
X83221483Y-110810596D01*
X83221486Y-110810599D01*
X83327680Y-110857488D01*
X83353643Y-110860500D01*
X83746356Y-110860499D01*
X83772320Y-110857488D01*
X83878514Y-110810599D01*
X83960599Y-110728514D01*
X84007488Y-110622320D01*
X84010500Y-110596357D01*
X84010500Y-109963769D01*
X84010500Y-109708500D01*
X84642000Y-109708500D01*
X85196000Y-109708500D01*
X85196000Y-108720007D01*
X85704000Y-108720007D01*
X85704000Y-109708500D01*
X86257999Y-109708500D01*
X86257999Y-109308547D01*
X86255064Y-109271248D01*
X86208680Y-109111598D01*
X86124054Y-108968501D01*
X86124052Y-108968498D01*
X86006501Y-108850947D01*
X86006498Y-108850945D01*
X85863401Y-108766319D01*
X85704000Y-108720007D01*
X85196000Y-108720007D01*
X85036598Y-108766319D01*
X84893501Y-108850945D01*
X84893498Y-108850947D01*
X84775947Y-108968498D01*
X84775945Y-108968501D01*
X84691319Y-109111598D01*
X84644937Y-109271242D01*
X84644935Y-109271249D01*
X84642000Y-109308546D01*
X84642000Y-109708500D01*
X84010500Y-109708500D01*
X84010500Y-108978088D01*
X84010749Y-108973662D01*
X84014485Y-108940500D01*
X84015377Y-108932587D01*
X84004070Y-108872832D01*
X83995012Y-108812732D01*
X83995010Y-108812727D01*
X83993266Y-108807070D01*
X83993362Y-108807040D01*
X83991620Y-108801743D01*
X83991524Y-108801777D01*
X83989568Y-108796187D01*
X83973782Y-108766319D01*
X83961160Y-108742437D01*
X83934781Y-108687661D01*
X83934778Y-108687658D01*
X83931446Y-108682770D01*
X83931528Y-108682713D01*
X83928298Y-108678162D01*
X83928218Y-108678222D01*
X83924705Y-108673463D01*
X83924702Y-108673457D01*
X83881717Y-108630472D01*
X83840360Y-108585900D01*
X83840359Y-108585899D01*
X83835728Y-108582206D01*
X83835790Y-108582128D01*
X83825396Y-108574151D01*
X83233639Y-107982394D01*
X83210801Y-107933418D01*
X83210500Y-107926533D01*
X83210500Y-107776046D01*
X83228982Y-107725266D01*
X83243068Y-107712132D01*
X83244291Y-107711242D01*
X83244294Y-107711241D01*
X83336241Y-107619294D01*
X83395275Y-107503433D01*
X83410500Y-107407307D01*
X83410500Y-107154000D01*
X83642000Y-107154000D01*
X83642000Y-107425504D01*
X83652605Y-107529323D01*
X83708341Y-107697525D01*
X83801364Y-107848338D01*
X83801366Y-107848341D01*
X83926658Y-107973633D01*
X83926661Y-107973635D01*
X84077474Y-108066658D01*
X84245676Y-108122394D01*
X84245675Y-108122394D01*
X84349495Y-108133000D01*
X84396000Y-108133000D01*
X84396000Y-107154000D01*
X83642000Y-107154000D01*
X83410500Y-107154000D01*
X83410499Y-106392694D01*
X83395275Y-106296567D01*
X83336241Y-106180706D01*
X83336240Y-106180705D01*
X83336239Y-106180703D01*
X83244296Y-106088760D01*
X83218825Y-106075782D01*
X83128433Y-106029725D01*
X83128429Y-106029724D01*
X83128426Y-106029723D01*
X83032318Y-106014501D01*
X83032310Y-106014500D01*
X83032307Y-106014500D01*
X83032302Y-106014500D01*
X82467696Y-106014500D01*
X82391930Y-106026500D01*
X82371567Y-106029725D01*
X82314698Y-106058700D01*
X82255703Y-106088760D01*
X82163760Y-106180703D01*
X82140069Y-106227200D01*
X82104725Y-106296567D01*
X82104724Y-106296568D01*
X82104725Y-106296568D01*
X82104723Y-106296573D01*
X82089501Y-106392681D01*
X82089500Y-106392697D01*
X82089500Y-107407303D01*
X79557813Y-107407303D01*
X81266478Y-105698639D01*
X81315455Y-105675801D01*
X81322340Y-105675500D01*
X83892689Y-105675500D01*
X83943469Y-105693982D01*
X83970489Y-105740782D01*
X83961105Y-105794000D01*
X83934162Y-105821739D01*
X83926656Y-105826368D01*
X83801366Y-105951658D01*
X83801364Y-105951661D01*
X83708341Y-106102474D01*
X83652605Y-106270676D01*
X83642000Y-106374495D01*
X83642000Y-106646000D01*
X84825000Y-106646000D01*
X84875780Y-106664482D01*
X84902800Y-106711282D01*
X84904000Y-106725000D01*
X84904000Y-108133000D01*
X84950505Y-108133000D01*
X85054323Y-108122394D01*
X85222525Y-108066658D01*
X85373338Y-107973635D01*
X85373341Y-107973633D01*
X85498633Y-107848341D01*
X85498635Y-107848338D01*
X85591658Y-107697525D01*
X85639217Y-107554000D01*
X88792000Y-107554000D01*
X88792000Y-108600504D01*
X88802605Y-108704323D01*
X88858341Y-108872525D01*
X88951364Y-109023338D01*
X88951366Y-109023341D01*
X89076658Y-109148633D01*
X89076661Y-109148635D01*
X89227474Y-109241658D01*
X89395676Y-109297394D01*
X89395675Y-109297394D01*
X89499495Y-109308000D01*
X89846000Y-109308000D01*
X89846000Y-107554000D01*
X90354000Y-107554000D01*
X90354000Y-109308000D01*
X90700505Y-109308000D01*
X90804323Y-109297394D01*
X90972525Y-109241658D01*
X91123338Y-109148635D01*
X91123341Y-109148633D01*
X91248633Y-109023341D01*
X91248635Y-109023338D01*
X91341658Y-108872525D01*
X91380933Y-108754000D01*
X93592000Y-108754000D01*
X93592000Y-108800504D01*
X93602605Y-108904323D01*
X93658341Y-109072525D01*
X93751364Y-109223338D01*
X93751366Y-109223341D01*
X93876658Y-109348633D01*
X93876661Y-109348635D01*
X94027474Y-109441658D01*
X94195676Y-109497394D01*
X94195675Y-109497394D01*
X94299495Y-109508000D01*
X95596000Y-109508000D01*
X95596000Y-108754000D01*
X96104000Y-108754000D01*
X96104000Y-109508000D01*
X97400505Y-109508000D01*
X97504323Y-109497394D01*
X97672525Y-109441658D01*
X97823338Y-109348635D01*
X97823341Y-109348633D01*
X97948633Y-109223341D01*
X97948635Y-109223338D01*
X98041658Y-109072525D01*
X98097394Y-108904323D01*
X98108000Y-108800504D01*
X98108000Y-108754000D01*
X96104000Y-108754000D01*
X95596000Y-108754000D01*
X93592000Y-108754000D01*
X91380933Y-108754000D01*
X91397394Y-108704323D01*
X91408000Y-108600504D01*
X91408000Y-108246000D01*
X93592000Y-108246000D01*
X95596000Y-108246000D01*
X95596000Y-107492000D01*
X96104000Y-107492000D01*
X96104000Y-108246000D01*
X98108000Y-108246000D01*
X98108000Y-108199495D01*
X98097394Y-108095676D01*
X98041658Y-107927474D01*
X97948635Y-107776661D01*
X97948633Y-107776658D01*
X97823341Y-107651366D01*
X97823338Y-107651364D01*
X97672525Y-107558341D01*
X97504323Y-107502605D01*
X97504324Y-107502605D01*
X97400505Y-107492000D01*
X96104000Y-107492000D01*
X95596000Y-107492000D01*
X94299495Y-107492000D01*
X94195676Y-107502605D01*
X94027474Y-107558341D01*
X93876661Y-107651364D01*
X93876658Y-107651366D01*
X93751366Y-107776658D01*
X93751364Y-107776661D01*
X93658341Y-107927474D01*
X93602605Y-108095676D01*
X93592000Y-108199495D01*
X93592000Y-108246000D01*
X91408000Y-108246000D01*
X91408000Y-107554000D01*
X90354000Y-107554000D01*
X89846000Y-107554000D01*
X88792000Y-107554000D01*
X85639217Y-107554000D01*
X85647394Y-107529323D01*
X85658000Y-107425504D01*
X85658000Y-107303744D01*
X85676482Y-107252964D01*
X85723282Y-107225944D01*
X85749357Y-107225717D01*
X85803460Y-107234286D01*
X85874999Y-107245617D01*
X85875000Y-107245617D01*
X85875002Y-107245617D01*
X86000642Y-107225717D01*
X86003433Y-107225275D01*
X86119294Y-107166241D01*
X86165540Y-107119995D01*
X86215638Y-107069898D01*
X86216956Y-107071216D01*
X86254924Y-107045595D01*
X86308668Y-107051233D01*
X86344440Y-107086380D01*
X86363757Y-107124292D01*
X86363759Y-107124295D01*
X86455703Y-107216239D01*
X86455705Y-107216240D01*
X86455706Y-107216241D01*
X86571567Y-107275275D01*
X86571572Y-107275275D01*
X86571573Y-107275276D01*
X86699998Y-107295617D01*
X86700000Y-107295617D01*
X86700002Y-107295617D01*
X86795615Y-107280472D01*
X86828433Y-107275275D01*
X86944294Y-107216241D01*
X87036241Y-107124294D01*
X87076134Y-107046000D01*
X88792000Y-107046000D01*
X89846000Y-107046000D01*
X89846000Y-105292000D01*
X90354000Y-105292000D01*
X90354000Y-107046000D01*
X91408000Y-107046000D01*
X91408000Y-106682301D01*
X99739500Y-106682301D01*
X99739501Y-106682317D01*
X99754723Y-106778425D01*
X99754724Y-106778428D01*
X99754725Y-106778432D01*
X99811317Y-106889500D01*
X99813760Y-106894295D01*
X99905704Y-106986239D01*
X99905706Y-106986240D01*
X99905707Y-106986241D01*
X100021568Y-107045275D01*
X100021573Y-107045275D01*
X100021574Y-107045276D01*
X100051400Y-107050000D01*
X100117694Y-107060500D01*
X100117699Y-107060500D01*
X103082301Y-107060500D01*
X103082306Y-107060500D01*
X103178432Y-107045275D01*
X103294293Y-106986241D01*
X103386241Y-106894293D01*
X103445275Y-106778432D01*
X103460500Y-106682306D01*
X103460500Y-105617694D01*
X103445275Y-105521568D01*
X103386241Y-105405707D01*
X103386240Y-105405706D01*
X103386239Y-105405704D01*
X103294295Y-105313760D01*
X103286933Y-105310009D01*
X103178432Y-105254725D01*
X103178428Y-105254724D01*
X103178425Y-105254723D01*
X103082317Y-105239501D01*
X103082309Y-105239500D01*
X103082306Y-105239500D01*
X100117694Y-105239500D01*
X100117691Y-105239500D01*
X100117682Y-105239501D01*
X100021574Y-105254723D01*
X100021569Y-105254724D01*
X100021568Y-105254725D01*
X99964699Y-105283700D01*
X99905704Y-105313760D01*
X99813760Y-105405704D01*
X99790496Y-105451364D01*
X99754725Y-105521568D01*
X99754724Y-105521569D01*
X99754725Y-105521569D01*
X99754723Y-105521574D01*
X99739501Y-105617682D01*
X99739500Y-105617698D01*
X99739500Y-106682301D01*
X91408000Y-106682301D01*
X91408000Y-105999495D01*
X91397394Y-105895676D01*
X91341658Y-105727474D01*
X91248635Y-105576661D01*
X91248633Y-105576658D01*
X91123341Y-105451366D01*
X91123338Y-105451364D01*
X90972525Y-105358341D01*
X90804323Y-105302605D01*
X90804324Y-105302605D01*
X90700505Y-105292000D01*
X90354000Y-105292000D01*
X89846000Y-105292000D01*
X89499495Y-105292000D01*
X89395676Y-105302605D01*
X89227474Y-105358341D01*
X89076661Y-105451364D01*
X89076658Y-105451366D01*
X88951366Y-105576658D01*
X88951364Y-105576661D01*
X88858341Y-105727474D01*
X88802605Y-105895676D01*
X88792000Y-105999495D01*
X88792000Y-107046000D01*
X87076134Y-107046000D01*
X87095275Y-107008433D01*
X87102100Y-106965340D01*
X87115617Y-106880002D01*
X87115617Y-106879998D01*
X87107257Y-106827215D01*
X87100381Y-106783805D01*
X87110692Y-106730760D01*
X87152688Y-106696752D01*
X87206719Y-106697695D01*
X87214271Y-106701057D01*
X87221567Y-106704775D01*
X87221572Y-106704775D01*
X87221573Y-106704776D01*
X87349998Y-106725117D01*
X87350000Y-106725117D01*
X87350002Y-106725117D01*
X87445615Y-106709972D01*
X87478433Y-106704775D01*
X87594294Y-106645741D01*
X87686241Y-106553794D01*
X87745275Y-106437933D01*
X87761691Y-106334286D01*
X87765617Y-106309502D01*
X87765617Y-106309497D01*
X87745276Y-106181073D01*
X87745275Y-106181072D01*
X87745275Y-106181067D01*
X87686241Y-106065206D01*
X87686240Y-106065205D01*
X87686239Y-106065203D01*
X87594296Y-105973260D01*
X87585081Y-105968565D01*
X87478433Y-105914225D01*
X87478429Y-105914224D01*
X87478426Y-105914223D01*
X87350002Y-105893883D01*
X87349998Y-105893883D01*
X87221573Y-105914223D01*
X87221568Y-105914224D01*
X87221567Y-105914225D01*
X87171611Y-105939679D01*
X87105703Y-105973260D01*
X87013760Y-106065203D01*
X87000407Y-106091410D01*
X86954725Y-106181067D01*
X86954724Y-106181068D01*
X86954725Y-106181068D01*
X86954723Y-106181073D01*
X86934383Y-106309497D01*
X86934383Y-106309502D01*
X86949618Y-106405693D01*
X86939307Y-106458739D01*
X86897311Y-106492747D01*
X86843280Y-106491804D01*
X86835729Y-106488442D01*
X86828435Y-106484726D01*
X86828434Y-106484725D01*
X86828433Y-106484725D01*
X86828431Y-106484724D01*
X86828426Y-106484723D01*
X86700002Y-106464383D01*
X86699998Y-106464383D01*
X86571573Y-106484723D01*
X86571568Y-106484724D01*
X86571567Y-106484725D01*
X86553837Y-106493759D01*
X86455703Y-106543760D01*
X86359362Y-106640102D01*
X86358047Y-106638787D01*
X86320050Y-106664410D01*
X86266308Y-106658754D01*
X86230559Y-106623620D01*
X86211241Y-106585706D01*
X86211240Y-106585705D01*
X86211239Y-106585703D01*
X86119296Y-106493760D01*
X86103787Y-106485858D01*
X86003433Y-106434725D01*
X86003429Y-106434724D01*
X86003426Y-106434723D01*
X85875002Y-106414383D01*
X85874997Y-106414383D01*
X85747928Y-106434508D01*
X85694882Y-106424197D01*
X85660874Y-106382200D01*
X85656979Y-106364509D01*
X85649052Y-106286905D01*
X85662279Y-106234509D01*
X85706090Y-106202874D01*
X85740000Y-106200850D01*
X85800927Y-106210500D01*
X85867958Y-106221117D01*
X85867959Y-106221117D01*
X85867961Y-106221117D01*
X85963574Y-106205972D01*
X85996392Y-106200775D01*
X86112253Y-106141741D01*
X86204200Y-106049794D01*
X86263234Y-105933933D01*
X86273022Y-105872134D01*
X86283576Y-105805502D01*
X86283576Y-105805497D01*
X86263235Y-105677073D01*
X86263234Y-105677072D01*
X86263234Y-105677067D01*
X86204200Y-105561206D01*
X86204199Y-105561205D01*
X86204198Y-105561203D01*
X86112255Y-105469260D01*
X86091308Y-105458587D01*
X85996392Y-105410225D01*
X85996388Y-105410224D01*
X85996385Y-105410223D01*
X85867961Y-105389883D01*
X85867957Y-105389883D01*
X85739532Y-105410223D01*
X85739527Y-105410224D01*
X85739526Y-105410225D01*
X85720856Y-105419738D01*
X85623662Y-105469260D01*
X85531719Y-105561203D01*
X85509595Y-105604625D01*
X85472684Y-105677067D01*
X85472683Y-105677068D01*
X85472684Y-105677068D01*
X85472682Y-105677073D01*
X85460853Y-105751756D01*
X85434654Y-105799020D01*
X85384204Y-105818385D01*
X85341353Y-105806635D01*
X85222525Y-105733341D01*
X85054323Y-105677605D01*
X85054324Y-105677605D01*
X84995776Y-105671624D01*
X84947137Y-105648076D01*
X84925014Y-105598773D01*
X84939758Y-105546784D01*
X84947932Y-105537184D01*
X85766480Y-104718637D01*
X85815455Y-104695801D01*
X85822340Y-104695500D01*
X94702659Y-104695500D01*
X94704726Y-104695554D01*
X94711563Y-104695912D01*
X94748462Y-104697846D01*
X94772717Y-104688534D01*
X94784596Y-104685016D01*
X94810006Y-104679616D01*
X94817332Y-104674292D01*
X94835461Y-104664450D01*
X94843910Y-104661207D01*
X94843910Y-104661206D01*
X94843912Y-104661206D01*
X94862278Y-104642838D01*
X94871706Y-104634787D01*
X94872522Y-104634194D01*
X94892719Y-104619521D01*
X94897246Y-104611678D01*
X94909800Y-104595316D01*
X96504640Y-103000478D01*
X96553615Y-102977641D01*
X96605813Y-102991627D01*
X96636808Y-103035893D01*
X96639500Y-103056340D01*
X96639499Y-103215805D01*
X96648812Y-103262623D01*
X96684285Y-103315714D01*
X96696687Y-103324000D01*
X96737376Y-103351187D01*
X96784194Y-103360500D01*
X97715806Y-103360500D01*
X97762624Y-103351187D01*
X97815714Y-103315714D01*
X97851187Y-103262624D01*
X97860500Y-103215806D01*
X97860500Y-103019500D01*
X97878982Y-102968720D01*
X97925782Y-102941700D01*
X97939500Y-102940500D01*
X100660500Y-102940500D01*
X100711280Y-102958982D01*
X100738300Y-103005782D01*
X100739500Y-103019500D01*
X100739500Y-103215805D01*
X100748812Y-103262623D01*
X100784285Y-103315714D01*
X100796687Y-103324000D01*
X100837376Y-103351187D01*
X100884194Y-103360500D01*
X101815806Y-103360500D01*
X101862624Y-103351187D01*
X101915714Y-103315714D01*
X101951187Y-103262624D01*
X101960500Y-103215806D01*
X101960500Y-102184194D01*
X101954751Y-102155293D01*
X101962971Y-102101885D01*
X102003600Y-102066254D01*
X102004627Y-102065862D01*
X102045962Y-102050445D01*
X102162903Y-101962903D01*
X102250444Y-101845964D01*
X102250445Y-101845962D01*
X102301493Y-101709096D01*
X102301495Y-101709088D01*
X102308000Y-101648596D01*
X102308000Y-101354000D01*
X100392000Y-101354000D01*
X100392000Y-101648596D01*
X100398504Y-101709088D01*
X100398506Y-101709096D01*
X100449554Y-101845962D01*
X100449555Y-101845964D01*
X100537096Y-101962903D01*
X100654038Y-102050446D01*
X100695373Y-102065863D01*
X100736493Y-102100925D01*
X100745455Y-102154216D01*
X100745248Y-102155293D01*
X100739500Y-102184192D01*
X100739500Y-102380500D01*
X100721018Y-102431280D01*
X100674218Y-102458300D01*
X100660500Y-102459500D01*
X97939500Y-102459500D01*
X97888720Y-102441018D01*
X97861700Y-102394218D01*
X97860500Y-102380500D01*
X97860500Y-102184195D01*
X97860500Y-102184194D01*
X97854751Y-102155293D01*
X97862971Y-102101885D01*
X97903600Y-102066254D01*
X97904627Y-102065862D01*
X97945962Y-102050445D01*
X98062903Y-101962903D01*
X98150444Y-101845964D01*
X98150445Y-101845962D01*
X98201493Y-101709096D01*
X98201495Y-101709088D01*
X98208000Y-101648596D01*
X98208000Y-101354000D01*
X96292000Y-101354000D01*
X96292000Y-101648596D01*
X96298504Y-101709088D01*
X96298506Y-101709096D01*
X96349554Y-101845962D01*
X96349555Y-101845964D01*
X96437096Y-101962903D01*
X96554038Y-102050446D01*
X96595373Y-102065863D01*
X96636493Y-102100925D01*
X96645455Y-102154216D01*
X96645248Y-102155293D01*
X96639500Y-102184192D01*
X96639500Y-102380500D01*
X96621018Y-102431280D01*
X96574218Y-102458300D01*
X96560500Y-102459500D01*
X96472341Y-102459500D01*
X96470274Y-102459446D01*
X96436590Y-102457680D01*
X96426538Y-102457154D01*
X96426537Y-102457154D01*
X96426536Y-102457154D01*
X96402280Y-102466464D01*
X96390403Y-102469982D01*
X96364992Y-102475384D01*
X96357659Y-102480711D01*
X96339551Y-102490543D01*
X96331087Y-102493792D01*
X96312715Y-102512164D01*
X96303295Y-102520210D01*
X96282281Y-102535479D01*
X96282280Y-102535479D01*
X96277750Y-102543326D01*
X96265198Y-102559681D01*
X95911759Y-102913122D01*
X95851913Y-102972968D01*
X95802936Y-102995806D01*
X95750739Y-102981820D01*
X95719743Y-102937554D01*
X95723783Y-102885196D01*
X95724623Y-102883295D01*
X95737634Y-102853827D01*
X95740500Y-102829123D01*
X95740499Y-102370878D01*
X95737634Y-102346173D01*
X95693010Y-102245109D01*
X95693007Y-102245106D01*
X95693005Y-102245103D01*
X95614893Y-102166991D01*
X95614890Y-102166989D01*
X95597588Y-102159349D01*
X95558601Y-102121929D01*
X95550500Y-102087081D01*
X95550500Y-101812917D01*
X95568982Y-101762137D01*
X95597588Y-101740649D01*
X95614891Y-101733010D01*
X95693010Y-101654891D01*
X95737634Y-101553827D01*
X95740500Y-101529123D01*
X95740499Y-101070878D01*
X95737634Y-101046173D01*
X95693010Y-100945109D01*
X95693007Y-100945106D01*
X95693005Y-100945103D01*
X95614896Y-100866994D01*
X95614890Y-100866989D01*
X95546003Y-100836573D01*
X95513827Y-100822366D01*
X95489123Y-100819500D01*
X95489122Y-100819500D01*
X95130883Y-100819500D01*
X95130871Y-100819501D01*
X95106173Y-100822366D01*
X95005109Y-100866990D01*
X95005103Y-100866994D01*
X94926994Y-100945103D01*
X94926989Y-100945109D01*
X94882366Y-101046173D01*
X94879500Y-101070874D01*
X94879500Y-101529116D01*
X94879501Y-101529128D01*
X94881840Y-101549294D01*
X94882366Y-101553827D01*
X94926990Y-101654891D01*
X94926992Y-101654893D01*
X94926994Y-101654896D01*
X95005103Y-101733005D01*
X95005108Y-101733009D01*
X95005109Y-101733010D01*
X95022410Y-101740649D01*
X95061397Y-101778065D01*
X95069500Y-101812917D01*
X95069500Y-102087081D01*
X95051018Y-102137861D01*
X95022412Y-102159349D01*
X95005109Y-102166989D01*
X95005106Y-102166991D01*
X94926994Y-102245103D01*
X94926989Y-102245109D01*
X94882366Y-102346173D01*
X94879500Y-102370874D01*
X94879500Y-102829116D01*
X94879501Y-102829128D01*
X94881647Y-102847624D01*
X94882366Y-102853827D01*
X94926990Y-102954891D01*
X94926992Y-102954893D01*
X94926994Y-102954896D01*
X95005103Y-103033005D01*
X95005108Y-103033009D01*
X95005109Y-103033010D01*
X95022410Y-103040649D01*
X95061397Y-103078065D01*
X95069500Y-103112917D01*
X95069500Y-103284253D01*
X95051018Y-103335033D01*
X95046361Y-103340114D01*
X94505115Y-103881361D01*
X94456139Y-103904199D01*
X94449254Y-103904500D01*
X93237561Y-103904500D01*
X93186781Y-103886018D01*
X93159761Y-103839218D01*
X93169145Y-103786000D01*
X93170323Y-103784027D01*
X93237752Y-103674707D01*
X93292569Y-103509278D01*
X93303000Y-103407172D01*
X93303000Y-103324000D01*
X91337000Y-103324000D01*
X91337000Y-103407172D01*
X91347430Y-103509278D01*
X91402247Y-103674707D01*
X91469677Y-103784027D01*
X91480605Y-103836950D01*
X91454958Y-103884515D01*
X91404737Y-103904467D01*
X91402439Y-103904500D01*
X85568926Y-103904500D01*
X85566858Y-103904446D01*
X85544121Y-103903254D01*
X85523131Y-103902154D01*
X85523130Y-103902154D01*
X85523129Y-103902154D01*
X85523126Y-103902154D01*
X85498879Y-103911462D01*
X85486998Y-103914982D01*
X85461587Y-103920384D01*
X85454258Y-103925709D01*
X85436141Y-103935546D01*
X85427681Y-103938793D01*
X85409312Y-103957162D01*
X85399891Y-103965208D01*
X85378875Y-103980478D01*
X85378872Y-103980481D01*
X85374343Y-103988326D01*
X85361790Y-104004684D01*
X84505114Y-104861361D01*
X84456139Y-104884199D01*
X84449254Y-104884500D01*
X81068926Y-104884500D01*
X81066858Y-104884446D01*
X81044121Y-104883254D01*
X81023131Y-104882154D01*
X81023130Y-104882154D01*
X81023129Y-104882154D01*
X81023126Y-104882154D01*
X80998879Y-104891462D01*
X80986998Y-104894982D01*
X80961587Y-104900384D01*
X80954258Y-104905709D01*
X80936141Y-104915546D01*
X80927681Y-104918793D01*
X80909312Y-104937162D01*
X80899891Y-104945208D01*
X80878875Y-104960478D01*
X80878872Y-104960481D01*
X80874343Y-104968326D01*
X80861790Y-104984684D01*
X80342861Y-105503614D01*
X80293885Y-105526452D01*
X80241688Y-105512466D01*
X80210692Y-105468200D01*
X80208000Y-105447753D01*
X80208000Y-105204000D01*
X79454000Y-105204000D01*
X79454000Y-105908000D01*
X79747754Y-105908000D01*
X79798534Y-105926482D01*
X79825554Y-105973282D01*
X79816170Y-106026500D01*
X79803615Y-106042861D01*
X79045115Y-106801361D01*
X78996139Y-106824199D01*
X78989254Y-106824500D01*
X77191340Y-106824500D01*
X77140560Y-106806018D01*
X77113540Y-106759218D01*
X77122924Y-106706000D01*
X77135479Y-106689639D01*
X77289407Y-106535711D01*
X77764906Y-106060211D01*
X77766369Y-106058824D01*
X77798915Y-106029521D01*
X77809479Y-106005792D01*
X77815394Y-105994898D01*
X77819249Y-105988962D01*
X77829543Y-105973112D01*
X77830959Y-105964168D01*
X77836817Y-105944389D01*
X77840500Y-105936120D01*
X77840500Y-105910142D01*
X77841473Y-105897785D01*
X77843697Y-105883742D01*
X77845536Y-105872132D01*
X77844558Y-105868482D01*
X77843191Y-105863377D01*
X77840500Y-105842935D01*
X77840500Y-105639500D01*
X77858982Y-105588720D01*
X77905782Y-105561700D01*
X77919500Y-105560500D01*
X78115804Y-105560500D01*
X78115806Y-105560500D01*
X78144705Y-105554751D01*
X78198114Y-105562971D01*
X78233745Y-105603599D01*
X78234136Y-105604625D01*
X78249554Y-105645962D01*
X78249555Y-105645964D01*
X78337096Y-105762903D01*
X78454035Y-105850444D01*
X78454037Y-105850445D01*
X78590903Y-105901493D01*
X78590911Y-105901495D01*
X78651404Y-105908000D01*
X78946000Y-105908000D01*
X78946000Y-103992000D01*
X79454000Y-103992000D01*
X79454000Y-104696000D01*
X80208000Y-104696000D01*
X80208000Y-104451403D01*
X80201495Y-104390911D01*
X80201493Y-104390903D01*
X80150445Y-104254037D01*
X80150444Y-104254035D01*
X80062903Y-104137096D01*
X79945964Y-104049555D01*
X79945962Y-104049554D01*
X79809096Y-103998506D01*
X79809088Y-103998504D01*
X79748596Y-103992000D01*
X79454000Y-103992000D01*
X78946000Y-103992000D01*
X78651404Y-103992000D01*
X78590911Y-103998504D01*
X78590900Y-103998506D01*
X78537107Y-104018570D01*
X78483069Y-104018998D01*
X78441399Y-103984592D01*
X78430500Y-103944551D01*
X78430500Y-103940142D01*
X78431473Y-103927783D01*
X78431679Y-103926482D01*
X78435536Y-103902132D01*
X78434647Y-103898813D01*
X78433192Y-103893383D01*
X78430500Y-103872937D01*
X78430500Y-102500004D01*
X81644341Y-102500004D01*
X81664935Y-102735399D01*
X81664937Y-102735412D01*
X81710139Y-102904108D01*
X81725818Y-102962623D01*
X81726098Y-102963666D01*
X81726098Y-102963667D01*
X81825962Y-103177825D01*
X81956033Y-103363587D01*
X81961505Y-103371401D01*
X82128599Y-103538495D01*
X82128604Y-103538499D01*
X82128606Y-103538500D01*
X82138603Y-103545500D01*
X82317062Y-103670458D01*
X82322174Y-103674037D01*
X82474496Y-103745066D01*
X82536337Y-103773903D01*
X82684442Y-103813587D01*
X82764587Y-103835062D01*
X82764590Y-103835062D01*
X82764592Y-103835063D01*
X82764594Y-103835063D01*
X82764599Y-103835064D01*
X82941030Y-103850500D01*
X82941034Y-103850500D01*
X83058970Y-103850500D01*
X83235400Y-103835064D01*
X83235403Y-103835063D01*
X83235408Y-103835063D01*
X83463663Y-103773903D01*
X83636934Y-103693105D01*
X83677825Y-103674037D01*
X83677825Y-103674036D01*
X83677829Y-103674035D01*
X83871401Y-103538495D01*
X84038495Y-103371401D01*
X84174035Y-103177830D01*
X84174264Y-103177340D01*
X84234008Y-103049218D01*
X84273903Y-102963663D01*
X84313469Y-102816000D01*
X91337000Y-102816000D01*
X93303000Y-102816000D01*
X93303000Y-102732827D01*
X93292569Y-102630721D01*
X93237752Y-102465292D01*
X93146263Y-102316967D01*
X93146261Y-102316964D01*
X93023035Y-102193738D01*
X93023032Y-102193736D01*
X92874707Y-102102247D01*
X92804906Y-102079118D01*
X92762517Y-102045601D01*
X92751589Y-101992678D01*
X92777236Y-101945113D01*
X92793890Y-101933738D01*
X92794355Y-101933502D01*
X92883502Y-101844355D01*
X92940739Y-101732022D01*
X92951686Y-101662903D01*
X92955500Y-101638825D01*
X92955500Y-101634500D01*
X92973982Y-101583720D01*
X93020782Y-101556700D01*
X93034500Y-101555500D01*
X93811628Y-101555500D01*
X93862408Y-101573982D01*
X93883897Y-101602590D01*
X93906989Y-101654889D01*
X93906994Y-101654896D01*
X93985103Y-101733005D01*
X93985108Y-101733009D01*
X93985109Y-101733010D01*
X94002410Y-101740649D01*
X94041397Y-101778065D01*
X94049500Y-101812917D01*
X94049500Y-102087081D01*
X94031018Y-102137861D01*
X94002412Y-102159349D01*
X93985109Y-102166989D01*
X93985106Y-102166991D01*
X93906994Y-102245103D01*
X93906989Y-102245109D01*
X93862366Y-102346173D01*
X93859500Y-102370874D01*
X93859500Y-102829116D01*
X93859501Y-102829128D01*
X93861647Y-102847624D01*
X93862366Y-102853827D01*
X93906990Y-102954891D01*
X93906992Y-102954893D01*
X93906994Y-102954896D01*
X93985103Y-103033005D01*
X93985108Y-103033009D01*
X93985109Y-103033010D01*
X94086173Y-103077634D01*
X94110877Y-103080500D01*
X94469122Y-103080499D01*
X94493827Y-103077634D01*
X94594891Y-103033010D01*
X94673010Y-102954891D01*
X94717634Y-102853827D01*
X94720500Y-102829123D01*
X94720499Y-102370878D01*
X94717634Y-102346173D01*
X94673010Y-102245109D01*
X94673007Y-102245106D01*
X94673005Y-102245103D01*
X94594893Y-102166991D01*
X94594890Y-102166989D01*
X94577588Y-102159349D01*
X94538601Y-102121929D01*
X94530500Y-102087081D01*
X94530500Y-101812917D01*
X94548982Y-101762137D01*
X94577588Y-101740649D01*
X94594891Y-101733010D01*
X94673010Y-101654891D01*
X94717634Y-101553827D01*
X94720500Y-101529123D01*
X94720499Y-101070878D01*
X94717634Y-101046173D01*
X94673010Y-100945109D01*
X94673007Y-100945106D01*
X94673005Y-100945103D01*
X94594896Y-100866994D01*
X94594890Y-100866989D01*
X94526003Y-100836573D01*
X94493827Y-100822366D01*
X94469123Y-100819500D01*
X94469122Y-100819500D01*
X94110883Y-100819500D01*
X94110871Y-100819501D01*
X94086173Y-100822366D01*
X93985109Y-100866990D01*
X93985103Y-100866994D01*
X93906994Y-100945103D01*
X93906990Y-100945109D01*
X93875260Y-101016972D01*
X93870651Y-101027410D01*
X93833232Y-101066398D01*
X93798382Y-101074500D01*
X93034296Y-101074500D01*
X92983516Y-101056018D01*
X92956496Y-101009218D01*
X92955539Y-101001689D01*
X92955499Y-101001181D01*
X92955499Y-101001178D01*
X92940739Y-100907978D01*
X92883502Y-100795645D01*
X92883501Y-100795644D01*
X92883500Y-100795642D01*
X92794356Y-100706498D01*
X92794353Y-100706496D01*
X92682024Y-100649261D01*
X92682020Y-100649260D01*
X92588825Y-100634500D01*
X92051180Y-100634500D01*
X91957978Y-100649261D01*
X91845642Y-100706499D01*
X91756498Y-100795643D01*
X91756496Y-100795646D01*
X91699261Y-100907975D01*
X91699260Y-100907979D01*
X91684500Y-101001174D01*
X91684500Y-101638819D01*
X91695412Y-101707719D01*
X91699261Y-101732022D01*
X91743522Y-101818888D01*
X91756499Y-101844357D01*
X91845643Y-101933501D01*
X91845645Y-101933502D01*
X91846107Y-101933738D01*
X91846396Y-101934048D01*
X91850675Y-101937157D01*
X91850070Y-101937988D01*
X91882963Y-101973258D01*
X91885793Y-102027223D01*
X91853272Y-102070382D01*
X91835093Y-102079118D01*
X91765292Y-102102247D01*
X91616967Y-102193736D01*
X91616964Y-102193738D01*
X91493738Y-102316964D01*
X91493736Y-102316967D01*
X91402247Y-102465292D01*
X91347430Y-102630721D01*
X91337000Y-102732827D01*
X91337000Y-102816000D01*
X84313469Y-102816000D01*
X84335063Y-102735408D01*
X84335289Y-102732827D01*
X84355659Y-102500004D01*
X84355659Y-102499995D01*
X84335064Y-102264600D01*
X84335062Y-102264587D01*
X84312477Y-102180299D01*
X84273903Y-102036337D01*
X84268852Y-102025505D01*
X84174037Y-101822174D01*
X84159557Y-101801495D01*
X84038495Y-101628599D01*
X83871401Y-101461505D01*
X83871398Y-101461502D01*
X83871393Y-101461499D01*
X83677825Y-101325962D01*
X83463666Y-101226098D01*
X83463663Y-101226097D01*
X83412011Y-101212257D01*
X83235412Y-101164937D01*
X83235400Y-101164935D01*
X83058970Y-101149500D01*
X83058966Y-101149500D01*
X82941034Y-101149500D01*
X82941030Y-101149500D01*
X82764599Y-101164935D01*
X82764587Y-101164937D01*
X82536333Y-101226098D01*
X82536332Y-101226098D01*
X82322174Y-101325962D01*
X82128606Y-101461499D01*
X82128597Y-101461506D01*
X81961506Y-101628597D01*
X81961499Y-101628606D01*
X81825962Y-101822173D01*
X81726098Y-102036332D01*
X81726098Y-102036333D01*
X81664937Y-102264587D01*
X81664935Y-102264600D01*
X81644341Y-102499995D01*
X81644341Y-102500004D01*
X78430500Y-102500004D01*
X78430500Y-102122339D01*
X78430554Y-102120272D01*
X78431436Y-102103433D01*
X78432846Y-102076538D01*
X78423536Y-102052287D01*
X78420015Y-102040398D01*
X78419824Y-102039500D01*
X78414616Y-102014994D01*
X78409288Y-102007661D01*
X78399452Y-101989545D01*
X78396206Y-101981088D01*
X78377835Y-101962717D01*
X78369791Y-101953298D01*
X78354521Y-101932281D01*
X78354518Y-101932279D01*
X78346674Y-101927750D01*
X78330314Y-101915196D01*
X78010479Y-101595361D01*
X77987641Y-101546385D01*
X78001627Y-101494187D01*
X78045893Y-101463192D01*
X78066340Y-101460500D01*
X78115804Y-101460500D01*
X78115806Y-101460500D01*
X78144705Y-101454751D01*
X78198114Y-101462971D01*
X78233745Y-101503599D01*
X78234136Y-101504625D01*
X78249554Y-101545962D01*
X78249555Y-101545964D01*
X78337096Y-101662903D01*
X78454035Y-101750444D01*
X78454037Y-101750445D01*
X78590903Y-101801493D01*
X78590911Y-101801495D01*
X78651404Y-101808000D01*
X78946000Y-101808000D01*
X78946000Y-100675000D01*
X78964482Y-100624220D01*
X79011282Y-100597200D01*
X79025000Y-100596000D01*
X79375000Y-100596000D01*
X79425780Y-100614482D01*
X79452800Y-100661282D01*
X79454000Y-100675000D01*
X79454000Y-101808000D01*
X79748596Y-101808000D01*
X79809088Y-101801495D01*
X79809096Y-101801493D01*
X79945962Y-101750445D01*
X79945964Y-101750444D01*
X80062903Y-101662903D01*
X80150444Y-101545964D01*
X80150445Y-101545962D01*
X80201493Y-101409096D01*
X80201495Y-101409087D01*
X80207500Y-101353241D01*
X80231304Y-101304728D01*
X80280724Y-101282866D01*
X80328758Y-101295227D01*
X80336611Y-101300274D01*
X80426734Y-101358193D01*
X80516482Y-101384545D01*
X80553789Y-101395500D01*
X80553790Y-101395500D01*
X80686211Y-101395500D01*
X80715049Y-101387031D01*
X80813266Y-101358193D01*
X80924664Y-101286601D01*
X81011381Y-101186525D01*
X81066390Y-101066072D01*
X81085235Y-100935000D01*
X81066390Y-100803928D01*
X81011381Y-100683475D01*
X80924664Y-100583399D01*
X80861952Y-100543096D01*
X80813268Y-100511808D01*
X80813266Y-100511807D01*
X80686211Y-100474500D01*
X80686210Y-100474500D01*
X80553790Y-100474500D01*
X80553789Y-100474500D01*
X80426733Y-100511807D01*
X80426730Y-100511808D01*
X80329711Y-100574160D01*
X80276999Y-100586065D01*
X80228967Y-100561303D01*
X80208089Y-100511460D01*
X80208000Y-100507701D01*
X80208000Y-100379500D01*
X80226482Y-100328720D01*
X80273282Y-100301700D01*
X80287000Y-100300500D01*
X96255741Y-100300500D01*
X96306521Y-100318982D01*
G37*
G04 #@! TD.AperFunction*
G04 #@! TA.AperFunction,Conductor*
G36*
X54491240Y-112361928D02*
G01*
X54509194Y-112365500D01*
X54509197Y-112365500D01*
X55190802Y-112365500D01*
X55190806Y-112365500D01*
X55197584Y-112364151D01*
X55250992Y-112372367D01*
X55286626Y-112412993D01*
X55292000Y-112441632D01*
X55292000Y-112446000D01*
X56475000Y-112446000D01*
X56525780Y-112464482D01*
X56552800Y-112511282D01*
X56554000Y-112525000D01*
X56554000Y-112875000D01*
X56535518Y-112925780D01*
X56488718Y-112952800D01*
X56475000Y-112954000D01*
X55292000Y-112954000D01*
X55292000Y-113188717D01*
X55273518Y-113239497D01*
X55248868Y-113259105D01*
X55241414Y-113262903D01*
X55241411Y-113262905D01*
X55162906Y-113341410D01*
X55137240Y-113391782D01*
X55112500Y-113440339D01*
X55112499Y-113440340D01*
X55112500Y-113440340D01*
X55112498Y-113440344D01*
X55095131Y-113549997D01*
X55095131Y-113550002D01*
X55112498Y-113659655D01*
X55112499Y-113659658D01*
X55112500Y-113659661D01*
X55156122Y-113745274D01*
X55162906Y-113758589D01*
X55208956Y-113804639D01*
X55231794Y-113853615D01*
X55217808Y-113905813D01*
X55173542Y-113936808D01*
X55153095Y-113939500D01*
X54076680Y-113939500D01*
X54025900Y-113921018D01*
X53998880Y-113874218D01*
X54008264Y-113821000D01*
X54040816Y-113790110D01*
X54045697Y-113787623D01*
X54055785Y-113782483D01*
X54134293Y-113703975D01*
X54184698Y-113605049D01*
X54184698Y-113605046D01*
X54187520Y-113599509D01*
X54189920Y-113600731D01*
X54216634Y-113566520D01*
X54246159Y-113555477D01*
X54249998Y-113554868D01*
X54250000Y-113554869D01*
X54359661Y-113537500D01*
X54458587Y-113487095D01*
X54537095Y-113408587D01*
X54587500Y-113309661D01*
X54590607Y-113290044D01*
X54604869Y-113200002D01*
X54604869Y-113199997D01*
X54587501Y-113090344D01*
X54587500Y-113090343D01*
X54587500Y-113090339D01*
X54537095Y-112991413D01*
X54537094Y-112991412D01*
X54537093Y-112991410D01*
X54458589Y-112912906D01*
X54442686Y-112904803D01*
X54359661Y-112862500D01*
X54359658Y-112862499D01*
X54359655Y-112862498D01*
X54250002Y-112845131D01*
X54249996Y-112845131D01*
X54143656Y-112861973D01*
X54090610Y-112851662D01*
X54056602Y-112809665D01*
X54057545Y-112755634D01*
X54075435Y-112728087D01*
X54419973Y-112383549D01*
X54468948Y-112360712D01*
X54491240Y-112361928D01*
G37*
G04 #@! TD.AperFunction*
G04 #@! TA.AperFunction,Conductor*
G36*
X57876967Y-102219605D02*
G01*
X57883006Y-102229459D01*
X57883254Y-102229800D01*
X57975198Y-102321744D01*
X57975200Y-102321745D01*
X57975201Y-102321746D01*
X58091062Y-102380780D01*
X58091067Y-102380780D01*
X58091068Y-102380781D01*
X58219493Y-102401122D01*
X58219495Y-102401122D01*
X58219497Y-102401122D01*
X58315110Y-102385977D01*
X58347928Y-102380780D01*
X58463789Y-102321746D01*
X58463789Y-102321745D01*
X58469329Y-102318923D01*
X58470811Y-102321831D01*
X58510897Y-102310275D01*
X58560296Y-102332183D01*
X58584055Y-102380718D01*
X58584500Y-102389090D01*
X58584500Y-102800805D01*
X58593812Y-102847623D01*
X58629285Y-102900714D01*
X58647856Y-102913122D01*
X58682376Y-102936187D01*
X58729194Y-102945500D01*
X59108242Y-102945500D01*
X59159022Y-102963982D01*
X59186042Y-103010782D01*
X59176658Y-103064000D01*
X59164103Y-103080361D01*
X59113760Y-103130703D01*
X59094370Y-103168759D01*
X59054725Y-103246567D01*
X59054724Y-103246568D01*
X59054725Y-103246568D01*
X59054723Y-103246573D01*
X59034383Y-103374997D01*
X59034383Y-103375002D01*
X59054723Y-103503426D01*
X59054724Y-103503429D01*
X59054725Y-103503433D01*
X59112676Y-103617169D01*
X59113760Y-103619296D01*
X59205703Y-103711239D01*
X59205705Y-103711240D01*
X59205706Y-103711241D01*
X59321567Y-103770275D01*
X59321572Y-103770275D01*
X59321573Y-103770276D01*
X59449998Y-103790617D01*
X59450000Y-103790617D01*
X59450002Y-103790617D01*
X59555527Y-103773903D01*
X59578433Y-103770275D01*
X59694294Y-103711241D01*
X59784693Y-103620841D01*
X59833668Y-103598004D01*
X59885866Y-103611990D01*
X59899183Y-103625076D01*
X59899362Y-103624898D01*
X59995703Y-103721239D01*
X59995705Y-103721240D01*
X59995706Y-103721241D01*
X60111567Y-103780275D01*
X60111572Y-103780275D01*
X60111573Y-103780276D01*
X60239998Y-103800617D01*
X60240000Y-103800617D01*
X60240002Y-103800617D01*
X60344744Y-103784027D01*
X60368433Y-103780275D01*
X60484294Y-103721241D01*
X60503576Y-103701958D01*
X60552551Y-103679120D01*
X60604749Y-103693105D01*
X60629827Y-103721952D01*
X60643759Y-103749294D01*
X60713603Y-103819138D01*
X60736441Y-103868113D01*
X60722455Y-103920311D01*
X60713604Y-103930860D01*
X60663759Y-103980705D01*
X60647101Y-104013399D01*
X60604725Y-104096567D01*
X60604724Y-104096568D01*
X60604725Y-104096568D01*
X60604723Y-104096573D01*
X60584383Y-104224997D01*
X60584383Y-104225002D01*
X60604723Y-104353426D01*
X60604724Y-104353429D01*
X60604725Y-104353433D01*
X60657042Y-104456111D01*
X60663760Y-104469296D01*
X60755703Y-104561239D01*
X60755705Y-104561240D01*
X60755706Y-104561241D01*
X60871567Y-104620275D01*
X60871572Y-104620275D01*
X60871573Y-104620276D01*
X60999998Y-104640617D01*
X61000000Y-104640617D01*
X61000002Y-104640617D01*
X61103633Y-104624203D01*
X61128433Y-104620275D01*
X61244294Y-104561241D01*
X61261646Y-104543889D01*
X61281439Y-104524097D01*
X61330415Y-104501259D01*
X61382613Y-104515245D01*
X61413608Y-104559511D01*
X61416300Y-104579958D01*
X61416299Y-113224732D01*
X61397817Y-113275512D01*
X61393161Y-113280593D01*
X61233569Y-113440186D01*
X60757393Y-113916361D01*
X60708418Y-113939199D01*
X60701533Y-113939500D01*
X59726758Y-113939500D01*
X59675978Y-113921018D01*
X59648958Y-113874218D01*
X59658342Y-113821000D01*
X59670897Y-113804639D01*
X59746239Y-113729296D01*
X59746238Y-113729296D01*
X59746241Y-113729294D01*
X59805275Y-113613433D01*
X59810092Y-113583017D01*
X59836289Y-113535756D01*
X59886739Y-113516389D01*
X59937834Y-113533981D01*
X59943980Y-113539516D01*
X60005703Y-113601239D01*
X60005705Y-113601240D01*
X60005706Y-113601241D01*
X60121567Y-113660275D01*
X60121572Y-113660275D01*
X60121573Y-113660276D01*
X60249998Y-113680617D01*
X60250000Y-113680617D01*
X60250002Y-113680617D01*
X60362920Y-113662732D01*
X60378433Y-113660275D01*
X60494294Y-113601241D01*
X60586241Y-113509294D01*
X60645275Y-113393433D01*
X60656171Y-113324639D01*
X60665617Y-113265002D01*
X60665617Y-113264997D01*
X60645276Y-113136573D01*
X60645275Y-113136572D01*
X60645275Y-113136567D01*
X60586241Y-113020706D01*
X60586240Y-113020705D01*
X60586239Y-113020703D01*
X60494296Y-112928760D01*
X60467284Y-112914997D01*
X60378433Y-112869725D01*
X60378429Y-112869724D01*
X60378426Y-112869723D01*
X60250002Y-112849383D01*
X60249998Y-112849383D01*
X60156684Y-112864162D01*
X60103638Y-112853851D01*
X60069630Y-112811855D01*
X60069194Y-112810551D01*
X60067501Y-112805344D01*
X60067500Y-112805343D01*
X60067500Y-112805339D01*
X60017095Y-112706413D01*
X60017094Y-112706412D01*
X60017093Y-112706410D01*
X59938589Y-112627906D01*
X59936766Y-112626977D01*
X59839661Y-112577500D01*
X59839658Y-112577499D01*
X59839655Y-112577498D01*
X59730002Y-112560131D01*
X59729998Y-112560131D01*
X59620344Y-112577498D01*
X59620340Y-112577499D01*
X59620339Y-112577500D01*
X59583817Y-112596109D01*
X59521410Y-112627906D01*
X59442906Y-112706410D01*
X59423241Y-112745006D01*
X59392500Y-112805339D01*
X59392499Y-112805340D01*
X59392500Y-112805340D01*
X59392498Y-112805344D01*
X59375131Y-112914997D01*
X59375131Y-112915003D01*
X59387479Y-112992965D01*
X59377168Y-113046011D01*
X59335172Y-113080019D01*
X59321811Y-113083350D01*
X59281573Y-113089723D01*
X59281568Y-113089724D01*
X59281567Y-113089725D01*
X59260687Y-113100364D01*
X59165703Y-113148760D01*
X59073760Y-113240703D01*
X59050924Y-113285523D01*
X59014725Y-113356567D01*
X59014724Y-113356568D01*
X59014725Y-113356568D01*
X59014723Y-113356573D01*
X58994383Y-113484997D01*
X58994383Y-113485002D01*
X59014723Y-113613426D01*
X59014724Y-113613429D01*
X59014725Y-113613433D01*
X59068649Y-113719265D01*
X59073760Y-113729296D01*
X59149103Y-113804639D01*
X59171941Y-113853615D01*
X59157955Y-113905813D01*
X59113689Y-113936808D01*
X59093242Y-113939500D01*
X57387000Y-113939500D01*
X57336220Y-113921018D01*
X57309200Y-113874218D01*
X57308000Y-113860500D01*
X57308000Y-113400746D01*
X57326482Y-113349966D01*
X57351135Y-113330357D01*
X57410808Y-113299952D01*
X57439042Y-113285565D01*
X57492678Y-113278980D01*
X57515757Y-113289499D01*
X57515873Y-113289272D01*
X57521086Y-113291928D01*
X57521349Y-113292048D01*
X57521410Y-113292092D01*
X57521413Y-113292095D01*
X57620339Y-113342500D01*
X57620343Y-113342500D01*
X57620344Y-113342501D01*
X57729998Y-113359869D01*
X57730000Y-113359869D01*
X57730002Y-113359869D01*
X57839655Y-113342501D01*
X57839655Y-113342500D01*
X57839661Y-113342500D01*
X57938587Y-113292095D01*
X58017095Y-113213587D01*
X58021273Y-113205385D01*
X58060789Y-113168531D01*
X58114754Y-113165698D01*
X58116077Y-113166115D01*
X58120342Y-113167501D01*
X58229998Y-113184869D01*
X58230000Y-113184869D01*
X58230002Y-113184869D01*
X58339655Y-113167501D01*
X58339655Y-113167500D01*
X58339661Y-113167500D01*
X58438587Y-113117095D01*
X58517095Y-113038587D01*
X58567500Y-112939661D01*
X58571406Y-112915000D01*
X58584869Y-112830002D01*
X58584869Y-112829997D01*
X58567501Y-112720344D01*
X58567500Y-112720343D01*
X58567500Y-112720339D01*
X58517095Y-112621413D01*
X58517094Y-112621412D01*
X58517093Y-112621410D01*
X58438589Y-112542906D01*
X58403446Y-112525000D01*
X58339661Y-112492500D01*
X58339658Y-112492499D01*
X58339655Y-112492498D01*
X58230002Y-112475131D01*
X58229998Y-112475131D01*
X58120344Y-112492498D01*
X58120340Y-112492499D01*
X58120339Y-112492500D01*
X58071782Y-112517240D01*
X58021410Y-112542906D01*
X57942904Y-112621412D01*
X57938723Y-112629619D01*
X57899200Y-112666472D01*
X57845235Y-112669298D01*
X57843923Y-112668885D01*
X57839656Y-112667498D01*
X57730002Y-112650131D01*
X57729998Y-112650131D01*
X57620344Y-112667498D01*
X57620340Y-112667499D01*
X57620339Y-112667500D01*
X57570532Y-112692878D01*
X57521497Y-112717862D01*
X57467860Y-112724447D01*
X57444782Y-112713928D01*
X57444667Y-112714155D01*
X57439483Y-112711513D01*
X57439192Y-112711381D01*
X57439129Y-112711335D01*
X57439127Y-112711333D01*
X57439123Y-112711331D01*
X57439119Y-112711328D01*
X57351135Y-112666498D01*
X57314280Y-112626977D01*
X57308000Y-112596109D01*
X57308000Y-111895002D01*
X59605131Y-111895002D01*
X59622498Y-112004655D01*
X59622499Y-112004658D01*
X59622500Y-112004661D01*
X59660021Y-112078300D01*
X59672906Y-112103589D01*
X59751410Y-112182093D01*
X59751412Y-112182094D01*
X59751413Y-112182095D01*
X59850339Y-112232500D01*
X59850343Y-112232500D01*
X59850344Y-112232501D01*
X59959998Y-112249869D01*
X59960000Y-112249869D01*
X59960002Y-112249869D01*
X60069655Y-112232501D01*
X60069655Y-112232500D01*
X60069661Y-112232500D01*
X60168587Y-112182095D01*
X60247095Y-112103587D01*
X60297500Y-112004661D01*
X60303241Y-111968414D01*
X60314869Y-111895002D01*
X60314869Y-111894997D01*
X60297501Y-111785344D01*
X60297500Y-111785343D01*
X60297500Y-111785339D01*
X60247095Y-111686413D01*
X60247094Y-111686412D01*
X60247093Y-111686410D01*
X60168589Y-111607906D01*
X60153072Y-111600000D01*
X60069661Y-111557500D01*
X60069658Y-111557499D01*
X60069655Y-111557498D01*
X59960002Y-111540131D01*
X59959998Y-111540131D01*
X59850344Y-111557498D01*
X59850340Y-111557499D01*
X59850339Y-111557500D01*
X59826788Y-111569500D01*
X59751410Y-111607906D01*
X59672906Y-111686410D01*
X59671441Y-111689286D01*
X59622500Y-111785339D01*
X59622499Y-111785340D01*
X59622500Y-111785340D01*
X59622498Y-111785344D01*
X59605131Y-111894997D01*
X59605131Y-111895002D01*
X57308000Y-111895002D01*
X57308000Y-111569500D01*
X57326482Y-111518720D01*
X57373282Y-111491700D01*
X57387000Y-111490500D01*
X58157659Y-111490500D01*
X58159726Y-111490554D01*
X58166388Y-111490903D01*
X58203462Y-111492846D01*
X58227717Y-111483534D01*
X58239596Y-111480016D01*
X58265006Y-111474616D01*
X58272332Y-111469292D01*
X58290461Y-111459450D01*
X58298910Y-111456207D01*
X58298910Y-111456206D01*
X58298912Y-111456206D01*
X58317278Y-111437838D01*
X58326706Y-111429787D01*
X58331445Y-111426344D01*
X58347719Y-111414521D01*
X58352246Y-111406678D01*
X58364800Y-111390316D01*
X58964322Y-110790794D01*
X59007823Y-110768630D01*
X59071230Y-110758587D01*
X59109661Y-110752500D01*
X59208587Y-110702095D01*
X59287095Y-110623587D01*
X59337500Y-110524661D01*
X59337501Y-110524655D01*
X59354869Y-110415002D01*
X59354869Y-110414997D01*
X59337501Y-110305344D01*
X59337500Y-110305343D01*
X59337500Y-110305339D01*
X59287095Y-110206413D01*
X59287094Y-110206412D01*
X59287093Y-110206410D01*
X59208589Y-110127906D01*
X59190560Y-110118720D01*
X59109661Y-110077500D01*
X59109657Y-110077499D01*
X59109654Y-110077498D01*
X59024737Y-110064048D01*
X58977473Y-110037849D01*
X58959069Y-109998379D01*
X58947501Y-109925345D01*
X58947500Y-109925344D01*
X58947500Y-109925339D01*
X58897095Y-109826413D01*
X58897094Y-109826412D01*
X58897093Y-109826410D01*
X58818589Y-109747906D01*
X58809820Y-109743438D01*
X58719661Y-109697500D01*
X58719658Y-109697499D01*
X58719655Y-109697498D01*
X58610002Y-109680131D01*
X58609998Y-109680131D01*
X58500344Y-109697498D01*
X58500340Y-109697499D01*
X58500339Y-109697500D01*
X58470906Y-109712497D01*
X58401410Y-109747906D01*
X58322906Y-109826410D01*
X58302880Y-109865714D01*
X58272500Y-109925339D01*
X58272499Y-109925340D01*
X58272500Y-109925340D01*
X58272498Y-109925345D01*
X58256369Y-110027175D01*
X58234203Y-110070677D01*
X57843520Y-110461361D01*
X57794546Y-110484199D01*
X57787660Y-110484500D01*
X56984142Y-110484500D01*
X56933362Y-110466018D01*
X56906342Y-110419218D01*
X56915726Y-110366000D01*
X56918456Y-110361610D01*
X56951187Y-110312624D01*
X56960500Y-110265806D01*
X56960500Y-109434194D01*
X56951187Y-109387376D01*
X56915713Y-109334284D01*
X56887878Y-109315687D01*
X56855923Y-109272108D01*
X56859456Y-109218185D01*
X56887878Y-109184313D01*
X56915713Y-109165715D01*
X56922403Y-109155703D01*
X56951187Y-109112624D01*
X56960500Y-109065806D01*
X56960500Y-108234194D01*
X56951187Y-108187376D01*
X56936849Y-108165917D01*
X56915713Y-108134284D01*
X56887878Y-108115687D01*
X56855923Y-108072108D01*
X56859456Y-108018185D01*
X56887878Y-107984313D01*
X56915713Y-107965715D01*
X56915714Y-107965714D01*
X56951187Y-107912624D01*
X56960500Y-107865806D01*
X56960500Y-107187172D01*
X56978982Y-107136392D01*
X57011893Y-107113153D01*
X57045960Y-107100446D01*
X57045961Y-107100446D01*
X57162903Y-107012903D01*
X57250444Y-106895964D01*
X57250445Y-106895962D01*
X57301493Y-106759096D01*
X57301495Y-106759088D01*
X57308000Y-106698596D01*
X57308000Y-105754000D01*
X55292000Y-105754000D01*
X55292000Y-106698596D01*
X55298504Y-106759088D01*
X55298506Y-106759096D01*
X55349554Y-106895962D01*
X55349555Y-106895964D01*
X55437097Y-107012906D01*
X55510863Y-107068127D01*
X55540439Y-107113354D01*
X55534023Y-107167011D01*
X55494618Y-107203991D01*
X55491827Y-107205123D01*
X55462281Y-107216463D01*
X55450403Y-107219982D01*
X55424992Y-107225384D01*
X55417659Y-107230711D01*
X55399551Y-107240543D01*
X55391087Y-107243792D01*
X55372715Y-107262164D01*
X55363295Y-107270210D01*
X55342281Y-107285479D01*
X55342280Y-107285479D01*
X55337750Y-107293326D01*
X55325198Y-107309681D01*
X52785138Y-109849743D01*
X52783638Y-109851166D01*
X52757617Y-109874597D01*
X52751085Y-109880479D01*
X52742239Y-109900348D01*
X52740520Y-109904208D01*
X52734605Y-109915101D01*
X52720458Y-109936885D01*
X52719041Y-109945832D01*
X52713185Y-109965601D01*
X52709500Y-109973878D01*
X52709500Y-109999857D01*
X52708527Y-110012215D01*
X52704978Y-110034624D01*
X52704464Y-110037868D01*
X52706795Y-110046568D01*
X52706808Y-110046614D01*
X52709500Y-110067062D01*
X52709500Y-110265500D01*
X52691018Y-110316280D01*
X52644218Y-110343300D01*
X52630500Y-110344500D01*
X52609194Y-110344500D01*
X52562376Y-110353812D01*
X52509286Y-110389285D01*
X52497524Y-110406889D01*
X52482489Y-110429389D01*
X52438912Y-110461344D01*
X52416804Y-110464500D01*
X52217341Y-110464500D01*
X52215274Y-110464446D01*
X52176861Y-110462433D01*
X52171538Y-110462154D01*
X52171537Y-110462154D01*
X52171536Y-110462154D01*
X52147280Y-110471464D01*
X52135401Y-110474982D01*
X52119219Y-110478422D01*
X52065705Y-110470903D01*
X52029545Y-110430745D01*
X52027658Y-110376738D01*
X52034375Y-110361652D01*
X52037250Y-110356671D01*
X52049800Y-110340316D01*
X54874906Y-107515211D01*
X54876369Y-107513824D01*
X54876440Y-107513760D01*
X54908915Y-107484521D01*
X54919479Y-107460792D01*
X54925394Y-107449898D01*
X54929081Y-107444221D01*
X54939543Y-107428112D01*
X54940959Y-107419168D01*
X54946817Y-107399389D01*
X54950500Y-107391120D01*
X54950500Y-107365142D01*
X54951473Y-107352785D01*
X54952985Y-107343240D01*
X54955536Y-107327132D01*
X54955535Y-107327128D01*
X54953191Y-107318377D01*
X54950500Y-107297935D01*
X54950500Y-105057340D01*
X54968982Y-105006560D01*
X54973627Y-105001490D01*
X55157140Y-104817977D01*
X55206113Y-104795141D01*
X55258311Y-104809127D01*
X55289307Y-104853393D01*
X55291999Y-104873840D01*
X55292000Y-105246000D01*
X56046000Y-105246000D01*
X56046000Y-103961838D01*
X56064482Y-103911058D01*
X56069121Y-103905996D01*
X56133117Y-103842000D01*
X56554000Y-103842000D01*
X56554000Y-105246000D01*
X57308000Y-105246000D01*
X57308000Y-104301403D01*
X57301495Y-104240911D01*
X57301493Y-104240903D01*
X57250445Y-104104037D01*
X57250444Y-104104035D01*
X57162903Y-103987096D01*
X57045964Y-103899555D01*
X57045962Y-103899554D01*
X56909096Y-103848506D01*
X56909088Y-103848504D01*
X56848596Y-103842000D01*
X56554000Y-103842000D01*
X56133117Y-103842000D01*
X57703954Y-102271162D01*
X57705417Y-102269775D01*
X57707184Y-102268184D01*
X57737973Y-102240463D01*
X57740888Y-102233914D01*
X57778421Y-102195043D01*
X57832164Y-102189390D01*
X57876967Y-102219605D01*
G37*
G04 #@! TD.AperFunction*
G04 #@! TA.AperFunction,Conductor*
G36*
X65823940Y-100318982D02*
G01*
X65850960Y-100365782D01*
X65841576Y-100419000D01*
X65829025Y-100435356D01*
X65576954Y-100687427D01*
X65493638Y-100770743D01*
X65444662Y-100793580D01*
X65425421Y-100792909D01*
X65400000Y-100788883D01*
X65399999Y-100788883D01*
X65399998Y-100788883D01*
X65399997Y-100788883D01*
X65271573Y-100809223D01*
X65271568Y-100809224D01*
X65271567Y-100809225D01*
X65228070Y-100831388D01*
X65155703Y-100868260D01*
X65063760Y-100960203D01*
X65034835Y-101016972D01*
X65004725Y-101076067D01*
X65004724Y-101076068D01*
X65004725Y-101076068D01*
X65004723Y-101076073D01*
X64984383Y-101204497D01*
X64984383Y-101204502D01*
X65004723Y-101332926D01*
X65004724Y-101332929D01*
X65004725Y-101332933D01*
X65050982Y-101423718D01*
X65063760Y-101448796D01*
X65155703Y-101540739D01*
X65155705Y-101540740D01*
X65155706Y-101540741D01*
X65271567Y-101599775D01*
X65271572Y-101599775D01*
X65271573Y-101599776D01*
X65399998Y-101620117D01*
X65400000Y-101620117D01*
X65400002Y-101620117D01*
X65510660Y-101602590D01*
X65528433Y-101599775D01*
X65644294Y-101540741D01*
X65736241Y-101448794D01*
X65795275Y-101332933D01*
X65806117Y-101264482D01*
X65815617Y-101204503D01*
X65815617Y-101204502D01*
X65815617Y-101204500D01*
X65811590Y-101179078D01*
X65821899Y-101126035D01*
X65833748Y-101110868D01*
X66245980Y-100698637D01*
X66294955Y-100675801D01*
X66301840Y-100675500D01*
X68388106Y-100675500D01*
X68438886Y-100693982D01*
X68465906Y-100740782D01*
X68456522Y-100794000D01*
X68453122Y-100799377D01*
X68365859Y-100925797D01*
X68308983Y-101075768D01*
X68308983Y-101075769D01*
X68289649Y-101234999D01*
X68289649Y-101235000D01*
X68308983Y-101394230D01*
X68308983Y-101394231D01*
X68365859Y-101544202D01*
X68404218Y-101599774D01*
X68447793Y-101662903D01*
X68456979Y-101676210D01*
X68456981Y-101676212D01*
X68519977Y-101732021D01*
X68577038Y-101782573D01*
X68610336Y-101800049D01*
X68646709Y-101840011D01*
X68648886Y-101894006D01*
X68615846Y-101936768D01*
X68610337Y-101939949D01*
X68577038Y-101957426D01*
X68456981Y-102063787D01*
X68456979Y-102063789D01*
X68365859Y-102195797D01*
X68308983Y-102345768D01*
X68308983Y-102345769D01*
X68289649Y-102504999D01*
X68289649Y-102505000D01*
X68308983Y-102664230D01*
X68308983Y-102664231D01*
X68365859Y-102814202D01*
X68417023Y-102888325D01*
X68456139Y-102944994D01*
X68456979Y-102946210D01*
X68456981Y-102946212D01*
X68512961Y-102995806D01*
X68577038Y-103052573D01*
X68610336Y-103070049D01*
X68646710Y-103110014D01*
X68648885Y-103164009D01*
X68615844Y-103206770D01*
X68610340Y-103209948D01*
X68599226Y-103215781D01*
X68577037Y-103227427D01*
X68456981Y-103333787D01*
X68456979Y-103333789D01*
X68365859Y-103465797D01*
X68308983Y-103615768D01*
X68308983Y-103615769D01*
X68289649Y-103774999D01*
X68289649Y-103775000D01*
X68308983Y-103934230D01*
X68308983Y-103934231D01*
X68365859Y-104084202D01*
X68456979Y-104216210D01*
X68456981Y-104216212D01*
X68577038Y-104322573D01*
X68577037Y-104322573D01*
X68689744Y-104381726D01*
X68719063Y-104397114D01*
X68874801Y-104435500D01*
X69035199Y-104435500D01*
X69190937Y-104397114D01*
X69332962Y-104322573D01*
X69433019Y-104233930D01*
X69433113Y-104233847D01*
X69483379Y-104214007D01*
X69534637Y-104231120D01*
X69562903Y-104277177D01*
X69563892Y-104286964D01*
X69564119Y-104286942D01*
X69564499Y-104290801D01*
X69573812Y-104337623D01*
X69609285Y-104390714D01*
X69618864Y-104397114D01*
X69662376Y-104426187D01*
X69709194Y-104435500D01*
X70740806Y-104435500D01*
X70787624Y-104426187D01*
X70840714Y-104390714D01*
X70876187Y-104337624D01*
X70885500Y-104290806D01*
X70885500Y-103259194D01*
X70876187Y-103212376D01*
X70856452Y-103182840D01*
X70840714Y-103159285D01*
X70789836Y-103125291D01*
X70787624Y-103123813D01*
X70787623Y-103123812D01*
X70740801Y-103114499D01*
X70736942Y-103114119D01*
X70737058Y-103112932D01*
X70690587Y-103096018D01*
X70663567Y-103049218D01*
X70672951Y-102996000D01*
X70688981Y-102976367D01*
X70703317Y-102963666D01*
X70723022Y-102946209D01*
X70782730Y-102859707D01*
X70826786Y-102828416D01*
X70880650Y-102832764D01*
X70903606Y-102848724D01*
X71176361Y-103121479D01*
X71199199Y-103170455D01*
X71199500Y-103177340D01*
X71199500Y-104922659D01*
X71181018Y-104973439D01*
X71176361Y-104978520D01*
X70399742Y-105755138D01*
X70350766Y-105777976D01*
X70319851Y-105772854D01*
X70319560Y-105773926D01*
X70313827Y-105772366D01*
X70289123Y-105769500D01*
X70289122Y-105769500D01*
X69930883Y-105769500D01*
X69930871Y-105769501D01*
X69906173Y-105772366D01*
X69805109Y-105816990D01*
X69805103Y-105816994D01*
X69726994Y-105895103D01*
X69726989Y-105895109D01*
X69682366Y-105996173D01*
X69679500Y-106020874D01*
X69679500Y-106479116D01*
X69679501Y-106479128D01*
X69681956Y-106500297D01*
X69682366Y-106503827D01*
X69726990Y-106604891D01*
X69726992Y-106604893D01*
X69726994Y-106604896D01*
X69805103Y-106683005D01*
X69805108Y-106683009D01*
X69805109Y-106683010D01*
X69906173Y-106727634D01*
X69930877Y-106730500D01*
X70289122Y-106730499D01*
X70295859Y-106729717D01*
X70348430Y-106742220D01*
X70380666Y-106785592D01*
X70377482Y-106839537D01*
X70360828Y-106864051D01*
X70176918Y-107047961D01*
X70127942Y-107070799D01*
X70085192Y-107062490D01*
X70026078Y-107032370D01*
X70026074Y-107032369D01*
X70026071Y-107032368D01*
X69897647Y-107012028D01*
X69897643Y-107012028D01*
X69769218Y-107032368D01*
X69769213Y-107032369D01*
X69769212Y-107032370D01*
X69714008Y-107060498D01*
X69653348Y-107091405D01*
X69561404Y-107183349D01*
X69561404Y-107183350D01*
X69500154Y-107303558D01*
X69460632Y-107340412D01*
X69406667Y-107343240D01*
X69393900Y-107338082D01*
X69372401Y-107327128D01*
X69328433Y-107304725D01*
X69328429Y-107304724D01*
X69328426Y-107304723D01*
X69200002Y-107284383D01*
X69199998Y-107284383D01*
X69071573Y-107304723D01*
X69071568Y-107304724D01*
X69071567Y-107304725D01*
X69038095Y-107321780D01*
X68955703Y-107363760D01*
X68875361Y-107444103D01*
X68826385Y-107466941D01*
X68774187Y-107452955D01*
X68743192Y-107408689D01*
X68740500Y-107388242D01*
X68740500Y-106972340D01*
X68758982Y-106921560D01*
X68763639Y-106916479D01*
X68926480Y-106753638D01*
X68975456Y-106730800D01*
X68982341Y-106730499D01*
X69269116Y-106730499D01*
X69269122Y-106730499D01*
X69293827Y-106727634D01*
X69394891Y-106683010D01*
X69473010Y-106604891D01*
X69517634Y-106503827D01*
X69520500Y-106479123D01*
X69520499Y-106020878D01*
X69517634Y-105996173D01*
X69473010Y-105895109D01*
X69473007Y-105895106D01*
X69473005Y-105895103D01*
X69394896Y-105816994D01*
X69394890Y-105816989D01*
X69306532Y-105777976D01*
X69293827Y-105772366D01*
X69269123Y-105769500D01*
X69269122Y-105769500D01*
X68910883Y-105769500D01*
X68910871Y-105769501D01*
X68886173Y-105772366D01*
X68785109Y-105816990D01*
X68785103Y-105816994D01*
X68706994Y-105895103D01*
X68706989Y-105895109D01*
X68662366Y-105996172D01*
X68659500Y-106020875D01*
X68659500Y-106307659D01*
X68641018Y-106358439D01*
X68636371Y-106363509D01*
X68485682Y-106514199D01*
X68335138Y-106664743D01*
X68333638Y-106666166D01*
X68301086Y-106695478D01*
X68301085Y-106695479D01*
X68296401Y-106706000D01*
X68290520Y-106719208D01*
X68284605Y-106730101D01*
X68270458Y-106751885D01*
X68269041Y-106760832D01*
X68263185Y-106780601D01*
X68259500Y-106788878D01*
X68259500Y-106814857D01*
X68258527Y-106827215D01*
X68254464Y-106852865D01*
X68254464Y-106852868D01*
X68256808Y-106861614D01*
X68259500Y-106882062D01*
X68259500Y-108000307D01*
X68259446Y-108002381D01*
X68259229Y-108006499D01*
X68238107Y-108056239D01*
X68227730Y-108061524D01*
X68204000Y-108083459D01*
X68204000Y-108616000D01*
X68735515Y-108616000D01*
X68786295Y-108634482D01*
X68791376Y-108639138D01*
X68883794Y-108731557D01*
X68909566Y-108757329D01*
X68912325Y-108760394D01*
X68925847Y-108777092D01*
X68935267Y-108788724D01*
X68935268Y-108788725D01*
X68935730Y-108788960D01*
X68955725Y-108803487D01*
X71917115Y-111764878D01*
X71918515Y-111766352D01*
X71947834Y-111798915D01*
X71965257Y-111806672D01*
X71971561Y-111809479D01*
X71982455Y-111815394D01*
X72004238Y-111829540D01*
X72004240Y-111829540D01*
X72004242Y-111829542D01*
X72013185Y-111830958D01*
X72032961Y-111836816D01*
X72043477Y-111841498D01*
X72082350Y-111879037D01*
X72087998Y-111932780D01*
X72077035Y-111957552D01*
X72073813Y-111962373D01*
X72073812Y-111962376D01*
X72067323Y-111995000D01*
X72064500Y-112009194D01*
X72064500Y-113740806D01*
X72065092Y-113743782D01*
X72073812Y-113787623D01*
X72093181Y-113816611D01*
X72106024Y-113869102D01*
X72082122Y-113917568D01*
X72032659Y-113939331D01*
X72027494Y-113939500D01*
X67187000Y-113939500D01*
X67136220Y-113921018D01*
X67109200Y-113874218D01*
X67108000Y-113860500D01*
X67108000Y-112954000D01*
X65092000Y-112954000D01*
X65092000Y-113860500D01*
X65073518Y-113911280D01*
X65026718Y-113938300D01*
X65013000Y-113939500D01*
X63058467Y-113939500D01*
X63007687Y-113921018D01*
X63002606Y-113916361D01*
X62360439Y-113274194D01*
X62337601Y-113225218D01*
X62337300Y-113218333D01*
X62337300Y-112446000D01*
X65092000Y-112446000D01*
X65846000Y-112446000D01*
X65846000Y-111042000D01*
X66354000Y-111042000D01*
X66354000Y-112446000D01*
X67108000Y-112446000D01*
X67108000Y-111501403D01*
X67101495Y-111440911D01*
X67101493Y-111440903D01*
X67050445Y-111304037D01*
X67050444Y-111304035D01*
X66962903Y-111187096D01*
X66845964Y-111099555D01*
X66845962Y-111099554D01*
X66709096Y-111048506D01*
X66709088Y-111048504D01*
X66648596Y-111042000D01*
X66354000Y-111042000D01*
X65846000Y-111042000D01*
X65551404Y-111042000D01*
X65490911Y-111048504D01*
X65490903Y-111048506D01*
X65354037Y-111099554D01*
X65354035Y-111099555D01*
X65237096Y-111187096D01*
X65149555Y-111304035D01*
X65149554Y-111304037D01*
X65098506Y-111440903D01*
X65098504Y-111440911D01*
X65092000Y-111501403D01*
X65092000Y-112446000D01*
X62337300Y-112446000D01*
X62337300Y-112003335D01*
X62355782Y-111952555D01*
X62402582Y-111925535D01*
X62455800Y-111934919D01*
X62462736Y-111939424D01*
X62466408Y-111942092D01*
X62466412Y-111942094D01*
X62466413Y-111942095D01*
X62565339Y-111992500D01*
X62565343Y-111992500D01*
X62565344Y-111992501D01*
X62674998Y-112009869D01*
X62675000Y-112009869D01*
X62675002Y-112009869D01*
X62784655Y-111992501D01*
X62784655Y-111992500D01*
X62784661Y-111992500D01*
X62883587Y-111942095D01*
X62962095Y-111863587D01*
X63012500Y-111764661D01*
X63018629Y-111725965D01*
X63029869Y-111655002D01*
X63029869Y-111654997D01*
X63012501Y-111545344D01*
X63012500Y-111545343D01*
X63012500Y-111545339D01*
X62962095Y-111446413D01*
X62962094Y-111446412D01*
X62962093Y-111446410D01*
X62883589Y-111367906D01*
X62867091Y-111359500D01*
X62784661Y-111317500D01*
X62784658Y-111317499D01*
X62784655Y-111317498D01*
X62675002Y-111300131D01*
X62674998Y-111300131D01*
X62565344Y-111317498D01*
X62565340Y-111317499D01*
X62565339Y-111317500D01*
X62482909Y-111359500D01*
X62466411Y-111367906D01*
X62462732Y-111370579D01*
X62410785Y-111385471D01*
X62361419Y-111363489D01*
X62337732Y-111314917D01*
X62337300Y-111306664D01*
X62337300Y-109430002D01*
X64059383Y-109430002D01*
X64079723Y-109558426D01*
X64079724Y-109558429D01*
X64079725Y-109558433D01*
X64134817Y-109666558D01*
X64138760Y-109674296D01*
X64230703Y-109766239D01*
X64230705Y-109766240D01*
X64230706Y-109766241D01*
X64346567Y-109825275D01*
X64346572Y-109825275D01*
X64346573Y-109825276D01*
X64474998Y-109845617D01*
X64475000Y-109845617D01*
X64475001Y-109845617D01*
X64507307Y-109840500D01*
X64544051Y-109834680D01*
X64597097Y-109844990D01*
X64631106Y-109886987D01*
X64634437Y-109900348D01*
X64654723Y-110028427D01*
X64654724Y-110028430D01*
X64654725Y-110028433D01*
X64705409Y-110127906D01*
X64713760Y-110144296D01*
X64805703Y-110236239D01*
X64805705Y-110236240D01*
X64805706Y-110236241D01*
X64902658Y-110285640D01*
X64939513Y-110325162D01*
X64942341Y-110379127D01*
X64937183Y-110391894D01*
X64912501Y-110440337D01*
X64912498Y-110440344D01*
X64895131Y-110549997D01*
X64895131Y-110550002D01*
X64912498Y-110659655D01*
X64912499Y-110659658D01*
X64912500Y-110659661D01*
X64939486Y-110712624D01*
X64962906Y-110758589D01*
X65041410Y-110837093D01*
X65041412Y-110837094D01*
X65041413Y-110837095D01*
X65140339Y-110887500D01*
X65140343Y-110887500D01*
X65140344Y-110887501D01*
X65249998Y-110904869D01*
X65250000Y-110904869D01*
X65250002Y-110904869D01*
X65359655Y-110887501D01*
X65359655Y-110887500D01*
X65359661Y-110887500D01*
X65458587Y-110837095D01*
X65482041Y-110813640D01*
X65531017Y-110790801D01*
X65537904Y-110790500D01*
X68312096Y-110790500D01*
X68362876Y-110808982D01*
X68367958Y-110813640D01*
X68391410Y-110837093D01*
X68391412Y-110837094D01*
X68391413Y-110837095D01*
X68490339Y-110887500D01*
X68490343Y-110887500D01*
X68490344Y-110887501D01*
X68599998Y-110904869D01*
X68600000Y-110904869D01*
X68600002Y-110904869D01*
X68709655Y-110887501D01*
X68709655Y-110887500D01*
X68709661Y-110887500D01*
X68808587Y-110837095D01*
X68887095Y-110758587D01*
X68937500Y-110659661D01*
X68942359Y-110628982D01*
X68954869Y-110550002D01*
X68954869Y-110549997D01*
X68937501Y-110440344D01*
X68937500Y-110440343D01*
X68937500Y-110440339D01*
X68887095Y-110341413D01*
X68887094Y-110341412D01*
X68887093Y-110341410D01*
X68808589Y-110262906D01*
X68771911Y-110244218D01*
X68709661Y-110212500D01*
X68709658Y-110212499D01*
X68709655Y-110212498D01*
X68600002Y-110195131D01*
X68599998Y-110195131D01*
X68490338Y-110212499D01*
X68484523Y-110214389D01*
X68430517Y-110212502D01*
X68390359Y-110176341D01*
X68382840Y-110122828D01*
X68387842Y-110107351D01*
X68417585Y-110039991D01*
X68420500Y-110014865D01*
X68420499Y-109645136D01*
X68419898Y-109639957D01*
X68432401Y-109587387D01*
X68458158Y-109562850D01*
X68520323Y-109526087D01*
X68636087Y-109410323D01*
X68636089Y-109410320D01*
X68719432Y-109269394D01*
X68761673Y-109124000D01*
X67138327Y-109124000D01*
X67180567Y-109269394D01*
X67263910Y-109410320D01*
X67263912Y-109410323D01*
X67328228Y-109474639D01*
X67351066Y-109523615D01*
X67337080Y-109575813D01*
X67292814Y-109606808D01*
X67272367Y-109609500D01*
X66739500Y-109609500D01*
X66688720Y-109591018D01*
X66661700Y-109544218D01*
X66660500Y-109530500D01*
X66660500Y-109434194D01*
X66651187Y-109387376D01*
X66615713Y-109334284D01*
X66587878Y-109315687D01*
X66555923Y-109272108D01*
X66559456Y-109218185D01*
X66587878Y-109184313D01*
X66615713Y-109165715D01*
X66622403Y-109155703D01*
X66651187Y-109112624D01*
X66660500Y-109065806D01*
X66660500Y-108615999D01*
X67138326Y-108615999D01*
X67138327Y-108616000D01*
X67696000Y-108616000D01*
X67696000Y-108083459D01*
X67677825Y-108084891D01*
X67677822Y-108084891D01*
X67520601Y-108130570D01*
X67379679Y-108213910D01*
X67379676Y-108213912D01*
X67263912Y-108329676D01*
X67263910Y-108329679D01*
X67180567Y-108470605D01*
X67138326Y-108615999D01*
X66660500Y-108615999D01*
X66660500Y-108387172D01*
X66678982Y-108336392D01*
X66711893Y-108313153D01*
X66745960Y-108300446D01*
X66745961Y-108300446D01*
X66862903Y-108212903D01*
X66950444Y-108095964D01*
X66950445Y-108095962D01*
X67001493Y-107959096D01*
X67001495Y-107959088D01*
X67008000Y-107898596D01*
X67008000Y-107704000D01*
X64992000Y-107704000D01*
X64992000Y-107898596D01*
X64998504Y-107959088D01*
X64998506Y-107959096D01*
X65049554Y-108095962D01*
X65049555Y-108095964D01*
X65137096Y-108212903D01*
X65221032Y-108275738D01*
X65250608Y-108320966D01*
X65244192Y-108374623D01*
X65204787Y-108411603D01*
X65201992Y-108412737D01*
X65192277Y-108416465D01*
X65180403Y-108419982D01*
X65154992Y-108425384D01*
X65147659Y-108430711D01*
X65129551Y-108440543D01*
X65121087Y-108443792D01*
X65102715Y-108462164D01*
X65093295Y-108470210D01*
X65072281Y-108485479D01*
X65072280Y-108485479D01*
X65067750Y-108493326D01*
X65055198Y-108509681D01*
X64568637Y-108996242D01*
X64519661Y-109019080D01*
X64500421Y-109018409D01*
X64475000Y-109014383D01*
X64474999Y-109014383D01*
X64474998Y-109014383D01*
X64474997Y-109014383D01*
X64346573Y-109034723D01*
X64346568Y-109034724D01*
X64346567Y-109034725D01*
X64328582Y-109043889D01*
X64230703Y-109093760D01*
X64138760Y-109185703D01*
X64119583Y-109223341D01*
X64079725Y-109301567D01*
X64079724Y-109301568D01*
X64079725Y-109301568D01*
X64079723Y-109301573D01*
X64059383Y-109429997D01*
X64059383Y-109430002D01*
X62337300Y-109430002D01*
X62337300Y-108355778D01*
X62355782Y-108304998D01*
X62402582Y-108277978D01*
X62452164Y-108285388D01*
X62471567Y-108295275D01*
X62471572Y-108295275D01*
X62471573Y-108295276D01*
X62599998Y-108315617D01*
X62600000Y-108315617D01*
X62600002Y-108315617D01*
X62695785Y-108300446D01*
X62728433Y-108295275D01*
X62844294Y-108236241D01*
X62936241Y-108144294D01*
X62995275Y-108028433D01*
X63001778Y-107987374D01*
X63015617Y-107900002D01*
X63015617Y-107899997D01*
X62995276Y-107771573D01*
X62995275Y-107771572D01*
X62995275Y-107771567D01*
X62936241Y-107655706D01*
X62936240Y-107655705D01*
X62936239Y-107655703D01*
X62844296Y-107563760D01*
X62833861Y-107558443D01*
X62728433Y-107504725D01*
X62728429Y-107504724D01*
X62728426Y-107504723D01*
X62600002Y-107484383D01*
X62599998Y-107484383D01*
X62471573Y-107504723D01*
X62471568Y-107504724D01*
X62471567Y-107504725D01*
X62471565Y-107504725D01*
X62471565Y-107504726D01*
X62452164Y-107514611D01*
X62398527Y-107521196D01*
X62353207Y-107491763D01*
X62337300Y-107444221D01*
X62337300Y-105754000D01*
X64992000Y-105754000D01*
X64992000Y-106698596D01*
X64998504Y-106759088D01*
X64998507Y-106759099D01*
X65022113Y-106822393D01*
X65022541Y-106876431D01*
X65022113Y-106877607D01*
X64998507Y-106940900D01*
X64998504Y-106940911D01*
X64992000Y-107001403D01*
X64992000Y-107196000D01*
X65746000Y-107196000D01*
X65746000Y-105754000D01*
X66254000Y-105754000D01*
X66254000Y-107196000D01*
X67008000Y-107196000D01*
X67008000Y-107001402D01*
X67001495Y-106940911D01*
X67001494Y-106940905D01*
X66977885Y-106877609D01*
X66977456Y-106823571D01*
X66977885Y-106822391D01*
X67001494Y-106759094D01*
X67001495Y-106759088D01*
X67008000Y-106698597D01*
X67008000Y-105754000D01*
X66254000Y-105754000D01*
X65746000Y-105754000D01*
X64992000Y-105754000D01*
X62337300Y-105754000D01*
X62337300Y-105246000D01*
X64992000Y-105246000D01*
X65746000Y-105246000D01*
X65746000Y-103842000D01*
X66254000Y-103842000D01*
X66254000Y-105246000D01*
X67008000Y-105246000D01*
X67008000Y-104301403D01*
X67001495Y-104240911D01*
X67001493Y-104240903D01*
X66950445Y-104104037D01*
X66950444Y-104104035D01*
X66862903Y-103987096D01*
X66745964Y-103899555D01*
X66745962Y-103899554D01*
X66609096Y-103848506D01*
X66609088Y-103848504D01*
X66548596Y-103842000D01*
X66254000Y-103842000D01*
X65746000Y-103842000D01*
X65451404Y-103842000D01*
X65390911Y-103848504D01*
X65390903Y-103848506D01*
X65254037Y-103899554D01*
X65254035Y-103899555D01*
X65137096Y-103987096D01*
X65049555Y-104104035D01*
X65049554Y-104104037D01*
X64998506Y-104240903D01*
X64998504Y-104240911D01*
X64992000Y-104301403D01*
X64992000Y-105246000D01*
X62337300Y-105246000D01*
X62337300Y-102980367D01*
X62355782Y-102929587D01*
X62402582Y-102902567D01*
X62455800Y-102911951D01*
X62460182Y-102914676D01*
X62492376Y-102936187D01*
X62539194Y-102945500D01*
X63670806Y-102945500D01*
X63717624Y-102936187D01*
X63770714Y-102900714D01*
X63806187Y-102847624D01*
X63815500Y-102800806D01*
X63815500Y-101469194D01*
X63806187Y-101422376D01*
X63791241Y-101400007D01*
X63770714Y-101369285D01*
X63726611Y-101339818D01*
X63717624Y-101333813D01*
X63717623Y-101333812D01*
X63670806Y-101324500D01*
X62712791Y-101324500D01*
X62662011Y-101306018D01*
X62634991Y-101259218D01*
X62634596Y-101256747D01*
X62632366Y-101241241D01*
X62631797Y-101237290D01*
X62631048Y-101223102D01*
X62631822Y-101202439D01*
X62621564Y-101164155D01*
X62620623Y-101159573D01*
X62615439Y-101123509D01*
X62606645Y-101104253D01*
X62602200Y-101091888D01*
X62595894Y-101068351D01*
X62576622Y-101037681D01*
X62574138Y-101033074D01*
X62571873Y-101028115D01*
X62560430Y-101003056D01*
X62544149Y-100984268D01*
X62536965Y-100974567D01*
X62536920Y-100974495D01*
X62522038Y-100950810D01*
X62522036Y-100950808D01*
X62499367Y-100931300D01*
X62491192Y-100923153D01*
X62488751Y-100920336D01*
X62473713Y-100902980D01*
X62447384Y-100886059D01*
X62442970Y-100882766D01*
X62416816Y-100860259D01*
X62392789Y-100849776D01*
X62381672Y-100843828D01*
X62362315Y-100831388D01*
X62349152Y-100827523D01*
X62329000Y-100821605D01*
X62324333Y-100819909D01*
X62289581Y-100804748D01*
X62282321Y-100803930D01*
X62267206Y-100802226D01*
X62253796Y-100799524D01*
X62253295Y-100799377D01*
X62235259Y-100794081D01*
X62197127Y-100794081D01*
X62192701Y-100793832D01*
X62151639Y-100789205D01*
X62151632Y-100789205D01*
X62133141Y-100792704D01*
X62118456Y-100794081D01*
X62102839Y-100794081D01*
X62097509Y-100795646D01*
X62062991Y-100805780D01*
X62059207Y-100806691D01*
X62015240Y-100815011D01*
X62015232Y-100815014D01*
X62001866Y-100822078D01*
X61987215Y-100828030D01*
X61975790Y-100831385D01*
X61975781Y-100831388D01*
X61937973Y-100855687D01*
X61935074Y-100857380D01*
X61892506Y-100879878D01*
X61892503Y-100879880D01*
X61884438Y-100887946D01*
X61871296Y-100898537D01*
X61864388Y-100902976D01*
X61864386Y-100902979D01*
X61864385Y-100902979D01*
X61864385Y-100902980D01*
X61862637Y-100904997D01*
X61832718Y-100939524D01*
X61830796Y-100941588D01*
X61571046Y-101201338D01*
X61567741Y-101204291D01*
X61535417Y-101230070D01*
X61501160Y-101280316D01*
X61465067Y-101329218D01*
X61462302Y-101334452D01*
X61462214Y-101334405D01*
X61459695Y-101339395D01*
X61459784Y-101339438D01*
X61457216Y-101344770D01*
X61439297Y-101402863D01*
X61419215Y-101460253D01*
X61418116Y-101466065D01*
X61418020Y-101466046D01*
X61417084Y-101471556D01*
X61417182Y-101471571D01*
X61416300Y-101477423D01*
X61416300Y-101538217D01*
X61414027Y-101598972D01*
X61414690Y-101604853D01*
X61414589Y-101604864D01*
X61416300Y-101617854D01*
X61416300Y-103170042D01*
X61397818Y-103220822D01*
X61351018Y-103247842D01*
X61297800Y-103238458D01*
X61281439Y-103225903D01*
X61243639Y-103188103D01*
X61220801Y-103139127D01*
X61220500Y-103132242D01*
X61220500Y-101202339D01*
X61220554Y-101200272D01*
X61221737Y-101177694D01*
X61222846Y-101156538D01*
X61213536Y-101132287D01*
X61210015Y-101120398D01*
X61207334Y-101107786D01*
X61204616Y-101094994D01*
X61199288Y-101087661D01*
X61189452Y-101069545D01*
X61186206Y-101061088D01*
X61167835Y-101042717D01*
X61159791Y-101033298D01*
X61144521Y-101012281D01*
X61144518Y-101012279D01*
X61136674Y-101007750D01*
X61120314Y-100995196D01*
X60560479Y-100435361D01*
X60537641Y-100386385D01*
X60551627Y-100334187D01*
X60595893Y-100303192D01*
X60616340Y-100300500D01*
X65773160Y-100300500D01*
X65823940Y-100318982D01*
G37*
G04 #@! TD.AperFunction*
G04 #@! TA.AperFunction,Conductor*
G36*
X53121780Y-111173482D02*
G01*
X53148800Y-111220282D01*
X53150000Y-111234000D01*
X53150000Y-111476000D01*
X53131518Y-111526780D01*
X53084718Y-111553800D01*
X53071000Y-111555000D01*
X52112842Y-111555000D01*
X52062062Y-111536518D01*
X52056981Y-111531862D01*
X51945979Y-111420861D01*
X51923141Y-111371885D01*
X51937127Y-111319687D01*
X51945972Y-111309144D01*
X52076979Y-111178138D01*
X52125956Y-111155301D01*
X52132841Y-111155000D01*
X53071000Y-111155000D01*
X53121780Y-111173482D01*
G37*
G04 #@! TD.AperFunction*
G04 #@! TA.AperFunction,Conductor*
G36*
X55605813Y-107801626D02*
G01*
X55636808Y-107845892D01*
X55638923Y-107861961D01*
X55639119Y-107861942D01*
X55639499Y-107865801D01*
X55648812Y-107912623D01*
X55684286Y-107965714D01*
X55712122Y-107984313D01*
X55744077Y-108027893D01*
X55740543Y-108081816D01*
X55712122Y-108115687D01*
X55684286Y-108134285D01*
X55648812Y-108187376D01*
X55639500Y-108234194D01*
X55639500Y-109065805D01*
X55648812Y-109112623D01*
X55684286Y-109165714D01*
X55712122Y-109184313D01*
X55744077Y-109227893D01*
X55740543Y-109281816D01*
X55712122Y-109315687D01*
X55684286Y-109334285D01*
X55648812Y-109387376D01*
X55639500Y-109434194D01*
X55639500Y-109530500D01*
X55621018Y-109581280D01*
X55574218Y-109608300D01*
X55560500Y-109609500D01*
X54852341Y-109609500D01*
X54850274Y-109609446D01*
X54816590Y-109607680D01*
X54806538Y-109607154D01*
X54806537Y-109607154D01*
X54806536Y-109607154D01*
X54782280Y-109616464D01*
X54770403Y-109619982D01*
X54744992Y-109625384D01*
X54737659Y-109630711D01*
X54719551Y-109640543D01*
X54711087Y-109643792D01*
X54692715Y-109662164D01*
X54683295Y-109670210D01*
X54662281Y-109685479D01*
X54662280Y-109685479D01*
X54657750Y-109693326D01*
X54645198Y-109709681D01*
X53745137Y-110609744D01*
X53743637Y-110611167D01*
X53723853Y-110628982D01*
X53711085Y-110640479D01*
X53703827Y-110656781D01*
X53700520Y-110664208D01*
X53694605Y-110675101D01*
X53680457Y-110696887D01*
X53680015Y-110698039D01*
X53678806Y-110699429D01*
X53675935Y-110703851D01*
X53675313Y-110703447D01*
X53644561Y-110738822D01*
X53591187Y-110747274D01*
X53558920Y-110732969D01*
X53520964Y-110704555D01*
X53520958Y-110704552D01*
X53486891Y-110691845D01*
X53445772Y-110656781D01*
X53435500Y-110617827D01*
X53435500Y-110489194D01*
X53426187Y-110442376D01*
X53390714Y-110389285D01*
X53341903Y-110356672D01*
X53337624Y-110353813D01*
X53337623Y-110353812D01*
X53290806Y-110344500D01*
X53269500Y-110344500D01*
X53218720Y-110326018D01*
X53191700Y-110279218D01*
X53190500Y-110265500D01*
X53190500Y-110157339D01*
X53208982Y-110106559D01*
X53213628Y-110101489D01*
X55504640Y-107810477D01*
X55553615Y-107787640D01*
X55605813Y-107801626D01*
G37*
G04 #@! TD.AperFunction*
G04 #@! TA.AperFunction,Conductor*
G36*
X57047628Y-100318982D02*
G01*
X57074648Y-100365782D01*
X57065264Y-100419000D01*
X57052709Y-100435360D01*
X56612705Y-100875364D01*
X56175138Y-101312931D01*
X56173638Y-101314354D01*
X56141086Y-101343666D01*
X56141085Y-101343667D01*
X56132645Y-101362624D01*
X56130520Y-101367396D01*
X56124605Y-101378289D01*
X56110458Y-101400073D01*
X56109041Y-101409020D01*
X56103185Y-101428789D01*
X56099500Y-101437066D01*
X56099500Y-101463045D01*
X56098527Y-101475403D01*
X56095265Y-101496000D01*
X56094464Y-101501056D01*
X56095420Y-101504625D01*
X56096808Y-101509802D01*
X56099500Y-101530250D01*
X56099500Y-101847440D01*
X56081018Y-101898220D01*
X56076361Y-101903301D01*
X54891310Y-103088351D01*
X54842334Y-103111189D01*
X54790136Y-103097203D01*
X54759141Y-103052937D01*
X54757577Y-103045580D01*
X54757501Y-103045346D01*
X54757500Y-103045339D01*
X54707095Y-102946413D01*
X54707094Y-102946412D01*
X54707093Y-102946410D01*
X54628589Y-102867906D01*
X54611626Y-102859263D01*
X54529661Y-102817500D01*
X54529658Y-102817499D01*
X54529655Y-102817498D01*
X54420002Y-102800131D01*
X54419998Y-102800131D01*
X54310344Y-102817498D01*
X54310340Y-102817499D01*
X54310339Y-102817500D01*
X54287524Y-102829125D01*
X54211410Y-102867906D01*
X54132906Y-102946410D01*
X54110836Y-102989726D01*
X54082500Y-103045339D01*
X54082499Y-103045340D01*
X54082500Y-103045340D01*
X54082498Y-103045344D01*
X54065131Y-103154997D01*
X54065131Y-103155002D01*
X54082498Y-103264655D01*
X54082499Y-103264658D01*
X54082500Y-103264661D01*
X54120945Y-103340114D01*
X54132906Y-103363589D01*
X54211410Y-103442093D01*
X54211412Y-103442094D01*
X54211413Y-103442095D01*
X54310339Y-103492500D01*
X54310346Y-103492501D01*
X54316255Y-103494422D01*
X54315826Y-103495739D01*
X54357104Y-103518611D01*
X54376478Y-103569058D01*
X54358892Y-103620156D01*
X54353351Y-103626310D01*
X53845361Y-104134301D01*
X53796385Y-104157139D01*
X53744188Y-104143153D01*
X53713192Y-104098887D01*
X53710500Y-104078440D01*
X53710500Y-104002339D01*
X53710554Y-104000272D01*
X53710987Y-103992000D01*
X53712846Y-103956538D01*
X53712845Y-103956535D01*
X53712845Y-103956534D01*
X53703538Y-103932289D01*
X53700018Y-103920409D01*
X53694616Y-103894994D01*
X53692508Y-103892093D01*
X53689291Y-103887664D01*
X53679454Y-103869545D01*
X53676208Y-103861089D01*
X53676207Y-103861088D01*
X53674380Y-103859261D01*
X53657833Y-103842714D01*
X53649794Y-103833302D01*
X53634521Y-103812281D01*
X53634520Y-103812280D01*
X53634519Y-103812279D01*
X53634518Y-103812278D01*
X53626673Y-103807749D01*
X53610315Y-103795196D01*
X53565795Y-103750676D01*
X53543629Y-103707173D01*
X53540493Y-103687376D01*
X53527500Y-103605339D01*
X53477095Y-103506413D01*
X53477094Y-103506412D01*
X53477093Y-103506410D01*
X53398589Y-103427906D01*
X53396774Y-103426981D01*
X53299661Y-103377500D01*
X53299658Y-103377499D01*
X53299655Y-103377498D01*
X53257139Y-103370764D01*
X53209876Y-103344565D01*
X53190511Y-103294114D01*
X53190499Y-103292737D01*
X53190499Y-103225883D01*
X53190498Y-103225876D01*
X53187634Y-103201173D01*
X53143010Y-103100109D01*
X53143007Y-103100106D01*
X53143005Y-103100103D01*
X53064896Y-103021994D01*
X53064890Y-103021989D01*
X52996125Y-102991627D01*
X52963827Y-102977366D01*
X52939123Y-102974500D01*
X52939122Y-102974500D01*
X52580883Y-102974500D01*
X52580871Y-102974501D01*
X52556173Y-102977366D01*
X52455109Y-103021990D01*
X52455103Y-103021994D01*
X52376994Y-103100103D01*
X52376989Y-103100109D01*
X52332366Y-103201173D01*
X52329500Y-103225874D01*
X52329500Y-103684116D01*
X52329501Y-103684128D01*
X52331956Y-103705297D01*
X52332366Y-103708827D01*
X52376990Y-103809891D01*
X52376991Y-103809892D01*
X52376994Y-103809896D01*
X52455103Y-103888005D01*
X52455106Y-103888007D01*
X52455109Y-103888010D01*
X52455111Y-103888010D01*
X52455114Y-103888013D01*
X52470331Y-103894732D01*
X52509319Y-103932151D01*
X52515133Y-103985876D01*
X52485052Y-104030769D01*
X52470331Y-104039268D01*
X52455114Y-104045986D01*
X52455103Y-104045994D01*
X52376994Y-104124103D01*
X52376989Y-104124109D01*
X52332366Y-104225173D01*
X52329500Y-104249874D01*
X52329500Y-104708116D01*
X52329501Y-104708128D01*
X52331516Y-104725499D01*
X52332366Y-104732827D01*
X52376990Y-104833891D01*
X52376991Y-104833892D01*
X52376994Y-104833896D01*
X52455103Y-104912005D01*
X52455108Y-104912009D01*
X52455109Y-104912010D01*
X52472410Y-104919649D01*
X52511397Y-104957065D01*
X52519500Y-104991917D01*
X52519500Y-105002659D01*
X52519446Y-105004726D01*
X52517154Y-105048463D01*
X52517154Y-105048465D01*
X52526462Y-105072713D01*
X52529982Y-105084596D01*
X52535383Y-105110005D01*
X52540708Y-105117334D01*
X52550547Y-105135456D01*
X52553791Y-105143908D01*
X52553794Y-105143912D01*
X52572158Y-105162276D01*
X52580204Y-105171696D01*
X52595479Y-105192719D01*
X52602515Y-105196781D01*
X52603322Y-105197247D01*
X52619685Y-105209803D01*
X52624203Y-105214321D01*
X52646369Y-105257823D01*
X52662498Y-105359654D01*
X52662499Y-105359657D01*
X52662500Y-105359661D01*
X52691279Y-105416143D01*
X52712906Y-105458589D01*
X52791410Y-105537093D01*
X52791412Y-105537094D01*
X52791413Y-105537095D01*
X52890339Y-105587500D01*
X52890343Y-105587500D01*
X52890344Y-105587501D01*
X52999998Y-105604869D01*
X53000000Y-105604869D01*
X53000002Y-105604869D01*
X53109655Y-105587501D01*
X53109655Y-105587500D01*
X53109661Y-105587500D01*
X53114635Y-105584965D01*
X53168268Y-105578379D01*
X53213590Y-105607810D01*
X53229499Y-105655355D01*
X53229499Y-106694036D01*
X53211017Y-106744816D01*
X53206360Y-106749897D01*
X52419897Y-107536361D01*
X52370921Y-107559199D01*
X52364036Y-107559500D01*
X51464594Y-107559500D01*
X51413814Y-107541018D01*
X51386794Y-107494218D01*
X51394204Y-107444635D01*
X51401727Y-107429869D01*
X51437500Y-107359661D01*
X51446581Y-107302327D01*
X51454869Y-107250002D01*
X51454869Y-107249997D01*
X51437501Y-107140344D01*
X51437500Y-107140343D01*
X51437500Y-107140339D01*
X51387095Y-107041413D01*
X51387094Y-107041412D01*
X51387093Y-107041410D01*
X51308592Y-106962909D01*
X51308588Y-106962906D01*
X51308587Y-106962905D01*
X51308585Y-106962904D01*
X51306562Y-106961434D01*
X51305412Y-106959729D01*
X51304191Y-106958508D01*
X51304428Y-106958270D01*
X51276346Y-106916632D01*
X51274000Y-106897523D01*
X51274000Y-106734000D01*
X51782000Y-106734000D01*
X51782000Y-107266538D01*
X51800174Y-107265108D01*
X51957398Y-107219429D01*
X52098320Y-107136089D01*
X52098323Y-107136087D01*
X52214087Y-107020323D01*
X52214089Y-107020320D01*
X52297432Y-106879394D01*
X52339673Y-106734000D01*
X51782000Y-106734000D01*
X51274000Y-106734000D01*
X51274000Y-106305000D01*
X51292482Y-106254220D01*
X51339282Y-106227200D01*
X51353000Y-106226000D01*
X52339673Y-106226000D01*
X52339673Y-106225999D01*
X52297432Y-106080605D01*
X52214089Y-105939679D01*
X52214087Y-105939676D01*
X52098323Y-105823912D01*
X52098320Y-105823910D01*
X52036159Y-105787148D01*
X52001858Y-105745390D01*
X51997900Y-105710043D01*
X51998498Y-105704880D01*
X51998500Y-105704865D01*
X51998499Y-105335136D01*
X51995585Y-105310009D01*
X51961854Y-105233617D01*
X51958252Y-105179701D01*
X51977572Y-105147025D01*
X51977568Y-105147022D01*
X51977589Y-105146996D01*
X51978273Y-105145839D01*
X51979899Y-105144214D01*
X51982432Y-105140515D01*
X51985825Y-105136231D01*
X52008565Y-105111288D01*
X52013209Y-105099298D01*
X52021697Y-105083196D01*
X52028963Y-105072590D01*
X52036691Y-105039730D01*
X52038303Y-105034523D01*
X52050500Y-105003042D01*
X52050500Y-104990186D01*
X52052599Y-104972096D01*
X52053486Y-104968326D01*
X52055541Y-104959589D01*
X52053847Y-104947448D01*
X52065134Y-104894604D01*
X52076221Y-104880679D01*
X52123010Y-104833891D01*
X52167634Y-104732827D01*
X52170500Y-104708123D01*
X52170499Y-104249878D01*
X52167634Y-104225173D01*
X52123010Y-104124109D01*
X52073637Y-104074736D01*
X52050800Y-104025762D01*
X52050500Y-104018898D01*
X52050500Y-103915120D01*
X52068981Y-103864343D01*
X52073628Y-103859272D01*
X52123010Y-103809891D01*
X52167634Y-103708827D01*
X52170500Y-103684123D01*
X52170499Y-103225878D01*
X52167634Y-103201173D01*
X52123010Y-103100109D01*
X52053130Y-103030229D01*
X52035328Y-103002908D01*
X52034547Y-103000895D01*
X52034547Y-103000892D01*
X52016785Y-102972204D01*
X52014233Y-102967362D01*
X52005768Y-102948192D01*
X52000599Y-102936485D01*
X52000598Y-102936484D01*
X52000597Y-102936482D01*
X51991510Y-102927395D01*
X51980204Y-102913122D01*
X51973439Y-102902196D01*
X51973437Y-102902194D01*
X51946511Y-102881861D01*
X51942379Y-102878266D01*
X51811638Y-102747524D01*
X51788801Y-102698548D01*
X51788500Y-102691663D01*
X51788500Y-102448506D01*
X51806982Y-102397726D01*
X51850625Y-102372528D01*
X51850518Y-102372197D01*
X51852076Y-102371690D01*
X51853782Y-102370706D01*
X51855036Y-102370496D01*
X51856433Y-102370275D01*
X51972294Y-102311241D01*
X52064241Y-102219294D01*
X52123275Y-102103433D01*
X52138500Y-102007307D01*
X52138499Y-101325722D01*
X52156981Y-101274943D01*
X52203781Y-101247923D01*
X52253362Y-101255332D01*
X52341567Y-101300275D01*
X52341571Y-101300275D01*
X52341573Y-101300276D01*
X52469998Y-101320617D01*
X52470000Y-101320617D01*
X52470002Y-101320617D01*
X52570318Y-101304728D01*
X52598433Y-101300275D01*
X52714294Y-101241241D01*
X52806241Y-101149294D01*
X52865275Y-101033433D01*
X52871730Y-100992681D01*
X52885617Y-100905002D01*
X52885617Y-100904997D01*
X52873739Y-100830002D01*
X53595131Y-100830002D01*
X53612498Y-100939655D01*
X53612499Y-100939658D01*
X53612500Y-100939661D01*
X53649502Y-101012281D01*
X53662906Y-101038589D01*
X53741410Y-101117093D01*
X53741412Y-101117094D01*
X53741413Y-101117095D01*
X53840339Y-101167500D01*
X53840343Y-101167500D01*
X53840344Y-101167501D01*
X53949998Y-101184869D01*
X53950000Y-101184869D01*
X53950002Y-101184869D01*
X54059655Y-101167501D01*
X54059655Y-101167500D01*
X54059661Y-101167500D01*
X54158587Y-101117095D01*
X54237095Y-101038587D01*
X54287500Y-100939661D01*
X54287522Y-100939524D01*
X54304869Y-100830002D01*
X54304869Y-100829997D01*
X54287501Y-100720344D01*
X54287500Y-100720343D01*
X54287500Y-100720339D01*
X54237095Y-100621413D01*
X54237094Y-100621412D01*
X54237093Y-100621410D01*
X54158589Y-100542906D01*
X54156774Y-100541981D01*
X54059661Y-100492500D01*
X54059658Y-100492499D01*
X54059655Y-100492498D01*
X53950002Y-100475131D01*
X53949998Y-100475131D01*
X53840344Y-100492498D01*
X53840340Y-100492499D01*
X53840339Y-100492500D01*
X53806537Y-100509723D01*
X53741410Y-100542906D01*
X53662906Y-100621410D01*
X53650619Y-100645526D01*
X53612500Y-100720339D01*
X53612499Y-100720340D01*
X53612500Y-100720340D01*
X53612498Y-100720344D01*
X53595131Y-100829997D01*
X53595131Y-100830002D01*
X52873739Y-100830002D01*
X52865276Y-100776573D01*
X52865275Y-100776572D01*
X52865275Y-100776567D01*
X52806241Y-100660706D01*
X52806240Y-100660705D01*
X52806239Y-100660703D01*
X52714296Y-100568760D01*
X52696524Y-100559705D01*
X52598433Y-100509725D01*
X52598429Y-100509724D01*
X52598426Y-100509723D01*
X52470002Y-100489383D01*
X52469998Y-100489383D01*
X52341573Y-100509723D01*
X52341568Y-100509724D01*
X52341567Y-100509725D01*
X52284698Y-100538700D01*
X52225703Y-100568760D01*
X52133760Y-100660703D01*
X52119152Y-100689372D01*
X52079629Y-100726226D01*
X52025664Y-100729052D01*
X51992902Y-100709366D01*
X51972296Y-100688760D01*
X51969680Y-100687427D01*
X51856433Y-100629725D01*
X51856429Y-100629724D01*
X51856426Y-100629723D01*
X51760318Y-100614501D01*
X51760310Y-100614500D01*
X51760307Y-100614500D01*
X51760302Y-100614500D01*
X51616335Y-100614500D01*
X51565555Y-100596018D01*
X51560474Y-100591361D01*
X51404474Y-100435361D01*
X51381636Y-100386385D01*
X51395622Y-100334187D01*
X51439888Y-100303192D01*
X51460335Y-100300500D01*
X56996848Y-100300500D01*
X57047628Y-100318982D01*
G37*
G04 #@! TD.AperFunction*
G04 #@! TA.AperFunction,Conductor*
G36*
X73706251Y-100318982D02*
G01*
X73733271Y-100365782D01*
X73723887Y-100419000D01*
X73682491Y-100453736D01*
X73677727Y-100455300D01*
X73639712Y-100466461D01*
X73639705Y-100466463D01*
X73639704Y-100466464D01*
X73639700Y-100466465D01*
X73639697Y-100466467D01*
X73508922Y-100526190D01*
X73508919Y-100526191D01*
X73469744Y-100551367D01*
X73469738Y-100551371D01*
X73361076Y-100645526D01*
X73330571Y-100680731D01*
X73330567Y-100680737D01*
X73252844Y-100801678D01*
X73252839Y-100801687D01*
X73233491Y-100844052D01*
X73192985Y-100982003D01*
X73190228Y-101001181D01*
X73186356Y-101028111D01*
X73186356Y-101650000D01*
X73186771Y-101652087D01*
X73198812Y-101712623D01*
X73198813Y-101712625D01*
X73211165Y-101731112D01*
X73224008Y-101783603D01*
X73211165Y-101818888D01*
X73198813Y-101837374D01*
X73198812Y-101837376D01*
X73189500Y-101884194D01*
X73189500Y-102915805D01*
X73198812Y-102962623D01*
X73198813Y-102962625D01*
X73211165Y-102981112D01*
X73224008Y-103033603D01*
X73211165Y-103068888D01*
X73198813Y-103087374D01*
X73198812Y-103087376D01*
X73186928Y-103147123D01*
X73186356Y-103150000D01*
X73186356Y-103771889D01*
X73190487Y-103800617D01*
X73192985Y-103817996D01*
X73233491Y-103955947D01*
X73252839Y-103998312D01*
X73252844Y-103998321D01*
X73330567Y-104119262D01*
X73330571Y-104119268D01*
X73361076Y-104154473D01*
X73469738Y-104248628D01*
X73469744Y-104248632D01*
X73492708Y-104263390D01*
X73508919Y-104273808D01*
X73639704Y-104333536D01*
X73684396Y-104346658D01*
X73826711Y-104367120D01*
X73826715Y-104367120D01*
X73873287Y-104367120D01*
X73873289Y-104367120D01*
X73891873Y-104364448D01*
X73903115Y-104363644D01*
X74296885Y-104363644D01*
X74308126Y-104364448D01*
X74326711Y-104367120D01*
X74326713Y-104367120D01*
X74373277Y-104367120D01*
X74373289Y-104367120D01*
X74373300Y-104367118D01*
X74376024Y-104366923D01*
X74427996Y-104381726D01*
X74437536Y-104389860D01*
X74635354Y-104587678D01*
X74645629Y-104600330D01*
X74653601Y-104612533D01*
X74653603Y-104612534D01*
X74653604Y-104612536D01*
X74658729Y-104616525D01*
X74681478Y-104634232D01*
X74685151Y-104637475D01*
X74688708Y-104641033D01*
X74706960Y-104654065D01*
X74748544Y-104686432D01*
X74754306Y-104689550D01*
X74754103Y-104689924D01*
X74755913Y-104690856D01*
X74756100Y-104690474D01*
X74761982Y-104693350D01*
X74812511Y-104708393D01*
X74836418Y-104716600D01*
X74862343Y-104725500D01*
X74862347Y-104725500D01*
X74868800Y-104726577D01*
X74868730Y-104726995D01*
X74870740Y-104727288D01*
X74870793Y-104726869D01*
X74877291Y-104727678D01*
X74877293Y-104727679D01*
X74877294Y-104727678D01*
X74877295Y-104727679D01*
X74929965Y-104725500D01*
X75335986Y-104725500D01*
X75378696Y-104738040D01*
X75456734Y-104788193D01*
X75526241Y-104808602D01*
X75583789Y-104825500D01*
X75583790Y-104825500D01*
X75716211Y-104825500D01*
X75745049Y-104817031D01*
X75843266Y-104788193D01*
X75954664Y-104716601D01*
X76041381Y-104616525D01*
X76096390Y-104496072D01*
X76115235Y-104365000D01*
X76096390Y-104233928D01*
X76041381Y-104113475D01*
X75954664Y-104013399D01*
X75931481Y-103998500D01*
X75843268Y-103941808D01*
X75843266Y-103941807D01*
X75716211Y-103904500D01*
X75716210Y-103904500D01*
X75583790Y-103904500D01*
X75583789Y-103904500D01*
X75456733Y-103941807D01*
X75456731Y-103941808D01*
X75378697Y-103991959D01*
X75335986Y-104004500D01*
X75104546Y-104004500D01*
X75053766Y-103986018D01*
X75048685Y-103981361D01*
X75012536Y-103945212D01*
X74989698Y-103896236D01*
X74992596Y-103867097D01*
X75007015Y-103817993D01*
X75013644Y-103771889D01*
X75013644Y-103150000D01*
X75001187Y-103087376D01*
X74988834Y-103068888D01*
X74975991Y-103016397D01*
X74988835Y-102981109D01*
X75001187Y-102962624D01*
X75010500Y-102915806D01*
X75010500Y-102839500D01*
X75028982Y-102788720D01*
X75075782Y-102761700D01*
X75089500Y-102760500D01*
X75183353Y-102760500D01*
X75234133Y-102778982D01*
X75261153Y-102825782D01*
X75253743Y-102875362D01*
X75227232Y-102927395D01*
X75204724Y-102971568D01*
X75204723Y-102971573D01*
X75184383Y-103099997D01*
X75184383Y-103100002D01*
X75204723Y-103228426D01*
X75204724Y-103228429D01*
X75204725Y-103228433D01*
X75258932Y-103334820D01*
X75263760Y-103344296D01*
X75355703Y-103436239D01*
X75355705Y-103436240D01*
X75355706Y-103436241D01*
X75471567Y-103495275D01*
X75471572Y-103495275D01*
X75471573Y-103495276D01*
X75599998Y-103515617D01*
X75600000Y-103515617D01*
X75600002Y-103515617D01*
X75727997Y-103495344D01*
X75728433Y-103495275D01*
X75844294Y-103436241D01*
X75936241Y-103344294D01*
X75995275Y-103228433D01*
X76003290Y-103177829D01*
X76015617Y-103100002D01*
X76015617Y-103099997D01*
X75995396Y-102972327D01*
X76005707Y-102919281D01*
X76047703Y-102885273D01*
X76101734Y-102886216D01*
X76129284Y-102904108D01*
X76343658Y-103118482D01*
X76365993Y-103163099D01*
X76373609Y-103216070D01*
X76428619Y-103336525D01*
X76515335Y-103436600D01*
X76515338Y-103436603D01*
X76591194Y-103485354D01*
X76623921Y-103528356D01*
X76621349Y-103582334D01*
X76584682Y-103622030D01*
X76567442Y-103627677D01*
X76567483Y-103627803D01*
X76561568Y-103629724D01*
X76561567Y-103629725D01*
X76513014Y-103654464D01*
X76445703Y-103688760D01*
X76353760Y-103780703D01*
X76338888Y-103809892D01*
X76294725Y-103896567D01*
X76294724Y-103896568D01*
X76294725Y-103896568D01*
X76294723Y-103896573D01*
X76274383Y-104024997D01*
X76274383Y-104025002D01*
X76294723Y-104153426D01*
X76294724Y-104153429D01*
X76294725Y-104153433D01*
X76335698Y-104233847D01*
X76353760Y-104269296D01*
X76445703Y-104361239D01*
X76445705Y-104361240D01*
X76445706Y-104361241D01*
X76561567Y-104420275D01*
X76561572Y-104420275D01*
X76561573Y-104420276D01*
X76689998Y-104440617D01*
X76690000Y-104440617D01*
X76690002Y-104440617D01*
X76785615Y-104425472D01*
X76818433Y-104420275D01*
X76824635Y-104417114D01*
X76878270Y-104410529D01*
X76923592Y-104439960D01*
X76939500Y-104487504D01*
X76939500Y-105415805D01*
X76948812Y-105462623D01*
X76984285Y-105515714D01*
X77010831Y-105533450D01*
X77037376Y-105551187D01*
X77084194Y-105560500D01*
X77280500Y-105560500D01*
X77331280Y-105578982D01*
X77358300Y-105625782D01*
X77359500Y-105639500D01*
X77359500Y-105752659D01*
X77341018Y-105803439D01*
X77336361Y-105808520D01*
X76653521Y-106491361D01*
X76604545Y-106514199D01*
X76597660Y-106514500D01*
X70817341Y-106514500D01*
X70815274Y-106514446D01*
X70780487Y-106512623D01*
X70771538Y-106512154D01*
X70771537Y-106512154D01*
X70771536Y-106512154D01*
X70747280Y-106521464D01*
X70735403Y-106524982D01*
X70709992Y-106530384D01*
X70702659Y-106535711D01*
X70684551Y-106545543D01*
X70676087Y-106548792D01*
X70676087Y-106548793D01*
X70674050Y-106550830D01*
X70670152Y-106552647D01*
X70669124Y-106553315D01*
X70669030Y-106553170D01*
X70625072Y-106573665D01*
X70572875Y-106559675D01*
X70541883Y-106515407D01*
X70539719Y-106485858D01*
X70540499Y-106479135D01*
X70540499Y-106479128D01*
X70540500Y-106479123D01*
X70540499Y-106327339D01*
X70558981Y-106276559D01*
X70563627Y-106271489D01*
X71604896Y-105230220D01*
X71606359Y-105228833D01*
X71638915Y-105199521D01*
X71649483Y-105175782D01*
X71655398Y-105164891D01*
X71669542Y-105143113D01*
X71670957Y-105134171D01*
X71676816Y-105114391D01*
X71680500Y-105106120D01*
X71680500Y-105080141D01*
X71681473Y-105067783D01*
X71683595Y-105054387D01*
X71685536Y-105042132D01*
X71683192Y-105033383D01*
X71680500Y-105012937D01*
X71680500Y-103052331D01*
X71680554Y-103050263D01*
X71681458Y-103033009D01*
X71682846Y-103006537D01*
X71678721Y-102995792D01*
X71673537Y-102982285D01*
X71670017Y-102970401D01*
X71664616Y-102944994D01*
X71664616Y-102944993D01*
X71659293Y-102937668D01*
X71649452Y-102919545D01*
X71646206Y-102911088D01*
X71627835Y-102892717D01*
X71619791Y-102883298D01*
X71604521Y-102862281D01*
X71602455Y-102861088D01*
X71596674Y-102857750D01*
X71580314Y-102845196D01*
X71359501Y-102624383D01*
X71075236Y-102340118D01*
X71073832Y-102338638D01*
X71044525Y-102306089D01*
X71044523Y-102306087D01*
X71044521Y-102306085D01*
X71044518Y-102306083D01*
X71044516Y-102306082D01*
X71020784Y-102295515D01*
X71009894Y-102289603D01*
X70988111Y-102275457D01*
X70979167Y-102274041D01*
X70959396Y-102268185D01*
X70951120Y-102264500D01*
X70951119Y-102264500D01*
X70925143Y-102264500D01*
X70912785Y-102263527D01*
X70902222Y-102261854D01*
X70880422Y-102258401D01*
X70833158Y-102232202D01*
X70818915Y-102208388D01*
X70814140Y-102195799D01*
X70814139Y-102195797D01*
X70814139Y-102195796D01*
X70793612Y-102166058D01*
X70779978Y-102113770D01*
X70803144Y-102064948D01*
X70808512Y-102060115D01*
X70941212Y-101951211D01*
X71067175Y-101797725D01*
X71160777Y-101622608D01*
X71160777Y-101622607D01*
X71201308Y-101489000D01*
X70435059Y-101489000D01*
X70437129Y-101487805D01*
X70510801Y-101400007D01*
X70550000Y-101292306D01*
X70550000Y-101177694D01*
X70510801Y-101069993D01*
X70437129Y-100982195D01*
X70435059Y-100981000D01*
X71201307Y-100981000D01*
X71201307Y-100980999D01*
X71160777Y-100847392D01*
X71160777Y-100847391D01*
X71131031Y-100791740D01*
X71123394Y-100738243D01*
X71151930Y-100692353D01*
X71200703Y-100675500D01*
X71947660Y-100675500D01*
X71998440Y-100693982D01*
X72003521Y-100698639D01*
X72176242Y-100871360D01*
X72199080Y-100920336D01*
X72198409Y-100939577D01*
X72194384Y-100964997D01*
X72194383Y-100965001D01*
X72194383Y-100965003D01*
X72214723Y-101093426D01*
X72214724Y-101093429D01*
X72214725Y-101093433D01*
X72261314Y-101184869D01*
X72273760Y-101209296D01*
X72365703Y-101301239D01*
X72365705Y-101301240D01*
X72365706Y-101301241D01*
X72481567Y-101360275D01*
X72481572Y-101360275D01*
X72481573Y-101360276D01*
X72609998Y-101380617D01*
X72610000Y-101380617D01*
X72610002Y-101380617D01*
X72723602Y-101362624D01*
X72738433Y-101360275D01*
X72854294Y-101301241D01*
X72946241Y-101209294D01*
X73005275Y-101093433D01*
X73014530Y-101035000D01*
X73025617Y-100965002D01*
X73025617Y-100964997D01*
X73005276Y-100836573D01*
X73005275Y-100836572D01*
X73005275Y-100836567D01*
X72946241Y-100720706D01*
X72946240Y-100720705D01*
X72946239Y-100720703D01*
X72854296Y-100628760D01*
X72845386Y-100624220D01*
X72738433Y-100569725D01*
X72738429Y-100569724D01*
X72738426Y-100569723D01*
X72610003Y-100549383D01*
X72610002Y-100549383D01*
X72610000Y-100549383D01*
X72597245Y-100551403D01*
X72584577Y-100553409D01*
X72531531Y-100543096D01*
X72516360Y-100531242D01*
X72420479Y-100435361D01*
X72397641Y-100386385D01*
X72411627Y-100334187D01*
X72455893Y-100303192D01*
X72476340Y-100300500D01*
X73655471Y-100300500D01*
X73706251Y-100318982D01*
G37*
G04 #@! TD.AperFunction*
G04 #@! TA.AperFunction,Conductor*
G36*
X48558492Y-100778982D02*
G01*
X48585512Y-100825782D01*
X48582702Y-100864348D01*
X48580606Y-100870673D01*
X48580605Y-100870675D01*
X48570000Y-100974495D01*
X48570000Y-101246000D01*
X49753000Y-101246000D01*
X49803780Y-101264482D01*
X49830800Y-101311282D01*
X49832000Y-101325000D01*
X49832000Y-102733000D01*
X49878505Y-102733000D01*
X49982323Y-102722394D01*
X50150525Y-102666658D01*
X50301338Y-102573635D01*
X50301341Y-102573633D01*
X50426633Y-102448341D01*
X50426635Y-102448338D01*
X50519658Y-102297525D01*
X50575394Y-102129323D01*
X50585999Y-102025505D01*
X50585999Y-101939220D01*
X50604481Y-101888439D01*
X50651280Y-101861419D01*
X50652596Y-101861199D01*
X50658433Y-101860275D01*
X50702635Y-101837752D01*
X50756271Y-101831167D01*
X50801592Y-101860598D01*
X50817500Y-101908141D01*
X50817500Y-102007303D01*
X50826040Y-102061223D01*
X50832725Y-102103433D01*
X50882069Y-102200276D01*
X50891760Y-102219296D01*
X50983703Y-102311239D01*
X50983705Y-102311240D01*
X50983706Y-102311241D01*
X51099567Y-102370275D01*
X51100848Y-102370478D01*
X51101778Y-102370993D01*
X51105483Y-102372197D01*
X51105249Y-102372916D01*
X51148114Y-102396669D01*
X51167488Y-102447116D01*
X51167500Y-102448506D01*
X51167500Y-102789465D01*
X51165453Y-102802014D01*
X51166162Y-102802113D01*
X51165151Y-102809358D01*
X51167458Y-102859263D01*
X51167500Y-102861088D01*
X51167500Y-102881769D01*
X51168155Y-102885273D01*
X51168322Y-102886167D01*
X51168952Y-102891601D01*
X51170512Y-102925322D01*
X51170513Y-102925325D01*
X51175706Y-102937086D01*
X51181091Y-102954475D01*
X51183452Y-102967106D01*
X51183452Y-102967107D01*
X51183453Y-102967108D01*
X51186609Y-102972206D01*
X51201212Y-102995792D01*
X51203765Y-103000635D01*
X51217399Y-103031512D01*
X51217403Y-103031517D01*
X51226489Y-103040603D01*
X51237795Y-103054876D01*
X51244561Y-103065804D01*
X51244564Y-103065807D01*
X51271491Y-103086140D01*
X51275623Y-103089736D01*
X51296978Y-103111092D01*
X51319816Y-103160068D01*
X51313388Y-103198858D01*
X51312367Y-103201170D01*
X51312366Y-103201173D01*
X51309500Y-103225876D01*
X51309500Y-103684116D01*
X51309501Y-103684128D01*
X51311956Y-103705297D01*
X51312366Y-103708827D01*
X51356990Y-103809891D01*
X51406361Y-103859262D01*
X51429199Y-103908237D01*
X51429500Y-103915124D01*
X51429499Y-104018876D01*
X51411016Y-104069656D01*
X51406361Y-104074735D01*
X51356994Y-104124103D01*
X51356989Y-104124109D01*
X51312366Y-104225173D01*
X51309500Y-104249874D01*
X51309500Y-104708116D01*
X51309501Y-104708128D01*
X51312366Y-104732826D01*
X51312367Y-104732829D01*
X51351014Y-104820357D01*
X51354617Y-104874275D01*
X51337125Y-104905490D01*
X51303988Y-104941838D01*
X51302730Y-104943155D01*
X51288100Y-104957785D01*
X51285562Y-104961490D01*
X51282169Y-104965772D01*
X51259435Y-104990711D01*
X51259433Y-104990714D01*
X51254788Y-105002703D01*
X51246302Y-105018803D01*
X51239037Y-105029409D01*
X51231310Y-105062258D01*
X51229690Y-105067488D01*
X51222501Y-105086045D01*
X51190535Y-105122590D01*
X51191269Y-105123661D01*
X51187102Y-105126514D01*
X51186923Y-105126720D01*
X51186489Y-105126934D01*
X51180304Y-105131171D01*
X51127964Y-105144617D01*
X51094079Y-105133163D01*
X51091289Y-105131435D01*
X51079296Y-105126789D01*
X51063196Y-105118302D01*
X51056069Y-105113420D01*
X51052589Y-105111036D01*
X51019743Y-105103310D01*
X51014514Y-105101691D01*
X50983042Y-105089500D01*
X50970188Y-105089500D01*
X50952101Y-105087402D01*
X50939587Y-105084458D01*
X50939586Y-105084458D01*
X50916486Y-105087681D01*
X50906163Y-105089121D01*
X50900708Y-105089500D01*
X50735157Y-105089500D01*
X50684377Y-105071018D01*
X50657357Y-105024218D01*
X50657675Y-104995087D01*
X50658546Y-104990712D01*
X50663500Y-104965806D01*
X50663500Y-104634194D01*
X50654187Y-104587376D01*
X50625129Y-104543888D01*
X50612286Y-104491398D01*
X50625130Y-104456111D01*
X50654187Y-104412624D01*
X50663500Y-104365806D01*
X50663500Y-104034194D01*
X50654187Y-103987376D01*
X50649578Y-103980478D01*
X50618714Y-103934285D01*
X50574086Y-103904467D01*
X50565624Y-103898813D01*
X50565623Y-103898812D01*
X50518806Y-103889500D01*
X49837194Y-103889500D01*
X49790376Y-103898812D01*
X49737285Y-103934285D01*
X49701812Y-103987376D01*
X49694329Y-104024997D01*
X49692500Y-104034194D01*
X49692500Y-104365806D01*
X49694352Y-104375118D01*
X49701812Y-104412623D01*
X49730869Y-104456111D01*
X49743712Y-104508602D01*
X49730869Y-104543889D01*
X49701812Y-104587376D01*
X49692500Y-104634194D01*
X49692500Y-104767353D01*
X49674018Y-104818133D01*
X49627218Y-104845153D01*
X49574000Y-104835769D01*
X49543111Y-104803219D01*
X49537095Y-104791412D01*
X49458589Y-104712906D01*
X49449732Y-104708393D01*
X49359661Y-104662500D01*
X49359657Y-104662499D01*
X49359654Y-104662498D01*
X49257824Y-104646369D01*
X49214322Y-104624203D01*
X48830394Y-104240275D01*
X48437386Y-103847268D01*
X48414549Y-103798293D01*
X48428535Y-103746096D01*
X48430006Y-103744064D01*
X48503444Y-103645964D01*
X48503445Y-103645962D01*
X48554493Y-103509096D01*
X48554495Y-103509088D01*
X48561000Y-103448596D01*
X48561000Y-103400000D01*
X46595000Y-103400000D01*
X46595000Y-103448596D01*
X46601504Y-103509088D01*
X46601506Y-103509096D01*
X46652554Y-103645962D01*
X46652555Y-103645964D01*
X46726743Y-103745066D01*
X46742500Y-103792409D01*
X46742500Y-104065805D01*
X46751812Y-104112623D01*
X46780869Y-104156111D01*
X46793712Y-104208602D01*
X46780869Y-104243889D01*
X46751812Y-104287376D01*
X46742500Y-104334194D01*
X46742500Y-104665805D01*
X46751812Y-104712623D01*
X46780869Y-104756111D01*
X46793712Y-104808602D01*
X46780869Y-104843889D01*
X46751812Y-104887376D01*
X46742500Y-104934194D01*
X46742500Y-105247665D01*
X46724018Y-105298445D01*
X46677218Y-105325465D01*
X46624000Y-105316081D01*
X46607643Y-105303530D01*
X46381636Y-105077523D01*
X46358800Y-105028550D01*
X46358499Y-105021687D01*
X46358500Y-102510023D01*
X46376983Y-102459243D01*
X46423782Y-102432223D01*
X46477000Y-102441607D01*
X46477714Y-102442024D01*
X46608601Y-102519429D01*
X46679357Y-102539987D01*
X46722964Y-102571903D01*
X46735854Y-102624383D01*
X46720559Y-102663193D01*
X46652555Y-102754035D01*
X46652554Y-102754037D01*
X46601506Y-102890903D01*
X46601504Y-102890911D01*
X46595000Y-102951403D01*
X46595000Y-103000000D01*
X48561000Y-103000000D01*
X48561000Y-102951403D01*
X48554495Y-102890911D01*
X48554493Y-102890903D01*
X48503445Y-102754037D01*
X48503444Y-102754035D01*
X48415903Y-102637096D01*
X48298964Y-102549555D01*
X48298962Y-102549554D01*
X48162096Y-102498506D01*
X48162088Y-102498504D01*
X48101596Y-102492000D01*
X47683133Y-102492000D01*
X47632353Y-102473518D01*
X47605333Y-102426718D01*
X47614717Y-102373500D01*
X47627272Y-102357139D01*
X47664087Y-102320323D01*
X47664089Y-102320320D01*
X47747429Y-102179398D01*
X47793108Y-102022174D01*
X47794539Y-102004000D01*
X46833000Y-102004000D01*
X46782220Y-101985518D01*
X46755200Y-101938718D01*
X46754000Y-101925000D01*
X46754000Y-101754000D01*
X48570000Y-101754000D01*
X48570000Y-102025504D01*
X48580605Y-102129323D01*
X48636341Y-102297525D01*
X48729364Y-102448338D01*
X48729366Y-102448341D01*
X48854658Y-102573633D01*
X48854661Y-102573635D01*
X49005474Y-102666658D01*
X49173676Y-102722394D01*
X49173675Y-102722394D01*
X49277495Y-102733000D01*
X49324000Y-102733000D01*
X49324000Y-101754000D01*
X48570000Y-101754000D01*
X46754000Y-101754000D01*
X46754000Y-101072834D01*
X46772482Y-101022054D01*
X46777117Y-101016995D01*
X46855786Y-100938326D01*
X47262000Y-100938326D01*
X47262000Y-101496000D01*
X47794538Y-101496000D01*
X47793108Y-101477825D01*
X47747429Y-101320601D01*
X47664089Y-101179679D01*
X47664087Y-101179676D01*
X47548323Y-101063912D01*
X47548320Y-101063910D01*
X47407397Y-100980569D01*
X47262000Y-100938326D01*
X46855786Y-100938326D01*
X47010475Y-100783637D01*
X47059450Y-100760801D01*
X47066335Y-100760500D01*
X48507712Y-100760500D01*
X48558492Y-100778982D01*
G37*
G04 #@! TD.AperFunction*
G04 #@! TA.AperFunction,Conductor*
G36*
X69988936Y-101010718D02*
G01*
X69989482Y-101009220D01*
X69990863Y-101008422D01*
X69988936Y-101010718D01*
G37*
G04 #@! TD.AperFunction*
M02*
