G04 #@! TF.GenerationSoftware,KiCad,Pcbnew,(6.0.7)*
G04 #@! TF.CreationDate,2022-12-21T15:12:10+11:00*
G04 #@! TF.ProjectId,owts,6f777473-2e6b-4696-9361-645f70636258,0.0.2*
G04 #@! TF.SameCoordinates,Original*
G04 #@! TF.FileFunction,Soldermask,Top*
G04 #@! TF.FilePolarity,Negative*
%FSLAX46Y46*%
G04 Gerber Fmt 4.6, Leading zero omitted, Abs format (unit mm)*
G04 Created by KiCad (PCBNEW (6.0.7)) date 2022-12-21 15:12:10*
%MOMM*%
%LPD*%
G01*
G04 APERTURE LIST*
G04 Aperture macros list*
%AMRoundRect*
0 Rectangle with rounded corners*
0 $1 Rounding radius*
0 $2 $3 $4 $5 $6 $7 $8 $9 X,Y pos of 4 corners*
0 Add a 4 corners polygon primitive as box body*
4,1,4,$2,$3,$4,$5,$6,$7,$8,$9,$2,$3,0*
0 Add four circle primitives for the rounded corners*
1,1,$1+$1,$2,$3*
1,1,$1+$1,$4,$5*
1,1,$1+$1,$6,$7*
1,1,$1+$1,$8,$9*
0 Add four rect primitives between the rounded corners*
20,1,$1+$1,$2,$3,$4,$5,0*
20,1,$1+$1,$4,$5,$6,$7,0*
20,1,$1+$1,$6,$7,$8,$9,0*
20,1,$1+$1,$8,$9,$2,$3,0*%
%AMFreePoly0*
4,1,37,0.586062,0.786062,0.601000,0.750000,0.601000,-0.750000,0.586062,-0.786062,0.550000,-0.801000,0.000000,-0.801000,-0.012525,-0.795812,-0.080875,-0.794559,-0.095149,-0.792248,-0.230464,-0.749973,-0.243516,-0.743747,-0.361526,-0.665192,-0.372306,-0.655554,-0.463526,-0.547035,-0.471167,-0.534759,-0.528262,-0.405000,-0.532150,-0.391073,-0.549733,-0.256613,-0.548336,-0.256430,-0.551000,-0.250000,
-0.551000,0.250000,-0.550512,0.251179,-0.550356,0.263956,-0.528545,0.404033,-0.524317,0.417860,-0.464069,0.546185,-0.456130,0.558271,-0.362286,0.664529,-0.351274,0.673901,-0.231379,0.749549,-0.218180,0.755454,-0.081873,0.794411,-0.067546,0.796373,-0.011990,0.796033,0.000000,0.801000,0.550000,0.801000,0.586062,0.786062,0.586062,0.786062,$1*%
%AMFreePoly1*
4,1,37,0.012349,0.795885,0.074216,0.795507,0.088518,0.793370,0.224339,0.752751,0.237465,0.746685,0.356427,0.669578,0.367324,0.660073,0.459862,0.552676,0.467652,0.540494,0.526329,0.411442,0.530388,0.397563,0.550485,0.257230,0.551000,0.250000,0.551000,-0.250000,0.550996,-0.250622,0.550847,-0.262838,0.550144,-0.270677,0.526624,-0.410478,0.522228,-0.424254,0.460416,-0.551833,
0.452330,-0.563821,0.357195,-0.668925,0.346069,-0.678161,0.225259,-0.752338,0.211989,-0.758081,0.075216,-0.795370,0.060866,-0.797157,0.011464,-0.796251,0.000000,-0.801000,-0.550000,-0.801000,-0.586062,-0.786062,-0.601000,-0.750000,-0.601000,0.750000,-0.586062,0.786062,-0.550000,0.801000,0.000000,0.801000,0.012349,0.795885,0.012349,0.795885,$1*%
G04 Aperture macros list end*
%ADD10RoundRect,0.051000X-0.500000X-0.400000X0.500000X-0.400000X0.500000X0.400000X-0.500000X0.400000X0*%
%ADD11RoundRect,0.051000X-0.500000X-1.150000X0.500000X-1.150000X0.500000X1.150000X-0.500000X1.150000X0*%
%ADD12RoundRect,0.051000X-0.550000X-0.650000X0.550000X-0.650000X0.550000X0.650000X-0.550000X0.650000X0*%
%ADD13RoundRect,0.051000X0.850000X-0.850000X0.850000X0.850000X-0.850000X0.850000X-0.850000X-0.850000X0*%
%ADD14O,1.802000X1.802000*%
%ADD15RoundRect,0.186000X-0.135000X-0.185000X0.135000X-0.185000X0.135000X0.185000X-0.135000X0.185000X0*%
%ADD16RoundRect,0.201000X-0.150000X0.587500X-0.150000X-0.587500X0.150000X-0.587500X0.150000X0.587500X0*%
%ADD17RoundRect,0.051000X-0.450000X-0.500000X0.450000X-0.500000X0.450000X0.500000X-0.450000X0.500000X0*%
%ADD18RoundRect,0.301000X1.500000X-0.250000X1.500000X0.250000X-1.500000X0.250000X-1.500000X-0.250000X0*%
%ADD19RoundRect,0.301001X1.449999X-0.499999X1.449999X0.499999X-1.449999X0.499999X-1.449999X-0.499999X0*%
%ADD20RoundRect,0.051000X-0.500000X0.450000X-0.500000X-0.450000X0.500000X-0.450000X0.500000X0.450000X0*%
%ADD21RoundRect,0.186000X-0.185000X0.135000X-0.185000X-0.135000X0.185000X-0.135000X0.185000X0.135000X0*%
%ADD22RoundRect,0.191000X-0.170000X0.140000X-0.170000X-0.140000X0.170000X-0.140000X0.170000X0.140000X0*%
%ADD23RoundRect,0.191000X-0.140000X-0.170000X0.140000X-0.170000X0.140000X0.170000X-0.140000X0.170000X0*%
%ADD24RoundRect,0.301000X0.550000X-1.250000X0.550000X1.250000X-0.550000X1.250000X-0.550000X-1.250000X0*%
%ADD25RoundRect,0.051000X-0.325000X-0.200000X0.325000X-0.200000X0.325000X0.200000X-0.325000X0.200000X0*%
%ADD26RoundRect,0.051000X-0.400000X0.150000X-0.400000X-0.150000X0.400000X-0.150000X0.400000X0.150000X0*%
%ADD27RoundRect,0.051000X-0.325000X0.150000X-0.325000X-0.150000X0.325000X-0.150000X0.325000X0.150000X0*%
%ADD28RoundRect,0.051000X-0.475000X0.200000X-0.475000X-0.200000X0.475000X-0.200000X0.475000X0.200000X0*%
%ADD29FreePoly0,90.000000*%
%ADD30RoundRect,0.051000X0.750000X-0.500000X0.750000X0.500000X-0.750000X0.500000X-0.750000X-0.500000X0*%
%ADD31FreePoly1,90.000000*%
%ADD32RoundRect,0.186000X0.185000X-0.135000X0.185000X0.135000X-0.185000X0.135000X-0.185000X-0.135000X0*%
%ADD33RoundRect,0.051000X0.500000X0.500000X-0.500000X0.500000X-0.500000X-0.500000X0.500000X-0.500000X0*%
%ADD34O,1.102000X1.102000*%
%ADD35RoundRect,0.301000X0.250000X0.475000X-0.250000X0.475000X-0.250000X-0.475000X0.250000X-0.475000X0*%
%ADD36RoundRect,0.186000X0.135000X0.185000X-0.135000X0.185000X-0.135000X-0.185000X0.135000X-0.185000X0*%
%ADD37RoundRect,0.288500X0.237500X-0.287500X0.237500X0.287500X-0.237500X0.287500X-0.237500X-0.287500X0*%
%ADD38C,2.302000*%
%ADD39RoundRect,0.301000X-0.250000X-0.475000X0.250000X-0.475000X0.250000X0.475000X-0.250000X0.475000X0*%
G04 APERTURE END LIST*
D10*
X66000000Y-109850000D03*
X66000000Y-108650000D03*
X56300000Y-109850000D03*
X66000000Y-107450000D03*
D11*
X56300000Y-112700000D03*
X66100000Y-112700000D03*
X66000000Y-105500000D03*
X56300000Y-105500000D03*
D10*
X56300000Y-108650000D03*
X56300000Y-107450000D03*
D12*
X63105000Y-102135000D03*
X59295000Y-102135000D03*
D13*
X73075000Y-112875000D03*
D14*
X73075000Y-110335000D03*
X75615000Y-112875000D03*
X75615000Y-110335000D03*
X78155000Y-112875000D03*
X78155000Y-110335000D03*
X80695000Y-112875000D03*
X80695000Y-110335000D03*
D15*
X69090000Y-106250000D03*
X70110000Y-106250000D03*
D16*
X85450000Y-109962500D03*
X83550000Y-109962500D03*
X84500000Y-111837500D03*
D17*
X101350000Y-101100000D03*
X97250000Y-101100000D03*
X101350000Y-102700000D03*
X97250000Y-102700000D03*
D18*
X95850000Y-110500000D03*
X95850000Y-108500000D03*
D19*
X101600000Y-106150000D03*
X101600000Y-112850000D03*
D20*
X79200000Y-104950000D03*
X79200000Y-100850000D03*
X77600000Y-104950000D03*
X77600000Y-100850000D03*
D21*
X88250000Y-103055000D03*
X88250000Y-104075000D03*
D22*
X51528000Y-105520000D03*
X51528000Y-106480000D03*
D15*
X51740000Y-104479000D03*
X52760000Y-104479000D03*
D22*
X87000000Y-103085000D03*
X87000000Y-104045000D03*
D23*
X46048000Y-101750000D03*
X47008000Y-101750000D03*
D24*
X90100000Y-111700000D03*
X90100000Y-107300000D03*
D25*
X52950000Y-110705000D03*
X52950000Y-111355000D03*
X52950000Y-112005000D03*
X54850000Y-112005000D03*
X54850000Y-110705000D03*
D26*
X47303000Y-103900000D03*
D27*
X50178000Y-104200000D03*
D26*
X47303000Y-104500000D03*
D27*
X50178000Y-104800000D03*
D26*
X47303000Y-105100000D03*
D27*
X50178000Y-105400000D03*
D26*
X47303000Y-105700000D03*
D27*
X50178000Y-106000000D03*
D26*
X47303000Y-106300000D03*
D27*
X50178000Y-106600000D03*
D26*
X47303000Y-106900000D03*
D27*
X50178000Y-107200000D03*
D26*
X47303000Y-107500000D03*
D27*
X50178000Y-107800000D03*
D26*
X47303000Y-108100000D03*
D27*
X50178000Y-108400000D03*
D26*
X47303000Y-108700000D03*
D27*
X50178000Y-109000000D03*
D26*
X47303000Y-109300000D03*
D27*
X50178000Y-109600000D03*
D26*
X47303000Y-109900000D03*
D27*
X50178000Y-110200000D03*
D26*
X47303000Y-110500000D03*
D27*
X50178000Y-110800000D03*
D26*
X47303000Y-111100000D03*
D28*
X47578000Y-103200000D03*
X47578000Y-111800000D03*
D15*
X51740000Y-103455000D03*
X52760000Y-103455000D03*
D29*
X74257500Y-103700000D03*
D30*
X74257500Y-102400000D03*
D31*
X74257500Y-101100000D03*
D32*
X89500000Y-104075000D03*
X89500000Y-103055000D03*
D33*
X70225000Y-103775000D03*
D34*
X68955000Y-103775000D03*
X70225000Y-102505000D03*
X68955000Y-102505000D03*
X70225000Y-101235000D03*
X68955000Y-101235000D03*
D35*
X51478000Y-101500000D03*
X49578000Y-101500000D03*
D36*
X95310000Y-101300000D03*
X94290000Y-101300000D03*
D37*
X92320000Y-103070000D03*
X92320000Y-101320000D03*
D36*
X95310000Y-102600000D03*
X94290000Y-102600000D03*
D38*
X36100000Y-112900000D03*
X83000000Y-102500000D03*
D22*
X67950000Y-108870000D03*
X67950000Y-109830000D03*
D39*
X82750000Y-106900000D03*
X84650000Y-106900000D03*
G36*
X103048789Y-113649999D02*
G01*
X103048789Y-113651999D01*
X103047305Y-113652984D01*
X103047297Y-113652985D01*
X103047049Y-113653000D01*
X100152951Y-113653000D01*
X100151219Y-113652000D01*
X100151219Y-113650000D01*
X100152951Y-113649000D01*
X103047057Y-113648999D01*
X103048789Y-113649999D01*
G37*
G36*
X103048781Y-112048000D02*
G01*
X103048781Y-112050000D01*
X103047049Y-112051000D01*
X100152943Y-112051001D01*
X100151211Y-112050001D01*
X100151211Y-112048001D01*
X100152695Y-112047016D01*
X100152703Y-112047015D01*
X100152951Y-112047000D01*
X103047049Y-112047000D01*
X103048781Y-112048000D01*
G37*
G36*
X103048789Y-106949999D02*
G01*
X103048789Y-106951999D01*
X103047305Y-106952984D01*
X103047297Y-106952985D01*
X103047049Y-106953000D01*
X100152951Y-106953000D01*
X100151219Y-106952000D01*
X100151219Y-106950000D01*
X100152951Y-106949000D01*
X103047057Y-106948999D01*
X103048789Y-106949999D01*
G37*
G36*
X103048781Y-105348000D02*
G01*
X103048781Y-105350000D01*
X103047049Y-105351000D01*
X100152943Y-105351001D01*
X100151211Y-105350001D01*
X100151211Y-105348001D01*
X100152695Y-105347016D01*
X100152703Y-105347015D01*
X100152951Y-105347000D01*
X103047049Y-105347000D01*
X103048781Y-105348000D01*
G37*
M02*
