G04 #@! TF.GenerationSoftware,KiCad,Pcbnew,7.0.6*
G04 #@! TF.CreationDate,2024-03-12T10:09:57+11:00*
G04 #@! TF.ProjectId,owts,6f777473-2e6b-4696-9361-645f70636258,1.2.0*
G04 #@! TF.SameCoordinates,Original*
G04 #@! TF.FileFunction,Legend,Bot*
G04 #@! TF.FilePolarity,Positive*
%FSLAX46Y46*%
G04 Gerber Fmt 4.6, Leading zero omitted, Abs format (unit mm)*
G04 Created by KiCad (PCBNEW 7.0.6) date 2024-03-12 10:09:57*
%MOMM*%
%LPD*%
G01*
G04 APERTURE LIST*
%ADD10C,0.125000*%
%ADD11C,0.150000*%
%ADD12C,0.120000*%
G04 APERTURE END LIST*
D10*
X38384430Y-105550666D02*
X38451097Y-105517333D01*
X38451097Y-105517333D02*
X38551097Y-105517333D01*
X38551097Y-105517333D02*
X38651097Y-105550666D01*
X38651097Y-105550666D02*
X38717764Y-105617333D01*
X38717764Y-105617333D02*
X38751097Y-105684000D01*
X38751097Y-105684000D02*
X38784430Y-105817333D01*
X38784430Y-105817333D02*
X38784430Y-105917333D01*
X38784430Y-105917333D02*
X38751097Y-106050666D01*
X38751097Y-106050666D02*
X38717764Y-106117333D01*
X38717764Y-106117333D02*
X38651097Y-106184000D01*
X38651097Y-106184000D02*
X38551097Y-106217333D01*
X38551097Y-106217333D02*
X38484430Y-106217333D01*
X38484430Y-106217333D02*
X38384430Y-106184000D01*
X38384430Y-106184000D02*
X38351097Y-106150666D01*
X38351097Y-106150666D02*
X38351097Y-105917333D01*
X38351097Y-105917333D02*
X38484430Y-105917333D01*
X38051097Y-106217333D02*
X38051097Y-105517333D01*
X38051097Y-105517333D02*
X37651097Y-106217333D01*
X37651097Y-106217333D02*
X37651097Y-105517333D01*
X37351097Y-106184000D02*
X37251097Y-106217333D01*
X37251097Y-106217333D02*
X37084431Y-106217333D01*
X37084431Y-106217333D02*
X37017764Y-106184000D01*
X37017764Y-106184000D02*
X36984431Y-106150666D01*
X36984431Y-106150666D02*
X36951097Y-106084000D01*
X36951097Y-106084000D02*
X36951097Y-106017333D01*
X36951097Y-106017333D02*
X36984431Y-105950666D01*
X36984431Y-105950666D02*
X37017764Y-105917333D01*
X37017764Y-105917333D02*
X37084431Y-105884000D01*
X37084431Y-105884000D02*
X37217764Y-105850666D01*
X37217764Y-105850666D02*
X37284431Y-105817333D01*
X37284431Y-105817333D02*
X37317764Y-105784000D01*
X37317764Y-105784000D02*
X37351097Y-105717333D01*
X37351097Y-105717333D02*
X37351097Y-105650666D01*
X37351097Y-105650666D02*
X37317764Y-105584000D01*
X37317764Y-105584000D02*
X37284431Y-105550666D01*
X37284431Y-105550666D02*
X37217764Y-105517333D01*
X37217764Y-105517333D02*
X37051097Y-105517333D01*
X37051097Y-105517333D02*
X36951097Y-105550666D01*
X36684430Y-106184000D02*
X36584430Y-106217333D01*
X36584430Y-106217333D02*
X36417764Y-106217333D01*
X36417764Y-106217333D02*
X36351097Y-106184000D01*
X36351097Y-106184000D02*
X36317764Y-106150666D01*
X36317764Y-106150666D02*
X36284430Y-106084000D01*
X36284430Y-106084000D02*
X36284430Y-106017333D01*
X36284430Y-106017333D02*
X36317764Y-105950666D01*
X36317764Y-105950666D02*
X36351097Y-105917333D01*
X36351097Y-105917333D02*
X36417764Y-105884000D01*
X36417764Y-105884000D02*
X36551097Y-105850666D01*
X36551097Y-105850666D02*
X36617764Y-105817333D01*
X36617764Y-105817333D02*
X36651097Y-105784000D01*
X36651097Y-105784000D02*
X36684430Y-105717333D01*
X36684430Y-105717333D02*
X36684430Y-105650666D01*
X36684430Y-105650666D02*
X36651097Y-105584000D01*
X36651097Y-105584000D02*
X36617764Y-105550666D01*
X36617764Y-105550666D02*
X36551097Y-105517333D01*
X36551097Y-105517333D02*
X36384430Y-105517333D01*
X36384430Y-105517333D02*
X36284430Y-105550666D01*
X76133333Y-108317333D02*
X75733333Y-108317333D01*
X75933333Y-109017333D02*
X75933333Y-108317333D01*
X75566667Y-108317333D02*
X75100000Y-109017333D01*
X75100000Y-108317333D02*
X75566667Y-109017333D01*
D11*
X38776009Y-108610839D02*
X38823628Y-108753696D01*
X38823628Y-108753696D02*
X38871247Y-108801315D01*
X38871247Y-108801315D02*
X38966485Y-108848934D01*
X38966485Y-108848934D02*
X39109342Y-108848934D01*
X39109342Y-108848934D02*
X39204580Y-108801315D01*
X39204580Y-108801315D02*
X39252200Y-108753696D01*
X39252200Y-108753696D02*
X39299819Y-108658458D01*
X39299819Y-108658458D02*
X39299819Y-108277506D01*
X39299819Y-108277506D02*
X38299819Y-108277506D01*
X38299819Y-108277506D02*
X38299819Y-108610839D01*
X38299819Y-108610839D02*
X38347438Y-108706077D01*
X38347438Y-108706077D02*
X38395057Y-108753696D01*
X38395057Y-108753696D02*
X38490295Y-108801315D01*
X38490295Y-108801315D02*
X38585533Y-108801315D01*
X38585533Y-108801315D02*
X38680771Y-108753696D01*
X38680771Y-108753696D02*
X38728390Y-108706077D01*
X38728390Y-108706077D02*
X38776009Y-108610839D01*
X38776009Y-108610839D02*
X38776009Y-108277506D01*
X39299819Y-109420363D02*
X39252200Y-109325125D01*
X39252200Y-109325125D02*
X39204580Y-109277506D01*
X39204580Y-109277506D02*
X39109342Y-109229887D01*
X39109342Y-109229887D02*
X38823628Y-109229887D01*
X38823628Y-109229887D02*
X38728390Y-109277506D01*
X38728390Y-109277506D02*
X38680771Y-109325125D01*
X38680771Y-109325125D02*
X38633152Y-109420363D01*
X38633152Y-109420363D02*
X38633152Y-109563220D01*
X38633152Y-109563220D02*
X38680771Y-109658458D01*
X38680771Y-109658458D02*
X38728390Y-109706077D01*
X38728390Y-109706077D02*
X38823628Y-109753696D01*
X38823628Y-109753696D02*
X39109342Y-109753696D01*
X39109342Y-109753696D02*
X39204580Y-109706077D01*
X39204580Y-109706077D02*
X39252200Y-109658458D01*
X39252200Y-109658458D02*
X39299819Y-109563220D01*
X39299819Y-109563220D02*
X39299819Y-109420363D01*
X39252200Y-110134649D02*
X39299819Y-110277506D01*
X39299819Y-110277506D02*
X39299819Y-110515601D01*
X39299819Y-110515601D02*
X39252200Y-110610839D01*
X39252200Y-110610839D02*
X39204580Y-110658458D01*
X39204580Y-110658458D02*
X39109342Y-110706077D01*
X39109342Y-110706077D02*
X39014104Y-110706077D01*
X39014104Y-110706077D02*
X38918866Y-110658458D01*
X38918866Y-110658458D02*
X38871247Y-110610839D01*
X38871247Y-110610839D02*
X38823628Y-110515601D01*
X38823628Y-110515601D02*
X38776009Y-110325125D01*
X38776009Y-110325125D02*
X38728390Y-110229887D01*
X38728390Y-110229887D02*
X38680771Y-110182268D01*
X38680771Y-110182268D02*
X38585533Y-110134649D01*
X38585533Y-110134649D02*
X38490295Y-110134649D01*
X38490295Y-110134649D02*
X38395057Y-110182268D01*
X38395057Y-110182268D02*
X38347438Y-110229887D01*
X38347438Y-110229887D02*
X38299819Y-110325125D01*
X38299819Y-110325125D02*
X38299819Y-110563220D01*
X38299819Y-110563220D02*
X38347438Y-110706077D01*
X39299819Y-111610839D02*
X39299819Y-111134649D01*
X39299819Y-111134649D02*
X38299819Y-111134649D01*
X39252200Y-112372744D02*
X39299819Y-112277506D01*
X39299819Y-112277506D02*
X39299819Y-112087030D01*
X39299819Y-112087030D02*
X39252200Y-111991792D01*
X39252200Y-111991792D02*
X39204580Y-111944173D01*
X39204580Y-111944173D02*
X39109342Y-111896554D01*
X39109342Y-111896554D02*
X38823628Y-111896554D01*
X38823628Y-111896554D02*
X38728390Y-111944173D01*
X38728390Y-111944173D02*
X38680771Y-111991792D01*
X38680771Y-111991792D02*
X38633152Y-112087030D01*
X38633152Y-112087030D02*
X38633152Y-112277506D01*
X38633152Y-112277506D02*
X38680771Y-112372744D01*
X39299819Y-113229887D02*
X38776009Y-113229887D01*
X38776009Y-113229887D02*
X38680771Y-113182268D01*
X38680771Y-113182268D02*
X38633152Y-113087030D01*
X38633152Y-113087030D02*
X38633152Y-112896554D01*
X38633152Y-112896554D02*
X38680771Y-112801316D01*
X39252200Y-113229887D02*
X39299819Y-113134649D01*
X39299819Y-113134649D02*
X39299819Y-112896554D01*
X39299819Y-112896554D02*
X39252200Y-112801316D01*
X39252200Y-112801316D02*
X39156961Y-112753697D01*
X39156961Y-112753697D02*
X39061723Y-112753697D01*
X39061723Y-112753697D02*
X38966485Y-112801316D01*
X38966485Y-112801316D02*
X38918866Y-112896554D01*
X38918866Y-112896554D02*
X38918866Y-113134649D01*
X38918866Y-113134649D02*
X38871247Y-113229887D01*
X39299819Y-113706078D02*
X38633152Y-113706078D01*
X38728390Y-113706078D02*
X38680771Y-113753697D01*
X38680771Y-113753697D02*
X38633152Y-113848935D01*
X38633152Y-113848935D02*
X38633152Y-113991792D01*
X38633152Y-113991792D02*
X38680771Y-114087030D01*
X38680771Y-114087030D02*
X38776009Y-114134649D01*
X38776009Y-114134649D02*
X39299819Y-114134649D01*
X38776009Y-114134649D02*
X38680771Y-114182268D01*
X38680771Y-114182268D02*
X38633152Y-114277506D01*
X38633152Y-114277506D02*
X38633152Y-114420363D01*
X38633152Y-114420363D02*
X38680771Y-114515602D01*
X38680771Y-114515602D02*
X38776009Y-114563221D01*
X38776009Y-114563221D02*
X39299819Y-114563221D01*
X40909819Y-108229887D02*
X40243152Y-108229887D01*
X40433628Y-108229887D02*
X40338390Y-108277506D01*
X40338390Y-108277506D02*
X40290771Y-108325125D01*
X40290771Y-108325125D02*
X40243152Y-108420363D01*
X40243152Y-108420363D02*
X40243152Y-108515601D01*
X40862200Y-109229887D02*
X40909819Y-109134649D01*
X40909819Y-109134649D02*
X40909819Y-108944173D01*
X40909819Y-108944173D02*
X40862200Y-108848935D01*
X40862200Y-108848935D02*
X40766961Y-108801316D01*
X40766961Y-108801316D02*
X40386009Y-108801316D01*
X40386009Y-108801316D02*
X40290771Y-108848935D01*
X40290771Y-108848935D02*
X40243152Y-108944173D01*
X40243152Y-108944173D02*
X40243152Y-109134649D01*
X40243152Y-109134649D02*
X40290771Y-109229887D01*
X40290771Y-109229887D02*
X40386009Y-109277506D01*
X40386009Y-109277506D02*
X40481247Y-109277506D01*
X40481247Y-109277506D02*
X40576485Y-108801316D01*
X40243152Y-109610840D02*
X40909819Y-109848935D01*
X40909819Y-109848935D02*
X40243152Y-110087030D01*
X40909819Y-111753697D02*
X40909819Y-111182269D01*
X40909819Y-111467983D02*
X39909819Y-111467983D01*
X39909819Y-111467983D02*
X40052676Y-111372745D01*
X40052676Y-111372745D02*
X40147914Y-111277507D01*
X40147914Y-111277507D02*
X40195533Y-111182269D01*
X40814580Y-112182269D02*
X40862200Y-112229888D01*
X40862200Y-112229888D02*
X40909819Y-112182269D01*
X40909819Y-112182269D02*
X40862200Y-112134650D01*
X40862200Y-112134650D02*
X40814580Y-112182269D01*
X40814580Y-112182269D02*
X40909819Y-112182269D01*
X40005057Y-112610840D02*
X39957438Y-112658459D01*
X39957438Y-112658459D02*
X39909819Y-112753697D01*
X39909819Y-112753697D02*
X39909819Y-112991792D01*
X39909819Y-112991792D02*
X39957438Y-113087030D01*
X39957438Y-113087030D02*
X40005057Y-113134649D01*
X40005057Y-113134649D02*
X40100295Y-113182268D01*
X40100295Y-113182268D02*
X40195533Y-113182268D01*
X40195533Y-113182268D02*
X40338390Y-113134649D01*
X40338390Y-113134649D02*
X40909819Y-112563221D01*
X40909819Y-112563221D02*
X40909819Y-113182268D01*
X40814580Y-113610840D02*
X40862200Y-113658459D01*
X40862200Y-113658459D02*
X40909819Y-113610840D01*
X40909819Y-113610840D02*
X40862200Y-113563221D01*
X40862200Y-113563221D02*
X40814580Y-113610840D01*
X40814580Y-113610840D02*
X40909819Y-113610840D01*
X39909819Y-114277506D02*
X39909819Y-114372744D01*
X39909819Y-114372744D02*
X39957438Y-114467982D01*
X39957438Y-114467982D02*
X40005057Y-114515601D01*
X40005057Y-114515601D02*
X40100295Y-114563220D01*
X40100295Y-114563220D02*
X40290771Y-114610839D01*
X40290771Y-114610839D02*
X40528866Y-114610839D01*
X40528866Y-114610839D02*
X40719342Y-114563220D01*
X40719342Y-114563220D02*
X40814580Y-114515601D01*
X40814580Y-114515601D02*
X40862200Y-114467982D01*
X40862200Y-114467982D02*
X40909819Y-114372744D01*
X40909819Y-114372744D02*
X40909819Y-114277506D01*
X40909819Y-114277506D02*
X40862200Y-114182268D01*
X40862200Y-114182268D02*
X40814580Y-114134649D01*
X40814580Y-114134649D02*
X40719342Y-114087030D01*
X40719342Y-114087030D02*
X40528866Y-114039411D01*
X40528866Y-114039411D02*
X40290771Y-114039411D01*
X40290771Y-114039411D02*
X40100295Y-114087030D01*
X40100295Y-114087030D02*
X40005057Y-114134649D01*
X40005057Y-114134649D02*
X39957438Y-114182268D01*
X39957438Y-114182268D02*
X39909819Y-114277506D01*
D10*
X75873809Y-114624809D02*
X76040475Y-114386714D01*
X76159523Y-114624809D02*
X76159523Y-114124809D01*
X76159523Y-114124809D02*
X75969047Y-114124809D01*
X75969047Y-114124809D02*
X75921428Y-114148619D01*
X75921428Y-114148619D02*
X75897618Y-114172428D01*
X75897618Y-114172428D02*
X75873809Y-114220047D01*
X75873809Y-114220047D02*
X75873809Y-114291476D01*
X75873809Y-114291476D02*
X75897618Y-114339095D01*
X75897618Y-114339095D02*
X75921428Y-114362904D01*
X75921428Y-114362904D02*
X75969047Y-114386714D01*
X75969047Y-114386714D02*
X76159523Y-114386714D01*
X75683332Y-114601000D02*
X75611904Y-114624809D01*
X75611904Y-114624809D02*
X75492856Y-114624809D01*
X75492856Y-114624809D02*
X75445237Y-114601000D01*
X75445237Y-114601000D02*
X75421428Y-114577190D01*
X75421428Y-114577190D02*
X75397618Y-114529571D01*
X75397618Y-114529571D02*
X75397618Y-114481952D01*
X75397618Y-114481952D02*
X75421428Y-114434333D01*
X75421428Y-114434333D02*
X75445237Y-114410523D01*
X75445237Y-114410523D02*
X75492856Y-114386714D01*
X75492856Y-114386714D02*
X75588094Y-114362904D01*
X75588094Y-114362904D02*
X75635713Y-114339095D01*
X75635713Y-114339095D02*
X75659523Y-114315285D01*
X75659523Y-114315285D02*
X75683332Y-114267666D01*
X75683332Y-114267666D02*
X75683332Y-114220047D01*
X75683332Y-114220047D02*
X75659523Y-114172428D01*
X75659523Y-114172428D02*
X75635713Y-114148619D01*
X75635713Y-114148619D02*
X75588094Y-114124809D01*
X75588094Y-114124809D02*
X75469047Y-114124809D01*
X75469047Y-114124809D02*
X75397618Y-114148619D01*
X75254761Y-114124809D02*
X74969047Y-114124809D01*
X75111904Y-114624809D02*
X75111904Y-114124809D01*
X72401097Y-103367333D02*
X72167764Y-104067333D01*
X72167764Y-104067333D02*
X71934430Y-103367333D01*
X71801097Y-103367333D02*
X71401097Y-103367333D01*
X71601097Y-104067333D02*
X71601097Y-103367333D01*
X78530952Y-114198619D02*
X78578571Y-114174809D01*
X78578571Y-114174809D02*
X78650000Y-114174809D01*
X78650000Y-114174809D02*
X78721428Y-114198619D01*
X78721428Y-114198619D02*
X78769047Y-114246238D01*
X78769047Y-114246238D02*
X78792857Y-114293857D01*
X78792857Y-114293857D02*
X78816666Y-114389095D01*
X78816666Y-114389095D02*
X78816666Y-114460523D01*
X78816666Y-114460523D02*
X78792857Y-114555761D01*
X78792857Y-114555761D02*
X78769047Y-114603380D01*
X78769047Y-114603380D02*
X78721428Y-114651000D01*
X78721428Y-114651000D02*
X78650000Y-114674809D01*
X78650000Y-114674809D02*
X78602381Y-114674809D01*
X78602381Y-114674809D02*
X78530952Y-114651000D01*
X78530952Y-114651000D02*
X78507143Y-114627190D01*
X78507143Y-114627190D02*
X78507143Y-114460523D01*
X78507143Y-114460523D02*
X78602381Y-114460523D01*
X78292857Y-114674809D02*
X78292857Y-114174809D01*
X78292857Y-114174809D02*
X78007143Y-114674809D01*
X78007143Y-114674809D02*
X78007143Y-114174809D01*
X77769047Y-114674809D02*
X77769047Y-114174809D01*
X77769047Y-114174809D02*
X77649999Y-114174809D01*
X77649999Y-114174809D02*
X77578571Y-114198619D01*
X77578571Y-114198619D02*
X77530952Y-114246238D01*
X77530952Y-114246238D02*
X77507142Y-114293857D01*
X77507142Y-114293857D02*
X77483333Y-114389095D01*
X77483333Y-114389095D02*
X77483333Y-114460523D01*
X77483333Y-114460523D02*
X77507142Y-114555761D01*
X77507142Y-114555761D02*
X77530952Y-114603380D01*
X77530952Y-114603380D02*
X77578571Y-114651000D01*
X77578571Y-114651000D02*
X77649999Y-114674809D01*
X77649999Y-114674809D02*
X77769047Y-114674809D01*
X73216666Y-109017333D02*
X73449999Y-108684000D01*
X73616666Y-109017333D02*
X73616666Y-108317333D01*
X73616666Y-108317333D02*
X73349999Y-108317333D01*
X73349999Y-108317333D02*
X73283333Y-108350666D01*
X73283333Y-108350666D02*
X73249999Y-108384000D01*
X73249999Y-108384000D02*
X73216666Y-108450666D01*
X73216666Y-108450666D02*
X73216666Y-108550666D01*
X73216666Y-108550666D02*
X73249999Y-108617333D01*
X73249999Y-108617333D02*
X73283333Y-108650666D01*
X73283333Y-108650666D02*
X73349999Y-108684000D01*
X73349999Y-108684000D02*
X73616666Y-108684000D01*
X72983333Y-108317333D02*
X72516666Y-109017333D01*
X72516666Y-108317333D02*
X72983333Y-109017333D01*
X72386811Y-100948619D02*
X72434430Y-100924809D01*
X72434430Y-100924809D02*
X72505859Y-100924809D01*
X72505859Y-100924809D02*
X72577287Y-100948619D01*
X72577287Y-100948619D02*
X72624906Y-100996238D01*
X72624906Y-100996238D02*
X72648716Y-101043857D01*
X72648716Y-101043857D02*
X72672525Y-101139095D01*
X72672525Y-101139095D02*
X72672525Y-101210523D01*
X72672525Y-101210523D02*
X72648716Y-101305761D01*
X72648716Y-101305761D02*
X72624906Y-101353380D01*
X72624906Y-101353380D02*
X72577287Y-101401000D01*
X72577287Y-101401000D02*
X72505859Y-101424809D01*
X72505859Y-101424809D02*
X72458240Y-101424809D01*
X72458240Y-101424809D02*
X72386811Y-101401000D01*
X72386811Y-101401000D02*
X72363002Y-101377190D01*
X72363002Y-101377190D02*
X72363002Y-101210523D01*
X72363002Y-101210523D02*
X72458240Y-101210523D01*
X72148716Y-101424809D02*
X72148716Y-100924809D01*
X72148716Y-100924809D02*
X71863002Y-101424809D01*
X71863002Y-101424809D02*
X71863002Y-100924809D01*
X71624906Y-101424809D02*
X71624906Y-100924809D01*
X71624906Y-100924809D02*
X71505858Y-100924809D01*
X71505858Y-100924809D02*
X71434430Y-100948619D01*
X71434430Y-100948619D02*
X71386811Y-100996238D01*
X71386811Y-100996238D02*
X71363001Y-101043857D01*
X71363001Y-101043857D02*
X71339192Y-101139095D01*
X71339192Y-101139095D02*
X71339192Y-101210523D01*
X71339192Y-101210523D02*
X71363001Y-101305761D01*
X71363001Y-101305761D02*
X71386811Y-101353380D01*
X71386811Y-101353380D02*
X71434430Y-101401000D01*
X71434430Y-101401000D02*
X71505858Y-101424809D01*
X71505858Y-101424809D02*
X71624906Y-101424809D01*
X67563002Y-102777190D02*
X67586811Y-102801000D01*
X67586811Y-102801000D02*
X67658240Y-102824809D01*
X67658240Y-102824809D02*
X67705859Y-102824809D01*
X67705859Y-102824809D02*
X67777287Y-102801000D01*
X67777287Y-102801000D02*
X67824906Y-102753380D01*
X67824906Y-102753380D02*
X67848716Y-102705761D01*
X67848716Y-102705761D02*
X67872525Y-102610523D01*
X67872525Y-102610523D02*
X67872525Y-102539095D01*
X67872525Y-102539095D02*
X67848716Y-102443857D01*
X67848716Y-102443857D02*
X67824906Y-102396238D01*
X67824906Y-102396238D02*
X67777287Y-102348619D01*
X67777287Y-102348619D02*
X67705859Y-102324809D01*
X67705859Y-102324809D02*
X67658240Y-102324809D01*
X67658240Y-102324809D02*
X67586811Y-102348619D01*
X67586811Y-102348619D02*
X67563002Y-102372428D01*
X67110621Y-102824809D02*
X67348716Y-102824809D01*
X67348716Y-102824809D02*
X67348716Y-102324809D01*
X66943954Y-102824809D02*
X66943954Y-102324809D01*
X66658240Y-102824809D02*
X66872525Y-102539095D01*
X66658240Y-102324809D02*
X66943954Y-102610523D01*
X72263002Y-102724809D02*
X72429668Y-102486714D01*
X72548716Y-102724809D02*
X72548716Y-102224809D01*
X72548716Y-102224809D02*
X72358240Y-102224809D01*
X72358240Y-102224809D02*
X72310621Y-102248619D01*
X72310621Y-102248619D02*
X72286811Y-102272428D01*
X72286811Y-102272428D02*
X72263002Y-102320047D01*
X72263002Y-102320047D02*
X72263002Y-102391476D01*
X72263002Y-102391476D02*
X72286811Y-102439095D01*
X72286811Y-102439095D02*
X72310621Y-102462904D01*
X72310621Y-102462904D02*
X72358240Y-102486714D01*
X72358240Y-102486714D02*
X72548716Y-102486714D01*
X72072525Y-102701000D02*
X72001097Y-102724809D01*
X72001097Y-102724809D02*
X71882049Y-102724809D01*
X71882049Y-102724809D02*
X71834430Y-102701000D01*
X71834430Y-102701000D02*
X71810621Y-102677190D01*
X71810621Y-102677190D02*
X71786811Y-102629571D01*
X71786811Y-102629571D02*
X71786811Y-102581952D01*
X71786811Y-102581952D02*
X71810621Y-102534333D01*
X71810621Y-102534333D02*
X71834430Y-102510523D01*
X71834430Y-102510523D02*
X71882049Y-102486714D01*
X71882049Y-102486714D02*
X71977287Y-102462904D01*
X71977287Y-102462904D02*
X72024906Y-102439095D01*
X72024906Y-102439095D02*
X72048716Y-102415285D01*
X72048716Y-102415285D02*
X72072525Y-102367666D01*
X72072525Y-102367666D02*
X72072525Y-102320047D01*
X72072525Y-102320047D02*
X72048716Y-102272428D01*
X72048716Y-102272428D02*
X72024906Y-102248619D01*
X72024906Y-102248619D02*
X71977287Y-102224809D01*
X71977287Y-102224809D02*
X71858240Y-102224809D01*
X71858240Y-102224809D02*
X71786811Y-102248619D01*
X71643954Y-102224809D02*
X71358240Y-102224809D01*
X71501097Y-102724809D02*
X71501097Y-102224809D01*
X81366665Y-114174809D02*
X81199999Y-114674809D01*
X81199999Y-114674809D02*
X81033332Y-114174809D01*
X80866666Y-114674809D02*
X80866666Y-114174809D01*
X80866666Y-114174809D02*
X80676190Y-114174809D01*
X80676190Y-114174809D02*
X80628571Y-114198619D01*
X80628571Y-114198619D02*
X80604761Y-114222428D01*
X80604761Y-114222428D02*
X80580952Y-114270047D01*
X80580952Y-114270047D02*
X80580952Y-114341476D01*
X80580952Y-114341476D02*
X80604761Y-114389095D01*
X80604761Y-114389095D02*
X80628571Y-114412904D01*
X80628571Y-114412904D02*
X80676190Y-114436714D01*
X80676190Y-114436714D02*
X80866666Y-114436714D01*
X80366666Y-114674809D02*
X80366666Y-114174809D01*
X80366666Y-114174809D02*
X80176190Y-114174809D01*
X80176190Y-114174809D02*
X80128571Y-114198619D01*
X80128571Y-114198619D02*
X80104761Y-114222428D01*
X80104761Y-114222428D02*
X80080952Y-114270047D01*
X80080952Y-114270047D02*
X80080952Y-114341476D01*
X80080952Y-114341476D02*
X80104761Y-114389095D01*
X80104761Y-114389095D02*
X80128571Y-114412904D01*
X80128571Y-114412904D02*
X80176190Y-114436714D01*
X80176190Y-114436714D02*
X80366666Y-114436714D01*
X70534430Y-105484000D02*
X70434430Y-105517333D01*
X70434430Y-105517333D02*
X70267764Y-105517333D01*
X70267764Y-105517333D02*
X70201097Y-105484000D01*
X70201097Y-105484000D02*
X70167764Y-105450666D01*
X70167764Y-105450666D02*
X70134430Y-105384000D01*
X70134430Y-105384000D02*
X70134430Y-105317333D01*
X70134430Y-105317333D02*
X70167764Y-105250666D01*
X70167764Y-105250666D02*
X70201097Y-105217333D01*
X70201097Y-105217333D02*
X70267764Y-105184000D01*
X70267764Y-105184000D02*
X70401097Y-105150666D01*
X70401097Y-105150666D02*
X70467764Y-105117333D01*
X70467764Y-105117333D02*
X70501097Y-105084000D01*
X70501097Y-105084000D02*
X70534430Y-105017333D01*
X70534430Y-105017333D02*
X70534430Y-104950666D01*
X70534430Y-104950666D02*
X70501097Y-104884000D01*
X70501097Y-104884000D02*
X70467764Y-104850666D01*
X70467764Y-104850666D02*
X70401097Y-104817333D01*
X70401097Y-104817333D02*
X70234430Y-104817333D01*
X70234430Y-104817333D02*
X70134430Y-104850666D01*
X69901097Y-104817333D02*
X69734430Y-105517333D01*
X69734430Y-105517333D02*
X69601097Y-105017333D01*
X69601097Y-105017333D02*
X69467763Y-105517333D01*
X69467763Y-105517333D02*
X69301097Y-104817333D01*
X69034430Y-105517333D02*
X69034430Y-104817333D01*
X69034430Y-104817333D02*
X68867763Y-104817333D01*
X68867763Y-104817333D02*
X68767763Y-104850666D01*
X68767763Y-104850666D02*
X68701097Y-104917333D01*
X68701097Y-104917333D02*
X68667763Y-104984000D01*
X68667763Y-104984000D02*
X68634430Y-105117333D01*
X68634430Y-105117333D02*
X68634430Y-105217333D01*
X68634430Y-105217333D02*
X68667763Y-105350666D01*
X68667763Y-105350666D02*
X68701097Y-105417333D01*
X68701097Y-105417333D02*
X68767763Y-105484000D01*
X68767763Y-105484000D02*
X68867763Y-105517333D01*
X68867763Y-105517333D02*
X69034430Y-105517333D01*
X67801097Y-104167333D02*
X67801097Y-103467333D01*
X67334431Y-103467333D02*
X67201097Y-103467333D01*
X67201097Y-103467333D02*
X67134431Y-103500666D01*
X67134431Y-103500666D02*
X67067764Y-103567333D01*
X67067764Y-103567333D02*
X67034431Y-103700666D01*
X67034431Y-103700666D02*
X67034431Y-103934000D01*
X67034431Y-103934000D02*
X67067764Y-104067333D01*
X67067764Y-104067333D02*
X67134431Y-104134000D01*
X67134431Y-104134000D02*
X67201097Y-104167333D01*
X67201097Y-104167333D02*
X67334431Y-104167333D01*
X67334431Y-104167333D02*
X67401097Y-104134000D01*
X67401097Y-104134000D02*
X67467764Y-104067333D01*
X67467764Y-104067333D02*
X67501097Y-103934000D01*
X67501097Y-103934000D02*
X67501097Y-103700666D01*
X67501097Y-103700666D02*
X67467764Y-103567333D01*
X67467764Y-103567333D02*
X67401097Y-103500666D01*
X67401097Y-103500666D02*
X67334431Y-103467333D01*
X43317764Y-111317333D02*
X43651097Y-111317333D01*
X43651097Y-111317333D02*
X43651097Y-110617333D01*
X43184430Y-110617333D02*
X42784430Y-110617333D01*
X42984430Y-111317333D02*
X42984430Y-110617333D01*
X42551097Y-110950666D02*
X42317764Y-110950666D01*
X42217764Y-111317333D02*
X42551097Y-111317333D01*
X42551097Y-111317333D02*
X42551097Y-110617333D01*
X42551097Y-110617333D02*
X42217764Y-110617333D01*
X81233332Y-108350666D02*
X81299999Y-108317333D01*
X81299999Y-108317333D02*
X81399999Y-108317333D01*
X81399999Y-108317333D02*
X81499999Y-108350666D01*
X81499999Y-108350666D02*
X81566666Y-108417333D01*
X81566666Y-108417333D02*
X81599999Y-108484000D01*
X81599999Y-108484000D02*
X81633332Y-108617333D01*
X81633332Y-108617333D02*
X81633332Y-108717333D01*
X81633332Y-108717333D02*
X81599999Y-108850666D01*
X81599999Y-108850666D02*
X81566666Y-108917333D01*
X81566666Y-108917333D02*
X81499999Y-108984000D01*
X81499999Y-108984000D02*
X81399999Y-109017333D01*
X81399999Y-109017333D02*
X81333332Y-109017333D01*
X81333332Y-109017333D02*
X81233332Y-108984000D01*
X81233332Y-108984000D02*
X81199999Y-108950666D01*
X81199999Y-108950666D02*
X81199999Y-108717333D01*
X81199999Y-108717333D02*
X81333332Y-108717333D01*
X80899999Y-109017333D02*
X80899999Y-108317333D01*
X80899999Y-108317333D02*
X80499999Y-109017333D01*
X80499999Y-109017333D02*
X80499999Y-108317333D01*
X80166666Y-109017333D02*
X80166666Y-108317333D01*
X80166666Y-108317333D02*
X79999999Y-108317333D01*
X79999999Y-108317333D02*
X79899999Y-108350666D01*
X79899999Y-108350666D02*
X79833333Y-108417333D01*
X79833333Y-108417333D02*
X79799999Y-108484000D01*
X79799999Y-108484000D02*
X79766666Y-108617333D01*
X79766666Y-108617333D02*
X79766666Y-108717333D01*
X79766666Y-108717333D02*
X79799999Y-108850666D01*
X79799999Y-108850666D02*
X79833333Y-108917333D01*
X79833333Y-108917333D02*
X79899999Y-108984000D01*
X79899999Y-108984000D02*
X79999999Y-109017333D01*
X79999999Y-109017333D02*
X80166666Y-109017333D01*
X79116666Y-108317333D02*
X78949999Y-109017333D01*
X78949999Y-109017333D02*
X78816666Y-108517333D01*
X78816666Y-108517333D02*
X78683332Y-109017333D01*
X78683332Y-109017333D02*
X78516666Y-108317333D01*
X78249999Y-109017333D02*
X78249999Y-108317333D01*
X77849999Y-109017333D02*
X78149999Y-108617333D01*
X77849999Y-108317333D02*
X78249999Y-108717333D01*
X77549999Y-108650666D02*
X77316666Y-108650666D01*
X77216666Y-109017333D02*
X77549999Y-109017333D01*
X77549999Y-109017333D02*
X77549999Y-108317333D01*
X77549999Y-108317333D02*
X77216666Y-108317333D01*
X73719046Y-114124809D02*
X73409522Y-114124809D01*
X73409522Y-114124809D02*
X73576189Y-114315285D01*
X73576189Y-114315285D02*
X73504760Y-114315285D01*
X73504760Y-114315285D02*
X73457141Y-114339095D01*
X73457141Y-114339095D02*
X73433332Y-114362904D01*
X73433332Y-114362904D02*
X73409522Y-114410523D01*
X73409522Y-114410523D02*
X73409522Y-114529571D01*
X73409522Y-114529571D02*
X73433332Y-114577190D01*
X73433332Y-114577190D02*
X73457141Y-114601000D01*
X73457141Y-114601000D02*
X73504760Y-114624809D01*
X73504760Y-114624809D02*
X73647617Y-114624809D01*
X73647617Y-114624809D02*
X73695236Y-114601000D01*
X73695236Y-114601000D02*
X73719046Y-114577190D01*
X73266665Y-114124809D02*
X73099999Y-114624809D01*
X73099999Y-114624809D02*
X72933332Y-114124809D01*
X72814285Y-114124809D02*
X72504761Y-114124809D01*
X72504761Y-114124809D02*
X72671428Y-114315285D01*
X72671428Y-114315285D02*
X72599999Y-114315285D01*
X72599999Y-114315285D02*
X72552380Y-114339095D01*
X72552380Y-114339095D02*
X72528571Y-114362904D01*
X72528571Y-114362904D02*
X72504761Y-114410523D01*
X72504761Y-114410523D02*
X72504761Y-114529571D01*
X72504761Y-114529571D02*
X72528571Y-114577190D01*
X72528571Y-114577190D02*
X72552380Y-114601000D01*
X72552380Y-114601000D02*
X72599999Y-114624809D01*
X72599999Y-114624809D02*
X72742856Y-114624809D01*
X72742856Y-114624809D02*
X72790475Y-114601000D01*
X72790475Y-114601000D02*
X72814285Y-114577190D01*
X67851097Y-101150666D02*
X67617764Y-101150666D01*
X67517764Y-101517333D02*
X67851097Y-101517333D01*
X67851097Y-101517333D02*
X67851097Y-100817333D01*
X67851097Y-100817333D02*
X67517764Y-100817333D01*
X67217764Y-101517333D02*
X67217764Y-100817333D01*
X67217764Y-100817333D02*
X66817764Y-101517333D01*
X66817764Y-101517333D02*
X66817764Y-100817333D01*
X45680952Y-103229809D02*
X45680952Y-103634571D01*
X45680952Y-103634571D02*
X45657142Y-103682190D01*
X45657142Y-103682190D02*
X45633333Y-103706000D01*
X45633333Y-103706000D02*
X45585714Y-103729809D01*
X45585714Y-103729809D02*
X45490476Y-103729809D01*
X45490476Y-103729809D02*
X45442857Y-103706000D01*
X45442857Y-103706000D02*
X45419047Y-103682190D01*
X45419047Y-103682190D02*
X45395238Y-103634571D01*
X45395238Y-103634571D02*
X45395238Y-103229809D01*
X44919047Y-103229809D02*
X45157142Y-103229809D01*
X45157142Y-103229809D02*
X45180951Y-103467904D01*
X45180951Y-103467904D02*
X45157142Y-103444095D01*
X45157142Y-103444095D02*
X45109523Y-103420285D01*
X45109523Y-103420285D02*
X44990475Y-103420285D01*
X44990475Y-103420285D02*
X44942856Y-103444095D01*
X44942856Y-103444095D02*
X44919047Y-103467904D01*
X44919047Y-103467904D02*
X44895237Y-103515523D01*
X44895237Y-103515523D02*
X44895237Y-103634571D01*
X44895237Y-103634571D02*
X44919047Y-103682190D01*
X44919047Y-103682190D02*
X44942856Y-103706000D01*
X44942856Y-103706000D02*
X44990475Y-103729809D01*
X44990475Y-103729809D02*
X45109523Y-103729809D01*
X45109523Y-103729809D02*
X45157142Y-103706000D01*
X45157142Y-103706000D02*
X45180951Y-103682190D01*
D11*
X32950057Y-109967261D02*
X32902438Y-109872023D01*
X32902438Y-109872023D02*
X32807200Y-109776785D01*
X32807200Y-109776785D02*
X32664342Y-109633928D01*
X32664342Y-109633928D02*
X32616723Y-109538690D01*
X32616723Y-109538690D02*
X32616723Y-109443452D01*
X32854819Y-109491071D02*
X32807200Y-109395833D01*
X32807200Y-109395833D02*
X32711961Y-109300595D01*
X32711961Y-109300595D02*
X32521485Y-109252976D01*
X32521485Y-109252976D02*
X32188152Y-109252976D01*
X32188152Y-109252976D02*
X31997676Y-109300595D01*
X31997676Y-109300595D02*
X31902438Y-109395833D01*
X31902438Y-109395833D02*
X31854819Y-109491071D01*
X31854819Y-109491071D02*
X31854819Y-109681547D01*
X31854819Y-109681547D02*
X31902438Y-109776785D01*
X31902438Y-109776785D02*
X31997676Y-109872023D01*
X31997676Y-109872023D02*
X32188152Y-109919642D01*
X32188152Y-109919642D02*
X32521485Y-109919642D01*
X32521485Y-109919642D02*
X32711961Y-109872023D01*
X32711961Y-109872023D02*
X32807200Y-109776785D01*
X32807200Y-109776785D02*
X32854819Y-109681547D01*
X32854819Y-109681547D02*
X32854819Y-109491071D01*
X32854819Y-110872023D02*
X32854819Y-110300595D01*
X32854819Y-110586309D02*
X31854819Y-110586309D01*
X31854819Y-110586309D02*
X31997676Y-110491071D01*
X31997676Y-110491071D02*
X32092914Y-110395833D01*
X32092914Y-110395833D02*
X32140533Y-110300595D01*
D10*
X79780952Y-106224809D02*
X79780952Y-106629571D01*
X79780952Y-106629571D02*
X79757142Y-106677190D01*
X79757142Y-106677190D02*
X79733333Y-106701000D01*
X79733333Y-106701000D02*
X79685714Y-106724809D01*
X79685714Y-106724809D02*
X79590476Y-106724809D01*
X79590476Y-106724809D02*
X79542857Y-106701000D01*
X79542857Y-106701000D02*
X79519047Y-106677190D01*
X79519047Y-106677190D02*
X79495238Y-106629571D01*
X79495238Y-106629571D02*
X79495238Y-106224809D01*
X78995237Y-106724809D02*
X79280951Y-106724809D01*
X79138094Y-106724809D02*
X79138094Y-106224809D01*
X79138094Y-106224809D02*
X79185713Y-106296238D01*
X79185713Y-106296238D02*
X79233332Y-106343857D01*
X79233332Y-106343857D02*
X79280951Y-106367666D01*
X44821428Y-101377190D02*
X44845237Y-101401000D01*
X44845237Y-101401000D02*
X44916666Y-101424809D01*
X44916666Y-101424809D02*
X44964285Y-101424809D01*
X44964285Y-101424809D02*
X45035713Y-101401000D01*
X45035713Y-101401000D02*
X45083332Y-101353380D01*
X45083332Y-101353380D02*
X45107142Y-101305761D01*
X45107142Y-101305761D02*
X45130951Y-101210523D01*
X45130951Y-101210523D02*
X45130951Y-101139095D01*
X45130951Y-101139095D02*
X45107142Y-101043857D01*
X45107142Y-101043857D02*
X45083332Y-100996238D01*
X45083332Y-100996238D02*
X45035713Y-100948619D01*
X45035713Y-100948619D02*
X44964285Y-100924809D01*
X44964285Y-100924809D02*
X44916666Y-100924809D01*
X44916666Y-100924809D02*
X44845237Y-100948619D01*
X44845237Y-100948619D02*
X44821428Y-100972428D01*
X44345237Y-101424809D02*
X44630951Y-101424809D01*
X44488094Y-101424809D02*
X44488094Y-100924809D01*
X44488094Y-100924809D02*
X44535713Y-100996238D01*
X44535713Y-100996238D02*
X44583332Y-101043857D01*
X44583332Y-101043857D02*
X44630951Y-101067666D01*
X43869047Y-101424809D02*
X44154761Y-101424809D01*
X44011904Y-101424809D02*
X44011904Y-100924809D01*
X44011904Y-100924809D02*
X44059523Y-100996238D01*
X44059523Y-100996238D02*
X44107142Y-101043857D01*
X44107142Y-101043857D02*
X44154761Y-101067666D01*
X63180952Y-104129809D02*
X63180952Y-104534571D01*
X63180952Y-104534571D02*
X63157142Y-104582190D01*
X63157142Y-104582190D02*
X63133333Y-104606000D01*
X63133333Y-104606000D02*
X63085714Y-104629809D01*
X63085714Y-104629809D02*
X62990476Y-104629809D01*
X62990476Y-104629809D02*
X62942857Y-104606000D01*
X62942857Y-104606000D02*
X62919047Y-104582190D01*
X62919047Y-104582190D02*
X62895238Y-104534571D01*
X62895238Y-104534571D02*
X62895238Y-104129809D01*
X62704761Y-104129809D02*
X62395237Y-104129809D01*
X62395237Y-104129809D02*
X62561904Y-104320285D01*
X62561904Y-104320285D02*
X62490475Y-104320285D01*
X62490475Y-104320285D02*
X62442856Y-104344095D01*
X62442856Y-104344095D02*
X62419047Y-104367904D01*
X62419047Y-104367904D02*
X62395237Y-104415523D01*
X62395237Y-104415523D02*
X62395237Y-104534571D01*
X62395237Y-104534571D02*
X62419047Y-104582190D01*
X62419047Y-104582190D02*
X62442856Y-104606000D01*
X62442856Y-104606000D02*
X62490475Y-104629809D01*
X62490475Y-104629809D02*
X62633332Y-104629809D01*
X62633332Y-104629809D02*
X62680951Y-104606000D01*
X62680951Y-104606000D02*
X62704761Y-104582190D01*
X41421428Y-104682190D02*
X41445237Y-104706000D01*
X41445237Y-104706000D02*
X41516666Y-104729809D01*
X41516666Y-104729809D02*
X41564285Y-104729809D01*
X41564285Y-104729809D02*
X41635713Y-104706000D01*
X41635713Y-104706000D02*
X41683332Y-104658380D01*
X41683332Y-104658380D02*
X41707142Y-104610761D01*
X41707142Y-104610761D02*
X41730951Y-104515523D01*
X41730951Y-104515523D02*
X41730951Y-104444095D01*
X41730951Y-104444095D02*
X41707142Y-104348857D01*
X41707142Y-104348857D02*
X41683332Y-104301238D01*
X41683332Y-104301238D02*
X41635713Y-104253619D01*
X41635713Y-104253619D02*
X41564285Y-104229809D01*
X41564285Y-104229809D02*
X41516666Y-104229809D01*
X41516666Y-104229809D02*
X41445237Y-104253619D01*
X41445237Y-104253619D02*
X41421428Y-104277428D01*
X40945237Y-104729809D02*
X41230951Y-104729809D01*
X41088094Y-104729809D02*
X41088094Y-104229809D01*
X41088094Y-104229809D02*
X41135713Y-104301238D01*
X41135713Y-104301238D02*
X41183332Y-104348857D01*
X41183332Y-104348857D02*
X41230951Y-104372666D01*
X40754761Y-104277428D02*
X40730952Y-104253619D01*
X40730952Y-104253619D02*
X40683333Y-104229809D01*
X40683333Y-104229809D02*
X40564285Y-104229809D01*
X40564285Y-104229809D02*
X40516666Y-104253619D01*
X40516666Y-104253619D02*
X40492857Y-104277428D01*
X40492857Y-104277428D02*
X40469047Y-104325047D01*
X40469047Y-104325047D02*
X40469047Y-104372666D01*
X40469047Y-104372666D02*
X40492857Y-104444095D01*
X40492857Y-104444095D02*
X40778571Y-104729809D01*
X40778571Y-104729809D02*
X40469047Y-104729809D01*
D11*
X84461904Y-109454819D02*
X84461904Y-110264342D01*
X84461904Y-110264342D02*
X84414285Y-110359580D01*
X84414285Y-110359580D02*
X84366666Y-110407200D01*
X84366666Y-110407200D02*
X84271428Y-110454819D01*
X84271428Y-110454819D02*
X84080952Y-110454819D01*
X84080952Y-110454819D02*
X83985714Y-110407200D01*
X83985714Y-110407200D02*
X83938095Y-110359580D01*
X83938095Y-110359580D02*
X83890476Y-110264342D01*
X83890476Y-110264342D02*
X83890476Y-109454819D01*
X83509523Y-109454819D02*
X82842857Y-109454819D01*
X82842857Y-109454819D02*
X83271428Y-110454819D01*
D10*
X42783333Y-101424809D02*
X43021428Y-101424809D01*
X43021428Y-101424809D02*
X43021428Y-100924809D01*
X42354761Y-101424809D02*
X42640475Y-101424809D01*
X42497618Y-101424809D02*
X42497618Y-100924809D01*
X42497618Y-100924809D02*
X42545237Y-100996238D01*
X42545237Y-100996238D02*
X42592856Y-101043857D01*
X42592856Y-101043857D02*
X42640475Y-101067666D01*
X62883333Y-111277190D02*
X62907142Y-111301000D01*
X62907142Y-111301000D02*
X62978571Y-111324809D01*
X62978571Y-111324809D02*
X63026190Y-111324809D01*
X63026190Y-111324809D02*
X63097618Y-111301000D01*
X63097618Y-111301000D02*
X63145237Y-111253380D01*
X63145237Y-111253380D02*
X63169047Y-111205761D01*
X63169047Y-111205761D02*
X63192856Y-111110523D01*
X63192856Y-111110523D02*
X63192856Y-111039095D01*
X63192856Y-111039095D02*
X63169047Y-110943857D01*
X63169047Y-110943857D02*
X63145237Y-110896238D01*
X63145237Y-110896238D02*
X63097618Y-110848619D01*
X63097618Y-110848619D02*
X63026190Y-110824809D01*
X63026190Y-110824809D02*
X62978571Y-110824809D01*
X62978571Y-110824809D02*
X62907142Y-110848619D01*
X62907142Y-110848619D02*
X62883333Y-110872428D01*
X62454761Y-110824809D02*
X62549999Y-110824809D01*
X62549999Y-110824809D02*
X62597618Y-110848619D01*
X62597618Y-110848619D02*
X62621428Y-110872428D01*
X62621428Y-110872428D02*
X62669047Y-110943857D01*
X62669047Y-110943857D02*
X62692856Y-111039095D01*
X62692856Y-111039095D02*
X62692856Y-111229571D01*
X62692856Y-111229571D02*
X62669047Y-111277190D01*
X62669047Y-111277190D02*
X62645237Y-111301000D01*
X62645237Y-111301000D02*
X62597618Y-111324809D01*
X62597618Y-111324809D02*
X62502380Y-111324809D01*
X62502380Y-111324809D02*
X62454761Y-111301000D01*
X62454761Y-111301000D02*
X62430952Y-111277190D01*
X62430952Y-111277190D02*
X62407142Y-111229571D01*
X62407142Y-111229571D02*
X62407142Y-111110523D01*
X62407142Y-111110523D02*
X62430952Y-111062904D01*
X62430952Y-111062904D02*
X62454761Y-111039095D01*
X62454761Y-111039095D02*
X62502380Y-111015285D01*
X62502380Y-111015285D02*
X62597618Y-111015285D01*
X62597618Y-111015285D02*
X62645237Y-111039095D01*
X62645237Y-111039095D02*
X62669047Y-111062904D01*
X62669047Y-111062904D02*
X62692856Y-111110523D01*
X59083333Y-101529809D02*
X59249999Y-101291714D01*
X59369047Y-101529809D02*
X59369047Y-101029809D01*
X59369047Y-101029809D02*
X59178571Y-101029809D01*
X59178571Y-101029809D02*
X59130952Y-101053619D01*
X59130952Y-101053619D02*
X59107142Y-101077428D01*
X59107142Y-101077428D02*
X59083333Y-101125047D01*
X59083333Y-101125047D02*
X59083333Y-101196476D01*
X59083333Y-101196476D02*
X59107142Y-101244095D01*
X59107142Y-101244095D02*
X59130952Y-101267904D01*
X59130952Y-101267904D02*
X59178571Y-101291714D01*
X59178571Y-101291714D02*
X59369047Y-101291714D01*
X58654761Y-101196476D02*
X58654761Y-101529809D01*
X58773809Y-101006000D02*
X58892856Y-101363142D01*
X58892856Y-101363142D02*
X58583333Y-101363142D01*
X86183333Y-110377190D02*
X86207142Y-110401000D01*
X86207142Y-110401000D02*
X86278571Y-110424809D01*
X86278571Y-110424809D02*
X86326190Y-110424809D01*
X86326190Y-110424809D02*
X86397618Y-110401000D01*
X86397618Y-110401000D02*
X86445237Y-110353380D01*
X86445237Y-110353380D02*
X86469047Y-110305761D01*
X86469047Y-110305761D02*
X86492856Y-110210523D01*
X86492856Y-110210523D02*
X86492856Y-110139095D01*
X86492856Y-110139095D02*
X86469047Y-110043857D01*
X86469047Y-110043857D02*
X86445237Y-109996238D01*
X86445237Y-109996238D02*
X86397618Y-109948619D01*
X86397618Y-109948619D02*
X86326190Y-109924809D01*
X86326190Y-109924809D02*
X86278571Y-109924809D01*
X86278571Y-109924809D02*
X86207142Y-109948619D01*
X86207142Y-109948619D02*
X86183333Y-109972428D01*
X85992856Y-109972428D02*
X85969047Y-109948619D01*
X85969047Y-109948619D02*
X85921428Y-109924809D01*
X85921428Y-109924809D02*
X85802380Y-109924809D01*
X85802380Y-109924809D02*
X85754761Y-109948619D01*
X85754761Y-109948619D02*
X85730952Y-109972428D01*
X85730952Y-109972428D02*
X85707142Y-110020047D01*
X85707142Y-110020047D02*
X85707142Y-110067666D01*
X85707142Y-110067666D02*
X85730952Y-110139095D01*
X85730952Y-110139095D02*
X86016666Y-110424809D01*
X86016666Y-110424809D02*
X85707142Y-110424809D01*
X64383333Y-111977190D02*
X64407142Y-112001000D01*
X64407142Y-112001000D02*
X64478571Y-112024809D01*
X64478571Y-112024809D02*
X64526190Y-112024809D01*
X64526190Y-112024809D02*
X64597618Y-112001000D01*
X64597618Y-112001000D02*
X64645237Y-111953380D01*
X64645237Y-111953380D02*
X64669047Y-111905761D01*
X64669047Y-111905761D02*
X64692856Y-111810523D01*
X64692856Y-111810523D02*
X64692856Y-111739095D01*
X64692856Y-111739095D02*
X64669047Y-111643857D01*
X64669047Y-111643857D02*
X64645237Y-111596238D01*
X64645237Y-111596238D02*
X64597618Y-111548619D01*
X64597618Y-111548619D02*
X64526190Y-111524809D01*
X64526190Y-111524809D02*
X64478571Y-111524809D01*
X64478571Y-111524809D02*
X64407142Y-111548619D01*
X64407142Y-111548619D02*
X64383333Y-111572428D01*
X63930952Y-111524809D02*
X64169047Y-111524809D01*
X64169047Y-111524809D02*
X64192856Y-111762904D01*
X64192856Y-111762904D02*
X64169047Y-111739095D01*
X64169047Y-111739095D02*
X64121428Y-111715285D01*
X64121428Y-111715285D02*
X64002380Y-111715285D01*
X64002380Y-111715285D02*
X63954761Y-111739095D01*
X63954761Y-111739095D02*
X63930952Y-111762904D01*
X63930952Y-111762904D02*
X63907142Y-111810523D01*
X63907142Y-111810523D02*
X63907142Y-111929571D01*
X63907142Y-111929571D02*
X63930952Y-111977190D01*
X63930952Y-111977190D02*
X63954761Y-112001000D01*
X63954761Y-112001000D02*
X64002380Y-112024809D01*
X64002380Y-112024809D02*
X64121428Y-112024809D01*
X64121428Y-112024809D02*
X64169047Y-112001000D01*
X64169047Y-112001000D02*
X64192856Y-111977190D01*
X62983333Y-103482190D02*
X63007142Y-103506000D01*
X63007142Y-103506000D02*
X63078571Y-103529809D01*
X63078571Y-103529809D02*
X63126190Y-103529809D01*
X63126190Y-103529809D02*
X63197618Y-103506000D01*
X63197618Y-103506000D02*
X63245237Y-103458380D01*
X63245237Y-103458380D02*
X63269047Y-103410761D01*
X63269047Y-103410761D02*
X63292856Y-103315523D01*
X63292856Y-103315523D02*
X63292856Y-103244095D01*
X63292856Y-103244095D02*
X63269047Y-103148857D01*
X63269047Y-103148857D02*
X63245237Y-103101238D01*
X63245237Y-103101238D02*
X63197618Y-103053619D01*
X63197618Y-103053619D02*
X63126190Y-103029809D01*
X63126190Y-103029809D02*
X63078571Y-103029809D01*
X63078571Y-103029809D02*
X63007142Y-103053619D01*
X63007142Y-103053619D02*
X62983333Y-103077428D01*
X62745237Y-103529809D02*
X62649999Y-103529809D01*
X62649999Y-103529809D02*
X62602380Y-103506000D01*
X62602380Y-103506000D02*
X62578571Y-103482190D01*
X62578571Y-103482190D02*
X62530952Y-103410761D01*
X62530952Y-103410761D02*
X62507142Y-103315523D01*
X62507142Y-103315523D02*
X62507142Y-103125047D01*
X62507142Y-103125047D02*
X62530952Y-103077428D01*
X62530952Y-103077428D02*
X62554761Y-103053619D01*
X62554761Y-103053619D02*
X62602380Y-103029809D01*
X62602380Y-103029809D02*
X62697618Y-103029809D01*
X62697618Y-103029809D02*
X62745237Y-103053619D01*
X62745237Y-103053619D02*
X62769047Y-103077428D01*
X62769047Y-103077428D02*
X62792856Y-103125047D01*
X62792856Y-103125047D02*
X62792856Y-103244095D01*
X62792856Y-103244095D02*
X62769047Y-103291714D01*
X62769047Y-103291714D02*
X62745237Y-103315523D01*
X62745237Y-103315523D02*
X62697618Y-103339333D01*
X62697618Y-103339333D02*
X62602380Y-103339333D01*
X62602380Y-103339333D02*
X62554761Y-103315523D01*
X62554761Y-103315523D02*
X62530952Y-103291714D01*
X62530952Y-103291714D02*
X62507142Y-103244095D01*
X64583333Y-107077190D02*
X64607142Y-107101000D01*
X64607142Y-107101000D02*
X64678571Y-107124809D01*
X64678571Y-107124809D02*
X64726190Y-107124809D01*
X64726190Y-107124809D02*
X64797618Y-107101000D01*
X64797618Y-107101000D02*
X64845237Y-107053380D01*
X64845237Y-107053380D02*
X64869047Y-107005761D01*
X64869047Y-107005761D02*
X64892856Y-106910523D01*
X64892856Y-106910523D02*
X64892856Y-106839095D01*
X64892856Y-106839095D02*
X64869047Y-106743857D01*
X64869047Y-106743857D02*
X64845237Y-106696238D01*
X64845237Y-106696238D02*
X64797618Y-106648619D01*
X64797618Y-106648619D02*
X64726190Y-106624809D01*
X64726190Y-106624809D02*
X64678571Y-106624809D01*
X64678571Y-106624809D02*
X64607142Y-106648619D01*
X64607142Y-106648619D02*
X64583333Y-106672428D01*
X64416666Y-106624809D02*
X64107142Y-106624809D01*
X64107142Y-106624809D02*
X64273809Y-106815285D01*
X64273809Y-106815285D02*
X64202380Y-106815285D01*
X64202380Y-106815285D02*
X64154761Y-106839095D01*
X64154761Y-106839095D02*
X64130952Y-106862904D01*
X64130952Y-106862904D02*
X64107142Y-106910523D01*
X64107142Y-106910523D02*
X64107142Y-107029571D01*
X64107142Y-107029571D02*
X64130952Y-107077190D01*
X64130952Y-107077190D02*
X64154761Y-107101000D01*
X64154761Y-107101000D02*
X64202380Y-107124809D01*
X64202380Y-107124809D02*
X64345237Y-107124809D01*
X64345237Y-107124809D02*
X64392856Y-107101000D01*
X64392856Y-107101000D02*
X64416666Y-107077190D01*
X64683333Y-103482190D02*
X64707142Y-103506000D01*
X64707142Y-103506000D02*
X64778571Y-103529809D01*
X64778571Y-103529809D02*
X64826190Y-103529809D01*
X64826190Y-103529809D02*
X64897618Y-103506000D01*
X64897618Y-103506000D02*
X64945237Y-103458380D01*
X64945237Y-103458380D02*
X64969047Y-103410761D01*
X64969047Y-103410761D02*
X64992856Y-103315523D01*
X64992856Y-103315523D02*
X64992856Y-103244095D01*
X64992856Y-103244095D02*
X64969047Y-103148857D01*
X64969047Y-103148857D02*
X64945237Y-103101238D01*
X64945237Y-103101238D02*
X64897618Y-103053619D01*
X64897618Y-103053619D02*
X64826190Y-103029809D01*
X64826190Y-103029809D02*
X64778571Y-103029809D01*
X64778571Y-103029809D02*
X64707142Y-103053619D01*
X64707142Y-103053619D02*
X64683333Y-103077428D01*
X64397618Y-103244095D02*
X64445237Y-103220285D01*
X64445237Y-103220285D02*
X64469047Y-103196476D01*
X64469047Y-103196476D02*
X64492856Y-103148857D01*
X64492856Y-103148857D02*
X64492856Y-103125047D01*
X64492856Y-103125047D02*
X64469047Y-103077428D01*
X64469047Y-103077428D02*
X64445237Y-103053619D01*
X64445237Y-103053619D02*
X64397618Y-103029809D01*
X64397618Y-103029809D02*
X64302380Y-103029809D01*
X64302380Y-103029809D02*
X64254761Y-103053619D01*
X64254761Y-103053619D02*
X64230952Y-103077428D01*
X64230952Y-103077428D02*
X64207142Y-103125047D01*
X64207142Y-103125047D02*
X64207142Y-103148857D01*
X64207142Y-103148857D02*
X64230952Y-103196476D01*
X64230952Y-103196476D02*
X64254761Y-103220285D01*
X64254761Y-103220285D02*
X64302380Y-103244095D01*
X64302380Y-103244095D02*
X64397618Y-103244095D01*
X64397618Y-103244095D02*
X64445237Y-103267904D01*
X64445237Y-103267904D02*
X64469047Y-103291714D01*
X64469047Y-103291714D02*
X64492856Y-103339333D01*
X64492856Y-103339333D02*
X64492856Y-103434571D01*
X64492856Y-103434571D02*
X64469047Y-103482190D01*
X64469047Y-103482190D02*
X64445237Y-103506000D01*
X64445237Y-103506000D02*
X64397618Y-103529809D01*
X64397618Y-103529809D02*
X64302380Y-103529809D01*
X64302380Y-103529809D02*
X64254761Y-103506000D01*
X64254761Y-103506000D02*
X64230952Y-103482190D01*
X64230952Y-103482190D02*
X64207142Y-103434571D01*
X64207142Y-103434571D02*
X64207142Y-103339333D01*
X64207142Y-103339333D02*
X64230952Y-103291714D01*
X64230952Y-103291714D02*
X64254761Y-103267904D01*
X64254761Y-103267904D02*
X64302380Y-103244095D01*
X64583333Y-108877190D02*
X64607142Y-108901000D01*
X64607142Y-108901000D02*
X64678571Y-108924809D01*
X64678571Y-108924809D02*
X64726190Y-108924809D01*
X64726190Y-108924809D02*
X64797618Y-108901000D01*
X64797618Y-108901000D02*
X64845237Y-108853380D01*
X64845237Y-108853380D02*
X64869047Y-108805761D01*
X64869047Y-108805761D02*
X64892856Y-108710523D01*
X64892856Y-108710523D02*
X64892856Y-108639095D01*
X64892856Y-108639095D02*
X64869047Y-108543857D01*
X64869047Y-108543857D02*
X64845237Y-108496238D01*
X64845237Y-108496238D02*
X64797618Y-108448619D01*
X64797618Y-108448619D02*
X64726190Y-108424809D01*
X64726190Y-108424809D02*
X64678571Y-108424809D01*
X64678571Y-108424809D02*
X64607142Y-108448619D01*
X64607142Y-108448619D02*
X64583333Y-108472428D01*
X64416666Y-108424809D02*
X64083333Y-108424809D01*
X64083333Y-108424809D02*
X64297618Y-108924809D01*
D12*
X44978000Y-103850000D02*
X44178000Y-103850000D01*
X44978000Y-103950000D02*
X44978000Y-103850000D01*
X44178000Y-103850000D02*
X44178000Y-103950000D01*
X31560000Y-110062500D02*
X31560000Y-109412500D01*
X28440000Y-110062500D02*
X28440000Y-109412500D01*
X31560000Y-110062500D02*
X31560000Y-111737500D01*
X28440000Y-110062500D02*
X28440000Y-110712500D01*
X78760000Y-103800000D02*
X78760000Y-101850000D01*
X73640000Y-103800000D02*
X73640000Y-101850000D01*
X78760000Y-103800000D02*
X78760000Y-107250000D01*
X73640000Y-103800000D02*
X73640000Y-105750000D01*
X44570164Y-102340000D02*
X44785836Y-102340000D01*
X44570164Y-103060000D02*
X44785836Y-103060000D01*
X61978000Y-102250000D02*
X45978000Y-102250000D01*
X61978000Y-112750000D02*
X61978000Y-102250000D01*
X45978000Y-102250000D02*
X45978000Y-112750000D01*
X45978000Y-112750000D02*
X61978000Y-112750000D01*
X61302264Y-103150000D02*
G75*
G03*
X61302264Y-103150000I-212132J0D01*
G01*
X40970164Y-102551000D02*
X41185836Y-102551000D01*
X40970164Y-103271000D02*
X41185836Y-103271000D01*
X84400000Y-113160000D02*
X83000000Y-113160000D01*
X83000000Y-110840000D02*
X84900000Y-110840000D01*
X43388000Y-103510221D02*
X43388000Y-103835779D01*
X42368000Y-103510221D02*
X42368000Y-103835779D01*
X62640000Y-113307836D02*
X62640000Y-113092164D01*
X63360000Y-113307836D02*
X63360000Y-113092164D01*
X61153641Y-100895000D02*
X60846359Y-100895000D01*
X61153641Y-101655000D02*
X60846359Y-101655000D01*
X85640000Y-111632836D02*
X85640000Y-111417164D01*
X86360000Y-111632836D02*
X86360000Y-111417164D01*
X63615000Y-113307836D02*
X63615000Y-113092164D01*
X64335000Y-113307836D02*
X64335000Y-113092164D01*
D11*
X87600000Y-101145000D02*
X99000000Y-101145000D01*
X87600000Y-101145000D02*
X87600000Y-113745000D01*
X99000000Y-101145000D02*
X99000000Y-107545000D01*
X99000000Y-107345000D02*
X99000000Y-113745000D01*
X99000000Y-113745000D02*
X87600000Y-113745000D01*
D12*
X62840000Y-101907836D02*
X62840000Y-101692164D01*
X63560000Y-101907836D02*
X63560000Y-101692164D01*
X36002000Y-104411000D02*
X36202000Y-104411000D01*
X39002000Y-101611000D02*
X38802000Y-101411000D01*
X36202000Y-101411000D02*
X36002000Y-101411000D01*
X36002000Y-101411000D02*
X36002000Y-102211000D01*
X39002000Y-102211000D02*
X39002000Y-101611000D01*
X36002000Y-103611000D02*
X36002000Y-104411000D01*
X39002000Y-104411000D02*
X39002000Y-103611000D01*
X38802000Y-104411000D02*
X39002000Y-104411000D01*
X39002000Y-102211000D02*
X39502000Y-102211000D01*
X39002000Y-103611000D02*
X39502000Y-103611000D01*
X63118000Y-107412836D02*
X63118000Y-107197164D01*
X63838000Y-107412836D02*
X63838000Y-107197164D01*
X64560000Y-101692164D02*
X64560000Y-101907836D01*
X63840000Y-101692164D02*
X63840000Y-101907836D01*
X41478000Y-109500000D02*
X41678000Y-109500000D01*
X44478000Y-106700000D02*
X44278000Y-106500000D01*
X41678000Y-106500000D02*
X41478000Y-106500000D01*
X41478000Y-106500000D02*
X41478000Y-107300000D01*
X44478000Y-107300000D02*
X44478000Y-106700000D01*
X41478000Y-108700000D02*
X41478000Y-109500000D01*
X44478000Y-109500000D02*
X44478000Y-108700000D01*
X44278000Y-109500000D02*
X44478000Y-109500000D01*
X44478000Y-107300000D02*
X44978000Y-107300000D01*
X44478000Y-108700000D02*
X44978000Y-108700000D01*
X63118000Y-109287836D02*
X63118000Y-109072164D01*
X63838000Y-109287836D02*
X63838000Y-109072164D01*
M02*
