%TF.GenerationSoftware,KiCad,Pcbnew,7.0.6*%
%TF.CreationDate,2024-02-20T15:34:10+11:00*%
%TF.ProjectId,image_light,696d6167-655f-46c6-9967-68742e6b6963,rev?*%
%TF.SameCoordinates,Original*%
%TF.FileFunction,Legend,Top*%
%TF.FilePolarity,Positive*%
%FSLAX46Y46*%
G04 Gerber Fmt 4.6, Leading zero omitted, Abs format (unit mm)*
G04 Created by KiCad (PCBNEW 7.0.6) date 2024-02-20 15:34:10*
%MOMM*%
%LPD*%
G01*
G04 APERTURE LIST*
%ADD10C,0.150000*%
%ADD11C,0.120000*%
G04 APERTURE END LIST*
D10*
X97860588Y-104917438D02*
X97765350Y-104869819D01*
X97765350Y-104869819D02*
X97622493Y-104869819D01*
X97622493Y-104869819D02*
X97479636Y-104917438D01*
X97479636Y-104917438D02*
X97384398Y-105012676D01*
X97384398Y-105012676D02*
X97336779Y-105107914D01*
X97336779Y-105107914D02*
X97289160Y-105298390D01*
X97289160Y-105298390D02*
X97289160Y-105441247D01*
X97289160Y-105441247D02*
X97336779Y-105631723D01*
X97336779Y-105631723D02*
X97384398Y-105726961D01*
X97384398Y-105726961D02*
X97479636Y-105822200D01*
X97479636Y-105822200D02*
X97622493Y-105869819D01*
X97622493Y-105869819D02*
X97717731Y-105869819D01*
X97717731Y-105869819D02*
X97860588Y-105822200D01*
X97860588Y-105822200D02*
X97908207Y-105774580D01*
X97908207Y-105774580D02*
X97908207Y-105441247D01*
X97908207Y-105441247D02*
X97717731Y-105441247D01*
X98336779Y-105869819D02*
X98336779Y-104869819D01*
X98336779Y-104869819D02*
X98908207Y-105869819D01*
X98908207Y-105869819D02*
X98908207Y-104869819D01*
X99384398Y-105869819D02*
X99384398Y-104869819D01*
X99384398Y-104869819D02*
X99622493Y-104869819D01*
X99622493Y-104869819D02*
X99765350Y-104917438D01*
X99765350Y-104917438D02*
X99860588Y-105012676D01*
X99860588Y-105012676D02*
X99908207Y-105107914D01*
X99908207Y-105107914D02*
X99955826Y-105298390D01*
X99955826Y-105298390D02*
X99955826Y-105441247D01*
X99955826Y-105441247D02*
X99908207Y-105631723D01*
X99908207Y-105631723D02*
X99860588Y-105726961D01*
X99860588Y-105726961D02*
X99765350Y-105822200D01*
X99765350Y-105822200D02*
X99622493Y-105869819D01*
X99622493Y-105869819D02*
X99384398Y-105869819D01*
X96860588Y-101917438D02*
X96765350Y-101869819D01*
X96765350Y-101869819D02*
X96622493Y-101869819D01*
X96622493Y-101869819D02*
X96479636Y-101917438D01*
X96479636Y-101917438D02*
X96384398Y-102012676D01*
X96384398Y-102012676D02*
X96336779Y-102107914D01*
X96336779Y-102107914D02*
X96289160Y-102298390D01*
X96289160Y-102298390D02*
X96289160Y-102441247D01*
X96289160Y-102441247D02*
X96336779Y-102631723D01*
X96336779Y-102631723D02*
X96384398Y-102726961D01*
X96384398Y-102726961D02*
X96479636Y-102822200D01*
X96479636Y-102822200D02*
X96622493Y-102869819D01*
X96622493Y-102869819D02*
X96717731Y-102869819D01*
X96717731Y-102869819D02*
X96860588Y-102822200D01*
X96860588Y-102822200D02*
X96908207Y-102774580D01*
X96908207Y-102774580D02*
X96908207Y-102441247D01*
X96908207Y-102441247D02*
X96717731Y-102441247D01*
X97289160Y-102584104D02*
X97765350Y-102584104D01*
X97193922Y-102869819D02*
X97527255Y-101869819D01*
X97527255Y-101869819D02*
X97860588Y-102869819D01*
X98051065Y-101869819D02*
X98622493Y-101869819D01*
X98336779Y-102869819D02*
X98336779Y-101869819D01*
X98955827Y-102346009D02*
X99289160Y-102346009D01*
X99432017Y-102869819D02*
X98955827Y-102869819D01*
X98955827Y-102869819D02*
X98955827Y-101869819D01*
X98955827Y-101869819D02*
X99432017Y-101869819D01*
X97193922Y-98869819D02*
X97527255Y-99869819D01*
X97527255Y-99869819D02*
X97860588Y-98869819D01*
X98193922Y-99869819D02*
X98193922Y-98869819D01*
X98193922Y-98869819D02*
X98574874Y-98869819D01*
X98574874Y-98869819D02*
X98670112Y-98917438D01*
X98670112Y-98917438D02*
X98717731Y-98965057D01*
X98717731Y-98965057D02*
X98765350Y-99060295D01*
X98765350Y-99060295D02*
X98765350Y-99203152D01*
X98765350Y-99203152D02*
X98717731Y-99298390D01*
X98717731Y-99298390D02*
X98670112Y-99346009D01*
X98670112Y-99346009D02*
X98574874Y-99393628D01*
X98574874Y-99393628D02*
X98193922Y-99393628D01*
X99193922Y-99869819D02*
X99193922Y-98869819D01*
X99193922Y-98869819D02*
X99574874Y-98869819D01*
X99574874Y-98869819D02*
X99670112Y-98917438D01*
X99670112Y-98917438D02*
X99717731Y-98965057D01*
X99717731Y-98965057D02*
X99765350Y-99060295D01*
X99765350Y-99060295D02*
X99765350Y-99203152D01*
X99765350Y-99203152D02*
X99717731Y-99298390D01*
X99717731Y-99298390D02*
X99670112Y-99346009D01*
X99670112Y-99346009D02*
X99574874Y-99393628D01*
X99574874Y-99393628D02*
X99193922Y-99393628D01*
X121454819Y-104746666D02*
X120978628Y-105079999D01*
X121454819Y-105318094D02*
X120454819Y-105318094D01*
X120454819Y-105318094D02*
X120454819Y-104937142D01*
X120454819Y-104937142D02*
X120502438Y-104841904D01*
X120502438Y-104841904D02*
X120550057Y-104794285D01*
X120550057Y-104794285D02*
X120645295Y-104746666D01*
X120645295Y-104746666D02*
X120788152Y-104746666D01*
X120788152Y-104746666D02*
X120883390Y-104794285D01*
X120883390Y-104794285D02*
X120931009Y-104841904D01*
X120931009Y-104841904D02*
X120978628Y-104937142D01*
X120978628Y-104937142D02*
X120978628Y-105318094D01*
X120454819Y-104413332D02*
X120454819Y-103794285D01*
X120454819Y-103794285D02*
X120835771Y-104127618D01*
X120835771Y-104127618D02*
X120835771Y-103984761D01*
X120835771Y-103984761D02*
X120883390Y-103889523D01*
X120883390Y-103889523D02*
X120931009Y-103841904D01*
X120931009Y-103841904D02*
X121026247Y-103794285D01*
X121026247Y-103794285D02*
X121264342Y-103794285D01*
X121264342Y-103794285D02*
X121359580Y-103841904D01*
X121359580Y-103841904D02*
X121407200Y-103889523D01*
X121407200Y-103889523D02*
X121454819Y-103984761D01*
X121454819Y-103984761D02*
X121454819Y-104270475D01*
X121454819Y-104270475D02*
X121407200Y-104365713D01*
X121407200Y-104365713D02*
X121359580Y-104413332D01*
X117454819Y-104746666D02*
X116978628Y-105079999D01*
X117454819Y-105318094D02*
X116454819Y-105318094D01*
X116454819Y-105318094D02*
X116454819Y-104937142D01*
X116454819Y-104937142D02*
X116502438Y-104841904D01*
X116502438Y-104841904D02*
X116550057Y-104794285D01*
X116550057Y-104794285D02*
X116645295Y-104746666D01*
X116645295Y-104746666D02*
X116788152Y-104746666D01*
X116788152Y-104746666D02*
X116883390Y-104794285D01*
X116883390Y-104794285D02*
X116931009Y-104841904D01*
X116931009Y-104841904D02*
X116978628Y-104937142D01*
X116978628Y-104937142D02*
X116978628Y-105318094D01*
X116550057Y-104365713D02*
X116502438Y-104318094D01*
X116502438Y-104318094D02*
X116454819Y-104222856D01*
X116454819Y-104222856D02*
X116454819Y-103984761D01*
X116454819Y-103984761D02*
X116502438Y-103889523D01*
X116502438Y-103889523D02*
X116550057Y-103841904D01*
X116550057Y-103841904D02*
X116645295Y-103794285D01*
X116645295Y-103794285D02*
X116740533Y-103794285D01*
X116740533Y-103794285D02*
X116883390Y-103841904D01*
X116883390Y-103841904D02*
X117454819Y-104413332D01*
X117454819Y-104413332D02*
X117454819Y-103794285D01*
X113704819Y-104746666D02*
X113228628Y-105079999D01*
X113704819Y-105318094D02*
X112704819Y-105318094D01*
X112704819Y-105318094D02*
X112704819Y-104937142D01*
X112704819Y-104937142D02*
X112752438Y-104841904D01*
X112752438Y-104841904D02*
X112800057Y-104794285D01*
X112800057Y-104794285D02*
X112895295Y-104746666D01*
X112895295Y-104746666D02*
X113038152Y-104746666D01*
X113038152Y-104746666D02*
X113133390Y-104794285D01*
X113133390Y-104794285D02*
X113181009Y-104841904D01*
X113181009Y-104841904D02*
X113228628Y-104937142D01*
X113228628Y-104937142D02*
X113228628Y-105318094D01*
X113704819Y-103794285D02*
X113704819Y-104365713D01*
X113704819Y-104079999D02*
X112704819Y-104079999D01*
X112704819Y-104079999D02*
X112847676Y-104175237D01*
X112847676Y-104175237D02*
X112942914Y-104270475D01*
X112942914Y-104270475D02*
X112990533Y-104365713D01*
X109904761Y-102200057D02*
X109809523Y-102152438D01*
X109809523Y-102152438D02*
X109714285Y-102057200D01*
X109714285Y-102057200D02*
X109571428Y-101914342D01*
X109571428Y-101914342D02*
X109476190Y-101866723D01*
X109476190Y-101866723D02*
X109380952Y-101866723D01*
X109428571Y-102104819D02*
X109333333Y-102057200D01*
X109333333Y-102057200D02*
X109238095Y-101961961D01*
X109238095Y-101961961D02*
X109190476Y-101771485D01*
X109190476Y-101771485D02*
X109190476Y-101438152D01*
X109190476Y-101438152D02*
X109238095Y-101247676D01*
X109238095Y-101247676D02*
X109333333Y-101152438D01*
X109333333Y-101152438D02*
X109428571Y-101104819D01*
X109428571Y-101104819D02*
X109619047Y-101104819D01*
X109619047Y-101104819D02*
X109714285Y-101152438D01*
X109714285Y-101152438D02*
X109809523Y-101247676D01*
X109809523Y-101247676D02*
X109857142Y-101438152D01*
X109857142Y-101438152D02*
X109857142Y-101771485D01*
X109857142Y-101771485D02*
X109809523Y-101961961D01*
X109809523Y-101961961D02*
X109714285Y-102057200D01*
X109714285Y-102057200D02*
X109619047Y-102104819D01*
X109619047Y-102104819D02*
X109428571Y-102104819D01*
X110809523Y-102104819D02*
X110238095Y-102104819D01*
X110523809Y-102104819D02*
X110523809Y-101104819D01*
X110523809Y-101104819D02*
X110428571Y-101247676D01*
X110428571Y-101247676D02*
X110333333Y-101342914D01*
X110333333Y-101342914D02*
X110238095Y-101390533D01*
X121454819Y-101738094D02*
X120454819Y-101738094D01*
X120454819Y-101738094D02*
X120454819Y-101499999D01*
X120454819Y-101499999D02*
X120502438Y-101357142D01*
X120502438Y-101357142D02*
X120597676Y-101261904D01*
X120597676Y-101261904D02*
X120692914Y-101214285D01*
X120692914Y-101214285D02*
X120883390Y-101166666D01*
X120883390Y-101166666D02*
X121026247Y-101166666D01*
X121026247Y-101166666D02*
X121216723Y-101214285D01*
X121216723Y-101214285D02*
X121311961Y-101261904D01*
X121311961Y-101261904D02*
X121407200Y-101357142D01*
X121407200Y-101357142D02*
X121454819Y-101499999D01*
X121454819Y-101499999D02*
X121454819Y-101738094D01*
X120454819Y-100833332D02*
X120454819Y-100214285D01*
X120454819Y-100214285D02*
X120835771Y-100547618D01*
X120835771Y-100547618D02*
X120835771Y-100404761D01*
X120835771Y-100404761D02*
X120883390Y-100309523D01*
X120883390Y-100309523D02*
X120931009Y-100261904D01*
X120931009Y-100261904D02*
X121026247Y-100214285D01*
X121026247Y-100214285D02*
X121264342Y-100214285D01*
X121264342Y-100214285D02*
X121359580Y-100261904D01*
X121359580Y-100261904D02*
X121407200Y-100309523D01*
X121407200Y-100309523D02*
X121454819Y-100404761D01*
X121454819Y-100404761D02*
X121454819Y-100690475D01*
X121454819Y-100690475D02*
X121407200Y-100785713D01*
X121407200Y-100785713D02*
X121359580Y-100833332D01*
X117454819Y-101738094D02*
X116454819Y-101738094D01*
X116454819Y-101738094D02*
X116454819Y-101499999D01*
X116454819Y-101499999D02*
X116502438Y-101357142D01*
X116502438Y-101357142D02*
X116597676Y-101261904D01*
X116597676Y-101261904D02*
X116692914Y-101214285D01*
X116692914Y-101214285D02*
X116883390Y-101166666D01*
X116883390Y-101166666D02*
X117026247Y-101166666D01*
X117026247Y-101166666D02*
X117216723Y-101214285D01*
X117216723Y-101214285D02*
X117311961Y-101261904D01*
X117311961Y-101261904D02*
X117407200Y-101357142D01*
X117407200Y-101357142D02*
X117454819Y-101499999D01*
X117454819Y-101499999D02*
X117454819Y-101738094D01*
X116550057Y-100785713D02*
X116502438Y-100738094D01*
X116502438Y-100738094D02*
X116454819Y-100642856D01*
X116454819Y-100642856D02*
X116454819Y-100404761D01*
X116454819Y-100404761D02*
X116502438Y-100309523D01*
X116502438Y-100309523D02*
X116550057Y-100261904D01*
X116550057Y-100261904D02*
X116645295Y-100214285D01*
X116645295Y-100214285D02*
X116740533Y-100214285D01*
X116740533Y-100214285D02*
X116883390Y-100261904D01*
X116883390Y-100261904D02*
X117454819Y-100833332D01*
X117454819Y-100833332D02*
X117454819Y-100214285D01*
X113704819Y-101738094D02*
X112704819Y-101738094D01*
X112704819Y-101738094D02*
X112704819Y-101499999D01*
X112704819Y-101499999D02*
X112752438Y-101357142D01*
X112752438Y-101357142D02*
X112847676Y-101261904D01*
X112847676Y-101261904D02*
X112942914Y-101214285D01*
X112942914Y-101214285D02*
X113133390Y-101166666D01*
X113133390Y-101166666D02*
X113276247Y-101166666D01*
X113276247Y-101166666D02*
X113466723Y-101214285D01*
X113466723Y-101214285D02*
X113561961Y-101261904D01*
X113561961Y-101261904D02*
X113657200Y-101357142D01*
X113657200Y-101357142D02*
X113704819Y-101499999D01*
X113704819Y-101499999D02*
X113704819Y-101738094D01*
X113704819Y-100214285D02*
X113704819Y-100785713D01*
X113704819Y-100499999D02*
X112704819Y-100499999D01*
X112704819Y-100499999D02*
X112847676Y-100595237D01*
X112847676Y-100595237D02*
X112942914Y-100690475D01*
X112942914Y-100690475D02*
X112990533Y-100785713D01*
D11*
%TO.C,J1*%
X103330000Y-103810000D02*
X100670000Y-103810000D01*
X103330000Y-106410000D02*
X102000000Y-106410000D01*
X100670000Y-103810000D02*
X100670000Y-98670000D01*
X103330000Y-105080000D02*
X103330000Y-106410000D01*
X103330000Y-103810000D02*
X103330000Y-98670000D01*
X103330000Y-98670000D02*
X100670000Y-98670000D01*
%TO.C,R3*%
X123735000Y-104352936D02*
X123735000Y-104807064D01*
X122265000Y-104352936D02*
X122265000Y-104807064D01*
%TO.C,R2*%
X119735000Y-104352936D02*
X119735000Y-104807064D01*
X118265000Y-104352936D02*
X118265000Y-104807064D01*
%TO.C,R1*%
X115985000Y-104352936D02*
X115985000Y-104807064D01*
X114515000Y-104352936D02*
X114515000Y-104807064D01*
%TO.C,Q1*%
X110000000Y-102490000D02*
X110650000Y-102490000D01*
X110000000Y-105610000D02*
X110650000Y-105610000D01*
X110000000Y-102490000D02*
X108325000Y-102490000D01*
X110000000Y-105610000D02*
X109350000Y-105610000D01*
%TO.C,JP1*%
X107000000Y-101600000D02*
X107000000Y-104400000D01*
X106300000Y-105050000D02*
X105700000Y-105050000D01*
X105700000Y-100950000D02*
X106300000Y-100950000D01*
X105000000Y-104400000D02*
X105000000Y-101600000D01*
X105000000Y-104350000D02*
G75*
G03*
X105700000Y-105050000I699999J-1D01*
G01*
X105700000Y-100950000D02*
G75*
G03*
X105000000Y-101650000I0J-700000D01*
G01*
X106300000Y-105050000D02*
G75*
G03*
X107000000Y-104350000I1J699999D01*
G01*
X107000000Y-101650000D02*
G75*
G03*
X106300000Y-100950000I-700000J0D01*
G01*
%TO.C,D3*%
X122000000Y-99680000D02*
X122000000Y-101380000D01*
X124000000Y-99680000D02*
X124000000Y-101380000D01*
%TO.C,D2*%
X118000000Y-99680000D02*
X118000000Y-101380000D01*
X120000000Y-99680000D02*
X120000000Y-101380000D01*
%TO.C,D1*%
X116250000Y-99680000D02*
X116250000Y-101380000D01*
X114250000Y-99680000D02*
X114250000Y-101380000D01*
%TD*%
M02*
