%TF.GenerationSoftware,KiCad,Pcbnew,7.0.6*%
%TF.CreationDate,2024-02-20T16:09:52+11:00*%
%TF.ProjectId,image_light,696d6167-655f-46c6-9967-68742e6b6963,rev?*%
%TF.SameCoordinates,Original*%
%TF.FileFunction,Legend,Top*%
%TF.FilePolarity,Positive*%
%FSLAX46Y46*%
G04 Gerber Fmt 4.6, Leading zero omitted, Abs format (unit mm)*
G04 Created by KiCad (PCBNEW 7.0.6) date 2024-02-20 16:09:52*
%MOMM*%
%LPD*%
G01*
G04 APERTURE LIST*
%ADD10C,0.150000*%
%ADD11C,0.120000*%
G04 APERTURE END LIST*
D10*
X96065601Y-104502438D02*
X95970363Y-104454819D01*
X95970363Y-104454819D02*
X95827506Y-104454819D01*
X95827506Y-104454819D02*
X95684649Y-104502438D01*
X95684649Y-104502438D02*
X95589411Y-104597676D01*
X95589411Y-104597676D02*
X95541792Y-104692914D01*
X95541792Y-104692914D02*
X95494173Y-104883390D01*
X95494173Y-104883390D02*
X95494173Y-105026247D01*
X95494173Y-105026247D02*
X95541792Y-105216723D01*
X95541792Y-105216723D02*
X95589411Y-105311961D01*
X95589411Y-105311961D02*
X95684649Y-105407200D01*
X95684649Y-105407200D02*
X95827506Y-105454819D01*
X95827506Y-105454819D02*
X95922744Y-105454819D01*
X95922744Y-105454819D02*
X96065601Y-105407200D01*
X96065601Y-105407200D02*
X96113220Y-105359580D01*
X96113220Y-105359580D02*
X96113220Y-105026247D01*
X96113220Y-105026247D02*
X95922744Y-105026247D01*
X96541792Y-105454819D02*
X96541792Y-104454819D01*
X96541792Y-104454819D02*
X97113220Y-105454819D01*
X97113220Y-105454819D02*
X97113220Y-104454819D01*
X97589411Y-105454819D02*
X97589411Y-104454819D01*
X97589411Y-104454819D02*
X97827506Y-104454819D01*
X97827506Y-104454819D02*
X97970363Y-104502438D01*
X97970363Y-104502438D02*
X98065601Y-104597676D01*
X98065601Y-104597676D02*
X98113220Y-104692914D01*
X98113220Y-104692914D02*
X98160839Y-104883390D01*
X98160839Y-104883390D02*
X98160839Y-105026247D01*
X98160839Y-105026247D02*
X98113220Y-105216723D01*
X98113220Y-105216723D02*
X98065601Y-105311961D01*
X98065601Y-105311961D02*
X97970363Y-105407200D01*
X97970363Y-105407200D02*
X97827506Y-105454819D01*
X97827506Y-105454819D02*
X97589411Y-105454819D01*
X95589410Y-102002438D02*
X95494172Y-101954819D01*
X95494172Y-101954819D02*
X95351315Y-101954819D01*
X95351315Y-101954819D02*
X95208458Y-102002438D01*
X95208458Y-102002438D02*
X95113220Y-102097676D01*
X95113220Y-102097676D02*
X95065601Y-102192914D01*
X95065601Y-102192914D02*
X95017982Y-102383390D01*
X95017982Y-102383390D02*
X95017982Y-102526247D01*
X95017982Y-102526247D02*
X95065601Y-102716723D01*
X95065601Y-102716723D02*
X95113220Y-102811961D01*
X95113220Y-102811961D02*
X95208458Y-102907200D01*
X95208458Y-102907200D02*
X95351315Y-102954819D01*
X95351315Y-102954819D02*
X95446553Y-102954819D01*
X95446553Y-102954819D02*
X95589410Y-102907200D01*
X95589410Y-102907200D02*
X95637029Y-102859580D01*
X95637029Y-102859580D02*
X95637029Y-102526247D01*
X95637029Y-102526247D02*
X95446553Y-102526247D01*
X96017982Y-102669104D02*
X96494172Y-102669104D01*
X95922744Y-102954819D02*
X96256077Y-101954819D01*
X96256077Y-101954819D02*
X96589410Y-102954819D01*
X96779887Y-101954819D02*
X97351315Y-101954819D01*
X97065601Y-102954819D02*
X97065601Y-101954819D01*
X97684649Y-102431009D02*
X98017982Y-102431009D01*
X98160839Y-102954819D02*
X97684649Y-102954819D01*
X97684649Y-102954819D02*
X97684649Y-101954819D01*
X97684649Y-101954819D02*
X98160839Y-101954819D01*
X95589411Y-99454819D02*
X95922744Y-100454819D01*
X95922744Y-100454819D02*
X96256077Y-99454819D01*
X96589411Y-100454819D02*
X96589411Y-99454819D01*
X96589411Y-99454819D02*
X96970363Y-99454819D01*
X96970363Y-99454819D02*
X97065601Y-99502438D01*
X97065601Y-99502438D02*
X97113220Y-99550057D01*
X97113220Y-99550057D02*
X97160839Y-99645295D01*
X97160839Y-99645295D02*
X97160839Y-99788152D01*
X97160839Y-99788152D02*
X97113220Y-99883390D01*
X97113220Y-99883390D02*
X97065601Y-99931009D01*
X97065601Y-99931009D02*
X96970363Y-99978628D01*
X96970363Y-99978628D02*
X96589411Y-99978628D01*
X97589411Y-100454819D02*
X97589411Y-99454819D01*
X97589411Y-99454819D02*
X97970363Y-99454819D01*
X97970363Y-99454819D02*
X98065601Y-99502438D01*
X98065601Y-99502438D02*
X98113220Y-99550057D01*
X98113220Y-99550057D02*
X98160839Y-99645295D01*
X98160839Y-99645295D02*
X98160839Y-99788152D01*
X98160839Y-99788152D02*
X98113220Y-99883390D01*
X98113220Y-99883390D02*
X98065601Y-99931009D01*
X98065601Y-99931009D02*
X97970363Y-99978628D01*
X97970363Y-99978628D02*
X97589411Y-99978628D01*
X121954819Y-104746666D02*
X121478628Y-105079999D01*
X121954819Y-105318094D02*
X120954819Y-105318094D01*
X120954819Y-105318094D02*
X120954819Y-104937142D01*
X120954819Y-104937142D02*
X121002438Y-104841904D01*
X121002438Y-104841904D02*
X121050057Y-104794285D01*
X121050057Y-104794285D02*
X121145295Y-104746666D01*
X121145295Y-104746666D02*
X121288152Y-104746666D01*
X121288152Y-104746666D02*
X121383390Y-104794285D01*
X121383390Y-104794285D02*
X121431009Y-104841904D01*
X121431009Y-104841904D02*
X121478628Y-104937142D01*
X121478628Y-104937142D02*
X121478628Y-105318094D01*
X120954819Y-104413332D02*
X120954819Y-103794285D01*
X120954819Y-103794285D02*
X121335771Y-104127618D01*
X121335771Y-104127618D02*
X121335771Y-103984761D01*
X121335771Y-103984761D02*
X121383390Y-103889523D01*
X121383390Y-103889523D02*
X121431009Y-103841904D01*
X121431009Y-103841904D02*
X121526247Y-103794285D01*
X121526247Y-103794285D02*
X121764342Y-103794285D01*
X121764342Y-103794285D02*
X121859580Y-103841904D01*
X121859580Y-103841904D02*
X121907200Y-103889523D01*
X121907200Y-103889523D02*
X121954819Y-103984761D01*
X121954819Y-103984761D02*
X121954819Y-104270475D01*
X121954819Y-104270475D02*
X121907200Y-104365713D01*
X121907200Y-104365713D02*
X121859580Y-104413332D01*
X117954819Y-104746666D02*
X117478628Y-105079999D01*
X117954819Y-105318094D02*
X116954819Y-105318094D01*
X116954819Y-105318094D02*
X116954819Y-104937142D01*
X116954819Y-104937142D02*
X117002438Y-104841904D01*
X117002438Y-104841904D02*
X117050057Y-104794285D01*
X117050057Y-104794285D02*
X117145295Y-104746666D01*
X117145295Y-104746666D02*
X117288152Y-104746666D01*
X117288152Y-104746666D02*
X117383390Y-104794285D01*
X117383390Y-104794285D02*
X117431009Y-104841904D01*
X117431009Y-104841904D02*
X117478628Y-104937142D01*
X117478628Y-104937142D02*
X117478628Y-105318094D01*
X117050057Y-104365713D02*
X117002438Y-104318094D01*
X117002438Y-104318094D02*
X116954819Y-104222856D01*
X116954819Y-104222856D02*
X116954819Y-103984761D01*
X116954819Y-103984761D02*
X117002438Y-103889523D01*
X117002438Y-103889523D02*
X117050057Y-103841904D01*
X117050057Y-103841904D02*
X117145295Y-103794285D01*
X117145295Y-103794285D02*
X117240533Y-103794285D01*
X117240533Y-103794285D02*
X117383390Y-103841904D01*
X117383390Y-103841904D02*
X117954819Y-104413332D01*
X117954819Y-104413332D02*
X117954819Y-103794285D01*
X111954819Y-104746666D02*
X111478628Y-105079999D01*
X111954819Y-105318094D02*
X110954819Y-105318094D01*
X110954819Y-105318094D02*
X110954819Y-104937142D01*
X110954819Y-104937142D02*
X111002438Y-104841904D01*
X111002438Y-104841904D02*
X111050057Y-104794285D01*
X111050057Y-104794285D02*
X111145295Y-104746666D01*
X111145295Y-104746666D02*
X111288152Y-104746666D01*
X111288152Y-104746666D02*
X111383390Y-104794285D01*
X111383390Y-104794285D02*
X111431009Y-104841904D01*
X111431009Y-104841904D02*
X111478628Y-104937142D01*
X111478628Y-104937142D02*
X111478628Y-105318094D01*
X111954819Y-103794285D02*
X111954819Y-104365713D01*
X111954819Y-104079999D02*
X110954819Y-104079999D01*
X110954819Y-104079999D02*
X111097676Y-104175237D01*
X111097676Y-104175237D02*
X111192914Y-104270475D01*
X111192914Y-104270475D02*
X111240533Y-104365713D01*
X108354761Y-102200057D02*
X108259523Y-102152438D01*
X108259523Y-102152438D02*
X108164285Y-102057200D01*
X108164285Y-102057200D02*
X108021428Y-101914342D01*
X108021428Y-101914342D02*
X107926190Y-101866723D01*
X107926190Y-101866723D02*
X107830952Y-101866723D01*
X107878571Y-102104819D02*
X107783333Y-102057200D01*
X107783333Y-102057200D02*
X107688095Y-101961961D01*
X107688095Y-101961961D02*
X107640476Y-101771485D01*
X107640476Y-101771485D02*
X107640476Y-101438152D01*
X107640476Y-101438152D02*
X107688095Y-101247676D01*
X107688095Y-101247676D02*
X107783333Y-101152438D01*
X107783333Y-101152438D02*
X107878571Y-101104819D01*
X107878571Y-101104819D02*
X108069047Y-101104819D01*
X108069047Y-101104819D02*
X108164285Y-101152438D01*
X108164285Y-101152438D02*
X108259523Y-101247676D01*
X108259523Y-101247676D02*
X108307142Y-101438152D01*
X108307142Y-101438152D02*
X108307142Y-101771485D01*
X108307142Y-101771485D02*
X108259523Y-101961961D01*
X108259523Y-101961961D02*
X108164285Y-102057200D01*
X108164285Y-102057200D02*
X108069047Y-102104819D01*
X108069047Y-102104819D02*
X107878571Y-102104819D01*
X109259523Y-102104819D02*
X108688095Y-102104819D01*
X108973809Y-102104819D02*
X108973809Y-101104819D01*
X108973809Y-101104819D02*
X108878571Y-101247676D01*
X108878571Y-101247676D02*
X108783333Y-101342914D01*
X108783333Y-101342914D02*
X108688095Y-101390533D01*
X121954819Y-101738094D02*
X120954819Y-101738094D01*
X120954819Y-101738094D02*
X120954819Y-101499999D01*
X120954819Y-101499999D02*
X121002438Y-101357142D01*
X121002438Y-101357142D02*
X121097676Y-101261904D01*
X121097676Y-101261904D02*
X121192914Y-101214285D01*
X121192914Y-101214285D02*
X121383390Y-101166666D01*
X121383390Y-101166666D02*
X121526247Y-101166666D01*
X121526247Y-101166666D02*
X121716723Y-101214285D01*
X121716723Y-101214285D02*
X121811961Y-101261904D01*
X121811961Y-101261904D02*
X121907200Y-101357142D01*
X121907200Y-101357142D02*
X121954819Y-101499999D01*
X121954819Y-101499999D02*
X121954819Y-101738094D01*
X120954819Y-100833332D02*
X120954819Y-100214285D01*
X120954819Y-100214285D02*
X121335771Y-100547618D01*
X121335771Y-100547618D02*
X121335771Y-100404761D01*
X121335771Y-100404761D02*
X121383390Y-100309523D01*
X121383390Y-100309523D02*
X121431009Y-100261904D01*
X121431009Y-100261904D02*
X121526247Y-100214285D01*
X121526247Y-100214285D02*
X121764342Y-100214285D01*
X121764342Y-100214285D02*
X121859580Y-100261904D01*
X121859580Y-100261904D02*
X121907200Y-100309523D01*
X121907200Y-100309523D02*
X121954819Y-100404761D01*
X121954819Y-100404761D02*
X121954819Y-100690475D01*
X121954819Y-100690475D02*
X121907200Y-100785713D01*
X121907200Y-100785713D02*
X121859580Y-100833332D01*
X117954819Y-101738094D02*
X116954819Y-101738094D01*
X116954819Y-101738094D02*
X116954819Y-101499999D01*
X116954819Y-101499999D02*
X117002438Y-101357142D01*
X117002438Y-101357142D02*
X117097676Y-101261904D01*
X117097676Y-101261904D02*
X117192914Y-101214285D01*
X117192914Y-101214285D02*
X117383390Y-101166666D01*
X117383390Y-101166666D02*
X117526247Y-101166666D01*
X117526247Y-101166666D02*
X117716723Y-101214285D01*
X117716723Y-101214285D02*
X117811961Y-101261904D01*
X117811961Y-101261904D02*
X117907200Y-101357142D01*
X117907200Y-101357142D02*
X117954819Y-101499999D01*
X117954819Y-101499999D02*
X117954819Y-101738094D01*
X117050057Y-100785713D02*
X117002438Y-100738094D01*
X117002438Y-100738094D02*
X116954819Y-100642856D01*
X116954819Y-100642856D02*
X116954819Y-100404761D01*
X116954819Y-100404761D02*
X117002438Y-100309523D01*
X117002438Y-100309523D02*
X117050057Y-100261904D01*
X117050057Y-100261904D02*
X117145295Y-100214285D01*
X117145295Y-100214285D02*
X117240533Y-100214285D01*
X117240533Y-100214285D02*
X117383390Y-100261904D01*
X117383390Y-100261904D02*
X117954819Y-100833332D01*
X117954819Y-100833332D02*
X117954819Y-100214285D01*
X111954819Y-101738094D02*
X110954819Y-101738094D01*
X110954819Y-101738094D02*
X110954819Y-101499999D01*
X110954819Y-101499999D02*
X111002438Y-101357142D01*
X111002438Y-101357142D02*
X111097676Y-101261904D01*
X111097676Y-101261904D02*
X111192914Y-101214285D01*
X111192914Y-101214285D02*
X111383390Y-101166666D01*
X111383390Y-101166666D02*
X111526247Y-101166666D01*
X111526247Y-101166666D02*
X111716723Y-101214285D01*
X111716723Y-101214285D02*
X111811961Y-101261904D01*
X111811961Y-101261904D02*
X111907200Y-101357142D01*
X111907200Y-101357142D02*
X111954819Y-101499999D01*
X111954819Y-101499999D02*
X111954819Y-101738094D01*
X111954819Y-100214285D02*
X111954819Y-100785713D01*
X111954819Y-100499999D02*
X110954819Y-100499999D01*
X110954819Y-100499999D02*
X111097676Y-100595237D01*
X111097676Y-100595237D02*
X111192914Y-100690475D01*
X111192914Y-100690475D02*
X111240533Y-100785713D01*
D11*
%TO.C,JP2*%
X117200000Y-100000000D02*
X115800000Y-100000000D01*
X115800000Y-98000000D02*
X117200000Y-98000000D01*
X115100000Y-99300000D02*
X115100000Y-98700000D01*
X117900000Y-98700000D02*
X117900000Y-99300000D01*
X115800000Y-98000000D02*
G75*
G03*
X115100000Y-98700000I-1J-699999D01*
G01*
X115100000Y-99300000D02*
G75*
G03*
X115800000Y-100000000I699999J-1D01*
G01*
X117200000Y-100000000D02*
G75*
G03*
X117900000Y-99300000I0J700000D01*
G01*
X117900000Y-98700000D02*
G75*
G03*
X117200000Y-98000000I-700000J0D01*
G01*
%TO.C,J1*%
X101780000Y-103810000D02*
X99120000Y-103810000D01*
X101780000Y-106410000D02*
X100450000Y-106410000D01*
X99120000Y-103810000D02*
X99120000Y-98670000D01*
X101780000Y-105080000D02*
X101780000Y-106410000D01*
X101780000Y-103810000D02*
X101780000Y-98670000D01*
X101780000Y-98670000D02*
X99120000Y-98670000D01*
%TO.C,R3*%
X123735000Y-104352936D02*
X123735000Y-104807064D01*
X122265000Y-104352936D02*
X122265000Y-104807064D01*
%TO.C,R2*%
X120235000Y-104352936D02*
X120235000Y-104807064D01*
X118765000Y-104352936D02*
X118765000Y-104807064D01*
%TO.C,R1*%
X112765000Y-104352936D02*
X112765000Y-104807064D01*
X114235000Y-104352936D02*
X114235000Y-104807064D01*
%TO.C,Q1*%
X108450000Y-102490000D02*
X109100000Y-102490000D01*
X108450000Y-105610000D02*
X109100000Y-105610000D01*
X108450000Y-102490000D02*
X106775000Y-102490000D01*
X108450000Y-105610000D02*
X107800000Y-105610000D01*
%TO.C,JP1*%
X105450000Y-101600000D02*
X105450000Y-104400000D01*
X104750000Y-105050000D02*
X104150000Y-105050000D01*
X104150000Y-100950000D02*
X104750000Y-100950000D01*
X103450000Y-104400000D02*
X103450000Y-101600000D01*
X103450000Y-104350000D02*
G75*
G03*
X104150000Y-105050000I699999J-1D01*
G01*
X104150000Y-100950000D02*
G75*
G03*
X103450000Y-101650000I0J-700000D01*
G01*
X104750000Y-105050000D02*
G75*
G03*
X105450000Y-104350000I1J699999D01*
G01*
X105450000Y-101650000D02*
G75*
G03*
X104750000Y-100950000I-700000J0D01*
G01*
%TO.C,D3*%
X122000000Y-99680000D02*
X122000000Y-101380000D01*
X124000000Y-99680000D02*
X124000000Y-101380000D01*
%TO.C,D2*%
X118500000Y-99680000D02*
X118500000Y-101380000D01*
X120500000Y-99680000D02*
X120500000Y-101380000D01*
%TO.C,D1*%
X112500000Y-99680000D02*
X112500000Y-101380000D01*
X114500000Y-99680000D02*
X114500000Y-101380000D01*
%TD*%
M02*
