%TF.GenerationSoftware,KiCad,Pcbnew,7.0.6*%
%TF.CreationDate,2024-02-20T16:09:52+11:00*%
%TF.ProjectId,image_light,696d6167-655f-46c6-9967-68742e6b6963,rev?*%
%TF.SameCoordinates,Original*%
%TF.FileFunction,Legend,Bot*%
%TF.FilePolarity,Positive*%
%FSLAX46Y46*%
G04 Gerber Fmt 4.6, Leading zero omitted, Abs format (unit mm)*
G04 Created by KiCad (PCBNEW 7.0.6) date 2024-02-20 16:09:52*
%MOMM*%
%LPD*%
G01*
G04 APERTURE LIST*
%ADD10C,0.150000*%
G04 APERTURE END LIST*
D10*
X98306077Y-99454819D02*
X97972744Y-100454819D01*
X97972744Y-100454819D02*
X97639411Y-99454819D01*
X97306077Y-100454819D02*
X97306077Y-99454819D01*
X97306077Y-99454819D02*
X96925125Y-99454819D01*
X96925125Y-99454819D02*
X96829887Y-99502438D01*
X96829887Y-99502438D02*
X96782268Y-99550057D01*
X96782268Y-99550057D02*
X96734649Y-99645295D01*
X96734649Y-99645295D02*
X96734649Y-99788152D01*
X96734649Y-99788152D02*
X96782268Y-99883390D01*
X96782268Y-99883390D02*
X96829887Y-99931009D01*
X96829887Y-99931009D02*
X96925125Y-99978628D01*
X96925125Y-99978628D02*
X97306077Y-99978628D01*
X96306077Y-100454819D02*
X96306077Y-99454819D01*
X96306077Y-99454819D02*
X95925125Y-99454819D01*
X95925125Y-99454819D02*
X95829887Y-99502438D01*
X95829887Y-99502438D02*
X95782268Y-99550057D01*
X95782268Y-99550057D02*
X95734649Y-99645295D01*
X95734649Y-99645295D02*
X95734649Y-99788152D01*
X95734649Y-99788152D02*
X95782268Y-99883390D01*
X95782268Y-99883390D02*
X95829887Y-99931009D01*
X95829887Y-99931009D02*
X95925125Y-99978628D01*
X95925125Y-99978628D02*
X96306077Y-99978628D01*
X97639411Y-104502438D02*
X97734649Y-104454819D01*
X97734649Y-104454819D02*
X97877506Y-104454819D01*
X97877506Y-104454819D02*
X98020363Y-104502438D01*
X98020363Y-104502438D02*
X98115601Y-104597676D01*
X98115601Y-104597676D02*
X98163220Y-104692914D01*
X98163220Y-104692914D02*
X98210839Y-104883390D01*
X98210839Y-104883390D02*
X98210839Y-105026247D01*
X98210839Y-105026247D02*
X98163220Y-105216723D01*
X98163220Y-105216723D02*
X98115601Y-105311961D01*
X98115601Y-105311961D02*
X98020363Y-105407200D01*
X98020363Y-105407200D02*
X97877506Y-105454819D01*
X97877506Y-105454819D02*
X97782268Y-105454819D01*
X97782268Y-105454819D02*
X97639411Y-105407200D01*
X97639411Y-105407200D02*
X97591792Y-105359580D01*
X97591792Y-105359580D02*
X97591792Y-105026247D01*
X97591792Y-105026247D02*
X97782268Y-105026247D01*
X97163220Y-105454819D02*
X97163220Y-104454819D01*
X97163220Y-104454819D02*
X96591792Y-105454819D01*
X96591792Y-105454819D02*
X96591792Y-104454819D01*
X96115601Y-105454819D02*
X96115601Y-104454819D01*
X96115601Y-104454819D02*
X95877506Y-104454819D01*
X95877506Y-104454819D02*
X95734649Y-104502438D01*
X95734649Y-104502438D02*
X95639411Y-104597676D01*
X95639411Y-104597676D02*
X95591792Y-104692914D01*
X95591792Y-104692914D02*
X95544173Y-104883390D01*
X95544173Y-104883390D02*
X95544173Y-105026247D01*
X95544173Y-105026247D02*
X95591792Y-105216723D01*
X95591792Y-105216723D02*
X95639411Y-105311961D01*
X95639411Y-105311961D02*
X95734649Y-105407200D01*
X95734649Y-105407200D02*
X95877506Y-105454819D01*
X95877506Y-105454819D02*
X96115601Y-105454819D01*
X97639411Y-102002438D02*
X97734649Y-101954819D01*
X97734649Y-101954819D02*
X97877506Y-101954819D01*
X97877506Y-101954819D02*
X98020363Y-102002438D01*
X98020363Y-102002438D02*
X98115601Y-102097676D01*
X98115601Y-102097676D02*
X98163220Y-102192914D01*
X98163220Y-102192914D02*
X98210839Y-102383390D01*
X98210839Y-102383390D02*
X98210839Y-102526247D01*
X98210839Y-102526247D02*
X98163220Y-102716723D01*
X98163220Y-102716723D02*
X98115601Y-102811961D01*
X98115601Y-102811961D02*
X98020363Y-102907200D01*
X98020363Y-102907200D02*
X97877506Y-102954819D01*
X97877506Y-102954819D02*
X97782268Y-102954819D01*
X97782268Y-102954819D02*
X97639411Y-102907200D01*
X97639411Y-102907200D02*
X97591792Y-102859580D01*
X97591792Y-102859580D02*
X97591792Y-102526247D01*
X97591792Y-102526247D02*
X97782268Y-102526247D01*
X97210839Y-102669104D02*
X96734649Y-102669104D01*
X97306077Y-102954819D02*
X96972744Y-101954819D01*
X96972744Y-101954819D02*
X96639411Y-102954819D01*
X96448934Y-101954819D02*
X95877506Y-101954819D01*
X96163220Y-102954819D02*
X96163220Y-101954819D01*
X95544172Y-102431009D02*
X95210839Y-102431009D01*
X95067982Y-102954819D02*
X95544172Y-102954819D01*
X95544172Y-102954819D02*
X95544172Y-101954819D01*
X95544172Y-101954819D02*
X95067982Y-101954819D01*
M02*
